<svg width="142" height="133" viewBox="0 0 142 133" fill="none" xmlns="http://www.w3.org/2000/svg">
<path d="M74 60H70V131.447L74 133V60Z" fill="black"/>
<line x1="30.5" y1="11" x2="30.5" y2="6" stroke="black"/>
<line x1="31.5" y1="11" x2="31.5" y2="6" stroke="black"/>
<line x1="31" y1="6.5" x2="19" y2="6.5" stroke="black"/>
<line x1="19.5" y1="6" x2="19.5" y2="9" stroke="black"/>
<line x1="19" y1="8.5" x2="22" y2="8.5" stroke="black"/>
<line x1="21.5" y1="8" x2="21.5" y2="7" stroke="black"/>
<line x1="31" y1="6.5" x2="33" y2="6.5" stroke="black"/>
<line x1="32.5" y1="7" x2="32.5" y2="11" stroke="black"/>
<line x1="20" y1="7.5" x2="32" y2="7.5" stroke="black"/>
<line x1="69.5" y1="8" x2="69.5" y2="3" stroke="black"/>
<line x1="70.5" y1="8" x2="70.5" y2="3" stroke="black"/>
<line x1="70" y1="3.5" x2="58" y2="3.5" stroke="black"/>
<line x1="58.5" y1="3" x2="58.5" y2="6" stroke="black"/>
<line x1="58" y1="5.5" x2="61" y2="5.5" stroke="black"/>
<line x1="60.5" y1="5" x2="60.5" y2="4" stroke="black"/>
<line x1="70" y1="3.5" x2="72" y2="3.5" stroke="black"/>
<line x1="71.5" y1="4" x2="71.5" y2="8" stroke="black"/>
<line x1="59" y1="4.5" x2="71" y2="4.5" stroke="black"/>
<line x1="111.5" y1="5" x2="111.5" stroke="black"/>
<line x1="112.5" y1="5" x2="112.5" stroke="black"/>
<line x1="112" y1="0.5" x2="100" y2="0.5" stroke="black"/>
<line x1="100.5" x2="100.5" y2="3" stroke="black"/>
<line x1="100" y1="2.5" x2="103" y2="2.5" stroke="black"/>
<line x1="102.5" y1="2" x2="102.5" y2="1" stroke="black"/>
<line x1="112" y1="0.5" x2="114" y2="0.5" stroke="black"/>
<line x1="113.5" y1="1" x2="113.5" y2="5" stroke="black"/>
<line x1="101" y1="1.5" x2="113" y2="1.5" stroke="black"/>
<path d="M141.5 5.69483C141.5 4.25232 140.283 3.10913 138.843 3.19977L9.8429 11.322C8.5258 11.4049 7.5 12.4973 7.5 13.8171V59.2037C7.5 60.5163 8.51514 61.6054 9.82451 61.6975L138.825 70.7753C140.271 70.8771 141.5 69.7313 141.5 68.2815V5.69483Z" fill="#F1F1F1" stroke="black"/>
<line x1="4.02936" y1="56.5009" x2="123.029" y2="63.5009" stroke="black"/>
<path d="M10.5 64L138 72L123.5 74.5L4 66L10.5 64Z" fill="black"/>
<line x1="122.967" y1="63.5011" x2="137.967" y2="62.5011" stroke="black"/>
<line x1="123.5" y1="63" x2="123.5" y2="74" stroke="black"/>
<line x1="137.5" y1="62" x2="137.5" y2="72" stroke="black"/>
<line x1="103.5" y1="62" x2="103.5" y2="73" stroke="black"/>
<line x1="83.5" y1="61" x2="83.5" y2="71" stroke="black"/>
<line x1="66.5" y1="60" x2="66.5" y2="70" stroke="black"/>
<line x1="51.5" y1="59" x2="51.5" y2="69" stroke="black"/>
<line x1="33.5" y1="58" x2="33.5" y2="68" stroke="black"/>
<line x1="19.5" y1="57" x2="19.5" y2="67" stroke="black"/>
<line x1="4.5" y1="56" x2="4.5" y2="66" stroke="black"/>
<line x1="10.5" y1="55" x2="10.5" y2="65" stroke="black"/>
<line x1="10.0822" y1="55.4932" x2="4.0822" y2="56.4932" stroke="black"/>
</svg>
