<svg xmlns="http://www.w3.org/2000/svg" xmlns:xlink="http://www.w3.org/1999/xlink" width="472" zoomAndPan="magnify" viewBox="0 0 354 364.499989" height="486" preserveAspectRatio="xMidYMid meet" version="1.0"><defs><clipPath id="e999b90d15"><path d="M 34.925781 23.222656 L 332.460938 23.222656 L 332.460938 320.390625 L 34.925781 320.390625 Z M 34.925781 23.222656 " clip-rule="nonzero"/></clipPath></defs><path fill="#bbf65d" d="M 293.484375 19.003906 C 320.605469 36.730469 337.050781 70.683594 344.738281 103.996094 C 352.425781 137.09375 351.355469 169.554688 346.230469 200.945312 C 341.320312 232.546875 332.566406 263.085938 314.839844 289.566406 C 297.117188 316.042969 270.851562 338.464844 239.671875 350.210938 C 208.28125 362.167969 172.40625 363.449219 141.65625 352.132812 C 111.121094 340.601562 85.707031 316.472656 62.433594 289.992188 C 39.15625 263.726562 17.800781 235.324219 9.472656 202.652344 C 0.933594 169.980469 5.203125 133.039062 20.152344 101.21875 C 35.097656 69.402344 60.722656 42.707031 91.046875 26.480469 C 121.15625 10.25 156.179688 4.484375 192.480469 2.347656 C 228.78125 0 266.367188 1.496094 293.484375 19.003906 Z M 293.484375 19.003906 " fill-opacity="1" fill-rule="nonzero"/><path fill="#000000" d="M 323.082031 38.949219 C 319.765625 38.949219 316.40625 39.808594 313.339844 41.617188 C 242.269531 83.550781 191.800781 158.777344 168.609375 198.664062 L 130.71875 151.082031 C 126.929688 146.320312 121.339844 143.84375 115.6875 143.84375 C 111.503906 143.84375 107.285156 145.207031 103.75 148.011719 C 95.453125 154.605469 94.078125 166.667969 100.675781 174.953125 L 156.65625 245.253906 C 160.320312 249.851562 165.867188 252.488281 171.675781 252.488281 C 172.394531 252.488281 173.109375 252.449219 173.832031 252.367188 C 180.398438 251.628906 186.121094 247.566406 188.984375 241.613281 C 189.535156 240.46875 245.058594 126.4375 332.863281 74.636719 C 341.988281 69.25 345.015625 57.496094 339.625 48.378906 C 336.042969 42.320312 329.648438 38.949219 323.082031 38.949219 " fill-opacity="1" fill-rule="nonzero"/><g clip-path="url(#e999b90d15)"><path fill="#000000" d="M 320.820312 112.941406 L 318.492188 113.722656 C 312.425781 118.570312 306.566406 123.691406 300.921875 128.996094 L 301.921875 131.953125 C 306.242188 144.75 308.433594 158.160156 308.433594 171.804688 C 308.433594 240.519531 252.46875 296.421875 183.675781 296.421875 C 114.882812 296.421875 58.917969 240.519531 58.917969 171.804688 C 58.917969 131.871094 78.300781 94.066406 110.769531 70.667969 C 132.085938 55.304688 157.296875 47.1875 183.675781 47.1875 C 204.5 47.1875 225.105469 52.410156 243.269531 62.292969 L 244.929688 63.199219 C 251.179688 57.457031 257.664062 51.867188 264.382812 46.492188 L 254.746094 41.25 C 233.074219 29.453125 208.5 23.21875 183.675781 23.21875 C 156.261719 23.21875 129.898438 30.585938 106.742188 44.613281 L 106.460938 44.21875 L 96.730469 51.230469 L 87.003906 58.242188 L 87.296875 58.648438 C 54.3125 86.742188 34.925781 128.207031 34.925781 171.804688 C 34.925781 253.738281 101.65625 320.390625 183.675781 320.390625 C 265.695312 320.390625 332.425781 253.738281 332.425781 171.804688 C 332.425781 155.546875 329.808594 139.5625 324.652344 124.292969 L 320.820312 112.941406 " fill-opacity="1" fill-rule="nonzero"/></g></svg>