<svg xmlns="http://www.w3.org/2000/svg" xmlns:xlink="http://www.w3.org/1999/xlink" width="454" zoomAndPan="magnify" viewBox="0 0 340.5 187.499995" height="250" preserveAspectRatio="xMidYMid meet" version="1.0"><defs><clipPath id="a621139df9"><path d="M 65.976562 0 L 270.179688 0 L 270.179688 108.460938 L 65.976562 108.460938 Z M 65.976562 0 " clip-rule="nonzero"/></clipPath><clipPath id="6c509e4a99"><path d="M 0.203125 30.875 L 339.796875 30.875 L 339.796875 173 L 0.203125 173 Z M 0.203125 30.875 " clip-rule="nonzero"/></clipPath><clipPath id="cef7dc73ad"><path d="M 14 112 L 326 112 L 326 186.460938 L 14 186.460938 Z M 14 112 " clip-rule="nonzero"/></clipPath><clipPath id="3b99cd87f4"><path d="M 184 31 L 190 31 L 190 186.460938 L 184 186.460938 Z M 184 31 " clip-rule="nonzero"/></clipPath><clipPath id="7be4c77210"><path d="M 150 31 L 156 31 L 156 186.460938 L 150 186.460938 Z M 150 31 " clip-rule="nonzero"/></clipPath><clipPath id="dfb11cdad7"><path d="M 111.601562 63.046875 L 228.417969 63.046875 L 228.417969 93.5625 L 111.601562 93.5625 Z M 111.601562 63.046875 " clip-rule="nonzero"/></clipPath><clipPath id="8b31f3a449"><path d="M 126.859375 63.046875 L 213.050781 63.046875 C 217.097656 63.046875 220.980469 64.652344 223.839844 67.515625 C 226.703125 70.375 228.308594 74.257812 228.308594 78.304688 C 228.308594 82.351562 226.703125 86.230469 223.839844 89.09375 C 220.980469 91.953125 217.097656 93.5625 213.050781 93.5625 L 126.859375 93.5625 C 122.8125 93.5625 118.929688 91.953125 116.070312 89.09375 C 113.207031 86.230469 111.601562 82.351562 111.601562 78.304688 C 111.601562 74.257812 113.207031 70.375 116.070312 67.515625 C 118.929688 64.652344 122.8125 63.046875 126.859375 63.046875 Z M 126.859375 63.046875 " clip-rule="nonzero"/></clipPath><clipPath id="cb7b101e0b"><path d="M 111.601562 63.046875 L 228.289062 63.046875 L 228.289062 93.714844 L 111.601562 93.714844 Z M 111.601562 63.046875 " clip-rule="nonzero"/></clipPath><clipPath id="313db7b70f"><path d="M 126.871094 63.046875 L 213.03125 63.046875 C 217.074219 63.046875 220.957031 64.652344 223.816406 67.511719 C 226.675781 70.371094 228.28125 74.253906 228.28125 78.296875 C 228.28125 82.34375 226.675781 86.222656 223.816406 89.082031 C 220.957031 91.941406 217.074219 93.550781 213.03125 93.550781 L 126.871094 93.550781 C 122.824219 93.550781 118.945312 91.941406 116.085938 89.082031 C 113.222656 86.222656 111.617188 82.34375 111.617188 78.296875 C 111.617188 74.253906 113.222656 70.371094 116.085938 67.511719 C 118.945312 64.652344 122.824219 63.046875 126.871094 63.046875 Z M 126.871094 63.046875 " clip-rule="nonzero"/></clipPath><clipPath id="e7fd468c94"><path d="M 111.601562 93.5625 L 228.417969 93.5625 L 228.417969 124.078125 L 111.601562 124.078125 Z M 111.601562 93.5625 " clip-rule="nonzero"/></clipPath><clipPath id="74c0a4284d"><path d="M 126.859375 93.5625 L 213.050781 93.5625 C 217.097656 93.5625 220.980469 95.167969 223.839844 98.03125 C 226.703125 100.890625 228.308594 104.773438 228.308594 108.820312 C 228.308594 112.867188 226.703125 116.746094 223.839844 119.609375 C 220.980469 122.46875 217.097656 124.078125 213.050781 124.078125 L 126.859375 124.078125 C 122.8125 124.078125 118.929688 122.46875 116.070312 119.609375 C 113.207031 116.746094 111.601562 112.867188 111.601562 108.820312 C 111.601562 104.773438 113.207031 100.890625 116.070312 98.03125 C 118.929688 95.167969 122.8125 93.5625 126.859375 93.5625 Z M 126.859375 93.5625 " clip-rule="nonzero"/></clipPath><clipPath id="be0d01ecd4"><path d="M 111.601562 93.5625 L 228.289062 93.5625 L 228.289062 124.230469 L 111.601562 124.230469 Z M 111.601562 93.5625 " clip-rule="nonzero"/></clipPath><clipPath id="3b2b01b936"><path d="M 126.871094 93.5625 L 213.03125 93.5625 C 217.074219 93.5625 220.957031 95.167969 223.816406 98.027344 C 226.675781 100.890625 228.28125 104.769531 228.28125 108.8125 C 228.28125 112.859375 226.675781 116.738281 223.816406 119.597656 C 220.957031 122.457031 217.074219 124.066406 213.03125 124.066406 L 126.871094 124.066406 C 122.824219 124.066406 118.945312 122.457031 116.085938 119.597656 C 113.222656 116.738281 111.617188 112.859375 111.617188 108.8125 C 111.617188 104.769531 113.222656 100.890625 116.085938 98.027344 C 118.945312 95.167969 122.824219 93.5625 126.871094 93.5625 Z M 126.871094 93.5625 " clip-rule="nonzero"/></clipPath><clipPath id="9661611b3c"><path d="M 111.601562 124.078125 L 228.417969 124.078125 L 228.417969 154.59375 L 111.601562 154.59375 Z M 111.601562 124.078125 " clip-rule="nonzero"/></clipPath><clipPath id="87351dd43b"><path d="M 126.859375 124.078125 L 213.050781 124.078125 C 217.097656 124.078125 220.980469 125.683594 223.839844 128.546875 C 226.703125 131.40625 228.308594 135.289062 228.308594 139.335938 C 228.308594 143.382812 226.703125 147.261719 223.839844 150.125 C 220.980469 152.984375 217.097656 154.59375 213.050781 154.59375 L 126.859375 154.59375 C 122.8125 154.59375 118.929688 152.984375 116.070312 150.125 C 113.207031 147.261719 111.601562 143.382812 111.601562 139.335938 C 111.601562 135.289062 113.207031 131.40625 116.070312 128.546875 C 118.929688 125.683594 122.8125 124.078125 126.859375 124.078125 Z M 126.859375 124.078125 " clip-rule="nonzero"/></clipPath><clipPath id="c26f642f65"><path d="M 111.601562 124.078125 L 228.289062 124.078125 L 228.289062 154.746094 L 111.601562 154.746094 Z M 111.601562 124.078125 " clip-rule="nonzero"/></clipPath><clipPath id="81da81e2a9"><path d="M 126.871094 124.078125 L 213.03125 124.078125 C 217.074219 124.078125 220.957031 125.683594 223.816406 128.542969 C 226.675781 131.40625 228.28125 135.285156 228.28125 139.328125 C 228.28125 143.375 226.675781 147.253906 223.816406 150.113281 C 220.957031 152.976562 217.074219 154.582031 213.03125 154.582031 L 126.871094 154.582031 C 122.824219 154.582031 118.945312 152.976562 116.085938 150.113281 C 113.222656 147.253906 111.617188 143.375 111.617188 139.328125 C 111.617188 135.285156 113.222656 131.40625 116.085938 128.542969 C 118.945312 125.683594 122.824219 124.078125 126.871094 124.078125 Z M 126.871094 124.078125 " clip-rule="nonzero"/></clipPath><clipPath id="03cfdf5229"><path d="M 128.957031 72.917969 L 139.722656 72.917969 L 139.722656 83.6875 L 128.957031 83.6875 Z M 128.957031 72.917969 " clip-rule="nonzero"/></clipPath><clipPath id="123adc026b"><path d="M 134.339844 72.917969 C 131.367188 72.917969 128.957031 75.328125 128.957031 78.304688 C 128.957031 81.277344 131.367188 83.6875 134.339844 83.6875 C 137.3125 83.6875 139.722656 81.277344 139.722656 78.304688 C 139.722656 75.328125 137.3125 72.917969 134.339844 72.917969 Z M 134.339844 72.917969 " clip-rule="nonzero"/></clipPath><clipPath id="4eacefa970"><path d="M 144.917969 72.917969 L 155.683594 72.917969 L 155.683594 83.6875 L 144.917969 83.6875 Z M 144.917969 72.917969 " clip-rule="nonzero"/></clipPath><clipPath id="0589f4ca89"><path d="M 150.300781 72.917969 C 147.328125 72.917969 144.917969 75.328125 144.917969 78.304688 C 144.917969 81.277344 147.328125 83.6875 150.300781 83.6875 C 153.273438 83.6875 155.683594 81.277344 155.683594 78.304688 C 155.683594 75.328125 153.273438 72.917969 150.300781 72.917969 Z M 150.300781 72.917969 " clip-rule="nonzero"/></clipPath><clipPath id="a6ad24988f"><path d="M 128.957031 103.433594 L 139.722656 103.433594 L 139.722656 114.203125 L 128.957031 114.203125 Z M 128.957031 103.433594 " clip-rule="nonzero"/></clipPath><clipPath id="9718e09cb0"><path d="M 134.339844 103.433594 C 131.367188 103.433594 128.957031 105.84375 128.957031 108.820312 C 128.957031 111.792969 131.367188 114.203125 134.339844 114.203125 C 137.3125 114.203125 139.722656 111.792969 139.722656 108.820312 C 139.722656 105.84375 137.3125 103.433594 134.339844 103.433594 Z M 134.339844 103.433594 " clip-rule="nonzero"/></clipPath><clipPath id="3595d9fddb"><path d="M 144.917969 103.433594 L 155.683594 103.433594 L 155.683594 114.203125 L 144.917969 114.203125 Z M 144.917969 103.433594 " clip-rule="nonzero"/></clipPath><clipPath id="84fbd38f45"><path d="M 150.300781 103.433594 C 147.328125 103.433594 144.917969 105.84375 144.917969 108.820312 C 144.917969 111.792969 147.328125 114.203125 150.300781 114.203125 C 153.273438 114.203125 155.683594 111.792969 155.683594 108.820312 C 155.683594 105.84375 153.273438 103.433594 150.300781 103.433594 Z M 150.300781 103.433594 " clip-rule="nonzero"/></clipPath><clipPath id="d710bfbbcc"><path d="M 128.957031 134.402344 L 139.722656 134.402344 L 139.722656 145.167969 L 128.957031 145.167969 Z M 128.957031 134.402344 " clip-rule="nonzero"/></clipPath><clipPath id="fd6c7b0884"><path d="M 134.339844 134.402344 C 131.367188 134.402344 128.957031 136.8125 128.957031 139.785156 C 128.957031 142.757812 131.367188 145.167969 134.339844 145.167969 C 137.3125 145.167969 139.722656 142.757812 139.722656 139.785156 C 139.722656 136.8125 137.3125 134.402344 134.339844 134.402344 Z M 134.339844 134.402344 " clip-rule="nonzero"/></clipPath><clipPath id="b8b3514f1e"><path d="M 144.917969 134.402344 L 155.683594 134.402344 L 155.683594 145.167969 L 144.917969 145.167969 Z M 144.917969 134.402344 " clip-rule="nonzero"/></clipPath><clipPath id="4667f3e171"><path d="M 150.300781 134.402344 C 147.328125 134.402344 144.917969 136.8125 144.917969 139.785156 C 144.917969 142.757812 147.328125 145.167969 150.300781 145.167969 C 153.273438 145.167969 155.683594 142.757812 155.683594 139.785156 C 155.683594 136.8125 153.273438 134.402344 150.300781 134.402344 Z M 150.300781 134.402344 " clip-rule="nonzero"/></clipPath></defs><g clip-path="url(#a621139df9)"><path fill="#be47ff" d="M 235.210938 38.46875 C 233.460938 38.46875 231.746094 38.601562 230.074219 38.839844 C 228.046875 17.054688 209.722656 0.00390625 187.402344 0.00390625 C 173.535156 0.00390625 161.207031 6.597656 153.367188 16.8125 C 150.222656 15.886719 146.890625 15.382812 143.441406 15.382812 C 127.851562 15.382812 114.632812 25.53125 110.03125 39.597656 C 107.191406 38.855469 104.203125 38.457031 101.140625 38.457031 C 81.726562 38.46875 65.976562 54.207031 65.976562 73.632812 C 65.976562 93.058594 81.726562 108.796875 101.140625 108.796875 L 235.210938 108.796875 C 254.636719 108.796875 270.375 93.046875 270.375 73.632812 C 270.375 54.21875 254.625 38.46875 235.210938 38.46875 Z M 235.210938 38.46875 " fill-opacity="1" fill-rule="nonzero"/></g><g clip-path="url(#6c509e4a99)"><path fill="#be47ff" d="M 166.074219 172.363281 C 156.25 172.363281 146.378906 172.105469 136.476562 171.503906 C 119.226562 170.460938 101.75 168.769531 84.828125 167.140625 C 57.40625 164.484375 29.046875 161.738281 0.988281 161.707031 L 0.203125 161.707031 L 0.414062 160.953125 C 6.015625 140.425781 11.992188 119.613281 18.210938 99.070312 C 21.621094 87.828125 24.441406 76.207031 27.175781 64.992188 C 29.875 53.914062 32.652344 42.457031 36.003906 31.332031 L 36.140625 30.910156 L 36.59375 30.910156 C 61.449219 30.910156 86.730469 30.941406 111.167969 30.988281 C 153.199219 31.046875 196.652344 31.09375 239.410156 31.015625 C 244.40625 31 249.417969 31 254.414062 30.988281 C 270.441406 30.957031 287.015625 30.925781 303.316406 30.910156 L 303.769531 30.910156 L 303.902344 31.332031 C 307.253906 42.457031 310.046875 53.914062 312.734375 64.992188 C 315.464844 76.21875 318.289062 87.828125 321.699219 99.070312 C 327.917969 119.628906 333.910156 140.441406 339.492188 160.953125 L 339.703125 161.707031 L 338.917969 161.707031 C 312.523438 161.738281 285.835938 164.121094 258.566406 166.777344 C 228.890625 169.660156 197.738281 172.363281 166.074219 172.363281 Z M 1.789062 160.5 C 29.632812 160.589844 57.753906 163.308594 84.949219 165.933594 C 101.855469 167.5625 119.332031 169.253906 136.554688 170.292969 C 178.238281 172.816406 219.625 169.34375 258.445312 165.570312 C 285.492188 162.945312 311.933594 160.574219 338.132812 160.5 C 332.609375 140.257812 326.695312 119.703125 320.550781 99.417969 C 317.140625 88.144531 314.304688 76.507812 311.570312 65.277344 C 308.914062 54.351562 306.167969 43.0625 302.878906 32.105469 C 286.714844 32.105469 270.308594 32.132812 254.414062 32.179688 C 249.417969 32.195312 244.40625 32.195312 239.410156 32.210938 C 224.0625 32.238281 208.605469 32.253906 193.167969 32.253906 C 165.621094 32.253906 138.109375 32.222656 111.167969 32.179688 C 86.867188 32.148438 61.753906 32.117188 37.03125 32.105469 C 33.753906 43.0625 31.007812 54.351562 28.335938 65.261719 C 25.605469 76.507812 22.765625 88.128906 19.355469 99.417969 C 13.230469 119.6875 7.3125 140.246094 1.789062 160.5 Z M 1.789062 160.5 " fill-opacity="1" fill-rule="nonzero"/></g><path fill="#be47ff" d="M 170 169.238281 C 158.980469 169.238281 147.949219 168.527344 137.324219 167.109375 C 119.648438 164.753906 101.992188 160.53125 84.921875 156.453125 C 59.308594 150.328125 32.820312 144.003906 5.863281 143.898438 L 5.863281 142.691406 C 32.957031 142.796875 59.519531 149.148438 85.191406 155.277344 C 102.230469 159.351562 119.859375 163.5625 137.472656 165.917969 C 156.234375 168.421875 176.21875 168.710938 195.234375 166.761719 C 215.066406 164.742188 234.808594 160.015625 253.886719 155.457031 L 255.621094 155.035156 C 279.632812 149.300781 306.863281 142.796875 334.03125 142.691406 L 334.03125 143.898438 C 307.011719 144.003906 279.859375 150.492188 255.910156 156.214844 L 254.171875 156.636719 C 235.050781 161.207031 215.261719 165.933594 195.355469 167.96875 C 187.039062 168.800781 178.527344 169.238281 170 169.238281 Z M 170 169.238281 " fill-opacity="1" fill-rule="nonzero"/><path fill="#be47ff" d="M 170.285156 178.625 C 159.765625 178.625 149.09375 177.101562 138.078125 174.039062 C 119.84375 168.980469 102.261719 160.921875 85.253906 153.148438 C 61.496094 142.28125 36.941406 131.039062 10.375 127.882812 L 10.511719 126.691406 C 37.257812 129.859375 61.902344 141.148438 85.75 152.0625 C 102.714844 159.820312 120.253906 167.851562 138.394531 172.890625 C 157.757812 178.265625 176.066406 178.851562 194.34375 174.703125 C 214.386719 170.144531 233.496094 161.511719 251.984375 153.148438 L 252.964844 152.710938 C 254.113281 152.199219 255.257812 151.671875 256.40625 151.15625 C 279.621094 140.636719 303.617188 129.769531 329.394531 126.707031 L 329.53125 127.898438 C 303.949219 130.933594 280.042969 141.769531 256.90625 152.242188 C 255.757812 152.757812 254.609375 153.285156 253.464844 153.796875 L 252.480469 154.234375 C 233.949219 162.613281 214.78125 171.289062 194.617188 175.863281 C 186.542969 177.707031 178.453125 178.625 170.285156 178.625 Z M 170.285156 178.625 " fill-opacity="1" fill-rule="nonzero"/><g clip-path="url(#cef7dc73ad)"><path fill="#be47ff" d="M 170.089844 186.714844 C 168.730469 186.714844 167.359375 186.65625 166 186.519531 C 157.5625 185.71875 148.777344 183.457031 139.148438 179.621094 C 120.042969 172.03125 102.457031 160.453125 85.464844 149.269531 C 63.488281 134.828125 40.757812 119.882812 14.664062 113.515625 L 14.949219 112.335938 C 26.753906 115.21875 38.886719 120.082031 52.015625 127.1875 C 63.714844 133.527344 75.109375 141.03125 86.128906 148.273438 C 103.078125 159.429688 120.613281 170.957031 139.601562 178.503906 C 149.125 182.292969 157.804688 184.527344 166.121094 185.3125 C 176.277344 186.277344 186.917969 183.214844 194.042969 180.816406 C 213.964844 174.113281 232.078125 162.460938 249.597656 151.203125 L 250.355469 150.71875 C 252.695312 149.226562 255.078125 147.671875 257.371094 146.175781 C 278.457031 132.503906 300.25 118.359375 324.972656 112.324219 L 325.261719 113.5 C 300.75 119.476562 279.03125 133.574219 258.035156 147.1875 C 255.726562 148.679688 253.34375 150.234375 251.003906 151.730469 L 250.25 152.214844 C 232.664062 163.519531 214.476562 175.199219 194.417969 181.960938 C 188.140625 184.089844 179.160156 186.714844 170.089844 186.714844 Z M 170.089844 186.714844 " fill-opacity="1" fill-rule="nonzero"/></g><path fill="#be47ff" d="M 170.253906 180.828125 C 168.746094 180.828125 167.222656 180.785156 165.710938 180.679688 C 157.066406 180.089844 148.160156 177.8125 139.253906 173.886719 C 120.660156 165.691406 104.042969 153.238281 87.984375 141.195312 C 86.339844 139.957031 84.679688 138.71875 83.035156 137.496094 C 82.039062 136.757812 81.042969 136.003906 80.03125 135.265625 C 61.074219 121.105469 41.484375 106.453125 18.738281 99.417969 L 19.101562 98.269531 C 42.042969 105.378906 61.722656 120.082031 80.753906 134.296875 C 81.75 135.050781 82.746094 135.792969 83.757812 136.53125 C 85.402344 137.753906 87.0625 138.992188 88.707031 140.230469 C 104.722656 152.226562 121.277344 164.636719 139.753906 172.785156 C 157.699219 180.695312 175.402344 181.734375 192.367188 175.863281 C 212.636719 168.859375 230.402344 155.683594 247.5625 142.929688 L 248.375 142.328125 C 251.320312 140.152344 254.308594 137.890625 257.207031 135.703125 C 276.84375 120.894531 297.140625 105.578125 320.824219 98.257812 L 321.183594 99.402344 C 297.699219 106.679688 277.492188 121.921875 257.945312 136.667969 C 255.046875 138.855469 252.042969 141.121094 249.101562 143.292969 L 248.285156 143.898438 C 231.035156 156.695312 213.210938 169.933594 192.757812 176.996094 C 185.378906 179.546875 177.832031 180.828125 170.253906 180.828125 Z M 170.253906 180.828125 " fill-opacity="1" fill-rule="nonzero"/><path fill="#be47ff" d="M 170.375 156.0625 C 169.183594 156.0625 167.992188 156.015625 166.816406 155.910156 C 158.632812 155.1875 150.183594 153.148438 140.945312 149.691406 C 120.8125 142.144531 102.429688 130.433594 84.648438 119.113281 C 65.179688 106.707031 45.042969 93.894531 22.632812 86.574219 L 23.007812 85.425781 C 45.558594 92.792969 65.765625 105.652344 85.296875 118.101562 C 103.03125 129.394531 121.355469 141.058594 141.367188 148.574219 C 150.484375 152.003906 158.84375 154.007812 166.921875 154.734375 C 175.613281 155.503906 184.640625 153.148438 192.304688 150.734375 C 210.734375 144.953125 227.398438 135.039062 245.734375 123.640625 C 249.039062 121.589844 252.390625 119.476562 255.636719 117.425781 C 274.925781 105.246094 294.863281 92.640625 316.914062 85.441406 L 317.292969 86.589844 C 295.390625 93.742188 275.515625 106.300781 256.285156 118.449219 C 253.039062 120.503906 249.691406 122.617188 246.382812 124.667969 C 227.988281 136.109375 211.25 146.054688 192.683594 151.882812 C 185.90625 153.980469 178.121094 156.0625 170.375 156.0625 Z M 170.375 156.0625 " fill-opacity="1" fill-rule="nonzero"/><path fill="#be47ff" d="M 170.269531 119.582031 C 160.929688 119.582031 151.449219 118.34375 141.667969 115.882812 C 121.746094 110.859375 102.714844 102.390625 84.316406 94.195312 C 65.722656 85.925781 46.492188 77.367188 26.375 72.386719 L 26.660156 71.210938 C 46.886719 76.21875 66.160156 84.792969 84.800781 93.09375 C 103.152344 101.257812 122.125 109.710938 141.957031 114.707031 C 159.191406 119.054688 175.460938 119.523438 191.671875 116.15625 C 210.191406 112.308594 227.957031 104.898438 244.558594 97.636719 C 247.910156 96.171875 251.320312 94.664062 254.609375 93.199219 C 273.429688 84.855469 292.886719 76.234375 313.246094 71.195312 L 313.53125 72.371094 C 293.261719 77.382812 273.855469 85.984375 255.09375 94.316406 C 251.804688 95.78125 248.390625 97.289062 245.042969 98.753906 C 228.378906 106.027344 210.539062 113.46875 191.914062 117.347656 C 184.746094 118.84375 177.546875 119.582031 170.269531 119.582031 Z M 170.269531 119.582031 " fill-opacity="1" fill-rule="nonzero"/><path fill="#be47ff" d="M 167.585938 82.648438 C 158.90625 82.648438 150.484375 82.136719 142.183594 81.125 C 122.5625 78.726562 103.105469 73.867188 84.285156 69.1875 C 66.597656 64.78125 48.320312 60.222656 29.953125 57.714844 L 30.117188 56.523438 C 48.546875 59.042969 66.867188 63.601562 84.589844 68.023438 C 103.363281 72.703125 122.789062 77.546875 142.332031 79.933594 C 171.71875 83.539062 202.539062 80.839844 242.265625 71.179688 C 246.265625 70.214844 250.339844 69.203125 254.261719 68.222656 C 272.3125 63.738281 291 59.089844 309.789062 56.523438 L 309.957031 57.714844 C 291.226562 60.28125 272.585938 64.914062 254.566406 69.398438 C 250.625 70.378906 246.566406 71.390625 242.550781 72.355469 C 224.0625 76.855469 207.777344 79.78125 192.757812 81.320312 C 184.082031 82.195312 175.71875 82.648438 167.585938 82.648438 Z M 167.585938 82.648438 " fill-opacity="1" fill-rule="nonzero"/><path fill="#be47ff" d="M 154.015625 51.859375 C 150.453125 51.859375 146.800781 51.816406 143.011719 51.710938 C 123.40625 51.179688 103.558594 49.371094 84.375 47.621094 C 67.667969 46.09375 50.402344 44.511719 33.363281 43.800781 L 33.40625 42.59375 C 50.476562 43.316406 67.757812 44.886719 84.484375 46.425781 C 103.652344 48.175781 123.46875 49.988281 143.042969 50.515625 C 151.496094 50.742188 159.269531 50.714844 166.785156 50.441406 C 171.25 50.277344 175.792969 50.394531 180.1875 50.503906 C 183.566406 50.59375 187.070312 50.683594 190.496094 50.636719 C 207.835938 50.441406 224.921875 49.113281 240.816406 47.726562 C 245.296875 47.332031 249.855469 46.910156 254.261719 46.515625 C 271.363281 44.960938 289.039062 43.347656 306.5 42.609375 L 306.546875 43.816406 C 289.113281 44.554688 271.453125 46.15625 254.367188 47.726562 C 249.960938 48.132812 245.402344 48.539062 240.921875 48.933594 C 225.011719 50.335938 207.898438 51.648438 190.511719 51.859375 C 187.054688 51.90625 183.550781 51.816406 180.15625 51.722656 C 175.78125 51.605469 171.253906 51.5 166.828125 51.664062 C 162.648438 51.785156 158.40625 51.859375 154.015625 51.859375 Z M 154.015625 51.859375 " fill-opacity="1" fill-rule="nonzero"/><path fill="#be47ff" d="M 300.78125 162.582031 C 298.789062 152.710938 296.328125 143.941406 293.277344 135.777344 C 290.621094 128.667969 288.539062 122.074219 286.9375 115.660156 C 283.210938 100.65625 281.160156 85.09375 279.183594 70.046875 C 277.519531 57.398438 275.800781 44.3125 273.085938 31.652344 L 274.261719 31.394531 C 276.976562 44.101562 278.699219 57.203125 280.375 69.882812 C 282.351562 84.898438 284.390625 100.429688 288.101562 115.355469 C 289.6875 121.742188 291.753906 128.277344 294.394531 135.355469 C 297.472656 143.582031 299.949219 152.410156 301.941406 162.339844 Z M 300.78125 162.582031 " fill-opacity="1" fill-rule="nonzero"/><path fill="#be47ff" d="M 263.226562 165.75 C 263.167969 165.34375 263.09375 164.921875 263.03125 164.515625 C 262.277344 159.667969 261.476562 154.671875 258.019531 151.140625 C 254.792969 147.867188 254.066406 143.59375 253.34375 139.460938 C 251.183594 126.976562 250.277344 114.042969 249.417969 101.546875 C 249.191406 98.300781 248.964844 94.949219 248.707031 91.675781 C 248.347656 87.027344 248.015625 82.304688 247.699219 77.730469 C 246.625 62.589844 245.507812 46.941406 243.472656 31.695312 L 244.664062 31.53125 C 246.714844 46.820312 247.832031 62.484375 248.90625 77.640625 C 249.238281 82.210938 249.570312 86.9375 249.917969 91.585938 C 250.171875 94.875 250.398438 98.226562 250.625 101.472656 C 251.5 113.9375 252.390625 126.84375 254.535156 139.265625 C 255.214844 143.21875 255.921875 147.308594 258.882812 150.3125 C 262.625 154.113281 263.441406 159.308594 264.222656 164.332031 C 264.285156 164.742188 264.359375 165.164062 264.421875 165.570312 Z M 263.226562 165.75 " fill-opacity="1" fill-rule="nonzero"/><path fill="#be47ff" d="M 221.738281 169.496094 C 221.675781 169.496094 221.617188 169.496094 221.542969 169.480469 C 220.515625 169.3125 220.046875 167.730469 219.777344 163.441406 C 219.761719 163.246094 219.761719 163.109375 219.746094 163.035156 C 218.328125 148.847656 217.902344 134.3125 217.496094 120.246094 C 217.359375 115.460938 217.210938 110.511719 217.027344 105.652344 C 216.800781 99.703125 216.605469 93.652344 216.410156 87.796875 C 215.804688 69.382812 215.171875 50.335938 213.800781 31.679688 L 215.007812 31.589844 C 216.378906 50.277344 217.015625 69.339844 217.617188 87.765625 C 217.8125 93.621094 218.011719 99.675781 218.234375 105.621094 C 218.417969 110.480469 218.554688 115.433594 218.703125 120.214844 C 219.113281 134.269531 219.535156 148.789062 220.953125 162.929688 C 220.96875 163.003906 220.96875 163.171875 220.984375 163.382812 C 221.058594 164.648438 221.300781 167.5625 221.753906 168.242188 C 221.917969 168.046875 222.128906 167.519531 222.371094 166.65625 C 222.417969 166.492188 222.460938 166.355469 222.492188 166.234375 C 222.523438 166.144531 222.582031 165.917969 222.644531 165.675781 C 223.21875 163.425781 223.667969 162.265625 224.5 162.144531 C 224.800781 162.097656 225.105469 162.191406 225.34375 162.402344 C 226.128906 163.050781 226.597656 165.042969 226.855469 168.859375 C 226.871094 169.011719 226.871094 169.101562 226.871094 169.148438 L 225.660156 169.269531 C 225.660156 169.207031 225.648438 169.101562 225.632812 168.9375 C 225.359375 164.800781 224.847656 163.699219 224.652344 163.425781 C 224.425781 163.746094 224.136719 164.605469 223.789062 165.976562 C 223.714844 166.28125 223.65625 166.492188 223.609375 166.628906 C 223.578125 166.703125 223.550781 166.839844 223.503906 166.972656 C 223.246094 167.925781 222.808594 169.496094 221.738281 169.496094 Z M 221.738281 169.496094 " fill-opacity="1" fill-rule="nonzero"/><g clip-path="url(#3b99cd87f4)"><path fill="#be47ff" d="M 187.054688 186.097656 L 186.511719 183.847656 C 185.800781 180.84375 185.863281 177.492188 185.9375 174.265625 C 185.96875 173.011719 185.984375 171.820312 185.96875 170.65625 C 185.742188 158.296875 185.589844 145.722656 185.453125 133.558594 L 185.410156 129.980469 C 185.304688 120.578125 185.210938 111.023438 185.136719 101.773438 C 184.941406 78.769531 184.730469 55 184.15625 31.621094 L 185.363281 31.589844 C 185.9375 54.96875 186.148438 78.757812 186.34375 101.757812 C 186.421875 110.996094 186.511719 120.5625 186.617188 129.953125 L 186.660156 133.527344 C 186.796875 145.617188 186.933594 158.113281 187.160156 170.402344 C 187.25 169.164062 187.445312 167.957031 187.792969 166.777344 L 188.441406 164.589844 L 188.957031 166.808594 C 189.242188 168.046875 189.273438 169.359375 189.289062 170.625 C 189.289062 170.945312 189.304688 171.261719 189.304688 171.578125 L 188.292969 171.609375 C 188.246094 172.859375 188.277344 174.128906 188.308594 175.382812 C 188.367188 178.203125 188.441406 181.132812 187.671875 183.847656 Z M 187.128906 175.578125 C 187.113281 176.710938 187.097656 177.839844 187.144531 178.957031 C 187.175781 177.839844 187.144531 176.695312 187.128906 175.578125 Z M 187.128906 175.578125 " fill-opacity="1" fill-rule="nonzero"/></g><g clip-path="url(#7be4c77210)"><path fill="#be47ff" d="M 152.824219 186.082031 L 152.21875 183.863281 C 151.480469 181.160156 151.539062 178.265625 151.601562 175.457031 C 151.632812 174.1875 151.644531 172.90625 151.601562 171.621094 L 150.574219 171.59375 C 150.589844 171.289062 150.589844 170.988281 150.589844 170.6875 C 150.621094 169.40625 150.636719 168.089844 150.921875 166.839844 L 151.433594 164.589844 L 152.082031 166.792969 C 152.429688 167.96875 152.613281 169.179688 152.71875 170.402344 C 152.945312 157.933594 153.09375 145.269531 153.230469 133.015625 L 153.261719 129.953125 C 153.367188 120.625 153.441406 111.144531 153.53125 101.984375 C 153.730469 78.90625 153.941406 55.046875 154.515625 31.589844 L 155.722656 31.621094 C 155.148438 55.074219 154.9375 78.921875 154.738281 102 C 154.664062 111.175781 154.574219 120.652344 154.46875 129.964844 L 154.4375 133.03125 C 154.300781 145.359375 154.152344 158.101562 153.925781 170.640625 C 153.910156 171.804688 153.941406 173.011719 153.96875 174.292969 C 154.046875 177.523438 154.136719 180.859375 153.382812 183.847656 Z M 152.808594 175.636719 C 152.792969 176.753906 152.761719 177.886719 152.792969 179.003906 C 152.839844 177.886719 152.824219 176.753906 152.808594 175.636719 Z M 152.808594 175.636719 " fill-opacity="1" fill-rule="nonzero"/></g><path fill="#be47ff" d="M 118.140625 169.511719 C 117.113281 169.511719 116.675781 167.957031 116.390625 166.914062 C 116.359375 166.792969 116.328125 166.6875 116.296875 166.613281 C 116.253906 166.476562 116.191406 166.265625 116.132812 165.976562 C 115.769531 164.574219 115.484375 163.714844 115.257812 163.398438 C 115.03125 163.667969 114.5625 164.710938 114.292969 168.800781 C 114.277344 169.011719 114.261719 169.179688 114.261719 169.253906 L 113.054688 169.132812 C 113.070312 169.058594 113.070312 168.90625 113.082031 168.710938 C 113.339844 164.875 113.777344 163.050781 114.5625 162.386719 C 114.820312 162.175781 115.121094 162.085938 115.421875 162.128906 C 116.269531 162.234375 116.722656 163.414062 117.292969 165.675781 C 117.355469 165.917969 117.414062 166.128906 117.445312 166.21875 C 117.476562 166.308594 117.507812 166.429688 117.550781 166.582031 C 117.71875 167.1875 117.957031 167.910156 118.15625 168.210938 C 118.351562 167.894531 118.726562 166.855469 118.941406 163.367188 C 118.953125 163.15625 118.96875 162.988281 118.96875 162.914062 C 120.386719 148.757812 120.8125 134.207031 121.21875 120.140625 C 121.355469 115.371094 121.503906 110.4375 121.671875 105.605469 C 121.898438 99.691406 122.09375 93.683594 122.273438 87.871094 C 122.878906 69.414062 123.511719 50.320312 124.886719 31.589844 L 126.09375 31.679688 C 124.71875 50.382812 124.085938 69.457031 123.484375 87.917969 C 123.285156 93.726562 123.089844 99.75 122.878906 105.667969 C 122.699219 110.496094 122.5625 115.417969 122.425781 120.1875 C 122.019531 134.269531 121.597656 148.847656 120.175781 163.050781 C 120.175781 163.125 120.164062 163.261719 120.148438 163.457031 C 119.890625 167.699219 119.390625 169.34375 118.304688 169.511719 C 118.246094 169.511719 118.183594 169.511719 118.140625 169.511719 Z M 118.140625 169.511719 " fill-opacity="1" fill-rule="nonzero"/><path fill="#be47ff" d="M 76.679688 165.75 L 75.488281 165.554688 C 75.5625 165.085938 75.636719 164.605469 75.714844 164.121094 C 76.453125 159.398438 77.28125 154.039062 80.90625 150.402344 C 83.984375 147.308594 84.695312 143.21875 85.371094 139.25 C 87.457031 127.160156 88.347656 114.632812 89.207031 102.496094 C 89.417969 99.449219 89.644531 96.277344 89.886719 93.183594 C 90.261719 88.265625 90.625 83.238281 90.957031 78.394531 C 92.042969 62.984375 93.175781 47.0625 95.257812 31.5 L 96.453125 31.667969 C 94.367188 47.179688 93.25 63.089844 92.148438 78.484375 C 91.800781 83.34375 91.457031 88.355469 91.078125 93.289062 C 90.835938 96.382812 90.609375 99.539062 90.398438 102.585938 C 89.539062 114.738281 88.648438 127.308594 86.550781 139.460938 C 85.871094 143.414062 85.085938 147.898438 81.75 151.261719 C 78.398438 154.628906 77.628906 159.546875 76.890625 164.316406 C 76.832031 164.800781 76.753906 165.285156 76.679688 165.75 Z M 76.679688 165.75 " fill-opacity="1" fill-rule="nonzero"/><path fill="#be47ff" d="M 39.128906 162.582031 L 37.949219 162.339844 C 39.941406 152.453125 42.359375 143.792969 45.332031 135.824219 C 48.152344 128.261719 50.207031 121.753906 51.804688 115.371094 C 55.519531 100.429688 57.558594 84.914062 59.535156 69.894531 C 61.195312 57.21875 62.914062 44.117188 65.648438 31.410156 L 66.824219 31.664062 C 64.105469 44.328125 62.386719 57.398438 60.726562 70.0625 C 58.75 85.109375 56.710938 100.671875 52.96875 115.671875 C 51.367188 122.117188 49.300781 128.652344 46.464844 136.261719 C 43.519531 144.152344 41.121094 152.773438 39.128906 162.582031 Z M 39.128906 162.582031 " fill-opacity="1" fill-rule="nonzero"/><g clip-path="url(#dfb11cdad7)"><g clip-path="url(#8b31f3a449)"><path fill="#151318" d="M 111.601562 63.046875 L 228.300781 63.046875 L 228.300781 93.5625 L 111.601562 93.5625 Z M 111.601562 63.046875 " fill-opacity="1" fill-rule="nonzero"/></g></g><g clip-path="url(#cb7b101e0b)"><g clip-path="url(#313db7b70f)"><path stroke-linecap="butt" transform="matrix(0.748005, 0, 0, 0.748005, 111.61686, 63.04507)" fill="none" stroke-linejoin="miter" d="M 20.393217 0.00241336 L 135.579781 0.00241336 C 140.984781 0.00241336 146.17567 2.148747 149.998337 5.971414 C 153.821004 9.794081 155.967338 14.98497 155.967338 20.38997 C 155.967338 25.800193 153.821004 30.98586 149.998337 34.808527 C 146.17567 38.631194 140.984781 40.78275 135.579781 40.78275 L 20.393217 40.78275 C 14.982994 40.78275 9.797327 38.631194 5.97466 34.808527 C 2.146771 30.98586 0.000437768 25.800193 0.000437768 20.38997 C 0.000437768 14.98497 2.146771 9.794081 5.97466 5.971414 C 9.797327 2.148747 14.982994 0.00241336 20.393217 0.00241336 Z M 20.393217 0.00241336 " stroke="#be47ff" stroke-width="10" stroke-opacity="1" stroke-miterlimit="4"/></g></g><g clip-path="url(#e7fd468c94)"><g clip-path="url(#74c0a4284d)"><path fill="#151318" d="M 111.601562 93.5625 L 228.300781 93.5625 L 228.300781 124.078125 L 111.601562 124.078125 Z M 111.601562 93.5625 " fill-opacity="1" fill-rule="nonzero"/></g></g><g clip-path="url(#be0d01ecd4)"><g clip-path="url(#3b2b01b936)"><path stroke-linecap="butt" transform="matrix(0.748005, 0, 0, 0.748005, 111.61686, 93.561061)" fill="none" stroke-linejoin="miter" d="M 20.393217 0.00192341 L 135.579781 0.00192341 C 140.984781 0.00192341 146.17567 2.148257 149.998337 5.970924 C 153.821004 9.798813 155.967338 14.98448 155.967338 20.38948 C 155.967338 25.799703 153.821004 30.98537 149.998337 34.808037 C 146.17567 38.630704 140.984781 40.78226 135.579781 40.78226 L 20.393217 40.78226 C 14.982994 40.78226 9.797327 38.630704 5.97466 34.808037 C 2.146771 30.98537 0.000437768 25.799703 0.000437768 20.38948 C 0.000437768 14.98448 2.146771 9.798813 5.97466 5.970924 C 9.797327 2.148257 14.982994 0.00192341 20.393217 0.00192341 Z M 20.393217 0.00192341 " stroke="#be47ff" stroke-width="10" stroke-opacity="1" stroke-miterlimit="4"/></g></g><g clip-path="url(#9661611b3c)"><g clip-path="url(#87351dd43b)"><path fill="#151318" d="M 111.601562 124.078125 L 228.300781 124.078125 L 228.300781 154.59375 L 111.601562 154.59375 Z M 111.601562 124.078125 " fill-opacity="1" fill-rule="nonzero"/></g></g><g clip-path="url(#c26f642f65)"><g clip-path="url(#81da81e2a9)"><path stroke-linecap="butt" transform="matrix(0.748005, 0, 0, 0.748005, 111.61686, 124.077053)" fill="none" stroke-linejoin="miter" d="M 20.393217 0.00143347 L 135.579781 0.00143347 C 140.984781 0.00143347 146.17567 2.147767 149.998337 5.970434 C 153.821004 9.798323 155.967338 14.98399 155.967338 20.38899 C 155.967338 25.799213 153.821004 30.98488 149.998337 34.807547 C 146.17567 38.635436 140.984781 40.78177 135.579781 40.78177 L 20.393217 40.78177 C 14.982994 40.78177 9.797327 38.635436 5.97466 34.807547 C 2.146771 30.98488 0.000437768 25.799213 0.000437768 20.38899 C 0.000437768 14.98399 2.146771 9.798323 5.97466 5.970434 C 9.797327 2.147767 14.982994 0.00143347 20.393217 0.00143347 Z M 20.393217 0.00143347 " stroke="#be47ff" stroke-width="10" stroke-opacity="1" stroke-miterlimit="4"/></g></g><path stroke-linecap="butt" transform="matrix(0.748005, 0, 0, 0.748005, 164.84458, 76.80705)" fill="none" stroke-linejoin="miter" d="M -0.00110926 2.002175 L 59.683673 2.002175 " stroke="#be47ff" stroke-width="4" stroke-opacity="1" stroke-miterlimit="4"/><path stroke-linecap="butt" transform="matrix(0.748005, 0, 0, 0.748005, 164.84458, 108.071057)" fill="none" stroke-linejoin="miter" d="M -0.00110926 1.999117 L 59.683673 1.999117 " stroke="#be47ff" stroke-width="4" stroke-opacity="1" stroke-miterlimit="4"/><path stroke-linecap="butt" transform="matrix(0.748005, 0, 0, 0.748005, 164.84458, 138.289153)" fill="none" stroke-linejoin="miter" d="M -0.00110926 1.99999 L 59.683673 1.99999 " stroke="#be47ff" stroke-width="4" stroke-opacity="1" stroke-miterlimit="4"/><g clip-path="url(#03cfdf5229)"><g clip-path="url(#123adc026b)"><path fill="#be47ff" d="M 128.957031 72.917969 L 139.722656 72.917969 L 139.722656 83.6875 L 128.957031 83.6875 Z M 128.957031 72.917969 " fill-opacity="1" fill-rule="nonzero"/></g></g><g clip-path="url(#4eacefa970)"><g clip-path="url(#0589f4ca89)"><path fill="#be47ff" d="M 144.917969 72.917969 L 155.683594 72.917969 L 155.683594 83.6875 L 144.917969 83.6875 Z M 144.917969 72.917969 " fill-opacity="1" fill-rule="nonzero"/></g></g><g clip-path="url(#a6ad24988f)"><g clip-path="url(#9718e09cb0)"><path fill="#be47ff" d="M 128.957031 103.433594 L 139.722656 103.433594 L 139.722656 114.203125 L 128.957031 114.203125 Z M 128.957031 103.433594 " fill-opacity="1" fill-rule="nonzero"/></g></g><g clip-path="url(#3595d9fddb)"><g clip-path="url(#84fbd38f45)"><path fill="#be47ff" d="M 144.917969 103.433594 L 155.683594 103.433594 L 155.683594 114.203125 L 144.917969 114.203125 Z M 144.917969 103.433594 " fill-opacity="1" fill-rule="nonzero"/></g></g><g clip-path="url(#d710bfbbcc)"><g clip-path="url(#fd6c7b0884)"><path fill="#be47ff" d="M 128.957031 134.402344 L 139.722656 134.402344 L 139.722656 145.167969 L 128.957031 145.167969 Z M 128.957031 134.402344 " fill-opacity="1" fill-rule="nonzero"/></g></g><g clip-path="url(#b8b3514f1e)"><g clip-path="url(#4667f3e171)"><path fill="#be47ff" d="M 144.917969 134.402344 L 155.683594 134.402344 L 155.683594 145.167969 L 144.917969 145.167969 Z M 144.917969 134.402344 " fill-opacity="1" fill-rule="nonzero"/></g></g></svg>