<svg xmlns="http://www.w3.org/2000/svg" xmlns:xlink="http://www.w3.org/1999/xlink" width="388" zoomAndPan="magnify" viewBox="0 0 291 193.499995" height="258" preserveAspectRatio="xMidYMid meet" version="1.0"><defs><clipPath id="de9ae1155f"><path d="M 0.375 0 L 289.875 0 L 289.875 193 L 0.375 193 Z M 0.375 0 " clip-rule="nonzero"/></clipPath><clipPath id="67c3e08188"><path d="M 122.660156 130.472656 L 139.417969 130.472656 L 139.417969 148.730469 L 122.660156 148.730469 Z M 122.660156 130.472656 " clip-rule="nonzero"/></clipPath><clipPath id="e5fb91fde2"><path d="M 62.320312 43.339844 L 102 43.339844 L 102 98 L 62.320312 98 Z M 62.320312 43.339844 " clip-rule="nonzero"/></clipPath><clipPath id="1edefd95fb"><path d="M 189.472656 45.738281 L 227.9375 45.738281 L 227.9375 99.777344 L 189.472656 99.777344 Z M 189.472656 45.738281 " clip-rule="nonzero"/></clipPath></defs><g clip-path="url(#de9ae1155f)"><path fill="#be47ff" d="M 43.816406 132.414062 C 44.625 131.269531 45.410156 130.113281 46.179688 128.949219 L 57.351562 128.949219 C 56.789062 129.910156 56.21875 130.867188 55.632812 131.8125 L 50.175781 140.632812 L 38.003906 140.632812 Z M 63.511719 90.636719 L 72.695312 90.636719 C 71.75 94.589844 70.640625 98.484375 69.371094 102.320312 L 59.742188 102.320312 C 60.519531 100.234375 61.253906 98.136719 61.929688 96.011719 C 62.496094 94.230469 63.019531 92.4375 63.511719 90.636719 Z M 67.835938 65.09375 L 76.480469 65.09375 C 76.242188 69.019531 75.855469 72.917969 75.3125 76.773438 L 66.496094 76.773438 C 67.113281 72.90625 67.5625 69.007812 67.835938 65.09375 Z M 223.839844 76.773438 L 215.019531 76.773438 C 214.480469 72.917969 214.089844 69.019531 213.851562 65.09375 L 222.5 65.09375 C 222.773438 69.007812 223.21875 72.90625 223.839844 76.773438 Z M 230.59375 102.320312 L 220.964844 102.320312 C 219.695312 98.484375 218.585938 94.589844 217.636719 90.636719 L 226.824219 90.636719 C 227.3125 92.4375 227.839844 94.230469 228.402344 96.011719 C 229.082031 98.136719 229.8125 100.234375 230.59375 102.320312 Z M 252.332031 140.632812 L 240.160156 140.632812 L 234.699219 131.8125 C 234.113281 130.867188 233.542969 129.910156 232.980469 128.949219 L 244.15625 128.949219 C 244.925781 130.113281 245.710938 131.269531 246.515625 132.414062 Z M 264.542969 180.035156 L 280.199219 180.035156 L 288.464844 191.714844 L 271.773438 191.714844 Z M 247.558594 180.035156 L 263.265625 180.035156 L 270.496094 191.714844 L 253.753906 191.714844 Z M 230.574219 180.035156 L 246.324219 180.035156 L 252.523438 191.714844 L 235.738281 191.714844 Z M 213.59375 180.035156 L 229.382812 180.035156 L 234.546875 191.714844 L 217.726562 191.714844 Z M 196.617188 180.035156 L 212.4375 180.035156 L 216.570312 191.714844 L 199.714844 191.714844 Z M 179.644531 180.035156 L 195.492188 180.035156 L 198.589844 191.714844 L 181.710938 191.714844 Z M 162.675781 180.035156 L 178.539062 180.035156 L 180.605469 191.714844 L 163.710938 191.714844 Z M 145.710938 180.035156 L 161.582031 180.035156 L 162.617188 191.714844 L 145.710938 191.714844 Z M 128.75 180.035156 L 144.625 180.035156 L 144.625 191.714844 L 127.71875 191.714844 Z M 111.792969 180.035156 L 127.660156 180.035156 L 126.625 191.714844 L 109.730469 191.714844 Z M 94.84375 180.035156 L 110.691406 180.035156 L 108.621094 191.714844 L 91.742188 191.714844 Z M 77.894531 180.035156 L 93.714844 180.035156 L 90.617188 191.714844 L 73.761719 191.714844 Z M 60.949219 180.035156 L 76.742188 180.035156 L 72.609375 191.714844 L 55.785156 191.714844 Z M 44.007812 180.035156 L 59.761719 180.035156 L 54.59375 191.714844 L 37.808594 191.714844 Z M 27.070312 180.035156 L 42.777344 180.035156 L 36.578125 191.714844 L 19.839844 191.714844 Z M 25.789062 180.035156 L 18.558594 191.714844 L 1.871094 191.714844 L 10.132812 180.035156 Z M 33.695312 167.261719 L 26.460938 178.945312 L 10.902344 178.945312 L 19.167969 167.261719 Z M 41.597656 154.492188 L 34.371094 166.171875 L 19.9375 166.171875 L 28.199219 154.492188 Z M 42.273438 153.402344 L 28.96875 153.402344 L 37.234375 141.71875 L 49.503906 141.71875 Z M 63.101562 141.71875 L 56.902344 153.402344 L 43.550781 153.402344 L 50.78125 141.71875 Z M 69.828125 128.949219 C 69.339844 129.917969 68.847656 130.886719 68.339844 131.84375 L 63.679688 140.632812 L 51.453125 140.632812 L 56.558594 132.386719 C 57.261719 131.253906 57.941406 130.105469 58.609375 128.949219 Z M 65.136719 116.179688 L 75.488281 116.179688 C 73.941406 120.167969 72.234375 124.066406 70.371094 127.859375 L 59.238281 127.859375 C 61.378906 124.078125 63.347656 120.179688 65.136719 116.179688 Z M 63.960938 116.179688 C 62.152344 120.167969 60.160156 124.066406 57.988281 127.859375 L 46.894531 127.859375 C 49.34375 124.078125 51.589844 120.179688 53.632812 116.179688 Z M 64.445312 115.089844 L 54.183594 115.089844 C 56.089844 111.285156 57.804688 107.382812 59.335938 103.40625 L 69.003906 103.40625 C 67.65625 107.375 66.136719 111.273438 64.445312 115.089844 Z M 79.8125 103.40625 C 78.65625 107.375 77.351562 111.273438 75.90625 115.089844 L 65.621094 115.089844 C 67.285156 111.285156 68.789062 107.382812 70.128906 103.40625 Z M 82.972656 90.636719 C 82.160156 94.589844 81.210938 98.484375 80.125 102.320312 L 70.484375 102.320312 C 71.167969 100.230469 71.8125 98.121094 72.40625 95.992188 C 72.898438 94.214844 73.355469 92.429688 73.78125 90.636719 Z M 86.214844 65.09375 C 86.011719 69.019531 85.679688 72.917969 85.214844 76.773438 L 76.398438 76.773438 C 76.9375 72.90625 77.328125 69.007812 77.566406 65.09375 Z M 77.855469 55.832031 L 77.855469 52.320312 L 86.460938 52.320312 L 86.460938 55.832031 C 86.460938 58.570312 86.394531 61.292969 86.273438 64.003906 L 77.632812 64.003906 C 77.78125 61.289062 77.855469 58.5625 77.855469 55.832031 Z M 68.164062 55.832031 L 68.164062 52.320312 L 76.769531 52.320312 L 76.769531 55.832031 C 76.769531 58.570312 76.691406 61.292969 76.546875 64.003906 L 67.90625 64.003906 C 68.074219 61.289062 68.164062 58.5625 68.164062 55.832031 Z M 76.769531 12.921875 L 68.164062 12.921875 L 68.164062 1.234375 L 76.769531 1.234375 Z M 86.460938 12.921875 L 77.855469 12.921875 L 77.855469 1.234375 L 86.460938 1.234375 Z M 96.15625 12.921875 L 87.546875 12.921875 L 87.546875 1.234375 L 96.15625 1.234375 Z M 105.847656 12.921875 L 97.242188 12.921875 L 97.242188 1.234375 L 105.847656 1.234375 Z M 115.542969 12.921875 L 106.933594 12.921875 L 106.933594 1.234375 L 115.542969 1.234375 Z M 125.234375 12.921875 L 116.628906 12.921875 L 116.628906 1.234375 L 125.234375 1.234375 Z M 134.929688 12.921875 L 126.324219 12.921875 L 126.324219 1.234375 L 134.929688 1.234375 Z M 144.625 12.921875 L 136.019531 12.921875 L 136.019531 1.234375 L 144.625 1.234375 Z M 154.316406 12.921875 L 145.710938 12.921875 L 145.710938 1.234375 L 154.316406 1.234375 Z M 164.011719 12.921875 L 155.402344 12.921875 L 155.402344 1.234375 L 164.011719 1.234375 Z M 173.703125 12.921875 L 165.097656 12.921875 L 165.097656 1.234375 L 173.703125 1.234375 Z M 183.394531 12.921875 L 174.789062 12.921875 L 174.789062 1.234375 L 183.394531 1.234375 Z M 193.089844 12.921875 L 184.484375 12.921875 L 184.484375 1.234375 L 193.089844 1.234375 Z M 202.785156 12.921875 L 194.179688 12.921875 L 194.179688 1.234375 L 202.785156 1.234375 Z M 212.480469 12.921875 L 203.875 12.921875 L 203.875 1.234375 L 212.480469 1.234375 Z M 213.566406 12.921875 L 213.566406 1.234375 L 222.171875 1.234375 L 222.171875 12.921875 Z M 213.566406 55.832031 L 213.566406 52.320312 L 222.171875 52.320312 L 222.171875 55.832031 C 222.171875 58.5625 222.257812 61.289062 222.425781 64.003906 L 213.785156 64.003906 C 213.640625 61.292969 213.566406 58.570312 213.566406 55.832031 Z M 204.0625 64.003906 C 203.9375 61.292969 203.875 58.570312 203.875 55.832031 L 203.875 52.320312 L 212.480469 52.320312 L 212.480469 55.832031 C 212.480469 58.5625 212.554688 61.289062 212.699219 64.003906 Z M 205.117188 76.773438 C 204.65625 72.917969 204.320312 69.019531 204.117188 65.09375 L 212.765625 65.09375 C 213.003906 69.007812 213.394531 72.90625 213.9375 76.773438 Z M 210.210938 102.320312 C 209.121094 98.484375 208.171875 94.589844 207.363281 90.636719 L 216.550781 90.636719 C 216.976562 92.429688 217.4375 94.214844 217.929688 95.992188 C 218.523438 98.121094 219.164062 100.230469 219.847656 102.320312 Z M 224.714844 115.089844 L 214.429688 115.089844 C 212.980469 111.273438 211.679688 107.375 210.523438 103.40625 L 220.207031 103.40625 C 221.542969 107.382812 223.050781 111.285156 224.714844 115.089844 Z M 226.375 116.179688 L 236.703125 116.179688 C 238.746094 120.179688 240.992188 124.078125 243.441406 127.859375 L 232.347656 127.859375 C 230.171875 124.066406 228.183594 120.167969 226.375 116.179688 Z M 219.960938 127.859375 C 218.097656 124.066406 216.394531 120.167969 214.84375 116.179688 L 225.199219 116.179688 C 226.988281 120.179688 228.957031 124.078125 231.097656 127.859375 Z M 226.65625 140.632812 L 221.992188 131.84375 C 221.484375 130.886719 220.992188 129.917969 220.503906 128.949219 L 231.722656 128.949219 C 232.394531 130.105469 233.074219 131.253906 233.773438 132.386719 L 238.878906 140.632812 Z M 246.78125 153.402344 L 233.429688 153.402344 L 227.230469 141.71875 L 239.554688 141.71875 Z M 255.964844 166.171875 L 248.734375 154.492188 L 262.132812 154.492188 L 270.394531 166.171875 Z M 256.636719 167.261719 L 271.164062 167.261719 L 279.429688 178.945312 L 263.867188 178.945312 Z M 240.78125 167.261719 L 255.359375 167.261719 L 262.589844 178.945312 L 246.980469 178.945312 Z M 224.925781 167.261719 L 239.550781 167.261719 L 245.746094 178.945312 L 230.09375 178.945312 Z M 209.078125 167.261719 L 223.738281 167.261719 L 228.902344 178.945312 L 213.207031 178.945312 Z M 193.230469 167.261719 L 207.921875 167.261719 L 212.054688 178.945312 L 196.328125 178.945312 Z M 177.386719 167.261719 L 192.105469 167.261719 L 195.203125 178.945312 L 179.449219 178.945312 Z M 161.546875 167.261719 L 176.28125 167.261719 L 178.347656 178.945312 L 162.578125 178.945312 Z M 145.710938 167.261719 L 160.453125 167.261719 L 161.488281 178.945312 L 145.710938 178.945312 Z M 129.878906 167.261719 L 144.625 167.261719 L 144.625 178.945312 L 128.847656 178.945312 Z M 114.050781 167.261719 L 128.789062 167.261719 L 127.753906 178.945312 L 111.988281 178.945312 Z M 98.230469 167.261719 L 112.949219 167.261719 L 110.882812 178.945312 L 95.128906 178.945312 Z M 82.410156 167.261719 L 97.105469 167.261719 L 94.003906 178.945312 L 78.28125 178.945312 Z M 66.597656 167.261719 L 81.257812 167.261719 L 77.125 178.945312 L 61.429688 178.945312 Z M 50.78125 167.261719 L 65.40625 167.261719 L 60.242188 178.945312 L 44.585938 178.945312 Z M 49.550781 167.261719 L 43.351562 178.945312 L 27.742188 178.945312 L 34.972656 167.261719 Z M 50.128906 166.171875 L 35.648438 166.171875 L 42.878906 154.492188 L 56.324219 154.492188 Z M 71.050781 154.492188 L 65.886719 166.171875 L 51.359375 166.171875 L 57.558594 154.492188 Z M 76.695312 141.71875 L 71.535156 153.402344 L 58.136719 153.402344 L 64.332031 141.71875 Z M 82.300781 128.949219 C 81.894531 129.929688 81.476562 130.910156 81.046875 131.878906 L 77.179688 140.632812 L 64.910156 140.632812 L 69.300781 132.355469 C 69.898438 131.230469 70.476562 130.089844 71.042969 128.949219 Z M 87.015625 116.179688 C 85.726562 120.167969 84.308594 124.066406 82.753906 127.859375 L 71.582031 127.859375 C 73.429688 124.066406 75.121094 120.167969 76.652344 116.179688 Z M 90.617188 103.40625 C 89.65625 107.375 88.570312 111.273438 87.363281 115.089844 L 77.070312 115.089844 C 78.507812 111.269531 79.800781 107.371094 80.945312 103.40625 Z M 93.25 90.636719 C 92.574219 94.589844 91.78125 98.484375 90.875 102.320312 L 81.253906 102.320312 C 82.332031 98.484375 83.277344 94.585938 84.082031 90.636719 Z M 95.003906 77.863281 C 94.589844 81.800781 94.0625 85.699219 93.429688 89.546875 L 84.296875 89.546875 C 85.054688 85.699219 85.683594 81.800781 86.179688 77.863281 Z M 95.953125 65.09375 C 95.78125 69.019531 95.503906 72.917969 95.117188 76.773438 L 86.3125 76.773438 C 86.773438 72.917969 87.101562 69.019531 87.308594 65.09375 Z M 87.546875 39.550781 L 96.15625 39.550781 L 96.15625 51.230469 L 87.546875 51.230469 Z M 77.855469 39.550781 L 86.460938 39.550781 L 86.460938 51.230469 L 77.855469 51.230469 Z M 68.164062 39.550781 L 76.769531 39.550781 L 76.769531 51.230469 L 68.164062 51.230469 Z M 68.164062 26.777344 L 76.769531 26.777344 L 76.769531 38.464844 L 68.164062 38.464844 Z M 86.460938 25.691406 L 77.855469 25.691406 L 77.855469 14.007812 L 86.460938 14.007812 Z M 96.15625 25.691406 L 87.546875 25.691406 L 87.546875 14.007812 L 96.15625 14.007812 Z M 105.847656 25.691406 L 97.242188 25.691406 L 97.242188 14.007812 L 105.847656 14.007812 Z M 115.542969 25.691406 L 106.933594 25.691406 L 106.933594 14.007812 L 115.542969 14.007812 Z M 125.234375 25.691406 L 116.628906 25.691406 L 116.628906 14.007812 L 125.234375 14.007812 Z M 134.929688 25.691406 L 126.324219 25.691406 L 126.324219 14.007812 L 134.929688 14.007812 Z M 144.625 25.691406 L 136.019531 25.691406 L 136.019531 14.007812 L 144.625 14.007812 Z M 154.316406 25.691406 L 145.710938 25.691406 L 145.710938 14.007812 L 154.316406 14.007812 Z M 164.011719 25.691406 L 155.402344 25.691406 L 155.402344 14.007812 L 164.011719 14.007812 Z M 173.703125 25.691406 L 165.097656 25.691406 L 165.097656 14.007812 L 173.703125 14.007812 Z M 183.394531 25.691406 L 174.789062 25.691406 L 174.789062 14.007812 L 183.394531 14.007812 Z M 193.089844 25.691406 L 184.484375 25.691406 L 184.484375 14.007812 L 193.089844 14.007812 Z M 202.785156 25.691406 L 194.179688 25.691406 L 194.179688 14.007812 L 202.785156 14.007812 Z M 212.480469 25.691406 L 203.875 25.691406 L 203.875 14.007812 L 212.480469 14.007812 Z M 222.171875 25.691406 L 213.566406 25.691406 L 213.566406 14.007812 L 222.171875 14.007812 Z M 222.171875 38.464844 L 213.566406 38.464844 L 213.566406 26.777344 L 222.171875 26.777344 Z M 203.875 39.550781 L 212.480469 39.550781 L 212.480469 51.230469 L 203.875 51.230469 Z M 194.179688 51.230469 L 194.179688 39.550781 L 202.785156 39.550781 L 202.785156 51.230469 Z M 194.335938 64.003906 C 194.234375 61.292969 194.179688 58.570312 194.179688 55.832031 L 194.179688 52.320312 L 202.785156 52.320312 L 202.785156 55.832031 C 202.785156 58.570312 202.847656 61.292969 202.972656 64.003906 Z M 195.214844 76.773438 C 194.832031 72.917969 194.550781 69.019531 194.382812 65.09375 L 203.027344 65.09375 C 203.230469 69.019531 203.5625 72.917969 204.023438 76.773438 Z M 196.902344 89.546875 C 196.269531 85.699219 195.742188 81.800781 195.328125 77.863281 L 204.15625 77.863281 C 204.648438 81.800781 205.277344 85.699219 206.035156 89.546875 Z M 199.457031 102.320312 C 198.550781 98.484375 197.761719 94.589844 197.082031 90.636719 L 206.25 90.636719 C 207.054688 94.585938 208.003906 98.484375 209.082031 102.320312 Z M 202.96875 115.089844 C 201.765625 111.273438 200.679688 107.375 199.71875 103.40625 L 209.390625 103.40625 C 210.535156 107.371094 211.828125 111.269531 213.265625 115.089844 Z M 207.578125 127.859375 C 206.027344 124.066406 204.605469 120.167969 203.316406 116.179688 L 213.679688 116.179688 C 215.214844 120.167969 216.90625 124.066406 218.75 127.859375 Z M 213.15625 140.632812 L 209.285156 131.878906 C 208.855469 130.910156 208.441406 129.929688 208.03125 128.949219 L 219.289062 128.949219 C 219.855469 130.089844 220.4375 131.230469 221.035156 132.355469 L 225.425781 140.632812 Z M 218.800781 153.402344 L 213.636719 141.71875 L 226 141.71875 L 232.199219 153.402344 Z M 204.5625 154.492188 L 218.09375 154.492188 L 223.257812 166.171875 L 208.691406 166.171875 Z M 189.84375 154.492188 L 203.40625 154.492188 L 207.539062 166.171875 L 192.9375 166.171875 Z M 175.128906 154.492188 L 188.714844 154.492188 L 191.816406 166.171875 L 177.191406 166.171875 Z M 160.417969 154.492188 L 174.023438 154.492188 L 176.089844 166.171875 L 161.449219 166.171875 Z M 145.710938 154.492188 L 159.324219 154.492188 L 160.359375 166.171875 L 145.710938 166.171875 Z M 131.007812 154.492188 L 144.625 154.492188 L 144.625 166.171875 L 129.976562 166.171875 Z M 116.308594 154.492188 L 129.917969 154.492188 L 128.882812 166.171875 L 114.246094 166.171875 Z M 101.617188 154.492188 L 115.207031 154.492188 L 113.140625 166.171875 L 98.519531 166.171875 Z M 86.925781 154.492188 L 100.492188 154.492188 L 97.390625 166.171875 L 82.796875 166.171875 Z M 85.773438 154.492188 L 81.640625 166.171875 L 67.078125 166.171875 L 72.242188 154.492188 Z M 90.289062 141.71875 L 86.15625 153.402344 L 72.722656 153.402344 L 77.886719 141.71875 Z M 94.773438 128.949219 C 94.441406 129.945312 94.105469 130.933594 93.757812 131.917969 L 90.675781 140.632812 L 78.367188 140.632812 L 82.042969 132.316406 C 82.535156 131.203125 83.011719 130.082031 83.480469 128.949219 Z M 98.542969 116.179688 C 97.511719 120.167969 96.375 124.066406 95.132812 127.859375 L 83.929688 127.859375 C 85.46875 124.066406 86.878906 120.167969 88.15625 116.179688 Z M 101.421875 103.40625 C 100.648438 107.375 99.785156 111.273438 98.820312 115.089844 L 88.503906 115.089844 C 89.703125 111.269531 90.78125 107.371094 91.738281 103.40625 Z M 103.527344 90.636719 C 102.984375 94.589844 102.351562 98.484375 101.628906 102.320312 L 91.996094 102.320312 C 92.890625 98.484375 93.679688 94.585938 94.351562 90.636719 Z M 104.929688 77.863281 C 104.597656 81.800781 104.175781 85.699219 103.671875 89.546875 L 94.53125 89.546875 C 95.164062 85.699219 95.6875 81.800781 96.097656 77.863281 Z M 105.6875 65.09375 C 105.550781 69.019531 105.328125 72.917969 105.019531 76.773438 L 96.210938 76.773438 C 96.59375 72.917969 96.871094 69.019531 97.039062 65.09375 Z M 105.847656 39.550781 L 105.847656 51.230469 L 97.242188 51.230469 L 97.242188 39.550781 Z M 115.542969 38.464844 L 106.933594 38.464844 L 106.933594 26.777344 L 115.542969 26.777344 Z M 125.234375 38.464844 L 116.628906 38.464844 L 116.628906 26.777344 L 125.234375 26.777344 Z M 134.929688 38.464844 L 126.324219 38.464844 L 126.324219 26.777344 L 134.929688 26.777344 Z M 144.625 38.464844 L 136.019531 38.464844 L 136.019531 26.777344 L 144.625 26.777344 Z M 154.316406 38.464844 L 145.710938 38.464844 L 145.710938 26.777344 L 154.316406 26.777344 Z M 164.011719 38.464844 L 155.402344 38.464844 L 155.402344 26.777344 L 164.011719 26.777344 Z M 173.703125 38.464844 L 165.097656 38.464844 L 165.097656 26.777344 L 173.703125 26.777344 Z M 183.394531 38.464844 L 174.789062 38.464844 L 174.789062 26.777344 L 183.394531 26.777344 Z M 184.484375 51.230469 L 184.484375 39.550781 L 193.089844 39.550781 L 193.089844 51.230469 Z M 184.613281 64.003906 C 184.53125 61.292969 184.484375 58.570312 184.484375 55.832031 L 184.484375 52.320312 L 193.089844 52.320312 L 193.089844 55.832031 C 193.089844 58.570312 193.144531 61.292969 193.25 64.003906 Z M 185.316406 76.773438 C 185.007812 72.917969 184.785156 69.019531 184.648438 65.09375 L 193.292969 65.09375 C 193.464844 69.019531 193.738281 72.917969 194.121094 76.773438 Z M 186.664062 89.546875 C 186.15625 85.699219 185.734375 81.800781 185.402344 77.863281 L 194.234375 77.863281 C 194.648438 81.800781 195.167969 85.699219 195.800781 89.546875 Z M 188.707031 102.320312 C 187.980469 98.484375 187.347656 94.589844 186.808594 90.636719 L 195.980469 90.636719 C 196.652344 94.585938 197.441406 98.484375 198.339844 102.320312 Z M 191.515625 115.089844 C 190.550781 111.273438 189.683594 107.375 188.914062 103.40625 L 198.597656 103.40625 C 199.554688 107.371094 200.632812 111.269531 201.832031 115.089844 Z M 195.199219 127.859375 C 193.957031 124.066406 192.820312 120.167969 191.792969 116.179688 L 202.175781 116.179688 C 203.453125 120.167969 204.863281 124.066406 206.40625 127.859375 Z M 199.660156 140.632812 L 196.578125 131.917969 C 196.230469 130.933594 195.894531 129.945312 195.5625 128.949219 L 206.851562 128.949219 C 207.320312 130.082031 207.796875 131.203125 208.292969 132.316406 L 211.964844 140.632812 Z M 200.046875 141.71875 L 212.449219 141.71875 L 217.613281 153.402344 L 204.175781 153.402344 Z M 186.457031 141.71875 L 198.890625 141.71875 L 203.023438 153.402344 L 189.550781 153.402344 Z M 172.871094 141.71875 L 185.328125 141.71875 L 188.429688 153.402344 L 174.933594 153.402344 Z M 159.289062 141.71875 L 171.765625 141.71875 L 173.832031 153.402344 L 160.320312 153.402344 Z M 145.710938 141.71875 L 158.195312 141.71875 L 159.230469 153.402344 L 145.710938 153.402344 Z M 132.136719 141.71875 L 144.625 141.71875 L 144.625 153.402344 L 131.105469 153.402344 Z M 118.566406 141.71875 L 131.046875 141.71875 L 130.011719 153.402344 L 116.503906 153.402344 Z M 105.003906 141.71875 L 117.464844 141.71875 L 115.398438 153.402344 L 101.90625 153.402344 Z M 103.878906 141.71875 L 100.78125 153.402344 L 87.3125 153.402344 L 91.445312 141.71875 Z M 110.058594 116.179688 C 109.285156 120.164062 108.441406 124.070312 107.511719 127.859375 L 96.277344 127.859375 C 97.511719 124.066406 98.640625 120.167969 99.664062 116.179688 Z M 112.214844 103.40625 C 111.636719 107.371094 110.992188 111.273438 110.269531 115.089844 L 99.941406 115.089844 C 100.902344 111.269531 101.761719 107.371094 102.53125 103.40625 Z M 113.800781 90.636719 C 113.394531 94.589844 112.914062 98.480469 112.371094 102.320312 L 102.734375 102.320312 C 103.457031 98.484375 104.085938 94.585938 104.621094 90.636719 Z M 114.847656 77.863281 C 114.597656 81.800781 114.285156 85.699219 113.902344 89.546875 L 104.769531 89.546875 C 105.273438 85.699219 105.691406 81.800781 106.019531 77.863281 Z M 115.417969 65.09375 C 115.316406 69.019531 115.148438 72.917969 114.917969 76.773438 L 106.113281 76.773438 C 106.417969 72.917969 106.636719 69.019531 106.773438 65.09375 Z M 115.542969 51.230469 L 106.933594 51.230469 L 106.933594 39.550781 L 115.542969 39.550781 Z M 125.234375 51.230469 L 116.628906 51.230469 L 116.628906 39.550781 L 125.234375 39.550781 Z M 134.929688 51.230469 L 126.324219 51.230469 L 126.324219 39.550781 L 134.929688 39.550781 Z M 144.625 51.230469 L 136.019531 51.230469 L 136.019531 39.550781 L 144.625 39.550781 Z M 154.316406 51.230469 L 145.710938 51.230469 L 145.710938 39.550781 L 154.316406 39.550781 Z M 164.011719 51.230469 L 155.402344 51.230469 L 155.402344 39.550781 L 164.011719 39.550781 Z M 173.703125 51.230469 L 165.097656 51.230469 L 165.097656 39.550781 L 173.703125 39.550781 Z M 174.789062 51.230469 L 174.789062 39.550781 L 183.394531 39.550781 L 183.394531 51.230469 Z M 174.894531 64.003906 C 174.832031 61.292969 174.789062 58.570312 174.789062 55.832031 L 174.789062 52.320312 L 183.394531 52.320312 L 183.394531 55.832031 C 183.394531 58.570312 183.441406 61.292969 183.523438 64.003906 Z M 175.414062 76.773438 C 175.183594 72.917969 175.019531 69.019531 174.917969 65.09375 L 183.558594 65.09375 C 183.695312 69.019531 183.917969 72.917969 184.222656 76.773438 Z M 176.429688 89.546875 C 176.046875 85.699219 175.734375 81.800781 175.488281 77.863281 L 184.3125 77.863281 C 184.644531 81.800781 185.0625 85.699219 185.566406 89.546875 Z M 177.960938 102.320312 C 177.417969 98.480469 176.941406 94.589844 176.535156 90.636719 L 185.710938 90.636719 C 186.25 94.585938 186.878906 98.484375 187.601562 102.320312 Z M 180.0625 115.089844 C 179.339844 111.273438 178.695312 107.371094 178.117188 103.40625 L 187.804688 103.40625 C 188.570312 107.371094 189.433594 111.269531 190.390625 115.089844 Z M 182.820312 127.859375 C 181.890625 124.070312 181.046875 120.164062 180.277344 116.179688 L 190.671875 116.179688 C 191.695312 120.167969 192.820312 124.066406 194.054688 127.859375 Z M 171.148438 132.003906 C 170.972656 130.996094 170.804688 129.972656 170.632812 128.949219 L 181.976562 128.949219 C 182.25 130.050781 182.527344 131.152344 182.816406 132.238281 L 185.042969 140.632812 L 172.675781 140.632812 Z M 158.433594 132.050781 C 158.34375 131.027344 158.257812 129.988281 158.167969 128.949219 L 169.527344 128.949219 C 169.710938 130.035156 169.890625 131.125 170.082031 132.195312 L 171.574219 140.632812 L 159.191406 140.632812 Z M 145.710938 128.949219 L 157.078125 128.949219 C 157.167969 130.019531 157.257812 131.089844 157.351562 132.144531 L 158.097656 140.632812 L 145.710938 140.632812 Z M 132.984375 132.144531 C 133.078125 131.089844 133.167969 130.019531 133.253906 128.949219 L 144.625 128.949219 L 144.625 140.632812 L 132.234375 140.632812 Z M 120.253906 132.195312 C 120.445312 131.125 120.625 130.035156 120.804688 128.949219 L 132.164062 128.949219 C 132.078125 129.988281 131.992188 131.027344 131.898438 132.050781 L 131.140625 140.632812 L 118.761719 140.632812 Z M 121.582031 116.179688 C 121.066406 120.164062 120.503906 124.070312 119.886719 127.859375 L 108.632812 127.859375 C 109.558594 124.066406 110.394531 120.164062 111.164062 116.179688 Z M 123.019531 103.40625 C 122.636719 107.371094 122.203125 111.273438 121.722656 115.089844 L 111.378906 115.089844 C 112.097656 111.273438 112.742188 107.371094 113.316406 103.40625 Z M 124.074219 90.636719 C 123.804688 94.589844 123.484375 98.480469 123.121094 102.320312 L 113.472656 102.320312 C 114.011719 98.480469 114.488281 94.589844 114.890625 90.636719 Z M 124.773438 77.863281 C 124.605469 81.800781 124.398438 85.699219 124.144531 89.546875 L 114.996094 89.546875 C 115.375 85.699219 115.691406 81.800781 115.9375 77.863281 Z M 125.152344 65.09375 C 125.082031 69.019531 124.976562 72.917969 124.820312 76.773438 L 116.007812 76.773438 C 116.238281 72.917969 116.402344 69.019531 116.503906 65.09375 Z M 134.929688 55.832031 C 134.929688 58.570312 134.917969 61.292969 134.894531 64.003906 L 126.253906 64.003906 C 126.296875 61.292969 126.324219 58.570312 126.324219 55.832031 L 126.324219 52.320312 L 134.929688 52.320312 Z M 144.625 64.003906 L 135.984375 64.003906 C 136.003906 61.292969 136.019531 58.570312 136.019531 55.832031 L 136.019531 52.320312 L 144.625 52.320312 Z M 154.351562 64.003906 L 145.710938 64.003906 L 145.710938 52.320312 L 154.316406 52.320312 L 154.316406 55.832031 C 154.316406 58.570312 154.328125 61.292969 154.351562 64.003906 Z M 164.078125 64.003906 L 155.4375 64.003906 C 155.417969 61.292969 155.402344 58.570312 155.402344 55.832031 L 155.402344 52.320312 L 164.011719 52.320312 L 164.011719 55.832031 C 164.011719 58.570312 164.039062 61.292969 164.078125 64.003906 Z M 165.167969 64.003906 C 165.125 61.292969 165.097656 58.570312 165.097656 55.832031 L 165.097656 52.320312 L 173.703125 52.320312 L 173.703125 55.832031 C 173.703125 58.570312 173.742188 61.292969 173.804688 64.003906 Z M 165.515625 76.773438 C 165.359375 72.917969 165.25 69.019531 165.183594 65.09375 L 173.828125 65.09375 C 173.929688 69.019531 174.097656 72.917969 174.328125 76.773438 Z M 166.191406 89.546875 C 165.933594 85.699219 165.726562 81.800781 165.5625 77.863281 L 174.398438 77.863281 C 174.644531 81.800781 174.957031 85.699219 175.335938 89.546875 Z M 167.210938 102.320312 C 166.847656 98.480469 166.527344 94.589844 166.257812 90.636719 L 175.441406 90.636719 C 175.84375 94.589844 176.320312 98.480469 176.863281 102.320312 Z M 168.609375 115.089844 C 168.128906 111.273438 167.699219 107.371094 167.316406 103.40625 L 177.019531 103.40625 C 177.59375 107.371094 178.234375 111.273438 178.957031 115.089844 Z M 168.753906 116.179688 L 179.167969 116.179688 C 179.9375 120.164062 180.777344 124.066406 181.703125 127.859375 L 170.445312 127.859375 C 169.828125 124.070312 169.265625 120.164062 168.753906 116.179688 Z M 157.230469 116.179688 L 167.65625 116.179688 C 168.167969 120.164062 168.730469 124.066406 169.34375 127.859375 L 158.074219 127.859375 C 157.769531 124.070312 157.488281 120.164062 157.230469 116.179688 Z M 145.710938 116.179688 L 156.140625 116.179688 C 156.398438 120.164062 156.679688 124.066406 156.984375 127.859375 L 145.710938 127.859375 Z M 134.195312 116.179688 L 144.625 116.179688 L 144.625 127.859375 L 133.347656 127.859375 C 133.65625 124.066406 133.9375 120.164062 134.195312 116.179688 Z M 133.105469 116.179688 C 132.847656 120.164062 132.566406 124.070312 132.257812 127.859375 L 120.988281 127.859375 C 121.605469 124.066406 122.164062 120.164062 122.679688 116.179688 Z M 133.820312 103.40625 C 133.628906 107.371094 133.417969 111.273438 133.175781 115.089844 L 122.820312 115.089844 C 123.300781 111.273438 123.730469 107.371094 124.109375 103.40625 Z M 134.347656 90.636719 C 134.214844 94.589844 134.054688 98.480469 133.875 102.320312 L 124.214844 102.320312 C 124.578125 98.480469 124.894531 94.589844 125.164062 90.636719 Z M 134.699219 77.863281 C 134.613281 81.800781 134.511719 85.699219 134.382812 89.546875 L 125.234375 89.546875 C 125.488281 85.699219 125.695312 81.800781 125.863281 77.863281 Z M 134.722656 76.773438 L 125.910156 76.773438 C 126.0625 72.917969 126.171875 69.019531 126.238281 65.09375 L 134.890625 65.09375 C 134.851562 69.019531 134.796875 72.917969 134.722656 76.773438 Z M 144.625 76.773438 L 135.808594 76.773438 C 135.886719 72.917969 135.941406 69.019531 135.976562 65.09375 L 144.625 65.09375 Z M 154.523438 76.773438 L 145.710938 76.773438 L 145.710938 65.09375 L 154.359375 65.09375 C 154.394531 69.019531 154.445312 72.917969 154.523438 76.773438 Z M 155.613281 76.773438 C 155.535156 72.917969 155.480469 69.019531 155.445312 65.09375 L 164.09375 65.09375 C 164.160156 69.019531 164.269531 72.917969 164.425781 76.773438 Z M 155.949219 89.546875 C 155.824219 85.699219 155.71875 81.800781 155.636719 77.863281 L 164.472656 77.863281 C 164.636719 81.800781 164.847656 85.699219 165.101562 89.546875 Z M 156.460938 102.320312 C 156.28125 98.480469 156.117188 94.589844 155.984375 90.636719 L 165.167969 90.636719 C 165.4375 94.589844 165.757812 98.480469 166.117188 102.320312 Z M 156.511719 103.40625 L 166.222656 103.40625 C 166.605469 107.371094 167.03125 111.273438 167.515625 115.089844 L 157.160156 115.089844 C 156.917969 111.273438 156.703125 107.371094 156.511719 103.40625 Z M 145.710938 103.40625 L 155.425781 103.40625 C 155.613281 107.371094 155.828125 111.273438 156.070312 115.089844 L 145.710938 115.089844 Z M 144.625 103.40625 L 144.625 115.089844 L 134.265625 115.089844 C 134.503906 111.273438 134.71875 107.371094 134.910156 103.40625 Z M 144.625 90.636719 L 144.625 102.320312 L 134.964844 102.320312 C 135.140625 98.480469 135.304688 94.589844 135.4375 90.636719 Z M 144.625 89.546875 L 135.472656 89.546875 C 135.597656 85.699219 135.703125 81.800781 135.785156 77.863281 L 144.625 77.863281 Z M 154.898438 90.636719 C 155.03125 94.589844 155.191406 98.480469 155.371094 102.320312 L 145.710938 102.320312 L 145.710938 90.636719 Z M 145.710938 89.546875 L 145.710938 77.863281 L 154.546875 77.863281 C 154.628906 81.800781 154.734375 85.699219 154.859375 89.546875 Z M 116.628906 52.320312 L 125.234375 52.320312 L 125.234375 55.832031 C 125.234375 58.570312 125.207031 61.292969 125.167969 64.003906 L 116.527344 64.003906 C 116.589844 61.292969 116.628906 58.570312 116.628906 55.832031 Z M 108.359375 128.949219 L 119.703125 128.949219 C 119.53125 129.972656 119.359375 130.996094 119.183594 132.003906 L 117.65625 140.632812 L 105.292969 140.632812 L 107.519531 132.238281 C 107.804688 131.152344 108.082031 130.050781 108.359375 128.949219 Z M 195.550781 132.28125 L 198.503906 140.632812 L 186.164062 140.632812 L 183.863281 131.960938 C 183.601562 130.96875 183.351562 129.957031 183.097656 128.949219 L 194.414062 128.949219 C 194.785156 130.066406 195.164062 131.179688 195.550781 132.28125 Z M 106.933594 52.320312 L 115.542969 52.320312 L 115.542969 55.832031 C 115.542969 58.570312 115.503906 61.292969 115.4375 64.003906 L 106.8125 64.003906 C 106.890625 61.292969 106.933594 58.570312 106.933594 55.832031 Z M 95.917969 128.949219 L 107.234375 128.949219 C 106.984375 129.957031 106.730469 130.96875 106.46875 131.960938 L 104.167969 140.632812 L 91.828125 140.632812 L 94.78125 132.28125 C 95.171875 131.179688 95.546875 130.066406 95.917969 128.949219 Z M 193.089844 38.464844 L 184.484375 38.464844 L 184.484375 26.777344 L 193.089844 26.777344 Z M 203.875 26.777344 L 212.480469 26.777344 L 212.480469 38.464844 L 203.875 38.464844 Z M 202.785156 38.464844 L 194.179688 38.464844 L 194.179688 26.777344 L 202.785156 26.777344 Z M 97.242188 26.777344 L 105.847656 26.777344 L 105.847656 38.464844 L 97.242188 38.464844 Z M 86.460938 38.464844 L 77.855469 38.464844 L 77.855469 26.777344 L 86.460938 26.777344 Z M 87.546875 26.777344 L 96.15625 26.777344 L 96.15625 38.464844 L 87.546875 38.464844 Z M 97.242188 52.320312 L 105.847656 52.320312 L 105.847656 55.832031 C 105.847656 58.570312 105.804688 61.292969 105.722656 64.003906 L 97.085938 64.003906 C 97.1875 61.292969 97.242188 58.570312 97.242188 55.832031 Z M 234.007812 154.492188 L 247.457031 154.492188 L 254.6875 166.171875 L 240.203125 166.171875 Z M 238.972656 166.171875 L 224.445312 166.171875 L 219.28125 154.492188 L 232.773438 154.492188 Z M 222.171875 51.230469 L 213.566406 51.230469 L 213.566406 39.550781 L 222.171875 39.550781 Z M 68.164062 14.007812 L 76.769531 14.007812 L 76.769531 25.691406 L 68.164062 25.691406 Z M 87.546875 52.320312 L 96.15625 52.320312 L 96.15625 55.832031 C 96.15625 58.570312 96.101562 61.292969 95.996094 64.003906 L 87.359375 64.003906 C 87.484375 61.292969 87.546875 58.570312 87.546875 55.832031 Z M 261.363281 153.402344 L 248.0625 153.402344 L 240.832031 141.71875 L 253.101562 141.71875 Z M 236.148438 115.089844 L 225.886719 115.089844 C 224.199219 111.273438 222.679688 107.375 221.328125 103.40625 L 231 103.40625 C 232.527344 107.382812 234.246094 111.285156 236.148438 115.089844 Z M 216.296875 89.546875 L 207.144531 89.546875 C 206.382812 85.699219 205.75 81.800781 205.25 77.863281 L 214.09375 77.863281 C 214.671875 81.789062 215.410156 85.6875 216.296875 89.546875 Z M 226.53125 89.546875 L 217.382812 89.546875 C 216.496094 85.699219 215.757812 81.800781 215.175781 77.863281 L 224.015625 77.863281 C 224.679688 81.789062 225.519531 85.6875 226.53125 89.546875 Z M 72.949219 89.546875 L 63.800781 89.546875 C 64.8125 85.6875 65.652344 81.789062 66.316406 77.863281 L 75.15625 77.863281 C 74.578125 81.800781 73.839844 85.699219 72.949219 89.546875 Z M 76.238281 77.863281 L 85.082031 77.863281 C 84.585938 81.800781 83.953125 85.699219 83.1875 89.546875 L 74.035156 89.546875 C 74.925781 85.6875 75.660156 81.789062 76.238281 77.863281 Z M 289.957031 191.945312 L 247.40625 131.785156 C 231.609375 109.453125 223.257812 83.1875 223.257812 55.832031 L 223.257812 0.691406 L 222.714844 0.691406 L 222.714844 0.148438 L 67.617188 0.148438 L 67.617188 0.691406 L 67.074219 0.691406 L 67.074219 55.832031 C 67.074219 83.1875 58.722656 109.453125 42.929688 131.785156 L 0.375 191.945312 L 0.820312 192.257812 L 0.820312 192.804688 L 289.515625 192.804688 L 289.515625 192.257812 L 289.957031 191.945312 " fill-opacity="1" fill-rule="nonzero"/></g><path fill="#be47ff" d="M 118.535156 120.761719 L 110.261719 131.871094 C 108.507812 134.226562 109.003906 137.589844 111.355469 139.34375 L 111.9375 139.777344 C 112.890625 140.484375 114.007812 140.828125 115.117188 140.828125 C 116.75 140.828125 118.363281 140.082031 119.410156 138.679688 L 127.679688 127.570312 C 129.433594 125.214844 128.941406 121.855469 126.585938 120.101562 L 126.003906 119.667969 C 125.050781 118.957031 123.933594 118.617188 122.828125 118.617188 C 121.195312 118.617188 119.578125 119.359375 118.535156 120.761719 " fill-opacity="1" fill-rule="nonzero"/><g clip-path="url(#67c3e08188)"><path fill="#be47ff" d="M 129.285156 132.429688 L 123.644531 140.007812 C 122.078125 142.109375 122.519531 145.109375 124.625 146.675781 L 126.121094 147.792969 C 126.972656 148.425781 127.96875 148.730469 128.957031 148.730469 C 130.417969 148.730469 131.859375 148.066406 132.792969 146.816406 L 138.429688 139.238281 C 139.996094 137.136719 139.558594 134.132812 137.453125 132.570312 L 135.957031 131.453125 C 135.105469 130.820312 134.109375 130.515625 133.117188 130.515625 C 131.660156 130.515625 130.21875 131.175781 129.285156 132.429688 " fill-opacity="1" fill-rule="nonzero"/></g><path fill="#be47ff" d="M 99.125 107.691406 L 96.851562 106 C 96.085938 105.429688 95.191406 105.15625 94.300781 105.15625 C 92.992188 105.15625 91.695312 105.75 90.855469 106.878906 L 87.058594 111.976562 C 85.652344 113.867188 86.050781 116.5625 87.9375 117.96875 L 90.214844 119.664062 C 90.976562 120.230469 91.871094 120.507812 92.761719 120.507812 C 94.074219 120.507812 95.367188 119.910156 96.207031 118.785156 L 100.003906 113.6875 C 101.410156 111.796875 101.015625 109.097656 99.125 107.691406 " fill-opacity="1" fill-rule="nonzero"/><path fill="#be47ff" d="M 115.953125 108.480469 C 114.933594 107.722656 113.738281 107.355469 112.554688 107.359375 C 110.804688 107.359375 109.078125 108.152344 107.960938 109.652344 L 97.867188 123.210938 C 95.992188 125.730469 96.519531 129.328125 99.039062 131.203125 C 100.054688 131.960938 101.25 132.324219 102.4375 132.324219 C 104.011719 132.324219 105.570312 131.679688 106.683594 130.453125 C 106.851562 130.167969 107.035156 129.886719 107.234375 129.617188 L 112.027344 123.179688 L 115.507812 118.507812 C 115.746094 118.1875 116.003906 117.882812 116.285156 117.597656 L 117.121094 116.472656 C 118.996094 113.953125 118.472656 110.355469 115.953125 108.480469 " fill-opacity="1" fill-rule="nonzero"/><g clip-path="url(#e5fb91fde2)"><path fill="#be47ff" d="M 87.511719 45.214844 L 63.179688 88.761719 C 62.40625 90.140625 62.902344 91.882812 64.28125 92.65625 L 72.6875 97.351562 C 74.066406 98.121094 75.808594 97.628906 76.582031 96.25 L 100.914062 52.703125 C 101.6875 51.324219 101.191406 49.582031 99.8125 48.808594 L 91.40625 44.113281 C 90.027344 43.339844 88.285156 43.835938 87.511719 45.214844 " fill-opacity="1" fill-rule="nonzero"/></g><g clip-path="url(#1edefd95fb)"><path fill="#be47ff" d="M 189.839844 54.71875 L 214.175781 98.261719 C 214.945312 99.644531 216.6875 100.136719 218.070312 99.363281 L 226.472656 94.667969 C 227.851562 93.898438 228.347656 92.152344 227.574219 90.773438 L 203.242188 47.226562 C 202.46875 45.847656 200.726562 45.355469 199.347656 46.125 L 190.941406 50.824219 C 189.5625 51.59375 189.066406 53.335938 189.839844 54.71875 " fill-opacity="1" fill-rule="nonzero"/></g><path fill="#be47ff" d="M 199.769531 113.710938 C 199.835938 111.703125 198.898438 109.789062 197.292969 108.574219 L 184.664062 99.007812 C 180.101562 95.789062 174.40625 92.105469 167.742188 88.050781 C 158.347656 82.339844 149.492188 77.398438 145.386719 75.140625 C 144.746094 74.789062 143.992188 74.695312 143.285156 74.878906 L 138.671875 76.089844 C 137.992188 76.269531 137.402344 76.683594 137.007812 77.265625 L 137.003906 77.273438 C 135.722656 79.148438 134.296875 80.871094 132.769531 82.390625 C 130.976562 84.171875 129.074219 85.652344 127.113281 86.789062 C 124.761719 88.15625 122.339844 89.015625 119.917969 89.347656 C 119.382812 89.421875 118.84375 89.457031 118.316406 89.457031 C 116.414062 89.457031 114.644531 88.96875 113.191406 88.046875 C 111.335938 86.867188 110.144531 85.132812 109.75 83.039062 C 109.289062 80.617188 109.917969 77.851562 111.664062 74.582031 C 112.894531 72.28125 114.429688 70.175781 115.554688 68.636719 C 115.828125 68.261719 116.066406 67.933594 116.257812 67.664062 C 117.027344 66.566406 117.929688 65.3125 118.9375 64 C 119.195312 63.664062 118.921875 63.183594 118.503906 63.230469 C 116.382812 63.472656 111.589844 63.234375 104.046875 58.5625 C 103.378906 58.144531 102.496094 58.375 102.113281 59.0625 L 81.207031 96.46875 C 80.769531 97.253906 80.875 98.230469 81.472656 98.902344 L 87.015625 105.140625 C 87.09375 105.226562 87.179688 105.300781 87.273438 105.371094 L 87.828125 104.621094 C 88.589844 103.597656 89.597656 102.761719 90.742188 102.203125 C 91.84375 101.664062 93.074219 101.382812 94.300781 101.378906 C 95.148438 101.378906 95.984375 101.511719 96.789062 101.773438 C 97.621094 102.042969 98.398438 102.445312 99.105469 102.96875 L 101.378906 104.664062 C 102.25 105.3125 102.96875 106.117188 103.515625 107.050781 C 103.644531 107.269531 103.761719 107.496094 103.867188 107.726562 C 104.011719 108.03125 104.425781 108.074219 104.628906 107.804688 L 104.929688 107.398438 C 105.824219 106.191406 107.011719 105.207031 108.359375 104.550781 C 109.652344 103.917969 111.128906 103.582031 112.542969 103.582031 C 113.535156 103.582031 114.53125 103.738281 115.476562 104.042969 C 116.457031 104.359375 117.378906 104.835938 118.207031 105.453125 C 119.230469 106.214844 120.078125 107.160156 120.722656 108.261719 C 121.339844 109.316406 121.742188 110.472656 121.921875 111.6875 C 122.042969 112.53125 122.054688 113.378906 121.953125 114.214844 C 121.910156 114.554688 122.179688 114.859375 122.527344 114.847656 C 122.628906 114.84375 122.730469 114.839844 122.832031 114.839844 C 123.777344 114.839844 124.734375 114.988281 125.640625 115.285156 C 126.585938 115.589844 127.460938 116.046875 128.257812 116.636719 L 128.839844 117.070312 C 131.6875 119.191406 132.941406 122.667969 132.375 125.949219 C 132.304688 126.363281 132.628906 126.742188 133.054688 126.738281 C 133.078125 126.738281 133.097656 126.738281 133.121094 126.738281 C 134.019531 126.738281 134.90625 126.878906 135.757812 127.15625 C 136.640625 127.441406 137.464844 127.867188 138.210938 128.425781 L 139.707031 129.539062 C 143.492188 132.355469 144.277344 137.707031 141.460938 141.492188 L 140.722656 142.484375 C 140.375 142.953125 140.457031 143.621094 140.925781 143.96875 C 141.007812 144.027344 141.097656 144.074219 141.195312 144.109375 C 142.875 144.707031 159.082031 150.210938 163.660156 142.488281 C 163.960938 141.980469 163.757812 141.320312 163.226562 141.0625 L 148.109375 133.667969 C 147.199219 133.222656 146.722656 132.183594 147.019531 131.214844 C 147.234375 130.503906 147.847656 129.863281 149.347656 129.800781 C 149.503906 129.796875 149.660156 129.832031 149.800781 129.902344 L 165.351562 138.015625 C 167.097656 138.925781 169.078125 139.308594 171.035156 139.066406 C 173.425781 138.769531 176.035156 137.535156 176.261719 133.625 C 176.320312 132.597656 175.792969 131.625 174.902344 131.109375 L 155.503906 119.804688 C 154.746094 119.363281 154.335938 118.5 154.480469 117.632812 C 154.617188 116.824219 155.050781 116 156.242188 115.957031 C 156.632812 115.941406 157.015625 116.046875 157.355469 116.242188 L 177.742188 128.09375 C 178.765625 128.6875 179.9375 128.976562 181.121094 128.921875 C 183.160156 128.828125 186.132812 128.207031 187.308594 125.550781 C 188.34375 123.21875 187.433594 120.476562 185.242188 119.164062 L 162.921875 105.769531 C 162.261719 105.375 161.875 104.644531 161.925781 103.878906 C 161.992188 102.867188 162.503906 101.722656 164.578125 102.054688 C 164.832031 102.09375 165.074219 102.183594 165.289062 102.316406 L 190.648438 117.429688 C 192.53125 118.550781 194.84375 118.738281 196.859375 117.875 C 198.359375 117.234375 199.691406 116.011719 199.769531 113.710938 " fill-opacity="1" fill-rule="nonzero"/><path fill="#be47ff" d="M 209.039062 97.402344 L 187.875 59.535156 C 187.707031 59.234375 187.351562 59.089844 187.023438 59.1875 C 185.5 59.640625 183.601562 60.101562 183.324219 60.132812 C 182.507812 60.234375 181.6875 60.28125 180.867188 60.28125 C 178.082031 60.28125 175.296875 59.730469 172.664062 58.828125 C 166.53125 56.71875 158.910156 56.113281 152.109375 56.113281 C 147.078125 56.113281 142.5 56.445312 139.304688 56.746094 C 136.675781 56.992188 134.121094 57.183594 131.570312 57.9375 C 129.175781 58.644531 127.125 60.277344 125.453125 62.085938 C 125.011719 62.566406 124.578125 63.054688 124.152344 63.550781 C 122.4375 65.554688 120.855469 67.691406 119.34375 69.835938 C 117.132812 72.980469 110.070312 81.585938 115.21875 84.863281 C 116.136719 85.445312 117.222656 85.679688 118.316406 85.679688 C 118.679688 85.679688 119.046875 85.65625 119.40625 85.605469 C 123.527344 85.039062 127.21875 82.585938 130.109375 79.710938 C 131.507812 78.316406 132.769531 76.777344 133.882812 75.144531 C 134.074219 74.863281 134.832031 73.191406 135.152344 73.109375 L 142.222656 71.253906 L 144.585938 70.636719 C 144.648438 70.621094 144.714844 70.609375 144.777344 70.609375 C 144.902344 70.609375 145.027344 70.640625 145.140625 70.703125 C 148.785156 72.679688 180.5625 90.105469 198.796875 105.84375 C 198.796875 105.847656 198.800781 105.847656 198.800781 105.847656 C 199.050781 106.0625 199.421875 106.0625 199.675781 105.851562 L 208.996094 98.191406 C 209.160156 97.957031 209.175781 97.652344 209.039062 97.402344 " fill-opacity="1" fill-rule="nonzero"/></svg>