<svg xmlns="http://www.w3.org/2000/svg" xmlns:xlink="http://www.w3.org/1999/xlink" width="388" zoomAndPan="magnify" viewBox="0 0 291 193.499995" height="258" preserveAspectRatio="xMidYMid meet" version="1.0"><defs><clipPath id="65b21400da"><path d="M 0.375 0 L 289.875 0 L 289.875 193 L 0.375 193 Z M 0.375 0 " clip-rule="nonzero"/></clipPath><clipPath id="3daefe5aee"><path d="M 102.117188 40.914062 L 188.144531 40.914062 L 188.144531 152.378906 L 102.117188 152.378906 Z M 102.117188 40.914062 " clip-rule="nonzero"/></clipPath></defs><g clip-path="url(#65b21400da)"><path fill="#be47ff" d="M 43.816406 132.414062 C 44.625 131.269531 45.410156 130.113281 46.179688 128.949219 L 57.351562 128.949219 C 56.789062 129.910156 56.21875 130.867188 55.632812 131.8125 L 50.175781 140.632812 L 38.003906 140.632812 Z M 63.511719 90.636719 L 72.695312 90.636719 C 71.75 94.589844 70.640625 98.484375 69.371094 102.320312 L 59.742188 102.320312 C 60.519531 100.234375 61.253906 98.136719 61.929688 96.011719 C 62.496094 94.230469 63.019531 92.4375 63.511719 90.636719 Z M 67.835938 65.09375 L 76.480469 65.09375 C 76.242188 69.019531 75.855469 72.917969 75.3125 76.773438 L 66.496094 76.773438 C 67.113281 72.90625 67.5625 69.007812 67.835938 65.09375 Z M 223.839844 76.773438 L 215.019531 76.773438 C 214.480469 72.917969 214.089844 69.019531 213.851562 65.09375 L 222.5 65.09375 C 222.773438 69.007812 223.21875 72.90625 223.839844 76.773438 Z M 230.59375 102.320312 L 220.964844 102.320312 C 219.695312 98.484375 218.585938 94.589844 217.636719 90.636719 L 226.824219 90.636719 C 227.3125 92.4375 227.839844 94.230469 228.402344 96.011719 C 229.082031 98.136719 229.8125 100.234375 230.59375 102.320312 Z M 252.332031 140.632812 L 240.160156 140.632812 L 234.699219 131.8125 C 234.113281 130.867188 233.542969 129.910156 232.980469 128.949219 L 244.15625 128.949219 C 244.925781 130.113281 245.710938 131.269531 246.515625 132.414062 Z M 264.542969 180.035156 L 280.199219 180.035156 L 288.464844 191.714844 L 271.773438 191.714844 Z M 247.558594 180.035156 L 263.265625 180.035156 L 270.496094 191.714844 L 253.753906 191.714844 Z M 230.574219 180.035156 L 246.324219 180.035156 L 252.523438 191.714844 L 235.738281 191.714844 Z M 213.59375 180.035156 L 229.382812 180.035156 L 234.546875 191.714844 L 217.726562 191.714844 Z M 196.617188 180.035156 L 212.4375 180.035156 L 216.570312 191.714844 L 199.714844 191.714844 Z M 179.644531 180.035156 L 195.492188 180.035156 L 198.589844 191.714844 L 181.710938 191.714844 Z M 162.675781 180.035156 L 178.539062 180.035156 L 180.605469 191.714844 L 163.710938 191.714844 Z M 145.710938 180.035156 L 161.582031 180.035156 L 162.617188 191.714844 L 145.710938 191.714844 Z M 128.75 180.035156 L 144.625 180.035156 L 144.625 191.714844 L 127.71875 191.714844 Z M 111.792969 180.035156 L 127.660156 180.035156 L 126.625 191.714844 L 109.730469 191.714844 Z M 94.84375 180.035156 L 110.691406 180.035156 L 108.621094 191.714844 L 91.742188 191.714844 Z M 77.894531 180.035156 L 93.714844 180.035156 L 90.617188 191.714844 L 73.761719 191.714844 Z M 60.949219 180.035156 L 76.742188 180.035156 L 72.609375 191.714844 L 55.785156 191.714844 Z M 44.007812 180.035156 L 59.761719 180.035156 L 54.59375 191.714844 L 37.808594 191.714844 Z M 27.070312 180.035156 L 42.777344 180.035156 L 36.578125 191.714844 L 19.839844 191.714844 Z M 25.789062 180.035156 L 18.558594 191.714844 L 1.871094 191.714844 L 10.132812 180.035156 Z M 33.695312 167.261719 L 26.460938 178.945312 L 10.902344 178.945312 L 19.167969 167.261719 Z M 41.597656 154.492188 L 34.371094 166.171875 L 19.9375 166.171875 L 28.199219 154.492188 Z M 42.273438 153.402344 L 28.96875 153.402344 L 37.234375 141.71875 L 49.503906 141.71875 Z M 63.101562 141.71875 L 56.902344 153.402344 L 43.550781 153.402344 L 50.78125 141.71875 Z M 69.828125 128.949219 C 69.339844 129.917969 68.847656 130.886719 68.339844 131.84375 L 63.679688 140.632812 L 51.453125 140.632812 L 56.558594 132.386719 C 57.261719 131.253906 57.941406 130.105469 58.609375 128.949219 Z M 65.136719 116.179688 L 75.488281 116.179688 C 73.941406 120.167969 72.234375 124.066406 70.371094 127.859375 L 59.238281 127.859375 C 61.378906 124.078125 63.347656 120.179688 65.136719 116.179688 Z M 63.960938 116.179688 C 62.152344 120.167969 60.160156 124.066406 57.988281 127.859375 L 46.894531 127.859375 C 49.34375 124.078125 51.589844 120.179688 53.632812 116.179688 Z M 64.445312 115.089844 L 54.183594 115.089844 C 56.089844 111.285156 57.804688 107.382812 59.335938 103.40625 L 69.003906 103.40625 C 67.65625 107.375 66.136719 111.273438 64.445312 115.089844 Z M 79.8125 103.40625 C 78.65625 107.375 77.351562 111.273438 75.90625 115.089844 L 65.621094 115.089844 C 67.285156 111.285156 68.789062 107.382812 70.128906 103.40625 Z M 82.972656 90.636719 C 82.160156 94.589844 81.210938 98.484375 80.125 102.320312 L 70.484375 102.320312 C 71.167969 100.230469 71.8125 98.121094 72.40625 95.992188 C 72.898438 94.214844 73.355469 92.429688 73.78125 90.636719 Z M 86.214844 65.09375 C 86.011719 69.019531 85.679688 72.917969 85.214844 76.773438 L 76.398438 76.773438 C 76.9375 72.90625 77.328125 69.007812 77.566406 65.09375 Z M 77.855469 55.832031 L 77.855469 52.320312 L 86.460938 52.320312 L 86.460938 55.832031 C 86.460938 58.570312 86.394531 61.292969 86.273438 64.003906 L 77.632812 64.003906 C 77.78125 61.289062 77.855469 58.5625 77.855469 55.832031 Z M 68.164062 55.832031 L 68.164062 52.320312 L 76.769531 52.320312 L 76.769531 55.832031 C 76.769531 58.570312 76.691406 61.292969 76.546875 64.003906 L 67.90625 64.003906 C 68.074219 61.289062 68.164062 58.5625 68.164062 55.832031 Z M 76.769531 12.921875 L 68.164062 12.921875 L 68.164062 1.234375 L 76.769531 1.234375 Z M 86.460938 12.921875 L 77.855469 12.921875 L 77.855469 1.234375 L 86.460938 1.234375 Z M 96.15625 12.921875 L 87.546875 12.921875 L 87.546875 1.234375 L 96.15625 1.234375 Z M 105.847656 12.921875 L 97.242188 12.921875 L 97.242188 1.234375 L 105.847656 1.234375 Z M 115.542969 12.921875 L 106.933594 12.921875 L 106.933594 1.234375 L 115.542969 1.234375 Z M 125.234375 12.921875 L 116.628906 12.921875 L 116.628906 1.234375 L 125.234375 1.234375 Z M 134.929688 12.921875 L 126.324219 12.921875 L 126.324219 1.234375 L 134.929688 1.234375 Z M 144.625 12.921875 L 136.019531 12.921875 L 136.019531 1.234375 L 144.625 1.234375 Z M 154.316406 12.921875 L 145.710938 12.921875 L 145.710938 1.234375 L 154.316406 1.234375 Z M 164.011719 12.921875 L 155.402344 12.921875 L 155.402344 1.234375 L 164.011719 1.234375 Z M 173.703125 12.921875 L 165.097656 12.921875 L 165.097656 1.234375 L 173.703125 1.234375 Z M 183.394531 12.921875 L 174.789062 12.921875 L 174.789062 1.234375 L 183.394531 1.234375 Z M 193.089844 12.921875 L 184.484375 12.921875 L 184.484375 1.234375 L 193.089844 1.234375 Z M 202.785156 12.921875 L 194.179688 12.921875 L 194.179688 1.234375 L 202.785156 1.234375 Z M 212.480469 12.921875 L 203.875 12.921875 L 203.875 1.234375 L 212.480469 1.234375 Z M 213.566406 12.921875 L 213.566406 1.234375 L 222.171875 1.234375 L 222.171875 12.921875 Z M 213.566406 55.832031 L 213.566406 52.320312 L 222.171875 52.320312 L 222.171875 55.832031 C 222.171875 58.5625 222.257812 61.289062 222.425781 64.003906 L 213.785156 64.003906 C 213.640625 61.292969 213.566406 58.570312 213.566406 55.832031 Z M 204.0625 64.003906 C 203.9375 61.292969 203.875 58.570312 203.875 55.832031 L 203.875 52.320312 L 212.480469 52.320312 L 212.480469 55.832031 C 212.480469 58.5625 212.554688 61.289062 212.699219 64.003906 Z M 205.117188 76.773438 C 204.65625 72.917969 204.320312 69.019531 204.117188 65.09375 L 212.765625 65.09375 C 213.003906 69.007812 213.394531 72.90625 213.9375 76.773438 Z M 210.210938 102.320312 C 209.121094 98.484375 208.171875 94.589844 207.363281 90.636719 L 216.550781 90.636719 C 216.976562 92.429688 217.4375 94.214844 217.929688 95.992188 C 218.523438 98.121094 219.164062 100.230469 219.847656 102.320312 Z M 224.714844 115.089844 L 214.429688 115.089844 C 212.980469 111.273438 211.679688 107.375 210.523438 103.40625 L 220.207031 103.40625 C 221.542969 107.382812 223.050781 111.285156 224.714844 115.089844 Z M 226.375 116.179688 L 236.703125 116.179688 C 238.746094 120.179688 240.992188 124.078125 243.441406 127.859375 L 232.347656 127.859375 C 230.171875 124.066406 228.183594 120.167969 226.375 116.179688 Z M 219.960938 127.859375 C 218.097656 124.066406 216.394531 120.167969 214.84375 116.179688 L 225.199219 116.179688 C 226.988281 120.179688 228.957031 124.078125 231.097656 127.859375 Z M 226.65625 140.632812 L 221.992188 131.84375 C 221.484375 130.886719 220.992188 129.917969 220.503906 128.949219 L 231.722656 128.949219 C 232.394531 130.105469 233.074219 131.253906 233.773438 132.386719 L 238.878906 140.632812 Z M 246.78125 153.402344 L 233.429688 153.402344 L 227.230469 141.71875 L 239.554688 141.71875 Z M 255.964844 166.171875 L 248.734375 154.492188 L 262.132812 154.492188 L 270.394531 166.171875 Z M 256.636719 167.261719 L 271.164062 167.261719 L 279.429688 178.945312 L 263.867188 178.945312 Z M 240.78125 167.261719 L 255.359375 167.261719 L 262.589844 178.945312 L 246.980469 178.945312 Z M 224.925781 167.261719 L 239.550781 167.261719 L 245.746094 178.945312 L 230.09375 178.945312 Z M 209.078125 167.261719 L 223.738281 167.261719 L 228.902344 178.945312 L 213.207031 178.945312 Z M 193.230469 167.261719 L 207.921875 167.261719 L 212.054688 178.945312 L 196.328125 178.945312 Z M 177.386719 167.261719 L 192.105469 167.261719 L 195.203125 178.945312 L 179.449219 178.945312 Z M 161.546875 167.261719 L 176.28125 167.261719 L 178.347656 178.945312 L 162.578125 178.945312 Z M 145.710938 167.261719 L 160.453125 167.261719 L 161.488281 178.945312 L 145.710938 178.945312 Z M 129.878906 167.261719 L 144.625 167.261719 L 144.625 178.945312 L 128.847656 178.945312 Z M 114.050781 167.261719 L 128.789062 167.261719 L 127.753906 178.945312 L 111.988281 178.945312 Z M 98.230469 167.261719 L 112.949219 167.261719 L 110.882812 178.945312 L 95.128906 178.945312 Z M 82.410156 167.261719 L 97.105469 167.261719 L 94.003906 178.945312 L 78.28125 178.945312 Z M 66.597656 167.261719 L 81.257812 167.261719 L 77.125 178.945312 L 61.429688 178.945312 Z M 50.78125 167.261719 L 65.40625 167.261719 L 60.242188 178.945312 L 44.585938 178.945312 Z M 49.550781 167.261719 L 43.351562 178.945312 L 27.742188 178.945312 L 34.972656 167.261719 Z M 50.128906 166.171875 L 35.648438 166.171875 L 42.878906 154.492188 L 56.324219 154.492188 Z M 71.050781 154.492188 L 65.886719 166.171875 L 51.359375 166.171875 L 57.558594 154.492188 Z M 76.695312 141.71875 L 71.535156 153.402344 L 58.136719 153.402344 L 64.332031 141.71875 Z M 82.300781 128.949219 C 81.894531 129.929688 81.476562 130.910156 81.046875 131.878906 L 77.179688 140.632812 L 64.910156 140.632812 L 69.300781 132.355469 C 69.898438 131.230469 70.476562 130.089844 71.042969 128.949219 Z M 87.015625 116.179688 C 85.726562 120.167969 84.308594 124.066406 82.753906 127.859375 L 71.582031 127.859375 C 73.429688 124.066406 75.121094 120.167969 76.652344 116.179688 Z M 90.617188 103.40625 C 89.65625 107.375 88.570312 111.273438 87.363281 115.089844 L 77.070312 115.089844 C 78.507812 111.269531 79.800781 107.371094 80.945312 103.40625 Z M 93.25 90.636719 C 92.574219 94.589844 91.78125 98.484375 90.875 102.320312 L 81.253906 102.320312 C 82.332031 98.484375 83.277344 94.585938 84.082031 90.636719 Z M 95.003906 77.863281 C 94.589844 81.800781 94.0625 85.699219 93.429688 89.546875 L 84.296875 89.546875 C 85.054688 85.699219 85.683594 81.800781 86.179688 77.863281 Z M 95.953125 65.09375 C 95.78125 69.019531 95.503906 72.917969 95.117188 76.773438 L 86.3125 76.773438 C 86.773438 72.917969 87.101562 69.019531 87.308594 65.09375 Z M 87.546875 39.550781 L 96.15625 39.550781 L 96.15625 51.230469 L 87.546875 51.230469 Z M 77.855469 39.550781 L 86.460938 39.550781 L 86.460938 51.230469 L 77.855469 51.230469 Z M 68.164062 39.550781 L 76.769531 39.550781 L 76.769531 51.230469 L 68.164062 51.230469 Z M 68.164062 26.777344 L 76.769531 26.777344 L 76.769531 38.464844 L 68.164062 38.464844 Z M 86.460938 25.691406 L 77.855469 25.691406 L 77.855469 14.007812 L 86.460938 14.007812 Z M 96.15625 25.691406 L 87.546875 25.691406 L 87.546875 14.007812 L 96.15625 14.007812 Z M 105.847656 25.691406 L 97.242188 25.691406 L 97.242188 14.007812 L 105.847656 14.007812 Z M 115.542969 25.691406 L 106.933594 25.691406 L 106.933594 14.007812 L 115.542969 14.007812 Z M 125.234375 25.691406 L 116.628906 25.691406 L 116.628906 14.007812 L 125.234375 14.007812 Z M 134.929688 25.691406 L 126.324219 25.691406 L 126.324219 14.007812 L 134.929688 14.007812 Z M 144.625 25.691406 L 136.019531 25.691406 L 136.019531 14.007812 L 144.625 14.007812 Z M 154.316406 25.691406 L 145.710938 25.691406 L 145.710938 14.007812 L 154.316406 14.007812 Z M 164.011719 25.691406 L 155.402344 25.691406 L 155.402344 14.007812 L 164.011719 14.007812 Z M 173.703125 25.691406 L 165.097656 25.691406 L 165.097656 14.007812 L 173.703125 14.007812 Z M 183.394531 25.691406 L 174.789062 25.691406 L 174.789062 14.007812 L 183.394531 14.007812 Z M 193.089844 25.691406 L 184.484375 25.691406 L 184.484375 14.007812 L 193.089844 14.007812 Z M 202.785156 25.691406 L 194.179688 25.691406 L 194.179688 14.007812 L 202.785156 14.007812 Z M 212.480469 25.691406 L 203.875 25.691406 L 203.875 14.007812 L 212.480469 14.007812 Z M 222.171875 25.691406 L 213.566406 25.691406 L 213.566406 14.007812 L 222.171875 14.007812 Z M 222.171875 38.464844 L 213.566406 38.464844 L 213.566406 26.777344 L 222.171875 26.777344 Z M 203.875 39.550781 L 212.480469 39.550781 L 212.480469 51.230469 L 203.875 51.230469 Z M 194.179688 51.230469 L 194.179688 39.550781 L 202.785156 39.550781 L 202.785156 51.230469 Z M 194.335938 64.003906 C 194.234375 61.292969 194.179688 58.570312 194.179688 55.832031 L 194.179688 52.320312 L 202.785156 52.320312 L 202.785156 55.832031 C 202.785156 58.570312 202.847656 61.292969 202.972656 64.003906 Z M 195.214844 76.773438 C 194.832031 72.917969 194.550781 69.019531 194.382812 65.09375 L 203.027344 65.09375 C 203.230469 69.019531 203.5625 72.917969 204.023438 76.773438 Z M 196.902344 89.546875 C 196.269531 85.699219 195.742188 81.800781 195.328125 77.863281 L 204.15625 77.863281 C 204.648438 81.800781 205.277344 85.699219 206.035156 89.546875 Z M 199.457031 102.320312 C 198.550781 98.484375 197.761719 94.589844 197.082031 90.636719 L 206.25 90.636719 C 207.054688 94.585938 208.003906 98.484375 209.082031 102.320312 Z M 202.96875 115.089844 C 201.765625 111.273438 200.679688 107.375 199.71875 103.40625 L 209.390625 103.40625 C 210.535156 107.371094 211.828125 111.269531 213.265625 115.089844 Z M 207.578125 127.859375 C 206.027344 124.066406 204.605469 120.167969 203.316406 116.179688 L 213.679688 116.179688 C 215.214844 120.167969 216.90625 124.066406 218.75 127.859375 Z M 213.15625 140.632812 L 209.285156 131.878906 C 208.855469 130.910156 208.441406 129.929688 208.03125 128.949219 L 219.289062 128.949219 C 219.855469 130.089844 220.4375 131.230469 221.035156 132.355469 L 225.425781 140.632812 Z M 218.800781 153.402344 L 213.636719 141.71875 L 226 141.71875 L 232.199219 153.402344 Z M 204.5625 154.492188 L 218.09375 154.492188 L 223.257812 166.171875 L 208.691406 166.171875 Z M 189.84375 154.492188 L 203.40625 154.492188 L 207.539062 166.171875 L 192.9375 166.171875 Z M 175.128906 154.492188 L 188.714844 154.492188 L 191.816406 166.171875 L 177.191406 166.171875 Z M 160.417969 154.492188 L 174.023438 154.492188 L 176.089844 166.171875 L 161.449219 166.171875 Z M 145.710938 154.492188 L 159.324219 154.492188 L 160.359375 166.171875 L 145.710938 166.171875 Z M 131.007812 154.492188 L 144.625 154.492188 L 144.625 166.171875 L 129.976562 166.171875 Z M 116.308594 154.492188 L 129.917969 154.492188 L 128.882812 166.171875 L 114.246094 166.171875 Z M 101.617188 154.492188 L 115.207031 154.492188 L 113.140625 166.171875 L 98.519531 166.171875 Z M 86.925781 154.492188 L 100.492188 154.492188 L 97.390625 166.171875 L 82.796875 166.171875 Z M 85.773438 154.492188 L 81.640625 166.171875 L 67.078125 166.171875 L 72.242188 154.492188 Z M 90.289062 141.71875 L 86.15625 153.402344 L 72.722656 153.402344 L 77.886719 141.71875 Z M 94.773438 128.949219 C 94.441406 129.945312 94.105469 130.933594 93.757812 131.917969 L 90.675781 140.632812 L 78.367188 140.632812 L 82.042969 132.316406 C 82.535156 131.203125 83.011719 130.082031 83.480469 128.949219 Z M 98.542969 116.179688 C 97.511719 120.167969 96.375 124.066406 95.132812 127.859375 L 83.929688 127.859375 C 85.46875 124.066406 86.878906 120.167969 88.15625 116.179688 Z M 101.421875 103.40625 C 100.648438 107.375 99.785156 111.273438 98.820312 115.089844 L 88.503906 115.089844 C 89.703125 111.269531 90.78125 107.371094 91.738281 103.40625 Z M 103.527344 90.636719 C 102.984375 94.589844 102.351562 98.484375 101.628906 102.320312 L 91.996094 102.320312 C 92.890625 98.484375 93.679688 94.585938 94.351562 90.636719 Z M 104.929688 77.863281 C 104.597656 81.800781 104.175781 85.699219 103.671875 89.546875 L 94.53125 89.546875 C 95.164062 85.699219 95.6875 81.800781 96.097656 77.863281 Z M 105.6875 65.09375 C 105.550781 69.019531 105.328125 72.917969 105.019531 76.773438 L 96.210938 76.773438 C 96.59375 72.917969 96.871094 69.019531 97.039062 65.09375 Z M 105.847656 39.550781 L 105.847656 51.230469 L 97.242188 51.230469 L 97.242188 39.550781 Z M 115.542969 38.464844 L 106.933594 38.464844 L 106.933594 26.777344 L 115.542969 26.777344 Z M 125.234375 38.464844 L 116.628906 38.464844 L 116.628906 26.777344 L 125.234375 26.777344 Z M 134.929688 38.464844 L 126.324219 38.464844 L 126.324219 26.777344 L 134.929688 26.777344 Z M 144.625 38.464844 L 136.019531 38.464844 L 136.019531 26.777344 L 144.625 26.777344 Z M 154.316406 38.464844 L 145.710938 38.464844 L 145.710938 26.777344 L 154.316406 26.777344 Z M 164.011719 38.464844 L 155.402344 38.464844 L 155.402344 26.777344 L 164.011719 26.777344 Z M 173.703125 38.464844 L 165.097656 38.464844 L 165.097656 26.777344 L 173.703125 26.777344 Z M 183.394531 38.464844 L 174.789062 38.464844 L 174.789062 26.777344 L 183.394531 26.777344 Z M 184.484375 51.230469 L 184.484375 39.550781 L 193.089844 39.550781 L 193.089844 51.230469 Z M 184.613281 64.003906 C 184.53125 61.292969 184.484375 58.570312 184.484375 55.832031 L 184.484375 52.320312 L 193.089844 52.320312 L 193.089844 55.832031 C 193.089844 58.570312 193.144531 61.292969 193.25 64.003906 Z M 185.316406 76.773438 C 185.007812 72.917969 184.785156 69.019531 184.648438 65.09375 L 193.292969 65.09375 C 193.464844 69.019531 193.738281 72.917969 194.121094 76.773438 Z M 186.664062 89.546875 C 186.15625 85.699219 185.734375 81.800781 185.402344 77.863281 L 194.234375 77.863281 C 194.648438 81.800781 195.167969 85.699219 195.800781 89.546875 Z M 188.707031 102.320312 C 187.980469 98.484375 187.347656 94.589844 186.808594 90.636719 L 195.980469 90.636719 C 196.652344 94.585938 197.441406 98.484375 198.339844 102.320312 Z M 191.515625 115.089844 C 190.550781 111.273438 189.683594 107.375 188.914062 103.40625 L 198.597656 103.40625 C 199.554688 107.371094 200.632812 111.269531 201.832031 115.089844 Z M 195.199219 127.859375 C 193.957031 124.066406 192.820312 120.167969 191.792969 116.179688 L 202.175781 116.179688 C 203.453125 120.167969 204.863281 124.066406 206.40625 127.859375 Z M 199.660156 140.632812 L 196.578125 131.917969 C 196.230469 130.933594 195.894531 129.945312 195.5625 128.949219 L 206.851562 128.949219 C 207.320312 130.082031 207.796875 131.203125 208.292969 132.316406 L 211.964844 140.632812 Z M 200.046875 141.71875 L 212.449219 141.71875 L 217.613281 153.402344 L 204.175781 153.402344 Z M 186.457031 141.71875 L 198.890625 141.71875 L 203.023438 153.402344 L 189.550781 153.402344 Z M 172.871094 141.71875 L 185.328125 141.71875 L 188.429688 153.402344 L 174.933594 153.402344 Z M 159.289062 141.71875 L 171.765625 141.71875 L 173.832031 153.402344 L 160.320312 153.402344 Z M 145.710938 141.71875 L 158.195312 141.71875 L 159.230469 153.402344 L 145.710938 153.402344 Z M 132.136719 141.71875 L 144.625 141.71875 L 144.625 153.402344 L 131.105469 153.402344 Z M 118.566406 141.71875 L 131.046875 141.71875 L 130.011719 153.402344 L 116.503906 153.402344 Z M 105.003906 141.71875 L 117.464844 141.71875 L 115.398438 153.402344 L 101.90625 153.402344 Z M 103.878906 141.71875 L 100.78125 153.402344 L 87.3125 153.402344 L 91.445312 141.71875 Z M 110.058594 116.179688 C 109.285156 120.164062 108.441406 124.070312 107.511719 127.859375 L 96.277344 127.859375 C 97.511719 124.066406 98.640625 120.167969 99.664062 116.179688 Z M 112.214844 103.40625 C 111.636719 107.371094 110.992188 111.273438 110.269531 115.089844 L 99.941406 115.089844 C 100.902344 111.269531 101.761719 107.371094 102.53125 103.40625 Z M 113.800781 90.636719 C 113.394531 94.589844 112.914062 98.480469 112.371094 102.320312 L 102.734375 102.320312 C 103.457031 98.484375 104.085938 94.585938 104.621094 90.636719 Z M 114.847656 77.863281 C 114.597656 81.800781 114.285156 85.699219 113.902344 89.546875 L 104.769531 89.546875 C 105.273438 85.699219 105.691406 81.800781 106.019531 77.863281 Z M 115.417969 65.09375 C 115.316406 69.019531 115.148438 72.917969 114.917969 76.773438 L 106.113281 76.773438 C 106.417969 72.917969 106.636719 69.019531 106.773438 65.09375 Z M 115.542969 51.230469 L 106.933594 51.230469 L 106.933594 39.550781 L 115.542969 39.550781 Z M 125.234375 51.230469 L 116.628906 51.230469 L 116.628906 39.550781 L 125.234375 39.550781 Z M 134.929688 51.230469 L 126.324219 51.230469 L 126.324219 39.550781 L 134.929688 39.550781 Z M 144.625 51.230469 L 136.019531 51.230469 L 136.019531 39.550781 L 144.625 39.550781 Z M 154.316406 51.230469 L 145.710938 51.230469 L 145.710938 39.550781 L 154.316406 39.550781 Z M 164.011719 51.230469 L 155.402344 51.230469 L 155.402344 39.550781 L 164.011719 39.550781 Z M 173.703125 51.230469 L 165.097656 51.230469 L 165.097656 39.550781 L 173.703125 39.550781 Z M 174.789062 51.230469 L 174.789062 39.550781 L 183.394531 39.550781 L 183.394531 51.230469 Z M 174.894531 64.003906 C 174.832031 61.292969 174.789062 58.570312 174.789062 55.832031 L 174.789062 52.320312 L 183.394531 52.320312 L 183.394531 55.832031 C 183.394531 58.570312 183.441406 61.292969 183.523438 64.003906 Z M 175.414062 76.773438 C 175.183594 72.917969 175.019531 69.019531 174.917969 65.09375 L 183.558594 65.09375 C 183.695312 69.019531 183.917969 72.917969 184.222656 76.773438 Z M 176.429688 89.546875 C 176.046875 85.699219 175.734375 81.800781 175.488281 77.863281 L 184.3125 77.863281 C 184.644531 81.800781 185.0625 85.699219 185.566406 89.546875 Z M 177.960938 102.320312 C 177.417969 98.480469 176.941406 94.589844 176.535156 90.636719 L 185.710938 90.636719 C 186.25 94.585938 186.878906 98.484375 187.601562 102.320312 Z M 180.0625 115.089844 C 179.339844 111.273438 178.695312 107.371094 178.117188 103.40625 L 187.804688 103.40625 C 188.570312 107.371094 189.433594 111.269531 190.390625 115.089844 Z M 182.820312 127.859375 C 181.890625 124.070312 181.046875 120.164062 180.277344 116.179688 L 190.671875 116.179688 C 191.695312 120.167969 192.820312 124.066406 194.054688 127.859375 Z M 171.148438 132.003906 C 170.972656 130.996094 170.804688 129.972656 170.632812 128.949219 L 181.976562 128.949219 C 182.25 130.050781 182.527344 131.152344 182.816406 132.238281 L 185.042969 140.632812 L 172.675781 140.632812 Z M 158.433594 132.050781 C 158.34375 131.027344 158.257812 129.988281 158.167969 128.949219 L 169.527344 128.949219 C 169.710938 130.035156 169.890625 131.125 170.082031 132.195312 L 171.574219 140.632812 L 159.191406 140.632812 Z M 145.710938 128.949219 L 157.078125 128.949219 C 157.167969 130.019531 157.257812 131.089844 157.351562 132.144531 L 158.097656 140.632812 L 145.710938 140.632812 Z M 132.984375 132.144531 C 133.078125 131.089844 133.167969 130.019531 133.253906 128.949219 L 144.625 128.949219 L 144.625 140.632812 L 132.234375 140.632812 Z M 120.253906 132.195312 C 120.445312 131.125 120.625 130.035156 120.804688 128.949219 L 132.164062 128.949219 C 132.078125 129.988281 131.992188 131.027344 131.898438 132.050781 L 131.140625 140.632812 L 118.761719 140.632812 Z M 121.582031 116.179688 C 121.066406 120.164062 120.503906 124.070312 119.886719 127.859375 L 108.632812 127.859375 C 109.558594 124.066406 110.394531 120.164062 111.164062 116.179688 Z M 123.019531 103.40625 C 122.636719 107.371094 122.203125 111.273438 121.722656 115.089844 L 111.378906 115.089844 C 112.097656 111.273438 112.742188 107.371094 113.316406 103.40625 Z M 124.074219 90.636719 C 123.804688 94.589844 123.484375 98.480469 123.121094 102.320312 L 113.472656 102.320312 C 114.011719 98.480469 114.488281 94.589844 114.890625 90.636719 Z M 124.773438 77.863281 C 124.605469 81.800781 124.398438 85.699219 124.144531 89.546875 L 114.996094 89.546875 C 115.375 85.699219 115.691406 81.800781 115.9375 77.863281 Z M 125.152344 65.09375 C 125.082031 69.019531 124.976562 72.917969 124.820312 76.773438 L 116.007812 76.773438 C 116.238281 72.917969 116.402344 69.019531 116.503906 65.09375 Z M 134.929688 55.832031 C 134.929688 58.570312 134.917969 61.292969 134.894531 64.003906 L 126.253906 64.003906 C 126.296875 61.292969 126.324219 58.570312 126.324219 55.832031 L 126.324219 52.320312 L 134.929688 52.320312 Z M 144.625 64.003906 L 135.984375 64.003906 C 136.003906 61.292969 136.019531 58.570312 136.019531 55.832031 L 136.019531 52.320312 L 144.625 52.320312 Z M 154.351562 64.003906 L 145.710938 64.003906 L 145.710938 52.320312 L 154.316406 52.320312 L 154.316406 55.832031 C 154.316406 58.570312 154.328125 61.292969 154.351562 64.003906 Z M 164.078125 64.003906 L 155.4375 64.003906 C 155.417969 61.292969 155.402344 58.570312 155.402344 55.832031 L 155.402344 52.320312 L 164.011719 52.320312 L 164.011719 55.832031 C 164.011719 58.570312 164.039062 61.292969 164.078125 64.003906 Z M 165.167969 64.003906 C 165.125 61.292969 165.097656 58.570312 165.097656 55.832031 L 165.097656 52.320312 L 173.703125 52.320312 L 173.703125 55.832031 C 173.703125 58.570312 173.742188 61.292969 173.804688 64.003906 Z M 165.515625 76.773438 C 165.359375 72.917969 165.25 69.019531 165.183594 65.09375 L 173.828125 65.09375 C 173.929688 69.019531 174.097656 72.917969 174.328125 76.773438 Z M 166.191406 89.546875 C 165.933594 85.699219 165.726562 81.800781 165.5625 77.863281 L 174.398438 77.863281 C 174.644531 81.800781 174.957031 85.699219 175.335938 89.546875 Z M 167.210938 102.320312 C 166.847656 98.480469 166.527344 94.589844 166.257812 90.636719 L 175.441406 90.636719 C 175.84375 94.589844 176.320312 98.480469 176.863281 102.320312 Z M 168.609375 115.089844 C 168.128906 111.273438 167.699219 107.371094 167.316406 103.40625 L 177.019531 103.40625 C 177.59375 107.371094 178.234375 111.273438 178.957031 115.089844 Z M 168.753906 116.179688 L 179.167969 116.179688 C 179.9375 120.164062 180.777344 124.066406 181.703125 127.859375 L 170.445312 127.859375 C 169.828125 124.070312 169.265625 120.164062 168.753906 116.179688 Z M 157.230469 116.179688 L 167.65625 116.179688 C 168.167969 120.164062 168.730469 124.066406 169.34375 127.859375 L 158.074219 127.859375 C 157.769531 124.070312 157.488281 120.164062 157.230469 116.179688 Z M 145.710938 116.179688 L 156.140625 116.179688 C 156.398438 120.164062 156.679688 124.066406 156.984375 127.859375 L 145.710938 127.859375 Z M 134.195312 116.179688 L 144.625 116.179688 L 144.625 127.859375 L 133.347656 127.859375 C 133.65625 124.066406 133.9375 120.164062 134.195312 116.179688 Z M 133.105469 116.179688 C 132.847656 120.164062 132.566406 124.070312 132.257812 127.859375 L 120.988281 127.859375 C 121.605469 124.066406 122.164062 120.164062 122.679688 116.179688 Z M 133.820312 103.40625 C 133.628906 107.371094 133.417969 111.273438 133.175781 115.089844 L 122.820312 115.089844 C 123.300781 111.273438 123.730469 107.371094 124.109375 103.40625 Z M 134.347656 90.636719 C 134.214844 94.589844 134.054688 98.480469 133.875 102.320312 L 124.214844 102.320312 C 124.578125 98.480469 124.894531 94.589844 125.164062 90.636719 Z M 134.699219 77.863281 C 134.613281 81.800781 134.511719 85.699219 134.382812 89.546875 L 125.234375 89.546875 C 125.488281 85.699219 125.695312 81.800781 125.863281 77.863281 Z M 134.722656 76.773438 L 125.910156 76.773438 C 126.0625 72.917969 126.171875 69.019531 126.238281 65.09375 L 134.890625 65.09375 C 134.851562 69.019531 134.796875 72.917969 134.722656 76.773438 Z M 144.625 76.773438 L 135.808594 76.773438 C 135.886719 72.917969 135.941406 69.019531 135.976562 65.09375 L 144.625 65.09375 Z M 154.523438 76.773438 L 145.710938 76.773438 L 145.710938 65.09375 L 154.359375 65.09375 C 154.394531 69.019531 154.445312 72.917969 154.523438 76.773438 Z M 155.613281 76.773438 C 155.535156 72.917969 155.480469 69.019531 155.445312 65.09375 L 164.09375 65.09375 C 164.160156 69.019531 164.269531 72.917969 164.425781 76.773438 Z M 155.949219 89.546875 C 155.824219 85.699219 155.71875 81.800781 155.636719 77.863281 L 164.472656 77.863281 C 164.636719 81.800781 164.847656 85.699219 165.101562 89.546875 Z M 156.460938 102.320312 C 156.28125 98.480469 156.117188 94.589844 155.984375 90.636719 L 165.167969 90.636719 C 165.4375 94.589844 165.757812 98.480469 166.117188 102.320312 Z M 156.511719 103.40625 L 166.222656 103.40625 C 166.605469 107.371094 167.03125 111.273438 167.515625 115.089844 L 157.160156 115.089844 C 156.917969 111.273438 156.703125 107.371094 156.511719 103.40625 Z M 145.710938 103.40625 L 155.425781 103.40625 C 155.613281 107.371094 155.828125 111.273438 156.070312 115.089844 L 145.710938 115.089844 Z M 144.625 103.40625 L 144.625 115.089844 L 134.265625 115.089844 C 134.503906 111.273438 134.71875 107.371094 134.910156 103.40625 Z M 144.625 90.636719 L 144.625 102.320312 L 134.964844 102.320312 C 135.140625 98.480469 135.304688 94.589844 135.4375 90.636719 Z M 144.625 89.546875 L 135.472656 89.546875 C 135.597656 85.699219 135.703125 81.800781 135.785156 77.863281 L 144.625 77.863281 Z M 154.898438 90.636719 C 155.03125 94.589844 155.191406 98.480469 155.371094 102.320312 L 145.710938 102.320312 L 145.710938 90.636719 Z M 145.710938 89.546875 L 145.710938 77.863281 L 154.546875 77.863281 C 154.628906 81.800781 154.734375 85.699219 154.859375 89.546875 Z M 116.628906 52.320312 L 125.234375 52.320312 L 125.234375 55.832031 C 125.234375 58.570312 125.207031 61.292969 125.167969 64.003906 L 116.527344 64.003906 C 116.589844 61.292969 116.628906 58.570312 116.628906 55.832031 Z M 108.359375 128.949219 L 119.703125 128.949219 C 119.53125 129.972656 119.359375 130.996094 119.183594 132.003906 L 117.65625 140.632812 L 105.292969 140.632812 L 107.519531 132.238281 C 107.804688 131.152344 108.082031 130.050781 108.359375 128.949219 Z M 195.550781 132.28125 L 198.503906 140.632812 L 186.164062 140.632812 L 183.863281 131.960938 C 183.601562 130.96875 183.351562 129.957031 183.097656 128.949219 L 194.414062 128.949219 C 194.785156 130.066406 195.164062 131.179688 195.550781 132.28125 Z M 106.933594 52.320312 L 115.542969 52.320312 L 115.542969 55.832031 C 115.542969 58.570312 115.503906 61.292969 115.4375 64.003906 L 106.8125 64.003906 C 106.890625 61.292969 106.933594 58.570312 106.933594 55.832031 Z M 95.917969 128.949219 L 107.234375 128.949219 C 106.984375 129.957031 106.730469 130.96875 106.46875 131.960938 L 104.167969 140.632812 L 91.828125 140.632812 L 94.78125 132.28125 C 95.171875 131.179688 95.546875 130.066406 95.917969 128.949219 Z M 193.089844 38.464844 L 184.484375 38.464844 L 184.484375 26.777344 L 193.089844 26.777344 Z M 203.875 26.777344 L 212.480469 26.777344 L 212.480469 38.464844 L 203.875 38.464844 Z M 202.785156 38.464844 L 194.179688 38.464844 L 194.179688 26.777344 L 202.785156 26.777344 Z M 97.242188 26.777344 L 105.847656 26.777344 L 105.847656 38.464844 L 97.242188 38.464844 Z M 86.460938 38.464844 L 77.855469 38.464844 L 77.855469 26.777344 L 86.460938 26.777344 Z M 87.546875 26.777344 L 96.15625 26.777344 L 96.15625 38.464844 L 87.546875 38.464844 Z M 97.242188 52.320312 L 105.847656 52.320312 L 105.847656 55.832031 C 105.847656 58.570312 105.804688 61.292969 105.722656 64.003906 L 97.085938 64.003906 C 97.1875 61.292969 97.242188 58.570312 97.242188 55.832031 Z M 234.007812 154.492188 L 247.457031 154.492188 L 254.6875 166.171875 L 240.203125 166.171875 Z M 238.972656 166.171875 L 224.445312 166.171875 L 219.28125 154.492188 L 232.773438 154.492188 Z M 222.171875 51.230469 L 213.566406 51.230469 L 213.566406 39.550781 L 222.171875 39.550781 Z M 68.164062 14.007812 L 76.769531 14.007812 L 76.769531 25.691406 L 68.164062 25.691406 Z M 87.546875 52.320312 L 96.15625 52.320312 L 96.15625 55.832031 C 96.15625 58.570312 96.101562 61.292969 95.996094 64.003906 L 87.359375 64.003906 C 87.484375 61.292969 87.546875 58.570312 87.546875 55.832031 Z M 261.363281 153.402344 L 248.0625 153.402344 L 240.832031 141.71875 L 253.101562 141.71875 Z M 236.148438 115.089844 L 225.886719 115.089844 C 224.199219 111.273438 222.679688 107.375 221.328125 103.40625 L 231 103.40625 C 232.527344 107.382812 234.246094 111.285156 236.148438 115.089844 Z M 216.296875 89.546875 L 207.144531 89.546875 C 206.382812 85.699219 205.75 81.800781 205.25 77.863281 L 214.09375 77.863281 C 214.671875 81.789062 215.410156 85.6875 216.296875 89.546875 Z M 226.53125 89.546875 L 217.382812 89.546875 C 216.496094 85.699219 215.757812 81.800781 215.175781 77.863281 L 224.015625 77.863281 C 224.679688 81.789062 225.519531 85.6875 226.53125 89.546875 Z M 72.949219 89.546875 L 63.800781 89.546875 C 64.8125 85.6875 65.652344 81.789062 66.316406 77.863281 L 75.15625 77.863281 C 74.578125 81.800781 73.839844 85.699219 72.949219 89.546875 Z M 76.238281 77.863281 L 85.082031 77.863281 C 84.585938 81.800781 83.953125 85.699219 83.1875 89.546875 L 74.035156 89.546875 C 74.925781 85.6875 75.660156 81.789062 76.238281 77.863281 Z M 289.957031 191.945312 L 247.40625 131.785156 C 231.609375 109.453125 223.257812 83.1875 223.257812 55.832031 L 223.257812 0.691406 L 222.714844 0.691406 L 222.714844 0.148438 L 67.617188 0.148438 L 67.617188 0.691406 L 67.074219 0.691406 L 67.074219 55.832031 C 67.074219 83.1875 58.722656 109.453125 42.929688 131.785156 L 0.375 191.945312 L 0.820312 192.257812 L 0.820312 192.804688 L 289.515625 192.804688 L 289.515625 192.257812 L 289.957031 191.945312 " fill-opacity="1" fill-rule="nonzero"/></g><g clip-path="url(#3daefe5aee)"><path fill="#be47ff" d="M 178.984375 83.847656 L 178.984375 74.734375 C 178.984375 56.089844 163.8125 40.914062 145.167969 40.914062 C 126.523438 40.914062 111.34375 56.085938 111.34375 74.734375 L 111.34375 83.847656 C 106.238281 83.988281 102.132812 88.148438 102.132812 93.285156 L 102.132812 142.550781 C 102.132812 143.171875 102.195312 143.789062 102.316406 144.398438 C 102.4375 145.007812 102.617188 145.597656 102.855469 146.171875 C 103.09375 146.746094 103.382812 147.292969 103.730469 147.808594 C 104.074219 148.324219 104.464844 148.804688 104.90625 149.242188 C 105.34375 149.683594 105.824219 150.074219 106.339844 150.417969 C 106.855469 150.765625 107.402344 151.054688 107.976562 151.292969 C 108.550781 151.53125 109.140625 151.710938 109.75 151.832031 C 110.359375 151.953125 110.976562 152.015625 111.597656 152.015625 L 178.734375 152.015625 C 179.355469 152.015625 179.96875 151.953125 180.578125 151.832031 C 181.1875 151.710938 181.78125 151.53125 182.355469 151.292969 C 182.929688 151.058594 183.472656 150.765625 183.992188 150.421875 C 184.507812 150.074219 184.984375 149.683594 185.425781 149.242188 C 185.863281 148.804688 186.257812 148.324219 186.601562 147.808594 C 186.945312 147.292969 187.238281 146.746094 187.476562 146.171875 C 187.714844 145.597656 187.894531 145.007812 188.015625 144.398438 C 188.136719 143.789062 188.195312 143.171875 188.195312 142.550781 L 188.195312 93.285156 C 188.195312 88.148438 184.09375 83.984375 178.984375 83.847656 Z M 152.90625 111.109375 C 152.863281 111.402344 152.699219 112.074219 152.683594 112.125 C 152.105469 114.125 150.726562 115.769531 148.933594 116.769531 L 151.972656 129.722656 C 152.015625 129.855469 152.042969 129.992188 152.054688 130.132812 C 152.066406 130.273438 152.0625 130.414062 152.042969 130.550781 C 152.019531 130.691406 151.984375 130.824219 151.933594 130.957031 C 151.878906 131.085938 151.8125 131.210938 151.730469 131.324219 C 151.652344 131.4375 151.558594 131.542969 151.453125 131.636719 C 151.347656 131.730469 151.230469 131.808594 151.105469 131.875 C 150.984375 131.941406 150.851562 131.992188 150.714844 132.027344 C 150.582031 132.0625 150.441406 132.082031 150.300781 132.085938 L 140.234375 132.085938 C 140.09375 132.082031 139.957031 132.0625 139.820312 132.027344 C 139.683594 131.992188 139.554688 131.941406 139.429688 131.875 C 139.304688 131.808594 139.191406 131.730469 139.085938 131.636719 C 138.980469 131.542969 138.886719 131.4375 138.804688 131.324219 C 138.722656 131.210938 138.65625 131.085938 138.605469 130.957031 C 138.550781 130.824219 138.515625 130.691406 138.496094 130.550781 C 138.472656 130.414062 138.46875 130.273438 138.480469 130.132812 C 138.496094 129.992188 138.523438 129.855469 138.566406 129.722656 L 141.398438 116.769531 C 139.605469 115.769531 138.222656 114.125 137.644531 112.125 C 137.632812 112.074219 137.464844 111.402344 137.425781 111.109375 C 137.371094 110.75 137.34375 110.386719 137.34375 110.019531 C 137.34375 109.507812 137.394531 108.996094 137.492188 108.492188 C 137.59375 107.988281 137.742188 107.5 137.9375 107.027344 C 138.136719 106.550781 138.375 106.101562 138.660156 105.671875 C 138.945312 105.246094 139.269531 104.851562 139.632812 104.488281 C 139.996094 104.125 140.390625 103.800781 140.820312 103.515625 C 141.246094 103.230469 141.695312 102.988281 142.171875 102.792969 C 142.644531 102.59375 143.136719 102.445312 143.640625 102.347656 C 144.144531 102.246094 144.652344 102.195312 145.164062 102.195312 C 145.679688 102.195312 146.1875 102.246094 146.691406 102.347656 C 147.195312 102.445312 147.683594 102.59375 148.160156 102.792969 C 148.632812 102.988281 149.085938 103.230469 149.511719 103.515625 C 149.9375 103.800781 150.332031 104.125 150.695312 104.488281 C 151.058594 104.851562 151.382812 105.246094 151.667969 105.671875 C 151.953125 106.101562 152.195312 106.550781 152.390625 107.027344 C 152.589844 107.5 152.738281 107.988281 152.835938 108.492188 C 152.9375 108.996094 152.988281 109.507812 152.988281 110.019531 C 152.984375 110.386719 152.960938 110.75 152.90625 111.109375 Z M 167.4375 83.824219 L 122.890625 83.824219 L 122.890625 74.734375 C 122.890625 62.449219 132.878906 52.457031 145.167969 52.457031 C 157.453125 52.457031 167.4375 62.449219 167.4375 74.734375 Z M 167.4375 83.824219 " fill-opacity="1" fill-rule="nonzero"/></g></svg>