<svg xmlns="http://www.w3.org/2000/svg" xmlns:xlink="http://www.w3.org/1999/xlink" width="680" zoomAndPan="magnify" viewBox="0 0 510 49.499998" height="66" preserveAspectRatio="xMidYMid meet" version="1.0"><defs><clipPath id="cc676a4d50"><path d="M 61.707031 0 L 110.714844 0 L 110.714844 49 L 61.707031 49 Z M 61.707031 0 " clip-rule="nonzero"/></clipPath><clipPath id="94044252a0"><path d="M 2.550781 23 L 507.449219 23 L 507.449219 26 L 2.550781 26 Z M 2.550781 23 " clip-rule="nonzero"/></clipPath></defs><g clip-path="url(#cc676a4d50)"><path fill="#be47ff" d="M 86.136719 48.644531 C 86.128906 48.6875 86.101562 48.707031 86.0625 48.707031 C 86.019531 48.707031 85.996094 48.6875 85.988281 48.644531 L 83.121094 35.648438 C 82.894531 34.628906 82.527344 33.65625 82.023438 32.742188 C 81.519531 31.824219 80.898438 30.996094 80.160156 30.253906 C 79.421875 29.515625 78.589844 28.894531 77.675781 28.390625 C 76.757812 27.886719 75.789062 27.523438 74.765625 27.296875 L 61.769531 24.429688 C 61.730469 24.421875 61.707031 24.394531 61.707031 24.351562 C 61.707031 24.3125 61.730469 24.285156 61.769531 24.277344 L 74.765625 21.410156 C 75.789062 21.183594 76.757812 20.820312 77.675781 20.316406 C 78.589844 19.8125 79.421875 19.191406 80.160156 18.453125 C 80.898438 17.710938 81.519531 16.882812 82.023438 15.964844 C 82.527344 15.046875 82.894531 14.078125 83.121094 13.058594 L 85.988281 0.0625 C 85.996094 0.0195312 86.019531 0 86.0625 0 C 86.101562 0 86.128906 0.0195312 86.136719 0.0625 L 89.003906 13.058594 C 89.230469 14.078125 89.597656 15.046875 90.097656 15.964844 C 90.601562 16.882812 91.222656 17.710938 91.964844 18.453125 C 92.703125 19.191406 93.53125 19.8125 94.449219 20.316406 C 95.367188 20.820312 96.335938 21.183594 97.355469 21.410156 L 110.355469 24.277344 C 110.394531 24.285156 110.414062 24.3125 110.414062 24.351562 C 110.414062 24.394531 110.394531 24.421875 110.355469 24.429688 L 97.355469 27.296875 C 96.335938 27.523438 95.367188 27.886719 94.449219 28.390625 C 93.53125 28.894531 92.703125 29.515625 91.964844 30.253906 C 91.222656 30.996094 90.601562 31.824219 90.097656 32.742188 C 89.597656 33.65625 89.230469 34.628906 89.003906 35.648438 Z M 86.136719 48.644531 " fill-opacity="1" fill-rule="nonzero"/></g><g clip-path="url(#94044252a0)"><path stroke-linecap="butt" transform="matrix(0.7425, 0, 0, 0.7425, 2.550009, 23.610547)" fill="none" stroke-linejoin="miter" d="M 0.00104051 0.998001 L 679.541286 0.998001 " stroke="#be47ff" stroke-width="2" stroke-opacity="1" stroke-miterlimit="4"/></g></svg>