<svg xmlns="http://www.w3.org/2000/svg" xmlns:xlink="http://www.w3.org/1999/xlink" width="500" zoomAndPan="magnify" viewBox="0 0 375 374.999991" height="500" preserveAspectRatio="xMidYMid meet" version="1.0"><defs><clipPath id="c5f918987a"><path d="M 45.550781 28.777344 L 343.492188 28.777344 L 343.492188 326.351562 L 45.550781 326.351562 Z M 45.550781 28.777344 " clip-rule="nonzero"/></clipPath></defs><path fill="#b7dab2" d="M 304.464844 24.554688 C 331.621094 42.304688 348.085938 76.304688 355.785156 109.660156 C 363.480469 142.804688 362.414062 175.308594 357.28125 206.742188 C 352.363281 238.390625 343.59375 268.96875 325.847656 295.484375 C 308.097656 322 281.796875 344.453125 250.578125 356.214844 C 219.144531 368.1875 183.21875 369.472656 152.425781 358.140625 C 121.847656 346.59375 96.402344 322.429688 73.09375 295.914062 C 49.785156 269.609375 28.402344 241.171875 20.0625 208.453125 C 11.507812 175.738281 15.785156 138.742188 30.753906 106.882812 C 45.722656 75.019531 71.382812 48.289062 101.746094 32.039062 C 131.898438 15.789062 166.964844 10.015625 203.320312 7.875 C 239.671875 5.523438 277.304688 7.019531 304.464844 24.554688 Z M 304.464844 24.554688 " fill-opacity="1" fill-rule="nonzero"/><path fill="#000000" d="M 334.101562 44.527344 C 330.777344 44.527344 327.414062 45.386719 324.34375 47.199219 C 253.175781 89.1875 202.636719 164.515625 179.417969 204.460938 L 141.472656 156.8125 C 137.679688 152.046875 132.078125 149.566406 126.421875 149.566406 C 122.230469 149.566406 118.003906 150.929688 114.464844 153.738281 C 106.160156 160.34375 104.78125 172.417969 111.386719 180.714844 L 167.445312 251.113281 C 171.117188 255.71875 176.671875 258.359375 182.484375 258.359375 C 183.203125 258.359375 183.921875 258.320312 184.644531 258.238281 C 191.21875 257.496094 196.953125 253.429688 199.816406 247.464844 C 200.367188 246.324219 255.96875 132.132812 343.894531 80.261719 C 353.03125 74.867188 356.066406 63.097656 350.667969 53.96875 C 347.078125 47.902344 340.675781 44.527344 334.101562 44.527344 " fill-opacity="1" fill-rule="nonzero"/><g clip-path="url(#c5f918987a)"><path fill="#000000" d="M 331.832031 118.617188 L 329.503906 119.402344 C 323.429688 124.253906 317.558594 129.382812 311.910156 134.695312 L 312.910156 137.660156 C 317.238281 150.472656 319.429688 163.898438 319.429688 177.5625 C 319.429688 246.375 263.386719 302.351562 194.503906 302.351562 C 125.617188 302.351562 69.574219 246.375 69.574219 177.5625 C 69.574219 137.578125 88.984375 99.71875 121.496094 76.289062 C 142.84375 60.902344 168.089844 52.777344 194.503906 52.777344 C 215.355469 52.777344 235.992188 58.003906 254.175781 67.902344 L 255.839844 68.808594 C 262.101562 63.0625 268.59375 57.460938 275.320312 52.078125 L 265.671875 46.828125 C 243.96875 35.019531 219.359375 28.773438 194.503906 28.773438 C 167.050781 28.773438 140.652344 36.148438 117.464844 50.195312 L 117.183594 49.804688 L 107.4375 56.824219 L 97.699219 63.847656 L 97.992188 64.253906 C 64.960938 92.386719 45.550781 133.90625 45.550781 177.5625 C 45.550781 259.609375 112.367188 326.351562 194.503906 326.351562 C 276.636719 326.351562 343.457031 259.609375 343.457031 177.5625 C 343.457031 161.285156 340.835938 145.277344 335.671875 129.988281 L 331.832031 118.617188 " fill-opacity="1" fill-rule="nonzero"/></g></svg>