<svg xmlns="http://www.w3.org/2000/svg" xmlns:xlink="http://www.w3.org/1999/xlink" width="454" zoomAndPan="magnify" viewBox="0 0 340.5 188.249992" height="251" preserveAspectRatio="xMidYMid meet" version="1.0"><defs><clipPath id="7aae69c7bc"><path d="M 0.425781 31.507812 L 339.574219 31.507812 L 339.574219 173 L 0.425781 173 Z M 0.425781 31.507812 " clip-rule="nonzero"/></clipPath><clipPath id="df18bfb3ed"><path d="M 14 112 L 326 112 L 326 186.890625 L 14 186.890625 Z M 14 112 " clip-rule="nonzero"/></clipPath><clipPath id="9ac5a430f0"><path d="M 184 32 L 190 32 L 190 186.890625 L 184 186.890625 Z M 184 32 " clip-rule="nonzero"/></clipPath><clipPath id="62c5b77318"><path d="M 150 32 L 156 32 L 156 186.890625 L 150 186.890625 Z M 150 32 " clip-rule="nonzero"/></clipPath><clipPath id="6ffba2fad2"><path d="M 83.433594 26 L 256.746094 26 L 256.746094 133.71875 L 83.433594 133.71875 Z M 83.433594 26 " clip-rule="nonzero"/></clipPath><clipPath id="7b18822f9e"><path d="M 82.6875 18.675781 L 82.6875 115.933594 C 82.6875 126.246094 91.050781 134.609375 101.363281 134.609375 L 238.546875 134.609375 C 248.859375 134.609375 257.222656 126.246094 257.222656 115.933594 L 257.222656 18.675781 C 257.222656 8.363281 248.859375 0 238.546875 0 L 101.363281 0 C 91.050781 0 82.6875 8.363281 82.6875 18.675781 Z M 82.6875 18.675781 " clip-rule="nonzero"/></clipPath><clipPath id="4920d6e5c2"><path d="M 102.261719 0.894531 L 237.648438 0.894531 C 247.964844 0.894531 256.324219 9.257812 256.324219 19.570312 L 256.324219 115.035156 C 256.324219 125.351562 247.964844 133.710938 237.648438 133.710938 L 102.261719 133.710938 C 91.945312 133.710938 83.585938 125.351562 83.585938 115.035156 L 83.585938 19.570312 C 83.585938 9.257812 91.945312 0.894531 102.261719 0.894531 Z M 102.261719 0.894531 " clip-rule="nonzero"/></clipPath><clipPath id="66a4b0c527"><path d="M 83.433594 0.746094 L 256.746094 0.746094 L 256.746094 27 L 83.433594 27 Z M 83.433594 0.746094 " clip-rule="nonzero"/></clipPath><clipPath id="ddc711338a"><path d="M 82.6875 18.675781 L 82.6875 115.933594 C 82.6875 126.246094 91.050781 134.609375 101.363281 134.609375 L 238.546875 134.609375 C 248.859375 134.609375 257.222656 126.246094 257.222656 115.933594 L 257.222656 18.675781 C 257.222656 8.363281 248.859375 0 238.546875 0 L 101.363281 0 C 91.050781 0 82.6875 8.363281 82.6875 18.675781 Z M 82.6875 18.675781 " clip-rule="nonzero"/></clipPath><clipPath id="a7a21da183"><path d="M 102.261719 0.894531 L 237.648438 0.894531 C 247.964844 0.894531 256.324219 9.257812 256.324219 19.570312 L 256.324219 115.035156 C 256.324219 125.351562 247.964844 133.710938 237.648438 133.710938 L 102.261719 133.710938 C 91.945312 133.710938 83.585938 125.351562 83.585938 115.035156 L 83.585938 19.570312 C 83.585938 9.257812 91.945312 0.894531 102.261719 0.894531 Z M 102.261719 0.894531 " clip-rule="nonzero"/></clipPath><clipPath id="1fb6923ce3"><path d="M 138 9 L 219 9 L 219 18 L 138 18 Z M 138 9 " clip-rule="nonzero"/></clipPath><clipPath id="2ece17ed36"><path d="M 82.6875 18.675781 L 82.6875 115.933594 C 82.6875 126.246094 91.050781 134.609375 101.363281 134.609375 L 238.546875 134.609375 C 248.859375 134.609375 257.222656 126.246094 257.222656 115.933594 L 257.222656 18.675781 C 257.222656 8.363281 248.859375 0 238.546875 0 L 101.363281 0 C 91.050781 0 82.6875 8.363281 82.6875 18.675781 Z M 82.6875 18.675781 " clip-rule="nonzero"/></clipPath><clipPath id="497e3145de"><path d="M 102.261719 0.894531 L 237.648438 0.894531 C 247.964844 0.894531 256.324219 9.257812 256.324219 19.570312 L 256.324219 115.035156 C 256.324219 125.351562 247.964844 133.710938 237.648438 133.710938 L 102.261719 133.710938 C 91.945312 133.710938 83.585938 125.351562 83.585938 115.035156 L 83.585938 19.570312 C 83.585938 9.257812 91.945312 0.894531 102.261719 0.894531 Z M 102.261719 0.894531 " clip-rule="nonzero"/></clipPath><clipPath id="7f41ad2728"><path d="M 121 8 L 131 8 L 131 19 L 121 19 Z M 121 8 " clip-rule="nonzero"/></clipPath><clipPath id="8936d64398"><path d="M 82.6875 18.675781 L 82.6875 115.933594 C 82.6875 126.246094 91.050781 134.609375 101.363281 134.609375 L 238.546875 134.609375 C 248.859375 134.609375 257.222656 126.246094 257.222656 115.933594 L 257.222656 18.675781 C 257.222656 8.363281 248.859375 0 238.546875 0 L 101.363281 0 C 91.050781 0 82.6875 8.363281 82.6875 18.675781 Z M 82.6875 18.675781 " clip-rule="nonzero"/></clipPath><clipPath id="c83ac5f66a"><path d="M 102.261719 0.894531 L 237.648438 0.894531 C 247.964844 0.894531 256.324219 9.257812 256.324219 19.570312 L 256.324219 115.035156 C 256.324219 125.351562 247.964844 133.710938 237.648438 133.710938 L 102.261719 133.710938 C 91.945312 133.710938 83.585938 125.351562 83.585938 115.035156 L 83.585938 19.570312 C 83.585938 9.257812 91.945312 0.894531 102.261719 0.894531 Z M 102.261719 0.894531 " clip-rule="nonzero"/></clipPath><clipPath id="8455088e29"><path d="M 82.6875 0 L 257.480469 0 L 257.480469 134.464844 L 82.6875 134.464844 Z M 82.6875 0 " clip-rule="nonzero"/></clipPath><clipPath id="e9544bf2e8"><path d="M 82.6875 18.675781 L 82.6875 115.933594 C 82.6875 126.246094 91.050781 134.609375 101.363281 134.609375 L 238.546875 134.609375 C 248.859375 134.609375 257.222656 126.246094 257.222656 115.933594 L 257.222656 18.675781 C 257.222656 8.363281 248.859375 0 238.546875 0 L 101.363281 0 C 91.050781 0 82.6875 8.363281 82.6875 18.675781 Z M 82.6875 18.675781 " clip-rule="nonzero"/></clipPath><clipPath id="28834c9de8"><path d="M 82.6875 18.675781 L 82.6875 115.929688 C 82.6875 126.242188 91.050781 134.605469 101.363281 134.605469 L 238.539062 134.605469 C 248.851562 134.605469 257.210938 126.242188 257.210938 115.929688 L 257.210938 18.675781 C 257.210938 8.359375 248.851562 0 238.539062 0 L 101.363281 0 C 91.050781 0 82.6875 8.359375 82.6875 18.675781 Z M 82.6875 18.675781 " clip-rule="nonzero"/></clipPath></defs><g clip-path="url(#7aae69c7bc)"><path fill="#be47ff" d="M 166.082031 172.8125 C 156.269531 172.8125 146.410156 172.554688 136.523438 171.953125 C 119.292969 170.910156 101.839844 169.222656 84.941406 167.59375 C 57.554688 164.941406 29.230469 162.199219 1.210938 162.167969 L 0.425781 162.167969 L 0.636719 161.414062 C 6.230469 140.917969 12.199219 120.128906 18.410156 99.617188 C 21.816406 88.386719 24.632812 76.78125 27.363281 65.582031 C 30.058594 54.515625 32.832031 43.078125 36.179688 31.96875 L 36.316406 31.546875 L 36.769531 31.546875 C 61.59375 31.546875 86.839844 31.574219 111.246094 31.621094 C 153.222656 31.679688 196.617188 31.726562 239.320312 31.652344 C 244.308594 31.636719 249.3125 31.636719 254.304688 31.621094 C 270.3125 31.589844 286.863281 31.558594 303.140625 31.546875 L 303.59375 31.546875 L 303.726562 31.96875 C 307.074219 43.078125 309.863281 54.515625 312.546875 65.582031 C 315.273438 76.796875 318.09375 88.386719 321.5 99.617188 C 327.710938 120.144531 333.695312 140.929688 339.269531 161.414062 L 339.480469 162.167969 L 338.699219 162.167969 C 312.335938 162.199219 285.6875 164.582031 258.449219 167.234375 C 228.816406 170.113281 197.703125 172.8125 166.082031 172.8125 Z M 2.007812 160.964844 C 29.820312 161.054688 57.902344 163.765625 85.0625 166.390625 C 101.945312 168.019531 119.398438 169.707031 136.597656 170.746094 C 178.230469 173.261719 219.558594 169.796875 258.328125 166.027344 C 285.339844 163.40625 311.746094 161.039062 337.914062 160.964844 C 332.398438 140.75 326.488281 120.21875 320.355469 99.960938 C 316.949219 88.703125 314.113281 77.082031 311.386719 65.867188 C 308.734375 54.953125 305.988281 43.679688 302.703125 32.734375 C 286.558594 32.734375 270.175781 32.765625 254.304688 32.8125 C 249.3125 32.828125 244.308594 32.828125 239.320312 32.839844 C 223.992188 32.871094 208.554688 32.886719 193.136719 32.886719 C 165.628906 32.886719 138.148438 32.855469 111.246094 32.8125 C 86.976562 32.78125 61.894531 32.75 37.203125 32.734375 C 33.933594 43.679688 31.191406 54.953125 28.523438 65.851562 C 25.792969 77.082031 22.960938 88.6875 19.554688 99.960938 C 13.433594 120.207031 7.527344 140.734375 2.007812 160.964844 Z M 2.007812 160.964844 " fill-opacity="1" fill-rule="nonzero"/></g><path fill="#be47ff" d="M 170 169.691406 C 158.996094 169.691406 147.976562 168.980469 137.367188 167.566406 C 119.714844 165.214844 102.078125 160.992188 85.03125 156.921875 C 59.453125 150.804688 33 144.488281 6.078125 144.382812 L 6.078125 143.175781 C 33.136719 143.28125 59.664062 149.628906 85.304688 155.75 C 102.320312 159.816406 119.925781 164.023438 137.515625 166.375 C 156.253906 168.875 176.210938 169.164062 195.203125 167.21875 C 215.007812 165.199219 234.722656 160.480469 253.777344 155.929688 L 255.507812 155.507812 C 279.492188 149.777344 306.683594 143.28125 333.816406 143.175781 L 333.816406 144.382812 C 306.832031 144.488281 279.71875 150.96875 255.796875 156.683594 L 254.0625 157.105469 C 234.964844 161.671875 215.203125 166.390625 195.324219 168.425781 C 187.015625 169.253906 178.515625 169.691406 170 169.691406 Z M 170 169.691406 " fill-opacity="1" fill-rule="nonzero"/><path fill="#be47ff" d="M 170.285156 179.066406 C 159.78125 179.066406 149.125 177.542969 138.121094 174.484375 C 119.910156 169.433594 102.351562 161.386719 85.363281 153.621094 C 61.636719 142.769531 37.113281 131.539062 10.585938 128.390625 L 10.722656 127.199219 C 37.429688 130.363281 62.046875 141.640625 85.859375 152.539062 C 102.804688 160.285156 120.320312 168.304688 138.4375 173.339844 C 157.773438 178.703125 176.058594 179.292969 194.3125 175.148438 C 214.328125 170.59375 233.414062 161.972656 251.875 153.621094 L 252.855469 153.1875 C 254.003906 152.671875 255.148438 152.144531 256.292969 151.632812 C 279.476562 141.128906 303.441406 130.273438 329.1875 127.214844 L 329.324219 128.40625 C 303.773438 131.433594 279.898438 142.257812 256.789062 152.71875 C 255.644531 153.230469 254.5 153.757812 253.355469 154.269531 L 252.375 154.707031 C 233.863281 163.074219 214.722656 171.742188 194.582031 176.308594 C 186.519531 178.148438 178.441406 179.066406 170.285156 179.066406 Z M 170.285156 179.066406 " fill-opacity="1" fill-rule="nonzero"/><g clip-path="url(#df18bfb3ed)"><path fill="#be47ff" d="M 170.089844 187.144531 C 168.734375 187.144531 167.363281 187.085938 166.003906 186.949219 C 157.578125 186.152344 148.808594 183.890625 139.191406 180.0625 C 120.105469 172.480469 102.546875 160.917969 85.574219 149.75 C 63.628906 135.324219 40.929688 120.402344 14.867188 114.039062 L 15.152344 112.863281 C 26.941406 115.742188 39.058594 120.597656 52.171875 127.695312 C 63.855469 134.027344 75.234375 141.519531 86.238281 148.753906 C 103.164062 159.894531 120.679688 171.410156 139.640625 178.945312 C 149.152344 182.730469 157.820312 184.960938 166.125 185.742188 C 176.269531 186.707031 186.898438 183.648438 194.011719 181.25 C 213.90625 174.558594 231.996094 162.921875 249.496094 151.679688 L 250.25 151.195312 C 252.585938 149.703125 254.96875 148.152344 257.257812 146.660156 C 278.316406 133.003906 300.082031 118.878906 324.769531 112.851562 L 325.058594 114.027344 C 300.578125 119.996094 278.886719 134.074219 257.921875 147.667969 C 255.613281 149.160156 253.234375 150.714844 250.898438 152.207031 L 250.144531 152.6875 C 232.582031 163.976562 214.421875 175.644531 194.386719 182.398438 C 188.117188 184.523438 179.148438 187.144531 170.089844 187.144531 Z M 170.089844 187.144531 " fill-opacity="1" fill-rule="nonzero"/></g><path fill="#be47ff" d="M 170.253906 181.265625 C 168.75 181.265625 167.226562 181.222656 165.71875 181.117188 C 157.082031 180.527344 148.1875 178.253906 139.296875 174.332031 C 120.726562 166.148438 104.128906 153.714844 88.09375 141.683594 C 86.449219 140.449219 84.789062 139.210938 83.148438 137.992188 C 82.152344 137.253906 81.160156 136.5 80.148438 135.761719 C 61.214844 121.621094 41.652344 106.988281 18.9375 99.960938 L 19.296875 98.816406 C 42.210938 105.917969 61.863281 120.597656 80.871094 134.796875 C 81.867188 135.550781 82.863281 136.289062 83.871094 137.027344 C 85.515625 138.25 87.171875 139.484375 88.816406 140.71875 C 104.808594 152.703125 121.34375 165.09375 139.792969 173.234375 C 157.714844 181.132812 175.394531 182.171875 192.339844 176.308594 C 212.582031 169.3125 230.324219 156.15625 247.460938 143.417969 L 248.273438 142.816406 C 251.214844 140.644531 254.199219 138.382812 257.09375 136.199219 C 276.703125 121.410156 296.976562 106.113281 320.625 98.800781 L 320.988281 99.949219 C 297.535156 107.210938 277.351562 122.4375 257.832031 137.164062 C 254.9375 139.347656 251.9375 141.609375 248.996094 143.78125 L 248.183594 144.382812 C 230.957031 157.164062 213.152344 170.382812 192.730469 177.4375 C 185.359375 179.984375 177.824219 181.265625 170.253906 181.265625 Z M 170.253906 181.265625 " fill-opacity="1" fill-rule="nonzero"/><path fill="#be47ff" d="M 170.375 156.53125 C 169.1875 156.53125 167.996094 156.488281 166.820312 156.382812 C 158.648438 155.65625 150.207031 153.621094 140.984375 150.171875 C 120.875 142.632812 102.515625 130.9375 84.761719 119.632812 C 65.316406 107.242188 45.207031 94.445312 22.824219 87.136719 L 23.203125 85.988281 C 45.722656 93.34375 65.90625 106.1875 85.410156 118.621094 C 103.121094 129.898438 121.417969 141.550781 141.40625 149.054688 C 150.511719 152.476562 158.859375 154.480469 166.925781 155.207031 C 175.605469 155.972656 184.621094 153.621094 192.277344 151.210938 C 210.683594 145.4375 227.324219 135.535156 245.636719 124.15625 C 248.9375 122.105469 252.285156 119.996094 255.523438 117.945312 C 274.789062 105.78125 294.699219 93.195312 316.722656 86.003906 L 317.097656 87.148438 C 295.226562 94.292969 275.375 106.835938 256.171875 118.96875 C 252.933594 121.019531 249.585938 123.128906 246.285156 125.179688 C 227.910156 136.605469 211.195312 146.539062 192.65625 152.355469 C 185.886719 154.453125 178.109375 156.53125 170.375 156.53125 Z M 170.375 156.53125 " fill-opacity="1" fill-rule="nonzero"/><path fill="#be47ff" d="M 170.269531 120.101562 C 160.941406 120.101562 151.476562 118.863281 141.707031 116.40625 C 121.8125 111.386719 102.804688 102.933594 84.429688 94.746094 C 65.859375 86.488281 46.65625 77.941406 26.5625 72.964844 L 26.851562 71.789062 C 47.046875 76.796875 66.296875 85.355469 84.910156 93.648438 C 103.242188 101.800781 122.1875 110.242188 141.992188 115.230469 C 159.207031 119.574219 175.457031 120.039062 191.644531 116.679688 C 210.140625 112.835938 227.878906 105.433594 244.460938 98.183594 C 247.808594 96.722656 251.214844 95.214844 254.5 93.753906 C 273.296875 85.417969 292.726562 76.808594 313.058594 71.777344 L 313.34375 72.953125 C 293.101562 77.957031 273.71875 86.546875 254.980469 94.867188 C 251.695312 96.328125 248.289062 97.835938 244.941406 99.300781 C 228.300781 106.5625 210.484375 113.996094 191.886719 117.871094 C 184.726562 119.363281 177.535156 120.101562 170.269531 120.101562 Z M 170.269531 120.101562 " fill-opacity="1" fill-rule="nonzero"/><path fill="#be47ff" d="M 167.585938 83.214844 C 158.921875 83.214844 150.511719 82.703125 142.21875 81.695312 C 122.625 79.296875 103.195312 74.445312 84.398438 69.769531 C 66.734375 65.371094 48.480469 60.816406 30.136719 58.316406 L 30.300781 57.125 C 48.707031 59.640625 67.003906 64.195312 84.699219 68.609375 C 103.453125 73.28125 122.851562 78.121094 142.371094 80.503906 C 171.71875 84.105469 202.496094 81.40625 242.167969 71.761719 C 246.164062 70.796875 250.234375 69.785156 254.152344 68.804688 C 272.179688 64.328125 290.839844 59.6875 309.605469 57.125 L 309.773438 58.316406 C 291.066406 60.878906 272.453125 65.503906 254.453125 69.980469 C 250.519531 70.960938 246.464844 71.972656 242.457031 72.9375 C 223.992188 77.429688 207.726562 80.351562 192.730469 81.890625 C 184.0625 82.765625 175.710938 83.214844 167.585938 83.214844 Z M 167.585938 83.214844 " fill-opacity="1" fill-rule="nonzero"/><path fill="#be47ff" d="M 154.035156 52.46875 C 150.480469 52.46875 146.832031 52.421875 143.046875 52.316406 C 123.46875 51.789062 103.648438 49.980469 84.488281 48.230469 C 67.804688 46.707031 50.558594 45.125 33.542969 44.417969 L 33.585938 43.210938 C 50.636719 43.933594 67.894531 45.503906 84.59375 47.039062 C 103.738281 48.789062 123.527344 50.597656 143.078125 51.125 C 151.519531 51.351562 159.28125 51.320312 166.789062 51.050781 C 171.25 50.882812 175.789062 51.003906 180.175781 51.109375 C 183.550781 51.199219 187.046875 51.292969 190.46875 51.246094 C 207.789062 51.050781 224.851562 49.722656 240.722656 48.335938 C 245.199219 47.945312 249.75 47.523438 254.152344 47.132812 C 271.230469 45.578125 288.882812 43.964844 306.320312 43.226562 L 306.367188 44.433594 C 288.957031 45.171875 271.320312 46.769531 254.257812 48.335938 C 249.855469 48.742188 245.304688 49.152344 240.828125 49.542969 C 224.941406 50.945312 207.847656 52.253906 190.484375 52.46875 C 187.03125 52.511719 183.535156 52.421875 180.144531 52.332031 C 175.773438 52.210938 171.25 52.105469 166.835938 52.269531 C 162.660156 52.390625 158.421875 52.46875 154.035156 52.46875 Z M 154.035156 52.46875 " fill-opacity="1" fill-rule="nonzero"/><path fill="#be47ff" d="M 300.609375 163.042969 C 298.617188 153.1875 296.160156 144.429688 293.117188 136.273438 C 290.464844 129.175781 288.382812 122.585938 286.785156 116.179688 C 283.0625 101.199219 281.011719 85.65625 279.039062 70.628906 C 277.378906 58 275.664062 44.929688 272.949219 32.285156 L 274.125 32.027344 C 276.839844 44.71875 278.554688 57.804688 280.230469 70.464844 C 282.203125 85.460938 284.238281 100.972656 287.945312 115.878906 C 289.53125 122.253906 291.59375 128.78125 294.234375 135.851562 C 297.308594 144.066406 299.78125 152.882812 301.769531 162.800781 Z M 300.609375 163.042969 " fill-opacity="1" fill-rule="nonzero"/><path fill="#be47ff" d="M 263.105469 166.207031 C 263.046875 165.800781 262.972656 165.378906 262.910156 164.972656 C 262.15625 160.132812 261.359375 155.144531 257.90625 151.617188 C 254.679688 148.347656 253.957031 144.082031 253.234375 139.953125 C 251.078125 127.484375 250.171875 114.566406 249.3125 102.085938 C 249.089844 98.847656 248.863281 95.5 248.605469 92.230469 C 248.246094 87.585938 247.914062 82.871094 247.597656 78.300781 C 246.527344 63.183594 245.410156 47.554688 243.375 32.328125 L 244.566406 32.164062 C 246.617188 47.433594 247.730469 63.078125 248.800781 78.210938 C 249.132812 82.777344 249.464844 87.496094 249.8125 92.140625 C 250.066406 95.425781 250.292969 98.773438 250.519531 102.011719 C 251.394531 114.460938 252.285156 127.351562 254.425781 139.753906 C 255.101562 143.703125 255.8125 147.789062 258.765625 150.789062 C 262.503906 154.585938 263.316406 159.773438 264.101562 164.792969 C 264.160156 165.199219 264.238281 165.621094 264.296875 166.027344 Z M 263.105469 166.207031 " fill-opacity="1" fill-rule="nonzero"/><path fill="#be47ff" d="M 221.671875 169.945312 C 221.609375 169.945312 221.550781 169.945312 221.472656 169.933594 C 220.449219 169.765625 219.980469 168.183594 219.710938 163.902344 C 219.695312 163.707031 219.695312 163.570312 219.679688 163.496094 C 218.265625 149.328125 217.839844 134.8125 217.433594 120.761719 C 217.300781 115.984375 217.148438 111.042969 216.96875 106.1875 C 216.742188 100.25 216.546875 94.203125 216.347656 88.355469 C 215.746094 69.964844 215.113281 50.945312 213.742188 32.3125 L 214.949219 32.222656 C 216.320312 50.882812 216.953125 69.921875 217.554688 88.324219 C 217.75 94.175781 217.945312 100.21875 218.171875 106.15625 C 218.355469 111.011719 218.488281 115.953125 218.640625 120.734375 C 219.046875 134.765625 219.46875 149.265625 220.886719 163.390625 C 220.902344 163.464844 220.902344 163.632812 220.917969 163.84375 C 220.992188 165.109375 221.234375 168.019531 221.683594 168.695312 C 221.851562 168.5 222.0625 167.972656 222.304688 167.113281 C 222.347656 166.949219 222.394531 166.8125 222.425781 166.691406 C 222.453125 166.601562 222.515625 166.375 222.574219 166.132812 C 223.148438 163.886719 223.601562 162.726562 224.429688 162.605469 C 224.730469 162.5625 225.03125 162.652344 225.273438 162.863281 C 226.054688 163.511719 226.523438 165.5 226.78125 169.3125 C 226.796875 169.464844 226.796875 169.554688 226.796875 169.601562 L 225.589844 169.722656 C 225.589844 169.660156 225.574219 169.554688 225.558594 169.390625 C 225.289062 165.257812 224.773438 164.160156 224.578125 163.886719 C 224.351562 164.203125 224.066406 165.0625 223.71875 166.433594 C 223.644531 166.738281 223.585938 166.949219 223.539062 167.082031 C 223.507812 167.160156 223.480469 167.292969 223.433594 167.429688 C 223.175781 168.378906 222.742188 169.945312 221.671875 169.945312 Z M 221.671875 169.945312 " fill-opacity="1" fill-rule="nonzero"/><g clip-path="url(#9ac5a430f0)"><path fill="#be47ff" d="M 187.03125 186.527344 L 186.488281 184.28125 C 185.78125 181.28125 185.839844 177.9375 185.917969 174.710938 C 185.945312 173.460938 185.960938 172.269531 185.945312 171.109375 C 185.722656 158.761719 185.570312 146.207031 185.433594 134.058594 L 185.390625 130.484375 C 185.285156 121.09375 185.191406 111.554688 185.117188 102.3125 C 184.921875 79.34375 184.710938 55.601562 184.136719 32.253906 L 185.34375 32.222656 C 185.917969 55.570312 186.128906 79.328125 186.324219 102.296875 C 186.398438 111.523438 186.488281 121.078125 186.59375 130.457031 L 186.640625 134.027344 C 186.777344 146.101562 186.910156 158.582031 187.136719 170.851562 C 187.226562 169.617188 187.425781 168.410156 187.769531 167.234375 L 188.417969 165.046875 L 188.929688 167.265625 C 189.21875 168.5 189.246094 169.8125 189.261719 171.078125 C 189.261719 171.394531 189.277344 171.710938 189.277344 172.027344 L 188.269531 172.058594 C 188.222656 173.308594 188.253906 174.574219 188.285156 175.824219 C 188.34375 178.644531 188.417969 181.570312 187.648438 184.28125 Z M 187.109375 176.023438 C 187.09375 177.152344 187.078125 178.28125 187.121094 179.398438 C 187.152344 178.28125 187.121094 177.136719 187.109375 176.023438 Z M 187.109375 176.023438 " fill-opacity="1" fill-rule="nonzero"/></g><g clip-path="url(#62c5b77318)"><path fill="#be47ff" d="M 152.847656 186.511719 L 152.242188 184.296875 C 151.503906 181.597656 151.566406 178.703125 151.625 175.902344 C 151.65625 174.636719 151.671875 173.355469 151.625 172.074219 L 150.601562 172.042969 C 150.617188 171.742188 150.617188 171.4375 150.617188 171.136719 C 150.644531 169.855469 150.660156 168.546875 150.945312 167.292969 L 151.460938 165.046875 L 152.109375 167.25 C 152.453125 168.425781 152.636719 169.628906 152.742188 170.851562 C 152.96875 158.402344 153.117188 145.753906 153.253906 133.515625 L 153.285156 130.457031 C 153.390625 121.140625 153.464844 111.675781 153.554688 102.523438 C 153.75 79.476562 153.960938 55.648438 154.535156 32.222656 L 155.742188 32.253906 C 155.167969 55.675781 154.957031 79.492188 154.761719 102.539062 C 154.683594 111.703125 154.59375 121.171875 154.488281 130.46875 L 154.460938 133.53125 C 154.324219 145.84375 154.171875 158.566406 153.945312 171.09375 C 153.929688 172.253906 153.960938 173.460938 153.992188 174.742188 C 154.066406 177.964844 154.15625 181.296875 153.402344 184.28125 Z M 152.832031 176.082031 C 152.816406 177.195312 152.785156 178.328125 152.816406 179.441406 C 152.863281 178.328125 152.847656 177.195312 152.832031 176.082031 Z M 152.832031 176.082031 " fill-opacity="1" fill-rule="nonzero"/></g><path fill="#be47ff" d="M 118.207031 169.960938 C 117.183594 169.960938 116.746094 168.410156 116.460938 167.371094 C 116.429688 167.25 116.398438 167.144531 116.371094 167.066406 C 116.324219 166.933594 116.265625 166.722656 116.203125 166.433594 C 115.839844 165.03125 115.554688 164.175781 115.328125 163.859375 C 115.101562 164.128906 114.636719 165.167969 114.363281 169.253906 C 114.347656 169.464844 114.335938 169.628906 114.335938 169.707031 L 113.128906 169.585938 C 113.144531 169.511719 113.144531 169.359375 113.160156 169.164062 C 113.414062 165.335938 113.851562 163.511719 114.636719 162.847656 C 114.890625 162.636719 115.195312 162.546875 115.496094 162.589844 C 116.339844 162.695312 116.792969 163.871094 117.363281 166.132812 C 117.425781 166.375 117.484375 166.585938 117.515625 166.675781 C 117.546875 166.765625 117.574219 166.886719 117.621094 167.039062 C 117.785156 167.640625 118.027344 168.363281 118.222656 168.664062 C 118.417969 168.347656 118.796875 167.308594 119.007812 163.828125 C 119.023438 163.617188 119.039062 163.449219 119.039062 163.375 C 120.453125 149.238281 120.875 134.707031 121.28125 120.65625 C 121.417969 115.894531 121.570312 110.964844 121.734375 106.140625 C 121.960938 100.234375 122.15625 94.234375 122.339844 88.429688 C 122.941406 69.996094 123.574219 50.929688 124.945312 32.222656 L 126.152344 32.3125 C 124.78125 50.988281 124.148438 70.042969 123.542969 88.476562 C 123.347656 94.28125 123.152344 100.292969 122.941406 106.203125 C 122.761719 111.027344 122.625 115.941406 122.488281 120.703125 C 122.082031 134.765625 121.660156 149.328125 120.242188 163.511719 C 120.242188 163.585938 120.226562 163.722656 120.214844 163.917969 C 119.957031 168.152344 119.460938 169.796875 118.375 169.960938 C 118.3125 169.960938 118.253906 169.960938 118.207031 169.960938 Z M 118.207031 169.960938 " fill-opacity="1" fill-rule="nonzero"/><path fill="#be47ff" d="M 76.800781 166.207031 L 75.613281 166.011719 C 75.6875 165.546875 75.761719 165.0625 75.835938 164.582031 C 76.574219 159.863281 77.40625 154.511719 81.023438 150.878906 C 84.097656 147.789062 84.804688 143.703125 85.484375 139.742188 C 87.566406 127.667969 88.453125 115.15625 89.3125 103.039062 C 89.523438 99.992188 89.75 96.828125 89.992188 93.738281 C 90.367188 88.824219 90.730469 83.804688 91.0625 78.964844 C 92.148438 63.574219 93.277344 47.671875 95.355469 32.132812 L 96.546875 32.300781 C 94.46875 47.792969 93.351562 63.679688 92.253906 79.054688 C 91.90625 83.910156 91.558594 88.914062 91.183594 93.84375 C 90.941406 96.933594 90.714844 100.082031 90.503906 103.128906 C 89.644531 115.261719 88.753906 127.816406 86.660156 139.953125 C 85.980469 143.902344 85.199219 148.378906 81.867188 151.738281 C 78.519531 155.101562 77.75 160.015625 77.011719 164.777344 C 76.953125 165.257812 76.878906 165.742188 76.800781 166.207031 Z M 76.800781 166.207031 " fill-opacity="1" fill-rule="nonzero"/><path fill="#be47ff" d="M 39.300781 163.042969 L 38.125 162.800781 C 40.113281 152.929688 42.527344 144.277344 45.496094 136.320312 C 48.3125 128.765625 50.363281 122.269531 51.960938 115.894531 C 55.667969 100.972656 57.703125 85.476562 59.679688 70.480469 C 61.335938 57.816406 63.054688 44.734375 65.785156 32.042969 L 66.960938 32.300781 C 64.246094 44.945312 62.527344 58 60.871094 70.644531 C 58.894531 85.671875 56.859375 101.214844 53.121094 116.195312 C 51.523438 122.632812 49.460938 129.160156 46.625 136.757812 C 43.6875 144.640625 41.289062 153.246094 39.300781 163.042969 Z M 39.300781 163.042969 " fill-opacity="1" fill-rule="nonzero"/><g clip-path="url(#6ffba2fad2)"><g clip-path="url(#7b18822f9e)"><g clip-path="url(#4920d6e5c2)"><path fill="#151318" d="M 257.207031 26.589844 L 257.207031 124.929688 C 257.207031 130.273438 252.875 134.605469 247.535156 134.605469 L 92.367188 134.605469 C 87.023438 134.605469 82.695312 130.273438 82.695312 124.929688 L 82.695312 26.589844 Z M 257.207031 26.589844 " fill-opacity="1" fill-rule="nonzero"/></g></g></g><g clip-path="url(#66a4b0c527)"><g clip-path="url(#ddc711338a)"><g clip-path="url(#a7a21da183)"><path fill="#be47ff" d="M 257.207031 9.671875 L 257.207031 26.589844 L 82.695312 26.589844 L 82.695312 9.671875 C 82.695312 4.332031 87.027344 0 92.367188 0 L 247.535156 0 C 252.878906 0 257.207031 4.332031 257.207031 9.671875 Z M 257.207031 9.671875 " fill-opacity="1" fill-rule="nonzero"/></g></g></g><g clip-path="url(#1fb6923ce3)"><g clip-path="url(#2ece17ed36)"><g clip-path="url(#497e3145de)"><path fill="#151318" d="M 142.230469 9.761719 L 215.011719 9.761719 C 215.523438 9.761719 216.015625 9.859375 216.488281 10.054688 C 216.960938 10.25 217.378906 10.53125 217.742188 10.890625 C 218.105469 11.253906 218.382812 11.671875 218.578125 12.144531 C 218.773438 12.617188 218.871094 13.109375 218.871094 13.621094 C 218.871094 14.132812 218.773438 14.625 218.578125 15.097656 C 218.382812 15.570312 218.105469 15.988281 217.742188 16.351562 C 217.378906 16.710938 216.960938 16.992188 216.488281 17.1875 C 216.015625 17.382812 215.523438 17.480469 215.011719 17.480469 L 142.230469 17.480469 C 141.71875 17.480469 141.226562 17.382812 140.753906 17.1875 C 140.28125 16.992188 139.863281 16.710938 139.503906 16.351562 C 139.140625 15.988281 138.859375 15.570312 138.664062 15.097656 C 138.46875 14.625 138.371094 14.132812 138.371094 13.621094 C 138.371094 13.109375 138.46875 12.617188 138.664062 12.144531 C 138.859375 11.671875 139.140625 11.253906 139.503906 10.890625 C 139.863281 10.53125 140.28125 10.25 140.753906 10.054688 C 141.226562 9.859375 141.71875 9.761719 142.230469 9.761719 Z M 142.230469 9.761719 " fill-opacity="1" fill-rule="nonzero"/></g></g></g><g clip-path="url(#7f41ad2728)"><g clip-path="url(#8936d64398)"><g clip-path="url(#c83ac5f66a)"><path fill="#151318" d="M 130.679688 13.621094 C 130.679688 13.9375 130.648438 14.253906 130.589844 14.5625 C 130.527344 14.875 130.433594 15.175781 130.3125 15.46875 C 130.191406 15.761719 130.042969 16.039062 129.867188 16.300781 C 129.691406 16.566406 129.492188 16.808594 129.269531 17.035156 C 129.042969 17.257812 128.800781 17.457031 128.535156 17.632812 C 128.273438 17.808594 127.996094 17.957031 127.703125 18.078125 C 127.410156 18.199219 127.109375 18.292969 126.796875 18.355469 C 126.488281 18.414062 126.171875 18.445312 125.855469 18.445312 C 125.539062 18.445312 125.226562 18.414062 124.914062 18.355469 C 124.605469 18.292969 124.300781 18.199219 124.007812 18.078125 C 123.714844 17.957031 123.4375 17.808594 123.175781 17.632812 C 122.910156 17.457031 122.667969 17.257812 122.445312 17.035156 C 122.21875 16.808594 122.019531 16.566406 121.84375 16.300781 C 121.667969 16.039062 121.519531 15.761719 121.398438 15.46875 C 121.277344 15.175781 121.183594 14.875 121.125 14.5625 C 121.0625 14.253906 121.03125 13.9375 121.03125 13.621094 C 121.03125 13.304688 121.0625 12.992188 121.125 12.679688 C 121.183594 12.371094 121.277344 12.066406 121.398438 11.773438 C 121.519531 11.480469 121.667969 11.203125 121.84375 10.941406 C 122.019531 10.675781 122.21875 10.433594 122.445312 10.210938 C 122.667969 9.984375 122.910156 9.785156 123.175781 9.609375 C 123.4375 9.433594 123.714844 9.285156 124.007812 9.164062 C 124.300781 9.042969 124.605469 8.949219 124.914062 8.890625 C 125.226562 8.828125 125.539062 8.796875 125.855469 8.796875 C 126.171875 8.796875 126.488281 8.828125 126.796875 8.890625 C 127.109375 8.949219 127.410156 9.042969 127.703125 9.164062 C 127.996094 9.285156 128.273438 9.433594 128.535156 9.609375 C 128.800781 9.785156 129.042969 9.984375 129.269531 10.210938 C 129.492188 10.433594 129.691406 10.675781 129.867188 10.941406 C 130.042969 11.203125 130.191406 11.480469 130.3125 11.773438 C 130.433594 12.066406 130.527344 12.371094 130.589844 12.679688 C 130.648438 12.992188 130.679688 13.304688 130.679688 13.621094 Z M 130.679688 13.621094 " fill-opacity="1" fill-rule="nonzero"/></g></g></g><g clip-path="url(#8455088e29)"><g clip-path="url(#e9544bf2e8)"><g clip-path="url(#28834c9de8)"><path stroke-linecap="butt" transform="matrix(0.747024, 0, 0, 0.747024, 82.688345, 0.000000000000095543)" fill="none" stroke-linejoin="miter" d="M -0.00113105 25.000249 L -0.00113105 155.188748 C -0.00113105 168.993529 11.194338 180.188997 24.99912 180.188997 L 208.628866 180.188997 C 222.433648 180.188997 233.623888 168.993529 233.623888 155.188748 L 233.623888 25.000249 C 233.623888 11.190239 222.433648 -0.000000000000127898 208.628866 -0.000000000000127898 L 24.99912 -0.000000000000127898 C 11.194338 -0.000000000000127898 -0.00113105 11.190239 -0.00113105 25.000249 Z M -0.00113105 25.000249 " stroke="#be47ff" stroke-width="20" stroke-opacity="1" stroke-miterlimit="4"/></g></g></g></svg>