<svg width="1338" height="1172" viewBox="0 0 1338 1172" fill="none" xmlns="http://www.w3.org/2000/svg">
<path d="M271.893 35.1743C271.9 24.1286 280.86 15.1688 291.906 15.162L1056.12 14.6898C1067.16 14.683 1076.11 23.6317 1076.1 34.6774L1075.57 884.165L271.362 884.661L271.893 35.1743Z" fill="#272727"/>
<path d="M272.62 34.7139C272.627 23.6682 281.587 14.7083 292.632 14.7015L1055.56 14.2301C1066.61 14.2233 1075.56 23.1721 1075.55 34.2178L1075.49 130.621L272.559 131.117L272.62 34.7139Z" fill="black"/>
<path d="M272.62 34.7139C272.627 23.6682 281.587 14.7083 292.632 14.7015L1055.56 14.2301C1066.61 14.2233 1075.56 23.1721 1075.55 34.2178L1075.49 130.621L272.559 131.117L272.62 34.7139Z" fill="black"/>
<rect x="0.499687" y="0.499691" width="49.5965" height="49.0017" transform="matrix(1 -0.000617863 -0.000625209 1 370.57 233.463)" fill="#BBF65D" stroke="black"/>
<rect x="0.499687" y="0.499691" width="49.5965" height="49.0017" transform="matrix(1 -0.000617863 -0.000625209 1 571.437 233.339)" fill="#BBF65D" stroke="black"/>
<rect x="0.499687" y="0.499691" width="49.5965" height="49.0017" transform="matrix(1 -0.000617863 -0.000625209 1 622.034 233.308)" fill="#92E60D" stroke="black"/>
<rect x="0.499687" y="0.499691" width="49.5965" height="49.0017" transform="matrix(1 -0.000617863 -0.000625209 1 973.681 233.09)" fill="#BBF65D" stroke="black"/>
<rect x="0.499687" y="0.499691" width="49.5965" height="49.0017" transform="matrix(1 -0.000617863 -0.000625209 1 822.396 233.183)" fill="#BBF65D" stroke="black"/>
<rect x="0.499687" y="0.499691" width="49.5965" height="49.0017" transform="matrix(1 -0.000617863 -0.000625209 1 471.227 283.403)" fill="#BBF65D" stroke="black"/>
<rect x="0.499687" y="0.499691" width="49.5965" height="49.0017" transform="matrix(1 -0.000617863 -0.000625209 1 319.942 283.496)" fill="#9CD246" stroke="black"/>
<rect x="0.499687" y="0.499691" width="49.5965" height="49.0017" transform="matrix(1 -0.000617863 -0.000625209 1 521.317 283.372)" fill="#9CD246" stroke="black"/>
<rect x="0.499687" y="0.499691" width="49.5965" height="49.0017" transform="matrix(1 -0.000617863 -0.000625209 1 672.094 283.278)" fill="#BBF65D" stroke="black"/>
<rect x="0.499687" y="0.499691" width="49.5965" height="49.0017" transform="matrix(1 -0.000617863 -0.000625209 1 973.649 283.092)" fill="#9CD246" stroke="black"/>
<rect x="0.499687" y="0.499691" width="49.5965" height="49.0017" transform="matrix(1 -0.000617863 -0.000625209 1 470.785 183.4)" fill="#9CD246" stroke="black"/>
<rect x="0.499687" y="0.499691" width="49.5965" height="49.0017" transform="matrix(1 -0.000617863 -0.000625209 1 319.5 183.493)" fill="#92E60D" stroke="black"/>
<rect x="0.499687" y="0.499691" width="49.5965" height="49.0017" transform="matrix(1 -0.000617863 -0.000625209 1 771.833 183.214)" fill="#9CD246" stroke="black"/>
<rect x="0.499687" y="0.499691" width="49.5965" height="49.0017" transform="matrix(1 -0.000617863 -0.000625209 1 1023.8 183.058)" fill="#92E60D" stroke="black"/>
<rect x="0.499687" y="0.499691" width="49.5965" height="49.0017" transform="matrix(1 -0.000617863 -0.000625209 1 872.519 183.151)" fill="#BBF65D" stroke="black"/>
<rect x="0.499687" y="0.499691" width="49.5965" height="49.0017" transform="matrix(1 -0.000617863 -0.000625209 1 270.295 383.53)" fill="#92E60D" stroke="black"/>
<rect x="0.499687" y="0.499691" width="49.5965" height="49.0017" transform="matrix(1 -0.000617863 -0.000625209 1 421.073 383.437)" fill="#9CD246" stroke="black"/>
<rect x="0.499687" y="0.499691" width="49.5965" height="49.0017" transform="matrix(1 -0.000617863 -0.000625209 1 471.669 383.406)" fill="#BBF65D" stroke="black"/>
<rect x="0.499687" y="0.499691" width="49.5965" height="49.0017" transform="matrix(1 -0.000617863 -0.000625209 1 370.981 383.468)" fill="#BBF65D" stroke="black"/>
<rect x="0.499687" y="0.499691" width="49.5965" height="49.0017" transform="matrix(1 -0.000617863 -0.000625209 1 521.759 383.375)" fill="#BBF65D" stroke="black"/>
<rect x="0.499687" y="0.499691" width="49.5965" height="49.0017" transform="matrix(1 -0.000617863 -0.000625209 1 672.536 383.282)" fill="#BBF65D" stroke="black"/>
<rect x="0.499687" y="0.499691" width="49.5965" height="49.0017" transform="matrix(1 -0.000617863 -0.000625209 1 622.445 383.312)" fill="#BBF65D" stroke="black"/>
<rect x="0.499687" y="0.499691" width="49.5965" height="49.0017" transform="matrix(1 -0.000617863 -0.000625209 1 923.495 383.127)" fill="#9CD246" stroke="black"/>
<rect x="0.499687" y="0.499691" width="49.5965" height="49.0017" transform="matrix(1 -0.000617863 -0.000625209 1 1024.69 383.064)" fill="#BBF65D" stroke="black"/>
<rect x="0.499687" y="0.499691" width="49.5965" height="49.0017" transform="matrix(1 -0.000617863 -0.000625209 1 822.807 383.189)" fill="#BBF65D" stroke="black"/>
<rect x="0.499687" y="0.499691" width="49.5965" height="49.0017" transform="matrix(1 -0.000617863 -0.000625209 1 873.403 383.158)" fill="#BBF65D" stroke="black"/>
<rect x="0.499687" y="0.499691" width="49.5965" height="49.0017" transform="matrix(1 -0.000617863 -0.000625209 1 270.264 433.532)" fill="#9CD246" stroke="black"/>
<rect x="0.499687" y="0.499691" width="49.5965" height="49.0017" transform="matrix(1 -0.000617863 -0.000625209 1 421.042 433.438)" fill="#BBF65D" stroke="black"/>
<rect x="0.499687" y="0.499691" width="49.5965" height="49.0017" transform="matrix(1 -0.000617863 -0.000625209 1 320.353 433.5)" fill="#BBF65D" stroke="black"/>
<rect x="0.499687" y="0.499691" width="49.5965" height="49.0017" transform="matrix(1 -0.000617863 -0.000625209 1 521.728 433.376)" fill="#92E60D" stroke="black"/>
<rect x="0.499687" y="0.499691" width="49.5965" height="49.0017" transform="matrix(1 -0.000617863 -0.000625209 1 672.505 433.284)" fill="#BBF65D" stroke="black"/>
<rect x="0.499687" y="0.499691" width="49.5965" height="49.0017" transform="matrix(1 -0.000617863 -0.000625209 1 723.102 433.252)" fill="#BBF65D" stroke="black"/>
<rect x="0.499687" y="0.499691" width="49.5965" height="49.0017" transform="matrix(1 -0.000617863 -0.000625209 1 571.817 433.346)" fill="#9CD246" stroke="black"/>
<rect x="0.499687" y="0.499691" width="49.5965" height="49.0017" transform="matrix(1 -0.000617863 -0.000625209 1 923.464 433.128)" fill="#BBF65D" stroke="black"/>
<rect x="0.499687" y="0.499691" width="49.5965" height="49.0017" transform="matrix(1 -0.000617863 -0.000625209 1 822.776 433.19)" fill="#9CD246" stroke="black"/>
<rect x="0.499687" y="0.499691" width="49.5965" height="49.0017" transform="matrix(1 -0.000617863 -0.000625209 1 471.196 333.404)" fill="#BBF65D" stroke="black"/>
<rect x="0.499687" y="0.499691" width="49.5965" height="49.0017" transform="matrix(1 -0.000617863 -0.000625209 1 370.508 333.467)" fill="#BBF65D" stroke="black"/>
<rect x="0.499687" y="0.499691" width="49.5965" height="49.0017" transform="matrix(1 -0.000617863 -0.000625209 1 672.063 333.28)" fill="#9CD246" stroke="black"/>
<rect x="0.499687" y="0.499691" width="49.5965" height="49.0017" transform="matrix(1 -0.000617863 -0.000625209 1 722.659 333.249)" fill="#BBF65D" stroke="black"/>
<rect x="0.499687" y="0.499691" width="49.5965" height="49.0017" transform="matrix(1 -0.000617863 -0.000625209 1 571.375 333.342)" fill="#BBF65D" stroke="black"/>
<rect x="0.499687" y="0.499691" width="49.5965" height="49.0017" transform="matrix(1 -0.000617863 -0.000625209 1 923.022 333.125)" fill="#BBF65D" stroke="black"/>
<rect x="0.499687" y="0.499691" width="49.5965" height="49.0017" transform="matrix(1 -0.000617863 -0.000625209 1 1024.21 333.063)" fill="#9CD246" stroke="black"/>
<rect x="0.499687" y="0.499691" width="49.5965" height="49.0017" transform="matrix(1 -0.000617863 -0.000625209 1 973.618 333.094)" fill="#92E60D" stroke="black"/>
<rect x="0.499687" y="0.499691" width="49.5965" height="49.0017" transform="matrix(1 -0.000617863 -0.000625209 1 822.333 333.188)" fill="#BBF65D" stroke="black"/>
<rect x="0.499687" y="0.499691" width="49.5965" height="49.0017" transform="matrix(1 -0.000617863 -0.000625209 1 421.991 533.441)" fill="#92E60D" stroke="black"/>
<rect x="0.499687" y="0.499691" width="49.5965" height="49.0017" transform="matrix(1 -0.000617863 -0.000625209 1 472.588 533.41)" fill="#9CD246" stroke="black"/>
<rect x="0.499687" y="0.499691" width="49.5965" height="49.0017" transform="matrix(1 -0.000617863 -0.000625209 1 321.303 533.503)" fill="#BBF65D" stroke="black"/>
<rect x="0.499687" y="0.499691" width="49.5965" height="49.0017" transform="matrix(1 -0.000617863 -0.000625209 1 522.677 533.379)" fill="#BBF65D" stroke="black"/>
<rect x="0.499687" y="0.499691" width="49.5965" height="49.0017" transform="matrix(1 -0.000617863 -0.000625209 1 724.051 533.255)" fill="#BBF65D" stroke="black"/>
<rect x="0.499687" y="0.499691" width="49.5965" height="49.0017" transform="matrix(1 -0.000617863 -0.000625209 1 572.766 533.348)" fill="#BBF65D" stroke="black"/>
<rect x="0.499687" y="0.499691" width="49.5965" height="49.0017" transform="matrix(1 -0.000617863 -0.000625209 1 623.363 533.316)" fill="#9CD246" stroke="black"/>
<rect x="0.499687" y="0.499691" width="49.5965" height="49.0017" transform="matrix(1 -0.000617863 -0.000625209 1 773.636 533.224)" fill="#BBF65D" stroke="black"/>
<rect x="0.499687" y="0.499691" width="49.5965" height="49.0017" transform="matrix(1 -0.000617863 -0.000625209 1 924.413 533.131)" fill="#BBF65D" stroke="black"/>
<rect x="0.499687" y="0.499691" width="49.5965" height="49.0017" transform="matrix(1 -0.000617863 -0.000625209 1 975.01 533.099)" fill="#BBF65D" stroke="black"/>
<rect x="0.499687" y="0.499691" width="49.5965" height="49.0017" transform="matrix(1 -0.000617863 -0.000625209 1 823.725 533.193)" fill="#BBF65D" stroke="black"/>
<rect x="0.499687" y="0.499691" width="49.5965" height="49.0017" transform="matrix(1 -0.000617863 -0.000625209 1 874.322 533.161)" fill="#9CD246" stroke="black"/>
<rect x="0.499687" y="0.499691" width="49.5965" height="49.0017" transform="matrix(1 -0.000617863 -0.000625209 1 271.182 583.536)" fill="#9CD246" stroke="black"/>
<rect x="0.499687" y="0.499691" width="49.5965" height="49.0017" transform="matrix(1 -0.000617863 -0.000625209 1 421.96 583.443)" fill="#BBF65D" stroke="black"/>
<rect x="0.499687" y="0.499691" width="49.5965" height="49.0017" transform="matrix(1 -0.000617863 -0.000625209 1 321.272 583.505)" fill="#BBF65D" stroke="black"/>
<rect x="0.499687" y="0.499691" width="49.5965" height="49.0017" transform="matrix(1 -0.000617863 -0.000625209 1 371.868 583.473)" fill="#BBF65D" stroke="black"/>
<rect x="0.499687" y="0.499691" width="49.5965" height="49.0017" transform="matrix(1 -0.000617863 -0.000625209 1 673.423 583.287)" fill="#92E60D" stroke="black"/>
<rect x="0.499687" y="0.499691" width="49.5965" height="49.0017" transform="matrix(1 -0.000617863 -0.000625209 1 724.02 583.256)" fill="#9CD246" stroke="black"/>
<rect x="0.499687" y="0.499691" width="49.5965" height="49.0017" transform="matrix(1 -0.000617863 -0.000625209 1 572.735 583.349)" fill="#BBF65D" stroke="black"/>
<rect x="0.499687" y="0.499691" width="49.5965" height="49.0017" transform="matrix(1 -0.000617863 -0.000625209 1 623.332 583.319)" fill="#BBF65D" stroke="black"/>
<rect x="0.499687" y="0.499691" width="49.5965" height="49.0017" transform="matrix(1 -0.000617863 -0.000625209 1 924.382 583.133)" fill="#9CD246" stroke="black"/>
<rect x="0.499687" y="0.499691" width="49.5965" height="49.0017" transform="matrix(1 -0.000617863 -0.000625209 1 1025.58 583.07)" fill="#BBF65D" stroke="black"/>
<rect x="0.499687" y="0.499691" width="49.5965" height="49.0017" transform="matrix(1 -0.000617863 -0.000625209 1 823.694 583.194)" fill="#BBF65D" stroke="black"/>
<rect x="0.499687" y="0.499691" width="49.5965" height="49.0017" transform="matrix(1 -0.000617863 -0.000625209 1 270.74 483.533)" fill="#BBF65D" stroke="black"/>
<rect x="0.499687" y="0.499691" width="49.5965" height="49.0017" transform="matrix(1 -0.000617863 -0.000625209 1 421.518 483.44)" fill="#BBF65D" stroke="black"/>
<rect x="0.499687" y="0.499691" width="49.5965" height="49.0017" transform="matrix(1 -0.000617863 -0.000625209 1 472.114 483.409)" fill="#BBF65D" stroke="black"/>
<rect x="0.499687" y="0.499691" width="49.5965" height="49.0017" transform="matrix(1 -0.000617863 -0.000625209 1 371.426 483.471)" fill="#9CD246" stroke="black"/>
<rect x="0.499687" y="0.499691" width="49.5965" height="49.0017" transform="matrix(1 -0.000617863 -0.000625209 1 672.981 483.284)" fill="#BBF65D" stroke="black"/>
<rect x="0.499687" y="0.499691" width="49.5965" height="49.0017" transform="matrix(1 -0.000617863 -0.000625209 1 622.889 483.316)" fill="#BBF65D" stroke="black"/>
<rect x="0.499687" y="0.499691" width="49.5965" height="49.0017" transform="matrix(1 -0.000617863 -0.000625209 1 773.162 483.223)" fill="#92E60D" stroke="black"/>
<rect x="0.499687" y="0.499691" width="49.5965" height="49.0017" transform="matrix(1 -0.000617863 -0.000625209 1 923.94 483.13)" fill="#BBF65D" stroke="black"/>
<rect x="0.499687" y="0.499691" width="49.5965" height="49.0017" transform="matrix(1 -0.000617863 -0.000625209 1 1025.13 483.067)" fill="#BBF65D" stroke="black"/>
<rect x="0.499687" y="0.499691" width="49.5965" height="49.0017" transform="matrix(1 -0.000617863 -0.000625209 1 974.536 483.098)" fill="#9CD246" stroke="black"/>
<rect x="0.499687" y="0.499691" width="49.5965" height="49.0017" transform="matrix(1 -0.000617863 -0.000625209 1 873.848 483.16)" fill="#BBF65D" stroke="black"/>
<rect x="0.499687" y="0.499691" width="49.5965" height="49.0017" transform="matrix(1 -0.000617863 -0.000625209 1 271.94 683.557)" fill="#BBF65D" stroke="black"/>
<rect x="0.499687" y="0.499691" width="49.5965" height="49.0017" transform="matrix(1 -0.000617863 -0.000625209 1 473.315 683.432)" fill="#BBF65D" stroke="black"/>
<rect x="0.499687" y="0.499691" width="49.5965" height="49.0017" transform="matrix(1 -0.000617863 -0.000625209 1 322.03 683.526)" fill="#92E60D" stroke="black"/>
<rect x="0.499687" y="0.499691" width="49.5965" height="49.0017" transform="matrix(1 -0.000617863 -0.000625209 1 372.626 683.494)" fill="#BBF65D" stroke="black"/>
<rect x="0.499687" y="0.499691" width="49.5965" height="49.0017" transform="matrix(1 -0.000617863 -0.000625209 1 724.778 683.277)" fill="#BBF65D" stroke="black"/>
<rect x="0.499687" y="0.499691" width="49.5965" height="49.0017" transform="matrix(1 -0.000617863 -0.000625209 1 573.493 683.371)" fill="#9CD246" stroke="black"/>
<rect x="0.499687" y="0.499691" width="49.5965" height="49.0017" transform="matrix(1 -0.000617863 -0.000625209 1 624.09 683.34)" fill="#BBF65D" stroke="black"/>
<rect x="0.499687" y="0.499691" width="49.5965" height="49.0017" transform="matrix(1 -0.000617863 -0.000625209 1 774.362 683.246)" fill="#9CD246" stroke="black"/>
<rect x="0.499687" y="0.499691" width="49.5965" height="49.0017" transform="matrix(1 -0.000617863 -0.000625209 1 925.14 683.154)" fill="#BBF65D" stroke="black"/>
<rect x="0.499687" y="0.499691" width="49.5965" height="49.0017" transform="matrix(1 -0.000617863 -0.000625209 1 975.737 683.122)" fill="#BBF65D" stroke="black"/>
<rect x="0.499687" y="0.499691" width="49.5965" height="49.0017" transform="matrix(1 -0.000617863 -0.000625209 1 824.452 683.216)" fill="#BBF65D" stroke="black"/>
<rect x="0.499687" y="0.499691" width="49.5965" height="49.0017" transform="matrix(1 -0.000617863 -0.000625209 1 875.048 683.184)" fill="#BBF65D" stroke="black"/>
<rect x="0.499687" y="0.499691" width="49.5965" height="49.0017" transform="matrix(1 -0.000617863 -0.000625209 1 422.687 733.465)" fill="#BBF65D" stroke="black"/>
<rect x="0.499687" y="0.499691" width="49.5965" height="49.0017" transform="matrix(1 -0.000617863 -0.000625209 1 321.998 733.527)" fill="#9CD246" stroke="black"/>
<rect x="0.499687" y="0.499691" width="49.5965" height="49.0017" transform="matrix(1 -0.000617863 -0.000625209 1 372.595 733.496)" fill="#BBF65D" stroke="black"/>
<rect x="0.499687" y="0.499691" width="49.5965" height="49.0017" transform="matrix(1 -0.000617863 -0.000625209 1 523.373 733.403)" fill="#BBF65D" stroke="black"/>
<rect x="0.499687" y="0.499691" width="49.5965" height="49.0017" transform="matrix(1 -0.000617863 -0.000625209 1 674.15 733.31)" fill="#BBF65D" stroke="black"/>
<rect x="0.499687" y="0.499691" width="49.5965" height="49.0017" transform="matrix(1 -0.000617863 -0.000625209 1 573.462 733.372)" fill="#BBF65D" stroke="black"/>
<rect x="0.499687" y="0.499691" width="49.5965" height="49.0017" transform="matrix(1 -0.000617863 -0.000625209 1 624.058 733.341)" fill="#BBF65D" stroke="black"/>
<rect x="0.499687" y="0.499691" width="49.5965" height="49.0017" transform="matrix(1 -0.000617863 -0.000625209 1 774.331 733.248)" fill="#BBF65D" stroke="black"/>
<rect x="0.499687" y="0.499691" width="49.5965" height="49.0017" transform="matrix(1 -0.000617863 -0.000625209 1 925.109 733.155)" fill="#BBF65D" stroke="black"/>
<rect x="0.499687" y="0.499691" width="49.5965" height="49.0017" transform="matrix(1 -0.000617863 -0.000625209 1 975.705 733.123)" fill="#BBF65D" stroke="black"/>
<rect x="0.499687" y="0.499691" width="49.5965" height="49.0017" transform="matrix(1 -0.000617863 -0.000625209 1 824.421 733.217)" fill="#9CD246" stroke="black"/>
<rect x="0.499687" y="0.499691" width="49.5965" height="49.0017" transform="matrix(1 -0.000617863 -0.000625209 1 271.467 633.555)" fill="#BBF65D" stroke="black"/>
<rect x="0.499687" y="0.499691" width="49.5965" height="49.0017" transform="matrix(1 -0.000617863 -0.000625209 1 422.245 633.463)" fill="#BBF65D" stroke="black"/>
<rect x="0.499687" y="0.499691" width="49.5965" height="49.0017" transform="matrix(1 -0.000617863 -0.000625209 1 472.841 633.431)" fill="#BBF65D" stroke="black"/>
<rect x="0.499687" y="0.499691" width="49.5965" height="49.0017" transform="matrix(1 -0.000617863 -0.000625209 1 372.153 633.493)" fill="#9CD246" stroke="black"/>
<rect x="0.499687" y="0.499691" width="49.5965" height="49.0017" transform="matrix(1 -0.000617863 -0.000625209 1 673.708 633.307)" fill="#BBF65D" stroke="black"/>
<rect x="0.499687" y="0.499691" width="49.5965" height="49.0017" transform="matrix(1 -0.000617863 -0.000625209 1 724.305 633.276)" fill="#BBF65D" stroke="black"/>
<rect x="0.499687" y="0.499691" width="49.5965" height="49.0017" transform="matrix(1 -0.000617863 -0.000625209 1 573.02 633.369)" fill="#BBF65D" stroke="black"/>
<rect x="0.499687" y="0.499691" width="49.5965" height="49.0017" transform="matrix(1 -0.000617863 -0.000625209 1 1025.86 633.089)" fill="#BBF65D" stroke="black"/>
<rect x="0.499687" y="0.499691" width="49.5965" height="49.0017" transform="matrix(1 -0.000617863 -0.000625209 1 823.978 633.215)" fill="#BBF65D" stroke="black"/>
<rect x="0.499687" y="0.499691" width="49.5965" height="49.0017" transform="matrix(1 -0.000617863 -0.000625209 1 472.715 833.49)" fill="#BBF65D" stroke="black"/>
<rect x="0.499687" y="0.499691" width="49.5965" height="49.0017" transform="matrix(1 -0.000617863 -0.000625209 1 321.43 833.584)" fill="#9CD246" stroke="black"/>
<rect x="0.499687" y="0.499691" width="49.5965" height="49.0017" transform="matrix(1 -0.000617863 -0.000625209 1 522.804 833.459)" fill="#BBF65D" stroke="black"/>
<rect x="0.499687" y="0.499691" width="49.5965" height="49.0017" transform="matrix(1 -0.000617863 -0.000625209 1 724.178 833.335)" fill="#BBF65D" stroke="black"/>
<rect x="0.499687" y="0.499691" width="49.5965" height="49.0017" transform="matrix(1 -0.000617863 -0.000625209 1 572.894 833.428)" fill="#BBF65D" stroke="black"/>
<rect x="0.499687" y="0.499691" width="49.5965" height="49.0017" transform="matrix(1 -0.000617863 -0.000625209 1 623.49 833.397)" fill="#92E60D" stroke="black"/>
<rect x="0.499687" y="0.499691" width="49.5965" height="49.0017" transform="matrix(1 -0.000617863 -0.000625209 1 773.763 833.304)" fill="#BBF65D" stroke="black"/>
<rect x="0.499687" y="0.499691" width="49.5965" height="49.0017" transform="matrix(1 -0.000617863 -0.000625209 1 1025.73 833.148)" fill="#9CD246" stroke="black"/>
<rect x="0.499687" y="0.499691" width="49.5965" height="49.0017" transform="matrix(1 -0.000617863 -0.000625209 1 874.449 833.242)" fill="#9CD246" stroke="black"/>
<rect x="0.499687" y="0.499691" width="49.5965" height="49.0017" transform="matrix(1 -0.000617863 -0.000625209 1 472.684 883.492)" fill="#9CD246" stroke="black"/>
<rect x="0.499687" y="0.499691" width="49.5965" height="49.0017" transform="matrix(1 -0.000617863 -0.000625209 1 321.399 883.585)" fill="#BBF65D" stroke="black"/>
<rect x="0.499687" y="0.499691" width="49.5965" height="49.0017" transform="matrix(1 -0.000617863 -0.000625209 1 623.459 883.399)" fill="#BBF65D" stroke="black"/>
<rect x="0.499687" y="0.499691" width="49.5965" height="49.0017" transform="matrix(1 -0.000617863 -0.000625209 1 924.509 883.213)" fill="#9CD246" stroke="black"/>
<rect x="0.499687" y="0.499691" width="49.5965" height="49.0017" transform="matrix(1 -0.000617863 -0.000625209 1 823.821 883.275)" fill="#92E60D" stroke="black"/>
<rect x="0.499687" y="0.499691" width="49.5965" height="49.0017" transform="matrix(1 -0.000617863 -0.000625209 1 270.867 783.613)" fill="#92E60D" stroke="black"/>
<rect x="0.499687" y="0.499691" width="49.5965" height="49.0017" transform="matrix(1 -0.000617863 -0.000625209 1 421.645 783.52)" fill="#BBF65D" stroke="black"/>
<rect x="0.499687" y="0.499691" width="49.5965" height="49.0017" transform="matrix(1 -0.000617863 -0.000625209 1 522.331 783.458)" fill="#9CD246" stroke="black"/>
<rect x="0.499687" y="0.499691" width="49.5965" height="49.0017" transform="matrix(1 -0.000617863 -0.000625209 1 673.108 783.364)" fill="#9CD246" stroke="black"/>
<rect x="0.499687" y="0.499691" width="49.5965" height="49.0017" transform="matrix(1 -0.000617863 -0.000625209 1 623.017 783.395)" fill="#BBF65D" stroke="black"/>
<rect x="0.499687" y="0.499691" width="49.5965" height="49.0017" transform="matrix(1 -0.000617863 -0.000625209 1 773.289 783.303)" fill="#BBF65D" stroke="black"/>
<rect x="0.499687" y="0.499691" width="49.5965" height="49.0017" transform="matrix(1 -0.000617863 -0.000625209 1 1025.26 783.147)" fill="#BBF65D" stroke="black"/>
<rect x="0.499687" y="0.499691" width="49.5965" height="49.0017" transform="matrix(1 -0.000617863 -0.000625209 1 974.664 783.178)" fill="#9CD246" stroke="black"/>
<rect x="0.499687" y="0.499691" width="49.5965" height="49.0017" transform="matrix(1 -0.000617863 -0.000625209 1 873.975 783.24)" fill="#BBF65D" stroke="black"/>
<rect x="0.499687" y="0.499691" width="49.5965" height="49.0017" transform="matrix(1 -0.000617863 -0.000625209 1 421.013 983.526)" fill="#BBF65D" stroke="black"/>
<rect x="0.499687" y="0.499691" width="49.5965" height="49.0017" transform="matrix(1 -0.000617863 -0.000625209 1 923.435 983.217)" fill="#BBF65D" stroke="black"/>
<rect x="0.499687" y="0.499691" width="49.5965" height="49.0017" transform="matrix(1 -0.000617863 -0.000625209 1 320.293 1033.59)" fill="#BBF65D" stroke="black"/>
<rect x="0.499687" y="0.499691" width="49.5965" height="49.0017" transform="matrix(1 -0.000617863 -0.000625209 1 672.003 933.37)" fill="#9CD246" stroke="black"/>
<rect x="0.499687" y="0.499691" width="49.5965" height="49.0017" transform="matrix(1 -0.000617863 -0.000625209 1 822.273 933.278)" fill="#9CD246" stroke="black"/>
<rect x="0.499687" y="0.499691" width="32.9844" height="32.7636" transform="matrix(1 -0.000617863 -0.000625209 1 1167.02 420.021)" fill="#BBF65D" stroke="black"/>
<rect x="0.499687" y="0.499691" width="24.3151" height="24.0175" transform="matrix(1 -0.000617863 -0.000625209 1 1312.02 633.016)" fill="#9CD246" stroke="black"/>
<rect x="0.499687" y="0.499691" width="30.3711" height="30.0023" transform="matrix(1 -0.000617863 -0.000625209 1 1223.02 852.02)" fill="#B7EF5D" stroke="black"/>
<rect x="0.499687" y="0.499691" width="24.3151" height="24.0175" transform="matrix(1 -0.000617863 -0.000625209 1 1287.02 208.016)" fill="#9CD246" stroke="black"/>
<rect x="0.499687" y="0.499691" width="24.3151" height="24.0175" transform="matrix(1 -0.000617863 -0.000625209 1 1142.02 1071.02)" fill="#9CD246" stroke="black"/>
<rect x="0.499687" y="0.499691" width="34.4181" height="34.0017" transform="matrix(1 -0.000617863 -0.000625209 1 213.016 1136.02)" fill="#ABE54F" stroke="black"/>
<rect x="0.499687" y="0.499691" width="24.3151" height="24.0175" transform="matrix(1 -0.000617863 -0.000625209 1 597.016 1058.02)" fill="#9CD246" stroke="black"/>
<rect x="0.499687" y="0.499691" width="24.3151" height="24.0175" transform="matrix(1 -0.000617863 -0.000625209 1 143.016 283.016)" fill="#BBF65D" stroke="black"/>
<rect x="0.499687" y="0.499691" width="34.4162" height="33.9998" transform="matrix(1 -0.000617863 -0.000625209 1 0.0159985 437.016)" fill="#9CD246" stroke="black"/>
<rect x="0.499687" y="0.499691" width="36.0746" height="35.6387" transform="matrix(1 -0.000617863 -0.000625209 1 143.143 684.398)" fill="#ABE54F" stroke="black"/>
<rect x="0.499687" y="0.499691" width="24.3151" height="24.0175" transform="matrix(1 -0.000617863 -0.000625209 1 25.016 885.016)" fill="#9CD246" stroke="black"/>
<path d="M976.636 59.3182V51.9545H1018.64V59.3182H976.636ZM976.636 79.5V72.1364H1018.64V79.5H976.636Z" fill="white"/>
<path d="M976.636 79.3182V71.9545H1018.64V79.3182H976.636ZM976.636 99.5V92.1364H1018.64V99.5H976.636Z" fill="white"/>
</svg>
