<svg width="1306" height="1096" viewBox="0 0 1306 1096" fill="none" xmlns="http://www.w3.org/2000/svg">
<path d="M82.0977 20.3566C82.9863 9.34671 92.6559 0.725913 103.695 1.10156L1286.01 41.3341C1297.05 41.7097 1305.28 50.9395 1304.39 61.9494L1235.92 910.281L13.6256 868.688L82.0977 20.3566Z" fill="#272727"/>
<path d="M83.2386 19.9352C84.1272 8.92528 93.7967 0.304526 104.836 0.680177L1285.21 40.8465C1296.25 41.2222 1304.48 50.452 1303.59 61.4619L1295.81 157.767L75.4654 116.24L83.2386 19.9352Z" fill="black"/>
<path d="M83.2386 19.9352C84.1272 8.92528 93.7967 0.304526 104.836 0.680177L1285.21 40.8465C1296.25 41.2222 1304.48 50.452 1303.59 61.4619L1295.81 157.767L75.4654 116.24L83.2386 19.9352Z" fill="black"/>
<rect x="0.459485" y="0.515384" width="75.9446" height="49.0939" transform="matrix(0.999422 0.0340089 -0.0804522 0.996758 216.314 223.561)" fill="#BBF65D" stroke="black"/>
<rect x="0.459485" y="0.515384" width="75.9446" height="49.0939" transform="matrix(0.999422 0.0340089 -0.0804522 0.996758 521.605 233.949)" fill="#BBF65D" stroke="black"/>
<rect x="0.459485" y="0.515384" width="75.9446" height="49.0939" transform="matrix(0.999422 0.0340089 -0.0804522 0.996758 598.505 236.566)" fill="#92E60D" stroke="black"/>
<rect x="0.459485" y="0.515384" width="75.9446" height="49.0939" transform="matrix(0.999422 0.0340089 -0.0804522 0.996758 1132.96 254.753)" fill="#BBF65D" stroke="black"/>
<rect x="0.459485" y="0.515384" width="75.9446" height="49.0939" transform="matrix(0.999422 0.0340089 -0.0804522 0.996758 903.029 246.928)" fill="#BBF65D" stroke="black"/>
<rect x="0.459485" y="0.515384" width="75.9446" height="49.0939" transform="matrix(0.999422 0.0340089 -0.0804522 0.996758 365.317 278.7)" fill="#BBF65D" stroke="black"/>
<rect x="0.459485" y="0.515384" width="75.9446" height="49.0939" transform="matrix(0.999422 0.0340089 -0.0804522 0.996758 135.383 270.875)" fill="#9CD246" stroke="black"/>
<rect x="0.459485" y="0.515384" width="75.9446" height="49.0939" transform="matrix(0.999422 0.0340089 -0.0804522 0.996758 441.446 281.29)" fill="#9CD246" stroke="black"/>
<rect x="0.459485" y="0.515384" width="75.9446" height="49.0939" transform="matrix(0.999422 0.0340089 -0.0804522 0.996758 670.608 289.088)" fill="#BBF65D" stroke="black"/>
<rect x="0.459485" y="0.515384" width="75.9446" height="49.0939" transform="matrix(0.999422 0.0340089 -0.0804522 0.996758 1128.93 304.684)" fill="#9CD246" stroke="black"/>
<rect x="0.459485" y="0.515384" width="75.9446" height="49.0939" transform="matrix(0.999422 0.0340089 -0.0804522 0.996758 372.61 178.81)" fill="#9CD246" stroke="black"/>
<rect x="0.459485" y="0.515384" width="75.9446" height="49.0939" transform="matrix(0.999422 0.0340089 -0.0804522 0.996758 142.677 170.986)" fill="#92E60D" stroke="black"/>
<rect x="0.459485" y="0.515384" width="75.9446" height="49.0939" transform="matrix(0.999422 0.0340089 -0.0804522 0.996758 830.163 194.381)" fill="#9CD246" stroke="black"/>
<rect x="0.459485" y="0.515384" width="75.9446" height="49.0939" transform="matrix(0.999422 0.0340089 -0.0804522 0.996758 1213.13 207.412)" fill="#92E60D" stroke="black"/>
<rect x="0.459485" y="0.515384" width="75.9446" height="49.0939" transform="matrix(0.999422 0.0340089 -0.0804522 0.996758 983.192 199.588)" fill="#BBF65D" stroke="black"/>
<rect x="0.459485" y="0.515384" width="75.9446" height="49.0939" transform="matrix(0.999422 0.0340089 -0.0804522 0.996758 51.961 368.174)" fill="#92E60D" stroke="black"/>
<rect x="0.459485" y="0.515384" width="75.9446" height="49.0939" transform="matrix(0.999422 0.0340089 -0.0804522 0.996758 281.123 375.972)" fill="#9CD246" stroke="black"/>
<rect x="0.459485" y="0.515384" width="75.9446" height="49.0939" transform="matrix(0.999422 0.0340089 -0.0804522 0.996758 358.023 378.589)" fill="#BBF65D" stroke="black"/>
<rect x="0.459485" y="0.515384" width="75.9446" height="49.0939" transform="matrix(0.999422 0.0340089 -0.0804522 0.996758 204.99 373.381)" fill="#BBF65D" stroke="black"/>
<rect x="0.459485" y="0.515384" width="75.9446" height="49.0939" transform="matrix(0.999422 0.0340089 -0.0804522 0.996758 434.153 381.179)" fill="#BBF65D" stroke="black"/>
<rect x="0.459485" y="0.515384" width="75.9446" height="49.0939" transform="matrix(0.999422 0.0340089 -0.0804522 0.996758 663.315 388.977)" fill="#BBF65D" stroke="black"/>
<rect x="0.459485" y="0.515384" width="75.9446" height="49.0939" transform="matrix(0.999422 0.0340089 -0.0804522 0.996758 587.182 386.386)" fill="#BBF65D" stroke="black"/>
<rect x="0.459485" y="0.515384" width="75.9446" height="49.0939" transform="matrix(0.999422 0.0340089 -0.0804522 0.996758 1044.74 401.957)" fill="#9CD246" stroke="black"/>
<rect x="0.459485" y="0.515384" width="75.9446" height="49.0939" transform="matrix(0.999422 0.0340089 -0.0804522 0.996758 1198.54 407.19)" fill="#BBF65D" stroke="black"/>
<rect x="0.459485" y="0.515384" width="75.9446" height="49.0939" transform="matrix(0.999422 0.0340089 -0.0804522 0.996758 891.706 396.749)" fill="#BBF65D" stroke="black"/>
<rect x="0.459485" y="0.515384" width="75.9446" height="49.0939" transform="matrix(0.999422 0.0340089 -0.0804522 0.996758 968.606 399.366)" fill="#BBF65D" stroke="black"/>
<rect x="0.459485" y="0.515384" width="75.9446" height="49.0939" transform="matrix(0.999422 0.0340089 -0.0804522 0.996758 47.9308 418.105)" fill="#9CD246" stroke="black"/>
<rect x="0.459485" y="0.515384" width="75.9446" height="49.0939" transform="matrix(0.999422 0.0340089 -0.0804522 0.996758 277.093 425.903)" fill="#BBF65D" stroke="black"/>
<rect x="0.459485" y="0.515384" width="75.9446" height="49.0939" transform="matrix(0.999422 0.0340089 -0.0804522 0.996758 124.06 420.696)" fill="#BBF65D" stroke="black"/>
<rect x="0.459485" y="0.515384" width="75.9446" height="49.0939" transform="matrix(0.999422 0.0340089 -0.0804522 0.996758 430.122 431.111)" fill="#92E60D" stroke="black"/>
<rect x="0.459485" y="0.515384" width="75.9446" height="49.0939" transform="matrix(0.999422 0.0340089 -0.0804522 0.996758 659.284 438.909)" fill="#BBF65D" stroke="black"/>
<rect x="0.459485" y="0.515384" width="75.9446" height="49.0939" transform="matrix(0.999422 0.0340089 -0.0804522 0.996758 736.185 441.526)" fill="#BBF65D" stroke="black"/>
<rect x="0.459485" y="0.515384" width="75.9446" height="49.0939" transform="matrix(0.999422 0.0340089 -0.0804522 0.996758 506.251 433.701)" fill="#9CD246" stroke="black"/>
<rect x="0.459485" y="0.515384" width="75.9446" height="49.0939" transform="matrix(0.999422 0.0340089 -0.0804522 0.996758 1040.71 451.888)" fill="#BBF65D" stroke="black"/>
<rect x="0.459485" y="0.515384" width="75.9446" height="49.0939" transform="matrix(0.999422 0.0340089 -0.0804522 0.996758 887.676 446.68)" fill="#9CD246" stroke="black"/>
<rect x="0.459485" y="0.515384" width="75.9446" height="49.0939" transform="matrix(0.999422 0.0340089 -0.0804522 0.996758 361.286 328.631)" fill="#BBF65D" stroke="black"/>
<rect x="0.459485" y="0.515384" width="75.9446" height="49.0939" transform="matrix(0.999422 0.0340089 -0.0804522 0.996758 208.253 323.424)" fill="#BBF65D" stroke="black"/>
<rect x="0.459485" y="0.515384" width="75.9446" height="49.0939" transform="matrix(0.999422 0.0340089 -0.0804522 0.996758 666.578 339.02)" fill="#9CD246" stroke="black"/>
<rect x="0.459485" y="0.515384" width="75.9446" height="49.0939" transform="matrix(0.999422 0.0340089 -0.0804522 0.996758 743.478 341.636)" fill="#BBF65D" stroke="black"/>
<rect x="0.459485" y="0.515384" width="75.9446" height="49.0939" transform="matrix(0.999422 0.0340089 -0.0804522 0.996758 513.545 333.812)" fill="#BBF65D" stroke="black"/>
<rect x="0.459485" y="0.515384" width="75.9446" height="49.0939" transform="matrix(0.999422 0.0340089 -0.0804522 0.996758 1048 351.999)" fill="#BBF65D" stroke="black"/>
<rect x="0.459485" y="0.515384" width="75.9446" height="49.0939" transform="matrix(0.999422 0.0340089 -0.0804522 0.996758 1201.8 357.233)" fill="#9CD246" stroke="black"/>
<rect x="0.459485" y="0.515384" width="75.9446" height="49.0939" transform="matrix(0.999422 0.0340089 -0.0804522 0.996758 1124.9 354.616)" fill="#92E60D" stroke="black"/>
<rect x="0.459485" y="0.515384" width="75.9446" height="49.0939" transform="matrix(0.999422 0.0340089 -0.0804522 0.996758 894.969 346.792)" fill="#BBF65D" stroke="black"/>
<rect x="0.459485" y="0.515384" width="75.9446" height="49.0939" transform="matrix(0.999422 0.0340089 -0.0804522 0.996758 270.571 525.819)" fill="#92E60D" stroke="black"/>
<rect x="0.459485" y="0.515384" width="75.9446" height="49.0939" transform="matrix(0.999422 0.0340089 -0.0804522 0.996758 347.471 528.435)" fill="#9CD246" stroke="black"/>
<rect x="0.459485" y="0.515384" width="75.9446" height="49.0939" transform="matrix(0.999422 0.0340089 -0.0804522 0.996758 117.538 520.611)" fill="#BBF65D" stroke="black"/>
<rect x="0.459485" y="0.515384" width="75.9446" height="49.0939" transform="matrix(0.999422 0.0340089 -0.0804522 0.996758 423.6 531.026)" fill="#BBF65D" stroke="black"/>
<rect x="0.459485" y="0.515384" width="75.9446" height="49.0939" transform="matrix(0.999422 0.0340089 -0.0804522 0.996758 729.662 541.441)" fill="#BBF65D" stroke="black"/>
<rect x="0.459485" y="0.515384" width="75.9446" height="49.0939" transform="matrix(0.999422 0.0340089 -0.0804522 0.996758 499.729 533.616)" fill="#BBF65D" stroke="black"/>
<rect x="0.459485" y="0.515384" width="75.9446" height="49.0939" transform="matrix(0.999422 0.0340089 -0.0804522 0.996758 576.629 536.233)" fill="#9CD246" stroke="black"/>
<rect x="0.459485" y="0.515384" width="75.9446" height="49.0939" transform="matrix(0.999422 0.0340089 -0.0804522 0.996758 805.024 544.006)" fill="#BBF65D" stroke="black"/>
<rect x="0.459485" y="0.515384" width="75.9446" height="49.0939" transform="matrix(0.999422 0.0340089 -0.0804522 0.996758 1034.19 551.803)" fill="#BBF65D" stroke="black"/>
<rect x="0.459485" y="0.515384" width="75.9446" height="49.0939" transform="matrix(0.999422 0.0340089 -0.0804522 0.996758 1111.09 554.42)" fill="#BBF65D" stroke="black"/>
<rect x="0.459485" y="0.515384" width="75.9446" height="49.0939" transform="matrix(0.999422 0.0340089 -0.0804522 0.996758 881.154 546.596)" fill="#BBF65D" stroke="black"/>
<rect x="0.459485" y="0.515384" width="75.9446" height="49.0939" transform="matrix(0.999422 0.0340089 -0.0804522 0.996758 958.054 549.213)" fill="#9CD246" stroke="black"/>
<rect x="0.459485" y="0.515384" width="75.9446" height="49.0939" transform="matrix(0.999422 0.0340089 -0.0804522 0.996758 37.3783 567.952)" fill="#9CD246" stroke="black"/>
<rect x="0.459485" y="0.515384" width="75.9446" height="49.0939" transform="matrix(0.999422 0.0340089 -0.0804522 0.996758 266.541 575.75)" fill="#BBF65D" stroke="black"/>
<rect x="0.459485" y="0.515384" width="75.9446" height="49.0939" transform="matrix(0.999422 0.0340089 -0.0804522 0.996758 113.507 570.543)" fill="#BBF65D" stroke="black"/>
<rect x="0.459485" y="0.515384" width="75.9446" height="49.0939" transform="matrix(0.999422 0.0340089 -0.0804522 0.996758 190.407 573.159)" fill="#BBF65D" stroke="black"/>
<rect x="0.459485" y="0.515384" width="75.9446" height="49.0939" transform="matrix(0.999422 0.0340089 -0.0804522 0.996758 648.732 588.756)" fill="#92E60D" stroke="black"/>
<rect x="0.459485" y="0.515384" width="75.9446" height="49.0939" transform="matrix(0.999422 0.0340089 -0.0804522 0.996758 725.632 591.372)" fill="#9CD246" stroke="black"/>
<rect x="0.459485" y="0.515384" width="75.9446" height="49.0939" transform="matrix(0.999422 0.0340089 -0.0804522 0.996758 495.699 583.548)" fill="#BBF65D" stroke="black"/>
<rect x="0.459485" y="0.515384" width="75.9446" height="49.0939" transform="matrix(0.999422 0.0340089 -0.0804522 0.996758 572.599 586.165)" fill="#BBF65D" stroke="black"/>
<rect x="0.459485" y="0.515384" width="75.9446" height="49.0939" transform="matrix(0.999422 0.0340089 -0.0804522 0.996758 1030.16 601.735)" fill="#9CD246" stroke="black"/>
<rect x="0.459485" y="0.515384" width="75.9446" height="49.0939" transform="matrix(0.999422 0.0340089 -0.0804522 0.996758 1183.96 606.968)" fill="#BBF65D" stroke="black"/>
<rect x="0.459485" y="0.515384" width="75.9446" height="49.0939" transform="matrix(0.999422 0.0340089 -0.0804522 0.996758 877.123 596.527)" fill="#BBF65D" stroke="black"/>
<rect x="0.459485" y="0.515384" width="75.9446" height="49.0939" transform="matrix(0.999422 0.0340089 -0.0804522 0.996758 44.6717 468.063)" fill="#BBF65D" stroke="black"/>
<rect x="0.459485" y="0.515384" width="75.9446" height="49.0939" transform="matrix(0.999422 0.0340089 -0.0804522 0.996758 273.834 475.861)" fill="#BBF65D" stroke="black"/>
<rect x="0.459485" y="0.515384" width="75.9446" height="49.0939" transform="matrix(0.999422 0.0340089 -0.0804522 0.996758 350.734 478.478)" fill="#BBF65D" stroke="black"/>
<rect x="0.459485" y="0.515384" width="75.9446" height="49.0939" transform="matrix(0.999422 0.0340089 -0.0804522 0.996758 197.701 473.27)" fill="#9CD246" stroke="black"/>
<rect x="0.459485" y="0.515384" width="75.9446" height="49.0939" transform="matrix(0.999422 0.0340089 -0.0804522 0.996758 656.025 488.866)" fill="#BBF65D" stroke="black"/>
<rect x="0.459485" y="0.515384" width="75.9446" height="49.0939" transform="matrix(0.999422 0.0340089 -0.0804522 0.996758 579.892 486.276)" fill="#BBF65D" stroke="black"/>
<rect x="0.459485" y="0.515384" width="75.9446" height="49.0939" transform="matrix(0.999422 0.0340089 -0.0804522 0.996758 808.287 494.048)" fill="#92E60D" stroke="black"/>
<rect x="0.459485" y="0.515384" width="75.9446" height="49.0939" transform="matrix(0.999422 0.0340089 -0.0804522 0.996758 1037.45 501.846)" fill="#BBF65D" stroke="black"/>
<rect x="0.459485" y="0.515384" width="75.9446" height="49.0939" transform="matrix(0.999422 0.0340089 -0.0804522 0.996758 1191.25 507.079)" fill="#BBF65D" stroke="black"/>
<rect x="0.459485" y="0.515384" width="75.9446" height="49.0939" transform="matrix(0.999422 0.0340089 -0.0804522 0.996758 1114.35 504.463)" fill="#9CD246" stroke="black"/>
<rect x="0.459485" y="0.515384" width="75.9446" height="49.0939" transform="matrix(0.999422 0.0340089 -0.0804522 0.996758 961.317 499.255)" fill="#BBF65D" stroke="black"/>
<rect x="0.459485" y="0.515384" width="75.9446" height="49.0939" transform="matrix(0.999422 0.0340089 -0.0804522 0.996758 30.5639 667.876)" fill="#BBF65D" stroke="black"/>
<rect x="0.459485" y="0.515384" width="75.9446" height="49.0939" transform="matrix(0.999422 0.0340089 -0.0804522 0.996758 336.626 678.29)" fill="#BBF65D" stroke="black"/>
<rect x="0.459485" y="0.515384" width="75.9446" height="49.0939" transform="matrix(0.999422 0.0340089 -0.0804522 0.996758 106.693 670.466)" fill="#92E60D" stroke="black"/>
<rect x="0.459485" y="0.515384" width="75.9446" height="49.0939" transform="matrix(0.999422 0.0340089 -0.0804522 0.996758 183.593 673.083)" fill="#BBF65D" stroke="black"/>
<rect x="0.459485" y="0.515384" width="75.9446" height="49.0939" transform="matrix(0.999422 0.0340089 -0.0804522 0.996758 718.818 691.296)" fill="#BBF65D" stroke="black"/>
<rect x="0.459485" y="0.515384" width="75.9446" height="49.0939" transform="matrix(0.999422 0.0340089 -0.0804522 0.996758 488.885 683.471)" fill="#9CD246" stroke="black"/>
<rect x="0.459485" y="0.515384" width="75.9446" height="49.0939" transform="matrix(0.999422 0.0340089 -0.0804522 0.996758 565.785 686.089)" fill="#BBF65D" stroke="black"/>
<rect x="0.459485" y="0.515384" width="75.9446" height="49.0939" transform="matrix(0.999422 0.0340089 -0.0804522 0.996758 794.18 693.86)" fill="#9CD246" stroke="black"/>
<rect x="0.459485" y="0.515384" width="75.9446" height="49.0939" transform="matrix(0.999422 0.0340089 -0.0804522 0.996758 1023.34 701.658)" fill="#BBF65D" stroke="black"/>
<rect x="0.459485" y="0.515384" width="75.9446" height="49.0939" transform="matrix(0.999422 0.0340089 -0.0804522 0.996758 1100.24 704.275)" fill="#BBF65D" stroke="black"/>
<rect x="0.459485" y="0.515384" width="75.9446" height="49.0939" transform="matrix(0.999422 0.0340089 -0.0804522 0.996758 870.309 696.451)" fill="#BBF65D" stroke="black"/>
<rect x="0.459485" y="0.515384" width="75.9446" height="49.0939" transform="matrix(0.999422 0.0340089 -0.0804522 0.996758 947.209 699.068)" fill="#BBF65D" stroke="black"/>
<rect x="0.459485" y="0.515384" width="75.9446" height="49.0939" transform="matrix(0.999422 0.0340089 -0.0804522 0.996758 255.696 725.605)" fill="#BBF65D" stroke="black"/>
<rect x="0.459485" y="0.515384" width="75.9446" height="49.0939" transform="matrix(0.999422 0.0340089 -0.0804522 0.996758 102.663 720.397)" fill="#9CD246" stroke="black"/>
<rect x="0.459485" y="0.515384" width="75.9446" height="49.0939" transform="matrix(0.999422 0.0340089 -0.0804522 0.996758 179.563 723.014)" fill="#BBF65D" stroke="black"/>
<rect x="0.459485" y="0.515384" width="75.9446" height="49.0939" transform="matrix(0.999422 0.0340089 -0.0804522 0.996758 408.725 730.812)" fill="#BBF65D" stroke="black"/>
<rect x="0.459485" y="0.515384" width="75.9446" height="49.0939" transform="matrix(0.999422 0.0340089 -0.0804522 0.996758 637.887 738.611)" fill="#BBF65D" stroke="black"/>
<rect x="0.459485" y="0.515384" width="75.9446" height="49.0939" transform="matrix(0.999422 0.0340089 -0.0804522 0.996758 484.854 733.403)" fill="#BBF65D" stroke="black"/>
<rect x="0.459485" y="0.515384" width="75.9446" height="49.0939" transform="matrix(0.999422 0.0340089 -0.0804522 0.996758 561.754 736.02)" fill="#BBF65D" stroke="black"/>
<rect x="0.459485" y="0.515384" width="75.9446" height="49.0939" transform="matrix(0.999422 0.0340089 -0.0804522 0.996758 790.15 743.792)" fill="#BBF65D" stroke="black"/>
<rect x="0.459485" y="0.515384" width="75.9446" height="49.0939" transform="matrix(0.999422 0.0340089 -0.0804522 0.996758 1019.31 751.59)" fill="#BBF65D" stroke="black"/>
<rect x="0.459485" y="0.515384" width="75.9446" height="49.0939" transform="matrix(0.999422 0.0340089 -0.0804522 0.996758 1096.21 754.207)" fill="#BBF65D" stroke="black"/>
<rect x="0.459485" y="0.515384" width="75.9446" height="49.0939" transform="matrix(0.999422 0.0340089 -0.0804522 0.996758 866.279 746.382)" fill="#9CD246" stroke="black"/>
<rect x="0.459485" y="0.515384" width="75.9446" height="49.0939" transform="matrix(0.999422 0.0340089 -0.0804522 0.996758 33.8271 617.918)" fill="#BBF65D" stroke="black"/>
<rect x="0.459485" y="0.515384" width="75.9446" height="49.0939" transform="matrix(0.999422 0.0340089 -0.0804522 0.996758 262.989 625.716)" fill="#BBF65D" stroke="black"/>
<rect x="0.459485" y="0.515384" width="75.9446" height="49.0939" transform="matrix(0.999422 0.0340089 -0.0804522 0.996758 339.889 628.333)" fill="#BBF65D" stroke="black"/>
<rect x="0.459485" y="0.515384" width="75.9446" height="49.0939" transform="matrix(0.999422 0.0340089 -0.0804522 0.996758 186.856 623.125)" fill="#9CD246" stroke="black"/>
<rect x="0.459485" y="0.515384" width="75.9446" height="49.0939" transform="matrix(0.999422 0.0340089 -0.0804522 0.996758 645.181 638.721)" fill="#BBF65D" stroke="black"/>
<rect x="0.459485" y="0.515384" width="75.9446" height="49.0939" transform="matrix(0.999422 0.0340089 -0.0804522 0.996758 722.081 641.338)" fill="#BBF65D" stroke="black"/>
<rect x="0.459485" y="0.515384" width="75.9446" height="49.0939" transform="matrix(0.999422 0.0340089 -0.0804522 0.996758 492.148 633.514)" fill="#BBF65D" stroke="black"/>
<rect x="0.459485" y="0.515384" width="75.9446" height="49.0939" transform="matrix(0.999422 0.0340089 -0.0804522 0.996758 1180.41 656.934)" fill="#BBF65D" stroke="black"/>
<rect x="0.459485" y="0.515384" width="75.9446" height="49.0939" transform="matrix(0.999422 0.0340089 -0.0804522 0.996758 873.572 646.493)" fill="#BBF65D" stroke="black"/>
<rect x="0.459485" y="0.515384" width="75.9446" height="49.0939" transform="matrix(0.999422 0.0340089 -0.0804522 0.996758 17.7003 817.696)" fill="#BBF65D" stroke="black"/>
<rect x="0.459485" y="0.515384" width="75.9446" height="49.0939" transform="matrix(0.999422 0.0340089 -0.0804522 0.996758 323.763 828.111)" fill="#BBF65D" stroke="black"/>
<rect x="0.459485" y="0.515384" width="75.9446" height="49.0939" transform="matrix(0.999422 0.0340089 -0.0804522 0.996758 93.8295 820.287)" fill="#9CD246" stroke="black"/>
<rect x="0.459485" y="0.515384" width="75.9446" height="49.0939" transform="matrix(0.999422 0.0340089 -0.0804522 0.996758 170.73 822.903)" fill="#BBF65D" stroke="black"/>
<rect x="0.459485" y="0.515384" width="75.9446" height="49.0939" transform="matrix(0.999422 0.0340089 -0.0804522 0.996758 399.892 830.701)" fill="#BBF65D" stroke="black"/>
<rect x="0.459485" y="0.515384" width="75.9446" height="49.0939" transform="matrix(0.999422 0.0340089 -0.0804522 0.996758 705.954 841.116)" fill="#BBF65D" stroke="black"/>
<rect x="0.459485" y="0.515384" width="75.9446" height="49.0939" transform="matrix(0.999422 0.0340089 -0.0804522 0.996758 476.021 833.292)" fill="#BBF65D" stroke="black"/>
<rect x="0.459485" y="0.515384" width="75.9446" height="49.0939" transform="matrix(0.999422 0.0340089 -0.0804522 0.996758 552.921 835.909)" fill="#92E60D" stroke="black"/>
<rect x="0.459485" y="0.515384" width="75.9446" height="49.0939" transform="matrix(0.999422 0.0340089 -0.0804522 0.996758 781.316 843.681)" fill="#BBF65D" stroke="black"/>
<rect x="0.459485" y="0.515384" width="75.9446" height="49.0939" transform="matrix(0.999422 0.0340089 -0.0804522 0.996758 1010.48 851.479)" fill="#BBF65D" stroke="black"/>
<rect x="0.459485" y="0.515384" width="75.9446" height="49.0939" transform="matrix(0.999422 0.0340089 -0.0804522 0.996758 1164.28 856.713)" fill="#9CD246" stroke="black"/>
<rect x="0.459485" y="0.515384" width="75.9446" height="49.0939" transform="matrix(0.999422 0.0340089 -0.0804522 0.996758 1087.38 854.095)" fill="#BBF65D" stroke="black"/>
<rect x="0.459485" y="0.515384" width="75.9446" height="49.0939" transform="matrix(0.999422 0.0340089 -0.0804522 0.996758 934.346 848.888)" fill="#9CD246" stroke="black"/>
<rect x="0.459485" y="0.515384" width="75.9446" height="49.0939" transform="matrix(0.999422 0.0340089 -0.0804522 0.996758 242.832 875.425)" fill="#BBF65D" stroke="black"/>
<rect x="0.459485" y="0.515384" width="75.9446" height="49.0939" transform="matrix(0.999422 0.0340089 -0.0804522 0.996758 319.732 878.042)" fill="#9CD246" stroke="black"/>
<rect x="0.459485" y="0.515384" width="75.9446" height="49.0939" transform="matrix(0.999422 0.0340089 -0.0804522 0.996758 89.7993 870.218)" fill="#BBF65D" stroke="black"/>
<rect x="0.459485" y="0.515384" width="75.9446" height="49.0939" transform="matrix(0.999422 0.0340089 -0.0804522 0.996758 548.891 885.841)" fill="#BBF65D" stroke="black"/>
<rect x="0.459485" y="0.515384" width="75.9446" height="49.0939" transform="matrix(0.999422 0.0340089 -0.0804522 0.996758 1006.45 901.41)" fill="#9CD246" stroke="black"/>
<rect x="0.459485" y="0.515384" width="75.9446" height="49.0939" transform="matrix(0.999422 0.0340089 -0.0804522 0.996758 1160.25 906.644)" fill="#BBF65D" stroke="black"/>
<rect x="0.459485" y="0.515384" width="75.9446" height="49.0939" transform="matrix(0.999422 0.0340089 -0.0804522 0.996758 853.415 896.203)" fill="#92E60D" stroke="black"/>
<rect x="0.459485" y="0.515384" width="75.9446" height="49.0939" transform="matrix(0.999422 0.0340089 -0.0804522 0.996758 20.9635 767.738)" fill="#92E60D" stroke="black"/>
<rect x="0.459485" y="0.515384" width="75.9446" height="49.0939" transform="matrix(0.999422 0.0340089 -0.0804522 0.996758 250.126 775.536)" fill="#BBF65D" stroke="black"/>
<rect x="0.459485" y="0.515384" width="75.9446" height="49.0939" transform="matrix(0.999422 0.0340089 -0.0804522 0.996758 403.155 780.744)" fill="#9CD246" stroke="black"/>
<rect x="0.459485" y="0.515384" width="75.9446" height="49.0939" transform="matrix(0.999422 0.0340089 -0.0804522 0.996758 632.317 788.542)" fill="#9CD246" stroke="black"/>
<rect x="0.459485" y="0.515384" width="75.9446" height="49.0939" transform="matrix(0.999422 0.0340089 -0.0804522 0.996758 556.184 785.951)" fill="#BBF65D" stroke="black"/>
<rect x="0.459485" y="0.515384" width="75.9446" height="49.0939" transform="matrix(0.999422 0.0340089 -0.0804522 0.996758 784.579 793.723)" fill="#BBF65D" stroke="black"/>
<rect x="0.459485" y="0.515384" width="75.9446" height="49.0939" transform="matrix(0.999422 0.0340089 -0.0804522 0.996758 1167.54 806.755)" fill="#BBF65D" stroke="black"/>
<rect x="0.459485" y="0.515384" width="75.9446" height="49.0939" transform="matrix(0.999422 0.0340089 -0.0804522 0.996758 1090.64 804.138)" fill="#9CD246" stroke="black"/>
<rect x="0.459485" y="0.515384" width="75.9446" height="49.0939" transform="matrix(0.999422 0.0340089 -0.0804522 0.996758 937.609 798.93)" fill="#BBF65D" stroke="black"/>
<rect x="0.459485" y="0.515384" width="75.9446" height="49.0939" transform="matrix(0.999422 0.0340089 -0.0804522 0.996758 4.0719 967.438)" fill="#9CD246" stroke="black"/>
<rect x="0.459485" y="0.515384" width="75.9446" height="49.0939" transform="matrix(0.999422 0.0340089 -0.0804522 0.996758 233.234 975.236)" fill="#BBF65D" stroke="black"/>
<rect x="0.459485" y="0.515384" width="75.9446" height="49.0939" transform="matrix(0.999422 0.0340089 -0.0804522 0.996758 386.263 980.444)" fill="#BBF65D" stroke="black"/>
<rect x="0.459485" y="0.515384" width="75.9446" height="49.0939" transform="matrix(0.999422 0.0340089 -0.0804522 0.996758 615.426 988.241)" fill="#92E60D" stroke="black"/>
<rect x="0.459485" y="0.515384" width="75.9446" height="49.0939" transform="matrix(0.999422 0.0340089 -0.0804522 0.996758 692.326 990.858)" fill="#BBF65D" stroke="black"/>
<rect x="0.459485" y="0.515384" width="75.9446" height="49.0939" transform="matrix(0.999422 0.0340089 -0.0804522 0.996758 539.293 985.651)" fill="#BBF65D" stroke="black"/>
<rect x="0.459485" y="0.515384" width="75.9446" height="49.0939" transform="matrix(0.999422 0.0340089 -0.0804522 0.996758 996.85 1001.22)" fill="#BBF65D" stroke="black"/>
<rect x="0.459485" y="0.515384" width="75.9446" height="49.0939" transform="matrix(0.999422 0.0340089 -0.0804522 0.996758 1073.75 1003.84)" fill="#9CD246" stroke="black"/>
<rect x="0.459485" y="0.515384" width="75.9446" height="49.0939" transform="matrix(0.999422 0.0340089 -0.0804522 0.996758 843.817 996.013)" fill="#BBF65D" stroke="black"/>
<rect x="0.459485" y="0.515384" width="75.9446" height="49.0939" transform="matrix(0.999422 0.0340089 -0.0804522 0.996758 76.1708 1019.96)" fill="#BBF65D" stroke="black"/>
<rect x="0.459485" y="0.515384" width="75.9446" height="49.0939" transform="matrix(0.999422 0.0340089 -0.0804522 0.996758 763.658 1043.35)" fill="#9CD246" stroke="black"/>
<rect x="0.459485" y="0.515384" width="75.9446" height="49.0939" transform="matrix(0.999422 0.0340089 -0.0804522 0.996758 236.497 925.279)" fill="#92E60D" stroke="black"/>
<rect x="0.459485" y="0.515384" width="75.9446" height="49.0939" transform="matrix(0.999422 0.0340089 -0.0804522 0.996758 618.689 938.284)" fill="#9CD246" stroke="black"/>
<rect x="0.459485" y="0.515384" width="75.9446" height="49.0939" transform="matrix(0.999422 0.0340089 -0.0804522 0.996758 465.656 933.076)" fill="#BBF65D" stroke="black"/>
<rect x="0.459485" y="0.515384" width="75.9446" height="49.0939" transform="matrix(0.999422 0.0340089 -0.0804522 0.996758 770.951 943.466)" fill="#BBF65D" stroke="black"/>
<rect x="0.459485" y="0.515384" width="75.9446" height="49.0939" transform="matrix(0.999422 0.0340089 -0.0804522 0.996758 847.08 946.056)" fill="#9CD246" stroke="black"/>
<rect x="0.459485" y="0.515384" width="75.9446" height="49.0939" transform="matrix(0.999422 0.0340089 -0.0804522 0.996758 923.98 948.673)" fill="#BBF65D" stroke="black"/>
</svg>
