<svg xmlns="http://www.w3.org/2000/svg" xmlns:xlink="http://www.w3.org/1999/xlink" width="343" zoomAndPan="magnify" viewBox="0 0 257.25 212.249992" height="283" preserveAspectRatio="xMidYMid meet" version="1.0"><defs><g/><clipPath id="ed066f05df"><path d="M 0.078125 0 L 256.421875 0 L 256.421875 200 L 0.078125 200 Z M 0.078125 0 " clip-rule="nonzero"/></clipPath><clipPath id="f9cc295433"><path d="M 0.078125 88 L 251 88 L 251 189 L 0.078125 189 Z M 0.078125 88 " clip-rule="nonzero"/></clipPath></defs><path fill="#5f7dfe" d="M 109.058594 53.085938 C 44.160156 90.574219 0.117188 135.757812 10.640625 154.015625 C 21.160156 172.273438 82.34375 156.6875 147.234375 119.203125 C 212.125 81.714844 256.210938 36.554688 245.664062 18.277344 C 235.113281 0 173.960938 15.609375 109.058594 53.085938 Z M 146.820312 118.472656 C 89.855469 151.375 35.335938 163.578125 25 145.722656 C 14.660156 127.863281 52.511719 86.703125 109.480469 53.816406 C 166.445312 20.925781 220.988281 8.714844 231.304688 26.558594 C 241.617188 44.402344 203.792969 85.574219 146.820312 118.472656 Z M 146.820312 118.472656 " fill-opacity="1" fill-rule="nonzero"/><path fill="#5f7dfe" d="M 147.503906 80.59375 C 86.105469 35.378906 25.984375 12.726562 13.285156 30.003906 C 0.585938 47.28125 40.019531 97.949219 101.441406 143.164062 C 162.863281 188.378906 222.960938 211.03125 235.65625 193.75 C 248.355469 176.46875 208.917969 125.808594 147.503906 80.59375 Z M 101.96875 142.46875 C 48.035156 102.777344 14.394531 56.90625 26.855469 40.007812 C 39.316406 23.113281 93.082031 41.589844 146.992188 81.292969 C 200.902344 120.996094 234.53125 166.84375 222.089844 183.738281 C 209.648438 200.636719 155.859375 182.160156 101.96875 142.46875 Z M 101.96875 142.46875 " fill-opacity="1" fill-rule="nonzero"/><path fill="#5f7dfe" d="M 88.734375 30.367188 C 88.734375 30.367188 88.308594 47.089844 103.554688 46.242188 C 103.554688 46.242188 88.945312 46.035156 88.324219 61.0625 C 88.324219 61.0625 88.125 47.09375 74.457031 46.054688 L 74.140625 46.054688 C 74.140625 46.054688 87.886719 45.597656 88.734375 30.367188 Z M 88.734375 30.367188 " fill-opacity="1" fill-rule="nonzero"/><path fill="#5f7dfe" d="M 136.664062 138.882812 C 136.664062 138.882812 136.023438 164.164062 159.066406 162.882812 C 159.066406 162.882812 136.984375 162.566406 136.023438 185.285156 C 136.023438 185.285156 135.71875 164.167969 115.082031 162.597656 L 114.605469 162.566406 C 114.605469 162.566406 135.386719 161.921875 136.664062 138.882812 Z M 136.664062 138.882812 " fill-opacity="1" fill-rule="nonzero"/><g clip-path="url(#ed066f05df)"><path stroke-linecap="butt" transform="matrix(0.996782, 0, 0, 0.996782, 36.968061, 30.944159)" fill="none" stroke-linejoin="miter" d="M 10.565938 30.297864 L 27.554196 30.297864 L 18.305686 73.424919 L 34.204501 73.424919 L 32.86817 80.000766 L 0.00069091 80.000766 Z M 65.508355 57.29881 L 85.784537 57.29881 L 81.234741 80.000766 L 72.005825 80.000766 L 70.516658 74.992463 L 70.210987 74.992463 C 68.847224 76.560007 67.240491 77.892419 65.394708 78.985781 C 63.545006 80.083062 61.130989 80.631703 58.152655 80.631703 C 55.860122 80.631703 53.653804 80.255492 51.541538 79.503071 C 49.425354 78.738893 47.544301 77.535803 45.902299 75.889882 C 44.260296 74.24788 42.93964 72.096425 41.948169 69.431601 C 40.952778 66.770695 40.455083 63.561148 40.455083 59.802961 C 40.455083 55.739104 41.082101 51.879026 42.328298 48.22273 C 43.590171 44.566434 45.471224 41.341212 47.967538 38.550983 C 50.475608 35.764674 53.610696 33.558356 57.368883 31.939867 C 61.12707 30.321377 65.508355 29.514092 70.516658 29.514092 C 74.376736 29.514092 77.739117 29.960842 80.603804 30.850424 C 83.484166 31.732167 86.203855 32.71972 88.762871 33.813082 L 85.784537 49.006502 L 72.558385 49.006502 C 72.60933 48.43043 72.687707 47.756386 72.789597 46.980451 C 72.891488 46.188842 72.965946 45.3698 73.016891 44.515488 C 73.067836 43.64942 73.118781 42.802947 73.169727 41.972148 C 73.236347 41.133512 73.267698 40.400685 73.267698 39.777587 C 73.267698 39.35435 73.236347 38.87233 73.169727 38.32369 C 73.118781 37.775049 72.993378 37.242084 72.789597 36.716957 C 72.585817 36.195749 72.272308 35.768593 71.85299 35.439409 C 71.433672 35.094549 70.834086 34.922119 70.058152 34.922119 C 68.694389 34.922119 67.45211 35.482516 66.331316 36.60331 C 65.210522 37.724104 64.203375 39.21719 63.309875 41.074729 C 62.43205 42.920512 61.660035 45.017103 60.997747 47.360581 C 60.347217 49.707978 59.802495 52.094564 59.355745 54.528176 C 58.920752 56.950031 58.58373 59.324861 58.34076 61.656582 C 58.113466 63.972629 57.999819 65.99476 57.999819 67.711221 C 57.999819 68.236348 58.023333 68.890798 58.074278 69.682408 C 58.125223 70.458342 58.289815 71.230357 58.571973 71.994535 C 58.865888 72.743037 59.285206 73.393568 59.833846 73.942208 C 60.382486 74.490849 61.178015 74.765169 62.220432 74.765169 C 63.940811 74.765169 65.610246 73.828562 67.228735 71.955346 C 68.847224 70.070375 70.073827 66.935287 70.916382 62.554001 L 64.344454 62.554001 Z M 129.683607 80.000766 L 111.378612 80.000766 L 102.682662 44.076576 L 95.02129 80.000766 L 87.971261 80.000766 L 98.536508 30.297864 L 117.245146 30.297864 L 125.462995 66.700155 L 133.202744 30.297864 L 140.405608 30.297864 Z M 168.813425 61.21767 L 164.820106 80.000766 L 147.851442 80.000766 L 152.150432 59.87742 L 144.469466 30.297864 L 163.272157 30.297864 L 168.586131 49.94311 L 180.319198 30.297864 L 188.783935 30.297864 Z M 168.813425 61.21767 " stroke="#0d0d55" stroke-width="15.557137" stroke-opacity="1" stroke-miterlimit="4"/></g><g fill="#ee82ee" fill-opacity="1"><g transform="translate(36.968061, 110.686736)"><g><path d="M 10.53125 -49.546875 L 27.46875 -49.546875 L 18.25 -6.546875 L 34.09375 -6.546875 L 32.765625 0 L 0 0 Z M 10.53125 -49.546875 "/></g></g></g><g fill="#ee82ee" fill-opacity="1"><g transform="translate(74.570719, 110.686736)"><g><path d="M 27.703125 -22.625 L 47.90625 -22.625 L 43.375 0 L 34.171875 0 L 32.6875 -5 L 32.375 -5 C 31.019531 -3.4375 29.421875 -2.109375 27.578125 -1.015625 C 25.734375 0.078125 23.328125 0.625 20.359375 0.625 C 18.066406 0.625 15.867188 0.25 13.765625 -0.5 C 11.660156 -1.257812 9.785156 -2.457031 8.140625 -4.09375 C 6.503906 -5.726562 5.191406 -7.875 4.203125 -10.53125 C 3.222656 -13.1875 2.734375 -16.382812 2.734375 -20.125 C 2.734375 -24.1875 3.351562 -28.035156 4.59375 -31.671875 C 5.84375 -35.316406 7.71875 -38.53125 10.21875 -41.3125 C 12.71875 -44.09375 15.835938 -46.285156 19.578125 -47.890625 C 23.328125 -49.503906 27.695312 -50.3125 32.6875 -50.3125 C 36.539062 -50.3125 39.894531 -49.867188 42.75 -48.984375 C 45.613281 -48.109375 48.316406 -47.125 50.859375 -46.03125 L 47.90625 -30.890625 L 34.71875 -30.890625 C 34.769531 -31.460938 34.847656 -32.140625 34.953125 -32.921875 C 35.054688 -33.703125 35.132812 -34.519531 35.1875 -35.375 C 35.238281 -36.238281 35.289062 -37.082031 35.34375 -37.90625 C 35.394531 -38.738281 35.421875 -39.46875 35.421875 -40.09375 C 35.421875 -40.507812 35.394531 -40.988281 35.34375 -41.53125 C 35.289062 -42.082031 35.160156 -42.617188 34.953125 -43.140625 C 34.742188 -43.660156 34.429688 -44.085938 34.015625 -44.421875 C 33.597656 -44.765625 33 -44.9375 32.21875 -44.9375 C 30.863281 -44.9375 29.628906 -44.375 28.515625 -43.25 C 27.398438 -42.132812 26.398438 -40.65625 25.515625 -38.8125 C 24.628906 -36.96875 23.859375 -34.875 23.203125 -32.53125 C 22.554688 -30.1875 22.007812 -27.804688 21.5625 -25.390625 C 21.125 -22.972656 20.785156 -20.609375 20.546875 -18.296875 C 20.316406 -15.984375 20.203125 -13.96875 20.203125 -12.25 C 20.203125 -11.726562 20.226562 -11.078125 20.28125 -10.296875 C 20.332031 -9.515625 20.5 -8.742188 20.78125 -7.984375 C 21.070312 -7.234375 21.488281 -6.585938 22.03125 -6.046875 C 22.582031 -5.503906 23.378906 -5.234375 24.421875 -5.234375 C 26.140625 -5.234375 27.800781 -6.164062 29.40625 -8.03125 C 31.019531 -9.90625 32.242188 -13.023438 33.078125 -17.390625 L 26.53125 -17.390625 Z M 27.703125 -22.625 "/></g></g></g><g fill="#ee82ee" fill-opacity="1"><g transform="translate(124.655588, 110.686736)"><g><path d="M 41.578125 0 L 23.328125 0 L 14.671875 -35.8125 L 7.015625 0 L 0 0 L 10.53125 -49.546875 L 29.171875 -49.546875 L 37.375 -13.265625 L 45.09375 -49.546875 L 52.265625 -49.546875 Z M 41.578125 0 "/></g></g></g><g fill="#ee82ee" fill-opacity="1"><g transform="translate(174.896493, 110.686736)"><g><path d="M 30.34375 -18.71875 L 26.375 0 L 9.4375 0 L 13.734375 -20.046875 L 6.078125 -49.546875 L 24.8125 -49.546875 L 30.109375 -29.953125 L 41.8125 -49.546875 L 50.234375 -49.546875 Z M 30.34375 -18.71875 "/></g></g></g><path stroke-linecap="butt" transform="matrix(0.996782, 0, 0, 0.996782, 36.968061, 30.944159)" fill="none" stroke-linejoin="miter" d="M 10.565938 30.297864 L 27.554196 30.297864 L 18.305686 73.424919 L 34.204501 73.424919 L 32.86817 80.000766 L 0.00069091 80.000766 Z M 65.508355 57.29881 L 85.784537 57.29881 L 81.234741 80.000766 L 72.005825 80.000766 L 70.516658 74.992463 L 70.210987 74.992463 C 68.847224 76.560007 67.240491 77.892419 65.394708 78.985781 C 63.545006 80.083062 61.130989 80.631703 58.152655 80.631703 C 55.860122 80.631703 53.653804 80.255492 51.541538 79.503071 C 49.425354 78.738893 47.544301 77.535803 45.902299 75.889882 C 44.260296 74.24788 42.93964 72.096425 41.948169 69.431601 C 40.952778 66.770695 40.455083 63.561148 40.455083 59.802961 C 40.455083 55.739104 41.082101 51.879026 42.328298 48.22273 C 43.590171 44.566434 45.471224 41.341212 47.967538 38.550983 C 50.475608 35.764674 53.610696 33.558356 57.368883 31.939867 C 61.12707 30.321377 65.508355 29.514092 70.516658 29.514092 C 74.376736 29.514092 77.739117 29.960842 80.603804 30.850424 C 83.484166 31.732167 86.203855 32.71972 88.762871 33.813082 L 85.784537 49.006502 L 72.558385 49.006502 C 72.60933 48.43043 72.687707 47.756386 72.789597 46.980451 C 72.891488 46.188842 72.965946 45.3698 73.016891 44.515488 C 73.067836 43.64942 73.118781 42.802947 73.169727 41.972148 C 73.236347 41.133512 73.267698 40.400685 73.267698 39.777587 C 73.267698 39.35435 73.236347 38.87233 73.169727 38.32369 C 73.118781 37.775049 72.993378 37.242084 72.789597 36.716957 C 72.585817 36.195749 72.272308 35.768593 71.85299 35.439409 C 71.433672 35.094549 70.834086 34.922119 70.058152 34.922119 C 68.694389 34.922119 67.45211 35.482516 66.331316 36.60331 C 65.210522 37.724104 64.203375 39.21719 63.309875 41.074729 C 62.43205 42.920512 61.660035 45.017103 60.997747 47.360581 C 60.347217 49.707978 59.802495 52.094564 59.355745 54.528176 C 58.920752 56.950031 58.58373 59.324861 58.34076 61.656582 C 58.113466 63.972629 57.999819 65.99476 57.999819 67.711221 C 57.999819 68.236348 58.023333 68.890798 58.074278 69.682408 C 58.125223 70.458342 58.289815 71.230357 58.571973 71.994535 C 58.865888 72.743037 59.285206 73.393568 59.833846 73.942208 C 60.382486 74.490849 61.178015 74.765169 62.220432 74.765169 C 63.940811 74.765169 65.610246 73.828562 67.228735 71.955346 C 68.847224 70.070375 70.073827 66.935287 70.916382 62.554001 L 64.344454 62.554001 Z M 129.683607 80.000766 L 111.378612 80.000766 L 102.682662 44.076576 L 95.02129 80.000766 L 87.971261 80.000766 L 98.536508 30.297864 L 117.245146 30.297864 L 125.462995 66.700155 L 133.202744 30.297864 L 140.405608 30.297864 Z M 168.813425 61.21767 L 164.820106 80.000766 L 147.851442 80.000766 L 152.150432 59.87742 L 144.469466 30.297864 L 163.272157 30.297864 L 168.586131 49.94311 L 180.319198 30.297864 L 188.783935 30.297864 Z M 168.813425 61.21767 " stroke="#e7f65d" stroke-width="0.978436" stroke-opacity="1" stroke-miterlimit="4"/><g clip-path="url(#f9cc295433)"><path stroke-linecap="butt" transform="matrix(0.351776, 0, 0, 0.351776, 29.081606, 119.392828)" fill="none" stroke-linejoin="miter" d="M 33.514225 30.297587 L 52.62486 30.297587 L 53.96849 64.199255 L 67.038344 30.297587 L 82.528952 30.297587 L 84.561053 64.199255 L 97.708637 30.297587 L 105.925877 30.297587 L 86.604259 80.000786 L 68.98161 80.000786 L 67.338162 51.906708 L 55.611938 80.000786 L 36.82333 80.000786 Z M 111.86672 30.297587 L 144.813411 30.297587 L 143.569721 36.23843 L 127.601624 36.23843 L 124.314728 51.351489 L 137.706609 51.351489 L 136.44071 57.225705 L 123.071038 57.225705 L 119.462115 73.982213 L 135.430211 73.982213 L 134.253147 80.000786 L 101.306456 80.000786 Z M 188.653498 41.646262 C 188.653498 43.167562 188.43141 44.522296 187.987235 45.721569 C 187.54306 46.920842 186.921215 47.986863 186.132804 48.930735 C 185.355497 49.874607 184.444938 50.707435 183.401127 51.42922 C 182.357315 52.162109 181.213564 52.828372 179.958769 53.461321 C 180.536197 53.672304 181.213564 54.005436 181.990871 54.449611 C 182.779282 54.882682 183.534379 55.493422 184.256164 56.281833 C 185.000157 57.05914 185.610898 58.069638 186.110595 59.302224 C 186.610292 60.523706 186.854588 62.022797 186.854588 63.799498 C 186.854588 66.142521 186.365996 68.307875 185.366602 70.295559 C 184.378312 72.283243 182.90143 73.993317 180.935955 75.436886 C 178.981584 76.858247 176.583038 77.979789 173.729213 78.801513 C 170.886492 79.601028 167.621805 80.000786 163.924047 80.000786 L 140.671478 80.000786 L 151.242846 30.297587 L 171.81926 30.297587 C 173.862466 30.297587 175.872358 30.441944 177.882251 30.741763 C 179.892143 31.019372 181.691052 31.574591 183.290083 32.418524 C 184.878009 33.251352 186.166117 34.406208 187.165511 35.894194 C 188.153801 37.382181 188.653498 39.303238 188.653498 41.646262 Z M 167.366404 51.129402 C 168.510155 51.129402 169.48734 50.785166 170.286856 50.118903 C 171.10858 49.430432 171.774842 48.575395 172.296748 47.553792 C 172.818654 46.532189 173.207307 45.432855 173.462708 44.266896 C 173.729213 43.089832 173.862466 42.034916 173.862466 41.091043 C 173.862466 39.591952 173.507125 38.303844 172.796445 37.237824 C 172.096869 36.160699 170.986432 35.627689 169.465132 35.627689 L 167.122108 35.627689 L 163.757481 51.129402 Z M 161.72538 75.070442 C 163.302202 75.070442 164.601414 74.626267 165.645225 73.749021 C 166.689037 72.860671 167.555179 71.761337 168.232546 70.462125 C 168.898808 69.151808 169.376297 67.78597 169.66501 66.353505 C 169.953724 64.92104 170.098081 63.644036 170.098081 62.555807 C 170.098081 60.723585 169.720532 59.268911 168.95433 58.191786 C 168.199232 57.125766 166.988855 56.592756 165.323198 56.592756 L 162.43606 56.592756 L 158.593945 75.070442 Z M 204.299567 80.000786 L 214.870936 30.297587 L 235.924837 30.297587 C 239.167316 30.297587 241.987828 30.619614 244.408583 31.274773 C 246.840442 31.918827 248.861438 33.007056 250.449365 34.517251 C 252.037291 36.038551 253.236564 38.026235 254.047183 40.480303 C 254.846698 42.923266 255.246456 45.932552 255.246456 49.485954 C 255.246456 53.294755 254.757863 57.025827 253.791783 60.679167 C 252.836806 64.321403 251.237775 67.586091 248.994691 70.462125 C 246.751607 73.327054 243.820051 75.636765 240.188919 77.380153 C 236.557787 79.12354 232.082722 80.000786 226.774829 80.000786 Z M 225.742122 74.515223 C 227.463301 74.515223 228.984601 73.804543 230.306022 72.372078 C 231.649652 70.939613 232.804507 69.107391 233.770588 66.886515 C 234.736669 64.676743 235.547289 62.222676 236.191342 59.535416 C 236.846501 56.848157 237.368407 54.249732 237.75706 51.762351 C 238.156817 49.252762 238.445531 46.998573 238.623201 45.010889 C 238.800871 43.023205 238.889706 41.612949 238.889706 40.791225 C 238.889706 39.169986 238.567679 37.904087 237.912521 37.004632 C 237.268467 36.082969 236.135821 35.627689 234.514581 35.627689 L 230.750197 35.627689 L 222.377496 74.515223 Z M 266.683966 30.297587 L 299.619553 30.297587 L 298.386967 36.23843 L 282.407766 36.23843 L 279.12087 51.351489 L 292.512751 51.351489 L 291.257956 57.225705 L 277.87718 57.225705 L 274.268257 73.982213 L 290.247457 73.982213 L 289.059289 80.000786 L 256.112598 80.000786 Z M 326.325583 44.711071 C 326.481045 43.911556 326.547671 42.845535 326.547671 41.490801 C 326.547671 40.70239 326.503253 39.936188 326.403314 39.18109 C 326.303375 38.437097 326.1146 37.75973 325.848095 37.160093 C 325.592694 36.549353 325.204041 36.071864 324.682135 35.738733 C 324.16023 35.394497 323.471758 35.227932 322.63893 35.227932 C 321.706162 35.227932 320.851125 35.438915 320.051609 35.860881 C 319.274303 36.282847 318.585831 36.815858 317.975091 37.459912 C 317.375454 38.11507 316.897966 38.870168 316.55373 39.736309 C 316.231703 40.591346 316.065138 41.490801 316.065138 42.434673 C 316.065138 43.778303 316.409373 44.822115 317.108949 45.566108 C 317.830734 46.287893 318.752397 46.887529 319.907253 47.365017 C 321.051004 47.831401 322.350216 48.231159 323.804889 48.542081 C 325.270667 48.853004 326.780863 49.219449 328.34658 49.641415 C 329.656897 49.996755 330.967214 50.463139 332.266426 51.051671 C 333.576743 51.617994 334.742702 52.395301 335.742096 53.361382 C 336.763699 54.316358 337.585423 55.571153 338.207268 57.103557 C 338.851322 58.647066 339.162245 60.568123 339.162245 62.855625 C 339.162245 66.142521 338.507087 68.907512 337.19677 71.150596 C 335.897558 73.393681 334.098648 75.225903 331.788938 76.636159 C 329.490331 78.035311 326.769758 79.056914 323.605011 79.689863 C 320.462471 80.322813 317.031218 80.633736 313.33346 80.633736 C 309.569076 80.633736 306.504268 80.378335 304.116826 79.889742 C 301.751594 79.390045 299.886058 78.857035 298.542428 78.279607 C 296.921189 77.60224 295.721916 76.824934 294.922401 75.925479 L 297.598556 65.209754 L 311.356881 65.209754 C 311.312464 65.676138 311.256942 66.320192 311.212524 67.141916 C 311.157002 67.941431 311.134793 68.57438 311.134793 69.051869 C 311.134793 69.673714 311.212524 70.328872 311.356881 70.995135 C 311.523447 71.672502 311.778847 72.294347 312.111979 72.871775 C 312.44511 73.449203 312.933703 73.915586 313.555548 74.282031 C 314.188498 74.65958 314.965804 74.83725 315.909676 74.83725 C 316.953488 74.83725 317.875151 74.604058 318.674667 74.137674 C 319.496391 73.660186 320.173758 73.071654 320.728977 72.372078 C 321.273091 71.661398 321.683953 70.884091 321.961563 70.029054 C 322.261381 69.162912 322.405738 68.307875 322.405738 67.486151 C 322.405738 66.3424 322.128128 65.376319 321.584014 64.599013 C 321.039899 63.810602 320.295906 63.144339 319.352034 62.58912 C 318.419266 62.045006 317.331037 61.567517 316.098451 61.178864 C 314.876969 60.779107 313.61107 60.379349 312.311858 59.957383 C 311.057063 59.602042 309.735642 59.157867 308.347594 58.635962 C 306.970652 58.114056 305.704752 57.381167 304.561001 56.437295 C 303.41725 55.493422 302.451169 54.316358 301.696072 52.883893 C 300.940974 51.440324 300.563425 49.608102 300.563425 47.365017 C 300.563425 44.022599 301.407358 41.224296 303.106328 38.959003 C 304.805298 36.671501 306.937338 34.828174 309.524659 33.429022 C 312.111979 32.018766 314.943595 31.008268 318.008404 30.408631 C 321.095421 29.808995 324.015873 29.509177 326.780863 29.509177 C 330.434203 29.509177 333.587847 29.942247 336.219585 30.808389 C 338.862427 31.663426 340.850111 32.66282 342.204845 33.817675 L 339.317706 44.711071 Z M 369.210693 57.303436 L 389.487289 57.303436 L 384.934493 80.000786 L 375.706755 80.000786 L 374.218768 74.992711 L 373.907846 74.992711 C 372.542007 76.558429 370.942976 77.890954 369.088545 78.990287 C 367.245218 80.078517 364.835568 80.633736 361.84849 80.633736 C 359.560988 80.633736 357.351217 80.256187 355.241385 79.501089 C 353.120449 78.734887 351.243809 77.535614 349.600361 75.892166 C 347.956913 74.248718 346.635492 72.094468 345.647202 69.429418 C 344.647808 66.775471 344.159215 63.555201 344.159215 59.801921 C 344.159215 55.737719 344.781061 51.873395 346.024751 48.220054 C 347.29065 44.566714 349.16729 41.346444 351.665775 38.548141 C 354.175365 35.760942 357.3068 33.562275 361.071184 31.941035 C 364.824464 30.319796 369.210693 29.509177 374.218768 29.509177 C 378.071988 29.509177 381.436614 29.964456 384.301544 30.852806 C 387.188682 31.730052 389.898151 32.718342 392.463262 33.817675 L 389.487289 49.008465 L 376.261974 49.008465 C 376.306391 48.431038 376.384122 47.753671 376.484061 46.976364 C 376.595105 46.187953 376.661731 45.366229 376.717253 44.511192 C 376.772775 43.64505 376.817193 42.801118 376.872715 41.968289 C 376.939341 41.135461 376.96155 40.402572 376.96155 39.780727 C 376.96155 39.35876 376.939341 38.870168 376.872715 38.326053 C 376.817193 37.770834 376.695045 37.237824 376.484061 36.715918 C 376.284183 36.194012 375.97326 35.772046 375.551294 35.438915 C 375.129327 35.094679 374.529691 34.917009 373.752384 34.917009 C 372.39765 34.917009 371.15396 35.483332 370.032417 36.604874 C 368.910875 37.726417 367.900377 39.214403 367.012026 41.079939 C 366.134781 42.923266 365.357474 45.021993 364.702316 47.365017 C 364.047157 49.708041 363.503043 52.095483 363.058868 54.527341 C 362.625797 56.948096 362.281561 59.324433 362.037265 61.656353 C 361.815177 63.977168 361.693029 65.998165 361.693029 67.708239 C 361.693029 68.230145 361.726342 68.896407 361.77076 69.684818 C 361.826282 70.462125 361.992847 71.228327 362.270457 71.994529 C 362.559171 72.749627 362.981137 73.393681 363.536356 73.937795 C 364.08047 74.493014 364.879986 74.759519 365.923797 74.759519 C 367.644976 74.759519 369.310633 73.826751 370.931872 71.950111 C 372.542007 70.073471 373.774593 66.930932 374.618526 62.555807 L 368.044734 62.555807 Z M 408.58682 80.000786 L 391.674851 80.000786 L 402.235115 30.297587 L 419.224814 30.297587 Z M 458.900759 80.000786 L 440.589639 80.000786 L 431.89491 44.078121 L 424.232889 80.000786 L 417.181609 80.000786 L 427.752977 30.297587 L 446.463855 30.297587 L 454.681095 66.69774 L 462.420847 30.297587 L 469.616484 30.297587 Z M 498.432347 44.711071 C 498.587808 43.911556 498.654434 42.845535 498.654434 41.490801 C 498.654434 40.70239 498.610017 39.936188 498.510077 39.18109 C 498.399034 38.437097 498.221364 37.75973 497.954859 37.160093 C 497.699458 36.549353 497.310805 36.071864 496.788899 35.738733 C 496.266993 35.394497 495.578522 35.227932 494.745693 35.227932 C 493.812925 35.227932 492.946784 35.438915 492.158373 35.860881 C 491.381066 36.282847 490.692595 36.815858 490.081854 37.459912 C 489.482218 38.11507 489.004729 38.870168 488.660494 39.736309 C 488.338467 40.591346 488.171901 41.490801 488.171901 42.434673 C 488.171901 43.778303 488.516137 44.822115 489.215713 45.566108 C 489.937497 46.287893 490.859161 46.887529 492.014016 47.365017 C 493.157767 47.831401 494.456979 48.231159 495.911653 48.542081 C 497.377431 48.853004 498.887626 49.219449 500.453344 49.641415 C 501.76366 49.996755 503.073977 50.463139 504.373189 51.051671 C 505.683506 51.617994 506.849466 52.395301 507.84886 53.361382 C 508.870463 54.316358 509.692187 55.571153 510.314032 57.103557 C 510.946981 58.647066 511.269008 60.568123 511.269008 62.855625 C 511.269008 66.142521 510.61385 68.907512 509.303533 71.150596 C 508.004321 73.393681 506.205412 75.225903 503.895701 76.636159 C 501.597095 78.035311 498.876522 79.056914 495.711774 79.689863 C 492.569235 80.322813 489.137982 80.633736 485.440224 80.633736 C 481.67584 80.633736 478.611031 80.378335 476.22359 79.889742 C 473.858357 79.390045 471.992821 78.857035 470.649192 78.279607 C 469.027952 77.60224 467.82868 76.824934 467.029164 75.925479 L 469.705319 65.209754 L 483.463645 65.209754 C 483.419227 65.676138 483.363705 66.320192 483.319288 67.141916 C 483.263766 67.941431 483.241557 68.57438 483.241557 69.051869 C 483.241557 69.673714 483.319288 70.328872 483.463645 70.995135 C 483.63021 71.672502 483.885611 72.294347 484.207638 72.871775 C 484.551874 73.449203 485.040466 73.915586 485.662311 74.282031 C 486.284157 74.65958 487.072568 74.83725 488.01644 74.83725 C 489.060251 74.83725 489.981915 74.604058 490.78143 74.137674 C 491.603154 73.660186 492.280521 73.071654 492.83574 72.372078 C 493.379855 71.661398 493.790717 70.884091 494.068326 70.029054 C 494.368144 69.162912 494.512501 68.307875 494.512501 67.486151 C 494.512501 66.3424 494.234892 65.376319 493.690777 64.599013 C 493.146663 63.810602 492.402669 63.144339 491.458797 62.58912 C 490.526029 62.045006 489.4378 61.567517 488.205214 61.178864 C 486.983733 60.779107 485.717833 60.379349 484.418621 59.957383 C 483.163826 59.602042 481.842405 59.157867 480.443254 58.635962 C 479.077415 58.114056 477.811516 57.381167 476.667765 56.437295 C 475.512909 55.493422 474.557933 54.316358 473.802835 52.883893 C 473.047737 51.440324 472.670189 49.608102 472.670189 47.365017 C 472.670189 44.022599 473.514121 41.224296 475.213091 38.959003 C 476.912061 36.671501 479.044102 34.828174 481.631422 33.429022 C 484.218742 32.018766 487.050359 31.008268 490.115167 30.408631 C 493.202185 29.808995 496.122636 29.509177 498.887626 29.509177 C 502.540967 29.509177 505.69461 29.942247 508.326348 30.808389 C 510.96919 31.663426 512.956874 32.66282 514.311608 33.817675 L 511.42447 44.711071 Z M 498.432347 44.711071 " stroke="#0d0d55" stroke-width="20.547161" stroke-opacity="1" stroke-miterlimit="4"/></g><g fill="#ee82ee" fill-opacity="1"><g transform="translate(38.727953, 147.53488)"><g><path d="M 2.140625 -17.484375 L 8.859375 -17.484375 L 9.328125 -5.5625 L 13.9375 -17.484375 L 19.375 -17.484375 L 20.09375 -5.5625 L 24.71875 -17.484375 L 27.609375 -17.484375 L 20.8125 0 L 14.625 0 L 14.046875 -9.890625 L 9.90625 0 L 3.296875 0 Z M 2.140625 -17.484375 "/></g></g></g><g fill="#ee82ee" fill-opacity="1"><g transform="translate(64.718122, 147.53488)"><g><path d="M 3.71875 -17.484375 L 15.3125 -17.484375 L 14.859375 -15.390625 L 9.25 -15.390625 L 8.09375 -10.078125 L 12.796875 -10.078125 L 12.359375 -8.015625 L 7.65625 -8.015625 L 6.390625 -2.125 L 12 -2.125 L 11.59375 0 L 0 0 Z M 3.71875 -17.484375 "/></g></g></g><g fill="#ee82ee" fill-opacity="1"><g transform="translate(78.566696, 147.53488)"><g><path d="M 16.875 -13.484375 C 16.875 -12.953125 16.796875 -12.472656 16.640625 -12.046875 C 16.484375 -11.628906 16.265625 -11.253906 15.984375 -10.921875 C 15.710938 -10.597656 15.394531 -10.304688 15.03125 -10.046875 C 14.664062 -9.785156 14.265625 -9.546875 13.828125 -9.328125 C 14.023438 -9.253906 14.257812 -9.140625 14.53125 -8.984375 C 14.8125 -8.828125 15.078125 -8.609375 15.328125 -8.328125 C 15.585938 -8.054688 15.804688 -7.707031 15.984375 -7.28125 C 16.160156 -6.851562 16.25 -6.328125 16.25 -5.703125 C 16.25 -4.867188 16.070312 -4.101562 15.71875 -3.40625 C 15.375 -2.71875 14.851562 -2.117188 14.15625 -1.609375 C 13.46875 -1.109375 12.625 -0.710938 11.625 -0.421875 C 10.625 -0.140625 9.472656 0 8.171875 0 L 0 0 L 3.71875 -17.484375 L 10.953125 -17.484375 C 11.671875 -17.484375 12.382812 -17.429688 13.09375 -17.328125 C 13.800781 -17.222656 14.429688 -17.023438 14.984375 -16.734375 C 15.546875 -16.441406 16 -16.035156 16.34375 -15.515625 C 16.695312 -14.992188 16.875 -14.316406 16.875 -13.484375 Z M 9.390625 -10.15625 C 9.796875 -10.15625 10.140625 -10.273438 10.421875 -10.515625 C 10.703125 -10.753906 10.929688 -11.050781 11.109375 -11.40625 C 11.296875 -11.769531 11.4375 -12.15625 11.53125 -12.5625 C 11.625 -12.976562 11.671875 -13.351562 11.671875 -13.6875 C 11.671875 -14.21875 11.546875 -14.671875 11.296875 -15.046875 C 11.054688 -15.421875 10.664062 -15.609375 10.125 -15.609375 L 9.3125 -15.609375 L 8.125 -10.15625 Z M 7.40625 -1.734375 C 7.957031 -1.734375 8.414062 -1.890625 8.78125 -2.203125 C 9.144531 -2.515625 9.445312 -2.898438 9.6875 -3.359375 C 9.925781 -3.816406 10.097656 -4.296875 10.203125 -4.796875 C 10.304688 -5.304688 10.359375 -5.753906 10.359375 -6.140625 C 10.359375 -6.785156 10.222656 -7.296875 9.953125 -7.671875 C 9.679688 -8.046875 9.253906 -8.234375 8.671875 -8.234375 L 7.65625 -8.234375 L 6.296875 -1.734375 Z M 7.40625 -1.734375 "/></g></g></g><g fill="#ee82ee" fill-opacity="1"><g transform="translate(95.691572, 147.53488)"><g/></g></g><g fill="#ee82ee" fill-opacity="1"><g transform="translate(100.950177, 147.53488)"><g><path d="M 0 0 L 3.71875 -17.484375 L 11.125 -17.484375 C 12.257812 -17.484375 13.253906 -17.367188 14.109375 -17.140625 C 14.960938 -16.910156 15.664062 -16.53125 16.21875 -16 C 16.78125 -15.46875 17.203125 -14.769531 17.484375 -13.90625 C 17.773438 -13.039062 17.921875 -11.984375 17.921875 -10.734375 C 17.921875 -9.398438 17.75 -8.085938 17.40625 -6.796875 C 17.070312 -5.515625 16.507812 -4.367188 15.71875 -3.359375 C 14.925781 -2.347656 13.890625 -1.535156 12.609375 -0.921875 C 11.335938 -0.304688 9.769531 0 7.90625 0 Z M 7.546875 -1.921875 C 8.148438 -1.921875 8.6875 -2.171875 9.15625 -2.671875 C 9.625 -3.179688 10.023438 -3.828125 10.359375 -4.609375 C 10.703125 -5.390625 10.988281 -6.253906 11.21875 -7.203125 C 11.445312 -8.148438 11.628906 -9.0625 11.765625 -9.9375 C 11.898438 -10.820312 12 -11.613281 12.0625 -12.3125 C 12.132812 -13.007812 12.171875 -13.503906 12.171875 -13.796875 C 12.171875 -14.359375 12.054688 -14.800781 11.828125 -15.125 C 11.597656 -15.445312 11.195312 -15.609375 10.625 -15.609375 L 9.3125 -15.609375 L 6.359375 -1.921875 Z M 7.546875 -1.921875 "/></g></g></g><g fill="#ee82ee" fill-opacity="1"><g transform="translate(119.176333, 147.53488)"><g><path d="M 3.71875 -17.484375 L 15.3125 -17.484375 L 14.859375 -15.390625 L 9.25 -15.390625 L 8.09375 -10.078125 L 12.796875 -10.078125 L 12.359375 -8.015625 L 7.65625 -8.015625 L 6.390625 -2.125 L 12 -2.125 L 11.59375 0 L 0 0 Z M 3.71875 -17.484375 "/></g></g></g><g fill="#ee82ee" fill-opacity="1"><g transform="translate(133.024912, 147.53488)"><g><path d="M 10.84375 -12.421875 C 10.90625 -12.691406 10.9375 -13.066406 10.9375 -13.546875 C 10.9375 -13.816406 10.914062 -14.082031 10.875 -14.34375 C 10.832031 -14.613281 10.765625 -14.851562 10.671875 -15.0625 C 10.585938 -15.28125 10.453125 -15.445312 10.265625 -15.5625 C 10.085938 -15.6875 9.847656 -15.75 9.546875 -15.75 C 9.222656 -15.75 8.921875 -15.675781 8.640625 -15.53125 C 8.367188 -15.382812 8.125 -15.195312 7.90625 -14.96875 C 7.695312 -14.738281 7.53125 -14.46875 7.40625 -14.15625 C 7.289062 -13.851562 7.234375 -13.539062 7.234375 -13.21875 C 7.234375 -12.738281 7.359375 -12.367188 7.609375 -12.109375 C 7.859375 -11.859375 8.1875 -11.648438 8.59375 -11.484375 C 9 -11.316406 9.457031 -11.175781 9.96875 -11.0625 C 10.476562 -10.957031 11.007812 -10.832031 11.5625 -10.6875 C 12.019531 -10.550781 12.476562 -10.382812 12.9375 -10.1875 C 13.394531 -9.988281 13.800781 -9.71875 14.15625 -9.375 C 14.519531 -9.03125 14.8125 -8.585938 15.03125 -8.046875 C 15.25 -7.503906 15.359375 -6.832031 15.359375 -6.03125 C 15.359375 -4.875 15.128906 -3.898438 14.671875 -3.109375 C 14.210938 -2.316406 13.578125 -1.671875 12.765625 -1.171875 C 11.960938 -0.679688 11.003906 -0.328125 9.890625 -0.109375 C 8.785156 0.109375 7.582031 0.21875 6.28125 0.21875 C 4.957031 0.21875 3.878906 0.132812 3.046875 -0.03125 C 2.210938 -0.207031 1.554688 -0.398438 1.078125 -0.609375 C 0.503906 -0.847656 0.0820312 -1.125 -0.1875 -1.4375 L 0.75 -5.203125 L 5.59375 -5.203125 C 5.570312 -5.035156 5.550781 -4.8125 5.53125 -4.53125 C 5.507812 -4.25 5.5 -4.023438 5.5 -3.859375 C 5.5 -3.640625 5.523438 -3.410156 5.578125 -3.171875 C 5.640625 -2.929688 5.726562 -2.707031 5.84375 -2.5 C 5.96875 -2.300781 6.140625 -2.132812 6.359375 -2 C 6.578125 -1.875 6.851562 -1.8125 7.1875 -1.8125 C 7.550781 -1.8125 7.875 -1.894531 8.15625 -2.0625 C 8.445312 -2.226562 8.6875 -2.4375 8.875 -2.6875 C 9.070312 -2.9375 9.21875 -3.210938 9.3125 -3.515625 C 9.414062 -3.816406 9.46875 -4.113281 9.46875 -4.40625 C 9.46875 -4.8125 9.367188 -5.148438 9.171875 -5.421875 C 8.984375 -5.703125 8.722656 -5.9375 8.390625 -6.125 C 8.066406 -6.320312 7.6875 -6.488281 7.25 -6.625 C 6.820312 -6.757812 6.378906 -6.898438 5.921875 -7.046875 C 5.484375 -7.171875 5.019531 -7.328125 4.53125 -7.515625 C 4.039062 -7.703125 3.59375 -7.957031 3.1875 -8.28125 C 2.789062 -8.613281 2.457031 -9.03125 2.1875 -9.53125 C 1.925781 -10.039062 1.796875 -10.691406 1.796875 -11.484375 C 1.796875 -12.660156 2.09375 -13.644531 2.6875 -14.4375 C 3.28125 -15.238281 4.03125 -15.882812 4.9375 -16.375 C 5.84375 -16.875 6.835938 -17.226562 7.921875 -17.4375 C 9.003906 -17.644531 10.035156 -17.75 11.015625 -17.75 C 12.296875 -17.75 13.398438 -17.597656 14.328125 -17.296875 C 15.253906 -16.992188 15.957031 -16.644531 16.4375 -16.25 L 15.421875 -12.421875 Z M 10.84375 -12.421875 "/></g></g></g><g fill="#ee82ee" fill-opacity="1"><g transform="translate(149.186173, 147.53488)"><g><path d="M 9.78125 -7.984375 L 16.90625 -7.984375 L 15.3125 0 L 12.0625 0 L 11.53125 -1.765625 L 11.421875 -1.765625 C 10.941406 -1.210938 10.375 -0.742188 9.71875 -0.359375 C 9.070312 0.0234375 8.226562 0.21875 7.1875 0.21875 C 6.375 0.21875 5.597656 0.0859375 4.859375 -0.171875 C 4.117188 -0.441406 3.457031 -0.863281 2.875 -1.4375 C 2.300781 -2.019531 1.835938 -2.78125 1.484375 -3.71875 C 1.140625 -4.65625 0.96875 -5.785156 0.96875 -7.109375 C 0.96875 -8.535156 1.1875 -9.890625 1.625 -11.171875 C 2.0625 -12.460938 2.71875 -13.597656 3.59375 -14.578125 C 4.476562 -15.554688 5.582031 -16.328125 6.90625 -16.890625 C 8.226562 -17.460938 9.769531 -17.75 11.53125 -17.75 C 12.894531 -17.75 14.078125 -17.59375 15.078125 -17.28125 C 16.085938 -16.976562 17.046875 -16.632812 17.953125 -16.25 L 16.90625 -10.90625 L 12.25 -10.90625 C 12.269531 -11.101562 12.296875 -11.335938 12.328125 -11.609375 C 12.367188 -11.890625 12.394531 -12.179688 12.40625 -12.484375 C 12.425781 -12.785156 12.445312 -13.082031 12.46875 -13.375 C 12.488281 -13.675781 12.5 -13.9375 12.5 -14.15625 C 12.5 -14.300781 12.488281 -14.46875 12.46875 -14.65625 C 12.445312 -14.851562 12.398438 -15.039062 12.328125 -15.21875 C 12.253906 -15.40625 12.144531 -15.554688 12 -15.671875 C 11.851562 -15.796875 11.644531 -15.859375 11.375 -15.859375 C 10.894531 -15.859375 10.457031 -15.660156 10.0625 -15.265625 C 9.664062 -14.867188 9.3125 -14.34375 9 -13.6875 C 8.6875 -13.039062 8.414062 -12.300781 8.1875 -11.46875 C 7.957031 -10.644531 7.765625 -9.804688 7.609375 -8.953125 C 7.453125 -8.109375 7.332031 -7.273438 7.25 -6.453125 C 7.164062 -5.640625 7.125 -4.929688 7.125 -4.328125 C 7.125 -4.140625 7.132812 -3.90625 7.15625 -3.625 C 7.175781 -3.351562 7.234375 -3.082031 7.328125 -2.8125 C 7.429688 -2.550781 7.578125 -2.320312 7.765625 -2.125 C 7.960938 -1.9375 8.25 -1.84375 8.625 -1.84375 C 9.226562 -1.84375 9.8125 -2.171875 10.375 -2.828125 C 10.945312 -3.492188 11.378906 -4.597656 11.671875 -6.140625 L 9.359375 -6.140625 Z M 9.78125 -7.984375 "/></g></g></g><g fill="#ee82ee" fill-opacity="1"><g transform="translate(166.861687, 147.53488)"><g><path d="M 5.953125 0 L 0 0 L 3.71875 -17.484375 L 9.6875 -17.484375 Z M 5.953125 0 "/></g></g></g><g fill="#ee82ee" fill-opacity="1"><g transform="translate(175.837108, 147.53488)"><g><path d="M 14.671875 0 L 8.234375 0 L 5.171875 -12.640625 L 2.484375 0 L 0 0 L 3.71875 -17.484375 L 10.296875 -17.484375 L 13.1875 -4.6875 L 15.90625 -17.484375 L 18.453125 -17.484375 Z M 14.671875 0 "/></g></g></g><g fill="#ee82ee" fill-opacity="1"><g transform="translate(193.567683, 147.53488)"><g><path d="M 10.84375 -12.421875 C 10.90625 -12.691406 10.9375 -13.066406 10.9375 -13.546875 C 10.9375 -13.816406 10.914062 -14.082031 10.875 -14.34375 C 10.832031 -14.613281 10.765625 -14.851562 10.671875 -15.0625 C 10.585938 -15.28125 10.453125 -15.445312 10.265625 -15.5625 C 10.085938 -15.6875 9.847656 -15.75 9.546875 -15.75 C 9.222656 -15.75 8.921875 -15.675781 8.640625 -15.53125 C 8.367188 -15.382812 8.125 -15.195312 7.90625 -14.96875 C 7.695312 -14.738281 7.53125 -14.46875 7.40625 -14.15625 C 7.289062 -13.851562 7.234375 -13.539062 7.234375 -13.21875 C 7.234375 -12.738281 7.359375 -12.367188 7.609375 -12.109375 C 7.859375 -11.859375 8.1875 -11.648438 8.59375 -11.484375 C 9 -11.316406 9.457031 -11.175781 9.96875 -11.0625 C 10.476562 -10.957031 11.007812 -10.832031 11.5625 -10.6875 C 12.019531 -10.550781 12.476562 -10.382812 12.9375 -10.1875 C 13.394531 -9.988281 13.800781 -9.71875 14.15625 -9.375 C 14.519531 -9.03125 14.8125 -8.585938 15.03125 -8.046875 C 15.25 -7.503906 15.359375 -6.832031 15.359375 -6.03125 C 15.359375 -4.875 15.128906 -3.898438 14.671875 -3.109375 C 14.210938 -2.316406 13.578125 -1.671875 12.765625 -1.171875 C 11.960938 -0.679688 11.003906 -0.328125 9.890625 -0.109375 C 8.785156 0.109375 7.582031 0.21875 6.28125 0.21875 C 4.957031 0.21875 3.878906 0.132812 3.046875 -0.03125 C 2.210938 -0.207031 1.554688 -0.398438 1.078125 -0.609375 C 0.503906 -0.847656 0.0820312 -1.125 -0.1875 -1.4375 L 0.75 -5.203125 L 5.59375 -5.203125 C 5.570312 -5.035156 5.550781 -4.8125 5.53125 -4.53125 C 5.507812 -4.25 5.5 -4.023438 5.5 -3.859375 C 5.5 -3.640625 5.523438 -3.410156 5.578125 -3.171875 C 5.640625 -2.929688 5.726562 -2.707031 5.84375 -2.5 C 5.96875 -2.300781 6.140625 -2.132812 6.359375 -2 C 6.578125 -1.875 6.851562 -1.8125 7.1875 -1.8125 C 7.550781 -1.8125 7.875 -1.894531 8.15625 -2.0625 C 8.445312 -2.226562 8.6875 -2.4375 8.875 -2.6875 C 9.070312 -2.9375 9.21875 -3.210938 9.3125 -3.515625 C 9.414062 -3.816406 9.46875 -4.113281 9.46875 -4.40625 C 9.46875 -4.8125 9.367188 -5.148438 9.171875 -5.421875 C 8.984375 -5.703125 8.722656 -5.9375 8.390625 -6.125 C 8.066406 -6.320312 7.6875 -6.488281 7.25 -6.625 C 6.820312 -6.757812 6.378906 -6.898438 5.921875 -7.046875 C 5.484375 -7.171875 5.019531 -7.328125 4.53125 -7.515625 C 4.039062 -7.703125 3.59375 -7.957031 3.1875 -8.28125 C 2.789062 -8.613281 2.457031 -9.03125 2.1875 -9.53125 C 1.925781 -10.039062 1.796875 -10.691406 1.796875 -11.484375 C 1.796875 -12.660156 2.09375 -13.644531 2.6875 -14.4375 C 3.28125 -15.238281 4.03125 -15.882812 4.9375 -16.375 C 5.84375 -16.875 6.835938 -17.226562 7.921875 -17.4375 C 9.003906 -17.644531 10.035156 -17.75 11.015625 -17.75 C 12.296875 -17.75 13.398438 -17.597656 14.328125 -17.296875 C 15.253906 -16.992188 15.957031 -16.644531 16.4375 -16.25 L 15.421875 -12.421875 Z M 10.84375 -12.421875 "/></g></g></g><path stroke-linecap="butt" transform="matrix(0.351776, 0, 0, 0.351776, 29.081606, 119.392828)" fill="none" stroke-linejoin="miter" d="M 33.514225 30.297587 L 52.62486 30.297587 L 53.96849 64.199255 L 67.038344 30.297587 L 82.528952 30.297587 L 84.561053 64.199255 L 97.708637 30.297587 L 105.925877 30.297587 L 86.604259 80.000786 L 68.98161 80.000786 L 67.338162 51.906708 L 55.611938 80.000786 L 36.82333 80.000786 Z M 111.86672 30.297587 L 144.813411 30.297587 L 143.569721 36.23843 L 127.601624 36.23843 L 124.314728 51.351489 L 137.706609 51.351489 L 136.44071 57.225705 L 123.071038 57.225705 L 119.462115 73.982213 L 135.430211 73.982213 L 134.253147 80.000786 L 101.306456 80.000786 Z M 188.653498 41.646262 C 188.653498 43.167562 188.43141 44.522296 187.987235 45.721569 C 187.54306 46.920842 186.921215 47.986863 186.132804 48.930735 C 185.355497 49.874607 184.444938 50.707435 183.401127 51.42922 C 182.357315 52.162109 181.213564 52.828372 179.958769 53.461321 C 180.536197 53.672304 181.213564 54.005436 181.990871 54.449611 C 182.779282 54.882682 183.534379 55.493422 184.256164 56.281833 C 185.000157 57.05914 185.610898 58.069638 186.110595 59.302224 C 186.610292 60.523706 186.854588 62.022797 186.854588 63.799498 C 186.854588 66.142521 186.365996 68.307875 185.366602 70.295559 C 184.378312 72.283243 182.90143 73.993317 180.935955 75.436886 C 178.981584 76.858247 176.583038 77.979789 173.729213 78.801513 C 170.886492 79.601028 167.621805 80.000786 163.924047 80.000786 L 140.671478 80.000786 L 151.242846 30.297587 L 171.81926 30.297587 C 173.862466 30.297587 175.872358 30.441944 177.882251 30.741763 C 179.892143 31.019372 181.691052 31.574591 183.290083 32.418524 C 184.878009 33.251352 186.166117 34.406208 187.165511 35.894194 C 188.153801 37.382181 188.653498 39.303238 188.653498 41.646262 Z M 167.366404 51.129402 C 168.510155 51.129402 169.48734 50.785166 170.286856 50.118903 C 171.10858 49.430432 171.774842 48.575395 172.296748 47.553792 C 172.818654 46.532189 173.207307 45.432855 173.462708 44.266896 C 173.729213 43.089832 173.862466 42.034916 173.862466 41.091043 C 173.862466 39.591952 173.507125 38.303844 172.796445 37.237824 C 172.096869 36.160699 170.986432 35.627689 169.465132 35.627689 L 167.122108 35.627689 L 163.757481 51.129402 Z M 161.72538 75.070442 C 163.302202 75.070442 164.601414 74.626267 165.645225 73.749021 C 166.689037 72.860671 167.555179 71.761337 168.232546 70.462125 C 168.898808 69.151808 169.376297 67.78597 169.66501 66.353505 C 169.953724 64.92104 170.098081 63.644036 170.098081 62.555807 C 170.098081 60.723585 169.720532 59.268911 168.95433 58.191786 C 168.199232 57.125766 166.988855 56.592756 165.323198 56.592756 L 162.43606 56.592756 L 158.593945 75.070442 Z M 204.299567 80.000786 L 214.870936 30.297587 L 235.924837 30.297587 C 239.167316 30.297587 241.987828 30.619614 244.408583 31.274773 C 246.840442 31.918827 248.861438 33.007056 250.449365 34.517251 C 252.037291 36.038551 253.236564 38.026235 254.047183 40.480303 C 254.846698 42.923266 255.246456 45.932552 255.246456 49.485954 C 255.246456 53.294755 254.757863 57.025827 253.791783 60.679167 C 252.836806 64.321403 251.237775 67.586091 248.994691 70.462125 C 246.751607 73.327054 243.820051 75.636765 240.188919 77.380153 C 236.557787 79.12354 232.082722 80.000786 226.774829 80.000786 Z M 225.742122 74.515223 C 227.463301 74.515223 228.984601 73.804543 230.306022 72.372078 C 231.649652 70.939613 232.804507 69.107391 233.770588 66.886515 C 234.736669 64.676743 235.547289 62.222676 236.191342 59.535416 C 236.846501 56.848157 237.368407 54.249732 237.75706 51.762351 C 238.156817 49.252762 238.445531 46.998573 238.623201 45.010889 C 238.800871 43.023205 238.889706 41.612949 238.889706 40.791225 C 238.889706 39.169986 238.567679 37.904087 237.912521 37.004632 C 237.268467 36.082969 236.135821 35.627689 234.514581 35.627689 L 230.750197 35.627689 L 222.377496 74.515223 Z M 266.683966 30.297587 L 299.619553 30.297587 L 298.386967 36.23843 L 282.407766 36.23843 L 279.12087 51.351489 L 292.512751 51.351489 L 291.257956 57.225705 L 277.87718 57.225705 L 274.268257 73.982213 L 290.247457 73.982213 L 289.059289 80.000786 L 256.112598 80.000786 Z M 326.325583 44.711071 C 326.481045 43.911556 326.547671 42.845535 326.547671 41.490801 C 326.547671 40.70239 326.503253 39.936188 326.403314 39.18109 C 326.303375 38.437097 326.1146 37.75973 325.848095 37.160093 C 325.592694 36.549353 325.204041 36.071864 324.682135 35.738733 C 324.16023 35.394497 323.471758 35.227932 322.63893 35.227932 C 321.706162 35.227932 320.851125 35.438915 320.051609 35.860881 C 319.274303 36.282847 318.585831 36.815858 317.975091 37.459912 C 317.375454 38.11507 316.897966 38.870168 316.55373 39.736309 C 316.231703 40.591346 316.065138 41.490801 316.065138 42.434673 C 316.065138 43.778303 316.409373 44.822115 317.108949 45.566108 C 317.830734 46.287893 318.752397 46.887529 319.907253 47.365017 C 321.051004 47.831401 322.350216 48.231159 323.804889 48.542081 C 325.270667 48.853004 326.780863 49.219449 328.34658 49.641415 C 329.656897 49.996755 330.967214 50.463139 332.266426 51.051671 C 333.576743 51.617994 334.742702 52.395301 335.742096 53.361382 C 336.763699 54.316358 337.585423 55.571153 338.207268 57.103557 C 338.851322 58.647066 339.162245 60.568123 339.162245 62.855625 C 339.162245 66.142521 338.507087 68.907512 337.19677 71.150596 C 335.897558 73.393681 334.098648 75.225903 331.788938 76.636159 C 329.490331 78.035311 326.769758 79.056914 323.605011 79.689863 C 320.462471 80.322813 317.031218 80.633736 313.33346 80.633736 C 309.569076 80.633736 306.504268 80.378335 304.116826 79.889742 C 301.751594 79.390045 299.886058 78.857035 298.542428 78.279607 C 296.921189 77.60224 295.721916 76.824934 294.922401 75.925479 L 297.598556 65.209754 L 311.356881 65.209754 C 311.312464 65.676138 311.256942 66.320192 311.212524 67.141916 C 311.157002 67.941431 311.134793 68.57438 311.134793 69.051869 C 311.134793 69.673714 311.212524 70.328872 311.356881 70.995135 C 311.523447 71.672502 311.778847 72.294347 312.111979 72.871775 C 312.44511 73.449203 312.933703 73.915586 313.555548 74.282031 C 314.188498 74.65958 314.965804 74.83725 315.909676 74.83725 C 316.953488 74.83725 317.875151 74.604058 318.674667 74.137674 C 319.496391 73.660186 320.173758 73.071654 320.728977 72.372078 C 321.273091 71.661398 321.683953 70.884091 321.961563 70.029054 C 322.261381 69.162912 322.405738 68.307875 322.405738 67.486151 C 322.405738 66.3424 322.128128 65.376319 321.584014 64.599013 C 321.039899 63.810602 320.295906 63.144339 319.352034 62.58912 C 318.419266 62.045006 317.331037 61.567517 316.098451 61.178864 C 314.876969 60.779107 313.61107 60.379349 312.311858 59.957383 C 311.057063 59.602042 309.735642 59.157867 308.347594 58.635962 C 306.970652 58.114056 305.704752 57.381167 304.561001 56.437295 C 303.41725 55.493422 302.451169 54.316358 301.696072 52.883893 C 300.940974 51.440324 300.563425 49.608102 300.563425 47.365017 C 300.563425 44.022599 301.407358 41.224296 303.106328 38.959003 C 304.805298 36.671501 306.937338 34.828174 309.524659 33.429022 C 312.111979 32.018766 314.943595 31.008268 318.008404 30.408631 C 321.095421 29.808995 324.015873 29.509177 326.780863 29.509177 C 330.434203 29.509177 333.587847 29.942247 336.219585 30.808389 C 338.862427 31.663426 340.850111 32.66282 342.204845 33.817675 L 339.317706 44.711071 Z M 369.210693 57.303436 L 389.487289 57.303436 L 384.934493 80.000786 L 375.706755 80.000786 L 374.218768 74.992711 L 373.907846 74.992711 C 372.542007 76.558429 370.942976 77.890954 369.088545 78.990287 C 367.245218 80.078517 364.835568 80.633736 361.84849 80.633736 C 359.560988 80.633736 357.351217 80.256187 355.241385 79.501089 C 353.120449 78.734887 351.243809 77.535614 349.600361 75.892166 C 347.956913 74.248718 346.635492 72.094468 345.647202 69.429418 C 344.647808 66.775471 344.159215 63.555201 344.159215 59.801921 C 344.159215 55.737719 344.781061 51.873395 346.024751 48.220054 C 347.29065 44.566714 349.16729 41.346444 351.665775 38.548141 C 354.175365 35.760942 357.3068 33.562275 361.071184 31.941035 C 364.824464 30.319796 369.210693 29.509177 374.218768 29.509177 C 378.071988 29.509177 381.436614 29.964456 384.301544 30.852806 C 387.188682 31.730052 389.898151 32.718342 392.463262 33.817675 L 389.487289 49.008465 L 376.261974 49.008465 C 376.306391 48.431038 376.384122 47.753671 376.484061 46.976364 C 376.595105 46.187953 376.661731 45.366229 376.717253 44.511192 C 376.772775 43.64505 376.817193 42.801118 376.872715 41.968289 C 376.939341 41.135461 376.96155 40.402572 376.96155 39.780727 C 376.96155 39.35876 376.939341 38.870168 376.872715 38.326053 C 376.817193 37.770834 376.695045 37.237824 376.484061 36.715918 C 376.284183 36.194012 375.97326 35.772046 375.551294 35.438915 C 375.129327 35.094679 374.529691 34.917009 373.752384 34.917009 C 372.39765 34.917009 371.15396 35.483332 370.032417 36.604874 C 368.910875 37.726417 367.900377 39.214403 367.012026 41.079939 C 366.134781 42.923266 365.357474 45.021993 364.702316 47.365017 C 364.047157 49.708041 363.503043 52.095483 363.058868 54.527341 C 362.625797 56.948096 362.281561 59.324433 362.037265 61.656353 C 361.815177 63.977168 361.693029 65.998165 361.693029 67.708239 C 361.693029 68.230145 361.726342 68.896407 361.77076 69.684818 C 361.826282 70.462125 361.992847 71.228327 362.270457 71.994529 C 362.559171 72.749627 362.981137 73.393681 363.536356 73.937795 C 364.08047 74.493014 364.879986 74.759519 365.923797 74.759519 C 367.644976 74.759519 369.310633 73.826751 370.931872 71.950111 C 372.542007 70.073471 373.774593 66.930932 374.618526 62.555807 L 368.044734 62.555807 Z M 408.58682 80.000786 L 391.674851 80.000786 L 402.235115 30.297587 L 419.224814 30.297587 Z M 458.900759 80.000786 L 440.589639 80.000786 L 431.89491 44.078121 L 424.232889 80.000786 L 417.181609 80.000786 L 427.752977 30.297587 L 446.463855 30.297587 L 454.681095 66.69774 L 462.420847 30.297587 L 469.616484 30.297587 Z M 498.432347 44.711071 C 498.587808 43.911556 498.654434 42.845535 498.654434 41.490801 C 498.654434 40.70239 498.610017 39.936188 498.510077 39.18109 C 498.399034 38.437097 498.221364 37.75973 497.954859 37.160093 C 497.699458 36.549353 497.310805 36.071864 496.788899 35.738733 C 496.266993 35.394497 495.578522 35.227932 494.745693 35.227932 C 493.812925 35.227932 492.946784 35.438915 492.158373 35.860881 C 491.381066 36.282847 490.692595 36.815858 490.081854 37.459912 C 489.482218 38.11507 489.004729 38.870168 488.660494 39.736309 C 488.338467 40.591346 488.171901 41.490801 488.171901 42.434673 C 488.171901 43.778303 488.516137 44.822115 489.215713 45.566108 C 489.937497 46.287893 490.859161 46.887529 492.014016 47.365017 C 493.157767 47.831401 494.456979 48.231159 495.911653 48.542081 C 497.377431 48.853004 498.887626 49.219449 500.453344 49.641415 C 501.76366 49.996755 503.073977 50.463139 504.373189 51.051671 C 505.683506 51.617994 506.849466 52.395301 507.84886 53.361382 C 508.870463 54.316358 509.692187 55.571153 510.314032 57.103557 C 510.946981 58.647066 511.269008 60.568123 511.269008 62.855625 C 511.269008 66.142521 510.61385 68.907512 509.303533 71.150596 C 508.004321 73.393681 506.205412 75.225903 503.895701 76.636159 C 501.597095 78.035311 498.876522 79.056914 495.711774 79.689863 C 492.569235 80.322813 489.137982 80.633736 485.440224 80.633736 C 481.67584 80.633736 478.611031 80.378335 476.22359 79.889742 C 473.858357 79.390045 471.992821 78.857035 470.649192 78.279607 C 469.027952 77.60224 467.82868 76.824934 467.029164 75.925479 L 469.705319 65.209754 L 483.463645 65.209754 C 483.419227 65.676138 483.363705 66.320192 483.319288 67.141916 C 483.263766 67.941431 483.241557 68.57438 483.241557 69.051869 C 483.241557 69.673714 483.319288 70.328872 483.463645 70.995135 C 483.63021 71.672502 483.885611 72.294347 484.207638 72.871775 C 484.551874 73.449203 485.040466 73.915586 485.662311 74.282031 C 486.284157 74.65958 487.072568 74.83725 488.01644 74.83725 C 489.060251 74.83725 489.981915 74.604058 490.78143 74.137674 C 491.603154 73.660186 492.280521 73.071654 492.83574 72.372078 C 493.379855 71.661398 493.790717 70.884091 494.068326 70.029054 C 494.368144 69.162912 494.512501 68.307875 494.512501 67.486151 C 494.512501 66.3424 494.234892 65.376319 493.690777 64.599013 C 493.146663 63.810602 492.402669 63.144339 491.458797 62.58912 C 490.526029 62.045006 489.4378 61.567517 488.205214 61.178864 C 486.983733 60.779107 485.717833 60.379349 484.418621 59.957383 C 483.163826 59.602042 481.842405 59.157867 480.443254 58.635962 C 479.077415 58.114056 477.811516 57.381167 476.667765 56.437295 C 475.512909 55.493422 474.557933 54.316358 473.802835 52.883893 C 473.047737 51.440324 472.670189 49.608102 472.670189 47.365017 C 472.670189 44.022599 473.514121 41.224296 475.213091 38.959003 C 476.912061 36.671501 479.044102 34.828174 481.631422 33.429022 C 484.218742 32.018766 487.050359 31.008268 490.115167 30.408631 C 493.202185 29.808995 496.122636 29.509177 498.887626 29.509177 C 502.540967 29.509177 505.69461 29.942247 508.326348 30.808389 C 510.96919 31.663426 512.956874 32.66282 514.311608 33.817675 L 511.42447 44.711071 Z M 498.432347 44.711071 " stroke="#e7f65d" stroke-width="0.978436" stroke-opacity="1" stroke-miterlimit="4"/></svg>