<svg xmlns="http://www.w3.org/2000/svg" xmlns:xlink="http://www.w3.org/1999/xlink" width="343" zoomAndPan="magnify" viewBox="0 0 257.25 237.749993" height="317" preserveAspectRatio="xMidYMid meet" version="1.0"><defs><g/><clipPath id="fe4abfe78a"><path d="M 9.964844 214 L 246.273438 214 L 246.273438 216 L 9.964844 216 Z M 9.964844 214 " clip-rule="nonzero"/></clipPath><clipPath id="9c0e3fc1ef"><path d="M 9.964844 193 L 246.273438 193 L 246.273438 195 L 9.964844 195 Z M 9.964844 193 " clip-rule="nonzero"/></clipPath><clipPath id="8301e151ba"><path d="M 9.964844 171 L 246.273438 171 L 246.273438 173 L 9.964844 173 Z M 9.964844 171 " clip-rule="nonzero"/></clipPath><clipPath id="a3ba44fa1d"><path d="M 9.964844 150 L 246.273438 150 L 246.273438 152 L 9.964844 152 Z M 9.964844 150 " clip-rule="nonzero"/></clipPath><clipPath id="5f3acc3fa4"><path d="M 9.964844 128 L 246.273438 128 L 246.273438 130 L 9.964844 130 Z M 9.964844 128 " clip-rule="nonzero"/></clipPath><clipPath id="64dad048d6"><path d="M 9.964844 107 L 246.273438 107 L 246.273438 109 L 9.964844 109 Z M 9.964844 107 " clip-rule="nonzero"/></clipPath><clipPath id="e291f6523c"><path d="M 9.964844 85 L 246.273438 85 L 246.273438 87 L 9.964844 87 Z M 9.964844 85 " clip-rule="nonzero"/></clipPath><clipPath id="43c15c4955"><path d="M 9.964844 64 L 246.273438 64 L 246.273438 66 L 9.964844 66 Z M 9.964844 64 " clip-rule="nonzero"/></clipPath><clipPath id="933970cad8"><path d="M 9.964844 42 L 246.273438 42 L 246.273438 44 L 9.964844 44 Z M 9.964844 42 " clip-rule="nonzero"/></clipPath><clipPath id="242521b066"><path d="M 9.964844 21 L 246.273438 21 L 246.273438 23 L 9.964844 23 Z M 9.964844 21 " clip-rule="nonzero"/></clipPath><clipPath id="1ad7e595bb"><path d="M 224 0.222656 L 226 0.222656 L 226 236.53125 L 224 236.53125 Z M 224 0.222656 " clip-rule="nonzero"/></clipPath><clipPath id="cc924863b1"><path d="M 202 0.222656 L 204 0.222656 L 204 236.53125 L 202 236.53125 Z M 202 0.222656 " clip-rule="nonzero"/></clipPath><clipPath id="8e11171056"><path d="M 181 0.222656 L 183 0.222656 L 183 236.53125 L 181 236.53125 Z M 181 0.222656 " clip-rule="nonzero"/></clipPath><clipPath id="abb8cc908f"><path d="M 159 0.222656 L 161 0.222656 L 161 236.53125 L 159 236.53125 Z M 159 0.222656 " clip-rule="nonzero"/></clipPath><clipPath id="5bd06bdf74"><path d="M 138 0.222656 L 140 0.222656 L 140 236.53125 L 138 236.53125 Z M 138 0.222656 " clip-rule="nonzero"/></clipPath><clipPath id="fefb11646b"><path d="M 116 0.222656 L 118 0.222656 L 118 236.53125 L 116 236.53125 Z M 116 0.222656 " clip-rule="nonzero"/></clipPath><clipPath id="47a2a9c877"><path d="M 95 0.222656 L 97 0.222656 L 97 236.53125 L 95 236.53125 Z M 95 0.222656 " clip-rule="nonzero"/></clipPath><clipPath id="f0972abbf5"><path d="M 73 0.222656 L 75 0.222656 L 75 236.53125 L 73 236.53125 Z M 73 0.222656 " clip-rule="nonzero"/></clipPath><clipPath id="08b39f9d23"><path d="M 52 0.222656 L 54 0.222656 L 54 236.53125 L 52 236.53125 Z M 52 0.222656 " clip-rule="nonzero"/></clipPath><clipPath id="66eb45b61b"><path d="M 30 0.222656 L 32 0.222656 L 32 236.53125 L 30 236.53125 Z M 30 0.222656 " clip-rule="nonzero"/></clipPath><clipPath id="0ebbab12e1"><path d="M 57.371094 27.675781 L 120.1875 27.675781 L 120.1875 90.492188 L 57.371094 90.492188 Z M 57.371094 27.675781 " clip-rule="nonzero"/></clipPath><clipPath id="ab9a550078"><path d="M 57.371094 55 L 92 55 L 92 90 L 57.371094 90 Z M 57.371094 55 " clip-rule="nonzero"/></clipPath><clipPath id="25dd312a27"><path d="M 0 0.222656 L 256.503906 0.222656 L 256.503906 223 L 0 223 Z M 0 0.222656 " clip-rule="nonzero"/></clipPath><clipPath id="04c54edf8d"><path d="M 104.886719 151.875 L 167.410156 151.875 L 167.410156 214.691406 L 104.886719 214.691406 Z M 104.886719 151.875 " clip-rule="nonzero"/></clipPath><clipPath id="4990d0c276"><path d="M 133 180 L 167.410156 180 L 167.410156 214 L 133 214 Z M 133 180 " clip-rule="nonzero"/></clipPath><clipPath id="6e22fa39b0"><path d="M 33.566406 185.488281 L 82.664062 185.488281 L 82.664062 234.84375 L 33.566406 234.84375 Z M 33.566406 185.488281 " clip-rule="nonzero"/></clipPath><clipPath id="56b7e7017a"><path d="M 33.566406 185.488281 L 82 185.488281 L 82 233 L 33.566406 233 Z M 33.566406 185.488281 " clip-rule="nonzero"/></clipPath><clipPath id="33e1b72dae"><path d="M 58 185.488281 L 74 185.488281 L 74 196 L 58 196 Z M 58 185.488281 " clip-rule="nonzero"/></clipPath><clipPath id="636d49d3b5"><path d="M 181.855469 39.425781 L 206.535156 39.425781 L 206.535156 63.734375 L 181.855469 63.734375 Z M 181.855469 39.425781 " clip-rule="nonzero"/></clipPath><clipPath id="98f8acdf22"><path d="M 182 39.425781 L 206.535156 39.425781 L 206.535156 63 L 182 63 Z M 182 39.425781 " clip-rule="nonzero"/></clipPath><clipPath id="e88f4c6cc8"><path d="M 186 39.425781 L 194 39.425781 L 194 45 L 186 45 Z M 186 39.425781 " clip-rule="nonzero"/></clipPath></defs><g clip-path="url(#fe4abfe78a)"><path fill="#f5f5f5" d="M 9.964844 214.648438 L 246.378906 214.648438 L 246.378906 215.625 L 9.964844 215.625 Z M 9.964844 214.648438 " fill-opacity="1" fill-rule="nonzero"/></g><g clip-path="url(#9c0e3fc1ef)"><path fill="#f5f5f5" d="M 9.964844 193.15625 L 246.378906 193.15625 L 246.378906 194.132812 L 9.964844 194.132812 Z M 9.964844 193.15625 " fill-opacity="1" fill-rule="nonzero"/></g><g clip-path="url(#8301e151ba)"><path fill="#f5f5f5" d="M 9.964844 171.667969 L 246.378906 171.667969 L 246.378906 172.644531 L 9.964844 172.644531 Z M 9.964844 171.667969 " fill-opacity="1" fill-rule="nonzero"/></g><g clip-path="url(#a3ba44fa1d)"><path fill="#f5f5f5" d="M 9.964844 150.179688 L 246.378906 150.179688 L 246.378906 151.15625 L 9.964844 151.15625 Z M 9.964844 150.179688 " fill-opacity="1" fill-rule="nonzero"/></g><g clip-path="url(#5f3acc3fa4)"><path fill="#f5f5f5" d="M 9.964844 128.679688 L 246.378906 128.679688 L 246.378906 129.65625 L 9.964844 129.65625 Z M 9.964844 128.679688 " fill-opacity="1" fill-rule="nonzero"/></g><g clip-path="url(#64dad048d6)"><path fill="#f5f5f5" d="M 9.964844 107.191406 L 246.378906 107.191406 L 246.378906 108.167969 L 9.964844 108.167969 Z M 9.964844 107.191406 " fill-opacity="1" fill-rule="nonzero"/></g><g clip-path="url(#e291f6523c)"><path fill="#f5f5f5" d="M 9.964844 85.699219 L 246.378906 85.699219 L 246.378906 86.675781 L 9.964844 86.675781 Z M 9.964844 85.699219 " fill-opacity="1" fill-rule="nonzero"/></g><g clip-path="url(#43c15c4955)"><path fill="#f5f5f5" d="M 9.964844 64.199219 L 246.378906 64.199219 L 246.378906 65.175781 L 9.964844 65.175781 Z M 9.964844 64.199219 " fill-opacity="1" fill-rule="nonzero"/></g><g clip-path="url(#933970cad8)"><path fill="#f5f5f5" d="M 9.964844 42.710938 L 246.378906 42.710938 L 246.378906 43.6875 L 9.964844 43.6875 Z M 9.964844 42.710938 " fill-opacity="1" fill-rule="nonzero"/></g><g clip-path="url(#242521b066)"><path fill="#f5f5f5" d="M 9.964844 21.222656 L 246.378906 21.222656 L 246.378906 22.199219 L 9.964844 22.199219 Z M 9.964844 21.222656 " fill-opacity="1" fill-rule="nonzero"/></g><g clip-path="url(#1ad7e595bb)"><path fill="#f5f5f5" d="M 224.390625 0.222656 L 225.367188 0.222656 L 225.367188 236.636719 L 224.390625 236.636719 Z M 224.390625 0.222656 " fill-opacity="1" fill-rule="nonzero"/></g><g clip-path="url(#cc924863b1)"><path fill="#f5f5f5" d="M 202.902344 0.222656 L 203.878906 0.222656 L 203.878906 236.636719 L 202.902344 236.636719 Z M 202.902344 0.222656 " fill-opacity="1" fill-rule="nonzero"/></g><g clip-path="url(#8e11171056)"><path fill="#f5f5f5" d="M 181.410156 0.222656 L 182.386719 0.222656 L 182.386719 236.636719 L 181.410156 236.636719 Z M 181.410156 0.222656 " fill-opacity="1" fill-rule="nonzero"/></g><g clip-path="url(#abb8cc908f)"><path fill="#f5f5f5" d="M 159.921875 0.222656 L 160.898438 0.222656 L 160.898438 236.636719 L 159.921875 236.636719 Z M 159.921875 0.222656 " fill-opacity="1" fill-rule="nonzero"/></g><g clip-path="url(#5bd06bdf74)"><path fill="#f5f5f5" d="M 138.421875 0.222656 L 139.398438 0.222656 L 139.398438 236.636719 L 138.421875 236.636719 Z M 138.421875 0.222656 " fill-opacity="1" fill-rule="nonzero"/></g><g clip-path="url(#fefb11646b)"><path fill="#f5f5f5" d="M 116.933594 0.222656 L 117.910156 0.222656 L 117.910156 236.636719 L 116.933594 236.636719 Z M 116.933594 0.222656 " fill-opacity="1" fill-rule="nonzero"/></g><g clip-path="url(#47a2a9c877)"><path fill="#f5f5f5" d="M 95.445312 0.222656 L 96.421875 0.222656 L 96.421875 236.636719 L 95.445312 236.636719 Z M 95.445312 0.222656 " fill-opacity="1" fill-rule="nonzero"/></g><g clip-path="url(#f0972abbf5)"><path fill="#f5f5f5" d="M 73.941406 0.222656 L 74.917969 0.222656 L 74.917969 236.636719 L 73.941406 236.636719 Z M 73.941406 0.222656 " fill-opacity="1" fill-rule="nonzero"/></g><g clip-path="url(#08b39f9d23)"><path fill="#f5f5f5" d="M 52.453125 0.222656 L 53.429688 0.222656 L 53.429688 236.636719 L 52.453125 236.636719 Z M 52.453125 0.222656 " fill-opacity="1" fill-rule="nonzero"/></g><g clip-path="url(#66eb45b61b)"><path fill="#f5f5f5" d="M 30.964844 0.222656 L 31.941406 0.222656 L 31.941406 236.636719 L 30.964844 236.636719 Z M 30.964844 0.222656 " fill-opacity="1" fill-rule="nonzero"/></g><path fill="#5f7dfe" d="M 109.046875 65.96875 C 44.109375 103.476562 0.0351562 148.691406 10.566406 166.960938 C 21.097656 185.226562 82.316406 169.632812 147.246094 132.121094 C 212.179688 94.613281 256.289062 49.421875 245.734375 31.136719 C 235.179688 12.847656 173.988281 28.46875 109.046875 65.96875 Z M 146.832031 131.394531 C 89.832031 164.316406 35.277344 176.527344 24.933594 158.660156 C 14.589844 140.789062 52.464844 99.605469 109.46875 66.695312 C 166.46875 33.789062 221.046875 21.566406 231.367188 39.421875 C 241.6875 57.277344 203.839844 98.476562 146.832031 131.394531 Z M 146.832031 131.394531 " fill-opacity="1" fill-rule="nonzero"/><path fill="#5f7dfe" d="M 147.515625 93.488281 C 86.078125 48.246094 25.921875 25.582031 13.214844 42.871094 C 0.507812 60.15625 39.964844 110.859375 101.421875 156.101562 C 162.882812 201.34375 223.019531 224.007812 235.722656 206.714844 C 248.429688 189.425781 208.96875 138.734375 147.515625 93.488281 Z M 101.953125 155.40625 C 47.984375 115.6875 14.324219 69.789062 26.792969 52.878906 C 39.257812 35.972656 93.0625 54.460938 147.003906 94.191406 C 200.949219 133.917969 234.59375 179.792969 222.144531 196.699219 C 209.695312 213.609375 155.878906 195.121094 101.953125 155.40625 Z M 101.953125 155.40625 " fill-opacity="1" fill-rule="nonzero"/><path fill="#5f7dfe" d="M 88.707031 43.230469 C 88.707031 43.230469 88.285156 59.96875 103.539062 59.121094 C 103.539062 59.121094 88.921875 58.910156 88.296875 73.949219 C 88.296875 73.949219 88.097656 59.972656 74.425781 58.929688 L 74.105469 58.929688 C 74.105469 58.929688 87.859375 58.472656 88.707031 43.230469 Z M 88.707031 43.230469 " fill-opacity="1" fill-rule="nonzero"/><path fill="#5f7dfe" d="M 136.671875 151.816406 C 136.671875 151.816406 136.027344 177.113281 159.085938 175.832031 C 159.085938 175.832031 136.988281 175.511719 136.027344 198.25 C 136.027344 198.25 135.722656 177.117188 115.074219 175.546875 L 114.597656 175.511719 C 114.597656 175.511719 135.390625 174.871094 136.671875 151.816406 Z M 136.671875 151.816406 " fill-opacity="1" fill-rule="nonzero"/><g clip-path="url(#0ebbab12e1)"><path fill="#e7f65d" d="M 120.480469 59.230469 C 88.925781 59.230469 88.925781 59.230469 88.925781 90.785156 C 88.925781 59.230469 88.925781 59.230469 57.371094 59.230469 C 88.925781 59.230469 88.925781 59.230469 88.925781 27.675781 C 88.925781 59.230469 88.925781 59.230469 120.480469 59.230469 Z M 120.480469 59.230469 " fill-opacity="1" fill-rule="nonzero"/></g><g clip-path="url(#ab9a550078)"><path fill="#e7f65d" d="M 91.253906 72.695312 C 74.511719 72.695312 74.511719 72.695312 74.511719 89.4375 C 74.511719 72.695312 74.511719 72.695312 57.769531 72.695312 C 74.511719 72.695312 74.511719 72.695312 74.511719 55.953125 C 74.511719 72.695312 74.511719 72.695312 91.253906 72.695312 Z M 91.253906 72.695312 " fill-opacity="1" fill-rule="nonzero"/></g><path fill="#e7f65d" d="M 70.660156 64.96875 C 66.691406 64.96875 66.691406 64.96875 66.691406 68.941406 C 66.691406 64.96875 66.691406 64.96875 62.71875 64.96875 C 66.691406 64.96875 66.691406 64.96875 66.691406 61 C 66.691406 64.96875 66.691406 64.96875 70.660156 64.96875 Z M 70.660156 64.96875 " fill-opacity="1" fill-rule="nonzero"/><path fill="#e7f65d" d="M 83.9375 80.136719 C 81.828125 80.136719 81.828125 80.136719 81.828125 82.242188 C 81.828125 80.136719 81.828125 80.136719 79.71875 80.136719 C 81.828125 80.136719 81.828125 80.136719 81.828125 78.027344 C 81.828125 80.136719 81.828125 80.136719 83.9375 80.136719 Z M 83.9375 80.136719 " fill-opacity="1" fill-rule="nonzero"/><path fill="#e7f65d" d="M 103.226562 75.007812 C 101.96875 75.007812 101.96875 75.007812 101.96875 76.269531 C 101.96875 75.007812 101.96875 75.007812 100.707031 75.007812 C 101.96875 75.007812 101.96875 75.007812 101.96875 73.75 C 101.96875 75.007812 101.96875 75.007812 103.226562 75.007812 Z M 103.226562 75.007812 " fill-opacity="1" fill-rule="nonzero"/><path fill="#e7f65d" d="M 102.597656 51.773438 C 101.339844 51.773438 101.339844 51.773438 101.339844 53.035156 C 101.339844 51.773438 101.339844 51.773438 100.078125 51.773438 C 101.339844 51.773438 101.339844 51.773438 101.339844 50.515625 C 101.339844 51.773438 101.339844 51.773438 102.597656 51.773438 Z M 102.597656 51.773438 " fill-opacity="1" fill-rule="nonzero"/><path fill="#e7f65d" d="M 79.226562 51.773438 C 77.96875 51.773438 77.96875 51.773438 77.96875 53.035156 C 77.96875 51.773438 77.96875 51.773438 76.707031 51.773438 C 77.96875 51.773438 77.96875 51.773438 77.96875 50.515625 C 77.96875 51.773438 77.96875 51.773438 79.226562 51.773438 Z M 79.226562 51.773438 " fill-opacity="1" fill-rule="nonzero"/><g clip-path="url(#25dd312a27)"><path stroke-linecap="butt" transform="matrix(0.997397, 0, 0, 0.997397, 36.911564, 54.083322)" fill="none" stroke-linejoin="miter" d="M 10.569076 30.296333 L 27.554703 30.296333 L 18.307974 73.428154 L 34.204829 73.428154 L 32.865404 79.999951 L -0.00141167 79.999951 Z M 65.508982 57.300229 L 85.784424 57.300229 L 81.233513 79.999951 L 72.006366 79.999951 L 70.5142 74.994733 L 70.208718 74.994733 C 68.845794 76.561311 67.240052 77.892903 65.395405 78.985591 C 63.546843 80.082196 61.134312 80.630499 58.14998 80.630499 C 55.858859 80.630499 53.6539 80.25452 51.539019 79.502562 C 49.424138 78.738855 47.544244 77.536506 45.903253 75.891599 C 44.258346 74.246691 42.94242 72.096563 41.947643 69.433379 C 40.952865 66.770196 40.455477 63.55871 40.455477 59.802838 C 40.455477 55.737567 41.082108 51.879868 42.327538 48.221907 C 43.588633 44.563946 45.468528 41.344628 47.96722 38.552202 C 50.477662 35.763692 53.610819 33.558733 57.366691 31.941241 C 61.126479 30.323748 65.508982 29.513044 70.5142 29.513044 C 74.375816 29.513044 77.736127 29.959519 80.602966 30.852469 C 83.481554 31.729753 86.203484 32.716697 88.764839 33.813302 L 85.784424 49.005196 L 72.558585 49.005196 C 72.609499 48.433395 72.687828 47.75585 72.789656 46.980394 C 72.891483 46.189272 72.965896 45.366818 73.01681 44.513033 C 73.067723 43.647498 73.118637 42.801546 73.169551 41.975176 C 73.23613 41.13314 73.267462 40.400764 73.267462 39.774133 C 73.267462 39.355073 73.23613 38.869434 73.169551 38.325048 C 73.118637 37.776745 72.993311 37.240192 72.789656 36.719305 C 72.586 36.194501 72.272685 35.767608 71.853625 35.438627 C 71.430649 35.09398 70.831433 34.921656 70.055976 34.921656 C 68.693053 34.921656 67.45154 35.481708 66.331436 36.601812 C 65.207416 37.725832 64.200889 39.214081 63.311856 41.074393 C 62.430656 42.922956 61.663032 45.018254 60.997236 47.360289 C 60.347106 49.70624 59.80272 52.095272 59.356245 54.527385 C 58.92152 56.947749 58.584706 59.325032 58.341886 61.655317 C 58.114732 63.973853 57.997239 65.99474 57.997239 67.714059 C 57.997239 68.234947 58.024654 68.89291 58.075568 69.680115 C 58.126481 70.459488 58.290972 71.227112 58.572956 71.994735 C 58.86669 72.746693 59.285749 73.392906 59.834052 73.941209 C 60.382354 74.489511 61.177393 74.763662 62.223084 74.763662 C 63.942404 74.763662 65.61081 73.827632 67.228302 71.955571 C 68.845794 70.067843 70.075558 66.934687 70.917594 62.552183 L 64.341881 62.552183 Z M 129.683868 79.999951 L 111.378399 79.999951 L 102.683889 44.074391 L 95.02332 79.999951 L 87.969801 79.999951 L 98.536372 30.296333 L 117.245235 30.296333 L 125.461939 66.6997 L 133.200837 30.296333 L 140.407098 30.296333 Z M 168.813081 61.216675 L 164.822223 79.999951 L 147.852262 79.999951 L 152.15252 59.877251 L 144.468452 30.296333 L 163.27131 30.296333 L 168.585927 49.941227 L 180.3196 30.296333 L 188.78304 30.296333 Z M 168.813081 61.216675 " stroke="#0d0d55" stroke-width="15.557137" stroke-opacity="1" stroke-miterlimit="4"/></g><g fill="#ee82ee" fill-opacity="1"><g transform="translate(36.911564, 133.875049)"><g><path d="M 10.53125 -49.5625 L 27.484375 -49.5625 L 18.265625 -6.5625 L 34.109375 -6.5625 L 32.78125 0 L 0 0 Z M 10.53125 -49.5625 "/></g></g></g><g fill="#ee82ee" fill-opacity="1"><g transform="translate(74.537398, 133.875049)"><g><path d="M 27.71875 -22.640625 L 47.9375 -22.640625 L 43.40625 0 L 34.1875 0 L 32.703125 -5 L 32.390625 -5 C 31.035156 -3.4375 29.4375 -2.109375 27.59375 -1.015625 C 25.75 0.078125 23.34375 0.625 20.375 0.625 C 18.082031 0.625 15.878906 0.25 13.765625 -0.5 C 11.660156 -1.257812 9.789062 -2.457031 8.15625 -4.09375 C 6.519531 -5.738281 5.207031 -7.882812 4.21875 -10.53125 C 3.226562 -13.1875 2.734375 -16.390625 2.734375 -20.140625 C 2.734375 -24.203125 3.359375 -28.050781 4.609375 -31.6875 C 5.859375 -35.332031 7.726562 -38.546875 10.21875 -41.328125 C 12.71875 -44.117188 15.84375 -46.316406 19.59375 -47.921875 C 23.34375 -49.535156 27.710938 -50.34375 32.703125 -50.34375 C 36.554688 -50.34375 39.914062 -49.898438 42.78125 -49.015625 C 45.644531 -48.140625 48.347656 -47.15625 50.890625 -46.0625 L 47.9375 -30.90625 L 34.734375 -30.90625 C 34.785156 -31.476562 34.863281 -32.15625 34.96875 -32.9375 C 35.070312 -33.71875 35.148438 -34.535156 35.203125 -35.390625 C 35.253906 -36.253906 35.304688 -37.101562 35.359375 -37.9375 C 35.410156 -38.769531 35.4375 -39.5 35.4375 -40.125 C 35.4375 -40.539062 35.410156 -41.019531 35.359375 -41.5625 C 35.304688 -42.113281 35.175781 -42.648438 34.96875 -43.171875 C 34.757812 -43.691406 34.445312 -44.117188 34.03125 -44.453125 C 33.613281 -44.796875 33.015625 -44.96875 32.234375 -44.96875 C 30.878906 -44.96875 29.644531 -44.40625 28.53125 -43.28125 C 27.414062 -42.164062 26.414062 -40.679688 25.53125 -38.828125 C 24.644531 -36.984375 23.875 -34.890625 23.21875 -32.546875 C 22.570312 -30.210938 22.023438 -27.832031 21.578125 -25.40625 C 21.140625 -22.988281 20.800781 -20.617188 20.5625 -18.296875 C 20.332031 -15.984375 20.21875 -13.96875 20.21875 -12.25 C 20.21875 -11.726562 20.242188 -11.078125 20.296875 -10.296875 C 20.347656 -9.523438 20.515625 -8.757812 20.796875 -8 C 21.085938 -7.25 21.503906 -6.597656 22.046875 -6.046875 C 22.597656 -5.503906 23.394531 -5.234375 24.4375 -5.234375 C 26.15625 -5.234375 27.816406 -6.164062 29.421875 -8.03125 C 31.035156 -9.90625 32.257812 -13.03125 33.09375 -17.40625 L 26.546875 -17.40625 Z M 27.71875 -22.640625 "/></g></g></g><g fill="#ee82ee" fill-opacity="1"><g transform="translate(124.653138, 133.875049)"><g><path d="M 41.609375 0 L 23.34375 0 L 14.671875 -35.828125 L 7.03125 0 L 0 0 L 10.53125 -49.5625 L 29.203125 -49.5625 L 37.390625 -13.265625 L 45.125 -49.5625 L 52.296875 -49.5625 Z M 41.609375 0 "/></g></g></g><g fill="#ee82ee" fill-opacity="1"><g transform="translate(174.925009, 133.875049)"><g><path d="M 30.359375 -18.734375 L 26.390625 0 L 9.453125 0 L 13.734375 -20.0625 L 6.09375 -49.5625 L 24.828125 -49.5625 L 30.125 -29.96875 L 41.84375 -49.5625 L 50.265625 -49.5625 Z M 30.359375 -18.734375 "/></g></g></g><g clip-path="url(#04c54edf8d)"><path fill="#e7f65d" d="M 104.59375 183.429688 C 136.148438 183.429688 136.148438 183.429688 136.148438 214.984375 C 136.148438 183.429688 136.148438 183.429688 167.703125 183.429688 C 136.148438 183.429688 136.148438 183.429688 136.148438 151.875 C 136.148438 183.429688 136.148438 183.429688 104.59375 183.429688 Z M 104.59375 183.429688 " fill-opacity="1" fill-rule="nonzero"/></g><g clip-path="url(#4990d0c276)"><path fill="#e7f65d" d="M 133.820312 196.890625 C 150.5625 196.890625 150.5625 196.890625 150.5625 213.632812 C 150.5625 196.890625 150.5625 196.890625 167.304688 196.890625 C 150.5625 196.890625 150.5625 196.890625 150.5625 180.148438 C 150.5625 196.890625 150.5625 196.890625 133.820312 196.890625 Z M 133.820312 196.890625 " fill-opacity="1" fill-rule="nonzero"/></g><path fill="#e7f65d" d="M 154.414062 189.167969 C 158.382812 189.167969 158.382812 189.167969 158.382812 193.136719 C 158.382812 189.167969 158.382812 189.167969 162.355469 189.167969 C 158.382812 189.167969 158.382812 189.167969 158.382812 185.195312 C 158.382812 189.167969 158.382812 189.167969 154.414062 189.167969 Z M 154.414062 189.167969 " fill-opacity="1" fill-rule="nonzero"/><path fill="#e7f65d" d="M 141.136719 204.332031 C 143.246094 204.332031 143.246094 204.332031 143.246094 206.441406 C 143.246094 204.332031 143.246094 204.332031 145.351562 204.332031 C 143.246094 204.332031 143.246094 204.332031 143.246094 202.222656 C 143.246094 204.332031 143.246094 204.332031 141.136719 204.332031 Z M 141.136719 204.332031 " fill-opacity="1" fill-rule="nonzero"/><path fill="#e7f65d" d="M 121.84375 199.207031 C 123.105469 199.207031 123.105469 199.207031 123.105469 200.464844 C 123.105469 199.207031 123.105469 199.207031 124.363281 199.207031 C 123.105469 199.207031 123.105469 199.207031 123.105469 197.945312 C 123.105469 199.207031 123.105469 199.207031 121.84375 199.207031 Z M 121.84375 199.207031 " fill-opacity="1" fill-rule="nonzero"/><path fill="#e7f65d" d="M 122.476562 175.96875 C 123.734375 175.96875 123.734375 175.96875 123.734375 177.230469 C 123.734375 175.96875 123.734375 175.96875 124.996094 175.96875 C 123.734375 175.96875 123.734375 175.96875 123.734375 174.710938 C 123.734375 175.96875 123.734375 175.96875 122.476562 175.96875 Z M 122.476562 175.96875 " fill-opacity="1" fill-rule="nonzero"/><path fill="#e7f65d" d="M 145.84375 175.96875 C 147.105469 175.96875 147.105469 175.96875 147.105469 177.230469 C 147.105469 175.96875 147.105469 175.96875 148.363281 175.96875 C 147.105469 175.96875 147.105469 175.96875 147.105469 174.710938 C 147.105469 175.96875 147.105469 175.96875 145.84375 175.96875 Z M 145.84375 175.96875 " fill-opacity="1" fill-rule="nonzero"/><path fill="#0d0d55" d="M 33.164062 145.332031 L 215.289062 145.332031 L 215.289062 185.335938 L 33.164062 185.335938 L 33.164062 145.332031 " fill-opacity="1" fill-rule="nonzero"/><g fill="#ee82ee" fill-opacity="1"><g transform="translate(38.672545, 174.485006)"><g><path d="M 2.15625 -17.5 L 8.875 -17.5 L 9.34375 -5.5625 L 13.9375 -17.5 L 19.390625 -17.5 L 20.109375 -5.5625 L 24.734375 -17.5 L 27.625 -17.5 L 20.828125 0 L 14.625 0 L 14.046875 -9.890625 L 9.921875 0 L 3.3125 0 Z M 2.15625 -17.5 "/></g></g></g><g fill="#ee82ee" fill-opacity="1"><g transform="translate(64.678733, 174.485006)"><g><path d="M 3.71875 -17.5 L 15.3125 -17.5 L 14.875 -15.40625 L 9.25 -15.40625 L 8.09375 -10.078125 L 12.8125 -10.078125 L 12.375 -8.015625 L 7.65625 -8.015625 L 6.390625 -2.125 L 12.015625 -2.125 L 11.59375 0 L 0 0 Z M 3.71875 -17.5 "/></g></g></g><g fill="#ee82ee" fill-opacity="1"><g transform="translate(78.535842, 174.485006)"><g><path d="M 16.890625 -13.5 C 16.890625 -12.96875 16.8125 -12.488281 16.65625 -12.0625 C 16.5 -11.644531 16.28125 -11.269531 16 -10.9375 C 15.726562 -10.601562 15.40625 -10.304688 15.03125 -10.046875 C 14.664062 -9.796875 14.265625 -9.5625 13.828125 -9.34375 C 14.023438 -9.269531 14.257812 -9.15625 14.53125 -9 C 14.8125 -8.84375 15.082031 -8.625 15.34375 -8.34375 C 15.601562 -8.070312 15.816406 -7.71875 15.984375 -7.28125 C 16.160156 -6.851562 16.25 -6.328125 16.25 -5.703125 C 16.25 -4.878906 16.070312 -4.117188 15.71875 -3.421875 C 15.375 -2.722656 14.859375 -2.117188 14.171875 -1.609375 C 13.484375 -1.109375 12.640625 -0.710938 11.640625 -0.421875 C 10.640625 -0.140625 9.488281 0 8.1875 0 L 0 0 L 3.71875 -17.5 L 10.96875 -17.5 C 11.675781 -17.5 12.382812 -17.445312 13.09375 -17.34375 C 13.800781 -17.238281 14.4375 -17.039062 15 -16.75 C 15.5625 -16.457031 16.015625 -16.046875 16.359375 -15.515625 C 16.710938 -14.992188 16.890625 -14.320312 16.890625 -13.5 Z M 9.390625 -10.171875 C 9.796875 -10.171875 10.140625 -10.285156 10.421875 -10.515625 C 10.710938 -10.753906 10.945312 -11.050781 11.125 -11.40625 C 11.3125 -11.769531 11.453125 -12.15625 11.546875 -12.5625 C 11.640625 -12.976562 11.6875 -13.351562 11.6875 -13.6875 C 11.6875 -14.21875 11.5625 -14.671875 11.3125 -15.046875 C 11.0625 -15.429688 10.671875 -15.625 10.140625 -15.625 L 9.3125 -15.625 L 8.125 -10.171875 Z M 7.40625 -1.734375 C 7.957031 -1.734375 8.414062 -1.890625 8.78125 -2.203125 C 9.15625 -2.515625 9.457031 -2.898438 9.6875 -3.359375 C 9.925781 -3.816406 10.097656 -4.296875 10.203125 -4.796875 C 10.304688 -5.304688 10.359375 -5.753906 10.359375 -6.140625 C 10.359375 -6.785156 10.222656 -7.296875 9.953125 -7.671875 C 9.691406 -8.046875 9.265625 -8.234375 8.671875 -8.234375 L 7.65625 -8.234375 L 6.3125 -1.734375 Z M 7.40625 -1.734375 "/></g></g></g><g fill="#ee82ee" fill-opacity="1"><g transform="translate(95.671274, 174.485006)"><g/></g></g><g fill="#ee82ee" fill-opacity="1"><g transform="translate(100.93312, 174.485006)"><g><path d="M 0 0 L 3.71875 -17.5 L 11.125 -17.5 C 12.269531 -17.5 13.269531 -17.378906 14.125 -17.140625 C 14.976562 -16.910156 15.679688 -16.53125 16.234375 -16 C 16.796875 -15.46875 17.21875 -14.769531 17.5 -13.90625 C 17.789062 -13.039062 17.9375 -11.988281 17.9375 -10.75 C 17.9375 -9.40625 17.765625 -8.085938 17.421875 -6.796875 C 17.078125 -5.515625 16.507812 -4.367188 15.71875 -3.359375 C 14.9375 -2.347656 13.90625 -1.535156 12.625 -0.921875 C 11.351562 -0.304688 9.78125 0 7.90625 0 Z M 7.546875 -1.921875 C 8.148438 -1.921875 8.6875 -2.171875 9.15625 -2.671875 C 9.625 -3.179688 10.023438 -3.828125 10.359375 -4.609375 C 10.703125 -5.390625 10.988281 -6.253906 11.21875 -7.203125 C 11.445312 -8.148438 11.628906 -9.0625 11.765625 -9.9375 C 11.910156 -10.820312 12.015625 -11.613281 12.078125 -12.3125 C 12.140625 -13.007812 12.171875 -13.503906 12.171875 -13.796875 C 12.171875 -14.367188 12.054688 -14.816406 11.828125 -15.140625 C 11.597656 -15.460938 11.203125 -15.625 10.640625 -15.625 L 9.3125 -15.625 L 6.359375 -1.921875 Z M 7.546875 -1.921875 "/></g></g></g><g fill="#ee82ee" fill-opacity="1"><g transform="translate(119.170509, 174.485006)"><g><path d="M 3.71875 -17.5 L 15.3125 -17.5 L 14.875 -15.40625 L 9.25 -15.40625 L 8.09375 -10.078125 L 12.8125 -10.078125 L 12.375 -8.015625 L 7.65625 -8.015625 L 6.390625 -2.125 L 12.015625 -2.125 L 11.59375 0 L 0 0 Z M 3.71875 -17.5 "/></g></g></g><g fill="#ee82ee" fill-opacity="1"><g transform="translate(133.027624, 174.485006)"><g><path d="M 10.859375 -12.421875 C 10.910156 -12.703125 10.9375 -13.078125 10.9375 -13.546875 C 10.9375 -13.828125 10.914062 -14.097656 10.875 -14.359375 C 10.84375 -14.628906 10.78125 -14.867188 10.6875 -15.078125 C 10.59375 -15.296875 10.453125 -15.460938 10.265625 -15.578125 C 10.085938 -15.691406 9.851562 -15.75 9.5625 -15.75 C 9.226562 -15.75 8.921875 -15.675781 8.640625 -15.53125 C 8.367188 -15.382812 8.128906 -15.195312 7.921875 -14.96875 C 7.710938 -14.738281 7.546875 -14.472656 7.421875 -14.171875 C 7.304688 -13.867188 7.25 -13.550781 7.25 -13.21875 C 7.25 -12.738281 7.367188 -12.367188 7.609375 -12.109375 C 7.859375 -11.859375 8.1875 -11.648438 8.59375 -11.484375 C 9 -11.316406 9.457031 -11.175781 9.96875 -11.0625 C 10.488281 -10.957031 11.019531 -10.832031 11.5625 -10.6875 C 12.03125 -10.5625 12.492188 -10.394531 12.953125 -10.1875 C 13.410156 -9.988281 13.816406 -9.71875 14.171875 -9.375 C 14.523438 -9.039062 14.8125 -8.601562 15.03125 -8.0625 C 15.257812 -7.519531 15.375 -6.84375 15.375 -6.03125 C 15.375 -4.875 15.144531 -3.898438 14.6875 -3.109375 C 14.226562 -2.316406 13.59375 -1.671875 12.78125 -1.171875 C 11.96875 -0.679688 11.003906 -0.328125 9.890625 -0.109375 C 8.785156 0.109375 7.582031 0.21875 6.28125 0.21875 C 4.957031 0.21875 3.878906 0.132812 3.046875 -0.03125 C 2.210938 -0.207031 1.554688 -0.398438 1.078125 -0.609375 C 0.503906 -0.847656 0.0820312 -1.125 -0.1875 -1.4375 L 0.75 -5.203125 L 5.59375 -5.203125 C 5.570312 -5.035156 5.550781 -4.8125 5.53125 -4.53125 C 5.519531 -4.25 5.515625 -4.023438 5.515625 -3.859375 C 5.515625 -3.640625 5.539062 -3.410156 5.59375 -3.171875 C 5.644531 -2.929688 5.726562 -2.707031 5.84375 -2.5 C 5.96875 -2.300781 6.140625 -2.132812 6.359375 -2 C 6.578125 -1.875 6.851562 -1.8125 7.1875 -1.8125 C 7.550781 -1.8125 7.875 -1.894531 8.15625 -2.0625 C 8.445312 -2.226562 8.6875 -2.4375 8.875 -2.6875 C 9.070312 -2.9375 9.21875 -3.210938 9.3125 -3.515625 C 9.414062 -3.816406 9.46875 -4.113281 9.46875 -4.40625 C 9.46875 -4.8125 9.367188 -5.148438 9.171875 -5.421875 C 8.984375 -5.703125 8.722656 -5.9375 8.390625 -6.125 C 8.066406 -6.320312 7.6875 -6.488281 7.25 -6.625 C 6.820312 -6.757812 6.378906 -6.898438 5.921875 -7.046875 C 5.484375 -7.179688 5.019531 -7.335938 4.53125 -7.515625 C 4.039062 -7.703125 3.59375 -7.957031 3.1875 -8.28125 C 2.789062 -8.613281 2.457031 -9.03125 2.1875 -9.53125 C 1.925781 -10.039062 1.796875 -10.691406 1.796875 -11.484375 C 1.796875 -12.660156 2.09375 -13.644531 2.6875 -14.4375 C 3.28125 -15.238281 4.03125 -15.890625 4.9375 -16.390625 C 5.851562 -16.890625 6.851562 -17.242188 7.9375 -17.453125 C 9.019531 -17.660156 10.046875 -17.765625 11.015625 -17.765625 C 12.304688 -17.765625 13.414062 -17.613281 14.34375 -17.3125 C 15.269531 -17.007812 15.972656 -16.65625 16.453125 -16.25 L 15.421875 -12.421875 Z M 10.859375 -12.421875 "/></g></g></g><g fill="#ee82ee" fill-opacity="1"><g transform="translate(149.198846, 174.485006)"><g><path d="M 9.78125 -7.984375 L 16.90625 -7.984375 L 15.3125 0 L 12.0625 0 L 11.546875 -1.765625 L 11.4375 -1.765625 C 10.957031 -1.210938 10.390625 -0.742188 9.734375 -0.359375 C 9.085938 0.0234375 8.238281 0.21875 7.1875 0.21875 C 6.382812 0.21875 5.609375 0.0859375 4.859375 -0.171875 C 4.117188 -0.441406 3.457031 -0.863281 2.875 -1.4375 C 2.300781 -2.019531 1.835938 -2.78125 1.484375 -3.71875 C 1.140625 -4.65625 0.96875 -5.785156 0.96875 -7.109375 C 0.96875 -8.535156 1.1875 -9.890625 1.625 -11.171875 C 2.0625 -12.460938 2.722656 -13.597656 3.609375 -14.578125 C 4.492188 -15.566406 5.59375 -16.34375 6.90625 -16.90625 C 8.226562 -17.476562 9.773438 -17.765625 11.546875 -17.765625 C 12.898438 -17.765625 14.082031 -17.609375 15.09375 -17.296875 C 16.101562 -16.984375 17.054688 -16.632812 17.953125 -16.25 L 16.90625 -10.90625 L 12.265625 -10.90625 C 12.273438 -11.113281 12.296875 -11.351562 12.328125 -11.625 C 12.367188 -11.894531 12.398438 -12.179688 12.421875 -12.484375 C 12.441406 -12.796875 12.457031 -13.097656 12.46875 -13.390625 C 12.488281 -13.679688 12.5 -13.9375 12.5 -14.15625 C 12.5 -14.300781 12.488281 -14.46875 12.46875 -14.65625 C 12.457031 -14.851562 12.414062 -15.046875 12.34375 -15.234375 C 12.269531 -15.421875 12.160156 -15.570312 12.015625 -15.6875 C 11.867188 -15.800781 11.65625 -15.859375 11.375 -15.859375 C 10.894531 -15.859375 10.457031 -15.660156 10.0625 -15.265625 C 9.664062 -14.878906 9.3125 -14.359375 9 -13.703125 C 8.695312 -13.054688 8.425781 -12.316406 8.1875 -11.484375 C 7.957031 -10.660156 7.765625 -9.820312 7.609375 -8.96875 C 7.453125 -8.113281 7.332031 -7.273438 7.25 -6.453125 C 7.175781 -5.640625 7.140625 -4.929688 7.140625 -4.328125 C 7.140625 -4.140625 7.144531 -3.90625 7.15625 -3.625 C 7.175781 -3.351562 7.238281 -3.082031 7.34375 -2.8125 C 7.445312 -2.550781 7.59375 -2.320312 7.78125 -2.125 C 7.976562 -1.9375 8.257812 -1.84375 8.625 -1.84375 C 9.226562 -1.84375 9.8125 -2.171875 10.375 -2.828125 C 10.945312 -3.492188 11.382812 -4.597656 11.6875 -6.140625 L 9.359375 -6.140625 Z M 9.78125 -7.984375 "/></g></g></g><g fill="#ee82ee" fill-opacity="1"><g transform="translate(166.885254, 174.485006)"><g><path d="M 5.953125 0 L 0 0 L 3.71875 -17.5 L 9.703125 -17.5 Z M 5.953125 0 "/></g></g></g><g fill="#ee82ee" fill-opacity="1"><g transform="translate(175.866208, 174.485006)"><g><path d="M 14.6875 0 L 8.234375 0 L 5.171875 -12.640625 L 2.484375 0 L 0 0 L 3.71875 -17.5 L 10.296875 -17.5 L 13.1875 -4.6875 L 15.921875 -17.5 L 18.453125 -17.5 Z M 14.6875 0 "/></g></g></g><g fill="#ee82ee" fill-opacity="1"><g transform="translate(193.607711, 174.485006)"><g><path d="M 10.859375 -12.421875 C 10.910156 -12.703125 10.9375 -13.078125 10.9375 -13.546875 C 10.9375 -13.828125 10.914062 -14.097656 10.875 -14.359375 C 10.84375 -14.628906 10.78125 -14.867188 10.6875 -15.078125 C 10.59375 -15.296875 10.453125 -15.460938 10.265625 -15.578125 C 10.085938 -15.691406 9.851562 -15.75 9.5625 -15.75 C 9.226562 -15.75 8.921875 -15.675781 8.640625 -15.53125 C 8.367188 -15.382812 8.128906 -15.195312 7.921875 -14.96875 C 7.710938 -14.738281 7.546875 -14.472656 7.421875 -14.171875 C 7.304688 -13.867188 7.25 -13.550781 7.25 -13.21875 C 7.25 -12.738281 7.367188 -12.367188 7.609375 -12.109375 C 7.859375 -11.859375 8.1875 -11.648438 8.59375 -11.484375 C 9 -11.316406 9.457031 -11.175781 9.96875 -11.0625 C 10.488281 -10.957031 11.019531 -10.832031 11.5625 -10.6875 C 12.03125 -10.5625 12.492188 -10.394531 12.953125 -10.1875 C 13.410156 -9.988281 13.816406 -9.71875 14.171875 -9.375 C 14.523438 -9.039062 14.8125 -8.601562 15.03125 -8.0625 C 15.257812 -7.519531 15.375 -6.84375 15.375 -6.03125 C 15.375 -4.875 15.144531 -3.898438 14.6875 -3.109375 C 14.226562 -2.316406 13.59375 -1.671875 12.78125 -1.171875 C 11.96875 -0.679688 11.003906 -0.328125 9.890625 -0.109375 C 8.785156 0.109375 7.582031 0.21875 6.28125 0.21875 C 4.957031 0.21875 3.878906 0.132812 3.046875 -0.03125 C 2.210938 -0.207031 1.554688 -0.398438 1.078125 -0.609375 C 0.503906 -0.847656 0.0820312 -1.125 -0.1875 -1.4375 L 0.75 -5.203125 L 5.59375 -5.203125 C 5.570312 -5.035156 5.550781 -4.8125 5.53125 -4.53125 C 5.519531 -4.25 5.515625 -4.023438 5.515625 -3.859375 C 5.515625 -3.640625 5.539062 -3.410156 5.59375 -3.171875 C 5.644531 -2.929688 5.726562 -2.707031 5.84375 -2.5 C 5.96875 -2.300781 6.140625 -2.132812 6.359375 -2 C 6.578125 -1.875 6.851562 -1.8125 7.1875 -1.8125 C 7.550781 -1.8125 7.875 -1.894531 8.15625 -2.0625 C 8.445312 -2.226562 8.6875 -2.4375 8.875 -2.6875 C 9.070312 -2.9375 9.21875 -3.210938 9.3125 -3.515625 C 9.414062 -3.816406 9.46875 -4.113281 9.46875 -4.40625 C 9.46875 -4.8125 9.367188 -5.148438 9.171875 -5.421875 C 8.984375 -5.703125 8.722656 -5.9375 8.390625 -6.125 C 8.066406 -6.320312 7.6875 -6.488281 7.25 -6.625 C 6.820312 -6.757812 6.378906 -6.898438 5.921875 -7.046875 C 5.484375 -7.179688 5.019531 -7.335938 4.53125 -7.515625 C 4.039062 -7.703125 3.59375 -7.957031 3.1875 -8.28125 C 2.789062 -8.613281 2.457031 -9.03125 2.1875 -9.53125 C 1.925781 -10.039062 1.796875 -10.691406 1.796875 -11.484375 C 1.796875 -12.660156 2.09375 -13.644531 2.6875 -14.4375 C 3.28125 -15.238281 4.03125 -15.890625 4.9375 -16.390625 C 5.851562 -16.890625 6.851562 -17.242188 7.9375 -17.453125 C 9.019531 -17.660156 10.046875 -17.765625 11.015625 -17.765625 C 12.304688 -17.765625 13.414062 -17.613281 14.34375 -17.3125 C 15.269531 -17.007812 15.972656 -16.65625 16.453125 -16.25 L 15.421875 -12.421875 Z M 10.859375 -12.421875 "/></g></g></g><path stroke-linecap="butt" transform="matrix(0.997397, 0, 0, 0.997397, 36.911564, 54.083322)" fill="none" stroke-linejoin="miter" d="M 10.569076 30.296333 L 27.554703 30.296333 L 18.307974 73.428154 L 34.204829 73.428154 L 32.865404 79.999951 L -0.00141167 79.999951 Z M 65.508982 57.300229 L 85.784424 57.300229 L 81.233513 79.999951 L 72.006366 79.999951 L 70.5142 74.994733 L 70.208718 74.994733 C 68.845794 76.561311 67.240052 77.892903 65.395405 78.985591 C 63.546843 80.082196 61.134312 80.630499 58.14998 80.630499 C 55.858859 80.630499 53.6539 80.25452 51.539019 79.502562 C 49.424138 78.738855 47.544244 77.536506 45.903253 75.891599 C 44.258346 74.246691 42.94242 72.096563 41.947643 69.433379 C 40.952865 66.770196 40.455477 63.55871 40.455477 59.802838 C 40.455477 55.737567 41.082108 51.879868 42.327538 48.221907 C 43.588633 44.563946 45.468528 41.344628 47.96722 38.552202 C 50.477662 35.763692 53.610819 33.558733 57.366691 31.941241 C 61.126479 30.323748 65.508982 29.513044 70.5142 29.513044 C 74.375816 29.513044 77.736127 29.959519 80.602966 30.852469 C 83.481554 31.729753 86.203484 32.716697 88.764839 33.813302 L 85.784424 49.005196 L 72.558585 49.005196 C 72.609499 48.433395 72.687828 47.75585 72.789656 46.980394 C 72.891483 46.189272 72.965896 45.366818 73.01681 44.513033 C 73.067723 43.647498 73.118637 42.801546 73.169551 41.975176 C 73.23613 41.13314 73.267462 40.400764 73.267462 39.774133 C 73.267462 39.355073 73.23613 38.869434 73.169551 38.325048 C 73.118637 37.776745 72.993311 37.240192 72.789656 36.719305 C 72.586 36.194501 72.272685 35.767608 71.853625 35.438627 C 71.430649 35.09398 70.831433 34.921656 70.055976 34.921656 C 68.693053 34.921656 67.45154 35.481708 66.331436 36.601812 C 65.207416 37.725832 64.200889 39.214081 63.311856 41.074393 C 62.430656 42.922956 61.663032 45.018254 60.997236 47.360289 C 60.347106 49.70624 59.80272 52.095272 59.356245 54.527385 C 58.92152 56.947749 58.584706 59.325032 58.341886 61.655317 C 58.114732 63.973853 57.997239 65.99474 57.997239 67.714059 C 57.997239 68.234947 58.024654 68.89291 58.075568 69.680115 C 58.126481 70.459488 58.290972 71.227112 58.572956 71.994735 C 58.86669 72.746693 59.285749 73.392906 59.834052 73.941209 C 60.382354 74.489511 61.177393 74.763662 62.223084 74.763662 C 63.942404 74.763662 65.61081 73.827632 67.228302 71.955571 C 68.845794 70.067843 70.075558 66.934687 70.917594 62.552183 L 64.341881 62.552183 Z M 129.683868 79.999951 L 111.378399 79.999951 L 102.683889 44.074391 L 95.02332 79.999951 L 87.969801 79.999951 L 98.536372 30.296333 L 117.245235 30.296333 L 125.461939 66.6997 L 133.200837 30.296333 L 140.407098 30.296333 Z M 168.813081 61.216675 L 164.822223 79.999951 L 147.852262 79.999951 L 152.15252 59.877251 L 144.468452 30.296333 L 163.27131 30.296333 L 168.585927 49.941227 L 180.3196 30.296333 L 188.78304 30.296333 Z M 168.813081 61.216675 " stroke="#e7f65d" stroke-width="0.978436" stroke-opacity="1" stroke-miterlimit="4"/><path stroke-linecap="butt" transform="matrix(0.351992, 0, 0, 0.351992, 29.020251, 146.325608)" fill="none" stroke-linejoin="miter" d="M 33.512521 30.292333 L 52.622482 30.292333 L 53.965285 64.195313 L 67.038185 30.292333 L 82.530349 30.292333 L 84.561198 64.195313 L 97.700684 30.292333 L 105.92396 30.292333 L 86.603145 79.998208 L 68.980254 79.998208 L 67.337818 51.910338 L 55.60772 79.998208 L 36.819588 79.998208 Z M 111.872241 30.292333 L 144.820832 30.292333 L 143.577908 36.240613 L 127.597453 36.240613 L 124.312581 51.355461 L 137.70731 51.355461 L 136.442191 57.226059 L 123.069657 57.226059 L 119.462957 73.983342 L 135.432315 73.983342 L 134.244878 79.998208 L 101.307384 79.998208 Z M 188.65611 41.645115 C 188.65611 43.165477 188.434159 44.519377 187.990257 45.717911 C 187.535258 46.916445 186.924894 47.981809 186.136968 48.9251 C 185.360141 49.868391 184.439045 50.700706 183.395876 51.433143 C 182.352708 52.154483 181.209661 52.831433 179.955639 53.452895 C 180.532711 53.674846 181.209661 54.007772 181.986489 54.451674 C 182.774414 54.884478 183.529047 55.494843 184.261484 56.282768 C 184.993922 57.059596 185.615384 58.069472 186.114773 59.301298 C 186.614162 60.533125 186.858308 62.020195 186.858308 63.795801 C 186.858308 66.137382 186.358919 68.301402 185.371238 70.287861 C 184.37246 72.285418 182.896487 73.994439 180.932223 75.437119 C 178.990153 76.857604 176.581988 77.978456 173.72992 78.799673 C 170.88895 79.598696 167.626274 79.998208 163.930794 79.998208 L 140.670353 79.998208 L 151.23521 30.292333 L 171.821144 30.292333 C 173.863091 30.292333 175.871745 30.447698 177.8804 30.736234 C 179.889054 31.013673 181.697953 31.579647 183.284901 32.42306 C 184.882946 33.244278 186.170261 34.409519 187.169039 35.89659 C 188.15672 37.38366 188.65611 39.303534 188.65611 41.645115 Z M 167.371031 51.122412 C 168.514077 51.122412 169.490661 50.789486 170.289683 50.112536 C 171.110901 49.424489 171.776753 48.569979 172.298338 47.549005 C 172.819922 46.539129 173.208336 45.440473 173.463579 44.264134 C 173.72992 43.098892 173.863091 42.033528 173.863091 41.090238 C 173.863091 39.59207 173.507969 38.304755 172.797727 37.239392 C 172.098582 36.16293 170.988828 35.630249 169.468465 35.630249 L 167.115787 35.630249 L 163.753233 51.122412 Z M 161.733481 75.070901 C 163.298234 75.070901 164.607744 74.626999 165.650912 73.750293 C 166.694081 72.86249 167.548591 71.763834 168.225541 70.465422 C 168.902491 69.155912 169.379685 67.779818 169.657124 66.359333 C 169.956757 64.916653 170.101025 63.651533 170.101025 62.552877 C 170.101025 60.721783 169.712611 59.268006 168.957979 58.191544 C 168.203346 57.126181 166.993714 56.593499 165.317986 56.593499 L 162.432626 56.593499 L 158.592878 75.070901 Z M 204.303639 79.998208 L 214.868496 30.292333 L 235.931624 30.292333 C 239.161007 30.292333 241.99088 30.625259 244.410143 31.268916 C 246.840504 31.923671 248.860256 33.000132 250.447204 34.520495 C 252.04525 36.040858 253.243784 38.027317 254.042806 40.479873 C 254.841829 42.932429 255.241341 45.928764 255.241341 49.479977 C 255.241341 53.29753 254.764146 57.026303 253.798661 60.677393 C 252.844272 64.328483 251.235129 67.580062 248.993426 70.465422 C 246.751724 73.328587 243.821974 75.636875 240.193078 77.379189 C 236.553086 79.1326 232.091875 79.998208 226.776154 79.998208 Z M 225.744083 74.516024 C 227.464202 74.516024 228.984565 73.805781 230.305172 72.374199 C 231.647974 70.931519 232.802118 69.111522 233.767604 66.892015 C 234.733089 64.672507 235.54321 62.219951 236.197965 59.534347 C 236.841622 56.848742 237.363206 54.251918 237.762717 51.754972 C 238.162229 49.246928 238.439667 46.994128 238.617228 45.007669 C 238.794789 43.021209 238.894666 41.611822 238.894666 40.790604 C 238.894666 39.170363 238.56174 37.905244 237.918083 37.006343 C 237.263328 36.085248 236.131379 35.630249 234.511139 35.630249 L 230.749073 35.630249 L 222.381529 74.516024 Z M 266.682903 30.292333 L 299.620397 30.292333 L 298.38857 36.240613 L 282.408115 36.240613 L 279.123244 51.355461 L 292.517973 51.355461 L 291.252853 57.226059 L 277.880319 57.226059 L 274.262522 73.983342 L 290.242977 73.983342 L 289.055541 79.998208 L 256.118046 79.998208 Z M 326.321075 44.708035 C 326.47644 43.92011 326.554123 42.843649 326.554123 41.500847 C 326.554123 40.701824 326.498635 39.936094 326.398758 39.181461 C 326.29888 38.426828 326.110222 37.760976 325.843881 37.161709 C 325.588637 36.551344 325.200223 36.07415 324.678639 35.741224 C 324.157055 35.3972 323.480105 35.230737 322.636692 35.230737 C 321.704499 35.230737 320.849988 35.44159 320.050966 35.863297 C 319.274138 36.273906 318.586091 36.817685 317.975726 37.461342 C 317.376459 38.116097 316.899265 38.87073 316.555241 39.736338 C 316.222315 40.590848 316.066949 41.489749 316.066949 42.43304 C 316.066949 43.786939 316.410973 44.830108 317.110118 45.562546 C 317.831458 46.294983 318.752554 46.89425 319.906698 47.360347 C 321.049744 47.837541 322.348156 48.225955 323.801934 48.547783 C 325.266809 48.847417 326.787171 49.213636 328.351924 49.635342 C 329.661434 49.990463 330.970943 50.467658 332.269355 51.04473 C 333.578865 51.621802 334.733009 52.398629 335.742885 53.364115 C 336.763859 54.318503 337.585076 55.561428 338.206539 57.103986 C 338.850196 58.646544 339.160927 60.566418 339.160927 62.863608 C 339.160927 66.14848 338.506172 68.911767 337.196663 71.153469 C 335.898251 73.395172 334.089352 75.226266 331.792161 76.635653 C 329.494971 78.033943 326.764976 79.054917 323.613275 79.698574 C 320.461575 80.320036 317.032435 80.630767 313.325857 80.630767 C 309.574889 80.630767 306.500871 80.386621 304.1149 79.887232 C 301.751125 79.387843 299.886738 78.855161 298.543936 78.278089 C 296.923695 77.601139 295.714064 76.824312 294.926138 75.925411 L 297.600645 65.205189 L 311.361593 65.205189 C 311.306105 65.682383 311.261715 66.32604 311.206227 67.13616 C 311.161837 67.946281 311.128545 68.57884 311.128545 69.056035 C 311.128545 69.677497 311.206227 70.321154 311.361593 70.998104 C 311.528056 71.675054 311.772202 72.296516 312.105128 72.873588 C 312.449152 73.45066 312.937443 73.916757 313.558906 74.282975 C 314.180368 74.660292 314.968293 74.837852 315.911584 74.837852 C 316.954752 74.837852 317.875848 74.604804 318.674871 74.138707 C 319.496089 73.661513 320.173039 73.073344 320.727915 72.374199 C 321.271695 71.663956 321.682304 70.876031 321.97084 70.02152 C 322.259376 69.155912 322.403644 68.3125 322.403644 67.480184 C 322.403644 66.337138 322.137303 65.371652 321.582426 64.594824 C 321.038647 63.806899 320.295111 63.141047 319.351821 62.597267 C 318.419627 62.04239 317.332069 61.576294 316.100242 61.176782 C 314.879513 60.788368 313.614393 60.37776 312.315981 59.956053 C 311.050862 59.600932 309.730255 59.15703 308.343062 58.635446 C 306.966968 58.113862 305.701848 57.381424 304.558802 56.438133 C 303.415755 55.494843 302.461367 54.307406 301.695637 52.886921 C 300.941004 51.444241 300.563688 49.60205 300.563688 47.360347 C 300.563688 44.019988 301.407101 41.223408 303.105024 38.95951 C 304.802948 36.673417 306.944773 34.831226 309.530499 33.432936 C 312.116226 32.012451 314.946098 31.013673 318.009019 30.414406 C 321.094134 29.815138 324.012787 29.515505 326.787171 29.515505 C 330.438262 29.515505 333.589963 29.948309 336.220079 30.813917 C 338.861293 31.668427 340.847753 32.667206 342.201652 33.810252 L 339.316292 44.708035 Z M 369.213061 57.303741 L 389.477167 57.303741 L 384.938273 79.998208 L 375.705121 79.998208 L 374.218051 74.993218 L 373.90732 74.993218 C 372.542323 76.557971 370.944277 77.889675 369.090988 78.988332 C 367.248797 80.086988 364.829534 80.630767 361.855393 80.630767 C 359.558203 80.630767 357.349793 80.253451 355.24126 79.498818 C 353.12163 78.744186 351.246146 77.534554 349.603711 75.892118 C 347.961275 74.249683 346.640668 72.09676 345.641889 69.433351 C 344.654208 66.769942 344.154819 63.562753 344.154819 59.800688 C 344.154819 55.738988 344.776281 51.877045 346.030303 48.225955 C 347.295423 44.563767 349.170907 41.345481 351.667853 38.548901 C 354.175897 35.763419 357.305402 33.555009 361.067468 31.945866 C 364.829534 30.325625 369.213061 29.515505 374.218051 29.515505 C 378.079994 29.515505 381.442549 29.959406 384.305714 30.84721 C 387.179976 31.735013 389.898873 32.722694 392.462404 33.810252 L 389.477167 49.002783 L 376.259998 49.002783 C 376.315486 48.436808 376.382071 47.759858 376.493046 46.983031 C 376.592924 46.195105 376.670607 45.36279 376.714997 44.519377 C 376.770485 43.653769 376.814875 42.799259 376.870363 41.978041 C 376.936948 41.134628 376.970241 40.40219 376.970241 39.780728 C 376.970241 39.359022 376.936948 38.87073 376.870363 38.32695 C 376.814875 37.772074 376.692802 37.239392 376.493046 36.717807 C 376.282193 36.196223 375.971462 35.774517 375.549756 35.44159 C 375.128049 35.097567 374.528782 34.920006 373.751954 34.920006 C 372.398055 34.920006 371.15513 35.485981 370.034279 36.606832 C 368.913428 37.727683 367.903552 39.214754 367.015749 41.07914 C 366.127946 42.921331 365.362215 45.018766 364.696363 47.360347 C 364.052706 49.701927 363.497829 52.098996 363.053927 54.529357 C 362.621123 56.94862 362.288197 59.323493 362.044051 61.653976 C 361.811003 63.973362 361.700028 65.993114 361.700028 67.713232 C 361.700028 68.234817 361.722223 68.889572 361.77771 69.677497 C 361.822101 70.454325 361.988564 71.231152 362.266002 71.996882 C 362.565636 72.740417 362.987342 73.395172 363.531122 73.938952 C 364.085998 74.493829 364.873924 74.760169 365.917092 74.760169 C 367.637211 74.760169 369.312939 73.827976 370.93318 71.952492 C 372.542323 70.065911 373.77415 66.936405 374.617562 62.552877 L 368.04782 62.552877 Z M 408.587128 79.998208 L 391.674479 79.998208 L 402.239336 30.292333 L 419.229667 30.292333 Z M 458.903368 79.998208 L 440.592429 79.998208 L 431.903056 44.075475 L 424.234657 79.998208 L 417.18772 79.998208 L 427.752577 30.292333 L 446.463027 30.292333 L 454.675205 66.703356 L 462.41019 30.292333 L 469.62359 30.292333 Z M 498.4328 44.708035 C 498.577068 43.92011 498.65475 42.843649 498.65475 41.500847 C 498.65475 40.701824 498.61036 39.936094 498.510482 39.181461 C 498.399507 38.426828 498.221946 37.760976 497.955606 37.161709 C 497.700362 36.551344 497.311948 36.07415 496.790364 35.741224 C 496.26878 35.3972 495.580732 35.230737 494.737319 35.230737 C 493.816224 35.230737 492.950616 35.44159 492.16269 35.863297 C 491.385863 36.273906 490.686718 36.817685 490.076353 37.461342 C 489.477086 38.116097 489.01099 38.87073 488.666966 39.736338 C 488.33404 40.590848 488.167577 41.489749 488.167577 42.43304 C 488.167577 43.786939 488.522698 44.830108 489.221843 45.562546 C 489.932085 46.294983 490.864278 46.89425 492.007325 47.360347 C 493.150371 47.837541 494.459881 48.225955 495.902561 48.547783 C 497.367436 48.847417 498.887799 49.213636 500.452552 49.635342 C 501.762061 49.990463 503.071571 50.467658 504.369983 51.04473 C 505.679492 51.621802 506.844734 52.398629 507.85461 53.364115 C 508.864486 54.318503 509.685704 55.561428 510.318263 57.103986 C 510.950823 58.646544 511.272652 60.566418 511.272652 62.863608 C 511.272652 66.14848 510.617897 68.911767 509.29729 71.153469 C 507.998878 73.395172 506.201077 75.226266 503.892789 76.635653 C 501.606696 78.033943 498.876701 79.054917 495.713903 79.698574 C 492.573299 80.320036 489.14416 80.630767 485.437582 80.630767 C 481.675517 80.630767 478.612596 80.386621 476.226625 79.887232 C 473.851752 79.387843 471.998463 78.855161 470.644563 78.278089 C 469.024323 77.601139 467.825788 76.824312 467.037863 75.925411 L 469.71237 65.205189 L 483.46222 65.205189 C 483.41783 65.682383 483.362342 66.32604 483.317952 67.13616 C 483.262465 67.946281 483.240269 68.57884 483.240269 69.056035 C 483.240269 69.677497 483.317952 70.321154 483.46222 70.998104 C 483.628683 71.675054 483.883927 72.296516 484.216853 72.873588 C 484.560877 73.45066 485.038071 73.916757 485.659533 74.282975 C 486.292093 74.660292 487.06892 74.837852 488.012211 74.837852 C 489.05538 74.837852 489.987573 74.604804 490.786596 74.138707 C 491.596716 73.661513 492.284763 73.073344 492.828543 72.374199 C 493.38342 71.663956 493.794029 70.876031 494.071467 70.02152 C 494.371101 69.155912 494.515369 68.3125 494.515369 67.480184 C 494.515369 66.337138 494.23793 65.371652 493.694151 64.594824 C 493.139274 63.806899 492.395739 63.141047 491.452448 62.597267 C 490.520255 62.04239 489.443794 61.576294 488.211967 61.176782 C 486.98014 60.788368 485.726118 60.37776 484.427706 59.956053 C 483.162587 59.600932 481.84198 59.15703 480.44369 58.635446 C 479.067595 58.113862 477.813573 57.381424 476.659429 56.438133 C 475.516383 55.494843 474.561994 54.307406 473.796264 52.886921 C 473.041632 51.444241 472.675413 49.60205 472.675413 47.360347 C 472.675413 44.019988 473.518826 41.223408 475.216749 38.95951 C 476.903575 36.673417 479.0454 34.831226 481.631126 33.432936 C 484.216853 32.012451 487.046725 31.013673 490.120743 30.414406 C 493.194762 29.815138 496.124512 29.515505 498.887799 29.515505 C 502.549987 29.515505 505.69059 29.948309 508.331804 30.813917 C 510.961921 31.668427 512.959478 32.667206 514.313377 33.810252 L 511.428017 44.708035 Z M 498.4328 44.708035 " stroke="#e7f65d" stroke-width="0.978436" stroke-opacity="1" stroke-miterlimit="4"/><g clip-path="url(#6e22fa39b0)"><path fill="#e7f65d" d="M -29.882812 178.3125 C 26.390625 178.3125 26.390625 178.3125 26.390625 234.585938 C 26.390625 178.3125 26.390625 178.3125 82.664062 178.3125 C 26.390625 178.3125 26.390625 178.3125 26.390625 122.039062 C 26.390625 178.3125 26.390625 178.3125 -29.882812 178.3125 Z M -29.882812 178.3125 " fill-opacity="1" fill-rule="nonzero"/></g><g clip-path="url(#56b7e7017a)"><path fill="#e7f65d" d="M 22.238281 202.320312 C 52.097656 202.320312 52.097656 202.320312 52.097656 232.179688 C 52.097656 202.320312 52.097656 202.320312 81.957031 202.320312 C 52.097656 202.320312 52.097656 202.320312 52.097656 172.464844 C 52.097656 202.320312 52.097656 202.320312 22.238281 202.320312 Z M 22.238281 202.320312 " fill-opacity="1" fill-rule="nonzero"/></g><g clip-path="url(#33e1b72dae)"><path fill="#e7f65d" d="M 58.964844 188.546875 C 66.042969 188.546875 66.042969 188.546875 66.042969 195.625 C 66.042969 188.546875 66.042969 188.546875 73.125 188.546875 C 66.042969 188.546875 66.042969 188.546875 66.042969 181.464844 C 66.042969 188.546875 66.042969 188.546875 58.964844 188.546875 Z M 58.964844 188.546875 " fill-opacity="1" fill-rule="nonzero"/></g><path fill="#e7f65d" d="M 35.289062 215.589844 C 39.046875 215.589844 39.046875 215.589844 39.046875 219.347656 C 39.046875 215.589844 39.046875 215.589844 42.808594 215.589844 C 39.046875 215.589844 39.046875 215.589844 39.046875 211.832031 C 39.046875 215.589844 39.046875 215.589844 35.289062 215.589844 Z M 35.289062 215.589844 " fill-opacity="1" fill-rule="nonzero"/><g clip-path="url(#636d49d3b5)"><path fill="#e7f65d" d="M 238.222656 35.832031 C 210.039062 35.832031 210.039062 35.832031 210.039062 64.015625 C 210.039062 35.832031 210.039062 35.832031 181.855469 35.832031 C 210.039062 35.832031 210.039062 35.832031 210.039062 7.648438 C 210.039062 35.832031 210.039062 35.832031 238.222656 35.832031 Z M 238.222656 35.832031 " fill-opacity="1" fill-rule="nonzero"/></g><g clip-path="url(#98f8acdf22)"><path fill="#e7f65d" d="M 212.121094 47.855469 C 197.164062 47.855469 197.164062 47.855469 197.164062 62.808594 C 197.164062 47.855469 197.164062 47.855469 182.210938 47.855469 C 197.164062 47.855469 197.164062 47.855469 197.164062 32.902344 C 197.164062 47.855469 197.164062 47.855469 212.121094 47.855469 Z M 212.121094 47.855469 " fill-opacity="1" fill-rule="nonzero"/></g><g clip-path="url(#e88f4c6cc8)"><path fill="#e7f65d" d="M 193.726562 40.957031 C 190.179688 40.957031 190.179688 40.957031 190.179688 44.503906 C 190.179688 40.957031 190.179688 40.957031 186.632812 40.957031 C 190.179688 40.957031 190.179688 40.957031 190.179688 37.410156 C 190.179688 40.957031 190.179688 40.957031 193.726562 40.957031 Z M 193.726562 40.957031 " fill-opacity="1" fill-rule="nonzero"/></g><path fill="#e7f65d" d="M 205.582031 54.5 C 203.699219 54.5 203.699219 54.5 203.699219 56.382812 C 203.699219 54.5 203.699219 54.5 201.816406 54.5 C 203.699219 54.5 203.699219 54.5 203.699219 52.617188 C 203.699219 54.5 203.699219 54.5 205.582031 54.5 Z M 205.582031 54.5 " fill-opacity="1" fill-rule="nonzero"/></svg>