<svg width="195" height="74" viewBox="0 0 195 74" fill="none" xmlns="http://www.w3.org/2000/svg">
<g filter="url(#filter0_i_4_7)">
<path d="M26.0312 19.1562C26.0312 20.2188 25.8125 21.0104 25.375 21.5312C24.9583 22.0521 24.4583 22.4792 23.875 22.8125C23.3125 23.1458 22.8125 23.5312 22.375 23.9688C21.9583 24.4062 21.75 25.0729 21.75 25.9688V49.1875C21.75 50.0208 21.9167 50.7083 22.25 51.25C22.6042 51.7708 23.2396 52.0312 24.1562 52.0312H25.75C27.3333 52.0312 28.5625 51.7188 29.4375 51.0938C30.3125 50.4479 30.9896 49.6667 31.4688 48.75C31.9688 47.8125 32.4062 46.8854 32.7812 45.9688C33.1562 45.0312 33.6146 44.25 34.1562 43.625C34.6979 42.9792 35.4792 42.6562 36.5 42.6562C37.5417 42.6562 38.4167 42.9583 39.125 43.5625C39.8333 44.1458 40.1875 44.9792 40.1875 46.0625C40.1875 46.5208 40.125 46.9688 40 47.4062L37.875 55.1562C37.4792 56.5521 36.9583 57.7292 36.3125 58.6875C35.6875 59.625 34.5417 60.0938 32.875 60.0938C32.2292 60.0938 31.5833 60.0104 30.9375 59.8438C30.3125 59.6771 29.6875 59.5208 29.0625 59.375C28.5 59.2292 27.9375 59.125 27.375 59.0625C26.8125 59.0208 26.2396 59 25.6562 59H5.84375C4.71875 59 3.8125 58.7292 3.125 58.1875C2.4375 57.6458 2.09375 56.7812 2.09375 55.5938C2.09375 54.5104 2.3125 53.7083 2.75 53.1875C3.1875 52.6667 3.6875 52.25 4.25 51.9375C4.8125 51.6042 5.3125 51.2188 5.75 50.7812C6.1875 50.3438 6.40625 49.6771 6.40625 48.7812V25.9688C6.40625 25.0729 6.1875 24.4062 5.75 23.9688C5.3125 23.5312 4.8125 23.1562 4.25 22.8438C3.6875 22.5104 3.1875 22.0833 2.75 21.5625C2.3125 21.0417 2.09375 20.2396 2.09375 19.1562C2.09375 17.9688 2.4375 17.1042 3.125 16.5625C3.8125 16.0208 4.71875 15.75 5.84375 15.75H22.2812C23.4062 15.75 24.3125 16.0208 25 16.5625C25.6875 17.1042 26.0312 17.9688 26.0312 19.1562ZM89.2812 39.5C89.2812 40.4167 89.0729 41.1146 88.6562 41.5938C88.2396 42.0521 87.7604 42.4271 87.2188 42.7188C86.6771 43.0104 86.1979 43.3438 85.7812 43.7188C85.3646 44.0729 85.1562 44.6042 85.1562 45.3125V56.75C85.1562 59.0833 84.0104 60.25 81.7188 60.25C80.8646 60.25 80.1146 59.9896 79.4688 59.4688C78.8438 58.9688 78.2396 58.4688 77.6562 57.9688C77.0938 57.4479 76.4896 57.1875 75.8438 57.1875C75.2396 57.1875 74.5833 57.3438 73.875 57.6562C73.1875 57.9688 72.5625 58.25 72 58.5C70.7917 59.0625 69.5729 59.4896 68.3438 59.7812C67.1146 60.0729 65.8229 60.2188 64.4688 60.2188C59.7812 60.2188 55.8021 59.2708 52.5312 57.375C49.2604 55.4583 46.7708 52.7917 45.0625 49.375C43.3542 45.9375 42.5 41.9271 42.5 37.3438C42.5 34.0938 43.1042 31.0833 44.3125 28.3125C45.5208 25.5208 47.1979 23.0938 49.3438 21.0312C51.4896 18.9688 53.9688 17.3646 56.7812 16.2188C59.6146 15.0521 62.6354 14.4688 65.8438 14.4688C67.0729 14.4688 68.2917 14.5521 69.5 14.7188C70.7083 14.8646 71.8958 15.1146 73.0625 15.4688C73.6667 15.6354 74.25 15.8021 74.8125 15.9688C75.3958 16.1354 76 16.2188 76.625 16.2188C77.1667 16.2188 77.6562 16.0833 78.0938 15.8125C78.5521 15.5208 79 15.2396 79.4375 14.9688C79.8958 14.6979 80.3958 14.5625 80.9375 14.5625C82 14.5625 82.6875 14.8958 83 15.5625C83.3333 16.2292 83.625 16.9792 83.875 17.8125C84.0625 18.4167 84.3125 19.1979 84.625 20.1562C84.9583 21.1146 85.2917 22.1354 85.625 23.2188C85.9792 24.2812 86.2708 25.2812 86.5 26.2188C86.7292 27.1562 86.8438 27.8958 86.8438 28.4375C86.8438 29.4375 86.4479 30.1875 85.6562 30.6875C84.8646 31.1667 84.0208 31.4062 83.125 31.4062C82.2083 31.4062 81.5208 31.1771 81.0625 30.7188C80.6042 30.2604 80.1458 29.6771 79.6875 28.9688C78.6458 27.3854 77.6354 25.9896 76.6562 24.7812C75.6771 23.5521 74.5208 22.5938 73.1875 21.9062C71.875 21.2188 70.1771 20.875 68.0938 20.875C66.0938 20.875 64.4375 21.3229 63.125 22.2188C61.8125 23.0938 60.7708 24.2604 60 25.7188C59.25 27.1562 58.7083 28.7292 58.375 30.4375C58.0625 32.125 57.9062 33.7917 57.9062 35.4375C57.9062 36.6458 57.9792 37.875 58.125 39.125C58.2917 40.3542 58.5417 41.5521 58.875 42.7188C59.3333 44.2812 60.0208 45.7917 60.9375 47.25C61.875 48.6875 63.0312 49.8646 64.4062 50.7812C65.7812 51.6979 67.3542 52.1562 69.125 52.1562C69.875 52.1562 70.4688 52.0312 70.9062 51.7812C71.3438 51.5104 71.5625 50.9583 71.5625 50.125V45.3125C71.5625 44.7708 71.4583 44.4062 71.25 44.2188C71.0417 44.0312 70.7292 43.8125 70.3125 43.5625C69.7708 43.2292 69.1771 42.9062 68.5312 42.5938C67.9062 42.2604 67.375 41.8646 66.9375 41.4062C66.5 40.9271 66.2812 40.3021 66.2812 39.5312C66.2812 38.3646 66.6458 37.5417 67.375 37.0625C68.1042 36.5625 69 36.3125 70.0625 36.3125H85.5312C86.5938 36.3125 87.4792 36.5521 88.1875 37.0312C88.9167 37.5104 89.2812 38.3333 89.2812 39.5ZM110.906 55.5938C110.906 56.8021 110.552 57.6771 109.844 58.2188C109.135 58.7396 108.219 59 107.094 59H97.7188C96.5938 59 95.6771 58.7396 94.9688 58.2188C94.2604 57.6771 93.9062 56.8021 93.9062 55.5938C93.9062 54.4896 94.1562 53.6771 94.6562 53.1562C95.1562 52.6354 95.7396 52.2188 96.4062 51.9062C97.0729 51.5729 97.6562 51.1771 98.1562 50.7188C98.6562 50.2396 98.9062 49.5 98.9062 48.5V29.75C98.9062 28.3125 98.7188 27.25 98.3438 26.5625C97.9688 25.875 97.2812 25.0521 96.2812 24.0938C95.6146 23.4271 94.8646 22.6354 94.0312 21.7188C93.1979 20.8021 92.7812 19.8333 92.7812 18.8125C92.7812 17.8333 93.1146 17.0833 93.7812 16.5625C94.4688 16.0208 95.2708 15.75 96.1875 15.75H105.938C106.854 15.75 107.573 15.8125 108.094 15.9375C108.635 16.0417 109.125 16.2604 109.562 16.5938C110 16.9271 110.51 17.4375 111.094 18.125L130.438 40.3125V26.2188C130.438 25.1979 130.188 24.4583 129.688 24C129.188 23.5417 128.604 23.1562 127.938 22.8438C127.292 22.5312 126.719 22.125 126.219 21.625C125.719 21.1042 125.469 20.2812 125.469 19.1562C125.469 17.9479 125.823 17.0833 126.531 16.5625C127.24 16.0208 128.156 15.75 129.281 15.75H138.656C139.76 15.75 140.667 16.0208 141.375 16.5625C142.104 17.1042 142.469 17.9688 142.469 19.1562C142.469 20.4271 142.156 21.2917 141.531 21.75C140.927 22.2083 140.146 22.7292 139.188 23.3125C138.5 23.7083 138.042 24.0938 137.812 24.4688C137.583 24.8229 137.469 25.4062 137.469 26.2188V44.375C137.469 45.3542 137.542 46.3542 137.688 47.375C137.854 48.375 138.198 49.3021 138.719 50.1562C139.219 50.9688 139.76 51.8333 140.344 52.75C140.948 53.6458 141.25 54.5938 141.25 55.5938C141.25 56.6146 140.938 57.4375 140.312 58.0625C139.708 58.6875 138.896 59 137.875 59H127.25C126.375 59 125.667 58.8021 125.125 58.4062C124.604 57.9896 124.344 57.3125 124.344 56.375C124.344 55.7708 124.042 55.1146 123.438 54.4062C122.833 53.6771 122.344 53.0938 121.969 52.6562L105.938 34.0938V48.5C105.938 49.3333 106.042 49.9271 106.25 50.2812C106.479 50.6354 106.948 51.0208 107.656 51.4375C108.594 52.0208 109.365 52.5521 109.969 53.0312C110.594 53.4896 110.906 54.3438 110.906 55.5938ZM182.281 55.5938C182.281 56.8021 181.927 57.6771 181.219 58.2188C180.51 58.7396 179.594 59 178.469 59H160.5C159.396 59 158.479 58.7292 157.75 58.1875C157.042 57.6458 156.688 56.7812 156.688 55.5938C156.688 54.5104 156.948 53.6979 157.469 53.1562C157.99 52.6146 158.583 52.1875 159.25 51.875C159.917 51.5417 160.51 51.1667 161.031 50.75C161.552 50.3125 161.812 49.6562 161.812 48.7812V44.625L150.906 26.5625C150.427 25.75 150.062 25.1042 149.812 24.625C149.583 24.1458 149.042 23.625 148.188 23.0625C147.292 22.4583 146.594 21.9583 146.094 21.5625C145.594 21.1667 145.344 20.3646 145.344 19.1562C145.344 17.9479 145.698 17.0833 146.406 16.5625C147.135 16.0208 148.062 15.75 149.188 15.75H166.969C168.094 15.75 169.01 16.0208 169.719 16.5625C170.427 17.0833 170.781 17.9479 170.781 19.1562C170.781 20.1979 170.552 20.9792 170.094 21.5C169.656 22.0208 169.146 22.4271 168.562 22.7188C168 22.9896 167.49 23.2708 167.031 23.5625C166.594 23.8333 166.375 24.25 166.375 24.8125C166.375 25.2292 166.479 25.6771 166.688 26.1562C166.917 26.6146 167.135 27.0208 167.344 27.375L173.438 37.8438L180.094 26.25C180.24 26 180.375 25.7292 180.5 25.4375C180.646 25.125 180.719 24.8229 180.719 24.5312C180.719 24.0521 180.51 23.6875 180.094 23.4375C179.698 23.1667 179.24 22.8958 178.719 22.625C178.198 22.3333 177.729 21.9271 177.312 21.4062C176.917 20.8854 176.719 20.1354 176.719 19.1562C176.719 17.9479 177.073 17.0833 177.781 16.5625C178.49 16.0208 179.406 15.75 180.531 15.75H189.25C190.375 15.75 191.292 16.0208 192 16.5625C192.708 17.0833 193.062 17.9479 193.062 19.1562C193.062 20.1146 192.865 20.8229 192.469 21.2812C192.073 21.7188 191.521 22.2083 190.812 22.75C190.104 23.3125 189.552 23.8438 189.156 24.3438C188.781 24.8229 188.354 25.4583 187.875 26.25L177.188 44.2188V48.7812C177.188 49.6562 177.438 50.3021 177.938 50.7188C178.458 51.1354 179.052 51.5 179.719 51.8125C180.406 52.125 181 52.5521 181.5 53.0938C182.021 53.6354 182.281 54.4688 182.281 55.5938Z" fill="#BBF65D"/>
</g>
<defs>
<filter id="filter0_i_4_7" x="2.09375" y="14.4688" width="190.969" height="49.7812" filterUnits="userSpaceOnUse" color-interpolation-filters="sRGB">
<feFlood flood-opacity="0" result="BackgroundImageFix"/>
<feBlend mode="normal" in="SourceGraphic" in2="BackgroundImageFix" result="shape"/>
<feColorMatrix in="SourceAlpha" type="matrix" values="0 0 0 0 0 0 0 0 0 0 0 0 0 0 0 0 0 0 127 0" result="hardAlpha"/>
<feOffset dy="4"/>
<feGaussianBlur stdDeviation="8.4"/>
<feComposite in2="hardAlpha" operator="arithmetic" k2="-1" k3="1"/>
<feColorMatrix type="matrix" values="0 0 0 0 0 0 0 0 0 0 0 0 0 0 0 0 0 0 0.25 0"/>
<feBlend mode="normal" in2="shape" result="effect1_innerShadow_4_7"/>
</filter>
</defs>
</svg>
