<svg xmlns="http://www.w3.org/2000/svg" xmlns:xlink="http://www.w3.org/1999/xlink" width="485" zoomAndPan="magnify" viewBox="0 0 363.75 233.999995" height="312" preserveAspectRatio="xMidYMid meet" version="1.0"><defs><g/><clipPath id="34a99f834a"><path d="M 0 0.0820312 L 363.5 0.0820312 L 363.5 233.917969 L 0 233.917969 Z M 0 0.0820312 " clip-rule="nonzero"/></clipPath><clipPath id="b726829fe8"><path d="M 0 107 L 363.5 107 L 363.5 233.917969 L 0 233.917969 Z M 0 107 " clip-rule="nonzero"/></clipPath><clipPath id="dff0127c39"><path d="M 0 141 L 355 141 L 355 233.917969 L 0 233.917969 Z M 0 141 " clip-rule="nonzero"/></clipPath><clipPath id="ca42c013fe"><path d="M 0 0.0820312 L 363.5 0.0820312 L 363.5 233.917969 L 0 233.917969 Z M 0 0.0820312 " clip-rule="nonzero"/></clipPath></defs><g clip-path="url(#34a99f834a)"><path stroke-linecap="butt" transform="matrix(0.778173, 0, 0, 0.778173, 31.889929, 17.471728)" fill="none" stroke-linejoin="miter" d="M 27.18798 65.699971 L 62.150693 65.699971 L 43.115717 154.469622 L 75.839612 154.469622 L 73.088777 167.997908 L 5.437307 167.997908 Z M 140.273408 121.273869 L 182.002774 121.273869 L 172.640899 167.997908 L 153.646081 167.997908 L 150.579 157.697336 L 149.946509 157.697336 C 147.140456 160.92003 143.837446 163.660825 140.037479 165.914703 C 136.232491 168.168581 131.262917 169.298029 125.128755 169.298029 C 120.410169 169.298029 115.872295 168.524985 111.520153 166.978895 C 107.16801 165.402686 103.302786 162.927939 99.919459 159.544612 C 96.536133 156.161286 93.820436 151.728827 91.777389 146.252255 C 89.729322 140.770664 88.710308 134.164644 88.710308 126.429175 C 88.710308 118.061215 89.99537 110.119935 92.565493 102.590277 C 95.160715 95.065638 99.02594 88.434519 104.166187 82.6919 C 109.331532 76.949281 115.781939 72.411407 123.517408 69.083298 C 131.252877 65.750169 140.273408 64.088624 150.579 64.088624 C 158.52028 64.088624 165.442546 65.007243 171.345798 66.839459 C 177.269129 68.651597 182.866175 70.679585 188.136936 72.938483 L 182.002774 104.206644 L 154.785569 104.206644 C 154.890984 103.026997 155.046597 101.63652 155.257428 100.035213 C 155.468258 98.408807 155.623871 96.717143 155.729286 94.960223 C 155.834702 93.178204 155.940117 91.436343 156.045532 89.729621 C 156.176046 88.002819 156.241303 86.491868 156.241303 85.206806 C 156.241303 84.343405 156.176046 83.34447 156.045532 82.220041 C 155.940117 81.090593 155.679089 79.991263 155.257428 78.917031 C 154.835767 77.83778 154.193236 76.95932 153.329835 76.281651 C 152.466435 75.573863 151.231571 75.217459 149.635283 75.217459 C 146.82923 75.217459 144.269147 76.372007 141.965071 78.681102 C 139.655976 80.985177 137.58281 84.052258 135.750593 87.882344 C 133.938455 91.682312 132.352207 95.999316 130.991849 100.823317 C 129.65157 105.647318 128.527141 110.561675 127.608523 115.571408 C 126.715003 120.556042 126.022275 125.4453 125.525317 130.244202 C 125.048439 135.012985 124.81251 139.169357 124.81251 142.708296 C 124.81251 143.787547 124.867727 145.137866 124.973142 146.759252 C 125.078557 148.36056 125.419902 149.946808 125.997176 151.517996 C 126.599548 153.069106 127.462949 154.404365 128.592398 155.533814 C 129.716827 156.658243 131.358292 157.225477 133.506755 157.225477 C 137.045694 157.225477 140.484238 155.297885 143.812347 151.4427 C 147.140456 147.562416 149.670421 141.112009 151.402243 132.091478 L 137.873957 132.091478 Z M 272.368713 167.997908 L 234.685283 167.997908 L 216.789795 94.056664 L 201.017671 167.997908 L 186.50551 167.997908 L 208.256183 65.699971 L 246.762855 65.699971 L 263.674467 140.625091 L 279.602205 65.699971 L 294.430612 65.699971 Z M 352.905938 129.335623 L 344.683551 167.997908 L 309.760996 167.997908 L 318.610854 126.584788 L 302.798572 65.699971 L 341.501015 65.699971 L 352.434079 106.134236 L 376.584203 65.699971 L 394.007832 65.699971 Z M 352.905938 129.335623 " stroke="#000000" stroke-width="42.289799" stroke-opacity="1" stroke-miterlimit="4"/></g><g fill="#000000" fill-opacity="1"><g transform="translate(36.121244, 148.204753)"><g><path d="M 16.921875 -79.609375 L 44.125 -79.609375 L 29.328125 -10.53125 L 54.78125 -10.53125 L 52.65625 0 L 0 0 Z M 16.921875 -79.609375 "/></g></g></g><g fill="#000000" fill-opacity="1"><g transform="translate(96.544158, 148.204753)"><g><path d="M 44.5 -36.359375 L 76.96875 -36.359375 L 69.703125 0 L 54.90625 0 L 52.53125 -8.015625 L 52.03125 -8.015625 C 49.851562 -5.515625 47.28125 -3.382812 44.3125 -1.625 C 41.34375 0.125 37.476562 1 32.71875 1 C 29.039062 1 25.507812 0.394531 22.125 -0.8125 C 18.738281 -2.019531 15.726562 -3.941406 13.09375 -6.578125 C 10.46875 -9.210938 8.359375 -12.660156 6.765625 -16.921875 C 5.179688 -21.179688 4.390625 -26.320312 4.390625 -32.34375 C 4.390625 -38.863281 5.390625 -45.046875 7.390625 -50.890625 C 9.398438 -56.742188 12.410156 -61.90625 16.421875 -66.375 C 20.429688 -70.84375 25.441406 -74.375 31.453125 -76.96875 C 37.472656 -79.5625 44.5 -80.859375 52.53125 -80.859375 C 58.707031 -80.859375 64.09375 -80.144531 68.6875 -78.71875 C 73.289062 -77.300781 77.640625 -75.71875 81.734375 -73.96875 L 76.96875 -49.640625 L 55.78125 -49.640625 C 55.863281 -50.554688 55.988281 -51.640625 56.15625 -52.890625 C 56.320312 -54.148438 56.445312 -55.46875 56.53125 -56.84375 C 56.613281 -58.226562 56.695312 -59.585938 56.78125 -60.921875 C 56.863281 -62.265625 56.90625 -63.4375 56.90625 -64.4375 C 56.90625 -65.101562 56.863281 -65.875 56.78125 -66.75 C 56.695312 -67.625 56.488281 -68.476562 56.15625 -69.3125 C 55.820312 -70.15625 55.320312 -70.847656 54.65625 -71.390625 C 53.988281 -71.929688 53.023438 -72.203125 51.765625 -72.203125 C 49.597656 -72.203125 47.613281 -71.300781 45.8125 -69.5 C 44.019531 -67.707031 42.410156 -65.328125 40.984375 -62.359375 C 39.566406 -59.398438 38.335938 -56.039062 37.296875 -52.28125 C 36.253906 -48.519531 35.375 -44.691406 34.65625 -40.796875 C 33.945312 -36.910156 33.40625 -33.109375 33.03125 -29.390625 C 32.65625 -25.671875 32.46875 -22.4375 32.46875 -19.6875 C 32.46875 -18.84375 32.507812 -17.796875 32.59375 -16.546875 C 32.675781 -15.296875 32.945312 -14.0625 33.40625 -12.84375 C 33.863281 -11.632812 34.53125 -10.59375 35.40625 -9.71875 C 36.289062 -8.84375 37.566406 -8.40625 39.234375 -8.40625 C 41.992188 -8.40625 44.664062 -9.90625 47.25 -12.90625 C 49.84375 -15.914062 51.8125 -20.929688 53.15625 -27.953125 L 42.625 -27.953125 Z M 44.5 -36.359375 "/></g></g></g><g fill="#000000" fill-opacity="1"><g transform="translate(177.02447, 148.204753)"><g><path d="M 66.8125 0 L 37.484375 0 L 23.5625 -57.546875 L 11.28125 0 L 0 0 L 16.921875 -79.609375 L 46.890625 -79.609375 L 60.046875 -21.3125 L 72.453125 -79.609375 L 83.984375 -79.609375 Z M 66.8125 0 "/></g></g></g><g fill="#000000" fill-opacity="1"><g transform="translate(257.7555, 148.204753)"><g><path d="M 48.765625 -30.09375 L 42.375 0 L 15.171875 0 L 22.0625 -32.21875 L 9.78125 -79.609375 L 39.859375 -79.609375 L 48.390625 -48.140625 L 67.1875 -79.609375 L 80.734375 -79.609375 Z M 48.765625 -30.09375 "/></g></g></g><g clip-path="url(#b726829fe8)"><path stroke-linecap="butt" transform="matrix(0.610016, 0, 0, 0.610016, 18.417643, 160.713566)" fill="none" stroke-linejoin="miter" d="M 12.967662 30.297147 L 32.082169 30.297147 L 33.414102 64.197381 L 46.490089 30.297147 L 61.986607 30.297147 L 64.01012 64.197381 L 77.156546 30.297147 L 85.372262 30.297147 L 66.052842 80.001268 L 48.436759 80.001268 L 46.791055 51.909027 L 35.059806 80.001268 L 16.278282 80.001268 Z M 91.327535 30.297147 L 124.267242 30.297147 L 123.024959 36.239613 L 107.05458 36.239613 L 103.763171 51.358324 L 117.159335 51.358324 L 115.897841 57.223948 L 102.520888 57.223948 L 98.909303 73.98196 L 114.886085 73.98196 L 113.701434 80.001268 L 80.755324 80.001268 Z M 168.105739 41.650588 C 168.105739 43.161818 167.888019 44.519365 167.439773 45.716823 C 166.991527 46.914281 166.376789 47.983669 165.582752 48.93139 C 164.807926 49.872707 163.898626 50.705165 162.854853 51.435166 C 161.811079 52.158764 160.664849 52.831133 159.416163 53.458678 C 159.986076 53.676398 160.664849 54.002978 161.439675 54.451224 C 162.227308 54.886663 162.989327 55.494998 163.712924 56.289034 C 164.449329 57.06386 165.070471 58.069213 165.563542 59.305092 C 166.063016 60.528164 166.312753 62.026588 166.312753 63.79396 C 166.312753 66.137648 165.813279 68.308441 164.820733 70.293532 C 163.828188 72.278623 162.348975 73.994767 160.389498 75.435559 C 158.436424 76.85714 156.035104 77.977756 153.185538 78.797407 C 150.342375 79.597847 147.07658 80.001268 143.381749 80.001268 L 120.124164 80.001268 L 130.689972 30.297147 L 151.270885 30.297147 C 153.313608 30.297147 155.330717 30.444428 157.328615 30.73899 C 159.345724 31.020745 161.145113 31.577851 162.739589 32.416712 C 164.327662 33.24917 165.621173 34.408207 166.620122 35.893823 C 167.612668 37.385844 168.105739 39.306899 168.105739 41.650588 Z M 146.820439 51.127797 C 147.966669 51.127797 148.940004 50.788411 149.746847 50.116041 C 150.560094 49.424461 151.226061 48.572793 151.751149 47.554633 C 152.269834 46.536473 152.660449 45.441472 152.91659 44.263224 C 153.185538 43.09138 153.320012 42.034799 153.320012 41.093482 C 153.320012 39.588654 152.961414 38.301547 152.250624 37.232159 C 151.546237 36.162771 150.438428 35.631279 148.920793 35.631279 L 146.570702 35.631279 L 143.208854 51.127797 Z M 141.185341 75.070558 C 142.7478 75.070558 144.054118 74.628715 145.097892 73.751433 C 146.148069 72.861344 147.006141 71.766342 147.678511 70.466427 C 148.357284 69.153706 148.831144 67.783352 149.112899 66.355368 C 149.407461 64.914576 149.554742 63.646679 149.554742 62.551677 C 149.554742 60.72027 149.170531 59.266671 148.408512 58.197283 C 147.652896 57.127895 146.442631 56.59 144.777716 56.59 L 141.889729 56.59 L 138.047617 75.070558 Z M 183.755942 80.001268 L 194.321749 30.297147 L 215.382926 30.297147 C 218.616704 30.297147 221.44706 30.623726 223.86759 31.270482 C 226.300928 31.923641 228.311633 33.005836 229.90611 34.52347 C 231.494182 36.034701 232.691641 38.026195 233.498484 40.485147 C 234.298924 42.931292 234.702346 45.928139 234.702346 49.482093 C 234.702346 53.292187 234.215678 57.025439 233.248747 60.681849 C 232.294622 64.325452 230.693742 67.584843 228.452511 70.466427 C 226.211279 73.328801 223.272063 75.634068 219.641267 77.382229 C 216.010471 79.13039 211.540814 80.001268 206.225893 80.001268 Z M 205.194926 74.513452 C 206.917473 74.513452 208.435107 73.802661 209.760636 72.374676 C 211.098972 70.933884 212.251605 69.108881 213.218537 66.893263 C 214.191872 64.677645 214.998715 62.225097 215.645471 59.535619 C 216.29863 56.84614 216.817315 54.252715 217.214333 51.755342 C 217.611351 49.245162 217.89951 46.997527 218.072405 45.012436 C 218.251703 43.027345 218.341353 41.61857 218.341353 40.786113 C 218.341353 39.172426 218.014773 37.910932 217.368018 37.008036 C 216.721262 36.085929 215.581436 35.631279 213.967749 35.631279 L 210.202479 35.631279 L 201.833078 74.513452 Z M 246.132629 30.297147 L 279.078739 30.297147 L 277.836456 36.239613 L 261.859674 36.239613 L 258.574668 51.358324 L 271.970832 51.358324 L 270.709338 57.223948 L 257.332385 57.223948 L 253.7208 73.98196 L 269.697582 73.98196 L 268.512931 80.001268 L 235.566821 80.001268 Z M 305.775013 44.705067 C 305.928698 43.917434 306.00554 42.848046 306.00554 41.496903 C 306.00554 40.702867 305.954312 39.934444 305.851856 39.185233 C 305.749399 38.429617 305.563697 37.757248 305.301153 37.155317 C 305.045012 36.546982 304.654397 36.073122 304.135712 35.746542 C 303.610624 35.400752 302.93185 35.227857 302.086586 35.227857 C 301.158075 35.227857 300.300004 35.439173 299.505967 35.855402 C 298.731141 36.278035 298.039561 36.81593 297.424823 37.462686 C 296.829296 38.115845 296.355435 38.87146 296.009645 39.735935 C 295.683066 40.594007 295.516574 41.4905 295.516574 42.431817 C 295.516574 43.78296 295.862364 44.826734 296.566752 45.563138 C 297.277542 46.29314 298.212456 46.888667 299.358686 47.362528 C 300.504916 47.836388 301.804831 48.227003 303.252026 48.547179 C 304.718432 48.854548 306.236067 49.213145 307.804929 49.635777 C 309.111247 49.994374 310.417565 50.461831 311.71748 51.050955 C 313.030201 51.620868 314.189238 52.395694 315.194591 53.362626 C 316.219154 54.31675 317.038805 55.565436 317.659946 57.108685 C 318.300298 58.651933 318.620474 60.566586 318.620474 62.859046 C 318.620474 66.144051 317.960912 68.910372 316.64819 71.151604 C 315.348276 73.392836 313.548886 75.224243 311.243619 76.63942 C 308.951159 78.035388 306.22326 79.059951 303.066324 79.693899 C 299.915793 80.321444 296.489909 80.628813 292.782271 80.628813 C 289.023405 80.628813 285.956119 80.379076 283.57401 79.886005 C 281.204707 79.386531 279.341283 78.855038 277.99014 78.278722 C 276.376453 77.606352 275.172592 76.818719 274.378555 75.92863 L 277.055227 65.209137 L 290.816391 65.209137 C 290.765163 65.682998 290.713934 66.32335 290.662706 67.136597 C 290.611478 67.94344 290.585864 68.577389 290.585864 69.051249 C 290.585864 69.672391 290.662706 70.32555 290.816391 70.997919 C 290.982882 71.676693 291.226216 72.297834 291.559199 72.874151 C 291.904989 73.444064 292.385253 73.917925 293.012798 74.289329 C 293.63394 74.654329 294.421572 74.840031 295.36289 74.840031 C 296.406664 74.840031 297.328771 74.603101 298.135614 74.135644 C 298.948861 73.661784 299.627634 73.079063 300.178337 72.374676 C 300.722636 71.663886 301.138865 70.876253 301.42062 70.024584 C 301.715182 69.160109 301.862463 68.314845 301.862463 67.482387 C 301.862463 66.336157 301.587111 65.375629 301.036409 64.600803 C 300.492109 63.806767 299.742898 63.140801 298.80158 62.590098 C 297.87307 62.045799 296.790875 61.571938 295.554996 61.17492 C 294.331923 60.784305 293.07043 60.37448 291.770515 59.951848 C 290.509022 59.599654 289.183493 59.157811 287.793929 58.639126 C 286.417173 58.114037 285.155679 57.384036 284.009449 56.436315 C 282.863219 55.494998 281.909095 54.310347 281.147076 52.882362 C 280.39146 51.447973 280.020056 49.603759 280.020056 47.362528 C 280.020056 44.026294 280.865321 41.221552 282.562254 38.954706 C 284.252783 36.675053 286.391559 34.830839 288.978581 33.428468 C 291.565603 32.019694 294.395958 31.014341 297.463244 30.41241 C 300.549741 29.816883 303.469746 29.515918 306.236067 29.515918 C 309.892477 29.515918 313.036605 29.944953 315.674855 30.815832 C 318.313105 31.6675 320.3046 32.666449 321.655743 33.812679 L 318.767755 44.705067 Z M 348.659386 57.30079 L 368.93293 57.30079 L 364.386431 80.001268 L 355.158959 80.001268 L 353.666939 74.993716 L 353.35957 74.993716 C 352.002023 76.562578 350.39474 77.89451 348.544123 78.989512 C 346.699909 80.084514 344.285782 80.628813 341.301742 80.628813 C 339.009282 80.628813 336.806471 80.257409 334.693309 79.501794 C 332.580148 78.739775 330.697513 77.535913 329.058212 75.890209 C 327.412507 74.250908 326.093382 72.092921 325.100836 69.435461 C 324.108291 66.771596 323.608816 63.557029 323.608816 59.804567 C 323.608816 55.738332 324.236361 51.877009 325.485048 48.220599 C 326.740137 44.564189 328.622772 41.343219 331.120145 38.551284 C 333.630325 35.765753 336.761646 33.556539 340.520512 31.942852 C 344.279378 30.322761 348.659386 29.515918 353.666939 29.515918 C 357.528261 29.515918 360.890109 29.95776 363.758886 30.854253 C 366.634066 31.731535 369.355562 32.717678 371.91697 33.812679 L 368.93293 49.008232 L 355.709661 49.008232 C 355.76089 48.431915 355.837732 47.759546 355.940188 46.978316 C 356.042644 46.190683 356.119487 45.371033 356.170715 44.512961 C 356.221943 43.648486 356.273171 42.803221 356.324399 41.970764 C 356.388435 41.131903 356.420452 40.401901 356.420452 39.774356 C 356.420452 39.358128 356.388435 38.87146 356.324399 38.320757 C 356.273171 37.776458 356.145101 37.238563 355.940188 36.719877 C 355.735275 36.194789 355.427907 35.772156 355.005274 35.439173 C 354.582642 35.093383 353.987115 34.920488 353.212289 34.920488 C 351.848339 34.920488 350.606056 35.483998 349.48544 36.604614 C 348.364824 37.72523 347.353068 39.21725 346.462979 41.074271 C 345.585696 42.924888 344.810871 45.018839 344.151308 47.362528 C 343.504552 49.706216 342.95385 52.094729 342.505603 54.528066 C 342.076568 56.948597 341.737181 59.324303 341.493847 61.655184 C 341.263321 63.973258 341.154461 65.990367 341.154461 67.712914 C 341.154461 68.238002 341.180075 68.891161 341.224899 69.678794 C 341.276128 70.460024 341.442619 71.228446 341.724374 71.990465 C 342.018936 72.74608 342.435165 73.392836 342.985867 73.943539 C 343.53657 74.487838 344.330607 74.763189 345.37438 74.763189 C 347.096927 74.763189 348.761842 73.828275 350.381933 71.952044 C 352.002023 70.069409 353.225096 66.938088 354.07036 62.551677 L 347.493945 62.551677 Z M 388.03463 80.001268 L 371.122934 80.001268 L 381.688742 30.297147 L 398.67728 30.297147 Z M 438.353489 80.001268 L 420.045826 80.001268 L 411.349846 44.077522 L 403.691236 80.001268 L 396.640961 80.001268 L 407.206768 30.297147 L 425.91145 30.297147 L 434.127166 66.701158 L 441.869022 30.297147 L 449.072982 30.297147 Z M 477.882418 44.705067 C 478.036102 43.917434 478.112944 42.848046 478.112944 41.496903 C 478.112944 40.702867 478.061716 39.934444 477.95926 39.185233 C 477.856803 38.429617 477.671101 37.757248 477.402154 37.155317 C 477.152416 36.546982 476.761802 36.073122 476.236713 35.746542 C 475.718028 35.400752 475.032851 35.227857 474.19399 35.227857 C 473.26548 35.227857 472.407408 35.439173 471.613372 35.855402 C 470.838546 36.278035 470.146965 36.81593 469.532228 37.462686 C 468.9367 38.115845 468.46284 38.87146 468.11705 39.735935 C 467.784067 40.594007 467.623979 41.4905 467.623979 42.431817 C 467.623979 43.78296 467.969769 44.826734 468.674156 45.563138 C 469.384947 46.29314 470.313457 46.888667 471.459687 47.362528 C 472.605917 47.836388 473.905832 48.227003 475.359431 48.547179 C 476.825837 48.854548 478.343471 49.213145 479.90593 49.635777 C 481.218651 49.994374 482.524969 50.461831 483.824884 51.050955 C 485.137606 51.620868 486.296643 52.395694 487.301995 53.362626 C 488.320155 54.31675 489.146209 55.565436 489.76735 57.108685 C 490.407702 58.651933 490.721475 60.566586 490.721475 62.859046 C 490.721475 66.144051 490.068316 68.910372 488.755594 71.151604 C 487.45568 73.392836 485.656291 75.224243 483.351024 76.63942 C 481.05216 78.035388 478.330664 79.059951 475.167325 79.693899 C 472.023197 80.321444 468.597314 80.628813 464.889676 80.628813 C 461.130809 80.628813 458.063523 80.379076 455.681414 79.886005 C 453.305708 79.386531 451.448687 78.855038 450.097545 78.278722 C 448.483858 77.606352 447.273592 76.818719 446.485959 75.92863 L 449.162631 65.209137 L 462.923795 65.209137 C 462.872567 65.682998 462.821339 66.32335 462.770111 67.136597 C 462.718882 67.94344 462.693268 68.577389 462.693268 69.051249 C 462.693268 69.672391 462.770111 70.32555 462.923795 70.997919 C 463.083883 71.676693 463.33362 72.297834 463.666603 72.874151 C 464.012393 73.444064 464.492657 73.917925 465.120202 74.289329 C 465.741344 74.654329 466.528977 74.840031 467.470294 74.840031 C 468.514068 74.840031 469.436175 74.603101 470.236615 74.135644 C 471.056265 73.661784 471.735038 73.079063 472.285741 72.374676 C 472.83004 71.663886 473.246269 70.876253 473.528024 70.024584 C 473.816182 69.160109 473.963463 68.314845 473.963463 67.482387 C 473.963463 66.336157 473.694516 65.375629 473.143813 64.600803 C 472.59311 63.806767 471.850302 63.140801 470.908984 62.590098 C 469.980474 62.045799 468.898279 61.571938 467.6624 61.17492 C 466.439327 60.784305 465.177834 60.37448 463.87792 59.951848 C 462.616426 59.599654 461.290897 59.157811 459.901334 58.639126 C 458.524577 58.114037 457.263083 57.384036 456.116853 56.436315 C 454.970623 55.494998 454.016499 54.310347 453.25448 52.882362 C 452.498865 51.447973 452.121057 49.603759 452.121057 47.362528 C 452.121057 44.026294 452.972725 41.221552 454.663254 38.954706 C 456.360187 36.675053 458.498963 34.830839 461.085985 33.428468 C 463.673007 32.019694 466.503363 31.014341 469.570649 30.41241 C 472.650742 29.816883 475.57715 29.515918 478.343471 29.515918 C 481.999881 29.515918 485.144009 29.944953 487.782259 30.815832 C 490.420509 31.6675 492.412004 32.666449 493.763147 33.812679 L 490.875159 44.705067 Z M 477.882418 44.705067 " stroke="#000000" stroke-width="20.547161" stroke-opacity="1" stroke-miterlimit="4"/></g><g fill="#000000" fill-opacity="1"><g transform="translate(22.611503, 209.514851)"><g><path d="M 3.71875 -30.328125 L 15.375 -30.328125 L 16.1875 -9.640625 L 24.15625 -30.328125 L 33.609375 -30.328125 L 34.859375 -9.640625 L 42.875 -30.328125 L 47.890625 -30.328125 L 36.09375 0 L 25.359375 0 L 24.359375 -17.140625 L 17.1875 0 L 5.734375 0 Z M 3.71875 -30.328125 "/></g></g></g><g fill="#000000" fill-opacity="1"><g transform="translate(67.681196, 209.514851)"><g><path d="M 6.453125 -30.328125 L 26.546875 -30.328125 L 25.78125 -26.6875 L 16.046875 -26.6875 L 14.03125 -17.46875 L 22.203125 -17.46875 L 21.4375 -13.890625 L 13.28125 -13.890625 L 11.078125 -3.671875 L 20.8125 -3.671875 L 20.109375 0 L 0 0 Z M 6.453125 -30.328125 "/></g></g></g><g fill="#000000" fill-opacity="1"><g transform="translate(91.696083, 209.514851)"><g><path d="M 29.265625 -23.390625 C 29.265625 -22.472656 29.128906 -21.644531 28.859375 -20.90625 C 28.585938 -20.175781 28.210938 -19.523438 27.734375 -18.953125 C 27.265625 -18.378906 26.707031 -17.867188 26.0625 -17.421875 C 25.425781 -16.984375 24.726562 -16.570312 23.96875 -16.1875 C 24.320312 -16.0625 24.734375 -15.863281 25.203125 -15.59375 C 25.679688 -15.320312 26.144531 -14.945312 26.59375 -14.46875 C 27.039062 -13.988281 27.414062 -13.375 27.71875 -12.625 C 28.019531 -11.875 28.171875 -10.960938 28.171875 -9.890625 C 28.171875 -8.453125 27.867188 -7.128906 27.265625 -5.921875 C 26.660156 -4.710938 25.757812 -3.671875 24.5625 -2.796875 C 23.375 -1.921875 21.910156 -1.234375 20.171875 -0.734375 C 18.441406 -0.242188 16.445312 0 14.1875 0 L 0 0 L 6.453125 -30.328125 L 19 -30.328125 C 20.238281 -30.328125 21.472656 -30.238281 22.703125 -30.0625 C 23.929688 -29.882812 25.03125 -29.539062 26 -29.03125 C 26.96875 -28.519531 27.753906 -27.8125 28.359375 -26.90625 C 28.960938 -26 29.265625 -24.828125 29.265625 -23.390625 Z M 16.28125 -17.625 C 16.976562 -17.625 17.570312 -17.828125 18.0625 -18.234375 C 18.5625 -18.648438 18.96875 -19.164062 19.28125 -19.78125 C 19.601562 -20.40625 19.84375 -21.078125 20 -21.796875 C 20.164062 -22.515625 20.25 -23.160156 20.25 -23.734375 C 20.25 -24.648438 20.03125 -25.4375 19.59375 -26.09375 C 19.164062 -26.75 18.492188 -27.078125 17.578125 -27.078125 L 16.140625 -27.078125 L 14.09375 -17.625 Z M 12.84375 -3.015625 C 13.800781 -3.015625 14.597656 -3.28125 15.234375 -3.8125 C 15.867188 -4.351562 16.390625 -5.019531 16.796875 -5.8125 C 17.210938 -6.613281 17.507812 -7.453125 17.6875 -8.328125 C 17.863281 -9.203125 17.953125 -9.972656 17.953125 -10.640625 C 17.953125 -11.753906 17.71875 -12.640625 17.25 -13.296875 C 16.789062 -13.953125 16.054688 -14.28125 15.046875 -14.28125 L 13.28125 -14.28125 L 10.9375 -3.015625 Z M 12.84375 -3.015625 "/></g></g></g><g fill="#000000" fill-opacity="1"><g transform="translate(121.392424, 209.514851)"><g/></g></g><g fill="#000000" fill-opacity="1"><g transform="translate(130.511399, 209.514851)"><g><path d="M 0 0 L 6.453125 -30.328125 L 19.296875 -30.328125 C 21.265625 -30.328125 22.988281 -30.125 24.46875 -29.71875 C 25.945312 -29.320312 27.171875 -28.660156 28.140625 -27.734375 C 29.117188 -26.816406 29.851562 -25.609375 30.34375 -24.109375 C 30.832031 -22.617188 31.078125 -20.789062 31.078125 -18.625 C 31.078125 -16.300781 30.78125 -14.023438 30.1875 -11.796875 C 29.601562 -9.566406 28.628906 -7.578125 27.265625 -5.828125 C 25.898438 -4.078125 24.109375 -2.664062 21.890625 -1.59375 C 19.679688 -0.53125 16.953125 0 13.703125 0 Z M 13.078125 -3.34375 C 14.128906 -3.34375 15.0625 -3.78125 15.875 -4.65625 C 16.6875 -5.53125 17.382812 -6.644531 17.96875 -8 C 18.5625 -9.351562 19.054688 -10.847656 19.453125 -12.484375 C 19.859375 -14.128906 20.175781 -15.710938 20.40625 -17.234375 C 20.644531 -18.765625 20.820312 -20.132812 20.9375 -21.34375 C 21.050781 -22.550781 21.109375 -23.410156 21.109375 -23.921875 C 21.109375 -24.910156 20.90625 -25.679688 20.5 -26.234375 C 20.101562 -26.796875 19.414062 -27.078125 18.4375 -27.078125 L 16.140625 -27.078125 L 11.03125 -3.34375 Z M 13.078125 -3.34375 "/></g></g></g><g fill="#000000" fill-opacity="1"><g transform="translate(162.117474, 209.514851)"><g><path d="M 6.453125 -30.328125 L 26.546875 -30.328125 L 25.78125 -26.6875 L 16.046875 -26.6875 L 14.03125 -17.46875 L 22.203125 -17.46875 L 21.4375 -13.890625 L 13.28125 -13.890625 L 11.078125 -3.671875 L 20.8125 -3.671875 L 20.109375 0 L 0 0 Z M 6.453125 -30.328125 "/></g></g></g><g fill="#000000" fill-opacity="1"><g transform="translate(186.13237, 209.514851)"><g><path d="M 18.8125 -21.53125 C 18.90625 -22.007812 18.953125 -22.664062 18.953125 -23.5 C 18.953125 -23.96875 18.921875 -24.429688 18.859375 -24.890625 C 18.796875 -25.359375 18.679688 -25.773438 18.515625 -26.140625 C 18.359375 -26.503906 18.117188 -26.789062 17.796875 -27 C 17.484375 -27.207031 17.070312 -27.3125 16.5625 -27.3125 C 15.988281 -27.3125 15.460938 -27.179688 14.984375 -26.921875 C 14.515625 -26.671875 14.09375 -26.347656 13.71875 -25.953125 C 13.351562 -25.554688 13.066406 -25.09375 12.859375 -24.5625 C 12.660156 -24.039062 12.5625 -23.492188 12.5625 -22.921875 C 12.5625 -22.085938 12.773438 -21.445312 13.203125 -21 C 13.628906 -20.5625 14.191406 -20.195312 14.890625 -19.90625 C 15.597656 -19.625 16.394531 -19.382812 17.28125 -19.1875 C 18.175781 -19 19.101562 -18.78125 20.0625 -18.53125 C 20.851562 -18.300781 21.644531 -18.007812 22.4375 -17.65625 C 23.238281 -17.3125 23.945312 -16.84375 24.5625 -16.25 C 25.1875 -15.664062 25.6875 -14.90625 26.0625 -13.96875 C 26.445312 -13.03125 26.640625 -11.859375 26.640625 -10.453125 C 26.640625 -8.453125 26.238281 -6.765625 25.4375 -5.390625 C 24.644531 -4.023438 23.550781 -2.910156 22.15625 -2.046875 C 20.757812 -1.191406 19.097656 -0.570312 17.171875 -0.1875 C 15.242188 0.1875 13.148438 0.375 10.890625 0.375 C 8.597656 0.375 6.726562 0.222656 5.28125 -0.078125 C 3.832031 -0.378906 2.691406 -0.703125 1.859375 -1.046875 C 0.867188 -1.460938 0.140625 -1.941406 -0.328125 -2.484375 L 1.296875 -9.03125 L 9.6875 -9.03125 C 9.65625 -8.738281 9.625 -8.34375 9.59375 -7.84375 C 9.5625 -7.351562 9.546875 -6.96875 9.546875 -6.6875 C 9.546875 -6.300781 9.59375 -5.898438 9.6875 -5.484375 C 9.789062 -5.078125 9.941406 -4.695312 10.140625 -4.34375 C 10.347656 -3.988281 10.644531 -3.703125 11.03125 -3.484375 C 11.414062 -3.265625 11.894531 -3.15625 12.46875 -3.15625 C 13.101562 -3.15625 13.664062 -3.296875 14.15625 -3.578125 C 14.644531 -3.867188 15.054688 -4.226562 15.390625 -4.65625 C 15.734375 -5.082031 15.988281 -5.554688 16.15625 -6.078125 C 16.332031 -6.609375 16.421875 -7.128906 16.421875 -7.640625 C 16.421875 -8.335938 16.253906 -8.925781 15.921875 -9.40625 C 15.585938 -9.882812 15.132812 -10.289062 14.5625 -10.625 C 13.988281 -10.957031 13.328125 -11.242188 12.578125 -11.484375 C 11.828125 -11.722656 11.054688 -11.96875 10.265625 -12.21875 C 9.503906 -12.445312 8.703125 -12.71875 7.859375 -13.03125 C 7.015625 -13.351562 6.238281 -13.800781 5.53125 -14.375 C 4.832031 -14.945312 4.253906 -15.671875 3.796875 -16.546875 C 3.335938 -17.421875 3.109375 -18.539062 3.109375 -19.90625 C 3.109375 -21.945312 3.625 -23.660156 4.65625 -25.046875 C 5.6875 -26.429688 6.988281 -27.550781 8.5625 -28.40625 C 10.144531 -29.269531 11.875 -29.882812 13.75 -30.25 C 15.625 -30.613281 17.40625 -30.796875 19.09375 -30.796875 C 21.320312 -30.796875 23.238281 -30.53125 24.84375 -30 C 26.457031 -29.476562 27.675781 -28.867188 28.5 -28.171875 L 26.734375 -21.53125 Z M 18.8125 -21.53125 "/></g></g></g><g fill="#000000" fill-opacity="1"><g transform="translate(214.157701, 209.514851)"><g><path d="M 16.953125 -13.84375 L 29.3125 -13.84375 L 26.546875 0 L 20.921875 0 L 20 -3.0625 L 19.8125 -3.0625 C 18.988281 -2.101562 18.007812 -1.289062 16.875 -0.625 C 15.75 0.0390625 14.28125 0.375 12.46875 0.375 C 11.0625 0.375 9.710938 0.144531 8.421875 -0.3125 C 7.140625 -0.769531 5.992188 -1.5 4.984375 -2.5 C 3.984375 -3.507812 3.179688 -4.820312 2.578125 -6.4375 C 1.972656 -8.0625 1.671875 -10.019531 1.671875 -12.3125 C 1.671875 -14.800781 2.050781 -17.160156 2.8125 -19.390625 C 3.582031 -21.617188 4.726562 -23.582031 6.25 -25.28125 C 7.78125 -26.988281 9.691406 -28.332031 11.984375 -29.3125 C 14.273438 -30.300781 16.945312 -30.796875 20 -30.796875 C 22.363281 -30.796875 24.421875 -30.523438 26.171875 -29.984375 C 27.921875 -29.441406 29.578125 -28.835938 31.140625 -28.171875 L 29.3125 -18.90625 L 21.25 -18.90625 C 21.28125 -19.257812 21.328125 -19.671875 21.390625 -20.140625 C 21.453125 -20.617188 21.5 -21.117188 21.53125 -21.640625 C 21.5625 -22.171875 21.59375 -22.691406 21.625 -23.203125 C 21.65625 -23.710938 21.671875 -24.160156 21.671875 -24.546875 C 21.671875 -24.796875 21.65625 -25.085938 21.625 -25.421875 C 21.59375 -25.753906 21.515625 -26.082031 21.390625 -26.40625 C 21.265625 -26.726562 21.070312 -26.988281 20.8125 -27.1875 C 20.5625 -27.394531 20.195312 -27.5 19.71875 -27.5 C 18.894531 -27.5 18.140625 -27.15625 17.453125 -26.46875 C 16.765625 -25.789062 16.148438 -24.882812 15.609375 -23.75 C 15.066406 -22.625 14.597656 -21.34375 14.203125 -19.90625 C 13.804688 -18.476562 13.472656 -17.023438 13.203125 -15.546875 C 12.929688 -14.066406 12.722656 -12.617188 12.578125 -11.203125 C 12.441406 -9.785156 12.375 -8.550781 12.375 -7.5 C 12.375 -7.175781 12.390625 -6.773438 12.421875 -6.296875 C 12.453125 -5.828125 12.550781 -5.359375 12.71875 -4.890625 C 12.894531 -4.429688 13.148438 -4.035156 13.484375 -3.703125 C 13.816406 -3.367188 14.304688 -3.203125 14.953125 -3.203125 C 15.992188 -3.203125 17.007812 -3.773438 18 -4.921875 C 18.988281 -6.066406 19.738281 -7.972656 20.25 -10.640625 L 16.234375 -10.640625 Z M 16.953125 -13.84375 "/></g></g></g><g fill="#000000" fill-opacity="1"><g transform="translate(244.808905, 209.514851)"><g><path d="M 10.3125 0 L 0 0 L 6.453125 -30.328125 L 16.8125 -30.328125 Z M 10.3125 0 "/></g></g></g><g fill="#000000" fill-opacity="1"><g transform="translate(260.373232, 209.514851)"><g><path d="M 25.453125 0 L 14.28125 0 L 8.984375 -21.921875 L 4.296875 0 L 0 0 L 6.453125 -30.328125 L 17.859375 -30.328125 L 22.875 -8.125 L 27.59375 -30.328125 L 32 -30.328125 Z M 25.453125 0 "/></g></g></g><g fill="#000000" fill-opacity="1"><g transform="translate(291.119918, 209.514851)"><g><path d="M 18.8125 -21.53125 C 18.90625 -22.007812 18.953125 -22.664062 18.953125 -23.5 C 18.953125 -23.96875 18.921875 -24.429688 18.859375 -24.890625 C 18.796875 -25.359375 18.679688 -25.773438 18.515625 -26.140625 C 18.359375 -26.503906 18.117188 -26.789062 17.796875 -27 C 17.484375 -27.207031 17.070312 -27.3125 16.5625 -27.3125 C 15.988281 -27.3125 15.460938 -27.179688 14.984375 -26.921875 C 14.515625 -26.671875 14.09375 -26.347656 13.71875 -25.953125 C 13.351562 -25.554688 13.066406 -25.09375 12.859375 -24.5625 C 12.660156 -24.039062 12.5625 -23.492188 12.5625 -22.921875 C 12.5625 -22.085938 12.773438 -21.445312 13.203125 -21 C 13.628906 -20.5625 14.191406 -20.195312 14.890625 -19.90625 C 15.597656 -19.625 16.394531 -19.382812 17.28125 -19.1875 C 18.175781 -19 19.101562 -18.78125 20.0625 -18.53125 C 20.851562 -18.300781 21.644531 -18.007812 22.4375 -17.65625 C 23.238281 -17.3125 23.945312 -16.84375 24.5625 -16.25 C 25.1875 -15.664062 25.6875 -14.90625 26.0625 -13.96875 C 26.445312 -13.03125 26.640625 -11.859375 26.640625 -10.453125 C 26.640625 -8.453125 26.238281 -6.765625 25.4375 -5.390625 C 24.644531 -4.023438 23.550781 -2.910156 22.15625 -2.046875 C 20.757812 -1.191406 19.097656 -0.570312 17.171875 -0.1875 C 15.242188 0.1875 13.148438 0.375 10.890625 0.375 C 8.597656 0.375 6.726562 0.222656 5.28125 -0.078125 C 3.832031 -0.378906 2.691406 -0.703125 1.859375 -1.046875 C 0.867188 -1.460938 0.140625 -1.941406 -0.328125 -2.484375 L 1.296875 -9.03125 L 9.6875 -9.03125 C 9.65625 -8.738281 9.625 -8.34375 9.59375 -7.84375 C 9.5625 -7.351562 9.546875 -6.96875 9.546875 -6.6875 C 9.546875 -6.300781 9.59375 -5.898438 9.6875 -5.484375 C 9.789062 -5.078125 9.941406 -4.695312 10.140625 -4.34375 C 10.347656 -3.988281 10.644531 -3.703125 11.03125 -3.484375 C 11.414062 -3.265625 11.894531 -3.15625 12.46875 -3.15625 C 13.101562 -3.15625 13.664062 -3.296875 14.15625 -3.578125 C 14.644531 -3.867188 15.054688 -4.226562 15.390625 -4.65625 C 15.734375 -5.082031 15.988281 -5.554688 16.15625 -6.078125 C 16.332031 -6.609375 16.421875 -7.128906 16.421875 -7.640625 C 16.421875 -8.335938 16.253906 -8.925781 15.921875 -9.40625 C 15.585938 -9.882812 15.132812 -10.289062 14.5625 -10.625 C 13.988281 -10.957031 13.328125 -11.242188 12.578125 -11.484375 C 11.828125 -11.722656 11.054688 -11.96875 10.265625 -12.21875 C 9.503906 -12.445312 8.703125 -12.71875 7.859375 -13.03125 C 7.015625 -13.351562 6.238281 -13.800781 5.53125 -14.375 C 4.832031 -14.945312 4.253906 -15.671875 3.796875 -16.546875 C 3.335938 -17.421875 3.109375 -18.539062 3.109375 -19.90625 C 3.109375 -21.945312 3.625 -23.660156 4.65625 -25.046875 C 5.6875 -26.429688 6.988281 -27.550781 8.5625 -28.40625 C 10.144531 -29.269531 11.875 -29.882812 13.75 -30.25 C 15.625 -30.613281 17.40625 -30.796875 19.09375 -30.796875 C 21.320312 -30.796875 23.238281 -30.53125 24.84375 -30 C 26.457031 -29.476562 27.675781 -28.867188 28.5 -28.171875 L 26.734375 -21.53125 Z M 18.8125 -21.53125 "/></g></g></g><g clip-path="url(#dff0127c39)"><path stroke-linecap="butt" transform="matrix(0.603707, 0, 0, 0.603707, 10.868668, 160.762955)" fill="none" stroke-linejoin="miter" d="M 28.079271 30.299038 L 47.18649 30.299038 L 48.525872 64.197691 L 61.596168 30.299038 L 77.09288 30.299038 L 79.118129 64.197691 L 92.26607 30.299038 L 100.483533 30.299038 L 81.162789 79.998514 L 63.543771 79.998514 L 61.900279 51.910319 L 50.169365 79.998514 L 31.385668 79.998514 Z M 106.436341 30.299038 L 139.377368 30.299038 L 138.135043 36.238905 L 122.159518 36.238905 L 118.872533 51.353861 L 132.272821 51.353861 L 131.011085 57.222553 L 117.630208 57.222553 L 114.0197 73.981001 L 129.995225 73.981001 L 128.811134 79.998514 L 95.870107 79.998514 Z M 183.214622 41.648196 C 183.214622 43.162279 182.994627 44.521072 182.548166 45.718105 C 182.101706 46.915137 181.487013 47.98923 180.697619 48.927444 C 179.914696 49.872129 179.008834 50.706816 177.960622 51.431506 C 176.91888 52.156196 175.773612 52.835592 174.524816 53.456755 C 175.094215 53.67675 175.773612 54.006743 176.550065 54.453203 C 177.339459 54.886723 178.096501 55.494944 178.821191 56.284339 C 179.558821 57.060792 180.179984 58.070181 180.678208 59.306036 C 181.169962 60.528949 181.422309 62.023622 181.422309 63.796523 C 181.422309 66.138824 180.924085 68.306422 179.927637 70.292849 C 178.937659 72.279275 177.455927 73.993942 175.495383 75.430381 C 173.547779 76.860349 171.147245 77.979735 168.293779 78.795011 C 165.453255 79.597346 162.185681 79.998514 158.491058 79.998514 L 135.236284 79.998514 L 145.802518 30.299038 L 166.384999 30.299038 C 168.423188 30.299038 170.441967 30.441388 172.441334 30.739028 C 174.453641 31.017257 176.252425 31.580186 177.850624 32.421343 C 179.442353 33.24956 180.729972 34.407769 181.72642 35.895971 C 182.722868 37.384173 183.214622 39.305895 183.214622 41.648196 Z M 161.926863 51.127395 C 163.078602 51.127395 164.049169 50.790932 164.851503 50.111536 C 165.666779 49.425669 166.339705 48.57157 166.857341 47.55571 C 167.381447 46.53338 167.769673 45.439875 168.028491 44.268725 C 168.293779 43.097575 168.429659 42.036422 168.429659 41.091737 C 168.429659 39.590595 168.067314 38.302976 167.355565 37.235353 C 166.656757 36.16126 165.550311 35.630683 164.029757 35.630683 L 161.680986 35.630683 L 158.316356 51.127395 Z M 156.291107 75.068036 C 157.856954 75.068036 159.163984 74.628046 160.212196 73.754536 C 161.253937 72.861615 162.114506 71.761639 162.787432 70.46755 C 163.466829 69.15405 163.945641 67.782316 164.22387 66.358819 C 164.51504 64.91591 164.663861 63.647703 164.663861 62.554198 C 164.663861 60.716592 164.282104 59.267213 163.518592 58.19959 C 162.76155 57.125496 161.551577 56.588449 159.882203 56.588449 L 157.002856 56.588449 L 153.159412 75.068036 Z M 198.866624 79.998514 L 209.432858 30.299038 L 230.487681 30.299038 C 233.722903 30.299038 236.556957 30.62256 238.976903 31.269604 C 241.40979 31.923119 243.422098 33.003683 245.013827 34.517767 C 246.605556 36.038321 247.802588 38.024747 248.604923 40.483516 C 249.407258 42.929343 249.808425 45.931629 249.808425 49.483903 C 249.808425 53.294994 249.323142 57.021969 248.359046 60.67777 C 247.40142 64.3271 245.803221 67.588203 243.557977 70.46755 C 241.319203 73.333957 238.381622 75.637435 234.751703 77.384454 C 231.121785 79.125004 226.650708 79.998514 221.338474 79.998514 Z M 220.303203 74.518048 C 222.024341 74.518048 223.544895 73.799829 224.871336 72.376331 C 226.210718 70.933422 227.362457 69.108757 228.333024 66.889395 C 229.29712 64.676504 230.105925 62.224206 230.75944 59.532501 C 231.406484 56.847267 231.93059 54.252619 232.325287 51.755028 C 232.719984 49.244496 233.004684 46.999252 233.185856 45.012826 C 233.360558 43.0264 233.451144 41.615843 233.451144 40.787627 C 233.451144 39.170016 233.127622 37.908279 232.474107 37.002417 C 231.827063 36.090085 230.694735 35.630683 229.077125 35.630683 L 225.311327 35.630683 L 216.938573 74.518048 Z M 261.241699 30.299038 L 294.189196 30.299038 L 292.946871 36.238905 L 276.971347 36.238905 L 273.684361 51.353861 L 287.078179 51.353861 L 285.816443 57.222553 L 272.442036 57.222553 L 268.831529 73.981001 L 284.807053 73.981001 L 283.622962 79.998514 L 250.675465 79.998514 Z M 320.886246 44.708715 C 321.041536 43.912851 321.112711 42.845228 321.112711 41.492905 C 321.112711 40.703511 321.067418 39.933528 320.963891 39.182957 C 320.860364 38.432385 320.672721 37.759459 320.407433 37.157708 C 320.155086 36.549486 319.766859 36.077144 319.242753 35.740681 C 318.718647 35.397747 318.039251 35.229516 317.198093 35.229516 C 316.266349 35.229516 315.40578 35.43657 314.616386 35.857149 C 313.839933 36.277728 313.147595 36.814774 312.532903 37.461819 C 311.937623 38.115334 311.46528 38.872375 311.122347 39.739415 C 310.792354 40.593513 310.624123 41.486435 310.624123 42.431119 C 310.624123 43.783442 310.973527 44.825183 311.678805 45.562814 C 312.390554 46.293974 313.315827 46.889255 314.467566 47.361597 C 315.612834 47.83394 316.913394 48.228637 318.362773 48.545688 C 319.831564 48.849799 321.345647 49.218614 322.911495 49.639193 C 324.224995 49.995068 325.532024 50.46094 326.826113 51.04975 C 328.139613 51.625619 329.297822 52.395602 330.307211 53.359698 C 331.323071 54.317324 332.144817 55.566119 332.77245 57.106085 C 333.406554 58.64605 333.730076 60.567772 333.730076 62.858309 C 333.730076 66.145294 333.070091 68.908174 331.756591 71.153417 C 330.462502 73.392191 328.657248 75.223326 326.35377 76.633883 C 324.056763 78.037969 321.332706 79.060299 318.17513 79.694403 C 315.024024 80.315565 311.60116 80.632617 307.893595 80.632617 C 304.134268 80.632617 301.060807 80.38027 298.679684 79.888516 C 296.311502 79.390292 294.454485 78.853245 293.102162 78.277376 C 291.484551 77.60445 290.281049 76.821526 289.491654 75.928605 L 292.163948 65.20708 L 305.926581 65.20708 C 305.874817 65.679422 305.823054 66.326467 305.77129 67.141743 C 305.719526 67.944078 305.693645 68.578181 305.693645 69.050523 C 305.693645 69.671686 305.77129 70.325201 305.926581 70.998127 C 306.088342 71.677523 306.340689 72.298686 306.670682 72.874555 C 307.013615 73.443954 307.498898 73.916297 308.120061 74.285112 C 308.747694 74.653927 309.530618 74.84157 310.468832 74.84157 C 311.517044 74.84157 312.442317 74.602164 313.244652 74.136292 C 314.059928 73.66395 314.739325 73.075139 315.289312 72.376331 C 315.832829 71.664583 316.246938 70.881659 316.531637 70.02756 C 316.822807 69.160521 316.971628 68.312893 316.971628 67.484676 C 316.971628 66.339408 316.693398 65.375312 316.149881 64.598858 C 315.599894 63.809464 314.855793 63.136538 313.911108 62.593021 C 312.979364 62.043033 311.8988 61.570691 310.662945 61.175994 C 309.440031 60.781297 308.178295 60.373659 306.877736 59.95308 C 305.615999 59.597206 304.296029 59.157215 302.904884 58.63311 C 301.526679 58.115474 300.264943 57.384314 299.119674 56.439629 C 297.974406 55.494944 297.01678 54.310853 296.253268 52.887356 C 295.502696 51.444447 295.127411 49.606841 295.127411 47.361597 C 295.127411 44.022848 295.975039 41.221146 297.670295 38.956491 C 299.365551 36.672425 301.500797 34.834819 304.088975 33.430733 C 306.677152 32.020176 309.504736 31.010787 312.571726 30.415506 C 315.658128 29.813755 318.582768 29.516114 321.345647 29.516114 C 325.001448 29.516114 328.146083 29.949634 330.786024 30.816673 C 333.419495 31.664301 335.412391 32.66722 336.764714 33.812489 L 333.878896 44.708715 Z M 363.772345 57.300198 L 384.044244 57.300198 L 379.495522 79.998514 L 370.26867 79.998514 L 368.773997 74.99039 L 368.469886 74.99039 C 367.111093 76.562708 365.499953 77.889149 363.655877 78.989124 C 361.8118 80.082629 359.391854 80.632617 356.41545 80.632617 C 354.118443 80.632617 351.918492 80.257331 349.802657 79.500289 C 347.686822 78.736777 345.810394 77.533275 344.166901 75.889782 C 342.523408 74.246289 341.203438 72.098102 340.20699 69.43228 C 339.217012 66.772927 338.718788 63.557117 338.718788 59.80426 C 338.718788 55.740821 339.33995 51.877967 340.588746 48.222166 C 341.850482 44.566366 343.733381 41.344085 346.230973 38.555324 C 348.735034 35.760092 351.873199 33.560141 355.632527 31.942531 C 359.385384 30.32492 363.772345 29.516114 368.773997 29.516114 C 372.636852 29.516114 376.001483 29.962575 378.867889 30.849026 C 381.747236 31.729006 384.464823 32.718984 387.027118 33.812489 L 384.044244 49.00509 L 370.818657 49.00509 C 370.870421 48.42922 370.948066 47.756294 371.051593 46.979841 C 371.15512 46.190447 371.226295 45.368701 371.278059 44.514602 C 371.329822 43.647563 371.381586 42.799935 371.43335 41.971718 C 371.498054 41.13056 371.530406 40.3994 371.530406 39.778237 C 371.530406 39.357659 371.498054 38.872375 371.43335 38.322388 C 371.381586 37.77887 371.252177 37.241824 371.051593 36.717718 C 370.844539 36.193612 370.533958 35.766563 370.113379 35.43657 C 369.6928 35.093636 369.097519 34.918935 368.321066 34.918935 C 366.955803 34.918935 365.713478 35.481863 364.594091 36.60125 C 363.468234 37.727107 362.465315 39.215309 361.572394 41.072326 C 360.692414 42.922873 359.922431 45.019297 359.262446 47.361597 C 358.608931 49.703898 358.065413 52.091491 357.618953 54.530848 C 357.185433 56.950794 356.84897 59.325447 356.603093 61.654807 C 356.376628 63.971225 356.26016 65.990004 356.26016 67.711142 C 356.26016 68.235248 356.286042 68.888762 356.337805 69.678156 C 356.389569 70.46108 356.55133 71.231063 356.836029 71.994575 C 357.127199 72.745147 357.547778 73.392191 358.097766 73.942179 C 358.641283 74.492166 359.437147 74.763925 360.485359 74.763925 C 362.206497 74.763925 363.869401 73.825711 365.493482 71.955752 C 367.111093 70.072853 368.340478 66.934688 369.181635 62.554198 L 362.607665 62.554198 Z M 403.144993 79.998514 L 386.231254 79.998514 L 396.797488 30.299038 L 413.788872 30.299038 Z M 453.45916 79.998514 L 435.154276 79.998514 L 426.464471 44.074612 L 418.796995 79.998514 L 411.744212 79.998514 L 422.316916 30.299038 L 441.022968 30.299038 L 449.240431 66.701752 L 456.979082 30.299038 L 464.180685 30.299038 Z M 492.993569 44.708715 C 493.14239 43.912851 493.220035 42.845228 493.220035 41.492905 C 493.220035 40.703511 493.168271 39.933528 493.071215 39.182957 C 492.967688 38.432385 492.780045 37.759459 492.514757 37.157708 C 492.262409 36.549486 491.874183 36.077144 491.350077 35.740681 C 490.825971 35.397747 490.146574 35.229516 489.305417 35.229516 C 488.373673 35.229516 487.513104 35.43657 486.72371 35.857149 C 485.947257 36.277728 485.254919 36.814774 484.640227 37.461819 C 484.044946 38.115334 483.572604 38.872375 483.22967 39.739415 C 482.893207 40.593513 482.731446 41.486435 482.731446 42.431119 C 482.731446 43.783442 483.08085 44.825183 483.779658 45.562814 C 484.497877 46.293974 485.423151 46.889255 486.57489 47.361597 C 487.720158 47.83394 489.020717 48.228637 490.470097 48.545688 C 491.932417 48.849799 493.452971 49.218614 495.018818 49.639193 C 496.332318 49.995068 497.632877 50.46094 498.933436 51.04975 C 500.246936 51.625619 501.405146 52.395602 502.414535 53.359698 C 503.430395 54.317324 504.252141 55.566119 504.879774 57.106085 C 505.513877 58.64605 505.830929 60.567772 505.830929 62.858309 C 505.830929 66.145294 505.177414 68.908174 503.863914 71.153417 C 502.563355 73.392191 500.764572 75.223326 498.454624 76.633883 C 496.164087 78.037969 493.44003 79.060299 490.275983 79.694403 C 487.131348 80.315565 483.708483 80.632617 480.000919 80.632617 C 476.241592 80.632617 473.168131 80.38027 470.787008 79.888516 C 468.418825 79.390292 466.555338 78.853245 465.209486 78.277376 C 463.591875 77.60445 462.388372 76.821526 461.598978 75.928605 L 464.271271 65.20708 L 478.027434 65.20708 C 477.982141 65.679422 477.930377 66.326467 477.878614 67.141743 C 477.82685 67.944078 477.800968 68.578181 477.800968 69.050523 C 477.800968 69.671686 477.878614 70.325201 478.027434 70.998127 C 478.195665 71.677523 478.441542 72.298686 478.778005 72.874555 C 479.120939 73.443954 479.606222 73.916297 480.227385 74.285112 C 480.848547 74.653927 481.637941 74.84157 482.576156 74.84157 C 483.624367 74.84157 484.54317 74.602164 485.345505 74.136292 C 486.160781 73.66395 486.846648 73.075139 487.390165 72.376331 C 487.940153 71.664583 488.354262 70.881659 488.632491 70.02756 C 488.930131 69.160521 489.072481 68.312893 489.072481 67.484676 C 489.072481 66.339408 488.800722 65.375312 488.250734 64.598858 C 487.707217 63.809464 486.963116 63.136538 486.018431 62.593021 C 485.086688 62.043033 484.006124 61.570691 482.770269 61.175994 C 481.547355 60.781297 480.285619 60.373659 478.98506 59.95308 C 477.723323 59.597206 476.396882 59.157215 475.012207 58.63311 C 473.634003 58.115474 472.372266 57.384314 471.226998 56.439629 C 470.081729 55.494944 469.124104 54.310853 468.360591 52.887356 C 467.61002 51.444447 467.234734 49.606841 467.234734 47.361597 C 467.234734 44.022848 468.082362 41.221146 469.777619 38.956491 C 471.466404 36.672425 473.608121 34.834819 476.196298 33.430733 C 478.784476 32.020176 481.61206 31.010787 484.67905 30.415506 C 487.765451 29.813755 490.683621 29.516114 493.452971 29.516114 C 497.108771 29.516114 500.253407 29.949634 502.893348 30.816673 C 505.526818 31.664301 507.519715 32.66722 508.872038 33.812489 L 505.98622 44.708715 Z M 492.993569 44.708715 " stroke="#fffffd" stroke-width="10.762798" stroke-opacity="1" stroke-miterlimit="4"/></g><g fill="#e7f65d" fill-opacity="1"><g transform="translate(24.140783, 209.059491)"><g><path d="M 3.6875 -30 L 15.21875 -30 L 16.015625 -9.546875 L 23.90625 -30 L 33.265625 -30 L 34.5 -9.546875 L 42.4375 -30 L 47.390625 -30 L 35.71875 0 L 25.09375 0 L 24.09375 -16.96875 L 17.015625 0 L 5.671875 0 Z M 3.6875 -30 "/></g></g></g><g fill="#e7f65d" fill-opacity="1"><g transform="translate(68.744322, 209.059491)"><g><path d="M 6.375 -30 L 26.265625 -30 L 25.515625 -26.40625 L 15.875 -26.40625 L 13.890625 -17.296875 L 21.96875 -17.296875 L 21.21875 -13.75 L 13.140625 -13.75 L 10.96875 -3.640625 L 20.59375 -3.640625 L 19.890625 0 L 0 0 Z M 6.375 -30 "/></g></g></g><g fill="#e7f65d" fill-opacity="1"><g transform="translate(92.510824, 209.059491)"><g><path d="M 28.96875 -23.15625 C 28.96875 -22.238281 28.832031 -21.414062 28.5625 -20.6875 C 28.289062 -19.96875 27.921875 -19.320312 27.453125 -18.75 C 26.984375 -18.1875 26.429688 -17.679688 25.796875 -17.234375 C 25.171875 -16.796875 24.476562 -16.390625 23.71875 -16.015625 C 24.0625 -15.890625 24.46875 -15.691406 24.9375 -15.421875 C 25.414062 -15.160156 25.875 -14.789062 26.3125 -14.3125 C 26.757812 -13.84375 27.128906 -13.238281 27.421875 -12.5 C 27.722656 -11.757812 27.875 -10.851562 27.875 -9.78125 C 27.875 -8.363281 27.570312 -7.054688 26.96875 -5.859375 C 26.375 -4.660156 25.484375 -3.628906 24.296875 -2.765625 C 23.117188 -1.898438 21.671875 -1.222656 19.953125 -0.734375 C 18.242188 -0.242188 16.269531 0 14.03125 0 L 0 0 L 6.375 -30 L 18.8125 -30 C 20.03125 -30 21.242188 -29.910156 22.453125 -29.734375 C 23.671875 -29.566406 24.757812 -29.226562 25.71875 -28.71875 C 26.6875 -28.21875 27.46875 -27.519531 28.0625 -26.625 C 28.664062 -25.726562 28.96875 -24.570312 28.96875 -23.15625 Z M 16.109375 -17.4375 C 16.804688 -17.4375 17.394531 -17.640625 17.875 -18.046875 C 18.363281 -18.453125 18.765625 -18.960938 19.078125 -19.578125 C 19.398438 -20.191406 19.640625 -20.851562 19.796875 -21.5625 C 19.953125 -22.269531 20.03125 -22.910156 20.03125 -23.484375 C 20.03125 -24.398438 19.816406 -25.179688 19.390625 -25.828125 C 18.972656 -26.472656 18.304688 -26.796875 17.390625 -26.796875 L 15.96875 -26.796875 L 13.9375 -17.4375 Z M 12.703125 -2.984375 C 13.648438 -2.984375 14.4375 -3.25 15.0625 -3.78125 C 15.695312 -4.3125 16.21875 -4.972656 16.625 -5.765625 C 17.039062 -6.554688 17.332031 -7.382812 17.5 -8.25 C 17.675781 -9.113281 17.765625 -9.875 17.765625 -10.53125 C 17.765625 -11.632812 17.535156 -12.507812 17.078125 -13.15625 C 16.617188 -13.800781 15.890625 -14.125 14.890625 -14.125 L 13.140625 -14.125 L 10.8125 -2.984375 Z M 12.703125 -2.984375 "/></g></g></g><g fill="#e7f65d" fill-opacity="1"><g transform="translate(121.900017, 209.059491)"><g/></g></g><g fill="#e7f65d" fill-opacity="1"><g transform="translate(130.924675, 209.059491)"><g><path d="M 0 0 L 6.375 -30 L 19.09375 -30 C 21.039062 -30 22.742188 -29.800781 24.203125 -29.40625 C 25.671875 -29.019531 26.882812 -28.367188 27.84375 -27.453125 C 28.8125 -26.535156 29.539062 -25.335938 30.03125 -23.859375 C 30.519531 -22.378906 30.765625 -20.566406 30.765625 -18.421875 C 30.765625 -16.128906 30.472656 -13.878906 29.890625 -11.671875 C 29.304688 -9.460938 28.335938 -7.492188 26.984375 -5.765625 C 25.628906 -4.035156 23.851562 -2.640625 21.65625 -1.578125 C 19.46875 -0.523438 16.769531 0 13.5625 0 Z M 12.953125 -3.3125 C 13.984375 -3.3125 14.898438 -3.742188 15.703125 -4.609375 C 16.515625 -5.472656 17.207031 -6.570312 17.78125 -7.90625 C 18.363281 -9.25 18.851562 -10.734375 19.25 -12.359375 C 19.644531 -13.984375 19.957031 -15.550781 20.1875 -17.0625 C 20.425781 -18.570312 20.601562 -19.925781 20.71875 -21.125 C 20.832031 -22.320312 20.890625 -23.171875 20.890625 -23.671875 C 20.890625 -24.648438 20.691406 -25.414062 20.296875 -25.96875 C 19.898438 -26.519531 19.210938 -26.796875 18.234375 -26.796875 L 15.96875 -26.796875 L 10.921875 -3.3125 Z M 12.953125 -3.3125 "/></g></g></g><g fill="#e7f65d" fill-opacity="1"><g transform="translate(162.20385, 209.059491)"><g><path d="M 6.375 -30 L 26.265625 -30 L 25.515625 -26.40625 L 15.875 -26.40625 L 13.890625 -17.296875 L 21.96875 -17.296875 L 21.21875 -13.75 L 13.140625 -13.75 L 10.96875 -3.640625 L 20.59375 -3.640625 L 19.890625 0 L 0 0 Z M 6.375 -30 "/></g></g></g><g fill="#e7f65d" fill-opacity="1"><g transform="translate(185.970361, 209.059491)"><g><path d="M 18.609375 -21.3125 C 18.710938 -21.78125 18.765625 -22.425781 18.765625 -23.25 C 18.765625 -23.71875 18.726562 -24.179688 18.65625 -24.640625 C 18.59375 -25.097656 18.484375 -25.503906 18.328125 -25.859375 C 18.171875 -26.222656 17.9375 -26.507812 17.625 -26.71875 C 17.3125 -26.925781 16.898438 -27.03125 16.390625 -27.03125 C 15.828125 -27.03125 15.304688 -26.898438 14.828125 -26.640625 C 14.359375 -26.390625 13.941406 -26.066406 13.578125 -25.671875 C 13.222656 -25.285156 12.941406 -24.832031 12.734375 -24.3125 C 12.523438 -23.789062 12.421875 -23.25 12.421875 -22.6875 C 12.421875 -21.863281 12.632812 -21.226562 13.0625 -20.78125 C 13.488281 -20.34375 14.046875 -19.984375 14.734375 -19.703125 C 15.429688 -19.421875 16.21875 -19.1875 17.09375 -19 C 17.976562 -18.8125 18.894531 -18.585938 19.84375 -18.328125 C 20.632812 -18.109375 21.421875 -17.828125 22.203125 -17.484375 C 22.992188 -17.140625 23.695312 -16.675781 24.3125 -16.09375 C 24.925781 -15.507812 25.421875 -14.75 25.796875 -13.8125 C 26.171875 -12.882812 26.359375 -11.726562 26.359375 -10.34375 C 26.359375 -8.363281 25.960938 -6.695312 25.171875 -5.34375 C 24.390625 -3.988281 23.304688 -2.882812 21.921875 -2.03125 C 20.535156 -1.175781 18.890625 -0.5625 16.984375 -0.1875 C 15.078125 0.1875 13.003906 0.375 10.765625 0.375 C 8.503906 0.375 6.65625 0.226562 5.21875 -0.0625 C 3.789062 -0.363281 2.664062 -0.691406 1.84375 -1.046875 C 0.863281 -1.453125 0.140625 -1.921875 -0.328125 -2.453125 L 1.28125 -8.9375 L 9.59375 -8.9375 C 9.5625 -8.644531 9.53125 -8.253906 9.5 -7.765625 C 9.46875 -7.285156 9.453125 -6.898438 9.453125 -6.609375 C 9.453125 -6.234375 9.5 -5.835938 9.59375 -5.421875 C 9.6875 -5.015625 9.832031 -4.640625 10.03125 -4.296875 C 10.238281 -3.953125 10.53125 -3.671875 10.90625 -3.453125 C 11.289062 -3.234375 11.765625 -3.125 12.328125 -3.125 C 12.960938 -3.125 13.519531 -3.265625 14 -3.546875 C 14.488281 -3.828125 14.898438 -4.179688 15.234375 -4.609375 C 15.566406 -5.035156 15.816406 -5.503906 15.984375 -6.015625 C 16.160156 -6.535156 16.25 -7.050781 16.25 -7.5625 C 16.25 -8.25 16.082031 -8.828125 15.75 -9.296875 C 15.425781 -9.773438 14.976562 -10.179688 14.40625 -10.515625 C 13.84375 -10.847656 13.191406 -11.128906 12.453125 -11.359375 C 11.710938 -11.597656 10.945312 -11.84375 10.15625 -12.09375 C 9.40625 -12.3125 8.609375 -12.578125 7.765625 -12.890625 C 6.929688 -13.210938 6.164062 -13.65625 5.46875 -14.21875 C 4.78125 -14.789062 4.207031 -15.507812 3.75 -16.375 C 3.300781 -17.238281 3.078125 -18.347656 3.078125 -19.703125 C 3.078125 -21.722656 3.585938 -23.414062 4.609375 -24.78125 C 5.628906 -26.15625 6.914062 -27.265625 8.46875 -28.109375 C 10.03125 -28.960938 11.738281 -29.566406 13.59375 -29.921875 C 15.457031 -30.285156 17.226562 -30.46875 18.90625 -30.46875 C 21.101562 -30.46875 23 -30.207031 24.59375 -29.6875 C 26.1875 -29.175781 27.390625 -28.570312 28.203125 -27.875 L 26.453125 -21.3125 Z M 18.609375 -21.3125 "/></g></g></g><g fill="#e7f65d" fill-opacity="1"><g transform="translate(213.705827, 209.059491)"><g><path d="M 16.78125 -13.703125 L 29.015625 -13.703125 L 26.265625 0 L 20.703125 0 L 19.796875 -3.03125 L 19.609375 -3.03125 C 18.785156 -2.082031 17.816406 -1.273438 16.703125 -0.609375 C 15.585938 0.046875 14.128906 0.375 12.328125 0.375 C 10.941406 0.375 9.609375 0.144531 8.328125 -0.3125 C 7.054688 -0.769531 5.925781 -1.492188 4.9375 -2.484375 C 3.945312 -3.472656 3.148438 -4.769531 2.546875 -6.375 C 1.953125 -7.976562 1.65625 -9.914062 1.65625 -12.1875 C 1.65625 -14.644531 2.03125 -16.972656 2.78125 -19.171875 C 3.539062 -21.378906 4.675781 -23.328125 6.1875 -25.015625 C 7.695312 -26.703125 9.585938 -28.03125 11.859375 -29 C 14.128906 -29.976562 16.773438 -30.46875 19.796875 -30.46875 C 22.128906 -30.46875 24.160156 -30.203125 25.890625 -29.671875 C 27.617188 -29.140625 29.257812 -28.539062 30.8125 -27.875 L 29.015625 -18.71875 L 21.03125 -18.71875 C 21.0625 -19.0625 21.109375 -19.46875 21.171875 -19.9375 C 21.234375 -20.40625 21.28125 -20.898438 21.3125 -21.421875 C 21.34375 -21.941406 21.375 -22.453125 21.40625 -22.953125 C 21.4375 -23.460938 21.453125 -23.90625 21.453125 -24.28125 C 21.453125 -24.539062 21.4375 -24.832031 21.40625 -25.15625 C 21.375 -25.488281 21.296875 -25.8125 21.171875 -26.125 C 21.046875 -26.445312 20.851562 -26.707031 20.59375 -26.90625 C 20.34375 -27.113281 19.984375 -27.21875 19.515625 -27.21875 C 18.691406 -27.21875 17.941406 -26.878906 17.265625 -26.203125 C 16.585938 -25.523438 15.976562 -24.625 15.4375 -23.5 C 14.90625 -22.382812 14.441406 -21.117188 14.046875 -19.703125 C 13.660156 -18.285156 13.332031 -16.84375 13.0625 -15.375 C 12.789062 -13.914062 12.582031 -12.484375 12.4375 -11.078125 C 12.300781 -9.679688 12.234375 -8.460938 12.234375 -7.421875 C 12.234375 -7.109375 12.25 -6.710938 12.28125 -6.234375 C 12.3125 -5.765625 12.414062 -5.300781 12.59375 -4.84375 C 12.769531 -4.382812 13.019531 -3.988281 13.34375 -3.65625 C 13.675781 -3.332031 14.160156 -3.171875 14.796875 -3.171875 C 15.828125 -3.171875 16.832031 -3.734375 17.8125 -4.859375 C 18.789062 -5.992188 19.53125 -7.882812 20.03125 -10.53125 L 16.0625 -10.53125 Z M 16.78125 -13.703125 "/></g></g></g><g fill="#e7f65d" fill-opacity="1"><g transform="translate(244.040007, 209.059491)"><g><path d="M 10.203125 0 L 0 0 L 6.375 -30 L 16.625 -30 Z M 10.203125 0 "/></g></g></g><g fill="#e7f65d" fill-opacity="1"><g transform="translate(259.443353, 209.059491)"><g><path d="M 25.1875 0 L 14.125 0 L 8.890625 -21.6875 L 4.25 0 L 0 0 L 6.375 -30 L 17.671875 -30 L 22.625 -8.03125 L 27.3125 -30 L 31.65625 -30 Z M 25.1875 0 "/></g></g></g><g fill="#e7f65d" fill-opacity="1"><g transform="translate(289.872028, 209.059491)"><g><path d="M 18.609375 -21.3125 C 18.710938 -21.78125 18.765625 -22.425781 18.765625 -23.25 C 18.765625 -23.71875 18.726562 -24.179688 18.65625 -24.640625 C 18.59375 -25.097656 18.484375 -25.503906 18.328125 -25.859375 C 18.171875 -26.222656 17.9375 -26.507812 17.625 -26.71875 C 17.3125 -26.925781 16.898438 -27.03125 16.390625 -27.03125 C 15.828125 -27.03125 15.304688 -26.898438 14.828125 -26.640625 C 14.359375 -26.390625 13.941406 -26.066406 13.578125 -25.671875 C 13.222656 -25.285156 12.941406 -24.832031 12.734375 -24.3125 C 12.523438 -23.789062 12.421875 -23.25 12.421875 -22.6875 C 12.421875 -21.863281 12.632812 -21.226562 13.0625 -20.78125 C 13.488281 -20.34375 14.046875 -19.984375 14.734375 -19.703125 C 15.429688 -19.421875 16.21875 -19.1875 17.09375 -19 C 17.976562 -18.8125 18.894531 -18.585938 19.84375 -18.328125 C 20.632812 -18.109375 21.421875 -17.828125 22.203125 -17.484375 C 22.992188 -17.140625 23.695312 -16.675781 24.3125 -16.09375 C 24.925781 -15.507812 25.421875 -14.75 25.796875 -13.8125 C 26.171875 -12.882812 26.359375 -11.726562 26.359375 -10.34375 C 26.359375 -8.363281 25.960938 -6.695312 25.171875 -5.34375 C 24.390625 -3.988281 23.304688 -2.882812 21.921875 -2.03125 C 20.535156 -1.175781 18.890625 -0.5625 16.984375 -0.1875 C 15.078125 0.1875 13.003906 0.375 10.765625 0.375 C 8.503906 0.375 6.65625 0.226562 5.21875 -0.0625 C 3.789062 -0.363281 2.664062 -0.691406 1.84375 -1.046875 C 0.863281 -1.453125 0.140625 -1.921875 -0.328125 -2.453125 L 1.28125 -8.9375 L 9.59375 -8.9375 C 9.5625 -8.644531 9.53125 -8.253906 9.5 -7.765625 C 9.46875 -7.285156 9.453125 -6.898438 9.453125 -6.609375 C 9.453125 -6.234375 9.5 -5.835938 9.59375 -5.421875 C 9.6875 -5.015625 9.832031 -4.640625 10.03125 -4.296875 C 10.238281 -3.953125 10.53125 -3.671875 10.90625 -3.453125 C 11.289062 -3.234375 11.765625 -3.125 12.328125 -3.125 C 12.960938 -3.125 13.519531 -3.265625 14 -3.546875 C 14.488281 -3.828125 14.898438 -4.179688 15.234375 -4.609375 C 15.566406 -5.035156 15.816406 -5.503906 15.984375 -6.015625 C 16.160156 -6.535156 16.25 -7.050781 16.25 -7.5625 C 16.25 -8.25 16.082031 -8.828125 15.75 -9.296875 C 15.425781 -9.773438 14.976562 -10.179688 14.40625 -10.515625 C 13.84375 -10.847656 13.191406 -11.128906 12.453125 -11.359375 C 11.710938 -11.597656 10.945312 -11.84375 10.15625 -12.09375 C 9.40625 -12.3125 8.609375 -12.578125 7.765625 -12.890625 C 6.929688 -13.210938 6.164062 -13.65625 5.46875 -14.21875 C 4.78125 -14.789062 4.207031 -15.507812 3.75 -16.375 C 3.300781 -17.238281 3.078125 -18.347656 3.078125 -19.703125 C 3.078125 -21.722656 3.585938 -23.414062 4.609375 -24.78125 C 5.628906 -26.15625 6.914062 -27.265625 8.46875 -28.109375 C 10.03125 -28.960938 11.738281 -29.566406 13.59375 -29.921875 C 15.457031 -30.285156 17.226562 -30.46875 18.90625 -30.46875 C 21.101562 -30.46875 23 -30.207031 24.59375 -29.6875 C 26.1875 -29.175781 27.390625 -28.570312 28.203125 -27.875 L 26.453125 -21.3125 Z M 18.609375 -21.3125 "/></g></g></g><path stroke-linecap="butt" transform="matrix(0.603707, 0, 0, 0.603707, 10.868668, 160.762955)" fill="none" stroke-linejoin="miter" d="M 28.079271 30.299038 L 47.18649 30.299038 L 48.525872 64.197691 L 61.596168 30.299038 L 77.09288 30.299038 L 79.118129 64.197691 L 92.26607 30.299038 L 100.483533 30.299038 L 81.162789 79.998514 L 63.543771 79.998514 L 61.900279 51.910319 L 50.169365 79.998514 L 31.385668 79.998514 Z M 106.436341 30.299038 L 139.377368 30.299038 L 138.135043 36.238905 L 122.159518 36.238905 L 118.872533 51.353861 L 132.272821 51.353861 L 131.011085 57.222553 L 117.630208 57.222553 L 114.0197 73.981001 L 129.995225 73.981001 L 128.811134 79.998514 L 95.870107 79.998514 Z M 183.214622 41.648196 C 183.214622 43.162279 182.994627 44.521072 182.548166 45.718105 C 182.101706 46.915137 181.487013 47.98923 180.697619 48.927444 C 179.914696 49.872129 179.008834 50.706816 177.960622 51.431506 C 176.91888 52.156196 175.773612 52.835592 174.524816 53.456755 C 175.094215 53.67675 175.773612 54.006743 176.550065 54.453203 C 177.339459 54.886723 178.096501 55.494944 178.821191 56.284339 C 179.558821 57.060792 180.179984 58.070181 180.678208 59.306036 C 181.169962 60.528949 181.422309 62.023622 181.422309 63.796523 C 181.422309 66.138824 180.924085 68.306422 179.927637 70.292849 C 178.937659 72.279275 177.455927 73.993942 175.495383 75.430381 C 173.547779 76.860349 171.147245 77.979735 168.293779 78.795011 C 165.453255 79.597346 162.185681 79.998514 158.491058 79.998514 L 135.236284 79.998514 L 145.802518 30.299038 L 166.384999 30.299038 C 168.423188 30.299038 170.441967 30.441388 172.441334 30.739028 C 174.453641 31.017257 176.252425 31.580186 177.850624 32.421343 C 179.442353 33.24956 180.729972 34.407769 181.72642 35.895971 C 182.722868 37.384173 183.214622 39.305895 183.214622 41.648196 Z M 161.926863 51.127395 C 163.078602 51.127395 164.049169 50.790932 164.851503 50.111536 C 165.666779 49.425669 166.339705 48.57157 166.857341 47.55571 C 167.381447 46.53338 167.769673 45.439875 168.028491 44.268725 C 168.293779 43.097575 168.429659 42.036422 168.429659 41.091737 C 168.429659 39.590595 168.067314 38.302976 167.355565 37.235353 C 166.656757 36.16126 165.550311 35.630683 164.029757 35.630683 L 161.680986 35.630683 L 158.316356 51.127395 Z M 156.291107 75.068036 C 157.856954 75.068036 159.163984 74.628046 160.212196 73.754536 C 161.253937 72.861615 162.114506 71.761639 162.787432 70.46755 C 163.466829 69.15405 163.945641 67.782316 164.22387 66.358819 C 164.51504 64.91591 164.663861 63.647703 164.663861 62.554198 C 164.663861 60.716592 164.282104 59.267213 163.518592 58.19959 C 162.76155 57.125496 161.551577 56.588449 159.882203 56.588449 L 157.002856 56.588449 L 153.159412 75.068036 Z M 198.866624 79.998514 L 209.432858 30.299038 L 230.487681 30.299038 C 233.722903 30.299038 236.556957 30.62256 238.976903 31.269604 C 241.40979 31.923119 243.422098 33.003683 245.013827 34.517767 C 246.605556 36.038321 247.802588 38.024747 248.604923 40.483516 C 249.407258 42.929343 249.808425 45.931629 249.808425 49.483903 C 249.808425 53.294994 249.323142 57.021969 248.359046 60.67777 C 247.40142 64.3271 245.803221 67.588203 243.557977 70.46755 C 241.319203 73.333957 238.381622 75.637435 234.751703 77.384454 C 231.121785 79.125004 226.650708 79.998514 221.338474 79.998514 Z M 220.303203 74.518048 C 222.024341 74.518048 223.544895 73.799829 224.871336 72.376331 C 226.210718 70.933422 227.362457 69.108757 228.333024 66.889395 C 229.29712 64.676504 230.105925 62.224206 230.75944 59.532501 C 231.406484 56.847267 231.93059 54.252619 232.325287 51.755028 C 232.719984 49.244496 233.004684 46.999252 233.185856 45.012826 C 233.360558 43.0264 233.451144 41.615843 233.451144 40.787627 C 233.451144 39.170016 233.127622 37.908279 232.474107 37.002417 C 231.827063 36.090085 230.694735 35.630683 229.077125 35.630683 L 225.311327 35.630683 L 216.938573 74.518048 Z M 261.241699 30.299038 L 294.189196 30.299038 L 292.946871 36.238905 L 276.971347 36.238905 L 273.684361 51.353861 L 287.078179 51.353861 L 285.816443 57.222553 L 272.442036 57.222553 L 268.831529 73.981001 L 284.807053 73.981001 L 283.622962 79.998514 L 250.675465 79.998514 Z M 320.886246 44.708715 C 321.041536 43.912851 321.112711 42.845228 321.112711 41.492905 C 321.112711 40.703511 321.067418 39.933528 320.963891 39.182957 C 320.860364 38.432385 320.672721 37.759459 320.407433 37.157708 C 320.155086 36.549486 319.766859 36.077144 319.242753 35.740681 C 318.718647 35.397747 318.039251 35.229516 317.198093 35.229516 C 316.266349 35.229516 315.40578 35.43657 314.616386 35.857149 C 313.839933 36.277728 313.147595 36.814774 312.532903 37.461819 C 311.937623 38.115334 311.46528 38.872375 311.122347 39.739415 C 310.792354 40.593513 310.624123 41.486435 310.624123 42.431119 C 310.624123 43.783442 310.973527 44.825183 311.678805 45.562814 C 312.390554 46.293974 313.315827 46.889255 314.467566 47.361597 C 315.612834 47.83394 316.913394 48.228637 318.362773 48.545688 C 319.831564 48.849799 321.345647 49.218614 322.911495 49.639193 C 324.224995 49.995068 325.532024 50.46094 326.826113 51.04975 C 328.139613 51.625619 329.297822 52.395602 330.307211 53.359698 C 331.323071 54.317324 332.144817 55.566119 332.77245 57.106085 C 333.406554 58.64605 333.730076 60.567772 333.730076 62.858309 C 333.730076 66.145294 333.070091 68.908174 331.756591 71.153417 C 330.462502 73.392191 328.657248 75.223326 326.35377 76.633883 C 324.056763 78.037969 321.332706 79.060299 318.17513 79.694403 C 315.024024 80.315565 311.60116 80.632617 307.893595 80.632617 C 304.134268 80.632617 301.060807 80.38027 298.679684 79.888516 C 296.311502 79.390292 294.454485 78.853245 293.102162 78.277376 C 291.484551 77.60445 290.281049 76.821526 289.491654 75.928605 L 292.163948 65.20708 L 305.926581 65.20708 C 305.874817 65.679422 305.823054 66.326467 305.77129 67.141743 C 305.719526 67.944078 305.693645 68.578181 305.693645 69.050523 C 305.693645 69.671686 305.77129 70.325201 305.926581 70.998127 C 306.088342 71.677523 306.340689 72.298686 306.670682 72.874555 C 307.013615 73.443954 307.498898 73.916297 308.120061 74.285112 C 308.747694 74.653927 309.530618 74.84157 310.468832 74.84157 C 311.517044 74.84157 312.442317 74.602164 313.244652 74.136292 C 314.059928 73.66395 314.739325 73.075139 315.289312 72.376331 C 315.832829 71.664583 316.246938 70.881659 316.531637 70.02756 C 316.822807 69.160521 316.971628 68.312893 316.971628 67.484676 C 316.971628 66.339408 316.693398 65.375312 316.149881 64.598858 C 315.599894 63.809464 314.855793 63.136538 313.911108 62.593021 C 312.979364 62.043033 311.8988 61.570691 310.662945 61.175994 C 309.440031 60.781297 308.178295 60.373659 306.877736 59.95308 C 305.615999 59.597206 304.296029 59.157215 302.904884 58.63311 C 301.526679 58.115474 300.264943 57.384314 299.119674 56.439629 C 297.974406 55.494944 297.01678 54.310853 296.253268 52.887356 C 295.502696 51.444447 295.127411 49.606841 295.127411 47.361597 C 295.127411 44.022848 295.975039 41.221146 297.670295 38.956491 C 299.365551 36.672425 301.500797 34.834819 304.088975 33.430733 C 306.677152 32.020176 309.504736 31.010787 312.571726 30.415506 C 315.658128 29.813755 318.582768 29.516114 321.345647 29.516114 C 325.001448 29.516114 328.146083 29.949634 330.786024 30.816673 C 333.419495 31.664301 335.412391 32.66722 336.764714 33.812489 L 333.878896 44.708715 Z M 363.772345 57.300198 L 384.044244 57.300198 L 379.495522 79.998514 L 370.26867 79.998514 L 368.773997 74.99039 L 368.469886 74.99039 C 367.111093 76.562708 365.499953 77.889149 363.655877 78.989124 C 361.8118 80.082629 359.391854 80.632617 356.41545 80.632617 C 354.118443 80.632617 351.918492 80.257331 349.802657 79.500289 C 347.686822 78.736777 345.810394 77.533275 344.166901 75.889782 C 342.523408 74.246289 341.203438 72.098102 340.20699 69.43228 C 339.217012 66.772927 338.718788 63.557117 338.718788 59.80426 C 338.718788 55.740821 339.33995 51.877967 340.588746 48.222166 C 341.850482 44.566366 343.733381 41.344085 346.230973 38.555324 C 348.735034 35.760092 351.873199 33.560141 355.632527 31.942531 C 359.385384 30.32492 363.772345 29.516114 368.773997 29.516114 C 372.636852 29.516114 376.001483 29.962575 378.867889 30.849026 C 381.747236 31.729006 384.464823 32.718984 387.027118 33.812489 L 384.044244 49.00509 L 370.818657 49.00509 C 370.870421 48.42922 370.948066 47.756294 371.051593 46.979841 C 371.15512 46.190447 371.226295 45.368701 371.278059 44.514602 C 371.329822 43.647563 371.381586 42.799935 371.43335 41.971718 C 371.498054 41.13056 371.530406 40.3994 371.530406 39.778237 C 371.530406 39.357659 371.498054 38.872375 371.43335 38.322388 C 371.381586 37.77887 371.252177 37.241824 371.051593 36.717718 C 370.844539 36.193612 370.533958 35.766563 370.113379 35.43657 C 369.6928 35.093636 369.097519 34.918935 368.321066 34.918935 C 366.955803 34.918935 365.713478 35.481863 364.594091 36.60125 C 363.468234 37.727107 362.465315 39.215309 361.572394 41.072326 C 360.692414 42.922873 359.922431 45.019297 359.262446 47.361597 C 358.608931 49.703898 358.065413 52.091491 357.618953 54.530848 C 357.185433 56.950794 356.84897 59.325447 356.603093 61.654807 C 356.376628 63.971225 356.26016 65.990004 356.26016 67.711142 C 356.26016 68.235248 356.286042 68.888762 356.337805 69.678156 C 356.389569 70.46108 356.55133 71.231063 356.836029 71.994575 C 357.127199 72.745147 357.547778 73.392191 358.097766 73.942179 C 358.641283 74.492166 359.437147 74.763925 360.485359 74.763925 C 362.206497 74.763925 363.869401 73.825711 365.493482 71.955752 C 367.111093 70.072853 368.340478 66.934688 369.181635 62.554198 L 362.607665 62.554198 Z M 403.144993 79.998514 L 386.231254 79.998514 L 396.797488 30.299038 L 413.788872 30.299038 Z M 453.45916 79.998514 L 435.154276 79.998514 L 426.464471 44.074612 L 418.796995 79.998514 L 411.744212 79.998514 L 422.316916 30.299038 L 441.022968 30.299038 L 449.240431 66.701752 L 456.979082 30.299038 L 464.180685 30.299038 Z M 492.993569 44.708715 C 493.14239 43.912851 493.220035 42.845228 493.220035 41.492905 C 493.220035 40.703511 493.168271 39.933528 493.071215 39.182957 C 492.967688 38.432385 492.780045 37.759459 492.514757 37.157708 C 492.262409 36.549486 491.874183 36.077144 491.350077 35.740681 C 490.825971 35.397747 490.146574 35.229516 489.305417 35.229516 C 488.373673 35.229516 487.513104 35.43657 486.72371 35.857149 C 485.947257 36.277728 485.254919 36.814774 484.640227 37.461819 C 484.044946 38.115334 483.572604 38.872375 483.22967 39.739415 C 482.893207 40.593513 482.731446 41.486435 482.731446 42.431119 C 482.731446 43.783442 483.08085 44.825183 483.779658 45.562814 C 484.497877 46.293974 485.423151 46.889255 486.57489 47.361597 C 487.720158 47.83394 489.020717 48.228637 490.470097 48.545688 C 491.932417 48.849799 493.452971 49.218614 495.018818 49.639193 C 496.332318 49.995068 497.632877 50.46094 498.933436 51.04975 C 500.246936 51.625619 501.405146 52.395602 502.414535 53.359698 C 503.430395 54.317324 504.252141 55.566119 504.879774 57.106085 C 505.513877 58.64605 505.830929 60.567772 505.830929 62.858309 C 505.830929 66.145294 505.177414 68.908174 503.863914 71.153417 C 502.563355 73.392191 500.764572 75.223326 498.454624 76.633883 C 496.164087 78.037969 493.44003 79.060299 490.275983 79.694403 C 487.131348 80.315565 483.708483 80.632617 480.000919 80.632617 C 476.241592 80.632617 473.168131 80.38027 470.787008 79.888516 C 468.418825 79.390292 466.555338 78.853245 465.209486 78.277376 C 463.591875 77.60445 462.388372 76.821526 461.598978 75.928605 L 464.271271 65.20708 L 478.027434 65.20708 C 477.982141 65.679422 477.930377 66.326467 477.878614 67.141743 C 477.82685 67.944078 477.800968 68.578181 477.800968 69.050523 C 477.800968 69.671686 477.878614 70.325201 478.027434 70.998127 C 478.195665 71.677523 478.441542 72.298686 478.778005 72.874555 C 479.120939 73.443954 479.606222 73.916297 480.227385 74.285112 C 480.848547 74.653927 481.637941 74.84157 482.576156 74.84157 C 483.624367 74.84157 484.54317 74.602164 485.345505 74.136292 C 486.160781 73.66395 486.846648 73.075139 487.390165 72.376331 C 487.940153 71.664583 488.354262 70.881659 488.632491 70.02756 C 488.930131 69.160521 489.072481 68.312893 489.072481 67.484676 C 489.072481 66.339408 488.800722 65.375312 488.250734 64.598858 C 487.707217 63.809464 486.963116 63.136538 486.018431 62.593021 C 485.086688 62.043033 484.006124 61.570691 482.770269 61.175994 C 481.547355 60.781297 480.285619 60.373659 478.98506 59.95308 C 477.723323 59.597206 476.396882 59.157215 475.012207 58.63311 C 473.634003 58.115474 472.372266 57.384314 471.226998 56.439629 C 470.081729 55.494944 469.124104 54.310853 468.360591 52.887356 C 467.61002 51.444447 467.234734 49.606841 467.234734 47.361597 C 467.234734 44.022848 468.082362 41.221146 469.777619 38.956491 C 471.466404 36.672425 473.608121 34.834819 476.196298 33.430733 C 478.784476 32.020176 481.61206 31.010787 484.67905 30.415506 C 487.765451 29.813755 490.683621 29.516114 493.452971 29.516114 C 497.108771 29.516114 500.253407 29.949634 502.893348 30.816673 C 505.526818 31.664301 507.519715 32.66722 508.872038 33.812489 L 505.98622 44.708715 Z M 492.993569 44.708715 " stroke="#000000" stroke-width="1.516576" stroke-opacity="1" stroke-miterlimit="4"/><g clip-path="url(#ca42c013fe)"><path stroke-linecap="butt" transform="matrix(0.752389, 0, 0, 0.752389, 32.9393, 74.403393)" fill="none" stroke-linejoin="miter" d="M 23.604704 -8.147323 L 60.565099 -8.147323 L 40.441698 85.694388 L 75.034634 85.694388 L 72.127229 99.997786 L 0.61024 99.997786 Z M 143.150997 50.60304 L 187.265687 50.60304 L 177.370124 99.997786 L 157.288257 99.997786 L 154.043385 89.105398 L 153.378835 89.105398 C 150.414319 92.516408 146.920241 95.41343 142.901791 97.796464 C 138.878149 100.179499 133.629243 101.373612 127.139498 101.373612 C 122.150182 101.373612 117.358155 100.553308 112.753032 98.917892 C 108.153101 97.256518 104.061965 94.634661 100.49001 91.062705 C 96.912862 87.485558 94.041799 82.797366 91.882012 77.008514 C 89.717033 71.214469 88.63714 64.226312 88.63714 56.049233 C 88.63714 47.207605 89.99739 38.807279 92.7127 30.853448 C 95.45916 22.899617 99.545103 15.8855 104.980913 9.816291 C 110.437491 3.74189 117.259511 -1.050138 125.436589 -4.570176 C 133.613668 -8.095405 143.150997 -9.855424 154.043385 -9.855424 C 162.44371 -9.855424 169.758951 -8.884558 175.999489 -6.942826 C 182.260795 -5.032245 188.179443 -2.882842 193.75024 -0.499808 L 187.265687 32.556357 L 158.492754 32.556357 C 158.601781 31.310326 158.767919 29.841048 158.991166 28.148522 C 159.214413 26.430038 159.380551 24.64406 159.489579 22.785397 C 159.598606 20.900775 159.712826 19.057688 159.821853 17.256134 C 159.962032 15.428622 160.029525 13.834741 160.029525 12.47449 C 160.029525 11.560734 159.962032 10.5068 159.821853 9.312687 C 159.712826 8.123765 159.432469 6.960803 158.991166 5.8238 C 158.549863 4.686797 157.869738 3.757465 156.955982 3.035805 C 156.037034 2.288187 154.733893 1.914378 153.04656 1.914378 C 150.076853 1.914378 147.377119 3.13445 144.936975 5.574594 C 142.496831 8.009546 140.305893 11.254418 138.369353 15.304019 C 136.45358 19.322469 134.77663 23.880866 133.338503 28.984401 C 131.921142 34.082745 130.732221 39.279733 129.761355 44.575364 C 128.816448 49.839846 128.084405 55.010874 127.554842 60.083259 C 127.056429 65.129684 126.807223 69.521944 126.807223 73.265229 C 126.807223 74.402232 126.864333 75.829976 126.973361 77.54846 C 127.08758 79.235794 127.445814 80.912744 128.053254 82.579311 C 128.691845 84.214726 129.605601 85.626895 130.799714 86.821008 C 131.993827 88.009929 133.722695 88.606986 135.996702 88.606986 C 139.739987 88.606986 143.369052 86.571802 146.88909 82.496242 C 150.414319 78.394723 153.088094 71.572703 154.915606 62.035374 L 140.612209 62.035374 Z M 282.78954 99.997786 L 242.958081 99.997786 L 224.039177 21.830107 L 207.36832 99.997786 L 192.021372 99.997786 L 215.015836 -8.147323 L 255.724707 -8.147323 L 273.600061 71.058715 L 290.442247 -8.147323 L 306.116279 -8.147323 Z M 367.929801 59.127968 L 359.238734 99.997786 L 322.319874 99.997786 L 331.67549 56.215371 L 314.957907 -8.147323 L 355.87445 -8.147323 L 367.431388 34.596733 L 392.959449 -8.147323 L 411.379941 -8.147323 Z M 367.929801 59.127968 " stroke="#f5f5f5" stroke-width="23.418312" stroke-opacity="1" stroke-miterlimit="4"/></g><g fill="#e7f65d" fill-opacity="1"><g transform="translate(33.397787, 149.642291)"><g><path d="M 17.296875 -81.375 L 45.109375 -81.375 L 29.984375 -10.765625 L 56 -10.765625 L 53.8125 0 L 0 0 Z M 17.296875 -81.375 "/></g></g></g><g fill="#e7f65d" fill-opacity="1"><g transform="translate(95.156217, 149.642291)"><g><path d="M 45.484375 -37.15625 L 78.671875 -37.15625 L 71.25 0 L 56.125 0 L 53.6875 -8.203125 L 53.171875 -8.203125 C 50.953125 -5.640625 48.328125 -3.457031 45.296875 -1.65625 C 42.265625 0.132812 38.3125 1.03125 33.4375 1.03125 C 29.6875 1.03125 26.078125 0.410156 22.609375 -0.828125 C 19.148438 -2.066406 16.078125 -4.03125 13.390625 -6.71875 C 10.703125 -9.414062 8.546875 -12.941406 6.921875 -17.296875 C 5.296875 -21.648438 4.484375 -26.90625 4.484375 -33.0625 C 4.484375 -39.726562 5.507812 -46.050781 7.5625 -52.03125 C 9.613281 -58.007812 12.6875 -63.28125 16.78125 -67.84375 C 20.882812 -72.414062 26.007812 -76.023438 32.15625 -78.671875 C 38.3125 -81.328125 45.488281 -82.65625 53.6875 -82.65625 C 60.007812 -82.65625 65.519531 -81.925781 70.21875 -80.46875 C 74.914062 -79.019531 79.359375 -77.398438 83.546875 -75.609375 L 78.671875 -50.75 L 57.015625 -50.75 C 57.109375 -51.6875 57.238281 -52.796875 57.40625 -54.078125 C 57.570312 -55.359375 57.695312 -56.703125 57.78125 -58.109375 C 57.875 -59.515625 57.960938 -60.898438 58.046875 -62.265625 C 58.128906 -63.640625 58.171875 -64.835938 58.171875 -65.859375 C 58.171875 -66.546875 58.128906 -67.335938 58.046875 -68.234375 C 57.960938 -69.128906 57.75 -70.003906 57.40625 -70.859375 C 57.0625 -71.710938 56.546875 -72.414062 55.859375 -72.96875 C 55.179688 -73.53125 54.203125 -73.8125 52.921875 -73.8125 C 50.703125 -73.8125 48.671875 -72.890625 46.828125 -71.046875 C 44.992188 -69.210938 43.347656 -66.78125 41.890625 -63.75 C 40.441406 -60.71875 39.179688 -57.28125 38.109375 -53.4375 C 37.046875 -49.59375 36.148438 -45.679688 35.421875 -41.703125 C 34.703125 -37.734375 34.148438 -33.847656 33.765625 -30.046875 C 33.378906 -26.242188 33.1875 -22.9375 33.1875 -20.125 C 33.1875 -19.269531 33.226562 -18.203125 33.3125 -16.921875 C 33.394531 -15.640625 33.671875 -14.378906 34.140625 -13.140625 C 34.617188 -11.898438 35.304688 -10.828125 36.203125 -9.921875 C 37.097656 -9.023438 38.398438 -8.578125 40.109375 -8.578125 C 42.929688 -8.578125 45.664062 -10.113281 48.3125 -13.1875 C 50.957031 -16.269531 52.960938 -21.398438 54.328125 -28.578125 L 43.5625 -28.578125 Z M 45.484375 -37.15625 "/></g></g></g><g fill="#e7f65d" fill-opacity="1"><g transform="translate(177.415364, 149.642291)"><g><path d="M 68.296875 0 L 38.3125 0 L 24.09375 -58.8125 L 11.53125 0 L 0 0 L 17.296875 -81.375 L 47.921875 -81.375 L 61.375 -21.78125 L 74.0625 -81.375 L 85.859375 -81.375 Z M 68.296875 0 "/></g></g></g><g fill="#e7f65d" fill-opacity="1"><g transform="translate(259.930769, 149.642291)"><g><path d="M 49.84375 -30.75 L 43.3125 0 L 15.5 0 L 22.546875 -32.9375 L 10 -81.375 L 40.75 -81.375 L 49.46875 -49.203125 L 68.6875 -81.375 L 82.515625 -81.375 Z M 49.84375 -30.75 "/></g></g></g><path stroke-linecap="butt" transform="matrix(1.060876, 0, 0, 1.060876, 31.889929, 74.403446)" fill="none" stroke-linejoin="miter" d="M 16.308664 -5.704608 L 42.525196 -5.704608 L 28.249706 60.856663 L 52.787201 60.856663 L 50.721545 71.000841 L 0.000655728 71.000841 Z M 101.096317 35.965686 L 132.383097 35.965686 L 125.365019 71.000841 L 111.122667 71.000841 L 108.821357 63.272119 L 108.350048 63.272119 C 106.243889 65.691257 103.769519 67.745867 100.915894 69.43595 C 98.065951 71.126033 94.339668 71.972915 89.740729 71.972915 C 86.202234 71.972915 82.799976 71.394826 79.537638 70.234965 C 76.275299 69.053012 73.373807 67.197235 70.836842 64.66027 C 68.303559 62.123305 66.267359 58.802053 64.735607 54.692833 C 63.200172 50.583612 62.434296 45.627509 62.434296 39.828206 C 62.434296 33.557595 63.395323 27.599961 65.324742 21.958989 C 67.26889 16.318016 70.170382 11.343502 74.021856 7.035449 C 77.895422 2.731077 82.733698 -0.671181 88.533001 -3.167643 C 94.332304 -5.664105 101.096317 -6.912336 108.821357 -6.912336 C 114.77899 -6.912336 119.967065 -6.223784 124.392946 -4.846679 C 128.833555 -3.491667 133.031146 -1.967279 136.982036 -0.277197 L 132.383097 23.166716 L 111.976914 23.166716 C 112.054238 22.283013 112.172065 21.24098 112.330395 20.040616 C 112.488725 18.821842 112.606553 17.5552 112.683877 16.237009 C 112.761201 14.900408 112.842207 13.593264 112.919531 12.315576 C 113.018947 11.019478 113.066815 9.889074 113.066815 8.924364 C 113.066815 8.276315 113.018947 7.52885 112.919531 6.681967 C 112.842207 5.838767 112.643374 5.010295 112.330395 4.203916 C 112.017417 3.401219 111.535062 2.742123 110.887013 2.230312 C 110.235282 1.70009 109.311076 1.434979 108.114394 1.434979 C 106.008234 1.434979 104.093544 2.300272 102.362958 4.027175 C 100.632372 5.757761 99.078527 8.059072 97.705105 10.931107 C 96.346411 13.781051 95.157094 17.013932 94.133471 20.629751 C 93.13194 24.249253 92.28874 27.935032 91.600188 31.690771 C 90.930046 35.424418 90.410871 39.091787 90.035297 42.689196 C 89.681815 46.268194 89.505075 49.383249 89.505075 52.038041 C 89.505075 52.84442 89.545578 53.856997 89.622902 55.075771 C 89.700226 56.276135 89.957973 57.465452 90.388778 58.643723 C 90.841676 59.803584 91.489725 60.805114 92.336607 61.651996 C 93.179808 62.498879 94.409628 62.918638 96.022387 62.918638 C 98.677179 62.918638 101.250965 61.475256 103.747427 58.584809 C 106.243889 55.675953 108.143851 50.837677 109.439949 44.077346 L 99.295771 44.077346 Z M 200.133685 71.000841 L 171.884636 71.000841 L 158.463391 15.559504 L 146.640177 71.000841 L 135.75958 71.000841 L 152.067588 -5.704608 L 180.935231 -5.704608 L 193.616373 50.476831 L 205.561097 -5.704608 L 216.677348 -5.704608 Z M 260.52008 42.01169 L 254.356249 71.000841 L 228.169174 71.000841 L 234.804313 39.946033 L 222.94796 -5.704608 L 251.966568 -5.704608 L 260.162916 24.613781 L 278.27147 -5.704608 L 291.335551 -5.704608 Z M 260.52008 42.01169 " stroke="#000000" stroke-width="1.434381" stroke-opacity="1" stroke-miterlimit="4"/></svg>