<svg width="271" height="26" viewBox="0 0 271 26" fill="none" xmlns="http://www.w3.org/2000/svg">
<g filter="url(#filter0_i_4_7)">
<g filter="url(#filter1_i_4_7)">
<path d="M9.76172 7.05859C9.76172 7.45703 9.67969 7.75391 9.51562 7.94922C9.35938 8.14453 9.17188 8.30469 8.95312 8.42969C8.74219 8.55469 8.55469 8.69922 8.39062 8.86328C8.23438 9.02734 8.15625 9.27734 8.15625 9.61328V18.3203C8.15625 18.6328 8.21875 18.8906 8.34375 19.0938C8.47656 19.2891 8.71484 19.3867 9.05859 19.3867H9.65625C10.25 19.3867 10.7109 19.2695 11.0391 19.0352C11.3672 18.793 11.6211 18.5 11.8008 18.1562C11.9883 17.8047 12.1523 17.457 12.293 17.1133C12.4336 16.7617 12.6055 16.4688 12.8086 16.2344C13.0117 15.9922 13.3047 15.8711 13.6875 15.8711C14.0781 15.8711 14.4062 15.9844 14.6719 16.2109C14.9375 16.4297 15.0703 16.7422 15.0703 17.1484C15.0703 17.3203 15.0469 17.4883 15 17.6523L14.2031 20.5586C14.0547 21.082 13.8594 21.5234 13.6172 21.8828C13.3828 22.2344 12.9531 22.4102 12.3281 22.4102C12.0859 22.4102 11.8438 22.3789 11.6016 22.3164C11.3672 22.2539 11.1328 22.1953 10.8984 22.1406C10.6875 22.0859 10.4766 22.0469 10.2656 22.0234C10.0547 22.0078 9.83984 22 9.62109 22H2.19141C1.76953 22 1.42969 21.8984 1.17188 21.6953C0.914062 21.4922 0.785156 21.168 0.785156 20.7227C0.785156 20.3164 0.867188 20.0156 1.03125 19.8203C1.19531 19.625 1.38281 19.4688 1.59375 19.3516C1.80469 19.2266 1.99219 19.082 2.15625 18.918C2.32031 18.7539 2.40234 18.5039 2.40234 18.168V9.61328C2.40234 9.27734 2.32031 9.02734 2.15625 8.86328C1.99219 8.69922 1.80469 8.55859 1.59375 8.44141C1.38281 8.31641 1.19531 8.15625 1.03125 7.96094C0.867188 7.76562 0.785156 7.46484 0.785156 7.05859C0.785156 6.61328 0.914062 6.28906 1.17188 6.08594C1.42969 5.88281 1.76953 5.78125 2.19141 5.78125H8.35547C8.77734 5.78125 9.11719 5.88281 9.375 6.08594C9.63281 6.28906 9.76172 6.61328 9.76172 7.05859ZM33.4805 14.6875C33.4805 15.0312 33.4023 15.293 33.2461 15.4727C33.0898 15.6445 32.9102 15.7852 32.707 15.8945C32.5039 16.0039 32.3242 16.1289 32.168 16.2695C32.0117 16.4023 31.9336 16.6016 31.9336 16.8672V21.1562C31.9336 22.0312 31.5039 22.4688 30.6445 22.4688C30.3242 22.4688 30.043 22.3711 29.8008 22.1758C29.5664 21.9883 29.3398 21.8008 29.1211 21.6133C28.9102 21.418 28.6836 21.3203 28.4414 21.3203C28.2148 21.3203 27.9688 21.3789 27.7031 21.4961C27.4453 21.6133 27.2109 21.7188 27 21.8125C26.5469 22.0234 26.0898 22.1836 25.6289 22.293C25.168 22.4023 24.6836 22.457 24.1758 22.457C22.418 22.457 20.9258 22.1016 19.6992 21.3906C18.4727 20.6719 17.5391 19.6719 16.8984 18.3906C16.2578 17.1016 15.9375 15.5977 15.9375 13.8789C15.9375 12.6602 16.1641 11.5312 16.6172 10.4922C17.0703 9.44531 17.6992 8.53516 18.5039 7.76172C19.3086 6.98828 20.2383 6.38672 21.293 5.95703C22.3555 5.51953 23.4883 5.30078 24.6914 5.30078C25.1523 5.30078 25.6094 5.33203 26.0625 5.39453C26.5156 5.44922 26.9609 5.54297 27.3984 5.67578C27.625 5.73828 27.8438 5.80078 28.0547 5.86328C28.2734 5.92578 28.5 5.95703 28.7344 5.95703C28.9375 5.95703 29.1211 5.90625 29.2852 5.80469C29.457 5.69531 29.625 5.58984 29.7891 5.48828C29.9609 5.38672 30.1484 5.33594 30.3516 5.33594C30.75 5.33594 31.0078 5.46094 31.125 5.71094C31.25 5.96094 31.3594 6.24219 31.4531 6.55469C31.5234 6.78125 31.6172 7.07422 31.7344 7.43359C31.8594 7.79297 31.9844 8.17578 32.1094 8.58203C32.2422 8.98047 32.3516 9.35547 32.4375 9.70703C32.5234 10.0586 32.5664 10.3359 32.5664 10.5391C32.5664 10.9141 32.418 11.1953 32.1211 11.3828C31.8242 11.5625 31.5078 11.6523 31.1719 11.6523C30.8281 11.6523 30.5703 11.5664 30.3984 11.3945C30.2266 11.2227 30.0547 11.0039 29.8828 10.7383C29.4922 10.1445 29.1133 9.62109 28.7461 9.16797C28.3789 8.70703 27.9453 8.34766 27.4453 8.08984C26.9531 7.83203 26.3164 7.70312 25.5352 7.70312C24.7852 7.70312 24.1641 7.87109 23.6719 8.20703C23.1797 8.53516 22.7891 8.97266 22.5 9.51953C22.2188 10.0586 22.0156 10.6484 21.8906 11.2891C21.7734 11.9219 21.7148 12.5469 21.7148 13.1641C21.7148 13.6172 21.7422 14.0781 21.7969 14.5469C21.8594 15.0078 21.9531 15.457 22.0781 15.8945C22.25 16.4805 22.5078 17.0469 22.8516 17.5938C23.2031 18.1328 23.6367 18.5742 24.1523 18.918C24.668 19.2617 25.2578 19.4336 25.9219 19.4336C26.2031 19.4336 26.4258 19.3867 26.5898 19.293C26.7539 19.1914 26.8359 18.9844 26.8359 18.6719V16.8672C26.8359 16.6641 26.7969 16.5273 26.7188 16.457C26.6406 16.3867 26.5234 16.3047 26.3672 16.2109C26.1641 16.0859 25.9414 15.9648 25.6992 15.8477C25.4648 15.7227 25.2656 15.5742 25.1016 15.4023C24.9375 15.2227 24.8555 14.9883 24.8555 14.6992C24.8555 14.2617 24.9922 13.9531 25.2656 13.7734C25.5391 13.5859 25.875 13.4922 26.2734 13.4922H32.0742C32.4727 13.4922 32.8047 13.582 33.0703 13.7617C33.3438 13.9414 33.4805 14.25 33.4805 14.6875ZM41.5898 20.7227C41.5898 21.1758 41.457 21.5039 41.1914 21.707C40.9258 21.9023 40.582 22 40.1602 22H36.6445C36.2227 22 35.8789 21.9023 35.6133 21.707C35.3477 21.5039 35.2148 21.1758 35.2148 20.7227C35.2148 20.3086 35.3086 20.0039 35.4961 19.8086C35.6836 19.6133 35.9023 19.457 36.1523 19.3398C36.4023 19.2148 36.6211 19.0664 36.8086 18.8945C36.9961 18.7148 37.0898 18.4375 37.0898 18.0625V11.0312C37.0898 10.4922 37.0195 10.0938 36.8789 9.83594C36.7383 9.57812 36.4805 9.26953 36.1055 8.91016C35.8555 8.66016 35.5742 8.36328 35.2617 8.01953C34.9492 7.67578 34.793 7.3125 34.793 6.92969C34.793 6.5625 34.918 6.28125 35.168 6.08594C35.4258 5.88281 35.7266 5.78125 36.0703 5.78125H39.7266C40.0703 5.78125 40.3398 5.80469 40.5352 5.85156C40.7383 5.89062 40.9219 5.97266 41.0859 6.09766C41.25 6.22266 41.4414 6.41406 41.6602 6.67188L48.9141 14.9922V9.70703C48.9141 9.32422 48.8203 9.04688 48.6328 8.875C48.4453 8.70312 48.2266 8.55859 47.9766 8.44141C47.7344 8.32422 47.5195 8.17188 47.332 7.98438C47.1445 7.78906 47.0508 7.48047 47.0508 7.05859C47.0508 6.60547 47.1836 6.28125 47.4492 6.08594C47.7148 5.88281 48.0586 5.78125 48.4805 5.78125H51.9961C52.4102 5.78125 52.75 5.88281 53.0156 6.08594C53.2891 6.28906 53.4258 6.61328 53.4258 7.05859C53.4258 7.53516 53.3086 7.85937 53.0742 8.03125C52.8477 8.20312 52.5547 8.39844 52.1953 8.61719C51.9375 8.76562 51.7656 8.91016 51.6797 9.05078C51.5938 9.18359 51.5508 9.40234 51.5508 9.70703V16.5156C51.5508 16.8828 51.5781 17.2578 51.6328 17.6406C51.6953 18.0156 51.8242 18.3633 52.0195 18.6836C52.207 18.9883 52.4102 19.3125 52.6289 19.6562C52.8555 19.9922 52.9688 20.3477 52.9688 20.7227C52.9688 21.1055 52.8516 21.4141 52.6172 21.6484C52.3906 21.8828 52.0859 22 51.7031 22H47.7188C47.3906 22 47.125 21.9258 46.9219 21.7773C46.7266 21.6211 46.6289 21.3672 46.6289 21.0156C46.6289 20.7891 46.5156 20.543 46.2891 20.2773C46.0625 20.0039 45.8789 19.7852 45.7383 19.6211L39.7266 12.6602V18.0625C39.7266 18.375 39.7656 18.5977 39.8438 18.7305C39.9297 18.8633 40.1055 19.0078 40.3711 19.1641C40.7227 19.3828 41.0117 19.582 41.2383 19.7617C41.4727 19.9336 41.5898 20.2539 41.5898 20.7227ZM68.3555 20.7227C68.3555 21.1758 68.2227 21.5039 67.957 21.707C67.6914 21.9023 67.3477 22 66.9258 22H60.1875C59.7734 22 59.4297 21.8984 59.1562 21.6953C58.8906 21.4922 58.7578 21.168 58.7578 20.7227C58.7578 20.3164 58.8555 20.0117 59.0508 19.8086C59.2461 19.6055 59.4688 19.4453 59.7188 19.3281C59.9688 19.2031 60.1914 19.0625 60.3867 18.9062C60.582 18.7422 60.6797 18.4961 60.6797 18.168V16.6094L56.5898 9.83594C56.4102 9.53125 56.2734 9.28906 56.1797 9.10938C56.0938 8.92969 55.8906 8.73438 55.5703 8.52344C55.2344 8.29688 54.9727 8.10938 54.7852 7.96094C54.5977 7.8125 54.5039 7.51172 54.5039 7.05859C54.5039 6.60547 54.6367 6.28125 54.9023 6.08594C55.1758 5.88281 55.5234 5.78125 55.9453 5.78125H62.6133C63.0352 5.78125 63.3789 5.88281 63.6445 6.08594C63.9102 6.28125 64.043 6.60547 64.043 7.05859C64.043 7.44922 63.957 7.74219 63.7852 7.9375C63.6211 8.13281 63.4297 8.28516 63.2109 8.39453C63 8.49609 62.8086 8.60156 62.6367 8.71094C62.4727 8.8125 62.3906 8.96875 62.3906 9.17969C62.3906 9.33594 62.4297 9.50391 62.5078 9.68359C62.5938 9.85547 62.6758 10.0078 62.7539 10.1406L65.0391 14.0664L67.5352 9.71875C67.5898 9.625 67.6406 9.52344 67.6875 9.41406C67.7422 9.29688 67.7695 9.18359 67.7695 9.07422C67.7695 8.89453 67.6914 8.75781 67.5352 8.66406C67.3867 8.5625 67.2148 8.46094 67.0195 8.35938C66.8242 8.25 66.6484 8.09766 66.4922 7.90234C66.3438 7.70703 66.2695 7.42578 66.2695 7.05859C66.2695 6.60547 66.4023 6.28125 66.668 6.08594C66.9336 5.88281 67.2773 5.78125 67.6992 5.78125H70.9688C71.3906 5.78125 71.7344 5.88281 72 6.08594C72.2656 6.28125 72.3984 6.60547 72.3984 7.05859C72.3984 7.41797 72.3242 7.68359 72.1758 7.85547C72.0273 8.01953 71.8203 8.20312 71.5547 8.40625C71.2891 8.61719 71.082 8.81641 70.9336 9.00391C70.793 9.18359 70.6328 9.42188 70.4531 9.71875L66.4453 16.457V18.168C66.4453 18.4961 66.5391 18.7383 66.7266 18.8945C66.9219 19.0508 67.1445 19.1875 67.3945 19.3047C67.6523 19.4219 67.875 19.582 68.0625 19.7852C68.2578 19.9883 68.3555 20.3008 68.3555 20.7227ZM98.4492 7.05859C98.4492 6.61328 98.5781 6.28906 98.8359 6.08594C99.0938 5.88281 99.4336 5.78125 99.8555 5.78125H102.738C103.16 5.78125 103.496 5.88281 103.746 6.08594C104.004 6.28906 104.133 6.61328 104.133 7.05859C104.133 7.41016 104.055 7.66797 103.898 7.83203C103.742 7.98828 103.531 8.15625 103.266 8.33594C102.992 8.52344 102.785 8.69141 102.645 8.83984C102.504 8.98828 102.395 9.15625 102.316 9.34375C102.246 9.52344 102.164 9.76953 102.07 10.082L99.5859 18.6836C99.3828 19.3867 99.2812 20.0977 99.2812 20.8164C99.2812 21.1445 99.1953 21.4258 99.0234 21.6602C98.8516 21.8867 98.5898 22 98.2383 22H94.4648C94.1211 22 93.8633 21.8828 93.6914 21.6484C93.5195 21.4141 93.4336 21.1367 93.4336 20.8164C93.4336 20.5664 93.4102 20.3242 93.3633 20.0898C93.3164 19.8477 93.2578 19.6094 93.1875 19.375L91.5117 13.7969L89.9414 18.6836C89.8555 18.9492 89.7852 19.2227 89.7305 19.5039C89.6758 19.7773 89.6484 20.0547 89.6484 20.3359C89.6484 20.5938 89.6289 20.8516 89.5898 21.1094C89.5586 21.3672 89.4688 21.582 89.3203 21.7539C89.1797 21.918 88.9414 22 88.6055 22H84.8203C84.4766 22 84.2188 21.8828 84.0469 21.6484C83.8828 21.4062 83.8008 21.1289 83.8008 20.8164C83.8008 20.3398 83.7227 19.8594 83.5664 19.375L80.5664 9.83594C80.457 9.47656 80.3438 9.22266 80.2266 9.07422C80.1172 8.92578 79.9141 8.73828 79.6172 8.51172C79.3281 8.29297 79.1055 8.09375 78.9492 7.91406C78.8008 7.72656 78.7266 7.44141 78.7266 7.05859C78.7266 6.61328 78.8555 6.28906 79.1133 6.08594C79.3711 5.88281 79.7109 5.78125 80.1328 5.78125H86.0391C86.4688 5.78125 86.8086 5.88281 87.0586 6.08594C87.3164 6.28125 87.4453 6.60547 87.4453 7.05859C87.4453 7.37109 87.3867 7.60938 87.2695 7.77344C87.1602 7.92969 87.0312 8.0625 86.8828 8.17188C86.7344 8.28125 86.6016 8.41016 86.4844 8.55859C86.375 8.70703 86.3203 8.92578 86.3203 9.21484C86.3203 9.37109 86.3359 9.52734 86.3672 9.68359C86.3984 9.83203 86.4375 9.98438 86.4844 10.1406L88.1836 15.7773L90.2109 9.42578C90.1484 9.16797 90.0742 8.95703 89.9883 8.79297C89.9102 8.62891 89.7188 8.43359 89.4141 8.20703C89.1797 8.03516 89.0078 7.87891 88.8984 7.73828C88.7969 7.58984 88.7461 7.36328 88.7461 7.05859C88.7461 6.62109 88.875 6.30078 89.1328 6.09766C89.3984 5.88672 89.7383 5.78125 90.1523 5.78125H95.6133C96.0352 5.78125 96.375 5.88281 96.6328 6.08594C96.8906 6.28906 97.0195 6.61328 97.0195 7.05859C97.0195 7.36328 96.9609 7.59766 96.8438 7.76172C96.7266 7.92578 96.5898 8.06641 96.4336 8.18359C96.2773 8.30078 96.1406 8.43359 96.0234 8.58203C95.9062 8.73047 95.8477 8.94531 95.8477 9.22656C95.8477 9.375 95.8633 9.52734 95.8945 9.68359C95.9258 9.83984 95.9609 9.99219 96 10.1406L97.6641 15.8594L99.457 9.71875C99.4883 9.61719 99.5117 9.51562 99.5273 9.41406C99.5508 9.3125 99.5625 9.21094 99.5625 9.10938C99.5625 8.83594 99.4688 8.61328 99.2812 8.44141C99.1016 8.26172 98.918 8.07422 98.7305 7.87891C98.543 7.67578 98.4492 7.40234 98.4492 7.05859ZM104.871 7.05859C104.871 6.61328 105.004 6.28906 105.27 6.08594C105.535 5.88281 105.875 5.78125 106.289 5.78125H114.129C114.324 5.78125 114.609 5.76172 114.984 5.72266C115.359 5.68359 115.633 5.625 115.805 5.54688C115.984 5.54688 116.156 5.52344 116.32 5.47656C116.492 5.42187 116.664 5.39453 116.836 5.39453C117.375 5.39453 117.773 5.53906 118.031 5.82812C118.297 6.11719 118.492 6.47266 118.617 6.89453C118.742 7.30859 118.863 7.71875 118.98 8.125C119.066 8.41406 119.164 8.72266 119.273 9.05078C119.391 9.37891 119.449 9.69922 119.449 10.0117C119.449 10.3789 119.297 10.6562 118.992 10.8438C118.695 11.0312 118.383 11.125 118.055 11.125C117.719 11.125 117.461 11.043 117.281 10.8789C117.109 10.7148 116.945 10.4961 116.789 10.2227C116.531 9.75391 116.305 9.38672 116.109 9.12109C115.922 8.85547 115.68 8.66797 115.383 8.55859C115.094 8.44922 114.66 8.39453 114.082 8.39453H112.301V12.6953H113.227C113.602 12.6953 113.863 12.6016 114.012 12.4141C114.16 12.2266 114.27 12.0078 114.34 11.7578C114.418 11.5078 114.531 11.2891 114.68 11.1016C114.836 10.9141 115.105 10.8203 115.488 10.8203C115.809 10.8203 116.062 10.9102 116.25 11.0898C116.445 11.2695 116.578 11.5078 116.648 11.8047L117.363 14.7812C117.379 14.8594 117.395 14.9453 117.41 15.0391C117.426 15.125 117.434 15.2109 117.434 15.2969C117.434 15.6406 117.316 15.918 117.082 16.1289C116.848 16.3398 116.562 16.4453 116.227 16.4453C115.992 16.4453 115.793 16.3867 115.629 16.2695C115.473 16.1445 115.32 16 115.172 15.8359C114.945 15.5781 114.762 15.3945 114.621 15.2852C114.488 15.1758 114.336 15.1094 114.164 15.0859C113.992 15.0625 113.738 15.0508 113.402 15.0508H112.301V17.4297C112.301 18.0312 112.469 18.5078 112.805 18.8594C113.141 19.2109 113.613 19.3867 114.223 19.3867C114.848 19.3867 115.328 19.332 115.664 19.2227C116.008 19.1133 116.289 18.918 116.508 18.6367C116.734 18.3477 116.988 17.9375 117.27 17.4062C117.418 17.1328 117.578 16.9102 117.75 16.7383C117.922 16.5664 118.176 16.4805 118.512 16.4805C118.879 16.4805 119.199 16.5938 119.473 16.8203C119.754 17.0391 119.895 17.3438 119.895 17.7344C119.895 17.8828 119.867 18.0547 119.812 18.25L119.156 20.5586C119.008 21.082 118.812 21.5234 118.57 21.8828C118.328 22.2344 117.898 22.4102 117.281 22.4102C117.039 22.4102 116.801 22.3789 116.566 22.3164C116.332 22.2617 116.102 22.207 115.875 22.1523C115.461 22.0508 115.023 22 114.562 22H106.289C105.875 22 105.535 21.8984 105.27 21.6953C105.004 21.4922 104.871 21.168 104.871 20.7227C104.871 20.3164 104.953 20.0156 105.117 19.8203C105.289 19.625 105.484 19.4688 105.703 19.3516C105.922 19.2266 106.113 19.082 106.277 18.918C106.449 18.7539 106.535 18.5039 106.535 18.168V9.61328C106.535 9.27734 106.449 9.02734 106.277 8.86328C106.113 8.69922 105.922 8.55859 105.703 8.44141C105.484 8.31641 105.289 8.15625 105.117 7.96094C104.953 7.76562 104.871 7.46484 104.871 7.05859ZM137.438 18.1094C137.438 18.9062 137.262 19.5586 136.91 20.0664C136.559 20.5742 136.094 20.9688 135.516 21.25C134.945 21.5312 134.324 21.7266 133.652 21.8359C132.98 21.9453 132.32 22 131.672 22H122.484C122.062 22 121.723 21.8984 121.465 21.6953C121.215 21.4922 121.09 21.168 121.09 20.7227C121.09 20.332 121.168 20.0391 121.324 19.8438C121.488 19.6406 121.676 19.4766 121.887 19.3516C122.098 19.2266 122.281 19.082 122.438 18.918C122.602 18.7461 122.684 18.4961 122.684 18.168V9.61328C122.684 9.26953 122.602 9.01562 122.438 8.85156C122.281 8.6875 122.098 8.54688 121.887 8.42969C121.676 8.30469 121.488 8.14453 121.324 7.94922C121.168 7.75391 121.09 7.45703 121.09 7.05859C121.09 6.61328 121.215 6.28906 121.465 6.08594C121.723 5.88281 122.062 5.78125 122.484 5.78125H129.645C130.41 5.78125 131.195 5.86328 132 6.02734C132.812 6.19141 133.562 6.46094 134.25 6.83594C134.938 7.21094 135.492 7.71094 135.914 8.33594C136.344 8.96094 136.559 9.73438 136.559 10.6562C136.559 11.6641 136.25 12.457 135.633 13.0352C135.023 13.6055 134.297 14.0156 133.453 14.2656C134.133 14.4141 134.773 14.6484 135.375 14.9688C135.984 15.2812 136.48 15.6953 136.863 16.2109C137.246 16.7266 137.438 17.3594 137.438 18.1094ZM128.52 8.13672H128.449V13.7266H128.871C129.754 13.7266 130.359 13.4727 130.688 12.9648C131.023 12.457 131.191 11.8008 131.191 10.9961C131.191 10.1211 130.973 9.42578 130.535 8.91016C130.098 8.39453 129.426 8.13672 128.52 8.13672ZM131.789 17.8633C131.789 17.2383 131.605 16.7227 131.238 16.3164C130.879 15.9023 130.375 15.6953 129.727 15.6953H128.449V17.6992C128.449 18.293 128.594 18.7695 128.883 19.1289C129.172 19.4805 129.625 19.6562 130.242 19.6562C130.812 19.6562 131.211 19.4883 131.438 19.1523C131.672 18.8164 131.789 18.3867 131.789 17.8633ZM144.574 20.7227C144.574 20.3164 144.656 20.0156 144.82 19.8203C144.984 19.625 145.176 19.4648 145.395 19.3398C145.613 19.2148 145.805 19.0742 145.969 18.918C146.133 18.7539 146.215 18.5039 146.215 18.168V9.61328C146.215 9.26953 146.133 9.01562 145.969 8.85156C145.805 8.6875 145.613 8.54688 145.395 8.42969C145.176 8.30469 144.984 8.14453 144.82 7.94922C144.656 7.75391 144.574 7.45703 144.574 7.05859C144.574 6.62109 144.703 6.30078 144.961 6.09766C145.227 5.88672 145.566 5.78125 145.98 5.78125H152.965C154.715 5.78125 156.285 6.13672 157.676 6.84766C159.066 7.55078 160.164 8.55469 160.969 9.85938C161.781 11.1641 162.188 12.7188 162.188 14.5234C162.188 16.0781 161.824 17.4141 161.098 18.5312C160.371 19.6484 159.395 20.5078 158.168 21.1094C156.941 21.7031 155.582 22 154.09 22H145.98C145.559 22 145.219 21.8984 144.961 21.6953C144.703 21.4922 144.574 21.168 144.574 20.7227ZM153.539 19.3867C154.117 19.3867 154.586 19.2109 154.945 18.8594C155.305 18.5078 155.578 18.0664 155.766 17.5352C155.961 17.0039 156.094 16.4531 156.164 15.8828C156.234 15.3125 156.27 14.8125 156.27 14.3828C156.27 13.7812 156.215 13.1367 156.105 12.4492C155.996 11.7539 155.801 11.1016 155.52 10.4922C155.246 9.875 154.863 9.37109 154.371 8.98047C153.887 8.58984 153.262 8.39453 152.496 8.39453H151.98V17.5586C151.98 18.0898 152.09 18.5273 152.309 18.8711C152.535 19.2148 152.945 19.3867 153.539 19.3867ZM163.957 7.05859C163.957 6.61328 164.09 6.28906 164.355 6.08594C164.621 5.88281 164.961 5.78125 165.375 5.78125H173.215C173.41 5.78125 173.695 5.76172 174.07 5.72266C174.445 5.68359 174.719 5.625 174.891 5.54688C175.07 5.54688 175.242 5.52344 175.406 5.47656C175.578 5.42187 175.75 5.39453 175.922 5.39453C176.461 5.39453 176.859 5.53906 177.117 5.82812C177.383 6.11719 177.578 6.47266 177.703 6.89453C177.828 7.30859 177.949 7.71875 178.066 8.125C178.152 8.41406 178.25 8.72266 178.359 9.05078C178.477 9.37891 178.535 9.69922 178.535 10.0117C178.535 10.3789 178.383 10.6562 178.078 10.8438C177.781 11.0312 177.469 11.125 177.141 11.125C176.805 11.125 176.547 11.043 176.367 10.8789C176.195 10.7148 176.031 10.4961 175.875 10.2227C175.617 9.75391 175.391 9.38672 175.195 9.12109C175.008 8.85547 174.766 8.66797 174.469 8.55859C174.18 8.44922 173.746 8.39453 173.168 8.39453H171.387V12.6953H172.312C172.688 12.6953 172.949 12.6016 173.098 12.4141C173.246 12.2266 173.355 12.0078 173.426 11.7578C173.504 11.5078 173.617 11.2891 173.766 11.1016C173.922 10.9141 174.191 10.8203 174.574 10.8203C174.895 10.8203 175.148 10.9102 175.336 11.0898C175.531 11.2695 175.664 11.5078 175.734 11.8047L176.449 14.7812C176.465 14.8594 176.48 14.9453 176.496 15.0391C176.512 15.125 176.52 15.2109 176.52 15.2969C176.52 15.6406 176.402 15.918 176.168 16.1289C175.934 16.3398 175.648 16.4453 175.312 16.4453C175.078 16.4453 174.879 16.3867 174.715 16.2695C174.559 16.1445 174.406 16 174.258 15.8359C174.031 15.5781 173.848 15.3945 173.707 15.2852C173.574 15.1758 173.422 15.1094 173.25 15.0859C173.078 15.0625 172.824 15.0508 172.488 15.0508H171.387V17.4297C171.387 18.0312 171.555 18.5078 171.891 18.8594C172.227 19.2109 172.699 19.3867 173.309 19.3867C173.934 19.3867 174.414 19.332 174.75 19.2227C175.094 19.1133 175.375 18.918 175.594 18.6367C175.82 18.3477 176.074 17.9375 176.355 17.4062C176.504 17.1328 176.664 16.9102 176.836 16.7383C177.008 16.5664 177.262 16.4805 177.598 16.4805C177.965 16.4805 178.285 16.5938 178.559 16.8203C178.84 17.0391 178.98 17.3438 178.98 17.7344C178.98 17.8828 178.953 18.0547 178.898 18.25L178.242 20.5586C178.094 21.082 177.898 21.5234 177.656 21.8828C177.414 22.2344 176.984 22.4102 176.367 22.4102C176.125 22.4102 175.887 22.3789 175.652 22.3164C175.418 22.2617 175.188 22.207 174.961 22.1523C174.547 22.0508 174.109 22 173.648 22H165.375C164.961 22 164.621 21.8984 164.355 21.6953C164.09 21.4922 163.957 21.168 163.957 20.7227C163.957 20.3164 164.039 20.0156 164.203 19.8203C164.375 19.625 164.57 19.4688 164.789 19.3516C165.008 19.2266 165.199 19.082 165.363 18.918C165.535 18.7539 165.621 18.5039 165.621 18.168V9.61328C165.621 9.27734 165.535 9.02734 165.363 8.86328C165.199 8.69922 165.008 8.55859 164.789 8.44141C164.57 8.31641 164.375 8.15625 164.203 7.96094C164.039 7.76562 163.957 7.46484 163.957 7.05859ZM187.441 22.3398C187.113 22.3398 186.785 22.3242 186.457 22.293C186.129 22.2617 185.805 22.2188 185.484 22.1641C185.344 22.1406 185.203 22.1172 185.062 22.0938C184.922 22.0781 184.777 22.0703 184.629 22.0703C184.301 22.0703 183.98 22.1289 183.668 22.2461C183.355 22.3633 183.035 22.4219 182.707 22.4219C182.254 22.4219 181.938 22.2969 181.758 22.0469C181.586 21.7969 181.457 21.4727 181.371 21.0742C181.27 20.5898 181.172 20.1016 181.078 19.6094C180.992 19.1172 180.902 18.6289 180.809 18.1445C180.785 18.0508 180.773 17.9531 180.773 17.8516C180.773 17.4844 180.906 17.1992 181.172 16.9961C181.445 16.793 181.75 16.6914 182.086 16.6914C182.391 16.6914 182.652 16.793 182.871 16.9961C183.098 17.1992 183.32 17.4531 183.539 17.7578C183.758 18.0625 184.008 18.3672 184.289 18.6719C184.578 18.9688 184.938 19.2188 185.367 19.4219C185.805 19.625 186.352 19.7266 187.008 19.7266C187.398 19.7266 187.793 19.6406 188.191 19.4688C188.598 19.2891 188.801 18.9609 188.801 18.4844C188.801 18.1562 188.703 17.9023 188.508 17.7227C188.32 17.5352 188.09 17.3906 187.816 17.2891C187.543 17.1797 187.281 17.0898 187.031 17.0195C186.211 16.7773 185.414 16.5039 184.641 16.1992C183.867 15.8867 183.168 15.5 182.543 15.0391C181.926 14.5781 181.434 14.0039 181.066 13.3164C180.699 12.6289 180.516 11.7852 180.516 10.7852C180.516 9.62891 180.785 8.66016 181.324 7.87891C181.871 7.08984 182.598 6.49609 183.504 6.09766C184.41 5.69141 185.402 5.48828 186.48 5.48828C186.801 5.48828 187.117 5.50391 187.43 5.53516C187.75 5.56641 188.066 5.62109 188.379 5.69922C188.637 5.76172 188.895 5.83203 189.152 5.91016C189.418 5.98047 189.684 6.01562 189.949 6.01562C190.246 6.01562 190.512 5.91406 190.746 5.71094C190.98 5.50781 191.258 5.40625 191.578 5.40625C191.906 5.40625 192.168 5.50391 192.363 5.69922C192.566 5.88672 192.727 6.12109 192.844 6.40234C192.969 6.67578 193.07 6.94141 193.148 7.19922L194.086 10.1875C194.141 10.375 194.168 10.5469 194.168 10.7031C194.168 11.0859 194.031 11.3906 193.758 11.6172C193.484 11.8438 193.164 11.957 192.797 11.957C192.461 11.957 192.211 11.8711 192.047 11.6992C191.883 11.5195 191.719 11.3008 191.555 11.043C191.031 10.2305 190.445 9.54297 189.797 8.98047C189.148 8.41797 188.301 8.13672 187.254 8.13672C186.871 8.13672 186.52 8.23438 186.199 8.42969C185.887 8.625 185.73 8.9375 185.73 9.36719C185.73 9.74219 185.848 10.043 186.082 10.2695C186.324 10.4883 186.613 10.6641 186.949 10.7969C187.285 10.9219 187.598 11.0312 187.887 11.125C188.645 11.3672 189.375 11.6406 190.078 11.9453C190.781 12.25 191.41 12.625 191.965 13.0703C192.527 13.5156 192.969 14.0625 193.289 14.7109C193.617 15.3594 193.781 16.1406 193.781 17.0547C193.781 17.9375 193.602 18.7109 193.242 19.375C192.891 20.0391 192.414 20.5898 191.812 21.0273C191.211 21.4648 190.531 21.793 189.773 22.0117C189.016 22.2305 188.238 22.3398 187.441 22.3398ZM202.805 9.61328V18.168C202.805 18.5039 202.883 18.7539 203.039 18.918C203.195 19.0742 203.379 19.2148 203.59 19.3398C203.801 19.457 203.984 19.6133 204.141 19.8086C204.297 20.0039 204.375 20.3086 204.375 20.7227C204.375 21.168 204.246 21.4922 203.988 21.6953C203.73 21.8984 203.391 22 202.969 22H196.875C196.453 22 196.113 21.8984 195.855 21.6953C195.598 21.4922 195.469 21.168 195.469 20.7227C195.469 20.3164 195.547 20.0156 195.703 19.8203C195.859 19.625 196.043 19.4688 196.254 19.3516C196.465 19.2266 196.648 19.082 196.805 18.918C196.961 18.7539 197.039 18.5039 197.039 18.168V9.61328C197.039 9.27734 196.961 9.02734 196.805 8.86328C196.648 8.69922 196.465 8.55859 196.254 8.44141C196.043 8.31641 195.859 8.15625 195.703 7.96094C195.547 7.76562 195.469 7.46484 195.469 7.05859C195.469 6.61328 195.598 6.28906 195.855 6.08594C196.113 5.88281 196.453 5.78125 196.875 5.78125H202.969C203.391 5.78125 203.73 5.88281 203.988 6.08594C204.246 6.28906 204.375 6.61328 204.375 7.05859C204.375 7.46484 204.297 7.76562 204.141 7.96094C203.984 8.15625 203.801 8.31641 203.59 8.44141C203.379 8.55859 203.195 8.69922 203.039 8.86328C202.883 9.02734 202.805 9.27734 202.805 9.61328ZM223.254 14.6875C223.254 15.0312 223.176 15.293 223.02 15.4727C222.863 15.6445 222.684 15.7852 222.48 15.8945C222.277 16.0039 222.098 16.1289 221.941 16.2695C221.785 16.4023 221.707 16.6016 221.707 16.8672V21.1562C221.707 22.0312 221.277 22.4688 220.418 22.4688C220.098 22.4688 219.816 22.3711 219.574 22.1758C219.34 21.9883 219.113 21.8008 218.895 21.6133C218.684 21.418 218.457 21.3203 218.215 21.3203C217.988 21.3203 217.742 21.3789 217.477 21.4961C217.219 21.6133 216.984 21.7188 216.773 21.8125C216.32 22.0234 215.863 22.1836 215.402 22.293C214.941 22.4023 214.457 22.457 213.949 22.457C212.191 22.457 210.699 22.1016 209.473 21.3906C208.246 20.6719 207.312 19.6719 206.672 18.3906C206.031 17.1016 205.711 15.5977 205.711 13.8789C205.711 12.6602 205.938 11.5312 206.391 10.4922C206.844 9.44531 207.473 8.53516 208.277 7.76172C209.082 6.98828 210.012 6.38672 211.066 5.95703C212.129 5.51953 213.262 5.30078 214.465 5.30078C214.926 5.30078 215.383 5.33203 215.836 5.39453C216.289 5.44922 216.734 5.54297 217.172 5.67578C217.398 5.73828 217.617 5.80078 217.828 5.86328C218.047 5.92578 218.273 5.95703 218.508 5.95703C218.711 5.95703 218.895 5.90625 219.059 5.80469C219.23 5.69531 219.398 5.58984 219.562 5.48828C219.734 5.38672 219.922 5.33594 220.125 5.33594C220.523 5.33594 220.781 5.46094 220.898 5.71094C221.023 5.96094 221.133 6.24219 221.227 6.55469C221.297 6.78125 221.391 7.07422 221.508 7.43359C221.633 7.79297 221.758 8.17578 221.883 8.58203C222.016 8.98047 222.125 9.35547 222.211 9.70703C222.297 10.0586 222.34 10.3359 222.34 10.5391C222.34 10.9141 222.191 11.1953 221.895 11.3828C221.598 11.5625 221.281 11.6523 220.945 11.6523C220.602 11.6523 220.344 11.5664 220.172 11.3945C220 11.2227 219.828 11.0039 219.656 10.7383C219.266 10.1445 218.887 9.62109 218.52 9.16797C218.152 8.70703 217.719 8.34766 217.219 8.08984C216.727 7.83203 216.09 7.70312 215.309 7.70312C214.559 7.70312 213.938 7.87109 213.445 8.20703C212.953 8.53516 212.562 8.97266 212.273 9.51953C211.992 10.0586 211.789 10.6484 211.664 11.2891C211.547 11.9219 211.488 12.5469 211.488 13.1641C211.488 13.6172 211.516 14.0781 211.57 14.5469C211.633 15.0078 211.727 15.457 211.852 15.8945C212.023 16.4805 212.281 17.0469 212.625 17.5938C212.977 18.1328 213.41 18.5742 213.926 18.918C214.441 19.2617 215.031 19.4336 215.695 19.4336C215.977 19.4336 216.199 19.3867 216.363 19.293C216.527 19.1914 216.609 18.9844 216.609 18.6719V16.8672C216.609 16.6641 216.57 16.5273 216.492 16.457C216.414 16.3867 216.297 16.3047 216.141 16.2109C215.938 16.0859 215.715 15.9648 215.473 15.8477C215.238 15.7227 215.039 15.5742 214.875 15.4023C214.711 15.2227 214.629 14.9883 214.629 14.6992C214.629 14.2617 214.766 13.9531 215.039 13.7734C215.312 13.5859 215.648 13.4922 216.047 13.4922H221.848C222.246 13.4922 222.578 13.582 222.844 13.7617C223.117 13.9414 223.254 14.25 223.254 14.6875ZM231.363 20.7227C231.363 21.1758 231.23 21.5039 230.965 21.707C230.699 21.9023 230.355 22 229.934 22H226.418C225.996 22 225.652 21.9023 225.387 21.707C225.121 21.5039 224.988 21.1758 224.988 20.7227C224.988 20.3086 225.082 20.0039 225.27 19.8086C225.457 19.6133 225.676 19.457 225.926 19.3398C226.176 19.2148 226.395 19.0664 226.582 18.8945C226.77 18.7148 226.863 18.4375 226.863 18.0625V11.0312C226.863 10.4922 226.793 10.0938 226.652 9.83594C226.512 9.57812 226.254 9.26953 225.879 8.91016C225.629 8.66016 225.348 8.36328 225.035 8.01953C224.723 7.67578 224.566 7.3125 224.566 6.92969C224.566 6.5625 224.691 6.28125 224.941 6.08594C225.199 5.88281 225.5 5.78125 225.844 5.78125H229.5C229.844 5.78125 230.113 5.80469 230.309 5.85156C230.512 5.89062 230.695 5.97266 230.859 6.09766C231.023 6.22266 231.215 6.41406 231.434 6.67188L238.688 14.9922V9.70703C238.688 9.32422 238.594 9.04688 238.406 8.875C238.219 8.70312 238 8.55859 237.75 8.44141C237.508 8.32422 237.293 8.17188 237.105 7.98438C236.918 7.78906 236.824 7.48047 236.824 7.05859C236.824 6.60547 236.957 6.28125 237.223 6.08594C237.488 5.88281 237.832 5.78125 238.254 5.78125H241.77C242.184 5.78125 242.523 5.88281 242.789 6.08594C243.062 6.28906 243.199 6.61328 243.199 7.05859C243.199 7.53516 243.082 7.85937 242.848 8.03125C242.621 8.20312 242.328 8.39844 241.969 8.61719C241.711 8.76562 241.539 8.91016 241.453 9.05078C241.367 9.18359 241.324 9.40234 241.324 9.70703V16.5156C241.324 16.8828 241.352 17.2578 241.406 17.6406C241.469 18.0156 241.598 18.3633 241.793 18.6836C241.98 18.9883 242.184 19.3125 242.402 19.6562C242.629 19.9922 242.742 20.3477 242.742 20.7227C242.742 21.1055 242.625 21.4141 242.391 21.6484C242.164 21.8828 241.859 22 241.477 22H237.492C237.164 22 236.898 21.9258 236.695 21.7773C236.5 21.6211 236.402 21.3672 236.402 21.0156C236.402 20.7891 236.289 20.543 236.062 20.2773C235.836 20.0039 235.652 19.7852 235.512 19.6211L229.5 12.6602V18.0625C229.5 18.375 229.539 18.5977 229.617 18.7305C229.703 18.8633 229.879 19.0078 230.145 19.1641C230.496 19.3828 230.785 19.582 231.012 19.7617C231.246 19.9336 231.363 20.2539 231.363 20.7227ZM251.848 22.3398C251.52 22.3398 251.191 22.3242 250.863 22.293C250.535 22.2617 250.211 22.2188 249.891 22.1641C249.75 22.1406 249.609 22.1172 249.469 22.0938C249.328 22.0781 249.184 22.0703 249.035 22.0703C248.707 22.0703 248.387 22.1289 248.074 22.2461C247.762 22.3633 247.441 22.4219 247.113 22.4219C246.66 22.4219 246.344 22.2969 246.164 22.0469C245.992 21.7969 245.863 21.4727 245.777 21.0742C245.676 20.5898 245.578 20.1016 245.484 19.6094C245.398 19.1172 245.309 18.6289 245.215 18.1445C245.191 18.0508 245.18 17.9531 245.18 17.8516C245.18 17.4844 245.312 17.1992 245.578 16.9961C245.852 16.793 246.156 16.6914 246.492 16.6914C246.797 16.6914 247.059 16.793 247.277 16.9961C247.504 17.1992 247.727 17.4531 247.945 17.7578C248.164 18.0625 248.414 18.3672 248.695 18.6719C248.984 18.9688 249.344 19.2188 249.773 19.4219C250.211 19.625 250.758 19.7266 251.414 19.7266C251.805 19.7266 252.199 19.6406 252.598 19.4688C253.004 19.2891 253.207 18.9609 253.207 18.4844C253.207 18.1562 253.109 17.9023 252.914 17.7227C252.727 17.5352 252.496 17.3906 252.223 17.2891C251.949 17.1797 251.688 17.0898 251.438 17.0195C250.617 16.7773 249.82 16.5039 249.047 16.1992C248.273 15.8867 247.574 15.5 246.949 15.0391C246.332 14.5781 245.84 14.0039 245.473 13.3164C245.105 12.6289 244.922 11.7852 244.922 10.7852C244.922 9.62891 245.191 8.66016 245.73 7.87891C246.277 7.08984 247.004 6.49609 247.91 6.09766C248.816 5.69141 249.809 5.48828 250.887 5.48828C251.207 5.48828 251.523 5.50391 251.836 5.53516C252.156 5.56641 252.473 5.62109 252.785 5.69922C253.043 5.76172 253.301 5.83203 253.559 5.91016C253.824 5.98047 254.09 6.01562 254.355 6.01562C254.652 6.01562 254.918 5.91406 255.152 5.71094C255.387 5.50781 255.664 5.40625 255.984 5.40625C256.312 5.40625 256.574 5.50391 256.77 5.69922C256.973 5.88672 257.133 6.12109 257.25 6.40234C257.375 6.67578 257.477 6.94141 257.555 7.19922L258.492 10.1875C258.547 10.375 258.574 10.5469 258.574 10.7031C258.574 11.0859 258.438 11.3906 258.164 11.6172C257.891 11.8438 257.57 11.957 257.203 11.957C256.867 11.957 256.617 11.8711 256.453 11.6992C256.289 11.5195 256.125 11.3008 255.961 11.043C255.438 10.2305 254.852 9.54297 254.203 8.98047C253.555 8.41797 252.707 8.13672 251.66 8.13672C251.277 8.13672 250.926 8.23438 250.605 8.42969C250.293 8.625 250.137 8.9375 250.137 9.36719C250.137 9.74219 250.254 10.043 250.488 10.2695C250.73 10.4883 251.02 10.6641 251.355 10.7969C251.691 10.9219 252.004 11.0312 252.293 11.125C253.051 11.3672 253.781 11.6406 254.484 11.9453C255.188 12.25 255.816 12.625 256.371 13.0703C256.934 13.5156 257.375 14.0625 257.695 14.7109C258.023 15.3594 258.188 16.1406 258.188 17.0547C258.188 17.9375 258.008 18.7109 257.648 19.375C257.297 20.0391 256.82 20.5898 256.219 21.0273C255.617 21.4648 254.938 21.793 254.18 22.0117C253.422 22.2305 252.645 22.3398 251.848 22.3398Z" fill="#646464"/>
</g>
</g>
<defs>
<filter id="filter0_i_4_7" x="0.785156" y="5.30078" width="257.789" height="21.168" filterUnits="userSpaceOnUse" color-interpolation-filters="sRGB">
<feFlood flood-opacity="0" result="BackgroundImageFix"/>
<feBlend mode="normal" in="SourceGraphic" in2="BackgroundImageFix" result="shape"/>
<feColorMatrix in="SourceAlpha" type="matrix" values="0 0 0 0 0 0 0 0 0 0 0 0 0 0 0 0 0 0 127 0" result="hardAlpha"/>
<feOffset dy="4"/>
<feGaussianBlur stdDeviation="6.45"/>
<feComposite in2="hardAlpha" operator="arithmetic" k2="-1" k3="1"/>
<feColorMatrix type="matrix" values="0 0 0 0 0 0 0 0 0 0 0 0 0 0 0 0 0 0 0.25 0"/>
<feBlend mode="normal" in2="shape" result="effect1_innerShadow_4_7"/>
</filter>
<filter id="filter1_i_4_7" x="0.785156" y="5.30078" width="257.789" height="21.168" filterUnits="userSpaceOnUse" color-interpolation-filters="sRGB">
<feFlood flood-opacity="0" result="BackgroundImageFix"/>
<feBlend mode="normal" in="SourceGraphic" in2="BackgroundImageFix" result="shape"/>
<feColorMatrix in="SourceAlpha" type="matrix" values="0 0 0 0 0 0 0 0 0 0 0 0 0 0 0 0 0 0 127 0" result="hardAlpha"/>
<feOffset dy="4"/>
<feGaussianBlur stdDeviation="8.4"/>
<feComposite in2="hardAlpha" operator="arithmetic" k2="-1" k3="1"/>
<feColorMatrix type="matrix" values="0 0 0 0 0 0 0 0 0 0 0 0 0 0 0 0 0 0 0.25 0"/>
<feBlend mode="normal" in2="shape" result="effect1_innerShadow_4_7"/>
</filter>
</defs>
</svg>
