<svg xmlns="http://www.w3.org/2000/svg" xmlns:xlink="http://www.w3.org/1999/xlink" width="221" zoomAndPan="magnify" viewBox="0 0 165.75 149.999998" height="200" preserveAspectRatio="xMidYMid meet" version="1.0"><defs><g/><clipPath id="e11518c29c"><path d="M 7.667969 0.113281 L 157.441406 0.113281 L 157.441406 149.886719 L 7.667969 149.886719 Z M 7.667969 0.113281 " clip-rule="nonzero"/></clipPath></defs><g clip-path="url(#e11518c29c)"><path fill="#8f6daf" d="M 156.226562 103.695312 L 146.628906 99.742188 C 146.613281 99.722656 146.574219 99.703125 146.554688 99.683594 C 140.777344 96.324219 137.015625 86.574219 136.976562 74.828125 C 136.957031 63.082031 140.679688 53.332031 146.457031 49.9375 C 146.476562 49.917969 146.515625 49.898438 146.535156 49.878906 L 156.128906 45.886719 C 156.878906 45.582031 157.242188 44.699219 156.9375 43.949219 C 156.628906 43.199219 155.746094 42.835938 155 43.144531 L 145.402344 47.132812 C 145.382812 47.132812 145.34375 47.152344 145.324219 47.152344 C 138.859375 48.863281 129.300781 44.621094 120.988281 36.347656 C 112.679688 28.058594 108.398438 18.519531 110.089844 12.050781 C 110.089844 12.011719 110.105469 11.992188 110.105469 11.953125 L 114.0625 2.359375 C 114.367188 1.589844 114.003906 0.726562 113.253906 0.421875 C 112.488281 0.113281 111.625 0.476562 111.316406 1.226562 L 107.363281 10.824219 C 107.34375 10.839844 107.324219 10.878906 107.304688 10.898438 C 103.945312 16.675781 94.195312 20.4375 82.449219 20.476562 C 70.722656 20.496094 60.953125 16.773438 57.558594 10.996094 C 57.539062 10.976562 57.519531 10.957031 57.519531 10.9375 L 53.527344 1.339844 C 53.21875 0.59375 52.335938 0.226562 51.589844 0.535156 C 50.839844 0.84375 50.476562 1.726562 50.78125 2.472656 L 54.773438 12.070312 C 54.773438 12.089844 54.792969 12.128906 54.792969 12.148438 C 56.503906 18.613281 52.261719 28.171875 43.988281 36.484375 C 35.699219 44.792969 26.160156 49.074219 19.691406 47.382812 C 19.652344 47.382812 19.632812 47.363281 19.59375 47.363281 L 10 43.410156 C 9.230469 43.105469 8.367188 43.46875 8.058594 44.21875 C 7.753906 44.984375 8.117188 45.847656 8.867188 46.15625 L 18.460938 50.109375 C 18.480469 50.128906 18.519531 50.148438 18.539062 50.167969 C 24.316406 53.527344 28.078125 63.277344 28.117188 75.023438 C 28.136719 86.765625 24.414062 96.515625 18.636719 99.914062 C 18.617188 99.933594 18.597656 99.953125 18.578125 99.953125 L 8.980469 103.945312 C 8.234375 104.25 7.867188 105.132812 8.175781 105.882812 C 8.484375 106.632812 9.367188 106.996094 10.113281 106.6875 L 19.710938 102.695312 C 19.75 102.695312 19.769531 102.679688 19.804688 102.679688 C 26.273438 100.96875 35.832031 105.210938 44.140625 113.484375 C 52.453125 121.773438 56.734375 131.3125 55.042969 137.78125 C 55.042969 137.800781 55.023438 137.839844 55.023438 137.859375 L 51.070312 147.453125 C 50.761719 148.222656 51.128906 149.085938 51.875 149.394531 C 52.644531 149.699219 53.507812 149.335938 53.816406 148.585938 L 57.769531 138.992188 C 57.789062 138.972656 57.808594 138.933594 57.828125 138.914062 C 61.183594 133.136719 70.933594 129.375 82.679688 129.335938 C 94.425781 129.316406 104.175781 133.039062 107.574219 138.816406 C 107.59375 138.835938 107.613281 138.875 107.632812 138.894531 L 111.625 148.492188 C 111.929688 149.238281 112.8125 149.605469 113.5625 149.296875 C 114.308594 148.988281 114.675781 148.105469 114.367188 147.359375 L 110.375 137.761719 C 110.375 137.722656 110.355469 137.703125 110.355469 137.667969 C 108.648438 131.199219 112.890625 121.640625 121.160156 113.328125 C 129.453125 105.019531 138.992188 100.738281 145.460938 102.429688 C 145.480469 102.429688 145.515625 102.449219 145.535156 102.449219 L 155.132812 106.402344 C 155.902344 106.707031 156.765625 106.34375 157.070312 105.59375 C 157.359375 104.886719 156.996094 104.023438 156.226562 103.695312 Z M 107.171875 19.074219 C 107.574219 21.011719 108.265625 23.046875 109.222656 25.121094 C 111.355469 29.6875 114.675781 34.3125 118.859375 38.480469 C 123.042969 42.644531 127.667969 45.964844 132.253906 48.054688 C 132.660156 48.246094 133.082031 48.421875 133.484375 48.59375 C 135.132812 49.285156 136.765625 49.785156 138.320312 50.089844 L 128.015625 54.410156 C 121.949219 56.15625 114.714844 53.792969 109.148438 48.246094 C 103.582031 42.703125 101.203125 35.484375 102.910156 29.402344 Z M 60.761719 67.574219 L 78.652344 74.945312 L 60.78125 82.390625 C 61.703125 79.800781 62.144531 77.382812 62.144531 74.984375 C 62.164062 72.585938 61.703125 70.164062 60.761719 67.574219 Z M 82.546875 71.066406 L 75.101562 53.199219 C 77.691406 54.121094 80.109375 54.5625 82.507812 54.5625 C 84.90625 54.5625 87.304688 54.101562 89.917969 53.160156 Z M 92.660156 54.292969 C 93.851562 56.789062 95.234375 58.804688 96.941406 60.492188 C 98.648438 62.183594 100.664062 63.5625 103.160156 64.734375 L 85.292969 72.179688 Z M 79.800781 72.199219 L 61.914062 64.832031 C 64.410156 63.640625 66.425781 62.257812 68.113281 60.550781 C 69.800781 58.84375 71.183594 56.828125 72.355469 54.332031 Z M 79.800781 77.6875 L 72.433594 95.578125 C 71.242188 93.082031 69.859375 91.066406 68.152344 89.378906 C 66.445312 87.6875 64.429688 86.308594 61.933594 85.136719 Z M 82.546875 78.820312 L 89.992188 96.691406 C 87.402344 95.769531 84.984375 95.328125 82.585938 95.328125 C 80.1875 95.328125 77.785156 95.789062 75.175781 96.726562 Z M 85.292969 77.6875 L 103.179688 85.058594 C 100.683594 86.25 98.667969 87.632812 96.980469 89.339844 C 95.289062 91.046875 93.910156 93.0625 92.738281 95.558594 Z M 86.421875 74.945312 L 104.292969 67.5 C 103.371094 70.089844 102.929688 72.507812 102.929688 74.90625 C 102.929688 77.304688 103.390625 79.703125 104.332031 82.316406 Z M 99.03125 58.402344 C 97.035156 56.425781 95.519531 53.871094 94.253906 50.417969 L 99.742188 37.097656 C 100.625 41.78125 103.140625 46.445312 107.054688 50.339844 C 109.703125 52.96875 112.699219 54.984375 115.808594 56.25 C 117.304688 56.867188 118.800781 57.308594 120.316406 57.59375 L 107.015625 63.121094 C 103.582031 61.894531 101.027344 60.378906 99.03125 58.402344 Z M 91.507812 49.285156 C 88.1875 50.839844 85.308594 51.585938 82.507812 51.585938 C 79.707031 51.585938 76.828125 50.859375 73.488281 49.324219 L 67.960938 36.042969 C 71.894531 38.726562 76.960938 40.246094 82.488281 40.246094 C 88.015625 40.226562 93.082031 38.691406 97 35.984375 Z M 70.742188 50.453125 C 69.496094 53.910156 67.980469 56.460938 66.003906 58.457031 C 64.027344 60.453125 61.472656 61.96875 58.019531 63.238281 L 44.699219 57.75 C 49.382812 56.867188 54.046875 54.351562 57.941406 50.4375 C 61.835938 46.519531 64.332031 41.835938 65.195312 37.171875 Z M 56.886719 65.980469 C 58.441406 69.300781 59.1875 72.179688 59.1875 74.984375 C 59.1875 77.785156 58.460938 80.664062 56.925781 84.003906 L 43.625 89.53125 C 46.3125 85.597656 47.828125 80.53125 47.828125 75.003906 C 47.808594 69.476562 46.273438 64.40625 43.566406 60.492188 Z M 58.058594 86.75 C 61.511719 87.996094 64.0625 89.511719 66.058594 91.488281 C 68.054688 93.464844 69.574219 96.019531 70.839844 99.472656 L 65.351562 112.792969 C 64.46875 108.109375 61.953125 103.445312 58.039062 99.550781 C 54.121094 95.652344 49.4375 93.160156 44.777344 92.292969 Z M 73.582031 100.605469 C 76.902344 99.050781 79.78125 98.300781 82.585938 98.300781 C 85.386719 98.300781 88.265625 99.03125 91.605469 100.566406 L 97.132812 113.847656 C 93.199219 111.160156 88.132812 109.644531 82.605469 109.644531 C 77.078125 109.664062 72.011719 111.199219 68.09375 113.90625 Z M 94.351562 99.433594 C 95.597656 95.980469 97.113281 93.425781 99.089844 91.429688 C 101.066406 89.433594 103.621094 87.917969 107.074219 86.652344 L 120.394531 92.140625 C 115.710938 93.023438 111.046875 95.539062 107.152344 99.453125 C 103.253906 103.367188 100.761719 108.050781 99.898438 112.714844 Z M 108.207031 83.90625 C 106.652344 80.585938 105.902344 77.707031 105.902344 74.90625 C 105.902344 72.105469 106.632812 69.226562 108.167969 65.886719 L 121.449219 60.359375 C 118.761719 64.292969 117.246094 69.359375 117.246094 74.886719 C 117.265625 80.414062 118.800781 85.480469 121.507812 89.398438 Z M 66.195312 20.839844 C 70.933594 22.566406 76.558594 23.488281 82.449219 23.46875 C 88.34375 23.449219 93.964844 22.53125 98.707031 20.785156 C 100.855469 19.996094 102.777344 19.035156 104.425781 17.941406 L 100.164062 28.269531 C 97.113281 33.796875 90.339844 37.230469 82.46875 37.25 C 74.601562 37.269531 67.824219 33.851562 64.734375 28.324219 L 60.4375 18.019531 C 62.105469 19.113281 64.042969 20.054688 66.195312 20.839844 Z M 32.722656 48.246094 C 37.289062 46.117188 41.914062 42.796875 46.082031 38.613281 C 50.246094 34.429688 53.566406 29.804688 55.65625 25.21875 C 56.617188 23.125 57.289062 21.089844 57.691406 19.152344 L 61.992188 29.457031 C 63.738281 35.523438 61.378906 42.757812 55.832031 48.324219 C 50.285156 53.890625 43.066406 56.269531 36.984375 54.5625 L 26.65625 50.300781 C 28.617188 49.917969 30.648438 49.226562 32.722656 48.246094 Z M 28.441406 91.296875 C 30.171875 86.554688 31.089844 80.933594 31.070312 75.039062 C 31.054688 69.148438 30.132812 63.523438 28.386719 58.785156 C 27.597656 56.636719 26.636719 54.714844 25.542969 53.066406 L 35.871094 57.324219 C 41.398438 60.378906 44.832031 67.152344 44.851562 75.023438 C 44.871094 82.890625 41.457031 89.664062 35.929688 92.753906 L 25.621094 97.054688 C 26.714844 95.386719 27.65625 93.445312 28.441406 91.296875 Z M 57.921875 130.8125 C 57.519531 128.875 56.828125 126.839844 55.867188 124.769531 C 53.738281 120.199219 50.417969 115.574219 46.234375 111.410156 C 42.050781 107.246094 37.425781 103.925781 32.835938 101.832031 C 30.746094 100.875 28.710938 100.203125 26.773438 99.800781 L 37.078125 95.5 C 43.144531 93.753906 50.378906 96.113281 55.945312 101.660156 C 61.511719 107.207031 63.890625 114.425781 62.183594 120.507812 Z M 98.898438 129.046875 C 94.15625 127.320312 88.535156 126.398438 82.640625 126.417969 C 76.75 126.4375 71.128906 127.359375 66.386719 129.105469 C 64.238281 129.894531 62.316406 130.851562 60.667969 131.945312 L 64.929688 121.621094 C 67.980469 116.09375 74.753906 112.65625 82.625 112.640625 C 90.492188 112.621094 97.265625 116.035156 100.355469 121.5625 L 104.65625 131.871094 C 102.988281 130.777344 101.046875 129.835938 98.898438 129.046875 Z M 132.371094 101.640625 C 127.800781 103.773438 123.175781 107.09375 119.011719 111.277344 C 114.847656 115.460938 111.527344 120.085938 109.433594 124.671875 C 108.476562 126.765625 107.804688 128.800781 107.402344 130.738281 L 103.082031 120.410156 C 101.335938 114.347656 103.695312 107.113281 109.242188 101.546875 C 114.789062 95.980469 122.007812 93.601562 128.089844 95.308594 L 138.417969 99.570312 C 136.476562 99.972656 134.441406 100.664062 132.371094 101.640625 Z M 129.222656 92.5625 C 123.695312 89.511719 120.261719 82.738281 120.242188 74.867188 C 120.222656 67 123.636719 60.222656 129.164062 57.132812 L 139.472656 52.835938 C 138.378906 54.484375 137.4375 56.425781 136.652344 58.574219 C 134.921875 63.3125 134 68.9375 134.019531 74.828125 C 134.039062 80.722656 134.960938 86.34375 136.707031 91.085938 C 137.496094 93.234375 138.453125 95.15625 139.546875 96.804688 Z M 129.222656 92.5625 " fill-opacity="1" fill-rule="nonzero"/></g><g fill="#3f245b" fill-opacity="1"><g transform="translate(16.893983, 88.361248)"><g><path d="M 3.375 -59.125 L 12.671875 -59.125 L 12.671875 -8.453125 L 27.953125 -8.453125 L 27.953125 0 L 3.375 0 Z M 3.375 -59.125 "/></g></g></g><g fill="#3f245b" fill-opacity="1"><g transform="translate(45.698404, 88.361248)"><g><path d="M 17.3125 -32.9375 L 30.328125 -32.9375 L 30.328125 -14.1875 C 30.328125 -9.40625 29.15625 -5.734375 26.8125 -3.171875 C 24.476562 -0.609375 21.03125 0.671875 16.46875 0.671875 C 11.90625 0.671875 8.457031 -0.609375 6.125 -3.171875 C 3.789062 -5.734375 2.625 -9.40625 2.625 -14.1875 L 2.625 -44.9375 C 2.625 -49.726562 3.789062 -53.398438 6.125 -55.953125 C 8.457031 -58.515625 11.90625 -59.796875 16.46875 -59.796875 C 21.03125 -59.796875 24.476562 -58.515625 26.8125 -55.953125 C 29.15625 -53.398438 30.328125 -49.726562 30.328125 -44.9375 L 30.328125 -39.1875 L 21.546875 -39.1875 L 21.546875 -45.53125 C 21.546875 -47.664062 21.109375 -49.171875 20.234375 -50.046875 C 19.359375 -50.921875 18.1875 -51.359375 16.71875 -51.359375 C 15.257812 -51.359375 14.09375 -50.921875 13.21875 -50.046875 C 12.34375 -49.171875 11.90625 -47.664062 11.90625 -45.53125 L 11.90625 -13.59375 C 11.90625 -11.457031 12.34375 -9.96875 13.21875 -9.125 C 14.09375 -8.28125 15.257812 -7.859375 16.71875 -7.859375 C 18.1875 -7.859375 19.359375 -8.28125 20.234375 -9.125 C 21.109375 -9.96875 21.546875 -11.457031 21.546875 -13.59375 L 21.546875 -24.5 L 17.3125 -24.5 Z M 17.3125 -32.9375 "/></g></g></g><g fill="#3f245b" fill-opacity="1"><g transform="translate(78.64194, 88.361248)"><g><path d="M 11.65625 -42.828125 L 11.65625 0 L 3.296875 0 L 3.296875 -59.125 L 14.953125 -59.125 L 24.5 -23.734375 L 24.5 -59.125 L 32.78125 -59.125 L 32.78125 0 L 23.234375 0 Z M 11.65625 -42.828125 "/></g></g></g><g fill="#3f245b" fill-opacity="1"><g transform="translate(114.710864, 88.361248)"><g><path d="M 12.078125 -19.59375 L 0.34375 -59.125 L 10.046875 -59.125 L 17.140625 -32.1875 L 24.25 -59.125 L 33.109375 -59.125 L 21.375 -19.59375 L 21.375 0 L 12.078125 0 Z M 12.078125 -19.59375 "/></g></g></g><g fill="#3f245b" fill-opacity="1"><g transform="translate(14.056581, 110.747453)"><g><path d="M 20.6875 -12.6875 L 16.53125 0 L 13.375 0 L 10.578125 -8.59375 L 7.703125 0 L 4.5625 0 L 0.40625 -12.6875 L 3.4375 -12.6875 L 6.3125 -3.765625 L 9.296875 -12.6875 L 12.015625 -12.6875 L 14.921875 -3.703125 L 17.875 -12.6875 Z M 20.6875 -12.6875 "/></g></g></g><g fill="#3f245b" fill-opacity="1"><g transform="translate(35.126065, 110.747453)"><g><path d="M 11.328125 -2.359375 L 11.328125 0 L 1.5 0 L 1.5 -12.6875 L 11.09375 -12.6875 L 11.09375 -10.328125 L 4.421875 -10.328125 L 4.421875 -7.578125 L 10.3125 -7.578125 L 10.3125 -5.296875 L 4.421875 -5.296875 L 4.421875 -2.359375 Z M 11.328125 -2.359375 "/></g></g></g><g fill="#3f245b" fill-opacity="1"><g transform="translate(47.282231, 110.747453)"><g><path d="M 10.828125 -6.59375 C 11.546875 -6.363281 12.109375 -5.976562 12.515625 -5.4375 C 12.929688 -4.90625 13.140625 -4.25 13.140625 -3.46875 C 13.140625 -2.351562 12.707031 -1.492188 11.84375 -0.890625 C 10.976562 -0.296875 9.71875 0 8.0625 0 L 1.5 0 L 1.5 -12.6875 L 7.703125 -12.6875 C 9.242188 -12.6875 10.425781 -12.390625 11.25 -11.796875 C 12.082031 -11.203125 12.5 -10.398438 12.5 -9.390625 C 12.5 -8.773438 12.351562 -8.222656 12.0625 -7.734375 C 11.769531 -7.253906 11.359375 -6.875 10.828125 -6.59375 Z M 4.421875 -10.46875 L 4.421875 -7.484375 L 7.34375 -7.484375 C 8.0625 -7.484375 8.609375 -7.609375 8.984375 -7.859375 C 9.359375 -8.117188 9.546875 -8.492188 9.546875 -8.984375 C 9.546875 -9.484375 9.359375 -9.851562 8.984375 -10.09375 C 8.609375 -10.34375 8.0625 -10.46875 7.34375 -10.46875 Z M 7.84375 -2.21875 C 8.625 -2.21875 9.207031 -2.34375 9.59375 -2.59375 C 9.988281 -2.84375 10.1875 -3.234375 10.1875 -3.765625 C 10.1875 -4.816406 9.40625 -5.34375 7.84375 -5.34375 L 4.421875 -5.34375 L 4.421875 -2.21875 Z M 7.84375 -2.21875 "/></g></g></g><g fill="#3f245b" fill-opacity="1"><g transform="translate(61.141348, 110.747453)"><g/></g></g><g fill="#3f245b" fill-opacity="1"><g transform="translate(66.268315, 110.747453)"><g><path d="M 1.5 -12.6875 L 7.265625 -12.6875 C 8.640625 -12.6875 9.851562 -12.421875 10.90625 -11.890625 C 11.96875 -11.367188 12.789062 -10.628906 13.375 -9.671875 C 13.96875 -8.722656 14.265625 -7.613281 14.265625 -6.34375 C 14.265625 -5.070312 13.96875 -3.957031 13.375 -3 C 12.789062 -2.050781 11.96875 -1.3125 10.90625 -0.78125 C 9.851562 -0.257812 8.640625 0 7.265625 0 L 1.5 0 Z M 7.125 -2.40625 C 8.394531 -2.40625 9.40625 -2.757812 10.15625 -3.46875 C 10.914062 -4.175781 11.296875 -5.132812 11.296875 -6.34375 C 11.296875 -7.550781 10.914062 -8.507812 10.15625 -9.21875 C 9.40625 -9.925781 8.394531 -10.28125 7.125 -10.28125 L 4.4375 -10.28125 L 4.4375 -2.40625 Z M 7.125 -2.40625 "/></g></g></g><g fill="#3f245b" fill-opacity="1"><g transform="translate(81.232545, 110.747453)"><g><path d="M 11.328125 -2.359375 L 11.328125 0 L 1.5 0 L 1.5 -12.6875 L 11.09375 -12.6875 L 11.09375 -10.328125 L 4.421875 -10.328125 L 4.421875 -7.578125 L 10.3125 -7.578125 L 10.3125 -5.296875 L 4.421875 -5.296875 L 4.421875 -2.359375 Z M 11.328125 -2.359375 "/></g></g></g><g fill="#3f245b" fill-opacity="1"><g transform="translate(93.388711, 110.747453)"><g><path d="M 5.671875 0.21875 C 4.671875 0.21875 3.703125 0.0820312 2.765625 -0.1875 C 1.828125 -0.457031 1.070312 -0.8125 0.5 -1.25 L 1.5 -3.46875 C 2.039062 -3.0625 2.6875 -2.738281 3.4375 -2.5 C 4.1875 -2.257812 4.9375 -2.140625 5.6875 -2.140625 C 6.519531 -2.140625 7.132812 -2.257812 7.53125 -2.5 C 7.9375 -2.75 8.140625 -3.082031 8.140625 -3.5 C 8.140625 -3.800781 8.019531 -4.050781 7.78125 -4.25 C 7.550781 -4.445312 7.25 -4.601562 6.875 -4.71875 C 6.507812 -4.84375 6.015625 -4.976562 5.390625 -5.125 C 4.421875 -5.351562 3.625 -5.582031 3 -5.8125 C 2.382812 -6.039062 1.859375 -6.410156 1.421875 -6.921875 C 0.984375 -7.429688 0.765625 -8.109375 0.765625 -8.953125 C 0.765625 -9.691406 0.960938 -10.359375 1.359375 -10.953125 C 1.753906 -11.554688 2.351562 -12.03125 3.15625 -12.375 C 3.96875 -12.726562 4.953125 -12.90625 6.109375 -12.90625 C 6.921875 -12.90625 7.710938 -12.804688 8.484375 -12.609375 C 9.253906 -12.421875 9.929688 -12.144531 10.515625 -11.78125 L 9.609375 -9.546875 C 8.429688 -10.210938 7.257812 -10.546875 6.09375 -10.546875 C 5.269531 -10.546875 4.660156 -10.410156 4.265625 -10.140625 C 3.867188 -9.878906 3.671875 -9.53125 3.671875 -9.09375 C 3.671875 -8.664062 3.894531 -8.34375 4.34375 -8.125 C 4.800781 -7.914062 5.5 -7.707031 6.4375 -7.5 C 7.40625 -7.269531 8.195312 -7.039062 8.8125 -6.8125 C 9.425781 -6.582031 9.953125 -6.21875 10.390625 -5.71875 C 10.835938 -5.226562 11.0625 -4.5625 11.0625 -3.71875 C 11.0625 -2.988281 10.859375 -2.320312 10.453125 -1.71875 C 10.046875 -1.125 9.4375 -0.648438 8.625 -0.296875 C 7.8125 0.046875 6.828125 0.21875 5.671875 0.21875 Z M 5.671875 0.21875 "/></g></g></g><g fill="#3f245b" fill-opacity="1"><g transform="translate(104.947037, 110.747453)"><g><path d="M 1.5 -12.6875 L 4.4375 -12.6875 L 4.4375 0 L 1.5 0 Z M 1.5 -12.6875 "/></g></g></g><g fill="#3f245b" fill-opacity="1"><g transform="translate(110.889253, 110.747453)"><g><path d="M 10.078125 -6.546875 L 12.765625 -6.546875 L 12.765625 -1.390625 C 12.078125 -0.867188 11.28125 -0.46875 10.375 -0.1875 C 9.46875 0.0820312 8.550781 0.21875 7.625 0.21875 C 6.3125 0.21875 5.128906 -0.0625 4.078125 -0.625 C 3.023438 -1.1875 2.195312 -1.960938 1.59375 -2.953125 C 1 -3.953125 0.703125 -5.082031 0.703125 -6.34375 C 0.703125 -7.601562 1 -8.726562 1.59375 -9.71875 C 2.195312 -10.71875 3.03125 -11.5 4.09375 -12.0625 C 5.15625 -12.625 6.351562 -12.90625 7.6875 -12.90625 C 8.800781 -12.90625 9.8125 -12.71875 10.71875 -12.34375 C 11.625 -11.96875 12.382812 -11.425781 13 -10.71875 L 11.109375 -8.96875 C 10.203125 -9.925781 9.109375 -10.40625 7.828125 -10.40625 C 7.015625 -10.40625 6.296875 -10.234375 5.671875 -9.890625 C 5.046875 -9.554688 4.554688 -9.082031 4.203125 -8.46875 C 3.847656 -7.851562 3.671875 -7.144531 3.671875 -6.34375 C 3.671875 -5.5625 3.847656 -4.859375 4.203125 -4.234375 C 4.554688 -3.617188 5.039062 -3.140625 5.65625 -2.796875 C 6.28125 -2.453125 6.992188 -2.28125 7.796875 -2.28125 C 8.640625 -2.28125 9.398438 -2.460938 10.078125 -2.828125 Z M 10.078125 -6.546875 "/></g></g></g><g fill="#3f245b" fill-opacity="1"><g transform="translate(124.857076, 110.747453)"><g><path d="M 13.140625 -12.6875 L 13.140625 0 L 10.734375 0 L 4.40625 -7.703125 L 4.40625 0 L 1.5 0 L 1.5 -12.6875 L 3.9375 -12.6875 L 10.234375 -4.984375 L 10.234375 -12.6875 Z M 13.140625 -12.6875 "/></g></g></g><g fill="#3f245b" fill-opacity="1"><g transform="translate(139.495211, 110.747453)"><g><path d="M 5.671875 0.21875 C 4.671875 0.21875 3.703125 0.0820312 2.765625 -0.1875 C 1.828125 -0.457031 1.070312 -0.8125 0.5 -1.25 L 1.5 -3.46875 C 2.039062 -3.0625 2.6875 -2.738281 3.4375 -2.5 C 4.1875 -2.257812 4.9375 -2.140625 5.6875 -2.140625 C 6.519531 -2.140625 7.132812 -2.257812 7.53125 -2.5 C 7.9375 -2.75 8.140625 -3.082031 8.140625 -3.5 C 8.140625 -3.800781 8.019531 -4.050781 7.78125 -4.25 C 7.550781 -4.445312 7.25 -4.601562 6.875 -4.71875 C 6.507812 -4.84375 6.015625 -4.976562 5.390625 -5.125 C 4.421875 -5.351562 3.625 -5.582031 3 -5.8125 C 2.382812 -6.039062 1.859375 -6.410156 1.421875 -6.921875 C 0.984375 -7.429688 0.765625 -8.109375 0.765625 -8.953125 C 0.765625 -9.691406 0.960938 -10.359375 1.359375 -10.953125 C 1.753906 -11.554688 2.351562 -12.03125 3.15625 -12.375 C 3.96875 -12.726562 4.953125 -12.90625 6.109375 -12.90625 C 6.921875 -12.90625 7.710938 -12.804688 8.484375 -12.609375 C 9.253906 -12.421875 9.929688 -12.144531 10.515625 -11.78125 L 9.609375 -9.546875 C 8.429688 -10.210938 7.257812 -10.546875 6.09375 -10.546875 C 5.269531 -10.546875 4.660156 -10.410156 4.265625 -10.140625 C 3.867188 -9.878906 3.671875 -9.53125 3.671875 -9.09375 C 3.671875 -8.664062 3.894531 -8.34375 4.34375 -8.125 C 4.800781 -7.914062 5.5 -7.707031 6.4375 -7.5 C 7.40625 -7.269531 8.195312 -7.039062 8.8125 -6.8125 C 9.425781 -6.582031 9.953125 -6.21875 10.390625 -5.71875 C 10.835938 -5.226562 11.0625 -4.5625 11.0625 -3.71875 C 11.0625 -2.988281 10.859375 -2.320312 10.453125 -1.71875 C 10.046875 -1.125 9.4375 -0.648438 8.625 -0.296875 C 7.8125 0.046875 6.828125 0.21875 5.671875 0.21875 Z M 5.671875 0.21875 "/></g></g></g></svg>