<svg xmlns="http://www.w3.org/2000/svg" xmlns:xlink="http://www.w3.org/1999/xlink" width="343" zoomAndPan="magnify" viewBox="0 0 257.25 212.249992" height="283" preserveAspectRatio="xMidYMid meet" version="1.0"><defs><g/><clipPath id="df757a6f2e"><path d="M 0.078125 0 L 256.421875 0 L 256.421875 210 L 0.078125 210 Z M 0.078125 0 " clip-rule="nonzero"/></clipPath></defs><path fill="#5f7dfe" d="M 109.058594 53.085938 C 44.160156 90.574219 0.117188 135.757812 10.640625 154.015625 C 21.160156 172.273438 82.34375 156.6875 147.234375 119.203125 C 212.125 81.714844 256.210938 36.554688 245.664062 18.277344 C 235.113281 0 173.960938 15.609375 109.058594 53.085938 Z M 146.820312 118.472656 C 89.855469 151.375 35.335938 163.578125 25 145.722656 C 14.660156 127.863281 52.511719 86.703125 109.480469 53.816406 C 166.445312 20.925781 220.988281 8.714844 231.304688 26.558594 C 241.617188 44.402344 203.792969 85.574219 146.820312 118.472656 Z M 146.820312 118.472656 " fill-opacity="1" fill-rule="nonzero"/><path fill="#5f7dfe" d="M 147.503906 80.59375 C 86.105469 35.378906 25.984375 12.726562 13.285156 30.003906 C 0.585938 47.28125 40.019531 97.949219 101.441406 143.164062 C 162.863281 188.378906 222.960938 211.03125 235.65625 193.75 C 248.355469 176.46875 208.917969 125.808594 147.503906 80.59375 Z M 101.96875 142.46875 C 48.035156 102.777344 14.394531 56.90625 26.855469 40.007812 C 39.316406 23.113281 93.082031 41.589844 146.992188 81.292969 C 200.902344 120.996094 234.53125 166.84375 222.089844 183.738281 C 209.648438 200.636719 155.859375 182.160156 101.96875 142.46875 Z M 101.96875 142.46875 " fill-opacity="1" fill-rule="nonzero"/><path fill="#5f7dfe" d="M 88.734375 30.367188 C 88.734375 30.367188 88.308594 47.089844 103.554688 46.242188 C 103.554688 46.242188 88.945312 46.035156 88.324219 61.0625 C 88.324219 61.0625 88.125 47.09375 74.457031 46.054688 L 74.140625 46.054688 C 74.140625 46.054688 87.886719 45.597656 88.734375 30.367188 Z M 88.734375 30.367188 " fill-opacity="1" fill-rule="nonzero"/><path fill="#5f7dfe" d="M 136.664062 138.882812 C 136.664062 138.882812 136.023438 164.164062 159.066406 162.882812 C 159.066406 162.882812 136.984375 162.566406 136.023438 185.285156 C 136.023438 185.285156 135.71875 164.167969 115.082031 162.597656 L 114.605469 162.566406 C 114.605469 162.566406 135.386719 161.921875 136.664062 138.882812 Z M 136.664062 138.882812 " fill-opacity="1" fill-rule="nonzero"/><g clip-path="url(#df757a6f2e)"><path stroke-linecap="butt" transform="matrix(0.996782, 0, 0, 0.996782, 36.968058, 41.210048)" fill="none" stroke-linejoin="miter" d="M 10.565941 30.2976 L 27.554199 30.2976 L 18.30569 73.424654 L 34.204505 73.424654 L 32.868174 80.000501 L 0.000694509 80.000501 Z M 65.508359 57.298545 L 85.784541 57.298545 L 81.234744 80.000501 L 72.005829 80.000501 L 70.516662 74.992198 L 70.210991 74.992198 C 68.847228 76.559742 67.240495 77.892155 65.394712 78.985517 C 63.54501 80.082797 61.130992 80.631438 58.152659 80.631438 C 55.860125 80.631438 53.653807 80.255227 51.541542 79.502806 C 49.425357 78.738628 47.544304 77.535538 45.902302 75.893536 C 44.2603 74.247615 42.939644 72.096161 41.948172 69.431336 C 40.952782 66.77043 40.455087 63.560884 40.455087 59.802697 C 40.455087 55.738839 41.082104 51.878762 42.328302 48.222465 C 43.590175 44.566169 45.471228 41.340947 47.967541 38.554638 C 50.475612 35.764409 53.6107 33.558091 57.368887 31.939602 C 61.127073 30.325032 65.508359 29.513828 70.516662 29.513828 C 74.376739 29.513828 77.739121 29.960578 80.603808 30.850159 C 83.48417 31.731902 86.203859 32.719455 88.762874 33.812817 L 85.784541 49.006237 L 72.558388 49.006237 C 72.609333 48.430165 72.68771 47.756121 72.789601 46.980187 C 72.891491 46.188577 72.96595 45.369535 73.016895 44.515224 C 73.06784 43.649156 73.118785 42.802682 73.16973 41.971884 C 73.236351 41.133248 73.267702 40.400421 73.267702 39.777322 C 73.267702 39.354085 73.236351 38.872065 73.16973 38.323425 C 73.118785 37.774784 72.993382 37.24182 72.789601 36.716692 C 72.58582 36.195484 72.272311 35.768328 71.852993 35.439144 C 71.433675 35.094284 70.83409 34.921854 70.058155 34.921854 C 68.694392 34.921854 67.452113 35.482251 66.33132 36.603045 C 65.210526 37.723839 64.203379 39.216925 63.309878 41.074465 C 62.432054 42.924167 61.660038 45.016838 60.997751 47.360316 C 60.34722 49.707713 59.802499 52.094299 59.355749 54.527911 C 58.920755 56.949767 58.583733 59.324596 58.340764 61.656318 C 58.11347 63.972364 57.999823 65.994496 57.999823 67.714875 C 57.999823 68.236084 58.023336 68.890533 58.074281 69.682143 C 58.125227 70.458077 58.289819 71.230093 58.571977 71.99427 C 58.865891 72.746691 59.285209 73.393303 59.83385 73.941944 C 60.38249 74.490584 61.178019 74.764904 62.220435 74.764904 C 63.940815 74.764904 65.610249 73.828297 67.228738 71.955082 C 68.847228 70.07011 70.073831 66.935022 70.916386 62.553737 L 64.344457 62.553737 Z M 129.683611 80.000501 L 111.378616 80.000501 L 102.682665 44.076311 L 95.021294 80.000501 L 87.971265 80.000501 L 98.536511 30.2976 L 117.245149 30.2976 L 125.462999 66.69989 L 133.202747 30.2976 L 140.405612 30.2976 Z M 168.813428 61.217405 L 164.82011 80.000501 L 147.851446 80.000501 L 152.150435 59.877155 L 144.46947 30.2976 L 163.27216 30.2976 L 168.586134 49.942845 L 180.319201 30.2976 L 188.783939 30.2976 Z M 168.813428 61.217405 " stroke="#0d0d55" stroke-width="15.557137" stroke-opacity="1" stroke-miterlimit="4"/></g><g fill="#ee82ee" fill-opacity="1"><g transform="translate(36.968058, 120.952625)"><g><path d="M 10.53125 -49.546875 L 27.46875 -49.546875 L 18.25 -6.546875 L 34.09375 -6.546875 L 32.765625 0 L 0 0 Z M 10.53125 -49.546875 "/></g></g></g><g fill="#ee82ee" fill-opacity="1"><g transform="translate(74.570715, 120.952625)"><g><path d="M 27.703125 -22.625 L 47.90625 -22.625 L 43.375 0 L 34.171875 0 L 32.6875 -5 L 32.375 -5 C 31.019531 -3.4375 29.421875 -2.109375 27.578125 -1.015625 C 25.734375 0.078125 23.328125 0.625 20.359375 0.625 C 18.066406 0.625 15.867188 0.25 13.765625 -0.5 C 11.660156 -1.257812 9.785156 -2.457031 8.140625 -4.09375 C 6.503906 -5.726562 5.191406 -7.875 4.203125 -10.53125 C 3.222656 -13.1875 2.734375 -16.382812 2.734375 -20.125 C 2.734375 -24.1875 3.351562 -28.035156 4.59375 -31.671875 C 5.84375 -35.316406 7.71875 -38.53125 10.21875 -41.3125 C 12.71875 -44.09375 15.835938 -46.285156 19.578125 -47.890625 C 23.328125 -49.503906 27.695312 -50.3125 32.6875 -50.3125 C 36.539062 -50.3125 39.894531 -49.867188 42.75 -48.984375 C 45.613281 -48.109375 48.316406 -47.125 50.859375 -46.03125 L 47.90625 -30.890625 L 34.71875 -30.890625 C 34.769531 -31.460938 34.847656 -32.140625 34.953125 -32.921875 C 35.054688 -33.703125 35.132812 -34.519531 35.1875 -35.375 C 35.238281 -36.238281 35.289062 -37.082031 35.34375 -37.90625 C 35.394531 -38.738281 35.421875 -39.46875 35.421875 -40.09375 C 35.421875 -40.507812 35.394531 -40.988281 35.34375 -41.53125 C 35.289062 -42.082031 35.160156 -42.617188 34.953125 -43.140625 C 34.742188 -43.660156 34.429688 -44.085938 34.015625 -44.421875 C 33.597656 -44.765625 33 -44.9375 32.21875 -44.9375 C 30.863281 -44.9375 29.628906 -44.375 28.515625 -43.25 C 27.398438 -42.132812 26.398438 -40.65625 25.515625 -38.8125 C 24.628906 -36.96875 23.859375 -34.875 23.203125 -32.53125 C 22.554688 -30.1875 22.007812 -27.804688 21.5625 -25.390625 C 21.125 -22.972656 20.785156 -20.609375 20.546875 -18.296875 C 20.316406 -15.984375 20.203125 -13.96875 20.203125 -12.25 C 20.203125 -11.726562 20.226562 -11.078125 20.28125 -10.296875 C 20.332031 -9.515625 20.5 -8.742188 20.78125 -7.984375 C 21.070312 -7.234375 21.488281 -6.585938 22.03125 -6.046875 C 22.582031 -5.503906 23.378906 -5.234375 24.421875 -5.234375 C 26.140625 -5.234375 27.800781 -6.164062 29.40625 -8.03125 C 31.019531 -9.90625 32.242188 -13.023438 33.078125 -17.390625 L 26.53125 -17.390625 Z M 27.703125 -22.625 "/></g></g></g><g fill="#ee82ee" fill-opacity="1"><g transform="translate(124.655585, 120.952625)"><g><path d="M 41.578125 0 L 23.328125 0 L 14.671875 -35.8125 L 7.015625 0 L 0 0 L 10.53125 -49.546875 L 29.171875 -49.546875 L 37.375 -13.265625 L 45.09375 -49.546875 L 52.265625 -49.546875 Z M 41.578125 0 "/></g></g></g><g fill="#ee82ee" fill-opacity="1"><g transform="translate(174.896489, 120.952625)"><g><path d="M 30.34375 -18.71875 L 26.375 0 L 9.4375 0 L 13.734375 -20.046875 L 6.078125 -49.546875 L 24.8125 -49.546875 L 30.109375 -29.953125 L 41.8125 -49.546875 L 50.234375 -49.546875 Z M 30.34375 -18.71875 "/></g></g></g><path fill="#0d0d55" d="M 33.222656 132.402344 L 215.238281 132.402344 L 215.238281 172.382812 L 33.222656 172.382812 L 33.222656 132.402344 " fill-opacity="1" fill-rule="nonzero"/><g fill="#ee82ee" fill-opacity="1"><g transform="translate(38.727953, 161.537565)"><g><path d="M 2.140625 -17.484375 L 8.859375 -17.484375 L 9.328125 -5.5625 L 13.9375 -17.484375 L 19.375 -17.484375 L 20.09375 -5.5625 L 24.71875 -17.484375 L 27.609375 -17.484375 L 20.8125 0 L 14.625 0 L 14.046875 -9.890625 L 9.90625 0 L 3.296875 0 Z M 2.140625 -17.484375 "/></g></g></g><g fill="#ee82ee" fill-opacity="1"><g transform="translate(64.718122, 161.537565)"><g><path d="M 3.71875 -17.484375 L 15.3125 -17.484375 L 14.859375 -15.390625 L 9.25 -15.390625 L 8.09375 -10.078125 L 12.796875 -10.078125 L 12.359375 -8.015625 L 7.65625 -8.015625 L 6.390625 -2.125 L 12 -2.125 L 11.59375 0 L 0 0 Z M 3.71875 -17.484375 "/></g></g></g><g fill="#ee82ee" fill-opacity="1"><g transform="translate(78.566696, 161.537565)"><g><path d="M 16.875 -13.484375 C 16.875 -12.953125 16.796875 -12.472656 16.640625 -12.046875 C 16.484375 -11.628906 16.265625 -11.253906 15.984375 -10.921875 C 15.710938 -10.597656 15.394531 -10.304688 15.03125 -10.046875 C 14.664062 -9.785156 14.265625 -9.546875 13.828125 -9.328125 C 14.023438 -9.253906 14.257812 -9.140625 14.53125 -8.984375 C 14.8125 -8.828125 15.078125 -8.609375 15.328125 -8.328125 C 15.585938 -8.054688 15.804688 -7.707031 15.984375 -7.28125 C 16.160156 -6.851562 16.25 -6.328125 16.25 -5.703125 C 16.25 -4.867188 16.070312 -4.101562 15.71875 -3.40625 C 15.375 -2.71875 14.851562 -2.117188 14.15625 -1.609375 C 13.46875 -1.109375 12.625 -0.710938 11.625 -0.421875 C 10.625 -0.140625 9.472656 0 8.171875 0 L 0 0 L 3.71875 -17.484375 L 10.953125 -17.484375 C 11.671875 -17.484375 12.382812 -17.429688 13.09375 -17.328125 C 13.800781 -17.222656 14.429688 -17.023438 14.984375 -16.734375 C 15.546875 -16.441406 16 -16.035156 16.34375 -15.515625 C 16.695312 -14.992188 16.875 -14.316406 16.875 -13.484375 Z M 9.390625 -10.15625 C 9.796875 -10.15625 10.140625 -10.273438 10.421875 -10.515625 C 10.703125 -10.753906 10.929688 -11.050781 11.109375 -11.40625 C 11.296875 -11.769531 11.4375 -12.15625 11.53125 -12.5625 C 11.625 -12.976562 11.671875 -13.351562 11.671875 -13.6875 C 11.671875 -14.21875 11.546875 -14.671875 11.296875 -15.046875 C 11.054688 -15.421875 10.664062 -15.609375 10.125 -15.609375 L 9.3125 -15.609375 L 8.125 -10.15625 Z M 7.40625 -1.734375 C 7.957031 -1.734375 8.414062 -1.890625 8.78125 -2.203125 C 9.144531 -2.515625 9.445312 -2.898438 9.6875 -3.359375 C 9.925781 -3.816406 10.097656 -4.296875 10.203125 -4.796875 C 10.304688 -5.304688 10.359375 -5.753906 10.359375 -6.140625 C 10.359375 -6.785156 10.222656 -7.296875 9.953125 -7.671875 C 9.679688 -8.046875 9.253906 -8.234375 8.671875 -8.234375 L 7.65625 -8.234375 L 6.296875 -1.734375 Z M 7.40625 -1.734375 "/></g></g></g><g fill="#ee82ee" fill-opacity="1"><g transform="translate(95.691572, 161.537565)"><g/></g></g><g fill="#ee82ee" fill-opacity="1"><g transform="translate(100.950177, 161.537565)"><g><path d="M 0 0 L 3.71875 -17.484375 L 11.125 -17.484375 C 12.257812 -17.484375 13.253906 -17.367188 14.109375 -17.140625 C 14.960938 -16.910156 15.664062 -16.53125 16.21875 -16 C 16.78125 -15.46875 17.203125 -14.769531 17.484375 -13.90625 C 17.773438 -13.039062 17.921875 -11.984375 17.921875 -10.734375 C 17.921875 -9.398438 17.75 -8.085938 17.40625 -6.796875 C 17.070312 -5.515625 16.507812 -4.367188 15.71875 -3.359375 C 14.925781 -2.347656 13.890625 -1.535156 12.609375 -0.921875 C 11.335938 -0.304688 9.769531 0 7.90625 0 Z M 7.546875 -1.921875 C 8.148438 -1.921875 8.6875 -2.171875 9.15625 -2.671875 C 9.625 -3.179688 10.023438 -3.828125 10.359375 -4.609375 C 10.703125 -5.390625 10.988281 -6.253906 11.21875 -7.203125 C 11.445312 -8.148438 11.628906 -9.0625 11.765625 -9.9375 C 11.898438 -10.820312 12 -11.613281 12.0625 -12.3125 C 12.132812 -13.007812 12.171875 -13.503906 12.171875 -13.796875 C 12.171875 -14.359375 12.054688 -14.800781 11.828125 -15.125 C 11.597656 -15.445312 11.195312 -15.609375 10.625 -15.609375 L 9.3125 -15.609375 L 6.359375 -1.921875 Z M 7.546875 -1.921875 "/></g></g></g><g fill="#ee82ee" fill-opacity="1"><g transform="translate(119.176333, 161.537565)"><g><path d="M 3.71875 -17.484375 L 15.3125 -17.484375 L 14.859375 -15.390625 L 9.25 -15.390625 L 8.09375 -10.078125 L 12.796875 -10.078125 L 12.359375 -8.015625 L 7.65625 -8.015625 L 6.390625 -2.125 L 12 -2.125 L 11.59375 0 L 0 0 Z M 3.71875 -17.484375 "/></g></g></g><g fill="#ee82ee" fill-opacity="1"><g transform="translate(133.024912, 161.537565)"><g><path d="M 10.84375 -12.421875 C 10.90625 -12.691406 10.9375 -13.066406 10.9375 -13.546875 C 10.9375 -13.816406 10.914062 -14.082031 10.875 -14.34375 C 10.832031 -14.613281 10.765625 -14.851562 10.671875 -15.0625 C 10.585938 -15.28125 10.453125 -15.445312 10.265625 -15.5625 C 10.085938 -15.6875 9.847656 -15.75 9.546875 -15.75 C 9.222656 -15.75 8.921875 -15.675781 8.640625 -15.53125 C 8.367188 -15.382812 8.125 -15.195312 7.90625 -14.96875 C 7.695312 -14.738281 7.53125 -14.46875 7.40625 -14.15625 C 7.289062 -13.851562 7.234375 -13.539062 7.234375 -13.21875 C 7.234375 -12.738281 7.359375 -12.367188 7.609375 -12.109375 C 7.859375 -11.859375 8.1875 -11.648438 8.59375 -11.484375 C 9 -11.316406 9.457031 -11.175781 9.96875 -11.0625 C 10.476562 -10.957031 11.007812 -10.832031 11.5625 -10.6875 C 12.019531 -10.550781 12.476562 -10.382812 12.9375 -10.1875 C 13.394531 -9.988281 13.800781 -9.71875 14.15625 -9.375 C 14.519531 -9.03125 14.8125 -8.585938 15.03125 -8.046875 C 15.25 -7.503906 15.359375 -6.832031 15.359375 -6.03125 C 15.359375 -4.875 15.128906 -3.898438 14.671875 -3.109375 C 14.210938 -2.316406 13.578125 -1.671875 12.765625 -1.171875 C 11.960938 -0.679688 11.003906 -0.328125 9.890625 -0.109375 C 8.785156 0.109375 7.582031 0.21875 6.28125 0.21875 C 4.957031 0.21875 3.878906 0.132812 3.046875 -0.03125 C 2.210938 -0.207031 1.554688 -0.398438 1.078125 -0.609375 C 0.503906 -0.847656 0.0820312 -1.125 -0.1875 -1.4375 L 0.75 -5.203125 L 5.59375 -5.203125 C 5.570312 -5.035156 5.550781 -4.8125 5.53125 -4.53125 C 5.507812 -4.25 5.5 -4.023438 5.5 -3.859375 C 5.5 -3.640625 5.523438 -3.410156 5.578125 -3.171875 C 5.640625 -2.929688 5.726562 -2.707031 5.84375 -2.5 C 5.96875 -2.300781 6.140625 -2.132812 6.359375 -2 C 6.578125 -1.875 6.851562 -1.8125 7.1875 -1.8125 C 7.550781 -1.8125 7.875 -1.894531 8.15625 -2.0625 C 8.445312 -2.226562 8.6875 -2.4375 8.875 -2.6875 C 9.070312 -2.9375 9.21875 -3.210938 9.3125 -3.515625 C 9.414062 -3.816406 9.46875 -4.113281 9.46875 -4.40625 C 9.46875 -4.8125 9.367188 -5.148438 9.171875 -5.421875 C 8.984375 -5.703125 8.722656 -5.9375 8.390625 -6.125 C 8.066406 -6.320312 7.6875 -6.488281 7.25 -6.625 C 6.820312 -6.757812 6.378906 -6.898438 5.921875 -7.046875 C 5.484375 -7.171875 5.019531 -7.328125 4.53125 -7.515625 C 4.039062 -7.703125 3.59375 -7.957031 3.1875 -8.28125 C 2.789062 -8.613281 2.457031 -9.03125 2.1875 -9.53125 C 1.925781 -10.039062 1.796875 -10.691406 1.796875 -11.484375 C 1.796875 -12.660156 2.09375 -13.644531 2.6875 -14.4375 C 3.28125 -15.238281 4.03125 -15.882812 4.9375 -16.375 C 5.84375 -16.875 6.835938 -17.226562 7.921875 -17.4375 C 9.003906 -17.644531 10.035156 -17.75 11.015625 -17.75 C 12.296875 -17.75 13.398438 -17.597656 14.328125 -17.296875 C 15.253906 -16.992188 15.957031 -16.644531 16.4375 -16.25 L 15.421875 -12.421875 Z M 10.84375 -12.421875 "/></g></g></g><g fill="#ee82ee" fill-opacity="1"><g transform="translate(149.186173, 161.537565)"><g><path d="M 9.78125 -7.984375 L 16.90625 -7.984375 L 15.3125 0 L 12.0625 0 L 11.53125 -1.765625 L 11.421875 -1.765625 C 10.941406 -1.210938 10.375 -0.742188 9.71875 -0.359375 C 9.070312 0.0234375 8.226562 0.21875 7.1875 0.21875 C 6.375 0.21875 5.597656 0.0859375 4.859375 -0.171875 C 4.117188 -0.441406 3.457031 -0.863281 2.875 -1.4375 C 2.300781 -2.019531 1.835938 -2.78125 1.484375 -3.71875 C 1.140625 -4.65625 0.96875 -5.785156 0.96875 -7.109375 C 0.96875 -8.535156 1.1875 -9.890625 1.625 -11.171875 C 2.0625 -12.460938 2.71875 -13.597656 3.59375 -14.578125 C 4.476562 -15.554688 5.582031 -16.328125 6.90625 -16.890625 C 8.226562 -17.460938 9.769531 -17.75 11.53125 -17.75 C 12.894531 -17.75 14.078125 -17.59375 15.078125 -17.28125 C 16.085938 -16.976562 17.046875 -16.632812 17.953125 -16.25 L 16.90625 -10.90625 L 12.25 -10.90625 C 12.269531 -11.101562 12.296875 -11.335938 12.328125 -11.609375 C 12.367188 -11.890625 12.394531 -12.179688 12.40625 -12.484375 C 12.425781 -12.785156 12.445312 -13.082031 12.46875 -13.375 C 12.488281 -13.675781 12.5 -13.9375 12.5 -14.15625 C 12.5 -14.300781 12.488281 -14.46875 12.46875 -14.65625 C 12.445312 -14.851562 12.398438 -15.039062 12.328125 -15.21875 C 12.253906 -15.40625 12.144531 -15.554688 12 -15.671875 C 11.851562 -15.796875 11.644531 -15.859375 11.375 -15.859375 C 10.894531 -15.859375 10.457031 -15.660156 10.0625 -15.265625 C 9.664062 -14.867188 9.3125 -14.34375 9 -13.6875 C 8.6875 -13.039062 8.414062 -12.300781 8.1875 -11.46875 C 7.957031 -10.644531 7.765625 -9.804688 7.609375 -8.953125 C 7.453125 -8.109375 7.332031 -7.273438 7.25 -6.453125 C 7.164062 -5.640625 7.125 -4.929688 7.125 -4.328125 C 7.125 -4.140625 7.132812 -3.90625 7.15625 -3.625 C 7.175781 -3.351562 7.234375 -3.082031 7.328125 -2.8125 C 7.429688 -2.550781 7.578125 -2.320312 7.765625 -2.125 C 7.960938 -1.9375 8.25 -1.84375 8.625 -1.84375 C 9.226562 -1.84375 9.8125 -2.171875 10.375 -2.828125 C 10.945312 -3.492188 11.378906 -4.597656 11.671875 -6.140625 L 9.359375 -6.140625 Z M 9.78125 -7.984375 "/></g></g></g><g fill="#ee82ee" fill-opacity="1"><g transform="translate(166.861687, 161.537565)"><g><path d="M 5.953125 0 L 0 0 L 3.71875 -17.484375 L 9.6875 -17.484375 Z M 5.953125 0 "/></g></g></g><g fill="#ee82ee" fill-opacity="1"><g transform="translate(175.837108, 161.537565)"><g><path d="M 14.671875 0 L 8.234375 0 L 5.171875 -12.640625 L 2.484375 0 L 0 0 L 3.71875 -17.484375 L 10.296875 -17.484375 L 13.1875 -4.6875 L 15.90625 -17.484375 L 18.453125 -17.484375 Z M 14.671875 0 "/></g></g></g><g fill="#ee82ee" fill-opacity="1"><g transform="translate(193.567683, 161.537565)"><g><path d="M 10.84375 -12.421875 C 10.90625 -12.691406 10.9375 -13.066406 10.9375 -13.546875 C 10.9375 -13.816406 10.914062 -14.082031 10.875 -14.34375 C 10.832031 -14.613281 10.765625 -14.851562 10.671875 -15.0625 C 10.585938 -15.28125 10.453125 -15.445312 10.265625 -15.5625 C 10.085938 -15.6875 9.847656 -15.75 9.546875 -15.75 C 9.222656 -15.75 8.921875 -15.675781 8.640625 -15.53125 C 8.367188 -15.382812 8.125 -15.195312 7.90625 -14.96875 C 7.695312 -14.738281 7.53125 -14.46875 7.40625 -14.15625 C 7.289062 -13.851562 7.234375 -13.539062 7.234375 -13.21875 C 7.234375 -12.738281 7.359375 -12.367188 7.609375 -12.109375 C 7.859375 -11.859375 8.1875 -11.648438 8.59375 -11.484375 C 9 -11.316406 9.457031 -11.175781 9.96875 -11.0625 C 10.476562 -10.957031 11.007812 -10.832031 11.5625 -10.6875 C 12.019531 -10.550781 12.476562 -10.382812 12.9375 -10.1875 C 13.394531 -9.988281 13.800781 -9.71875 14.15625 -9.375 C 14.519531 -9.03125 14.8125 -8.585938 15.03125 -8.046875 C 15.25 -7.503906 15.359375 -6.832031 15.359375 -6.03125 C 15.359375 -4.875 15.128906 -3.898438 14.671875 -3.109375 C 14.210938 -2.316406 13.578125 -1.671875 12.765625 -1.171875 C 11.960938 -0.679688 11.003906 -0.328125 9.890625 -0.109375 C 8.785156 0.109375 7.582031 0.21875 6.28125 0.21875 C 4.957031 0.21875 3.878906 0.132812 3.046875 -0.03125 C 2.210938 -0.207031 1.554688 -0.398438 1.078125 -0.609375 C 0.503906 -0.847656 0.0820312 -1.125 -0.1875 -1.4375 L 0.75 -5.203125 L 5.59375 -5.203125 C 5.570312 -5.035156 5.550781 -4.8125 5.53125 -4.53125 C 5.507812 -4.25 5.5 -4.023438 5.5 -3.859375 C 5.5 -3.640625 5.523438 -3.410156 5.578125 -3.171875 C 5.640625 -2.929688 5.726562 -2.707031 5.84375 -2.5 C 5.96875 -2.300781 6.140625 -2.132812 6.359375 -2 C 6.578125 -1.875 6.851562 -1.8125 7.1875 -1.8125 C 7.550781 -1.8125 7.875 -1.894531 8.15625 -2.0625 C 8.445312 -2.226562 8.6875 -2.4375 8.875 -2.6875 C 9.070312 -2.9375 9.21875 -3.210938 9.3125 -3.515625 C 9.414062 -3.816406 9.46875 -4.113281 9.46875 -4.40625 C 9.46875 -4.8125 9.367188 -5.148438 9.171875 -5.421875 C 8.984375 -5.703125 8.722656 -5.9375 8.390625 -6.125 C 8.066406 -6.320312 7.6875 -6.488281 7.25 -6.625 C 6.820312 -6.757812 6.378906 -6.898438 5.921875 -7.046875 C 5.484375 -7.171875 5.019531 -7.328125 4.53125 -7.515625 C 4.039062 -7.703125 3.59375 -7.957031 3.1875 -8.28125 C 2.789062 -8.613281 2.457031 -9.03125 2.1875 -9.53125 C 1.925781 -10.039062 1.796875 -10.691406 1.796875 -11.484375 C 1.796875 -12.660156 2.09375 -13.644531 2.6875 -14.4375 C 3.28125 -15.238281 4.03125 -15.882812 4.9375 -16.375 C 5.84375 -16.875 6.835938 -17.226562 7.921875 -17.4375 C 9.003906 -17.644531 10.035156 -17.75 11.015625 -17.75 C 12.296875 -17.75 13.398438 -17.597656 14.328125 -17.296875 C 15.253906 -16.992188 15.957031 -16.644531 16.4375 -16.25 L 15.421875 -12.421875 Z M 10.84375 -12.421875 "/></g></g></g><path stroke-linecap="butt" transform="matrix(0.996782, 0, 0, 0.996782, 36.968058, 41.210048)" fill="none" stroke-linejoin="miter" d="M 10.565941 30.2976 L 27.554199 30.2976 L 18.30569 73.424654 L 34.204505 73.424654 L 32.868174 80.000501 L 0.000694509 80.000501 Z M 65.508359 57.298545 L 85.784541 57.298545 L 81.234744 80.000501 L 72.005829 80.000501 L 70.516662 74.992198 L 70.210991 74.992198 C 68.847228 76.559742 67.240495 77.892155 65.394712 78.985517 C 63.54501 80.082797 61.130992 80.631438 58.152659 80.631438 C 55.860125 80.631438 53.653807 80.255227 51.541542 79.502806 C 49.425357 78.738628 47.544304 77.535538 45.902302 75.893536 C 44.2603 74.247615 42.939644 72.096161 41.948172 69.431336 C 40.952782 66.77043 40.455087 63.560884 40.455087 59.802697 C 40.455087 55.738839 41.082104 51.878762 42.328302 48.222465 C 43.590175 44.566169 45.471228 41.340947 47.967541 38.554638 C 50.475612 35.764409 53.6107 33.558091 57.368887 31.939602 C 61.127073 30.325032 65.508359 29.513828 70.516662 29.513828 C 74.376739 29.513828 77.739121 29.960578 80.603808 30.850159 C 83.48417 31.731902 86.203859 32.719455 88.762874 33.812817 L 85.784541 49.006237 L 72.558388 49.006237 C 72.609333 48.430165 72.68771 47.756121 72.789601 46.980187 C 72.891491 46.188577 72.96595 45.369535 73.016895 44.515224 C 73.06784 43.649156 73.118785 42.802682 73.16973 41.971884 C 73.236351 41.133248 73.267702 40.400421 73.267702 39.777322 C 73.267702 39.354085 73.236351 38.872065 73.16973 38.323425 C 73.118785 37.774784 72.993382 37.24182 72.789601 36.716692 C 72.58582 36.195484 72.272311 35.768328 71.852993 35.439144 C 71.433675 35.094284 70.83409 34.921854 70.058155 34.921854 C 68.694392 34.921854 67.452113 35.482251 66.33132 36.603045 C 65.210526 37.723839 64.203379 39.216925 63.309878 41.074465 C 62.432054 42.924167 61.660038 45.016838 60.997751 47.360316 C 60.34722 49.707713 59.802499 52.094299 59.355749 54.527911 C 58.920755 56.949767 58.583733 59.324596 58.340764 61.656318 C 58.11347 63.972364 57.999823 65.994496 57.999823 67.714875 C 57.999823 68.236084 58.023336 68.890533 58.074281 69.682143 C 58.125227 70.458077 58.289819 71.230093 58.571977 71.99427 C 58.865891 72.746691 59.285209 73.393303 59.83385 73.941944 C 60.38249 74.490584 61.178019 74.764904 62.220435 74.764904 C 63.940815 74.764904 65.610249 73.828297 67.228738 71.955082 C 68.847228 70.07011 70.073831 66.935022 70.916386 62.553737 L 64.344457 62.553737 Z M 129.683611 80.000501 L 111.378616 80.000501 L 102.682665 44.076311 L 95.021294 80.000501 L 87.971265 80.000501 L 98.536511 30.2976 L 117.245149 30.2976 L 125.462999 66.69989 L 133.202747 30.2976 L 140.405612 30.2976 Z M 168.813428 61.217405 L 164.82011 80.000501 L 147.851446 80.000501 L 152.150435 59.877155 L 144.46947 30.2976 L 163.27216 30.2976 L 168.586134 49.942845 L 180.319201 30.2976 L 188.783939 30.2976 Z M 168.813428 61.217405 " stroke="#e7f65d" stroke-width="0.978436" stroke-opacity="1" stroke-miterlimit="4"/><path stroke-linecap="butt" transform="matrix(0.351776, 0, 0, 0.351776, 29.081606, 133.395513)" fill="none" stroke-linejoin="miter" d="M 33.514225 30.301059 L 52.62486 30.301059 L 53.96849 64.191622 L 67.038344 30.301059 L 82.528952 30.301059 L 84.561053 64.191622 L 97.708637 30.301059 L 105.925877 30.301059 L 86.604259 80.004258 L 68.98161 80.004258 L 67.338162 51.91018 L 55.611938 80.004258 L 36.82333 80.004258 Z M 111.86672 30.301059 L 144.813411 30.301059 L 143.569721 36.241902 L 127.601624 36.241902 L 124.314728 51.354961 L 137.706609 51.354961 L 136.44071 57.218073 L 123.071038 57.218073 L 119.462115 73.985684 L 135.430211 73.985684 L 134.253147 80.004258 L 101.306456 80.004258 Z M 188.653498 41.649734 C 188.653498 43.159929 188.43141 44.525768 187.987235 45.713936 C 187.54306 46.913209 186.921215 47.990334 186.132804 48.934206 C 185.355497 49.866974 184.444938 50.710907 183.401127 51.432691 C 182.357315 52.154476 181.213564 52.831843 179.958769 53.453688 C 180.536197 53.675776 181.213564 54.008907 181.990871 54.453082 C 182.779282 54.886153 183.534379 55.496894 184.256164 56.285305 C 185.000157 57.062611 185.610898 58.07311 186.110595 59.305696 C 186.610292 60.527177 186.854588 62.026269 186.854588 63.791865 C 186.854588 66.134889 186.365996 68.300242 185.366602 70.287926 C 184.378312 72.27561 182.90143 73.996789 180.935955 75.429254 C 178.981584 76.861718 176.583038 77.983261 173.729213 78.79388 C 170.886492 79.593396 167.621805 80.004258 163.924047 80.004258 L 140.671478 80.004258 L 151.242846 30.301059 L 171.81926 30.301059 C 173.862466 30.301059 175.872358 30.445416 177.882251 30.73413 C 179.892143 31.022844 181.691052 31.578063 183.290083 32.421995 C 184.878009 33.243719 186.166117 34.409679 187.165511 35.897666 C 188.153801 37.385653 188.653498 39.30671 188.653498 41.649734 Z M 167.366404 51.121769 C 168.510155 51.121769 169.48734 50.788637 170.286856 50.11127 C 171.10858 49.422799 171.774842 48.567762 172.296748 47.557263 C 172.818654 46.53566 173.207307 45.436327 173.462708 44.270367 C 173.729213 43.093303 173.862466 42.038387 173.862466 41.094515 C 173.862466 39.595424 173.507125 38.307316 172.796445 37.230191 C 172.096869 36.164171 170.986432 35.631161 169.465132 35.631161 L 167.122108 35.631161 L 163.757481 51.121769 Z M 161.72538 75.073913 C 163.302202 75.073913 164.601414 74.629738 165.645225 73.752492 C 166.689037 72.864142 167.555179 71.764809 168.232546 70.465596 C 168.898808 69.15528 169.376297 67.778337 169.66501 66.356976 C 169.953724 64.913407 170.098081 63.647508 170.098081 62.548174 C 170.098081 60.715952 169.720532 59.272383 168.95433 58.195258 C 168.199232 57.129238 166.988855 56.596227 165.323198 56.596227 L 162.43606 56.596227 L 158.593945 75.073913 Z M 204.299567 80.004258 L 214.870936 30.301059 L 235.924837 30.301059 C 239.167316 30.301059 241.987828 30.623086 244.408583 31.26714 C 246.840442 31.922298 248.861438 32.999423 250.449365 34.520723 C 252.037291 36.042023 253.236564 38.018602 254.047183 40.483774 C 254.846698 42.926737 255.246456 45.92492 255.246456 49.478321 C 255.246456 53.287123 254.757863 57.029298 253.791783 60.682639 C 252.836806 64.324875 251.237775 67.589562 248.994691 70.465596 C 246.751607 73.330526 243.820051 75.640237 240.188919 77.383624 C 236.557787 79.127012 232.082722 80.004258 226.774829 80.004258 Z M 225.742122 74.518694 C 227.463301 74.518694 228.984601 73.79691 230.306022 72.375549 C 231.649652 70.93198 232.804507 69.110862 233.770588 66.889986 C 234.736669 64.680215 235.547289 62.226147 236.191342 59.538888 C 236.846501 56.851628 237.368407 54.253204 237.75706 51.754718 C 238.156817 49.245129 238.445531 47.002044 238.623201 45.014361 C 238.800871 43.026677 238.889706 41.616421 238.889706 40.783592 C 238.889706 39.173457 238.567679 37.907558 237.912521 37.008104 C 237.268467 36.08644 236.135821 35.631161 234.514581 35.631161 L 230.750197 35.631161 L 222.377496 74.518694 Z M 266.683966 30.301059 L 299.619553 30.301059 L 298.386967 36.241902 L 282.407766 36.241902 L 279.12087 51.354961 L 292.512751 51.354961 L 291.257956 57.218073 L 277.87718 57.218073 L 274.268257 73.985684 L 290.247457 73.985684 L 289.059289 80.004258 L 256.112598 80.004258 Z M 326.325583 44.703438 C 326.481045 43.915027 326.547671 42.849007 326.547671 41.494273 C 326.547671 40.705862 326.503253 39.93966 326.403314 39.184562 C 326.303375 38.429464 326.1146 37.752097 325.848095 37.152461 C 325.592694 36.54172 325.204041 36.075336 324.682135 35.742205 C 324.16023 35.397969 323.471758 35.231403 322.63893 35.231403 C 321.706162 35.231403 320.851125 35.442386 320.051609 35.853248 C 319.274303 36.275215 318.585831 36.819329 317.975091 37.463383 C 317.375454 38.118542 316.897966 38.873639 316.55373 39.739781 C 316.231703 40.594818 316.065138 41.494273 316.065138 42.42704 C 316.065138 43.781775 316.409373 44.825586 317.108949 45.56958 C 317.830734 46.291364 318.752397 46.891001 319.907253 47.357385 C 321.051004 47.834873 322.350216 48.223526 323.804889 48.545553 C 325.270667 48.856476 326.780863 49.211816 328.34658 49.633782 C 329.656897 49.989122 330.967214 50.466611 332.266426 51.055143 C 333.576743 51.621466 334.742702 52.398772 335.742096 53.364853 C 336.763699 54.31983 337.585423 55.56352 338.207268 57.107029 C 338.851322 58.650538 339.162245 60.571595 339.162245 62.859097 C 339.162245 66.145993 338.507087 68.910983 337.19677 71.154068 C 335.897558 73.397152 334.098648 75.21827 331.788938 76.639631 C 329.490331 78.038783 326.769758 79.060385 323.605011 79.693335 C 320.462471 80.31518 317.031218 80.626103 313.33346 80.626103 C 309.569076 80.626103 306.504268 80.381806 304.116826 79.882109 C 301.751594 79.393517 299.886058 78.849402 298.542428 78.283079 C 296.921189 77.605712 295.721916 76.817301 294.922401 75.928951 L 297.598556 65.213225 L 311.356881 65.213225 C 311.312464 65.679609 311.256942 66.323663 311.212524 67.134283 C 311.157002 67.944902 311.134793 68.577852 311.134793 69.05534 C 311.134793 69.677185 311.212524 70.321239 311.356881 70.998606 C 311.523447 71.675974 311.778847 72.297819 312.111979 72.875246 C 312.44511 73.44157 312.933703 73.919058 313.555548 74.285503 C 314.188498 74.651947 314.965804 74.840721 315.909676 74.840721 C 316.953488 74.840721 317.875151 74.60753 318.674667 74.130041 C 319.496391 73.663657 320.173758 73.075125 320.728977 72.375549 C 321.273091 71.664869 321.683953 70.876458 321.961563 70.021421 C 322.261381 69.15528 322.405738 68.311347 322.405738 67.478518 C 322.405738 66.334767 322.128128 65.379791 321.584014 64.602484 C 321.039899 63.802969 320.295906 63.136706 319.352034 62.592592 C 318.419266 62.048477 317.331037 61.570989 316.098451 61.182336 C 314.876969 60.782578 313.61107 60.371716 312.311858 59.94975 C 311.057063 59.59441 309.735642 59.161339 308.347594 58.639433 C 306.970652 58.117527 305.704752 57.384638 304.561001 56.440766 C 303.41725 55.496894 302.451169 54.308725 301.696072 52.887365 C 300.940974 51.443796 300.563425 49.600469 300.563425 47.357385 C 300.563425 44.026071 301.407358 41.216663 303.106328 38.95137 C 304.805298 36.674972 306.937338 34.831645 309.524659 33.432494 C 312.111979 32.022238 314.943595 31.011739 318.008404 30.412103 C 321.095421 29.812466 324.015873 29.512648 326.780863 29.512648 C 330.434203 29.512648 333.587847 29.945719 336.219585 30.81186 C 338.862427 31.666898 340.850111 32.666292 342.204845 33.810043 L 339.317706 44.703438 Z M 369.210693 57.295803 L 389.487289 57.295803 L 384.934493 80.004258 L 375.706755 80.004258 L 374.218768 74.996183 L 373.907846 74.996183 C 372.542007 76.5619 370.942976 77.894426 369.088545 78.982655 C 367.245218 80.081988 364.835568 80.626103 361.84849 80.626103 C 359.560988 80.626103 357.351217 80.259658 355.241385 79.50456 C 353.120449 78.738358 351.243809 77.539085 349.600361 75.895637 C 347.956913 74.252189 346.635492 72.09794 345.647202 69.432889 C 344.647808 66.767838 344.159215 63.558673 344.159215 59.805393 C 344.159215 55.74119 344.781061 51.876867 346.024751 48.223526 C 347.29065 44.570185 349.16729 41.338811 351.665775 38.551612 C 354.175365 35.764413 357.3068 33.554642 361.071184 31.944507 C 364.824464 30.323268 369.210693 29.512648 374.218768 29.512648 C 378.071988 29.512648 381.436614 29.956823 384.301544 30.856278 C 387.188682 31.733524 389.898151 32.721814 392.463262 33.810043 L 389.487289 49.000833 L 376.261974 49.000833 C 376.306391 48.434509 376.384122 47.757142 376.484061 46.979836 C 376.595105 46.191425 376.661731 45.369701 376.717253 44.514664 C 376.772775 43.648522 376.817193 42.804589 376.872715 41.971761 C 376.939341 41.127828 376.96155 40.394939 376.96155 39.773094 C 376.96155 39.351128 376.939341 38.873639 376.872715 38.31842 C 376.817193 37.774306 376.695045 37.241296 376.484061 36.71939 C 376.284183 36.197484 375.97326 35.764413 375.551294 35.442386 C 375.129327 35.098151 374.529691 34.920481 373.752384 34.920481 C 372.39765 34.920481 371.15396 35.486804 370.032417 36.608346 C 368.910875 37.729888 367.900377 39.217875 367.012026 41.072306 C 366.134781 42.926737 365.357474 45.014361 364.702316 47.357385 C 364.047157 49.711513 363.503043 52.098954 363.058868 54.530813 C 362.625797 56.951568 362.281561 59.327905 362.037265 61.659824 C 361.815177 63.969535 361.693029 65.990532 361.693029 67.71171 C 361.693029 68.233616 361.726342 68.888775 361.77076 69.677185 C 361.826282 70.454492 361.992847 71.231798 362.270457 71.998001 C 362.559171 72.741994 362.981137 73.397152 363.536356 73.941267 C 364.08047 74.485381 364.879986 74.762991 365.923797 74.762991 C 367.644976 74.762991 369.310633 73.830223 370.931872 71.953583 C 372.542007 70.065839 373.774593 66.934404 374.618526 62.548174 L 368.044734 62.548174 Z M 408.58682 80.004258 L 391.674851 80.004258 L 402.235115 30.301059 L 419.224814 30.301059 Z M 458.900759 80.004258 L 440.589639 80.004258 L 431.89491 44.070488 L 424.232889 80.004258 L 417.181609 80.004258 L 427.752977 30.301059 L 446.463855 30.301059 L 454.681095 66.701212 L 462.420847 30.301059 L 469.616484 30.301059 Z M 498.432347 44.703438 C 498.587808 43.915027 498.654434 42.849007 498.654434 41.494273 C 498.654434 40.705862 498.610017 39.93966 498.510077 39.184562 C 498.399034 38.429464 498.221364 37.752097 497.954859 37.152461 C 497.699458 36.54172 497.310805 36.075336 496.788899 35.742205 C 496.266993 35.397969 495.578522 35.231403 494.745693 35.231403 C 493.812925 35.231403 492.946784 35.442386 492.158373 35.853248 C 491.381066 36.275215 490.692595 36.819329 490.081854 37.463383 C 489.482218 38.118542 489.004729 38.873639 488.660494 39.739781 C 488.338467 40.594818 488.171901 41.494273 488.171901 42.42704 C 488.171901 43.781775 488.516137 44.825586 489.215713 45.56958 C 489.937497 46.291364 490.859161 46.891001 492.014016 47.357385 C 493.157767 47.834873 494.456979 48.223526 495.911653 48.545553 C 497.377431 48.856476 498.887626 49.211816 500.453344 49.633782 C 501.76366 49.989122 503.073977 50.466611 504.373189 51.055143 C 505.683506 51.621466 506.849466 52.398772 507.84886 53.364853 C 508.870463 54.31983 509.692187 55.56352 510.314032 57.107029 C 510.946981 58.650538 511.269008 60.571595 511.269008 62.859097 C 511.269008 66.145993 510.61385 68.910983 509.303533 71.154068 C 508.004321 73.397152 506.205412 75.21827 503.895701 76.639631 C 501.597095 78.038783 498.876522 79.060385 495.711774 79.693335 C 492.569235 80.31518 489.137982 80.626103 485.440224 80.626103 C 481.67584 80.626103 478.611031 80.381806 476.22359 79.882109 C 473.858357 79.393517 471.992821 78.849402 470.649192 78.283079 C 469.027952 77.605712 467.82868 76.817301 467.029164 75.928951 L 469.705319 65.213225 L 483.463645 65.213225 C 483.419227 65.679609 483.363705 66.323663 483.319288 67.134283 C 483.263766 67.944902 483.241557 68.577852 483.241557 69.05534 C 483.241557 69.677185 483.319288 70.321239 483.463645 70.998606 C 483.63021 71.675974 483.885611 72.297819 484.207638 72.875246 C 484.551874 73.44157 485.040466 73.919058 485.662311 74.285503 C 486.284157 74.651947 487.072568 74.840721 488.01644 74.840721 C 489.060251 74.840721 489.981915 74.60753 490.78143 74.130041 C 491.603154 73.663657 492.280521 73.075125 492.83574 72.375549 C 493.379855 71.664869 493.790717 70.876458 494.068326 70.021421 C 494.368144 69.15528 494.512501 68.311347 494.512501 67.478518 C 494.512501 66.334767 494.234892 65.379791 493.690777 64.602484 C 493.146663 63.802969 492.402669 63.136706 491.458797 62.592592 C 490.526029 62.048477 489.4378 61.570989 488.205214 61.182336 C 486.983733 60.782578 485.717833 60.371716 484.418621 59.94975 C 483.163826 59.59441 481.842405 59.161339 480.443254 58.639433 C 479.077415 58.117527 477.811516 57.384638 476.667765 56.440766 C 475.512909 55.496894 474.557933 54.308725 473.802835 52.887365 C 473.047737 51.443796 472.670189 49.600469 472.670189 47.357385 C 472.670189 44.026071 473.514121 41.216663 475.213091 38.95137 C 476.912061 36.674972 479.044102 34.831645 481.631422 33.432494 C 484.218742 32.022238 487.050359 31.011739 490.115167 30.412103 C 493.202185 29.812466 496.122636 29.512648 498.887626 29.512648 C 502.540967 29.512648 505.69461 29.945719 508.326348 30.81186 C 510.96919 31.666898 512.956874 32.666292 514.311608 33.810043 L 511.42447 44.703438 Z M 498.432347 44.703438 " stroke="#e7f65d" stroke-width="0.978436" stroke-opacity="1" stroke-miterlimit="4"/></svg>