<svg width="754" height="187" viewBox="0 0 754 187" fill="none" xmlns="http://www.w3.org/2000/svg">
<path d="M175.678 183C175.678 183 136.419 166.706 138.049 165.5C139.68 164.294 146.868 158.294 146.868 153.5C146.868 148.706 146.868 35.5 146.868 35.5C146.623 30.5268 145.88 28.2628 143.607 25L175.678 5C183.851 7.19548 184.012 10.5707 186.549 15.5V167C184.613 175.843 182.343 179.47 175.678 183Z" fill="#181818"/>
<rect x="5" y="5" width="177" height="177" rx="15" fill="black" stroke="black" stroke-width="10"/>
<path d="M43.032 74V28.624H54.488V74H43.032ZM52.12 74V64.144H74.008V74H52.12Z" fill="white"/>
<path d="M4 178.678C4 178.678 20.2936 139.419 21.5 141.049C22.7064 142.68 28.7064 149.868 33.5 149.868C38.2936 149.868 151.5 149.868 151.5 149.868C156.473 149.623 158.737 148.88 162 146.607L180 182C175.5 187 173 187 168 187H17.5C10 185 8 183.5 4 178.678Z" fill="#1A1A1A"/>
<line x1="158.042" y1="143.558" x2="182.042" y2="177.558" stroke="black" stroke-width="5"/>
<line x1="24.2123" y1="139.164" x2="4.2123" y2="177.164" stroke="black" stroke-width="5"/>
<rect x="18" width="151" height="151" rx="20" fill="#313131"/>
<path d="M42.032 81V35.624H53.488V81H42.032ZM51.12 81V71.144H73.008V81H51.12Z" fill="white"/>
<path d="M364.678 183C364.678 183 325.419 166.706 327.049 165.5C328.68 164.294 335.868 158.294 335.868 153.5C335.868 148.706 335.868 35.5 335.868 35.5C335.623 30.5268 334.88 28.2628 332.607 25L364.678 5C372.851 7.19548 373.012 10.5707 375.549 15.5V167C373.613 175.843 371.343 179.47 364.678 183Z" fill="#181818"/>
<rect x="194" y="5" width="177" height="177" rx="15" fill="black" stroke="black" stroke-width="10"/>
<path d="M232.032 74V28.624H243.488V74H232.032ZM241.12 74V64.144H263.008V74H241.12Z" fill="white"/>
<path d="M193 178.678C193 178.678 209.294 139.419 210.5 141.049C211.706 142.68 217.706 149.868 222.5 149.868C227.294 149.868 340.5 149.868 340.5 149.868C345.473 149.623 347.737 148.88 351 146.607L369 182C364.5 187 362 187 357 187H206.5C199 185 197 183.5 193 178.678Z" fill="#1A1A1A"/>
<line x1="347.042" y1="143.558" x2="371.042" y2="177.558" stroke="black" stroke-width="5"/>
<line x1="213.212" y1="139.164" x2="193.212" y2="177.164" stroke="black" stroke-width="5"/>
<rect x="207" width="151" height="151" rx="20" fill="#313131"/>
<path d="M252.984 81.704C249.528 81.704 246.328 81.128 243.384 79.976C240.483 78.7813 237.923 77.1173 235.704 74.984C233.528 72.8507 231.821 70.376 230.584 67.56C229.389 64.7013 228.792 61.608 228.792 58.28C228.792 54.9093 229.411 51.816 230.648 49C231.928 46.1413 233.699 43.6667 235.96 41.576C238.221 39.4427 240.845 37.8 243.832 36.648C246.861 35.4533 250.083 34.856 253.496 34.856C257.549 34.856 261.219 35.5813 264.504 37.032C267.789 38.44 270.456 40.4027 272.504 42.92L264.824 50.6C263.288 48.7653 261.603 47.4 259.768 46.504C257.933 45.5653 255.8 45.096 253.368 45.096C250.893 45.096 248.675 45.6507 246.712 46.76C244.792 47.8267 243.256 49.3413 242.104 51.304C240.952 53.2667 240.376 55.5707 240.376 58.216C240.376 60.8613 240.909 63.1867 241.976 65.192C243.085 67.1973 244.579 68.7547 246.456 69.864C248.376 70.9733 250.573 71.528 253.048 71.528C255.523 71.528 257.613 71.0587 259.32 70.12C261.069 69.1813 262.392 67.816 263.288 66.024C264.227 64.232 264.696 62.0987 264.696 59.624L272.44 64.616L251.768 64.104V54.76H276.216V56.488C276.216 61.9067 275.235 66.4933 273.272 70.248C271.309 74.0027 268.579 76.8613 265.08 78.824C261.624 80.744 257.592 81.704 252.984 81.704Z" fill="white"/>
<path d="M553.678 183C553.678 183 514.419 166.706 516.049 165.5C517.68 164.294 524.868 158.294 524.868 153.5C524.868 148.706 524.868 35.5 524.868 35.5C524.623 30.5268 523.88 28.2628 521.607 25L553.678 5C561.851 7.19548 562.012 10.5707 564.549 15.5V167C562.613 175.843 560.343 179.47 553.678 183Z" fill="#181818"/>
<rect x="383" y="5" width="177" height="177" rx="15" fill="black" stroke="black" stroke-width="10"/>
<path d="M421.032 74V28.624H432.488V74H421.032ZM430.12 74V64.144H452.008V74H430.12Z" fill="white"/>
<path d="M382 178.678C382 178.678 398.294 139.419 399.5 141.049C400.706 142.68 406.706 149.868 411.5 149.868C416.294 149.868 529.5 149.868 529.5 149.868C534.473 149.623 536.737 148.88 540 146.607L558 182C553.5 187 551 187 546 187H395.5C388 185 386 183.5 382 178.678Z" fill="#1A1A1A"/>
<line x1="536.042" y1="143.558" x2="560.042" y2="177.558" stroke="black" stroke-width="5"/>
<line x1="402.212" y1="139.164" x2="382.212" y2="177.164" stroke="black" stroke-width="5"/>
<rect x="396" width="151" height="151" rx="20" fill="#313131"/>
<path d="M420.032 81V35.624H428.032L431.488 44.904V81H420.032ZM451.328 81L424.832 47.336L428.032 35.624L454.592 69.288L451.328 81ZM451.328 81L448.384 71.464V35.624H459.84V81H451.328Z" fill="white"/>
<path d="M742.678 183C742.678 183 703.419 166.706 705.049 165.5C706.68 164.294 713.868 158.294 713.868 153.5C713.868 148.706 713.868 35.5 713.868 35.5C713.623 30.5268 712.88 28.2628 710.607 25L742.678 5C750.851 7.19548 751.012 10.5707 753.549 15.5V167C751.613 175.843 749.343 179.47 742.678 183Z" fill="#181818"/>
<rect x="572" y="5" width="177" height="177" rx="15" fill="black" stroke="black" stroke-width="10"/>
<path d="M610.032 74V28.624H621.488V74H610.032ZM619.12 74V64.144H641.008V74H619.12Z" fill="white"/>
<path d="M571 178.678C571 178.678 587.294 139.419 588.5 141.049C589.706 142.68 595.706 149.868 600.5 149.868C605.294 149.868 718.5 149.868 718.5 149.868C723.473 149.623 725.737 148.88 729 146.607L747 182C742.5 187 740 187 735 187H584.5C577 185 575 183.5 571 178.678Z" fill="#1A1A1A"/>
<line x1="725.042" y1="143.558" x2="749.042" y2="177.558" stroke="black" stroke-width="5"/>
<line x1="591.212" y1="139.164" x2="571.212" y2="177.164" stroke="black" stroke-width="5"/>
<rect x="585" width="151" height="151" rx="20" fill="#313131"/>
<path d="M622.92 64.744L605.576 35.624H618.696L631.944 59.24H622.728L635.976 35.624H648.84L631.368 64.744H622.92ZM621.576 81V60.072H633.032V81H621.576Z" fill="white"/>
</svg>
