<svg width="813" height="192" viewBox="0 0 813 192" fill="none" xmlns="http://www.w3.org/2000/svg">
<path d="M175.678 183C175.678 183 136.419 166.706 138.049 165.5C139.68 164.294 146.868 158.294 146.868 153.5C146.868 148.706 146.868 35.5 146.868 35.5C146.623 30.5268 145.88 28.2628 143.607 25L175.678 5C183.851 7.19548 184.012 10.5707 186.549 15.5V167C184.613 175.843 182.343 179.47 175.678 183Z" fill="#181818"/>
<rect x="5" y="5" width="177" height="177" rx="15" fill="black" stroke="black" stroke-width="10"/>
<path d="M43.032 74V28.624H54.488V74H43.032ZM52.12 74V64.144H74.008V74H52.12Z" fill="white"/>
<path d="M4 178.678C4 178.678 20.2936 139.419 21.5 141.049C22.7064 142.68 28.7064 149.868 33.5 149.868C38.2936 149.868 151.5 149.868 151.5 149.868C156.473 149.623 158.737 148.88 162 146.607L180 182C175.5 187 173 187 168 187H17.5C10 185 8 183.5 4 178.678Z" fill="#1A1A1A"/>
<line x1="158.042" y1="143.558" x2="182.042" y2="177.558" stroke="black" stroke-width="5"/>
<line x1="24.2123" y1="139.164" x2="4.2123" y2="177.164" stroke="black" stroke-width="5"/>
<rect x="18" width="151" height="151" rx="20" fill="#313131"/>
<path d="M42.032 81V35.624H53.488V81H42.032ZM51.12 81V71.144H73.008V81H51.12Z" fill="white"/>
<path d="M384.678 188C384.678 188 345.419 171.706 347.049 170.5C348.68 169.294 355.868 163.294 355.868 158.5C355.868 153.706 355.868 40.5 355.868 40.5C355.623 35.5268 354.88 33.2628 352.607 30L384.678 10C392.851 12.1955 393.012 15.5707 395.549 20.5V172C393.613 180.843 391.343 184.47 384.678 188Z" fill="#181818"/>
<rect x="214" y="10" width="177" height="177" rx="15" fill="black" stroke="black" stroke-width="10"/>
<path d="M252.032 79V33.624H263.488V79H252.032ZM261.12 79V69.144H283.008V79H261.12Z" fill="white"/>
<path d="M213 183.678C213 183.678 229.294 144.419 230.5 146.049C231.706 147.68 237.706 154.868 242.5 154.868C247.294 154.868 360.5 154.868 360.5 154.868C365.473 154.623 367.737 153.88 371 151.607L389 187C384.5 192 382 192 377 192H226.5C219 190 217 188.5 213 183.678Z" fill="#1A1A1A"/>
<line x1="367.042" y1="148.558" x2="391.042" y2="182.558" stroke="black" stroke-width="5"/>
<line x1="233.212" y1="144.164" x2="213.212" y2="182.164" stroke="black" stroke-width="5"/>
<rect x="227" y="5" width="151" height="151" rx="20" fill="#313131"/>
<path d="M272.984 86.704C269.528 86.704 266.328 86.128 263.384 84.976C260.483 83.7813 257.923 82.1173 255.704 79.984C253.528 77.8507 251.821 75.376 250.584 72.56C249.389 69.7013 248.792 66.608 248.792 63.28C248.792 59.9093 249.411 56.816 250.648 54C251.928 51.1413 253.699 48.6667 255.96 46.576C258.221 44.4427 260.845 42.8 263.832 41.648C266.861 40.4533 270.083 39.856 273.496 39.856C277.549 39.856 281.219 40.5813 284.504 42.032C287.789 43.44 290.456 45.4027 292.504 47.92L284.824 55.6C283.288 53.7653 281.603 52.4 279.768 51.504C277.933 50.5653 275.8 50.096 273.368 50.096C270.893 50.096 268.675 50.6507 266.712 51.76C264.792 52.8267 263.256 54.3413 262.104 56.304C260.952 58.2667 260.376 60.5707 260.376 63.216C260.376 65.8613 260.909 68.1867 261.976 70.192C263.085 72.1973 264.579 73.7547 266.456 74.864C268.376 75.9733 270.573 76.528 273.048 76.528C275.523 76.528 277.613 76.0587 279.32 75.12C281.069 74.1813 282.392 72.816 283.288 71.024C284.227 69.232 284.696 67.0987 284.696 64.624L292.44 69.616L271.768 69.104V59.76H296.216V61.488C296.216 66.9067 295.235 71.4933 293.272 75.248C291.309 79.0027 288.579 81.8613 285.08 83.824C281.624 85.744 277.592 86.704 272.984 86.704Z" fill="white"/>
<path d="M594.678 188C594.678 188 555.419 171.706 557.049 170.5C558.68 169.294 565.868 163.294 565.868 158.5C565.868 153.706 565.868 40.5 565.868 40.5C565.623 35.5268 564.88 33.2628 562.607 30L594.678 10C602.851 12.1955 603.012 15.5707 605.549 20.5V172C603.613 180.843 601.343 184.47 594.678 188Z" fill="#181818"/>
<rect x="424" y="10" width="177" height="177" rx="15" fill="black" stroke="black" stroke-width="10"/>
<path d="M462.032 79V33.624H473.488V79H462.032ZM471.12 79V69.144H493.008V79H471.12Z" fill="white"/>
<path d="M423 183.678C423 183.678 439.294 144.419 440.5 146.049C441.706 147.68 447.706 154.868 452.5 154.868C457.294 154.868 570.5 154.868 570.5 154.868C575.473 154.623 577.737 153.88 581 151.607L599 187C594.5 192 592 192 587 192H436.5C429 190 427 188.5 423 183.678Z" fill="#1A1A1A"/>
<line x1="577.042" y1="148.558" x2="601.042" y2="182.558" stroke="black" stroke-width="5"/>
<line x1="443.212" y1="144.164" x2="423.212" y2="182.164" stroke="black" stroke-width="5"/>
<rect x="437" y="5" width="151" height="151" rx="20" fill="#313131"/>
<path d="M461.032 86V40.624H469.032L472.488 49.904V86H461.032ZM492.328 86L465.832 52.336L469.032 40.624L495.592 74.288L492.328 86ZM492.328 86L489.384 76.464V40.624H500.84V86H492.328Z" fill="white"/>
<path d="M801.678 188C801.678 188 762.419 171.706 764.049 170.5C765.68 169.294 772.868 163.294 772.868 158.5C772.868 153.706 772.868 40.5 772.868 40.5C772.623 35.5268 771.88 33.2628 769.607 30L801.678 10C809.851 12.1955 810.012 15.5707 812.549 20.5V172C810.613 180.843 808.343 184.47 801.678 188Z" fill="#181818"/>
<rect x="631" y="10" width="177" height="177" rx="15" fill="black" stroke="black" stroke-width="10"/>
<path d="M669.032 79V33.624H680.488V79H669.032ZM678.12 79V69.144H700.008V79H678.12Z" fill="white"/>
<path d="M630 183.678C630 183.678 646.294 144.419 647.5 146.049C648.706 147.68 654.706 154.868 659.5 154.868C664.294 154.868 777.5 154.868 777.5 154.868C782.473 154.623 784.737 153.88 788 151.607L806 187C801.5 192 799 192 794 192H643.5C636 190 634 188.5 630 183.678Z" fill="#1A1A1A"/>
<line x1="784.042" y1="148.558" x2="808.042" y2="182.558" stroke="black" stroke-width="5"/>
<line x1="650.212" y1="144.164" x2="630.212" y2="182.164" stroke="black" stroke-width="5"/>
<rect x="644" y="5" width="151" height="151" rx="20" fill="#313131"/>
<path d="M681.92 69.744L664.576 40.624H677.696L690.944 64.24H681.728L694.976 40.624H707.84L690.368 69.744H681.92ZM680.576 86V65.072H692.032V86H680.576Z" fill="white"/>
</svg>
