<svg width="766" height="187" viewBox="0 0 766 187" fill="none" xmlns="http://www.w3.org/2000/svg">
<rect x="5" y="5" width="177" height="177" rx="15" fill="black" stroke="black" stroke-width="10"/>
<rect x="18" width="151" height="151" rx="20" fill="#313131"/>
<line y1="-2.5" x2="37.7359" y2="-2.5" transform="matrix(-0.529999 0.847998 -0.921727 -0.38784 22 144)" stroke="#313131" stroke-width="5"/>
<line y1="-2.5" x2="37.7359" y2="-2.5" transform="matrix(0.529999 0.847998 0.921727 -0.38784 164 144)" stroke="#313131" stroke-width="5"/>
<rect x="198" y="5" width="177" height="177" rx="15" fill="black" stroke="black" stroke-width="10"/>
<rect x="211" width="151" height="151" rx="20" fill="#313131"/>
<line y1="-2.5" x2="37.7359" y2="-2.5" transform="matrix(-0.529999 0.847998 -0.921727 -0.38784 215 144)" stroke="#313131" stroke-width="5"/>
<line y1="-2.5" x2="37.7359" y2="-2.5" transform="matrix(0.529999 0.847998 0.921727 -0.38784 357 144)" stroke="#313131" stroke-width="5"/>
<rect x="391" y="5" width="177" height="177" rx="15" fill="black" stroke="black" stroke-width="10"/>
<rect x="404" width="151" height="151" rx="20" fill="#313131"/>
<line y1="-2.5" x2="37.7359" y2="-2.5" transform="matrix(-0.529999 0.847998 -0.921727 -0.38784 408 144)" stroke="#313131" stroke-width="5"/>
<line y1="-2.5" x2="37.7359" y2="-2.5" transform="matrix(0.529999 0.847998 0.921727 -0.38784 550 144)" stroke="#313131" stroke-width="5"/>
<rect x="584" y="5" width="177" height="177" rx="15" fill="black" stroke="black" stroke-width="10"/>
<rect x="597" width="151" height="151" rx="20" fill="#313131"/>
<line y1="-2.5" x2="37.7359" y2="-2.5" transform="matrix(-0.529999 0.847998 -0.921727 -0.38784 601 144)" stroke="#313131" stroke-width="5"/>
<line y1="-2.5" x2="37.7359" y2="-2.5" transform="matrix(0.529999 0.847998 0.921727 -0.38784 743 144)" stroke="#313131" stroke-width="5"/>
<path d="M43.032 74V28.624H54.488V74H43.032ZM52.12 74V64.144H74.008V74H52.12Z" fill="white"/>
<path d="M258.984 76.704C255.528 76.704 252.328 76.128 249.384 74.976C246.483 73.7813 243.923 72.1173 241.704 69.984C239.528 67.8507 237.821 65.376 236.584 62.56C235.389 59.7013 234.792 56.608 234.792 53.28C234.792 49.9093 235.411 46.816 236.648 44C237.928 41.1413 239.699 38.6667 241.96 36.576C244.221 34.4427 246.845 32.8 249.832 31.648C252.861 30.4533 256.083 29.856 259.496 29.856C263.549 29.856 267.219 30.5813 270.504 32.032C273.789 33.44 276.456 35.4027 278.504 37.92L270.824 45.6C269.288 43.7653 267.603 42.4 265.768 41.504C263.933 40.5653 261.8 40.096 259.368 40.096C256.893 40.096 254.675 40.6507 252.712 41.76C250.792 42.8267 249.256 44.3413 248.104 46.304C246.952 48.2667 246.376 50.5707 246.376 53.216C246.376 55.8613 246.909 58.1867 247.976 60.192C249.085 62.1973 250.579 63.7547 252.456 64.864C254.376 65.9733 256.573 66.528 259.048 66.528C261.523 66.528 263.613 66.0587 265.32 65.12C267.069 64.1813 268.392 62.816 269.288 61.024C270.227 59.232 270.696 57.0987 270.696 54.624L278.44 59.616L257.768 59.104V49.76H282.216V51.488C282.216 56.9067 281.235 61.4933 279.272 65.248C277.309 69.0027 274.579 71.8613 271.08 73.824C267.624 75.744 263.592 76.704 258.984 76.704Z" fill="white"/>
<path d="M430.032 74V28.624H438.032L441.488 37.904V74H430.032ZM461.328 74L434.832 40.336L438.032 28.624L464.592 62.288L461.328 74ZM461.328 74L458.384 64.464V28.624H469.84V74H461.328Z" fill="white"/>
<path d="M636.92 59.744L619.576 30.624H632.696L645.944 54.24H636.728L649.976 30.624H662.84L645.368 59.744H636.92ZM635.576 76V55.072H647.032V76H635.576Z" fill="white"/>
</svg>
