<svg xmlns="http://www.w3.org/2000/svg" xmlns:xlink="http://www.w3.org/1999/xlink" width="111" zoomAndPan="magnify" viewBox="0 0 83.25 104.249996" height="139" preserveAspectRatio="xMidYMid meet" version="1.0"><defs><g/></defs><g fill="#be47ff" fill-opacity="1"><g transform="translate(12.883918, 70.459811)"><g><path d="M 2.203125 -44.03125 L 4.71875 -44.03125 L 4.71875 0 L 2.203125 0 Z M 2.203125 -44.03125 "/></g></g></g><g fill="#be47ff" fill-opacity="1"><g transform="translate(19.803165, 70.459811)"><g><path d="M 5.65625 6.296875 C 4.363281 6.296875 3.484375 6.1875 3.015625 5.96875 C 2.554688 5.757812 2.304688 5.242188 2.265625 4.421875 C 2.222656 3.609375 2.203125 2.320312 2.203125 0.5625 L 2.203125 -1.0625 L 4.71875 -1.0625 L 4.71875 1 C 4.71875 1.96875 4.726562 2.671875 4.75 3.109375 C 4.769531 3.554688 4.914062 3.832031 5.1875 3.9375 C 5.457031 4.039062 5.972656 4.09375 6.734375 4.09375 L 9.6875 4.09375 C 10.445312 4.09375 10.960938 4.03125 11.234375 3.90625 C 11.503906 3.78125 11.648438 3.492188 11.671875 3.046875 C 11.691406 2.609375 11.703125 1.882812 11.703125 0.875 L 11.703125 -3.90625 C 11.492188 -3.644531 11.1875 -3.484375 10.78125 -3.421875 C 10.382812 -3.359375 9.851562 -3.328125 9.1875 -3.328125 L 5.21875 -3.328125 C 4.082031 -3.328125 3.316406 -3.441406 2.921875 -3.671875 C 2.523438 -3.910156 2.316406 -4.476562 2.296875 -5.375 C 2.273438 -6.28125 2.265625 -7.71875 2.265625 -9.6875 L 2.265625 -31.578125 C 2.265625 -33.679688 2.273438 -35.210938 2.296875 -36.171875 C 2.316406 -37.140625 2.523438 -37.75 2.921875 -38 C 3.316406 -38.25 4.082031 -38.375 5.21875 -38.375 L 9.5625 -38.375 C 10.1875 -38.375 10.675781 -38.34375 11.03125 -38.28125 C 11.394531 -38.21875 11.660156 -38.039062 11.828125 -37.75 L 14.21875 -37.75 L 14.21875 0.4375 C 14.21875 2.238281 14.195312 3.554688 14.15625 4.390625 C 14.113281 5.234375 13.859375 5.757812 13.390625 5.96875 C 12.929688 6.1875 12.054688 6.296875 10.765625 6.296875 Z M 4.71875 -10.25 C 4.71875 -8.78125 4.726562 -7.710938 4.75 -7.046875 C 4.769531 -6.378906 4.925781 -5.957031 5.21875 -5.78125 C 5.507812 -5.613281 6.054688 -5.53125 6.859375 -5.53125 L 9.75 -5.53125 C 10.550781 -5.53125 11.066406 -5.625 11.296875 -5.8125 C 11.523438 -6.007812 11.660156 -6.503906 11.703125 -7.296875 L 11.703125 -35.109375 C 11.660156 -35.566406 11.503906 -35.859375 11.234375 -35.984375 C 10.960938 -36.109375 10.46875 -36.171875 9.75 -36.171875 L 6.796875 -36.171875 C 6.035156 -36.171875 5.519531 -36.085938 5.25 -35.921875 C 4.976562 -35.753906 4.832031 -35.351562 4.8125 -34.71875 C 4.789062 -34.09375 4.78125 -33.066406 4.78125 -31.640625 C 4.78125 -29.296875 4.78125 -27.410156 4.78125 -25.984375 C 4.78125 -24.554688 4.78125 -23.359375 4.78125 -22.390625 C 4.78125 -21.429688 4.769531 -20.46875 4.75 -19.5 C 4.726562 -18.539062 4.71875 -17.347656 4.71875 -15.921875 C 4.71875 -14.492188 4.71875 -12.601562 4.71875 -10.25 Z M 4.71875 -10.25 "/></g></g></g><g fill="#be47ff" fill-opacity="1"><g transform="translate(36.220651, 70.459811)"><g><path d="M 4.71875 -33.78125 L 4.71875 0 L 2.203125 0 L 2.203125 -37.75 L 4.46875 -37.75 C 4.675781 -38.039062 4.957031 -38.21875 5.3125 -38.28125 C 5.664062 -38.34375 6.179688 -38.375 6.859375 -38.375 L 11.265625 -38.375 C 12.390625 -38.375 13.148438 -38.25 13.546875 -38 C 13.953125 -37.75 14.164062 -37.148438 14.1875 -36.203125 C 14.207031 -35.265625 14.21875 -33.765625 14.21875 -31.703125 L 14.21875 0 L 11.703125 0 L 11.703125 -31.078125 C 11.703125 -32.628906 11.691406 -33.757812 11.671875 -34.46875 C 11.648438 -35.1875 11.503906 -35.640625 11.234375 -35.828125 C 10.960938 -36.015625 10.445312 -36.109375 9.6875 -36.109375 L 6.609375 -36.109375 C 5.804688 -36.109375 5.300781 -35.992188 5.09375 -35.765625 C 4.882812 -35.535156 4.757812 -34.875 4.71875 -33.78125 Z M 4.71875 -33.78125 "/></g></g></g><g fill="#be47ff" fill-opacity="1"><g transform="translate(52.638137, 70.459811)"><g><path d="M 11.703125 -3.96875 C 11.492188 -3.71875 11.1875 -3.554688 10.78125 -3.484375 C 10.382812 -3.421875 9.851562 -3.390625 9.1875 -3.390625 L 5.21875 -3.390625 C 4.082031 -3.390625 3.316406 -3.503906 2.921875 -3.734375 C 2.523438 -3.972656 2.316406 -4.539062 2.296875 -5.4375 C 2.273438 -6.34375 2.265625 -7.78125 2.265625 -9.75 L 2.265625 -37.8125 L 4.78125 -37.8125 C 4.78125 -32.738281 4.78125 -28.519531 4.78125 -25.15625 C 4.78125 -21.800781 4.78125 -19.140625 4.78125 -17.171875 C 4.78125 -15.203125 4.769531 -13.722656 4.75 -12.734375 C 4.726562 -11.753906 4.71875 -11.113281 4.71875 -10.8125 C 4.71875 -10.519531 4.71875 -10.375 4.71875 -10.375 C 4.71875 -10.375 4.71875 -10.351562 4.71875 -10.3125 C 4.71875 -8.84375 4.726562 -7.773438 4.75 -7.109375 C 4.769531 -6.441406 4.945312 -6.019531 5.28125 -5.84375 C 5.613281 -5.675781 6.222656 -5.59375 7.109375 -5.59375 L 9.75 -5.59375 C 10.550781 -5.59375 11.066406 -5.6875 11.296875 -5.875 C 11.523438 -6.070312 11.660156 -6.566406 11.703125 -7.359375 C 11.703125 -12.722656 11.703125 -17.546875 11.703125 -21.828125 C 11.703125 -26.109375 11.691406 -29.628906 11.671875 -32.390625 C 11.648438 -35.160156 11.640625 -36.945312 11.640625 -37.75 L 14.21875 -37.8125 L 14.21875 0.375 C 14.21875 2.175781 14.195312 3.492188 14.15625 4.328125 C 14.113281 5.171875 13.859375 5.695312 13.390625 5.90625 C 12.929688 6.125 12.054688 6.234375 10.765625 6.234375 L 5.65625 6.234375 C 4.363281 6.234375 3.484375 6.125 3.015625 5.90625 C 2.554688 5.695312 2.304688 5.179688 2.265625 4.359375 C 2.222656 3.546875 2.203125 2.257812 2.203125 0.5 L 2.203125 -1.125 L 4.71875 -1.125 L 4.71875 0.9375 C 4.71875 1.90625 4.726562 2.609375 4.75 3.046875 C 4.769531 3.492188 4.914062 3.769531 5.1875 3.875 C 5.457031 3.976562 5.972656 4.03125 6.734375 4.03125 L 9.6875 4.03125 C 10.445312 4.03125 10.960938 3.96875 11.234375 3.84375 C 11.503906 3.71875 11.648438 3.429688 11.671875 2.984375 C 11.691406 2.546875 11.703125 1.820312 11.703125 0.8125 Z M 11.703125 -3.96875 "/></g></g></g><g fill="#be47ff" fill-opacity="1"><g transform="translate(12.883918, 70.459811)"><g><path d="M 2.203125 -44.03125 L 4.71875 -44.03125 L 4.71875 0 L 2.203125 0 Z M 2.203125 -44.03125 "/></g></g></g><g fill="#be47ff" fill-opacity="1"><g transform="translate(19.803165, 70.459811)"><g><path d="M 5.65625 6.296875 C 4.363281 6.296875 3.484375 6.1875 3.015625 5.96875 C 2.554688 5.757812 2.304688 5.242188 2.265625 4.421875 C 2.222656 3.609375 2.203125 2.320312 2.203125 0.5625 L 2.203125 -1.0625 L 4.71875 -1.0625 L 4.71875 1 C 4.71875 1.96875 4.726562 2.671875 4.75 3.109375 C 4.769531 3.554688 4.914062 3.832031 5.1875 3.9375 C 5.457031 4.039062 5.972656 4.09375 6.734375 4.09375 L 9.6875 4.09375 C 10.445312 4.09375 10.960938 4.03125 11.234375 3.90625 C 11.503906 3.78125 11.648438 3.492188 11.671875 3.046875 C 11.691406 2.609375 11.703125 1.882812 11.703125 0.875 L 11.703125 -3.90625 C 11.492188 -3.644531 11.1875 -3.484375 10.78125 -3.421875 C 10.382812 -3.359375 9.851562 -3.328125 9.1875 -3.328125 L 5.21875 -3.328125 C 4.082031 -3.328125 3.316406 -3.441406 2.921875 -3.671875 C 2.523438 -3.910156 2.316406 -4.476562 2.296875 -5.375 C 2.273438 -6.28125 2.265625 -7.71875 2.265625 -9.6875 L 2.265625 -31.578125 C 2.265625 -33.679688 2.273438 -35.210938 2.296875 -36.171875 C 2.316406 -37.140625 2.523438 -37.75 2.921875 -38 C 3.316406 -38.25 4.082031 -38.375 5.21875 -38.375 L 9.5625 -38.375 C 10.1875 -38.375 10.675781 -38.34375 11.03125 -38.28125 C 11.394531 -38.21875 11.660156 -38.039062 11.828125 -37.75 L 14.21875 -37.75 L 14.21875 0.4375 C 14.21875 2.238281 14.195312 3.554688 14.15625 4.390625 C 14.113281 5.234375 13.859375 5.757812 13.390625 5.96875 C 12.929688 6.1875 12.054688 6.296875 10.765625 6.296875 Z M 4.71875 -10.25 C 4.71875 -8.78125 4.726562 -7.710938 4.75 -7.046875 C 4.769531 -6.378906 4.925781 -5.957031 5.21875 -5.78125 C 5.507812 -5.613281 6.054688 -5.53125 6.859375 -5.53125 L 9.75 -5.53125 C 10.550781 -5.53125 11.066406 -5.625 11.296875 -5.8125 C 11.523438 -6.007812 11.660156 -6.503906 11.703125 -7.296875 L 11.703125 -35.109375 C 11.660156 -35.566406 11.503906 -35.859375 11.234375 -35.984375 C 10.960938 -36.109375 10.46875 -36.171875 9.75 -36.171875 L 6.796875 -36.171875 C 6.035156 -36.171875 5.519531 -36.085938 5.25 -35.921875 C 4.976562 -35.753906 4.832031 -35.351562 4.8125 -34.71875 C 4.789062 -34.09375 4.78125 -33.066406 4.78125 -31.640625 C 4.78125 -29.296875 4.78125 -27.410156 4.78125 -25.984375 C 4.78125 -24.554688 4.78125 -23.359375 4.78125 -22.390625 C 4.78125 -21.429688 4.769531 -20.46875 4.75 -19.5 C 4.726562 -18.539062 4.71875 -17.347656 4.71875 -15.921875 C 4.71875 -14.492188 4.71875 -12.601562 4.71875 -10.25 Z M 4.71875 -10.25 "/></g></g></g><g fill="#be47ff" fill-opacity="1"><g transform="translate(36.220651, 70.459811)"><g><path d="M 4.71875 -33.78125 L 4.71875 0 L 2.203125 0 L 2.203125 -37.75 L 4.46875 -37.75 C 4.675781 -38.039062 4.957031 -38.21875 5.3125 -38.28125 C 5.664062 -38.34375 6.179688 -38.375 6.859375 -38.375 L 11.265625 -38.375 C 12.390625 -38.375 13.148438 -38.25 13.546875 -38 C 13.953125 -37.75 14.164062 -37.148438 14.1875 -36.203125 C 14.207031 -35.265625 14.21875 -33.765625 14.21875 -31.703125 L 14.21875 0 L 11.703125 0 L 11.703125 -31.078125 C 11.703125 -32.628906 11.691406 -33.757812 11.671875 -34.46875 C 11.648438 -35.1875 11.503906 -35.640625 11.234375 -35.828125 C 10.960938 -36.015625 10.445312 -36.109375 9.6875 -36.109375 L 6.609375 -36.109375 C 5.804688 -36.109375 5.300781 -35.992188 5.09375 -35.765625 C 4.882812 -35.535156 4.757812 -34.875 4.71875 -33.78125 Z M 4.71875 -33.78125 "/></g></g></g><g fill="#be47ff" fill-opacity="1"><g transform="translate(52.638137, 70.459811)"><g><path d="M 11.703125 -3.96875 C 11.492188 -3.71875 11.1875 -3.554688 10.78125 -3.484375 C 10.382812 -3.421875 9.851562 -3.390625 9.1875 -3.390625 L 5.21875 -3.390625 C 4.082031 -3.390625 3.316406 -3.503906 2.921875 -3.734375 C 2.523438 -3.972656 2.316406 -4.539062 2.296875 -5.4375 C 2.273438 -6.34375 2.265625 -7.78125 2.265625 -9.75 L 2.265625 -37.8125 L 4.78125 -37.8125 C 4.78125 -32.738281 4.78125 -28.519531 4.78125 -25.15625 C 4.78125 -21.800781 4.78125 -19.140625 4.78125 -17.171875 C 4.78125 -15.203125 4.769531 -13.722656 4.75 -12.734375 C 4.726562 -11.753906 4.71875 -11.113281 4.71875 -10.8125 C 4.71875 -10.519531 4.71875 -10.375 4.71875 -10.375 C 4.71875 -10.375 4.71875 -10.351562 4.71875 -10.3125 C 4.71875 -8.84375 4.726562 -7.773438 4.75 -7.109375 C 4.769531 -6.441406 4.945312 -6.019531 5.28125 -5.84375 C 5.613281 -5.675781 6.222656 -5.59375 7.109375 -5.59375 L 9.75 -5.59375 C 10.550781 -5.59375 11.066406 -5.6875 11.296875 -5.875 C 11.523438 -6.070312 11.660156 -6.566406 11.703125 -7.359375 C 11.703125 -12.722656 11.703125 -17.546875 11.703125 -21.828125 C 11.703125 -26.109375 11.691406 -29.628906 11.671875 -32.390625 C 11.648438 -35.160156 11.640625 -36.945312 11.640625 -37.75 L 14.21875 -37.8125 L 14.21875 0.375 C 14.21875 2.175781 14.195312 3.492188 14.15625 4.328125 C 14.113281 5.171875 13.859375 5.695312 13.390625 5.90625 C 12.929688 6.125 12.054688 6.234375 10.765625 6.234375 L 5.65625 6.234375 C 4.363281 6.234375 3.484375 6.125 3.015625 5.90625 C 2.554688 5.695312 2.304688 5.179688 2.265625 4.359375 C 2.222656 3.546875 2.203125 2.257812 2.203125 0.5 L 2.203125 -1.125 L 4.71875 -1.125 L 4.71875 0.9375 C 4.71875 1.90625 4.726562 2.609375 4.75 3.046875 C 4.769531 3.492188 4.914062 3.769531 5.1875 3.875 C 5.457031 3.976562 5.972656 4.03125 6.734375 4.03125 L 9.6875 4.03125 C 10.445312 4.03125 10.960938 3.96875 11.234375 3.84375 C 11.503906 3.71875 11.648438 3.429688 11.671875 2.984375 C 11.691406 2.546875 11.703125 1.820312 11.703125 0.8125 Z M 11.703125 -3.96875 "/></g></g></g></svg>