<svg xmlns="http://www.w3.org/2000/svg" xmlns:xlink="http://www.w3.org/1999/xlink" width="454" zoomAndPan="magnify" viewBox="0 0 340.5 237" height="316" preserveAspectRatio="xMidYMid meet" version="1.0"><defs><clipPath id="22c8619ad3"><path d="M 0 80.457031 L 340 80.457031 L 340 223 L 0 223 Z M 0 80.457031 " clip-rule="nonzero"/></clipPath><clipPath id="b9857e1ddc"><path d="M 14 162 L 326 162 L 326 236.226562 L 14 236.226562 Z M 14 162 " clip-rule="nonzero"/></clipPath><clipPath id="02ac573e7e"><path d="M 273 80.457031 L 303 80.457031 L 303 213 L 273 213 Z M 273 80.457031 " clip-rule="nonzero"/></clipPath><clipPath id="9e12958d5f"><path d="M 37 80.457031 L 67 80.457031 L 67 213 L 37 213 Z M 37 80.457031 " clip-rule="nonzero"/></clipPath><clipPath id="60178426eb"><path d="M 119.183594 0.171875 L 226 0.171875 L 226 198.632812 L 119.183594 198.632812 Z M 119.183594 0.171875 " clip-rule="nonzero"/></clipPath><clipPath id="7cb8378b8d"><path d="M 118.101562 41 L 120 41 L 120 53 L 118.101562 53 Z M 118.101562 41 " clip-rule="nonzero"/></clipPath><clipPath id="68822a73e5"><path d="M 118.101562 58 L 120 58 L 120 70 L 118.101562 70 Z M 118.101562 58 " clip-rule="nonzero"/></clipPath><clipPath id="866ca3ac4e"><path d="M 118.101562 26 L 120 26 L 120 34 L 118.101562 34 Z M 118.101562 26 " clip-rule="nonzero"/></clipPath><clipPath id="0bc9f708a9"><path d="M 225.191406 48 L 226.957031 48 L 226.957031 66 L 225.191406 66 Z M 225.191406 48 " clip-rule="nonzero"/></clipPath></defs><g clip-path="url(#22c8619ad3)"><path fill="#be47ff" d="M 166.070312 222.113281 C 156.234375 222.113281 146.351562 221.855469 136.4375 221.25 C 119.164062 220.207031 101.667969 218.515625 84.726562 216.882812 C 57.269531 214.222656 28.878906 211.472656 0.785156 211.445312 L 0 211.445312 L 0.210938 210.6875 C 5.816406 190.136719 11.800781 169.300781 18.027344 148.734375 C 21.441406 137.476562 24.269531 125.839844 27.003906 114.613281 C 29.707031 103.519531 32.488281 92.050781 35.84375 80.914062 L 35.980469 80.492188 L 36.433594 80.492188 C 61.320312 80.492188 86.632812 80.523438 111.097656 80.566406 C 153.179688 80.628906 196.683594 80.671875 239.496094 80.597656 C 244.496094 80.582031 249.511719 80.582031 254.515625 80.566406 C 270.5625 80.539062 287.15625 80.507812 303.472656 80.492188 L 303.929688 80.492188 L 304.0625 80.914062 C 307.417969 92.050781 310.214844 103.519531 312.902344 114.613281 C 315.640625 125.855469 318.464844 137.476562 321.878906 148.734375 C 328.105469 169.316406 334.105469 190.152344 339.695312 210.6875 L 339.90625 211.445312 L 339.121094 211.445312 C 312.691406 211.472656 285.976562 213.863281 258.671875 216.519531 C 228.960938 219.40625 197.773438 222.113281 166.070312 222.113281 Z M 1.585938 210.234375 C 29.464844 210.324219 57.617188 213.046875 84.847656 215.675781 C 101.773438 217.308594 119.269531 219 136.511719 220.042969 C 178.25 222.566406 219.683594 219.089844 258.550781 215.3125 C 285.628906 212.683594 312.101562 210.3125 338.335938 210.234375 C 332.804688 189.972656 326.882812 169.390625 320.730469 149.082031 C 317.316406 137.792969 314.476562 126.140625 311.738281 114.898438 C 309.082031 103.960938 306.332031 92.65625 303.035156 81.6875 C 286.851562 81.6875 270.425781 81.714844 254.515625 81.761719 C 249.511719 81.777344 244.496094 81.777344 239.496094 81.792969 C 224.125 81.820312 208.652344 81.835938 193.195312 81.835938 C 165.617188 81.835938 138.070312 81.808594 111.097656 81.761719 C 86.765625 81.730469 61.621094 81.699219 36.871094 81.6875 C 33.589844 92.65625 30.839844 103.960938 28.167969 114.882812 C 25.433594 126.140625 22.589844 137.777344 19.175781 149.082031 C 13.039062 169.375 7.117188 189.957031 1.585938 210.234375 Z M 1.585938 210.234375 " fill-opacity="1" fill-rule="nonzero"/></g><path fill="#be47ff" d="M 170 218.984375 C 158.96875 218.984375 147.921875 218.273438 137.285156 216.855469 C 119.589844 214.496094 101.910156 210.265625 84.816406 206.183594 C 59.175781 200.050781 32.65625 193.71875 5.667969 193.613281 L 5.667969 192.402344 C 32.789062 192.511719 59.386719 198.871094 85.089844 205.007812 C 102.152344 209.085938 119.800781 213.300781 137.433594 215.660156 C 156.21875 218.167969 176.226562 218.457031 195.265625 216.507812 C 215.121094 214.480469 234.886719 209.75 253.984375 205.1875 L 255.722656 204.765625 C 279.765625 199.023438 307.027344 192.511719 334.226562 192.402344 L 334.226562 193.613281 C 307.175781 193.71875 279.992188 200.214844 256.011719 205.945312 L 254.273438 206.367188 C 235.128906 210.945312 215.316406 215.675781 195.386719 217.714844 C 187.058594 218.546875 178.535156 218.984375 170 218.984375 Z M 170 218.984375 " fill-opacity="1" fill-rule="nonzero"/><path fill="#be47ff" d="M 170.285156 228.382812 C 159.753906 228.382812 149.070312 226.855469 138.039062 223.789062 C 119.785156 218.726562 102.179688 210.660156 85.152344 202.875 C 61.367188 191.996094 36.78125 180.738281 10.183594 177.582031 L 10.320312 176.386719 C 37.097656 179.558594 61.773438 190.863281 85.648438 201.789062 C 102.632812 209.554688 120.191406 217.59375 138.355469 222.640625 C 157.742188 228.019531 176.074219 228.609375 194.371094 224.453125 C 214.441406 219.890625 233.570312 211.246094 252.082031 202.875 L 253.0625 202.4375 C 254.210938 201.925781 255.359375 201.394531 256.507812 200.882812 C 279.75 190.347656 303.777344 179.46875 329.585938 176.402344 L 329.722656 177.59375 C 304.109375 180.632812 280.171875 191.484375 257.007812 201.96875 C 255.859375 202.484375 254.710938 203.011719 253.5625 203.527344 L 252.582031 203.964844 C 234.023438 212.351562 214.832031 221.039062 194.644531 225.617188 C 186.5625 227.460938 178.460938 228.382812 170.285156 228.382812 Z M 170.285156 228.382812 " fill-opacity="1" fill-rule="nonzero"/><g clip-path="url(#b9857e1ddc)"><path fill="#be47ff" d="M 170.089844 236.484375 C 168.730469 236.484375 167.355469 236.421875 165.996094 236.285156 C 157.546875 235.484375 148.753906 233.21875 139.113281 229.378906 C 119.980469 221.78125 102.378906 210.191406 85.363281 198.992188 C 63.359375 184.53125 40.601562 169.570312 14.476562 163.195312 L 14.761719 162.015625 C 26.582031 164.902344 38.730469 169.769531 51.875 176.886719 C 63.585938 183.230469 74.996094 190.742188 86.027344 197.996094 C 102.996094 209.164062 120.554688 220.707031 139.566406 228.261719 C 149.101562 232.054688 157.789062 234.292969 166.117188 235.078125 C 176.285156 236.042969 186.9375 232.976562 194.070312 230.574219 C 214.015625 223.867188 232.152344 212.199219 249.695312 200.925781 L 250.449219 200.441406 C 252.792969 198.945312 255.179688 197.390625 257.476562 195.894531 C 278.585938 182.203125 300.40625 168.046875 325.160156 162 L 325.445312 163.179688 C 300.90625 169.164062 279.160156 183.277344 258.140625 196.90625 C 255.828125 198.402344 253.441406 199.960938 251.101562 201.457031 L 250.34375 201.9375 C 232.738281 213.257812 214.53125 224.953125 194.449219 231.722656 C 188.164062 233.855469 179.171875 236.484375 170.089844 236.484375 Z M 170.089844 236.484375 " fill-opacity="1" fill-rule="nonzero"/></g><path fill="#be47ff" d="M 170.253906 230.589844 C 168.746094 230.589844 167.21875 230.542969 165.707031 230.4375 C 157.046875 229.847656 148.132812 227.566406 139.21875 223.636719 C 120.601562 215.433594 103.964844 202.964844 87.886719 190.90625 C 86.238281 189.667969 84.578125 188.429688 82.929688 187.207031 C 81.933594 186.464844 80.933594 185.710938 79.921875 184.96875 C 60.941406 170.796875 41.328125 156.121094 18.554688 149.082031 L 18.917969 147.933594 C 41.886719 155.050781 61.59375 169.769531 80.648438 184.003906 C 81.644531 184.757812 82.640625 185.5 83.65625 186.238281 C 85.300781 187.460938 86.964844 188.703125 88.609375 189.941406 C 104.644531 201.953125 121.21875 214.375 139.714844 222.535156 C 157.683594 230.453125 175.410156 231.496094 192.394531 225.617188 C 212.6875 218.605469 230.472656 205.414062 247.65625 192.644531 L 248.46875 192.042969 C 251.417969 189.867188 254.410156 187.597656 257.308594 185.40625 C 276.96875 170.582031 297.292969 155.246094 321.003906 147.917969 L 321.367188 149.066406 C 297.851562 156.347656 277.621094 171.613281 258.050781 186.375 C 255.148438 188.566406 252.140625 190.832031 249.195312 193.007812 L 248.378906 193.613281 C 231.109375 206.425781 213.261719 219.679688 192.785156 226.75 C 185.398438 229.304688 177.839844 230.589844 170.253906 230.589844 Z M 170.253906 230.589844 " fill-opacity="1" fill-rule="nonzero"/><path fill="#be47ff" d="M 170.375 205.792969 C 169.183594 205.792969 167.988281 205.746094 166.808594 205.640625 C 158.621094 204.917969 150.15625 202.875 140.910156 199.414062 C 120.753906 191.859375 102.347656 180.132812 84.546875 168.800781 C 65.054688 156.378906 44.894531 143.550781 22.453125 136.222656 L 22.832031 135.074219 C 45.410156 142.445312 65.640625 155.320312 85.195312 167.789062 C 102.953125 179.089844 121.296875 190.773438 141.332031 198.296875 C 150.460938 201.726562 158.832031 203.738281 166.917969 204.460938 C 175.621094 205.234375 184.65625 202.875 192.332031 200.457031 C 210.785156 194.671875 227.464844 184.742188 245.824219 173.335938 C 249.136719 171.277344 252.488281 169.164062 255.738281 167.109375 C 275.050781 154.914062 295.011719 142.296875 317.089844 135.089844 L 317.46875 136.238281 C 295.542969 143.398438 275.640625 155.972656 256.386719 168.136719 C 253.140625 170.191406 249.785156 172.304688 246.476562 174.363281 C 228.054688 185.816406 211.296875 195.773438 192.710938 201.605469 C 185.925781 203.707031 178.128906 205.792969 170.375 205.792969 Z M 170.375 205.792969 " fill-opacity="1" fill-rule="nonzero"/><path fill="#be47ff" d="M 170.269531 169.269531 C 160.917969 169.269531 151.425781 168.03125 141.636719 165.566406 C 121.6875 160.535156 102.632812 152.058594 84.214844 143.851562 C 65.597656 135.570312 46.34375 127.003906 26.203125 122.015625 L 26.488281 120.839844 C 46.738281 125.855469 66.035156 134.4375 84.695312 142.75 C 103.070312 150.925781 122.066406 159.386719 141.921875 164.386719 C 159.179688 168.742188 175.46875 169.207031 191.699219 165.839844 C 210.238281 161.984375 228.023438 154.566406 244.648438 147.296875 C 248.003906 145.832031 251.417969 144.320312 254.710938 142.855469 C 273.554688 134.5 293.03125 125.871094 313.417969 120.824219 L 313.703125 122.003906 C 293.410156 127.019531 273.976562 135.632812 255.195312 143.972656 C 251.902344 145.4375 248.484375 146.949219 245.132812 148.417969 C 228.449219 155.699219 210.585938 163.148438 191.941406 167.03125 C 184.761719 168.527344 177.554688 169.269531 170.269531 169.269531 Z M 170.269531 169.269531 " fill-opacity="1" fill-rule="nonzero"/><path fill="#be47ff" d="M 167.582031 132.292969 C 158.890625 132.292969 150.460938 131.777344 142.148438 130.765625 C 122.503906 128.363281 103.027344 123.496094 84.183594 118.8125 C 66.472656 114.402344 48.175781 109.835938 29.785156 107.328125 L 29.949219 106.136719 C 48.402344 108.660156 66.746094 113.222656 84.484375 117.648438 C 103.285156 122.335938 122.730469 127.183594 142.300781 129.574219 C 171.722656 133.183594 202.578125 130.480469 242.351562 120.808594 C 246.355469 119.839844 250.433594 118.828125 254.363281 117.847656 C 272.4375 113.359375 291.144531 108.703125 309.957031 106.136719 L 310.125 107.328125 C 291.371094 109.898438 272.707031 114.539062 254.664062 119.023438 C 250.722656 120.007812 246.65625 121.019531 242.636719 121.988281 C 224.125 126.488281 207.820312 129.421875 192.785156 130.960938 C 184.097656 131.839844 175.726562 132.292969 167.582031 132.292969 Z M 167.582031 132.292969 " fill-opacity="1" fill-rule="nonzero"/><path fill="#be47ff" d="M 153.996094 101.464844 C 150.429688 101.464844 146.773438 101.421875 142.980469 101.316406 C 123.351562 100.785156 103.480469 98.972656 84.273438 97.21875 C 67.546875 95.695312 50.257812 94.105469 33.199219 93.398438 L 33.246094 92.1875 C 50.335938 92.914062 67.636719 94.484375 84.378906 96.027344 C 103.570312 97.777344 123.410156 99.59375 143.011719 100.121094 C 151.472656 100.347656 159.253906 100.316406 166.78125 100.046875 C 171.253906 99.878906 175.800781 100 180.199219 100.105469 C 183.582031 100.195312 187.089844 100.289062 190.519531 100.242188 C 207.882812 100.046875 224.988281 98.714844 240.898438 97.324219 C 245.386719 96.933594 249.953125 96.507812 254.363281 96.117188 C 271.484375 94.558594 289.179688 92.945312 306.664062 92.203125 L 306.707031 93.410156 C 289.253906 94.152344 271.574219 95.753906 254.46875 97.324219 C 250.058594 97.734375 245.492188 98.140625 241.003906 98.535156 C 225.078125 99.941406 207.941406 101.253906 190.535156 101.464844 C 187.074219 101.511719 183.570312 101.421875 180.167969 101.332031 C 175.785156 101.210938 171.253906 101.101562 166.824219 101.269531 C 162.640625 101.390625 158.394531 101.464844 153.996094 101.464844 Z M 153.996094 101.464844 " fill-opacity="1" fill-rule="nonzero"/><g clip-path="url(#02ac573e7e)"><path fill="#be47ff" d="M 300.9375 212.320312 C 298.941406 202.4375 296.476562 193.660156 293.425781 185.484375 C 290.765625 178.367188 288.679688 171.761719 287.078125 165.339844 C 283.347656 150.320312 281.292969 134.742188 279.3125 119.675781 C 277.648438 107.011719 275.925781 93.910156 273.207031 81.234375 L 274.386719 80.976562 C 277.105469 93.699219 278.828125 106.816406 280.503906 119.507812 C 282.484375 134.542969 284.523438 150.09375 288.242188 165.039062 C 289.828125 171.429688 291.898438 177.972656 294.542969 185.058594 C 297.625 193.296875 300.105469 202.136719 302.097656 212.078125 Z M 300.9375 212.320312 " fill-opacity="1" fill-rule="nonzero"/></g><path fill="#be47ff" d="M 263.339844 215.492188 C 263.277344 215.085938 263.203125 214.664062 263.144531 214.253906 C 262.386719 209.402344 261.585938 204.402344 258.125 200.867188 C 254.890625 197.585938 254.167969 193.3125 253.441406 189.171875 C 251.28125 176.671875 250.375 163.722656 249.511719 151.210938 C 249.285156 147.960938 249.058594 144.609375 248.804688 141.328125 C 248.441406 136.675781 248.109375 131.945312 247.789062 127.367188 C 246.71875 112.210938 245.597656 96.539062 243.558594 81.277344 L 244.753906 81.113281 C 246.808594 96.417969 247.925781 112.105469 249 127.277344 C 249.332031 131.855469 249.664062 136.585938 250.011719 141.238281 C 250.269531 144.53125 250.496094 147.886719 250.722656 151.136719 C 251.597656 163.617188 252.488281 176.539062 254.636719 188.972656 C 255.316406 192.933594 256.027344 197.027344 258.988281 200.035156 C 262.734375 203.84375 263.550781 209.042969 264.335938 214.074219 C 264.398438 214.480469 264.472656 214.90625 264.535156 215.3125 Z M 263.339844 215.492188 " fill-opacity="1" fill-rule="nonzero"/><path fill="#be47ff" d="M 221.800781 219.242188 C 221.738281 219.242188 221.679688 219.242188 221.601562 219.226562 C 220.574219 219.058594 220.105469 217.472656 219.835938 213.183594 C 219.820312 212.984375 219.820312 212.847656 219.804688 212.773438 C 218.382812 198.570312 217.960938 184.015625 217.554688 169.933594 C 217.417969 165.144531 217.265625 160.1875 217.085938 155.320312 C 216.859375 149.367188 216.660156 143.308594 216.464844 137.445312 C 215.859375 119.011719 215.226562 99.941406 213.851562 81.261719 L 215.058594 81.171875 C 216.433594 99.878906 217.070312 118.964844 217.675781 137.414062 C 217.871094 143.277344 218.066406 149.335938 218.292969 155.292969 C 218.476562 160.15625 218.609375 165.113281 218.761719 169.902344 C 219.171875 183.972656 219.59375 198.507812 221.015625 212.667969 C 221.027344 212.742188 221.027344 212.910156 221.042969 213.121094 C 221.121094 214.390625 221.359375 217.308594 221.816406 217.988281 C 221.980469 217.789062 222.191406 217.261719 222.433594 216.402344 C 222.480469 216.234375 222.523438 216.097656 222.554688 215.976562 C 222.585938 215.886719 222.644531 215.660156 222.707031 215.417969 C 223.28125 213.167969 223.734375 212.003906 224.566406 211.882812 C 224.867188 211.835938 225.167969 211.925781 225.410156 212.140625 C 226.195312 212.789062 226.664062 214.785156 226.921875 218.605469 C 226.9375 218.757812 226.9375 218.847656 226.9375 218.894531 L 225.726562 219.015625 C 225.726562 218.953125 225.714844 218.847656 225.699219 218.683594 C 225.425781 214.542969 224.914062 213.4375 224.714844 213.167969 C 224.488281 213.484375 224.203125 214.34375 223.855469 215.71875 C 223.777344 216.023438 223.71875 216.234375 223.671875 216.371094 C 223.644531 216.445312 223.613281 216.582031 223.566406 216.71875 C 223.3125 217.667969 222.871094 219.242188 221.800781 219.242188 Z M 221.800781 219.242188 " fill-opacity="1" fill-rule="nonzero"/><path fill="#be47ff" d="M 187.074219 235.863281 L 186.53125 233.613281 C 185.820312 230.605469 185.878906 227.25 185.957031 224.015625 C 185.988281 222.761719 186 221.570312 185.988281 220.40625 C 185.757812 208.027344 185.609375 195.441406 185.472656 183.261719 L 185.425781 179.679688 C 185.320312 170.265625 185.230469 160.703125 185.15625 151.4375 C 184.957031 128.410156 184.746094 104.609375 184.171875 81.203125 L 185.382812 81.171875 C 185.957031 104.578125 186.167969 128.394531 186.363281 151.421875 C 186.441406 160.671875 186.53125 170.25 186.636719 179.652344 L 186.679688 183.230469 C 186.816406 195.335938 186.953125 207.847656 187.179688 220.148438 C 187.269531 218.910156 187.46875 217.699219 187.816406 216.519531 L 188.464844 214.332031 L 188.976562 216.550781 C 189.265625 217.789062 189.296875 219.105469 189.3125 220.375 C 189.3125 220.691406 189.324219 221.007812 189.324219 221.328125 L 188.3125 221.355469 C 188.269531 222.609375 188.296875 223.878906 188.328125 225.132812 C 188.390625 227.960938 188.464844 230.890625 187.695312 233.613281 Z M 187.148438 225.332031 C 187.136719 226.464844 187.121094 227.597656 187.164062 228.714844 C 187.195312 227.597656 187.164062 226.449219 187.148438 225.332031 Z M 187.148438 225.332031 " fill-opacity="1" fill-rule="nonzero"/><path fill="#be47ff" d="M 152.800781 235.847656 L 152.199219 233.628906 C 151.457031 230.921875 151.519531 228.019531 151.578125 225.210938 C 151.609375 223.941406 151.625 222.65625 151.578125 221.371094 L 150.550781 221.34375 C 150.566406 221.039062 150.566406 220.738281 150.566406 220.433594 C 150.597656 219.152344 150.613281 217.835938 150.898438 216.582031 L 151.414062 214.332031 L 152.0625 216.535156 C 152.410156 217.714844 152.589844 218.925781 152.695312 220.148438 C 152.921875 207.667969 153.074219 194.988281 153.210938 182.71875 L 153.242188 179.652344 C 153.347656 170.3125 153.421875 160.820312 153.511719 151.648438 C 153.710938 128.546875 153.921875 104.65625 154.496094 81.171875 L 155.703125 81.203125 C 155.128906 104.683594 154.917969 128.558594 154.722656 151.664062 C 154.644531 160.851562 154.554688 170.34375 154.449219 179.664062 L 154.417969 182.734375 C 154.285156 195.078125 154.132812 207.832031 153.90625 220.390625 C 153.890625 221.554688 153.921875 222.761719 153.949219 224.046875 C 154.027344 227.28125 154.117188 230.621094 153.363281 233.613281 Z M 152.789062 225.390625 C 152.773438 226.507812 152.742188 227.644531 152.773438 228.761719 C 152.816406 227.644531 152.800781 226.507812 152.789062 225.390625 Z M 152.789062 225.390625 " fill-opacity="1" fill-rule="nonzero"/><path fill="#be47ff" d="M 118.078125 219.257812 C 117.050781 219.257812 116.613281 217.699219 116.324219 216.65625 C 116.292969 216.535156 116.265625 216.429688 116.234375 216.355469 C 116.1875 216.21875 116.128906 216.007812 116.066406 215.71875 C 115.703125 214.316406 115.417969 213.453125 115.191406 213.136719 C 114.964844 213.410156 114.496094 214.449219 114.222656 218.546875 C 114.210938 218.757812 114.195312 218.925781 114.195312 219 L 112.984375 218.878906 C 113 218.804688 113 218.652344 113.015625 218.457031 C 113.273438 214.617188 113.710938 212.789062 114.496094 212.125 C 114.753906 211.914062 115.054688 211.820312 115.359375 211.867188 C 116.203125 211.972656 116.65625 213.152344 117.230469 215.417969 C 117.292969 215.660156 117.351562 215.871094 117.382812 215.960938 C 117.414062 216.054688 117.441406 216.171875 117.488281 216.324219 C 117.65625 216.929688 117.894531 217.65625 118.09375 217.957031 C 118.289062 217.640625 118.667969 216.597656 118.878906 213.105469 C 118.894531 212.894531 118.910156 212.726562 118.910156 212.652344 C 120.328125 198.480469 120.753906 183.910156 121.160156 169.828125 C 121.296875 165.054688 121.445312 160.113281 121.613281 155.277344 C 121.839844 149.351562 122.035156 143.339844 122.21875 137.519531 C 122.824219 119.039062 123.457031 99.925781 124.832031 81.171875 L 126.039062 81.261719 C 124.664062 99.984375 124.03125 119.085938 123.425781 137.566406 C 123.230469 143.382812 123.035156 149.414062 122.824219 155.335938 C 122.640625 160.171875 122.503906 165.097656 122.367188 169.875 C 121.960938 183.972656 121.539062 198.570312 120.117188 212.789062 C 120.117188 212.863281 120.101562 213 120.085938 213.195312 C 119.832031 217.441406 119.332031 219.089844 118.242188 219.257812 C 118.183594 219.257812 118.121094 219.257812 118.078125 219.257812 Z M 118.078125 219.257812 " fill-opacity="1" fill-rule="nonzero"/><path fill="#be47ff" d="M 76.566406 215.492188 L 75.375 215.296875 C 75.449219 214.828125 75.523438 214.34375 75.601562 213.863281 C 76.339844 209.132812 77.171875 203.769531 80.796875 200.125 C 83.882812 197.027344 84.589844 192.933594 85.269531 188.957031 C 87.355469 176.855469 88.25 164.3125 89.109375 152.164062 C 89.320312 149.109375 89.546875 145.9375 89.789062 142.839844 C 90.167969 137.914062 90.53125 132.882812 90.863281 128.03125 C 91.949219 112.601562 93.082031 96.660156 95.167969 81.082031 L 96.363281 81.246094 C 94.277344 96.78125 93.160156 112.707031 92.054688 128.121094 C 91.707031 132.988281 91.359375 138.003906 90.984375 142.945312 C 90.742188 146.042969 90.515625 149.203125 90.304688 152.253906 C 89.441406 164.417969 88.550781 177.007812 86.449219 189.171875 C 85.769531 193.128906 84.984375 197.617188 81.644531 200.988281 C 78.289062 204.355469 77.519531 209.285156 76.777344 214.058594 C 76.71875 214.542969 76.644531 215.023438 76.566406 215.492188 Z M 76.566406 215.492188 " fill-opacity="1" fill-rule="nonzero"/><g clip-path="url(#9e12958d5f)"><path fill="#be47ff" d="M 38.972656 212.320312 L 37.792969 212.078125 C 39.789062 202.179688 42.203125 193.507812 45.183594 185.527344 C 48.007812 177.957031 50.0625 171.445312 51.664062 165.054688 C 55.382812 150.09375 57.421875 134.558594 59.402344 119.523438 C 61.0625 106.832031 62.785156 93.714844 65.519531 80.992188 L 66.699219 81.246094 C 63.980469 93.925781 62.257812 107.011719 60.59375 119.691406 C 58.617188 134.753906 56.574219 150.335938 52.828125 165.355469 C 51.226562 171.808594 49.15625 178.351562 46.316406 185.96875 C 43.367188 193.871094 40.964844 202.5 38.972656 212.320312 Z M 38.972656 212.320312 " fill-opacity="1" fill-rule="nonzero"/></g><g clip-path="url(#60178426eb)"><path fill="#be47ff" d="M 222.925781 181.148438 C 222.925781 189.515625 216.117188 196.328125 207.742188 196.328125 L 137.390625 196.328125 C 129.019531 196.328125 122.207031 189.515625 122.207031 181.148438 L 122.207031 17.808594 C 122.207031 9.441406 129.019531 2.628906 137.390625 2.628906 L 207.742188 2.628906 C 216.117188 2.628906 222.925781 9.441406 222.925781 17.808594 Z M 207.742188 0.175781 L 137.390625 0.175781 C 127.667969 0.175781 119.753906 8.089844 119.753906 17.808594 L 119.753906 181.148438 C 119.753906 190.867188 127.667969 198.78125 137.390625 198.78125 L 207.742188 198.78125 C 217.46875 198.78125 225.378906 190.867188 225.378906 181.148438 L 225.378906 17.808594 C 225.378906 8.089844 217.46875 0.175781 207.742188 0.175781 " fill-opacity="1" fill-rule="nonzero"/></g><g clip-path="url(#7cb8378b8d)"><path fill="#be47ff" d="M 119.753906 41.382812 L 119.753906 52.761719 C 118.882812 52.761719 118.175781 52.054688 118.175781 51.183594 L 118.175781 42.964844 C 118.175781 42.085938 118.882812 41.382812 119.753906 41.382812 " fill-opacity="1" fill-rule="nonzero"/></g><g clip-path="url(#68822a73e5)"><path fill="#be47ff" d="M 119.753906 58.613281 L 119.753906 69.988281 C 118.882812 69.988281 118.175781 69.285156 118.175781 68.414062 L 118.175781 60.195312 C 118.175781 59.316406 118.882812 58.613281 119.753906 58.613281 " fill-opacity="1" fill-rule="nonzero"/></g><g clip-path="url(#866ca3ac4e)"><path fill="#be47ff" d="M 119.753906 26.917969 L 119.753906 33.636719 C 118.882812 33.636719 118.175781 32.925781 118.175781 32.054688 L 118.175781 28.496094 C 118.175781 27.625 118.882812 26.917969 119.753906 26.917969 " fill-opacity="1" fill-rule="nonzero"/></g><g clip-path="url(#0bc9f708a9)"><path fill="#be47ff" d="M 226.960938 50.089844 L 226.960938 64.351562 C 226.960938 65.226562 226.253906 65.929688 225.378906 65.929688 L 225.378906 48.511719 C 226.253906 48.511719 226.960938 49.21875 226.960938 50.089844 " fill-opacity="1" fill-rule="nonzero"/></g><path fill="#be47ff" d="M 219.414062 181.746094 C 219.414062 182.246094 219.378906 182.746094 219.320312 183.230469 C 218.589844 188.882812 213.757812 193.246094 207.910156 193.246094 L 137.230469 193.246094 C 131.378906 193.246094 126.546875 188.882812 125.816406 183.230469 C 125.753906 182.746094 125.722656 182.246094 125.722656 181.746094 L 125.722656 17.214844 C 125.722656 10.855469 130.871094 5.710938 137.230469 5.710938 L 150.875 5.710938 C 151.378906 5.710938 151.78125 6.117188 151.78125 6.617188 C 151.78125 8.050781 152.367188 9.351562 153.304688 10.289062 C 154.242188 11.222656 155.542969 11.808594 156.976562 11.808594 L 188.160156 11.808594 C 191.027344 11.808594 193.347656 9.484375 193.347656 6.617188 C 193.347656 6.367188 193.453125 6.140625 193.617188 5.976562 C 193.785156 5.8125 194.007812 5.710938 194.257812 5.710938 L 207.910156 5.710938 C 214.242188 5.710938 219.382812 10.832031 219.414062 17.160156 Z M 207.742188 2.628906 L 137.390625 2.628906 C 132.707031 2.628906 128.511719 4.761719 125.722656 8.109375 C 123.53125 10.742188 122.207031 14.121094 122.207031 17.808594 L 122.207031 181.148438 C 122.207031 184.832031 123.53125 188.214844 125.722656 190.84375 C 128.511719 194.195312 132.707031 196.328125 137.390625 196.328125 L 207.742188 196.328125 C 216.113281 196.328125 222.921875 189.515625 222.921875 181.148438 L 222.921875 17.808594 C 222.921875 9.441406 216.113281 2.628906 207.742188 2.628906 " fill-opacity="1" fill-rule="nonzero"/><path fill="#151318" d="M 219.414062 17.160156 L 219.414062 181.746094 C 219.414062 182.246094 219.378906 182.746094 219.320312 183.230469 C 218.589844 188.882812 213.757812 193.246094 207.910156 193.246094 L 137.230469 193.246094 C 131.378906 193.246094 126.546875 188.882812 125.816406 183.230469 C 125.753906 182.746094 125.722656 182.246094 125.722656 181.746094 L 125.722656 17.214844 C 125.722656 10.855469 130.871094 5.710938 137.230469 5.710938 L 150.875 5.710938 C 151.378906 5.710938 151.78125 6.117188 151.78125 6.617188 C 151.78125 8.050781 152.367188 9.351562 153.304688 10.289062 C 154.242188 11.222656 155.542969 11.808594 156.976562 11.808594 L 188.160156 11.808594 C 191.027344 11.808594 193.347656 9.484375 193.347656 6.617188 C 193.347656 6.367188 193.453125 6.140625 193.617188 5.976562 C 193.785156 5.8125 194.007812 5.710938 194.257812 5.710938 L 207.910156 5.710938 C 214.242188 5.710938 219.382812 10.832031 219.414062 17.160156 " fill-opacity="1" fill-rule="nonzero"/></svg>