<svg width="799" height="792" viewBox="0 0 799 792" fill="none" xmlns="http://www.w3.org/2000/svg">
<g filter="url(#filter0_d_36_72)">
<path d="M791.984 392.477C791.993 393.483 791.998 394.489 792 395.496L791 395.498C791 395.665 791 395.833 791 396C791 396.167 791 396.335 791 396.502L792 396.503C791.998 397.51 791.993 398.517 791.984 399.522L790.984 399.513C790.981 399.847 790.978 400.182 790.974 400.516L791.974 400.527C791.962 401.532 791.947 402.536 791.927 403.539L790.928 403.52C790.921 403.853 790.914 404.186 790.907 404.52L791.907 404.542C791.885 405.544 791.859 406.545 791.83 407.546L790.83 407.516C790.82 407.849 790.81 408.181 790.799 408.514L791.799 408.546C791.767 409.546 791.731 410.544 791.691 411.542L790.692 411.503C790.678 411.834 790.665 412.166 790.651 412.498L791.65 412.54C791.607 413.537 791.561 414.534 791.511 415.529L790.513 415.479C790.496 415.812 790.479 416.144 790.461 416.477L791.46 416.53C791.407 417.535 791.35 418.539 791.289 419.542L790.291 419.482C790.271 419.815 790.25 420.149 790.229 420.482L791.227 420.545C791.164 421.548 791.097 422.549 791.026 423.549L790.028 423.479L790.007 423.783C789.99 424.014 789.973 424.245 789.956 424.476L790.954 424.549C790.88 425.549 790.803 426.548 790.721 427.545L789.725 427.464C789.709 427.663 789.692 427.863 789.676 428.062L789.643 428.459L790.639 428.543C790.555 429.54 790.468 430.535 790.376 431.53L789.381 431.439C789.35 431.769 789.319 432.1 789.288 432.43L790.284 432.525C790.19 433.519 790.092 434.511 789.991 435.503L788.996 435.401C788.981 435.545 788.967 435.688 788.952 435.831C788.932 436.02 788.912 436.209 788.893 436.398L789.887 436.503C789.782 437.503 789.673 438.502 789.561 439.5L788.567 439.388C788.53 439.72 788.492 440.052 788.453 440.383L789.447 440.498C789.332 441.496 789.213 442.492 789.09 443.487L788.097 443.364C788.078 443.52 788.059 443.677 788.039 443.833C788.017 444.007 787.996 444.182 787.974 444.356L788.966 444.482C788.84 445.476 788.711 446.469 788.578 447.461L787.587 447.328C787.543 447.658 787.498 447.988 787.453 448.317L788.444 448.453C788.308 449.444 788.169 450.434 788.026 451.422L787.036 451.279C786.989 451.608 786.941 451.937 786.892 452.265L787.882 452.411C787.736 453.4 787.587 454.387 787.433 455.373L786.445 455.22C786.394 455.55 786.342 455.881 786.29 456.211L787.278 456.367C787.121 457.36 786.96 458.351 786.796 459.342L785.809 459.178C785.754 459.507 785.699 459.836 785.644 460.165L786.63 460.332C786.463 461.321 786.292 462.309 786.117 463.296L785.133 463.122C785.075 463.45 785.016 463.778 784.957 464.106L785.942 464.283C785.764 465.269 785.584 466.254 785.399 467.238L784.416 467.053C784.355 467.38 784.293 467.707 784.231 468.034L785.213 468.221C785.026 469.203 784.835 470.185 784.64 471.165L783.66 470.97C783.628 471.127 783.597 471.284 783.566 471.441C783.532 471.61 783.498 471.778 783.464 471.947L784.445 472.144C784.247 473.126 784.046 474.106 783.841 475.084L782.862 474.879C782.793 475.206 782.725 475.533 782.655 475.86L783.633 476.067C783.425 477.05 783.213 478.031 782.997 479.011L782.02 478.796C781.948 479.122 781.876 479.447 781.803 479.773L782.779 479.991C782.561 480.97 782.338 481.947 782.112 482.923L781.138 482.698C781.063 483.022 780.987 483.347 780.911 483.671L781.885 483.899C781.657 484.874 781.424 485.848 781.188 486.821L780.217 486.585C780.138 486.908 780.059 487.231 779.98 487.554L780.951 487.793C780.713 488.764 780.471 489.734 780.225 490.703L779.256 490.457C779.174 490.779 779.092 491.101 779.009 491.422L779.978 491.671C779.729 492.642 779.476 493.611 779.22 494.579L778.253 494.323C778.168 494.646 778.082 494.969 777.995 495.291L778.961 495.55C778.702 496.519 778.438 497.488 778.171 498.454L777.207 498.188L777.113 498.528C777.056 498.736 776.998 498.944 776.94 499.152L777.903 499.421C777.633 500.386 777.36 501.35 777.083 502.313L776.122 502.037C776.03 502.357 775.938 502.677 775.845 502.996L776.805 503.275C776.526 504.237 776.243 505.197 775.956 506.156L774.998 505.869C774.903 506.188 774.807 506.507 774.711 506.825L775.669 507.114C775.38 508.072 775.087 509.028 774.791 509.982L773.836 509.686C773.737 510.003 773.638 510.32 773.539 510.637L774.493 510.936C774.193 511.894 773.889 512.85 773.582 513.804L772.63 513.498C772.528 513.815 772.425 514.133 772.322 514.45L773.273 514.759C772.963 515.713 772.65 516.666 772.332 517.617L771.384 517.3C771.278 517.617 771.172 517.933 771.066 518.248L772.014 518.567C771.694 519.517 771.371 520.466 771.044 521.412L770.099 521.086C769.99 521.401 769.881 521.715 769.771 522.029L770.716 522.358C770.387 523.304 770.054 524.248 769.717 525.19L768.775 524.854C768.664 525.167 768.551 525.48 768.439 525.793L769.38 526.132C769.041 527.073 768.698 528.012 768.352 528.95L767.414 528.604C767.299 528.916 767.183 529.229 767.067 529.541L768.004 529.889C767.654 530.83 767.301 531.769 766.944 532.707L766.009 532.351L765.918 532.59C765.83 532.822 765.741 533.053 765.652 533.285L766.586 533.643C766.226 534.58 765.863 535.514 765.497 536.447L764.566 536.081C764.444 536.391 764.322 536.701 764.199 537.011L765.129 537.379C764.76 538.311 764.388 539.24 764.012 540.168L763.085 539.793C762.96 540.102 762.834 540.41 762.709 540.718L763.635 541.096C763.256 542.023 762.874 542.948 762.489 543.871L761.566 543.486C761.438 543.793 761.31 544.1 761.181 544.406L762.103 544.794C761.715 545.717 761.323 546.638 760.928 547.557L760.01 547.162C759.94 547.324 759.871 547.485 759.801 547.647L759.613 548.081L760.531 548.478C760.133 549.399 759.731 550.318 759.325 551.235L758.411 550.83C758.276 551.135 758.141 551.44 758.005 551.744L758.919 552.151C758.511 553.067 758.1 553.981 757.685 554.893L756.775 554.479C756.637 554.782 756.499 555.085 756.36 555.388L757.269 555.804C756.852 556.715 756.432 557.624 756.008 558.531L755.102 558.108L754.942 558.451C754.854 558.638 754.766 558.825 754.678 559.012L755.583 559.438C755.157 560.343 754.727 561.247 754.294 562.149L753.393 561.716C753.249 562.016 753.104 562.316 752.96 562.615L753.86 563.051C753.424 563.953 752.984 564.853 752.542 565.752L751.645 565.309L751.504 565.595C751.403 565.799 751.302 566.002 751.201 566.206L752.097 566.651C751.651 567.549 751.202 568.445 750.75 569.339L749.857 568.888C749.707 569.185 749.556 569.482 749.405 569.779L750.296 570.233C749.841 571.126 749.383 572.017 748.921 572.906L748.034 572.445C747.88 572.741 747.727 573.036 747.572 573.332L748.459 573.795C747.995 574.682 747.528 575.568 747.057 576.452L746.175 575.982C746.018 576.276 745.861 576.569 745.704 576.863L746.586 577.335C746.113 578.217 745.637 579.098 745.158 579.976L744.28 579.497L744.06 579.9C743.973 580.057 743.887 580.215 743.801 580.372L744.677 580.853C744.194 581.732 743.708 582.609 743.219 583.484L742.346 582.996C742.183 583.287 742.02 583.578 741.857 583.868L742.728 584.359C742.237 585.232 741.742 586.104 741.244 586.973L740.376 586.476L740.151 586.868C740.06 587.026 739.969 587.184 739.878 587.342L740.744 587.842C740.244 588.71 739.74 589.576 739.233 590.439L738.371 589.933C738.202 590.22 738.033 590.507 737.864 590.794L738.725 591.302C738.216 592.165 737.703 593.025 737.188 593.883L736.33 593.368C736.159 593.653 735.987 593.938 735.815 594.223L736.671 594.741C736.153 595.597 735.632 596.452 735.107 597.305L734.256 596.781C734.081 597.065 733.906 597.348 733.731 597.632L734.581 598.158C734.054 599.01 733.523 599.861 732.989 600.709L732.143 600.176C731.965 600.458 731.787 600.74 731.609 601.021L732.454 601.556C731.918 602.403 731.379 603.247 730.836 604.09L729.995 603.548C729.815 603.828 729.634 604.108 729.453 604.388L730.293 604.931C729.748 605.772 729.2 606.611 728.649 607.447L727.814 606.897C727.631 607.175 727.448 607.453 727.264 607.73L728.097 608.283C727.544 609.118 726.988 609.95 726.429 610.781L725.599 610.222C725.413 610.498 725.227 610.774 725.04 611.049L725.868 611.61C725.306 612.44 724.741 613.267 724.173 614.092L723.35 613.524C723.161 613.799 722.971 614.073 722.782 614.347L723.604 614.916C723.033 615.74 722.459 616.562 721.883 617.381L721.065 616.805C720.873 617.078 720.681 617.35 720.489 617.622L721.305 618.2C720.726 619.017 720.144 619.833 719.559 620.646L718.747 620.062C718.552 620.332 718.358 620.602 718.162 620.872L718.973 621.458C718.385 622.27 717.795 623.079 717.202 623.886L716.396 623.294C716.199 623.562 716.001 623.83 715.803 624.098L716.608 624.692C716.012 625.498 715.414 626.301 714.812 627.101L714.013 626.5C713.813 626.767 713.613 627.033 713.412 627.298L714.21 627.901C713.606 628.701 712.999 629.498 712.389 630.293L711.596 629.684C711.393 629.948 711.19 630.212 710.986 630.476L711.778 631.087C711.166 631.88 710.551 632.671 709.933 633.459L709.146 632.842C708.94 633.104 708.734 633.366 708.528 633.628L709.314 634.247C708.693 635.034 708.07 635.818 707.444 636.6L706.664 635.975L706.426 636.272C706.297 636.433 706.167 636.594 706.038 636.754L706.817 637.381C706.189 638.162 705.558 638.94 704.924 639.715L704.15 639.082C704.041 639.216 703.931 639.349 703.822 639.483C703.72 639.607 703.618 639.731 703.517 639.855L704.289 640.49C703.653 641.263 703.014 642.035 702.372 642.804L701.605 642.163C701.518 642.267 701.431 642.371 701.344 642.475C701.217 642.626 701.09 642.778 700.963 642.929L701.729 643.572C701.085 644.339 700.438 645.104 699.789 645.867L699.028 645.218C698.811 645.471 698.595 645.725 698.378 645.978L699.138 646.628C698.486 647.389 697.831 648.147 697.174 648.903L696.419 648.246C696.201 648.498 695.982 648.749 695.762 648.999L696.515 649.658C695.855 650.412 695.193 651.163 694.528 651.912L693.78 651.248C693.66 651.383 693.541 651.517 693.421 651.652C693.319 651.766 693.217 651.88 693.116 651.994L693.861 652.66C693.194 653.407 692.524 654.152 691.851 654.894L691.11 654.222C690.887 654.469 690.663 654.716 690.438 654.962L691.177 655.635C690.503 656.376 689.825 657.113 689.144 657.849L688.411 657.169C688.184 657.414 687.958 657.658 687.731 657.902L688.463 658.583C687.781 659.316 687.096 660.047 686.408 660.775L685.681 660.088C685.452 660.33 685.223 660.572 684.994 660.814L685.719 661.502C685.029 662.229 684.336 662.952 683.641 663.673L682.921 662.979C682.69 663.219 682.459 663.458 682.227 663.698L682.945 664.394C682.248 665.113 681.548 665.83 680.845 666.544L680.132 665.842C679.898 666.08 679.664 666.317 679.43 666.554L680.141 667.257C679.437 667.969 678.729 668.679 678.019 669.385L677.314 668.677L677.081 668.908C676.923 669.066 676.764 669.223 676.604 669.381L677.308 670.091C676.597 670.796 675.882 671.498 675.165 672.198L674.467 671.482C674.229 671.714 673.99 671.947 673.751 672.178L674.448 672.896C673.729 673.594 673.007 674.288 672.283 674.98L671.592 674.257C671.352 674.488 671.11 674.717 670.869 674.947L671.558 675.672C670.832 676.362 670.104 677.049 669.372 677.734L668.689 677.004L668.484 677.196C668.309 677.359 668.134 677.523 667.958 677.686L668.64 678.418C667.907 679.101 667.171 679.781 666.433 680.458L665.757 679.721C665.512 679.947 665.266 680.172 665.02 680.396L665.694 681.135C664.954 681.81 664.211 682.483 663.466 683.153L662.797 682.409C662.55 682.632 662.302 682.854 662.053 683.076L662.72 683.821C661.974 684.489 661.225 685.153 660.473 685.815L659.812 685.065C659.562 685.285 659.312 685.505 659.062 685.724L659.721 686.476C658.967 687.136 658.212 687.793 657.453 688.448L656.8 687.69C656.548 687.908 656.295 688.125 656.042 688.342L656.694 689.101C655.934 689.753 655.171 690.403 654.406 691.049L653.76 690.286C653.506 690.501 653.251 690.715 652.996 690.93L653.639 691.695C652.872 692.34 652.103 692.982 651.331 693.621L650.693 692.851C650.437 693.063 650.18 693.275 649.922 693.487L650.558 694.259C649.785 694.896 649.009 695.53 648.231 696.161L647.601 695.384C647.342 695.594 647.083 695.803 646.824 696.012L647.452 696.79C646.673 697.419 645.891 698.044 645.107 698.667L644.485 697.884L644.213 698.1C644.042 698.235 643.872 698.369 643.702 698.504L644.322 699.289C643.536 699.91 642.747 700.527 641.957 701.142L641.343 700.353C641.08 700.557 640.817 700.761 640.553 700.965L641.165 701.756C640.372 702.369 639.578 702.979 638.78 703.586L638.175 702.79C637.909 702.992 637.644 703.194 637.378 703.395L637.982 704.192C637.183 704.797 636.382 705.399 635.578 705.998L634.98 705.197C634.713 705.396 634.446 705.595 634.178 705.793L634.773 706.596C633.969 707.193 633.163 707.786 632.354 708.376L631.764 707.568C631.496 707.764 631.226 707.96 630.957 708.156L631.544 708.965C630.734 709.553 629.922 710.138 629.107 710.72L628.525 709.906C628.254 710.1 627.983 710.293 627.712 710.486L628.291 711.301C627.474 711.881 626.656 712.458 625.834 713.032L625.261 712.213C624.988 712.403 624.715 712.594 624.442 712.784L625.012 713.605C624.19 714.177 623.365 714.746 622.537 715.312L621.973 714.486C621.698 714.674 621.422 714.862 621.147 715.05L621.709 715.877C620.88 716.44 620.049 717.001 619.215 717.559L618.659 716.727L618.473 716.852C618.258 716.996 618.043 717.139 617.828 717.282L618.382 718.114C617.549 718.669 616.714 719.22 615.876 719.768L615.329 718.931C615.05 719.113 614.772 719.295 614.493 719.477L615.038 720.315C614.199 720.861 613.358 721.404 612.514 721.944L611.975 721.102C611.694 721.281 611.414 721.46 611.133 721.639L611.67 722.483C610.825 723.021 609.977 723.555 609.128 724.087L608.597 723.239C608.315 723.416 608.032 723.592 607.749 723.768L608.278 724.617C607.427 725.147 606.573 725.673 605.718 726.196L605.196 725.343C604.912 725.517 604.627 725.69 604.342 725.864L604.862 726.718C604.006 727.239 603.148 727.756 602.287 728.27L601.774 727.412C601.489 727.583 601.203 727.753 600.917 727.923L601.428 728.783C600.568 729.294 599.705 729.802 598.841 730.306L598.336 729.443C598.049 729.611 597.761 729.778 597.474 729.945L597.976 730.81C597.11 731.313 596.242 731.812 595.372 732.309L594.876 731.44C594.587 731.605 594.297 731.77 594.008 731.934L594.501 732.804C593.629 733.298 592.756 733.789 591.88 734.277L591.393 733.403C591.102 733.565 590.811 733.727 590.519 733.888L591.004 734.763C590.127 735.249 589.248 735.731 588.366 736.21L587.889 735.332C587.596 735.491 587.302 735.65 587.009 735.808L587.484 736.688C586.604 737.164 585.721 737.637 584.836 738.106L584.368 737.222C584.074 737.378 583.78 737.534 583.486 737.689L583.952 738.574C583.067 739.04 582.18 739.504 581.291 739.964L580.831 739.076C580.535 739.229 580.24 739.381 579.944 739.534L580.401 740.423C579.51 740.881 578.618 741.336 577.724 741.787L577.273 740.894C576.976 741.044 576.678 741.194 576.38 741.343L576.829 742.237C575.933 742.686 575.035 743.132 574.135 743.575L573.694 742.677C573.395 742.825 573.096 742.971 572.796 743.118L573.235 744.016C572.334 744.457 571.431 744.894 570.526 745.327L570.094 744.426C569.939 744.5 569.784 744.574 569.63 744.648L569.191 744.857L569.621 745.76C568.718 746.19 567.814 746.616 566.907 747.039L566.484 746.133C566.183 746.274 565.881 746.414 565.58 746.554L566 747.461C565.093 747.882 564.183 748.3 563.271 748.714L562.858 747.804C562.555 747.942 562.251 748.079 561.948 748.216L562.359 749.127C561.447 749.539 560.532 749.948 559.615 750.353L559.211 749.439C558.906 749.574 558.601 749.708 558.296 749.842L558.698 750.758C557.781 751.161 556.861 751.56 555.94 751.957L555.544 751.038C555.238 751.17 554.932 751.301 554.625 751.432L555.018 752.352C554.095 752.746 553.171 753.136 552.244 753.523L551.859 752.601C551.552 752.729 551.245 752.857 550.938 752.984L551.322 753.908C550.398 754.291 549.473 754.671 548.546 755.047L548.17 754.121C547.862 754.246 547.554 754.37 547.245 754.495L547.619 755.422C546.691 755.796 545.761 756.167 544.829 756.534L544.463 755.604L544.081 755.755C543.898 755.826 543.715 755.898 543.533 755.969L543.897 756.901C542.964 757.266 542.03 757.627 541.094 757.985L540.736 757.051C540.425 757.17 540.114 757.289 539.802 757.407L540.157 758.342C539.219 758.698 538.28 759.05 537.339 759.399L536.992 758.462C536.679 758.578 536.366 758.693 536.053 758.809L536.398 759.747C535.458 760.093 534.515 760.436 533.572 760.775L533.233 759.834C532.921 759.946 532.608 760.058 532.295 760.169L532.631 761.111C531.689 761.447 530.746 761.779 529.801 762.108L529.472 761.163C529.158 761.272 528.844 761.381 528.529 761.49L528.855 762.435C527.909 762.761 526.962 763.084 526.012 763.404L525.694 762.456C525.378 762.562 525.062 762.668 524.746 762.773L525.063 763.722C524.112 764.039 523.16 764.352 522.207 764.662L521.897 763.711C521.741 763.762 521.585 763.813 521.429 763.863C521.268 763.915 521.107 763.967 520.946 764.019L521.252 764.971C520.298 765.279 519.341 765.583 518.383 765.883L518.084 764.929C517.766 765.029 517.447 765.129 517.128 765.228L517.425 766.183C516.469 766.48 515.512 766.774 514.553 767.064L514.264 766.107C513.946 766.203 513.628 766.299 513.309 766.394L513.597 767.352C512.639 767.639 511.68 767.923 510.72 768.203L510.44 767.243C510.12 767.336 509.801 767.429 509.481 767.521L509.759 768.482C508.797 768.759 507.834 769.033 506.87 769.304L506.599 768.341C506.279 768.431 505.958 768.521 505.637 768.61L505.905 769.573C504.939 769.842 503.972 770.106 503.003 770.367L502.743 769.402C502.421 769.489 502.099 769.575 501.776 769.661L502.034 770.627C501.065 770.886 500.094 771.141 499.121 771.393L498.871 770.424C498.547 770.508 498.224 770.591 497.9 770.674L498.148 771.643C497.18 771.891 496.21 772.135 495.239 772.375L494.999 771.405C494.676 771.485 494.354 771.564 494.031 771.643L494.269 772.614C493.298 772.852 492.326 773.087 491.353 773.317L491.122 772.344C490.798 772.421 490.475 772.497 490.151 772.573L490.379 773.547C489.404 773.775 488.428 774 487.451 774.221L487.23 773.246C486.905 773.32 486.58 773.393 486.255 773.465L486.473 774.441C485.495 774.66 484.515 774.875 483.534 775.087L483.324 774.109C482.997 774.18 482.671 774.249 482.345 774.319L482.553 775.297C481.571 775.506 480.588 775.712 479.603 775.913L479.402 774.934C479.075 775.001 478.747 775.068 478.42 775.134L478.618 776.114C477.64 776.312 476.661 776.506 475.68 776.697L475.489 775.715C475.163 775.779 474.837 775.842 474.511 775.904L474.699 776.886C473.718 777.075 472.735 777.259 471.751 777.44L471.57 776.457C471.243 776.517 470.915 776.577 470.588 776.636L470.766 777.62C469.781 777.799 468.795 777.974 467.808 778.145L467.637 777.16C467.478 777.187 467.319 777.215 467.16 777.242C466.991 777.271 466.821 777.3 466.651 777.329L466.82 778.315C465.831 778.484 464.842 778.649 463.851 778.811L463.69 777.824C463.36 777.877 463.031 777.931 462.701 777.984L462.86 778.971C461.868 779.13 460.875 779.285 459.881 779.437L459.73 778.449C459.4 778.499 459.071 778.549 458.741 778.598L458.889 779.587C457.903 779.735 456.915 779.88 455.927 780.02L455.786 779.03C455.457 779.077 455.128 779.124 454.799 779.169L454.937 780.16C453.948 780.298 452.957 780.433 451.965 780.564L451.834 779.572C451.66 779.595 451.486 779.618 451.311 779.641C451.156 779.661 451 779.682 450.844 779.702L450.973 780.694C449.98 780.822 448.986 780.947 447.991 781.068L447.87 780.076C447.539 780.116 447.208 780.156 446.877 780.195L446.995 781.188C445.999 781.307 445.002 781.422 444.004 781.533L443.893 780.539C443.561 780.577 443.229 780.613 442.897 780.649L443.006 781.643C442.007 781.752 441.007 781.858 440.006 781.959L439.905 780.964C439.751 780.98 439.596 780.995 439.442 781.011C439.265 781.028 439.089 781.046 438.912 781.063L439.01 782.059C438.018 782.157 437.025 782.251 436.03 782.342L435.939 781.346C435.807 781.358 435.676 781.37 435.544 781.382C435.345 781.4 435.146 781.418 434.947 781.435L435.035 782.431C434.04 782.52 433.044 782.604 432.047 782.685L431.966 781.688C431.634 781.715 431.302 781.742 430.971 781.768L431.049 782.765C430.051 782.843 429.052 782.918 428.052 782.989L427.981 781.992C427.649 782.015 427.316 782.038 426.983 782.061L427.052 783.059C426.051 783.128 425.049 783.192 424.046 783.254L423.985 782.255C423.652 782.276 423.318 782.296 422.985 782.315L423.043 783.314C422.04 783.372 421.035 783.427 420.03 783.478L419.979 782.48C419.647 782.497 419.315 782.513 418.983 782.529L419.031 783.528C418.035 783.576 417.039 783.621 416.042 783.662L416.001 782.662C415.669 782.676 415.337 782.689 415.006 782.702L415.044 783.701C414.046 783.74 413.047 783.774 412.047 783.805L412.016 782.806C411.684 782.816 411.351 782.826 411.018 782.836L411.047 783.835C410.046 783.864 409.045 783.889 408.042 783.91L408.021 782.91C407.688 782.917 407.355 782.924 407.021 782.93L407.04 783.93C406.037 783.949 405.033 783.964 404.028 783.975L404.017 782.975C403.683 782.979 403.348 782.982 403.014 782.985L403.023 783.985C402.017 783.993 401.011 783.998 400.004 784L400.002 783C399.835 783 399.668 783 399.5 783C399.333 783 399.165 783 398.998 783L398.997 784C397.99 783.998 396.983 783.993 395.978 783.985L395.986 782.985C395.652 782.982 395.318 782.979 394.984 782.975L394.973 783.975C393.968 783.964 392.964 783.949 391.961 783.93L391.979 782.93C391.646 782.924 391.312 782.917 390.979 782.91L390.958 783.91C389.956 783.889 388.954 783.864 387.954 783.835L387.982 782.836C387.649 782.826 387.317 782.816 386.984 782.806L386.953 783.806C385.953 783.774 384.954 783.74 383.956 783.701L383.995 782.702C383.663 782.689 383.331 782.676 383 782.663L382.959 783.662C381.961 783.621 380.965 783.576 379.969 783.528L380.018 782.529L379.653 782.511C379.443 782.501 379.232 782.49 379.022 782.48L378.971 783.478C377.965 783.427 376.961 783.372 375.957 783.314L376.016 782.315C375.682 782.296 375.348 782.276 375.015 782.255L374.954 783.254C373.951 783.192 372.95 783.128 371.949 783.059L372.017 782.061C371.684 782.039 371.352 782.015 371.019 781.992L370.948 782.989C369.948 782.918 368.949 782.843 367.951 782.765L368.03 781.768C367.698 781.742 367.366 781.715 367.035 781.688L366.954 782.685C365.956 782.604 364.96 782.52 363.965 782.431L364.053 781.435C363.722 781.406 363.392 781.376 363.061 781.346L362.97 782.342C361.976 782.251 360.982 782.157 359.99 782.059L360.088 781.063C359.757 781.031 359.426 780.998 359.095 780.964L358.995 781.959C357.993 781.858 356.993 781.752 355.995 781.643L356.103 780.649C355.771 780.613 355.439 780.577 355.107 780.54L354.996 781.533C353.998 781.422 353.001 781.307 352.005 781.188L352.123 780.195C351.792 780.156 351.461 780.116 351.13 780.076L351.009 781.068C350.014 780.947 349.02 780.822 348.028 780.694L348.156 779.702L347.833 779.66C347.61 779.631 347.388 779.602 347.166 779.572L347.035 780.564C346.043 780.433 345.052 780.298 344.063 780.16L344.201 779.169C343.872 779.124 343.543 779.077 343.215 779.03L343.074 780.02C342.085 779.88 341.097 779.735 340.111 779.587L340.259 778.598C339.929 778.549 339.6 778.499 339.27 778.449L339.119 779.437C338.125 779.286 337.132 779.13 336.141 778.971L336.299 777.984L335.921 777.923C335.717 777.89 335.514 777.857 335.31 777.824L335.149 778.811C334.158 778.649 333.169 778.484 332.181 778.315L332.349 777.329C332.02 777.273 331.692 777.217 331.363 777.16L331.193 778.145C330.205 777.974 329.219 777.799 328.234 777.62L328.412 776.636C328.085 776.577 327.757 776.517 327.43 776.457L327.249 777.44C326.265 777.259 325.283 777.075 324.301 776.886L324.489 775.904C324.163 775.842 323.837 775.779 323.511 775.715L323.32 776.697C322.339 776.506 321.36 776.312 320.382 776.114L320.58 775.134C320.253 775.068 319.925 775.001 319.598 774.934L319.397 775.913C318.412 775.712 317.429 775.506 316.447 775.297L316.655 774.319C316.329 774.249 316.003 774.18 315.676 774.109L315.466 775.087C314.485 774.875 313.505 774.66 312.527 774.441L312.745 773.465C312.594 773.432 312.444 773.398 312.293 773.364C312.119 773.325 311.944 773.285 311.77 773.246L311.549 774.221C310.572 774 309.596 773.775 308.621 773.547L308.849 772.573C308.525 772.497 308.202 772.421 307.878 772.344L307.647 773.317C306.674 773.087 305.702 772.852 304.731 772.614L304.969 771.643C304.646 771.564 304.324 771.485 304.001 771.405L303.761 772.375C302.79 772.135 301.82 771.891 300.852 771.643L301.1 770.674C300.92 770.628 300.74 770.582 300.561 770.536L300.129 770.424L299.879 771.392C298.906 771.141 297.935 770.886 296.966 770.627L297.223 769.661C296.901 769.575 296.579 769.489 296.257 769.402L295.997 770.367C295.028 770.106 294.061 769.842 293.095 769.573L293.363 768.61C293.042 768.521 292.721 768.431 292.401 768.341L292.13 769.304C291.166 769.033 290.203 768.759 289.241 768.482L289.519 767.521L289.235 767.439C289.01 767.374 288.785 767.308 288.56 767.243L288.28 768.203C287.32 767.923 286.361 767.639 285.403 767.352L285.691 766.394L285.473 766.329C285.227 766.255 284.982 766.181 284.736 766.107L284.447 767.064C283.488 766.774 282.531 766.48 281.575 766.183L281.872 765.228C281.553 765.129 281.234 765.029 280.916 764.929L280.617 765.883C279.659 765.583 278.702 765.279 277.748 764.971L278.054 764.019C277.737 763.917 277.42 763.814 277.103 763.711L276.793 764.662C275.84 764.352 274.888 764.039 273.937 763.722L274.254 762.773C273.938 762.668 273.622 762.562 273.306 762.456L272.988 763.404C272.038 763.084 271.091 762.761 270.145 762.435L270.471 761.49C270.156 761.381 269.842 761.272 269.528 761.163L269.199 762.108C268.254 761.779 267.311 761.447 266.37 761.111L266.705 760.169C266.392 760.058 266.079 759.946 265.767 759.834L265.428 760.775C264.485 760.436 263.542 760.093 262.602 759.747L262.947 758.809C262.634 758.693 262.321 758.578 262.008 758.462L261.661 759.399C260.72 759.05 259.781 758.698 258.843 758.342L259.198 757.407C258.886 757.289 258.575 757.17 258.264 757.051L257.906 757.985C256.97 757.627 256.036 757.266 255.103 756.901L255.467 755.969C255.157 755.848 254.847 755.726 254.538 755.604L254.171 756.534C253.239 756.167 252.309 755.797 251.381 755.422L251.755 754.495L251.337 754.326C251.168 754.258 250.999 754.189 250.83 754.121L250.454 755.047C249.527 754.671 248.602 754.291 247.679 753.908L248.062 752.984C247.924 752.927 247.787 752.87 247.65 752.813C247.48 752.742 247.311 752.672 247.142 752.601L246.756 753.523C245.83 753.136 244.905 752.746 243.983 752.352L244.375 751.432C244.069 751.301 243.762 751.17 243.456 751.038L243.061 751.957C242.139 751.56 241.22 751.161 240.302 750.758L240.704 749.842C240.399 749.708 240.094 749.574 239.789 749.439L239.385 750.353C238.468 749.948 237.554 749.54 236.641 749.128L237.052 748.216L236.85 748.125C236.614 748.018 236.378 747.911 236.143 747.804L235.729 748.714C234.817 748.3 233.908 747.883 233 747.462L233.421 746.554C233.119 746.414 232.817 746.274 232.516 746.133L232.093 747.039C231.186 746.616 230.282 746.19 229.379 745.76L229.809 744.857C229.508 744.714 229.207 744.57 228.906 744.426L228.474 745.328C227.569 744.894 226.666 744.457 225.765 744.016L226.204 743.118C225.905 742.972 225.605 742.825 225.306 742.678L224.865 743.575C223.965 743.132 223.067 742.686 222.172 742.237L222.62 741.343C222.322 741.194 222.024 741.044 221.727 740.894L221.277 741.787C220.382 741.336 219.49 740.881 218.599 740.423L219.057 739.534C218.761 739.381 218.465 739.229 218.169 739.076L217.71 739.964C216.82 739.504 215.933 739.04 215.048 738.574L215.515 737.689C215.22 737.534 214.926 737.378 214.633 737.223L214.164 738.106C213.279 737.637 212.396 737.164 211.516 736.688L211.991 735.808C211.698 735.65 211.405 735.491 211.112 735.332L210.634 736.21C209.753 735.731 208.874 735.249 207.997 734.763L208.481 733.888L208.149 733.705C207.968 733.604 207.787 733.504 207.607 733.403L207.12 734.277C206.245 733.789 205.371 733.298 204.499 732.804L204.993 731.934C204.703 731.77 204.413 731.605 204.124 731.44L203.629 732.309C202.759 731.812 201.891 731.313 201.025 730.81L201.527 729.945C201.239 729.778 200.951 729.611 200.664 729.443L200.16 730.307C199.295 729.802 198.433 729.294 197.573 728.783L198.083 727.923C197.797 727.753 197.512 727.583 197.226 727.412L196.713 728.271C195.853 727.756 194.994 727.239 194.138 726.718L194.658 725.864C194.373 725.691 194.088 725.517 193.804 725.343L193.282 726.196C192.427 725.673 191.574 725.147 190.723 724.617L191.251 723.768C191.087 723.666 190.923 723.564 190.76 723.462L190.403 723.239L189.873 724.087C189.023 723.555 188.176 723.021 187.331 722.483L187.868 721.639C187.747 721.562 187.626 721.486 187.506 721.409C187.346 721.307 187.186 721.204 187.025 721.102L186.486 721.944C185.643 721.404 184.801 720.861 183.962 720.315L184.508 719.477C184.229 719.296 183.95 719.114 183.672 718.931L183.124 719.768C182.286 719.22 181.451 718.669 180.618 718.115L181.172 717.282C180.895 717.098 180.618 716.913 180.341 716.728L179.785 717.559C178.951 717.001 178.12 716.441 177.291 715.877L177.854 715.05L177.548 714.842C177.374 714.724 177.201 714.605 177.028 714.487L176.463 715.312C175.636 714.746 174.811 714.177 173.988 713.605L174.559 712.784C174.285 712.594 174.012 712.404 173.739 712.213L173.166 713.032C172.345 712.459 171.526 711.882 170.71 711.302L171.289 710.486C171.017 710.293 170.746 710.1 170.475 709.907L169.894 710.721C169.079 710.139 168.266 709.553 167.456 708.965L168.043 708.156C167.774 707.961 167.505 707.765 167.236 707.569L166.647 708.376C165.838 707.786 165.031 707.193 164.227 706.597L164.822 705.793C164.555 705.595 164.287 705.396 164.02 705.197L163.422 705.999C162.619 705.4 161.817 704.797 161.018 704.192L161.622 703.395C161.356 703.194 161.091 702.993 160.826 702.791L160.22 703.586C159.423 702.979 158.628 702.369 157.835 701.756L158.447 700.965C158.184 700.762 157.921 700.558 157.658 700.353L157.044 701.143C156.253 700.528 155.465 699.91 154.679 699.289L155.298 698.504C155.037 698.298 154.776 698.091 154.515 697.884L153.894 698.667C153.109 698.045 152.328 697.419 151.548 696.791L152.176 696.012C151.917 695.803 151.658 695.594 151.4 695.384L150.77 696.161C149.991 695.53 149.216 694.896 148.442 694.259L149.078 693.487C148.821 693.276 148.564 693.063 148.307 692.851L147.669 693.621C146.897 692.982 146.128 692.34 145.361 691.696L146.004 690.93C145.749 690.716 145.495 690.501 145.24 690.286L144.595 691.05C143.83 690.403 143.067 689.754 142.307 689.101L142.958 688.342L142.76 688.172C142.573 688.012 142.387 687.851 142.201 687.691L141.547 688.448C140.789 687.794 140.033 687.136 139.28 686.477L139.939 685.724C139.688 685.505 139.438 685.285 139.188 685.065L138.527 685.816C137.776 685.154 137.027 684.489 136.28 683.822L136.947 683.076C136.699 682.854 136.451 682.632 136.203 682.41L135.535 683.153C134.789 682.483 134.047 681.811 133.307 681.135L133.981 680.396L133.689 680.13C133.54 679.994 133.392 679.858 133.243 679.722L132.567 680.459C131.829 679.781 131.093 679.101 130.36 678.418L131.042 677.687C130.919 677.572 130.796 677.458 130.674 677.343C130.553 677.23 130.432 677.117 130.312 677.004L129.628 677.734C128.897 677.05 128.168 676.362 127.442 675.672L128.131 674.947C128.012 674.833 127.892 674.719 127.772 674.605C127.651 674.49 127.529 674.374 127.408 674.258L126.717 674.981C125.993 674.289 125.272 673.594 124.553 672.896L125.249 672.179C125.01 671.947 124.772 671.715 124.533 671.482L123.835 672.198C123.118 671.499 122.404 670.797 121.692 670.092L122.396 669.381C122.159 669.147 121.923 668.912 121.687 668.677L120.981 669.386C120.271 668.679 119.564 667.969 118.859 667.257L119.57 666.554C119.336 666.317 119.102 666.08 118.868 665.843L118.156 666.544C117.453 665.83 116.753 665.113 116.056 664.394L116.774 663.698C116.542 663.459 116.31 663.219 116.079 662.98L115.359 663.674C114.664 662.953 113.971 662.229 113.282 661.503L114.007 660.814C113.777 660.572 113.548 660.331 113.32 660.089L112.593 660.775C111.905 660.047 111.22 659.316 110.537 658.583L111.269 657.902L111.098 657.717C110.928 657.535 110.759 657.352 110.59 657.17L109.856 657.849C109.175 657.114 108.498 656.376 107.823 655.636L108.562 654.962C108.338 654.716 108.114 654.469 107.89 654.223L107.149 654.894C106.476 654.152 105.806 653.408 105.139 652.661L105.885 651.995C105.663 651.746 105.441 651.497 105.22 651.248L104.473 651.912C103.807 651.164 103.145 650.412 102.485 649.658L103.238 649C103.019 648.749 102.8 648.498 102.581 648.247L101.827 648.903C101.169 648.148 100.514 647.389 99.8626 646.629L100.622 645.978C100.405 645.725 100.189 645.472 99.9728 645.218L99.2117 645.867C98.5619 645.105 97.9149 644.34 97.2709 643.572L98.0369 642.929C97.8228 642.674 97.609 642.419 97.3955 642.163L96.6279 642.804C95.986 642.035 95.3471 641.264 94.7111 640.49L95.4837 639.855C95.2722 639.598 95.0611 639.34 94.8503 639.082L94.0761 639.715C93.4421 638.94 92.8111 638.162 92.183 637.382L92.962 636.755C92.7532 636.495 92.5447 636.236 92.3366 635.976L91.556 636.601C90.9299 635.819 90.3068 635.034 89.6867 634.247L90.4721 633.628C90.266 633.367 90.0601 633.105 89.8546 632.843L89.0676 633.46C88.4495 632.671 87.8345 631.88 87.2224 631.087L88.0141 630.476C87.8106 630.212 87.6075 629.948 87.4046 629.684L86.6114 630.293C86.0014 629.498 85.3944 628.701 84.7905 627.901L85.5884 627.299L85.3473 626.979C85.2273 626.82 85.1073 626.66 84.9875 626.501L84.188 627.102C83.5865 626.301 82.9881 625.498 82.3927 624.693L83.1969 624.098C82.9989 623.83 82.8013 623.562 82.604 623.294L81.7984 623.886C81.2051 623.08 80.6148 622.27 80.0276 621.459L80.8379 620.873C80.6426 620.603 80.4478 620.333 80.2532 620.062L79.4415 620.646C78.8564 619.833 78.2744 619.018 77.6955 618.2L78.5117 617.622C78.3192 617.35 78.1271 617.078 77.9353 616.806L77.1176 617.381C76.5408 616.562 75.9671 615.741 75.3965 614.917L76.2186 614.347C76.0289 614.073 75.8396 613.799 75.6506 613.525L74.827 614.092C74.2589 613.267 73.6939 612.44 73.1321 611.611L73.96 611.05L73.7503 610.74C73.6337 610.567 73.5173 610.395 73.401 610.222L72.5716 610.781C72.0122 609.951 71.456 609.118 70.9029 608.283L71.7366 607.731C71.6616 607.618 71.5867 607.504 71.5118 607.391C71.4031 607.227 71.2945 607.062 71.186 606.897L70.3509 607.447C69.8 606.611 69.2522 605.772 68.7076 604.932L69.5469 604.388C69.3658 604.108 69.1851 603.829 69.0048 603.549L68.164 604.09C67.6216 603.248 67.0823 602.403 66.5463 601.557L67.3912 601.022C67.2129 600.74 67.0351 600.458 66.8576 600.176L66.0113 600.709C65.4774 599.861 64.9467 599.011 64.4192 598.158L65.2696 597.632C65.1833 597.492 65.097 597.353 65.0109 597.213C64.922 597.069 64.8333 596.925 64.7446 596.781L63.8928 597.305C63.3684 596.452 62.8473 595.598 62.3294 594.741L63.1852 594.224C63.013 593.939 62.8412 593.654 62.6697 593.368L61.8126 593.883C61.2969 593.025 60.7844 592.165 60.2752 591.303L61.1363 590.794C60.967 590.508 60.7981 590.221 60.6296 589.933L59.7671 590.44C59.2601 589.576 58.7564 588.71 58.256 587.842L59.1223 587.342C58.9559 587.054 58.7899 586.765 58.6242 586.476L57.7566 586.973C57.2584 586.104 56.7634 585.232 56.2718 584.359L57.1433 583.868C56.9798 583.578 56.8167 583.287 56.654 582.996L55.7813 583.484C55.2919 582.61 54.8058 581.733 54.3231 580.854L55.1996 580.372C55.0395 580.081 54.8798 579.789 54.7204 579.497L53.8426 579.976C53.3632 579.098 52.8871 578.217 52.4144 577.335L53.2959 576.863C53.1387 576.569 52.9819 576.276 52.8255 575.982L51.9428 576.452C51.4723 575.568 51.0051 574.682 50.5413 573.795L51.4277 573.332C51.2735 573.037 51.1197 572.741 50.9662 572.446L50.0787 572.906C49.6171 572.017 49.159 571.126 48.7042 570.233L49.5953 569.779C49.4441 569.483 49.2933 569.185 49.1428 568.888L48.2505 569.34C47.798 568.445 47.3489 567.549 46.9031 566.651L47.7989 566.206C47.6507 565.908 47.5029 565.609 47.3555 565.31L46.4586 565.752C46.0157 564.853 45.5762 563.953 45.1402 563.051L46.0405 562.616C45.8958 562.316 45.7515 562.017 45.6075 561.717L44.706 562.149C44.273 561.247 43.8434 560.344 43.4172 559.438L44.3221 559.012C44.1804 558.711 44.0391 558.41 43.8982 558.108L42.9922 558.531C42.5683 557.624 42.1479 556.715 41.7309 555.805L42.6402 555.388C42.5015 555.085 42.3633 554.782 42.2254 554.479L41.3151 554.893C40.9004 553.981 40.4892 553.067 40.0814 552.151L40.995 551.745L40.8821 551.491C40.7843 551.271 40.6868 551.051 40.5895 550.831L39.6748 551.235C39.2694 550.318 38.8675 549.399 38.469 548.478L39.3868 548.081C39.2543 547.775 39.1222 547.469 38.9905 547.162L38.0718 547.557C37.6768 546.638 37.2854 545.717 36.8975 544.794L37.8193 544.406L37.6821 544.08C37.5992 543.882 37.5164 543.684 37.4338 543.486L36.511 543.871C36.1257 542.948 35.7438 542.023 35.3655 541.096L36.2914 540.718C36.1656 540.41 36.0402 540.102 35.9152 539.793L34.9884 540.169C34.6124 539.24 34.24 538.311 33.8711 537.379L34.8008 537.011L34.6756 536.694C34.5949 536.49 34.5144 536.286 34.4341 536.081L33.5034 536.447C33.1368 535.514 32.7738 534.58 32.4144 533.643L33.3479 533.285C33.2284 532.974 33.1093 532.662 32.9906 532.351L32.0561 532.707C31.6991 531.769 31.3456 530.83 30.9956 529.889L31.9329 529.541C31.8168 529.229 31.7012 528.916 31.5859 528.604L30.6477 528.95C30.3017 528.012 29.9593 527.073 29.6204 526.132L30.5613 525.793C30.4487 525.48 30.3364 525.167 30.2245 524.854L29.2828 525.19C28.9463 524.248 28.6134 523.304 28.2841 522.358L29.2285 522.029C29.119 521.715 29.0099 521.401 28.9013 521.086L27.956 521.412C27.6291 520.466 27.3058 519.517 26.9861 518.567L27.9339 518.248C27.8276 517.933 27.7217 517.617 27.6163 517.3L26.6677 517.617C26.3504 516.666 26.0367 515.713 25.7267 514.759L26.6778 514.45C26.5747 514.133 26.472 513.815 26.3698 513.498L25.4179 513.804C25.1106 512.85 24.8069 511.894 24.5068 510.936L25.4611 510.637C25.3618 510.32 25.2629 510.003 25.1643 509.686L24.2093 509.982C23.913 509.028 23.6203 508.072 23.3313 507.114L24.2887 506.825C24.1926 506.507 24.0969 506.188 24.0016 505.869L23.0435 506.156C22.7569 505.197 22.4739 504.237 22.1947 503.275L23.155 502.996C23.0621 502.677 22.9697 502.357 22.8776 502.037L21.9166 502.313C21.6397 501.35 21.3665 500.386 21.097 499.421L22.0602 499.152C21.9706 498.831 21.8814 498.509 21.7927 498.188L20.8288 498.454C20.5617 497.488 20.2983 496.519 20.0387 495.55L21.0047 495.291C20.9183 494.968 20.8324 494.646 20.7469 494.323L19.7803 494.579C19.5238 493.611 19.271 492.642 19.0219 491.671L19.9906 491.422C19.908 491.101 19.8259 490.779 19.7442 490.457L18.7749 490.703C18.5292 489.734 18.2871 488.764 18.0487 487.793L19.0199 487.554C18.9406 487.231 18.8618 486.908 18.7833 486.585L17.8115 486.821C17.5756 485.848 17.3434 484.874 17.1149 483.899L18.0885 483.671C18.0126 483.347 17.937 483.022 17.8619 482.698L16.8877 482.923C16.6616 481.947 16.4393 480.97 16.2208 479.991L17.1968 479.773C17.1241 479.447 17.0519 479.122 16.98 478.796L16.0035 479.011C15.7874 478.031 15.5751 477.05 15.3666 476.067L16.3448 475.86C16.2755 475.533 16.2066 475.206 16.1381 474.879L15.1593 475.084C14.9543 474.106 14.753 473.126 14.5555 472.145L15.5358 471.947C15.4703 471.622 15.4052 471.296 15.3405 470.97L14.3596 471.165C14.165 470.185 13.9741 469.203 13.787 468.221L14.7694 468.034C14.7071 467.707 14.6453 467.38 14.584 467.053L13.6011 467.238C13.4165 466.254 13.2356 465.269 13.0585 464.283L14.0428 464.106C13.9839 463.779 13.9254 463.451 13.8674 463.122L12.8826 463.297C12.708 462.31 12.5372 461.321 12.3702 460.332L13.3562 460.165C13.3007 459.836 13.2456 459.507 13.1909 459.178L12.2044 459.342C12.0399 458.351 11.8792 457.36 11.7223 456.367L12.71 456.211C12.6579 455.881 12.6061 455.551 12.5548 455.22L11.5667 455.374C11.4134 454.387 11.264 453.4 11.1183 452.411L12.1076 452.265C12.0592 451.937 12.0112 451.608 11.9637 451.279L10.974 451.423C10.8309 450.434 10.6916 449.444 10.5561 448.453L11.5469 448.317C11.5019 447.988 11.4572 447.658 11.413 447.328L10.4219 447.461C10.2889 446.469 10.1597 445.476 10.0344 444.482L11.0265 444.357C10.9848 444.026 10.9436 443.695 10.9027 443.365L9.91026 443.487C9.78743 442.492 9.6684 441.496 9.5532 440.498L10.5466 440.384C10.5083 440.052 10.4704 439.72 10.433 439.389L9.43927 439.501C9.32662 438.503 9.2178 437.503 9.11283 436.503L10.1074 436.398C10.0725 436.066 10.0381 435.734 10.0041 435.402L9.0093 435.504C8.90784 434.512 8.81017 433.519 8.71628 432.525L9.71185 432.431C9.68064 432.1 9.64985 431.77 9.61948 431.439L8.62367 431.531C8.53232 430.536 8.44476 429.54 8.36102 428.543L9.35751 428.459C9.32967 428.128 9.30225 427.796 9.27525 427.465L8.27855 427.546C8.19735 426.548 8.11997 425.55 8.04642 424.55L9.04372 424.477C9.01927 424.144 8.99524 423.812 8.97164 423.479L7.97415 423.55C7.90315 422.549 7.836 421.548 7.77269 420.546L8.7707 420.483C8.74965 420.149 8.72903 419.816 8.70884 419.482L7.71067 419.543C7.64993 418.54 7.59305 417.535 7.54004 416.53L8.53865 416.477C8.5211 416.145 8.50399 415.812 8.48729 415.479L7.48855 415.529C7.43864 414.534 7.39252 413.538 7.35021 412.54L8.34931 412.498C8.33525 412.167 8.3216 411.835 8.30838 411.503L7.30917 411.543C7.2694 410.545 7.23345 409.546 7.20132 408.546L8.2008 408.514C8.19012 408.182 8.17986 407.849 8.17003 407.517L7.17046 407.546C7.14089 406.546 7.11514 405.544 7.09324 404.542L8.093 404.52C8.08572 404.187 8.07886 403.854 8.07243 403.52L7.07262 403.539C7.05328 402.536 7.0378 401.533 7.02617 400.528L8.02611 400.516C8.02224 400.182 8.01881 399.848 8.0158 399.514L7.01584 399.523C7.0068 398.517 7.00162 397.511 7.00032 396.504L8.00032 396.502C8.00011 396.335 8 396.167 8 396C8 395.833 8.00011 395.665 8.00032 395.498L7.00032 395.497C7.00162 394.49 7.00679 393.483 7.01584 392.478L8.01579 392.487C8.0188 392.153 8.02224 391.818 8.0261 391.484L7.02617 391.473C7.03779 390.468 7.05327 389.464 7.07261 388.461L8.07242 388.48C8.07885 388.147 8.08571 387.814 8.09299 387.48L7.09323 387.458C7.11513 386.456 7.14087 385.455 7.17045 384.454L8.17001 384.484C8.17985 384.151 8.1901 383.819 8.20079 383.486L7.2013 383.454C7.23343 382.454 7.26939 381.456 7.30915 380.458L8.30836 380.497C8.32158 380.166 8.33523 379.834 8.34929 379.502L7.35019 379.46C7.3925 378.463 7.43862 377.466 7.48852 376.471L8.48727 376.521C8.50396 376.188 8.52108 375.856 8.53862 375.523L7.54001 375.47C7.59302 374.465 7.6499 373.461 7.71064 372.458L8.70881 372.518C8.729 372.185 8.74963 371.851 8.77067 371.518L7.77266 371.455C7.83597 370.452 7.90312 369.451 7.97411 368.451L8.97161 368.521C8.99521 368.189 9.01924 367.856 9.04369 367.524L8.04639 367.451C8.11994 366.451 8.19732 365.452 8.27852 364.455L9.27522 364.536C9.30222 364.204 9.32963 363.872 9.35748 363.541L8.36098 363.457C8.44473 362.46 8.53228 361.465 8.62363 360.47L9.61944 360.561C9.64981 360.231 9.68061 359.9 9.71182 359.57L8.71625 359.475C8.81013 358.481 8.90781 357.489 9.00926 356.497L10.0041 356.599C10.0381 356.266 10.0725 355.934 10.1073 355.602L9.11279 355.498C9.21777 354.497 9.32659 353.498 9.43923 352.5L10.4329 352.612C10.4704 352.28 10.5083 351.948 10.5466 351.617L9.55316 351.502C9.66836 350.504 9.78739 349.508 9.91023 348.513L10.9027 348.636C10.9435 348.305 10.9848 347.974 11.0265 347.644L10.0343 347.518C10.1597 346.524 10.2889 345.531 10.4219 344.539L11.413 344.672C11.4572 344.342 11.5018 344.012 11.5469 343.683L10.5561 343.547C10.6916 342.556 10.8309 341.566 10.974 340.578L11.9636 340.721C12.0112 340.392 12.0592 340.063 12.1076 339.735L11.1183 339.589C11.264 338.6 11.4134 337.613 11.5666 336.627L12.5548 336.78C12.6061 336.45 12.6578 336.119 12.71 335.789L11.7223 335.633C11.8792 334.64 12.0399 333.649 12.2044 332.658L13.1909 332.822C13.2456 332.493 13.3007 332.164 13.3562 331.835L12.3702 331.668C12.5372 330.679 12.708 329.691 12.8826 328.704L13.8673 328.878C13.9254 328.55 13.9838 328.222 14.0427 327.894L13.0585 327.717C13.2356 326.731 13.4165 325.746 13.6011 324.762L14.5839 324.947C14.6453 324.62 14.7071 324.293 14.7693 323.966L13.787 323.779C13.9741 322.797 14.165 321.815 14.3596 320.835L15.3405 321.03C15.4052 320.704 15.4703 320.379 15.5358 320.053L14.5555 319.856C14.753 318.874 14.9543 317.894 15.1593 316.916L16.138 317.121C16.2065 316.794 16.2755 316.467 16.3448 316.14L15.3666 315.933C15.5751 314.95 15.7874 313.969 16.0035 312.989L16.98 313.204C17.0519 312.878 17.1241 312.553 17.1968 312.227L16.2208 312.009C16.4393 311.03 16.6616 310.053 16.8876 309.077L17.8619 309.302C17.937 308.978 18.0126 308.653 18.0885 308.329L17.1149 308.101C17.3434 307.126 17.5756 306.152 17.8115 305.179L18.7833 305.415C18.8618 305.092 18.9406 304.769 19.0199 304.446L18.0487 304.207C18.2871 303.236 18.5292 302.266 18.7749 301.297L19.7442 301.543C19.8259 301.221 19.908 300.899 19.9906 300.578L19.0219 300.329C19.271 299.358 19.5238 298.389 19.7803 297.421L20.7469 297.677C20.8324 297.354 20.9183 297.031 21.0047 296.709L20.0387 296.45C20.2984 295.481 20.5617 294.512 20.8288 293.546L21.7927 293.812C21.8814 293.491 21.9706 293.169 22.0602 292.848L21.097 292.579C21.3665 291.614 21.6397 290.65 21.9166 289.687L22.8776 289.963C22.9697 289.643 23.0621 289.323 23.155 289.004L22.1947 288.725C22.474 287.763 22.7569 286.803 23.0435 285.844L24.0016 286.131C24.0969 285.812 24.1926 285.493 24.2887 285.175L23.3313 284.886C23.6204 283.928 23.913 282.972 24.2093 282.018L25.1644 282.314C25.2629 281.997 25.3618 281.68 25.4611 281.363L24.5068 281.064C24.8069 280.106 25.1106 279.15 25.4179 278.196L26.3698 278.502C26.472 278.185 26.5747 277.867 26.6778 277.55L25.7267 277.241C26.0367 276.287 26.3504 275.334 26.6677 274.383L27.6163 274.7C27.7217 274.383 27.8276 274.067 27.9339 273.752L26.9861 273.433C27.3058 272.483 27.6291 271.534 27.956 270.588L28.9013 270.914C29.0099 270.599 29.119 270.285 29.2285 269.971L28.2841 269.642C28.6134 268.696 28.9463 267.752 29.2828 266.81L30.2245 267.146C30.3364 266.833 30.4486 266.52 30.5613 266.207L29.6204 265.868C29.9593 264.927 30.3017 263.988 30.6477 263.05L31.5858 263.396C31.7011 263.084 31.8168 262.771 31.9329 262.459L30.9956 262.111C31.3455 261.17 31.699 260.231 32.0561 259.293L32.9906 259.649C33.1093 259.338 33.2284 259.026 33.3479 258.715L32.4144 258.357C32.7738 257.42 33.1368 256.486 33.5033 255.553L34.434 255.919C34.5559 255.609 34.6782 255.299 34.8008 254.989L33.8711 254.621C34.24 253.689 34.6124 252.76 34.9884 251.832L35.9152 252.207C36.0402 251.898 36.1656 251.59 36.2913 251.282L35.3655 250.904C35.7438 249.977 36.1256 249.052 36.5109 248.129L37.4338 248.514C37.5619 248.207 37.6904 247.9 37.8193 247.594L36.8974 247.206C37.2854 246.283 37.6768 245.362 38.0717 244.443L38.9905 244.838C39.1222 244.531 39.2543 244.225 39.3867 243.919L38.469 243.522C38.8674 242.601 39.2694 241.682 39.6748 240.765L40.5894 241.17C40.7242 240.865 40.8594 240.56 40.9949 240.256L40.0814 239.849C40.4891 238.933 40.9003 238.019 41.315 237.107L42.2253 237.521C42.3632 237.218 42.5015 236.915 42.6401 236.612L41.7308 236.196C42.1478 235.285 42.5683 234.376 42.9921 233.469L43.8981 233.892C44.039 233.591 44.1803 233.289 44.322 232.988L43.4172 232.562C43.8433 231.657 44.2729 230.753 44.7059 229.851L45.6074 230.283C45.7514 229.984 45.8957 229.684 46.0405 229.385L45.1401 228.949C45.5761 228.047 46.0156 227.147 46.4585 226.248L47.3554 226.691C47.5028 226.391 47.6506 226.093 47.7988 225.794L46.9031 225.349C47.3488 224.451 47.7979 223.555 48.2504 222.661L49.1427 223.112C49.2932 222.815 49.444 222.518 49.5952 222.221L48.7041 221.767C49.1589 220.874 49.617 219.983 50.0786 219.094L50.9661 219.555C51.1196 219.259 51.2734 218.964 51.4276 218.668L50.5412 218.205C51.005 217.318 51.4722 216.432 51.9427 215.548L52.8254 216.018C52.9818 215.724 53.1386 215.431 53.2957 215.137L52.4143 214.665C52.887 213.783 53.3631 212.902 53.8425 212.024L54.7202 212.503C54.8796 212.211 55.0394 211.919 55.1995 211.628L54.323 211.147C54.8057 210.268 55.2918 209.391 55.7811 208.516L56.6539 209.004C56.8166 208.713 56.9797 208.422 57.1431 208.132L56.2717 207.642C56.7633 206.768 57.2582 205.896 57.7565 205.027L58.6241 205.524C58.7898 205.235 58.9558 204.946 59.1221 204.658L58.2558 204.158C58.7563 203.29 59.26 202.424 59.767 201.561L60.6294 202.067C60.798 201.78 60.9669 201.493 61.1362 201.206L60.2751 200.698C60.7843 199.835 61.2967 198.975 61.8124 198.117L62.6695 198.632C62.841 198.347 63.0128 198.062 63.185 197.777L62.3292 197.259C62.8471 196.403 63.3683 195.548 63.8927 194.695L64.7444 195.219C64.8362 195.07 64.9282 194.921 65.0202 194.772C65.1032 194.637 65.1863 194.503 65.2694 194.368L64.419 193.842C64.9465 192.99 65.4772 192.139 66.0111 191.291L66.8574 191.824C67.0349 191.542 67.2127 191.26 67.391 190.979L66.5461 190.444C67.0821 189.597 67.6214 188.753 68.1638 187.91L69.0046 188.452C69.1849 188.172 69.3656 187.892 69.5467 187.612L68.7074 187.069C69.252 186.228 69.7997 185.389 70.3507 184.553L71.1858 185.103C71.369 184.825 71.5525 184.547 71.7364 184.27L70.9027 183.717C71.4558 182.882 72.012 182.05 72.5714 181.219L73.4008 181.778C73.5868 181.502 73.7731 181.226 73.9598 180.951L73.1318 180.39C73.6937 179.56 74.2586 178.733 74.8267 177.908L75.6503 178.476C75.8393 178.201 76.0287 177.927 76.2184 177.653L75.3963 177.084C75.9669 176.26 76.5406 175.438 77.1174 174.619L77.9351 175.195C78.1269 174.922 78.319 174.65 78.5115 174.378L77.6953 173.8C78.2742 172.983 78.8562 172.167 79.4413 171.354L80.253 171.938C80.4475 171.668 80.6424 171.398 80.8376 171.128L80.0274 170.542C80.6145 169.73 81.2048 168.921 81.7981 168.114L82.6038 168.706C82.801 168.438 82.9986 168.17 83.1966 167.902L82.3924 167.308C82.9878 166.502 83.5862 165.699 84.1877 164.899L84.9872 165.5C85.1872 165.233 85.3875 164.967 85.5881 164.702L84.7902 164.099C85.3941 163.299 86.001 162.502 86.611 161.707L87.4043 162.316C87.6072 162.052 87.8103 161.788 88.0138 161.524L87.2221 160.913C87.8341 160.12 88.4492 159.329 89.0673 158.541L89.8543 159.158C90.0598 158.896 90.2656 158.634 90.4718 158.372L89.6864 157.753C90.3065 156.966 90.9296 156.182 91.5556 155.4L92.3363 156.025C92.5444 155.765 92.7529 155.505 92.9617 155.246L92.1827 154.619C92.8108 153.838 93.4418 153.06 94.0758 152.285L94.85 152.918C95.0608 152.66 95.2719 152.403 95.4833 152.145L94.7108 151.51C95.3467 150.737 95.9857 149.965 96.6275 149.196L97.3952 149.837C97.6087 149.582 97.8225 149.326 98.0366 149.071L97.2706 148.428C97.9146 147.661 98.5616 146.896 99.2114 146.133L99.9725 146.782C100.189 146.529 100.405 146.275 100.622 146.022L99.8623 145.372C100.514 144.611 101.169 143.853 101.826 143.097L102.581 143.754C102.799 143.502 103.018 143.251 103.238 143.001L102.485 142.342C103.145 141.588 103.807 140.837 104.472 140.088L105.22 140.752C105.441 140.503 105.663 140.254 105.884 140.006L105.139 139.34C105.806 138.593 106.476 137.848 107.149 137.106L107.89 137.778C108.113 137.531 108.337 137.285 108.562 137.038L107.823 136.365C108.497 135.624 109.175 134.887 109.856 134.152L110.589 134.831C110.816 134.586 111.042 134.342 111.269 134.098L110.537 133.417C111.219 132.684 111.904 131.953 112.592 131.225L113.319 131.912C113.414 131.812 113.508 131.712 113.602 131.612C113.737 131.47 113.872 131.328 114.006 131.186L113.281 130.498C113.971 129.771 114.664 129.048 115.359 128.327L116.079 129.021C116.31 128.781 116.541 128.542 116.773 128.302L116.055 127.606C116.752 126.887 117.452 126.17 118.155 125.456L118.868 126.158C118.964 126.06 119.061 125.962 119.158 125.864C119.295 125.724 119.432 125.585 119.57 125.446L118.859 124.743C119.563 124.031 120.271 123.321 120.981 122.614L121.686 123.323C121.762 123.248 121.838 123.173 121.913 123.098C122.074 122.938 122.235 122.778 122.396 122.619L121.692 121.909C122.403 121.204 123.118 120.502 123.835 119.802L124.533 120.518C124.771 120.286 125.01 120.053 125.249 119.822L124.552 119.104C125.271 118.406 125.993 117.712 126.717 117.02L127.408 117.743C127.649 117.512 127.89 117.283 128.131 117.053L127.442 116.328C128.168 115.638 128.896 114.951 129.628 114.266L130.311 114.996C130.554 114.768 130.798 114.541 131.041 114.314L130.36 113.582C131.093 112.899 131.829 112.219 132.567 111.542L133.243 112.279C133.488 112.053 133.734 111.828 133.98 111.604L133.306 110.865C134.046 110.19 134.789 109.517 135.534 108.847L136.203 109.591C136.45 109.368 136.698 109.146 136.947 108.924L136.28 108.179C137.026 107.511 137.775 106.847 138.527 106.185L139.188 106.935C139.438 106.715 139.688 106.495 139.938 106.276L139.279 105.524C140.033 104.864 140.788 104.207 141.547 103.552L142.2 104.31C142.452 104.092 142.705 103.875 142.958 103.658L142.306 102.899C143.066 102.247 143.829 101.597 144.594 100.951L145.24 101.714C145.494 101.499 145.749 101.285 146.004 101.07L145.361 100.305C146.128 99.66 146.897 99.018 147.669 98.379L148.307 99.1493C148.563 98.9369 148.82 98.7247 149.078 98.5129L148.442 97.7409C149.215 97.1042 149.991 96.4703 150.769 95.8393L151.399 96.6161C151.658 96.4065 151.916 96.1972 152.176 95.9882L151.548 95.2098C152.327 94.5813 153.109 93.9557 153.893 93.333L154.515 94.1161C154.776 93.9091 155.037 93.7024 155.298 93.496L154.678 92.7113C155.464 92.0905 156.253 91.4727 157.043 90.8578L157.657 91.6472C157.92 91.4428 158.183 91.2386 158.447 91.0349L157.835 90.2439C158.627 89.6309 159.422 89.0209 160.22 88.4139L160.825 89.2096C161.091 89.0077 161.356 88.8062 161.622 88.6051L161.018 87.8079C161.817 87.2028 162.618 86.6007 163.422 86.0016L164.02 86.8034C164.287 86.6042 164.554 86.4054 164.822 86.2068L164.227 85.4035C165.031 84.8073 165.837 84.2141 166.646 83.6239L167.236 84.4317C167.504 84.2355 167.774 84.0397 168.043 83.8441L167.456 83.0348C168.266 82.4468 169.078 81.8617 169.893 81.2797L170.475 82.0935C170.746 81.9 171.017 81.7068 171.288 81.514L170.709 80.6987C171.526 80.1187 172.344 79.5417 173.166 78.9678L173.739 79.7874C174.012 79.5966 174.285 79.4061 174.558 79.216L173.988 78.3949C174.81 77.8229 175.635 77.2541 176.463 76.6883L177.027 77.5137C177.302 77.3256 177.578 77.1378 177.853 76.9503L177.291 76.1235C178.12 75.5597 178.951 74.999 179.785 74.4414L180.341 75.2725C180.617 75.0874 180.894 74.9027 181.171 74.7182L180.618 73.8857C181.451 73.3314 182.286 72.7802 183.124 72.232L183.671 73.0688C183.95 72.8866 184.228 72.7047 184.507 72.5231L183.962 71.685C184.801 71.1389 185.642 70.5959 186.486 70.0561L187.025 70.8984C187.306 70.7189 187.586 70.5397 187.867 70.3609L187.33 69.5173C188.175 68.9795 189.023 68.4449 189.872 67.9133L190.403 68.7611C190.685 68.5844 190.968 68.408 191.251 68.232L190.722 67.3829C191.573 66.8534 192.427 66.3272 193.282 65.804L193.804 66.6571C194.088 66.4832 194.373 66.3096 194.658 66.1364L194.138 65.282C194.994 64.7614 195.852 64.2439 196.713 63.7296L197.226 64.588C197.511 64.4174 197.797 64.2471 198.083 64.0771L197.572 63.2174C198.433 62.7063 199.295 62.1983 200.159 61.6936L200.664 62.5571C200.951 62.3893 201.239 62.2218 201.527 62.0546L201.024 61.1898C201.89 60.6872 202.758 60.1877 203.628 59.6914L204.124 60.56C204.413 60.395 204.703 60.2304 204.992 60.0661L204.499 59.1962C205.371 58.7021 206.244 58.2112 207.12 57.7235L207.606 58.5971C207.898 58.4349 208.189 58.2731 208.481 58.1117L207.996 57.2368C208.873 56.7513 209.753 56.269 210.634 55.7899L211.111 56.6685C211.404 56.5092 211.698 56.3503 211.991 56.1917L211.516 55.3119C212.396 54.8361 213.279 54.3635 214.164 53.8941L214.632 54.7775C214.926 54.6216 215.22 54.4661 215.514 54.311L215.048 53.4264C215.933 52.9597 216.82 52.4963 217.709 52.0362L218.169 52.9243C218.465 52.7713 218.76 52.6187 219.056 52.4664L218.599 51.5772C219.49 51.1192 220.382 50.6645 221.276 50.2131L221.727 51.1059C222.024 50.9558 222.322 50.8061 222.62 50.6567L222.171 49.7628C223.067 49.3137 223.965 48.8678 224.865 48.4252L225.306 49.3225C225.605 49.1753 225.904 49.0286 226.204 48.8821L225.765 47.9837C226.666 47.5433 227.569 47.1063 228.474 46.6726L228.906 47.5743C229.207 47.4302 229.508 47.2864 229.809 47.1429L229.379 46.2401C230.282 45.8102 231.186 45.3838 232.093 44.9606L232.516 45.8667C232.817 45.726 233.119 45.5857 233.42 45.4457L233 44.5385C233.907 44.1176 234.817 43.7 235.729 43.2857L236.142 44.1961C236.445 44.0584 236.749 43.921 237.052 43.784L236.641 42.8726C237.553 42.4606 238.468 42.0519 239.385 41.6466L239.789 42.5612C240.094 42.4264 240.399 42.292 240.704 42.158L240.302 41.2424C241.219 40.8394 242.139 40.4397 243.06 40.0435L243.456 40.9621C243.762 40.8303 244.068 40.699 244.375 40.568L243.982 39.6483C244.905 39.2543 245.829 38.8637 246.756 38.4766L247.141 39.3992C247.448 39.2711 247.755 39.1433 248.062 39.0159L247.678 38.0923C248.602 37.7091 249.527 37.3293 250.454 36.9529L250.83 37.8794C251.138 37.7543 251.446 37.6295 251.755 37.5051L251.381 36.5776C252.309 36.2035 253.239 35.8328 254.171 35.4655L254.537 36.3958C254.847 36.2737 255.157 36.152 255.467 36.0306L255.103 35.0994C256.036 34.7344 256.97 34.3728 257.906 34.0147L258.264 34.9487C258.575 34.8297 258.886 34.711 259.198 34.5927L258.843 33.6578C259.781 33.3019 260.72 32.9496 261.661 32.6007L262.008 33.5383C262.321 33.4223 262.634 33.3067 262.947 33.1914L262.602 32.2529C263.542 31.9069 264.485 31.5644 265.428 31.2253L265.767 32.1664C266.079 32.0541 266.392 31.9421 266.705 31.8306L266.369 30.8886C267.311 30.553 268.254 30.2209 269.199 29.8923L269.528 30.8368C269.842 30.7276 270.156 30.6187 270.471 30.5102L270.145 29.5648C271.091 29.2385 272.038 28.9157 272.988 28.5964L273.306 29.5442C273.622 29.438 273.938 29.3322 274.254 29.2268L273.937 28.2782C274.888 27.9612 275.84 27.6477 276.793 27.3377L277.103 28.2887C277.42 28.1857 277.737 28.083 278.054 27.9807L277.748 27.0289C278.702 26.7212 279.659 26.4171 280.617 26.1165L280.916 27.0707C281.234 26.9707 281.553 26.8712 281.872 26.772L281.575 25.8171C282.531 25.5199 283.488 25.2262 284.447 24.9361L284.736 25.8932C285.054 25.797 285.372 25.7012 285.691 25.6057L285.403 24.6478C286.361 24.3608 287.32 24.0772 288.28 23.7972L288.56 24.7572C288.88 24.6641 289.199 24.5714 289.519 24.4791L289.241 23.5183C290.203 23.2407 291.166 22.9665 292.13 22.696L292.401 23.6588C292.721 23.5688 293.042 23.4793 293.363 23.3901L293.095 22.4266C294.061 22.1584 295.028 21.8937 295.997 21.6327L296.257 22.5982C296.579 22.5114 296.901 22.425 297.224 22.339L296.966 21.3728C297.935 21.1141 298.906 20.859 299.879 20.6075L300.129 21.5757C300.453 21.492 300.776 21.4088 301.1 21.326L300.852 20.3572C301.82 20.1095 302.79 19.8653 303.761 19.6247L304.001 20.5953C304.324 20.5154 304.646 20.4359 304.969 20.3568L304.731 19.3856C305.702 19.1476 306.674 18.9133 307.647 18.6825L307.878 19.6556C308.202 19.5789 308.525 19.5025 308.849 19.4266L308.621 18.453C309.596 18.2246 310.572 17.9998 311.549 17.7787L311.77 18.754C312.095 18.6805 312.42 18.6073 312.745 18.5346L312.527 17.5587C313.505 17.3399 314.485 17.1248 315.466 16.9133L315.676 17.8908C316.003 17.8205 316.329 17.7506 316.655 17.681L316.447 16.703C317.429 16.4939 318.412 16.2884 319.397 16.0866L319.598 17.0662C319.925 16.9991 320.253 16.9324 320.58 16.8661L320.382 15.886C321.36 15.6881 322.339 15.4938 323.32 15.3031L323.511 16.2847C323.837 16.2213 324.163 16.1583 324.489 16.0958L324.301 15.1137C325.282 14.9254 326.265 14.7408 327.249 14.5598L327.43 15.5433C327.757 15.4831 328.085 15.4233 328.412 15.3639L328.234 14.38C329.219 14.2014 330.205 14.0264 331.192 13.8551L331.363 14.8404C331.692 14.7834 332.02 14.7269 332.349 14.6707L332.18 13.685C333.169 13.5161 334.158 13.3509 335.149 13.1894L335.31 14.1763C335.64 14.1226 335.969 14.0693 336.299 14.0164L336.14 13.029C337.132 12.8699 338.125 12.7145 339.119 12.5628L339.27 13.5513C339.6 13.501 339.929 13.4512 340.259 13.4017L340.111 12.4128C341.097 12.2648 342.085 12.1204 343.073 11.9796L343.214 12.9697C343.543 12.9229 343.872 12.8765 344.201 12.8305L344.063 11.8401C345.052 11.7018 346.043 11.5672 347.035 11.4362L347.166 12.4276C347.496 12.384 347.826 12.3409 348.156 12.2981L348.027 11.3064C349.02 11.1779 350.014 11.053 351.009 10.9318L351.13 11.9244C351.461 11.8841 351.792 11.8443 352.123 11.8048L352.005 10.8118C353.001 10.6931 353.998 10.578 354.996 10.4667L355.107 11.4605C355.439 11.4235 355.771 11.3869 356.103 11.3506L355.994 10.3565C356.993 10.2476 357.993 10.1425 358.994 10.041L359.095 11.0359C359.426 11.0024 359.757 10.9692 360.088 10.9365L359.99 9.94138C360.982 9.84333 361.975 9.74894 362.97 9.65821L363.061 10.6541C363.391 10.6239 363.722 10.5942 364.053 10.5648L363.965 9.56871C364.96 9.48043 365.956 9.39582 366.953 9.3149L367.034 10.3116C367.366 10.2847 367.698 10.2582 368.029 10.2321L367.951 9.23521C368.949 9.15674 369.948 9.08197 370.948 9.0109L371.019 10.0084C371.351 9.98475 371.684 9.96153 372.017 9.93872L371.948 8.94106C372.949 8.87246 373.951 8.80757 374.954 8.74641L375.015 9.74455C375.348 9.72421 375.682 9.70429 376.015 9.68477L375.957 8.68648C376.96 8.62779 377.965 8.57283 378.97 8.52162L379.021 9.52032C379.353 9.50341 379.685 9.48691 380.017 9.47082L379.969 8.47199C380.965 8.42377 381.961 8.37922 382.958 8.33834L382.999 9.3375C383.331 9.32391 383.663 9.31073 383.994 9.29795L383.956 8.29869C384.954 8.26027 385.953 8.22553 386.953 8.19449L386.984 9.19401C387.316 9.18369 387.649 9.17378 387.982 9.16427L387.953 8.16468C388.954 8.13611 389.955 8.11123 390.958 8.09008L390.979 9.08985C391.312 9.08282 391.645 9.07619 391.979 9.06998L391.96 8.07016C392.963 8.05148 393.967 8.03651 394.972 8.02529L394.983 9.02522C395.317 9.02149 395.652 9.01817 395.986 9.01526L395.977 8.0153C396.983 8.00656 397.989 8.00156 398.996 8.00031L398.998 9.00031C399.165 9.0001 399.332 9 399.5 9C399.667 9 399.835 9.0001 400.002 9.00031L400.003 8.00031C401.01 8.00156 402.017 8.00656 403.022 8.0153L403.014 9.01526C403.348 9.01817 403.682 9.02148 404.016 9.02522L404.027 8.02528C405.032 8.03651 406.036 8.05147 407.039 8.07015L407.021 9.06997C407.354 9.07618 407.688 9.08281 408.021 9.08984L408.042 8.09007C409.044 8.11122 410.046 8.13609 411.046 8.16467L411.018 9.16426C411.351 9.17376 411.683 9.18367 412.016 9.19399L412.047 8.19448C413.047 8.22552 414.046 8.26025 415.044 8.29867L415.005 9.29793C415.337 9.31071 415.669 9.32389 416 9.33748L416.041 8.33832C417.039 8.3792 418.035 8.42375 419.031 8.47197L418.982 9.4708C419.314 9.48689 419.646 9.50339 419.978 9.5203L420.029 8.5216C421.035 8.57281 422.039 8.62777 423.043 8.68646L422.984 9.68475C423.318 9.70426 423.652 9.72419 423.985 9.74453L424.046 8.74638C425.049 8.80755 426.05 8.87244 427.051 8.94104L426.983 9.9387C427.316 9.96151 427.648 9.98473 427.981 10.0084L428.052 9.01087C429.052 9.08194 430.051 9.15672 431.049 9.23518L430.97 10.2321C431.302 10.2582 431.634 10.2847 431.965 10.3116L432.046 9.31488C433.044 9.3958 434.04 9.48041 435.035 9.56869L434.947 10.5648C435.278 10.5941 435.608 10.6239 435.939 10.6541L436.03 9.65819C437.024 9.74891 438.018 9.8433 439.01 9.94135L438.912 10.9365C439.243 10.9692 439.574 11.0023 439.905 11.0359L440.005 10.041C441.007 10.1424 442.007 10.2476 443.005 10.3565L442.897 11.3506C443.229 11.3868 443.561 11.4234 443.893 11.4605L444.004 10.4666C445.002 10.578 445.999 10.693 446.995 10.8118L446.877 11.8048C447.208 11.8442 447.539 11.8841 447.87 11.9244L447.991 10.9318C448.986 11.053 449.98 11.1778 450.972 11.3064L450.844 12.2981C451.174 12.3408 451.504 12.384 451.834 12.4275L451.965 11.4362C452.957 11.5671 453.948 11.7018 454.937 11.8401L454.799 12.8305C455.128 12.8765 455.457 12.9229 455.785 12.9696L455.926 11.9796C456.915 12.1204 457.903 12.2647 458.889 12.4127L458.741 13.4017C459.071 13.4511 459.4 13.501 459.73 13.5513L459.881 12.5628C460.875 12.7145 461.868 12.8699 462.859 13.029L462.701 14.0164C463.031 14.0693 463.36 14.1226 463.69 14.1763L463.851 13.1894C464.842 13.3509 465.831 13.5161 466.819 13.685L466.651 14.6707C466.98 14.7269 467.308 14.7834 467.637 14.8404L467.807 13.8551C468.795 14.0264 469.781 14.2013 470.766 14.3799L470.588 15.3639C470.915 15.4233 471.243 15.4831 471.57 15.5432L471.751 14.5597C472.735 14.7408 473.717 14.9254 474.699 15.1136L474.511 16.0957C474.837 16.1583 475.163 16.2213 475.489 16.2847L475.68 15.3031C476.661 15.4938 477.64 15.6881 478.618 15.8859L478.42 16.8661C478.747 16.9324 479.075 16.9991 479.402 17.0662L479.603 16.0866C480.588 16.2884 481.571 16.4939 482.553 16.703L482.345 17.681C482.671 17.7505 482.997 17.8205 483.324 17.8908L483.534 16.9133C484.515 17.1248 485.495 17.3399 486.473 17.5587L486.255 18.5346C486.58 18.6073 486.905 18.6805 487.23 18.754L487.451 17.7787C488.428 17.9998 489.404 18.2246 490.379 18.453L490.151 19.4266C490.475 19.5025 490.798 19.5789 491.122 19.6556L491.353 18.6825C492.326 18.9133 493.298 19.1476 494.269 19.3856L494.031 20.3568C494.354 20.4359 494.676 20.5154 494.999 20.5953L495.239 19.6247C496.21 19.8653 497.18 20.1095 498.148 20.3572L497.9 21.326C498.224 21.4088 498.548 21.492 498.871 21.5757L499.121 20.6075C500.094 20.859 501.065 21.1141 502.034 21.3728L501.777 22.339C502.099 22.425 502.421 22.5114 502.743 22.5982L503.003 21.6327C503.972 21.8937 504.939 22.1584 505.905 22.4266L505.637 23.3901C505.958 23.4793 506.279 23.5688 506.599 23.6588L506.87 22.696C507.834 22.9665 508.797 23.2407 509.759 23.5183L509.481 24.4791C509.801 24.5714 510.12 24.6641 510.44 24.7572L510.72 23.7972C511.68 24.0772 512.639 24.3608 513.597 24.6478L513.309 25.6057C513.628 25.7012 513.946 25.797 514.264 25.8932L514.553 24.9361C515.512 25.2262 516.469 25.5199 517.425 25.8171L517.128 26.772C517.447 26.8712 517.766 26.9707 518.084 27.0707L518.383 26.1165C519.341 26.4171 520.298 26.7212 521.252 27.0289L520.946 27.9807L521.204 28.0641C521.435 28.1387 521.666 28.2136 521.897 28.2887L522.207 27.3377C523.16 27.6477 524.112 27.9612 525.063 28.2782L524.746 29.2268C525.062 29.3322 525.378 29.438 525.694 29.5442L526.012 28.5964C526.962 28.9157 527.909 29.2385 528.855 29.5648L528.529 30.5102C528.844 30.6187 529.158 30.7275 529.472 30.8368L529.801 29.8923C530.746 30.2209 531.689 30.553 532.63 30.8886L532.295 31.8305C532.608 31.9421 532.921 32.0541 533.233 32.1664L533.572 31.2253C534.515 31.5644 535.458 31.9069 536.398 32.2529L536.053 33.1914C536.366 33.3066 536.679 33.4223 536.992 33.5383L537.339 32.6007C538.28 32.9495 539.219 33.3019 540.157 33.6577L539.802 34.5926C540.114 34.7109 540.425 34.8296 540.736 34.9487L541.094 34.0147C542.03 34.3728 542.964 34.7344 543.897 35.0994L543.533 36.0306C543.843 36.152 544.153 36.2737 544.463 36.3958L544.829 35.4655C545.761 35.8328 546.691 36.2035 547.619 36.5776L547.245 37.5051C547.553 37.6295 547.862 37.7542 548.17 37.8794L548.546 36.9529C549.473 37.3292 550.398 37.709 551.321 38.0922L550.938 39.0158C551.245 39.1432 551.552 39.271 551.858 39.3992L552.244 38.4765C553.17 38.8637 554.095 39.2543 555.017 39.6483L554.625 40.5679C554.931 40.6989 555.238 40.8303 555.544 40.962L555.939 40.0434C556.861 40.4397 557.78 40.8393 558.698 41.2424L558.296 42.158C558.458 42.229 558.619 42.3 558.781 42.3712C558.924 42.4344 559.068 42.4977 559.211 42.5611L559.615 41.6465C560.532 42.0518 561.446 42.4605 562.359 42.8725L561.948 43.784C562.251 43.9209 562.554 44.0583 562.857 44.196L563.271 43.2856C564.183 43.6999 565.092 44.1175 566 44.5385L565.579 45.4457C565.696 45.4995 565.812 45.5535 565.928 45.6074C566.113 45.6937 566.299 45.7801 566.484 45.8666L566.907 44.9605C567.814 45.3837 568.718 45.8102 569.621 46.24L569.191 47.1429C569.492 47.2863 569.793 47.4301 570.094 47.5743L570.526 46.6725C571.431 47.1062 572.334 47.5433 573.235 47.9836L572.796 48.8821C573.095 49.0285 573.395 49.1753 573.694 49.3224L574.135 48.4251C575.035 48.8677 575.933 49.3136 576.828 49.7628L576.38 50.6567C576.678 50.806 576.976 50.9557 577.273 51.1058L577.723 50.213C578.618 50.6644 579.51 51.1191 580.401 51.577L579.943 52.4663C580.061 52.527 580.179 52.5878 580.297 52.6486C580.475 52.7404 580.653 52.8322 580.831 52.9242L581.29 52.0361C582.18 52.4962 583.067 52.9596 583.952 53.4263L583.485 54.3108C583.78 54.466 584.074 54.6215 584.367 54.7774L584.836 53.894C585.721 54.3633 586.604 54.836 587.484 55.3118L587.009 56.1916C587.302 56.3501 587.595 56.5091 587.888 56.6683L588.366 55.7898C589.247 56.2688 590.126 56.7511 591.003 57.2367L590.519 58.1116C590.811 58.273 591.102 58.4348 591.393 58.597L591.88 57.7233C592.755 58.211 593.629 58.7019 594.501 59.196L594.007 60.066C594.297 60.2302 594.587 60.3949 594.876 60.5599L595.371 59.6912C596.241 60.1875 597.109 60.687 597.975 61.1896L597.473 62.0545C597.761 62.2216 598.049 62.3891 598.336 62.5569L598.84 61.6934C599.705 62.1981 600.567 62.7061 601.427 63.2173L600.917 64.0769C601.203 64.2469 601.488 64.4172 601.774 64.5878L602.287 63.7295C603.147 64.2437 604.006 64.7612 604.862 65.2818L604.342 66.1362L604.554 66.2648C604.768 66.3953 604.982 66.526 605.196 66.6569L605.718 65.8038C606.573 66.327 607.426 66.8532 608.277 67.3827L607.749 68.2318L607.962 68.3642C608.174 68.4962 608.385 68.6284 608.597 68.7609L609.127 67.9131C609.977 68.4446 610.824 68.9793 611.669 69.5171L611.132 70.3607C611.413 70.5395 611.694 70.7187 611.975 70.8982L612.514 70.0559C613.357 70.5957 614.199 71.1387 615.038 71.6847L614.492 72.5229C614.655 72.6285 614.817 72.7342 614.979 72.8401C615.095 72.9162 615.212 72.9923 615.328 73.0686L615.876 72.2318C616.714 72.7799 617.549 73.3311 618.382 73.8854L617.828 74.718C618.105 74.9024 618.382 75.0872 618.659 75.2723L619.215 74.4411C620.049 74.9987 620.88 75.5594 621.709 76.1232L621.146 76.9501C621.422 77.1375 621.697 77.3253 621.972 77.5134L622.537 76.688C623.364 77.2538 624.189 77.8227 625.012 78.3946L624.441 79.2157C624.715 79.4058 624.988 79.5963 625.261 79.7872L625.834 78.9675C626.655 79.5415 627.474 80.1184 628.291 80.6985L627.711 81.5137C627.983 81.7065 628.254 81.8997 628.525 82.0932L629.106 81.2794C629.921 81.8615 630.734 82.4465 631.544 83.0345L630.957 83.8439C631.226 84.0394 631.495 84.2352 631.764 84.4314L632.353 83.6236C633.162 84.2138 633.969 84.807 634.773 85.4032L634.178 86.2065C634.445 86.4051 634.713 86.6039 634.98 86.8031L635.578 86.0013C636.381 86.6004 637.183 87.2025 637.982 87.8075L637.378 88.6048C637.644 88.8059 637.909 89.0074 638.174 89.2093L638.78 88.4136C639.577 89.0206 640.372 89.6306 641.165 90.2435L640.553 91.0345C640.816 91.2383 641.079 91.4424 641.342 91.6469L641.956 90.8574C642.747 91.4723 643.535 92.0902 644.321 92.7109L643.702 93.4957C643.833 93.5991 643.963 93.7027 644.094 93.8063C644.224 93.9094 644.355 94.0126 644.485 94.1158L645.106 93.3326C645.891 93.9554 646.672 94.581 647.452 95.2095L646.824 95.9879C647.083 96.1969 647.342 96.4062 647.601 96.6158L648.23 95.839C649.009 96.4699 649.784 97.1038 650.558 97.7406L649.922 98.5126C650.179 98.7244 650.436 98.9365 650.693 99.149L651.331 98.3787C652.103 99.0177 652.872 99.6596 653.639 100.304L652.996 101.07C653.251 101.284 653.505 101.499 653.76 101.714L654.405 100.95C655.17 101.597 655.933 102.246 656.693 102.899L656.042 103.658C656.295 103.875 656.547 104.092 656.799 104.309L657.453 103.552C658.211 104.206 658.967 104.864 659.72 105.524L659.061 106.276C659.312 106.495 659.562 106.715 659.812 106.935L660.473 106.184C661.224 106.846 661.973 107.511 662.72 108.178L662.053 108.924C662.301 109.146 662.549 109.368 662.797 109.59L663.465 108.847C664.211 109.517 664.953 110.189 665.693 110.865L665.019 111.604L665.327 111.884C665.47 112.015 665.613 112.147 665.757 112.278L666.433 111.541C667.171 112.219 667.907 112.899 668.64 113.582L667.958 114.313C668.202 114.541 668.445 114.768 668.688 114.996L669.372 114.266C670.103 114.95 670.832 115.638 671.558 116.328L670.869 117.053C671.11 117.282 671.351 117.512 671.592 117.742L672.283 117.019C673.007 117.711 673.728 118.406 674.447 119.104L673.751 119.821C673.869 119.936 673.987 120.051 674.105 120.166C674.226 120.283 674.346 120.4 674.467 120.518L675.165 119.802C675.882 120.501 676.596 121.203 677.308 121.908L676.604 122.619C676.841 122.853 677.077 123.088 677.313 123.323L678.019 122.614C678.729 123.321 679.436 124.031 680.141 124.743L679.43 125.446C679.664 125.683 679.898 125.92 680.132 126.157L680.844 125.456C681.547 126.17 682.247 126.887 682.944 127.606L682.226 128.302C682.458 128.541 682.69 128.781 682.921 129.02L683.641 128.326C684.336 129.047 685.029 129.771 685.719 130.497L684.993 131.186C685.223 131.428 685.452 131.669 685.68 131.911L686.407 131.225C687.095 131.953 687.78 132.684 688.463 133.417L687.731 134.098L688.003 134.391C688.139 134.538 688.275 134.684 688.41 134.83L689.144 134.151C689.825 134.886 690.502 135.624 691.177 136.364L690.438 137.038C690.662 137.284 690.886 137.531 691.11 137.777L691.851 137.106C692.524 137.848 693.194 138.592 693.861 139.339L693.115 140.006C693.337 140.254 693.559 140.503 693.78 140.752L694.527 140.088C695.193 140.836 695.855 141.588 696.515 142.342L695.762 143C695.981 143.251 696.2 143.502 696.419 143.753L697.173 143.097C697.831 143.852 698.486 144.611 699.137 145.371L698.378 146.022C698.595 146.275 698.811 146.528 699.027 146.782L699.788 146.133C700.438 146.895 701.085 147.66 701.729 148.428L700.963 149.071C701.177 149.326 701.391 149.581 701.604 149.837L702.372 149.196C703.014 149.965 703.653 150.736 704.289 151.51L703.516 152.145C703.728 152.402 703.939 152.66 704.15 152.918L704.924 152.285C705.558 153.06 706.189 153.838 706.817 154.618L706.038 155.245C706.185 155.428 706.331 155.61 706.478 155.792L706.663 156.024L707.444 155.399C708.07 156.181 708.693 156.966 709.313 157.753L708.528 158.372C708.627 158.497 708.726 158.623 708.825 158.749C708.932 158.885 709.039 159.021 709.145 159.157L709.932 158.54C710.55 159.329 711.166 160.12 711.778 160.913L710.986 161.524C711.067 161.63 711.149 161.735 711.23 161.841C711.352 161.999 711.474 162.157 711.595 162.316L712.389 161.707C712.999 162.502 713.606 163.299 714.21 164.099L713.412 164.701C713.612 164.967 713.813 165.233 714.013 165.499L714.812 164.898C715.413 165.699 716.012 166.502 716.607 167.307L715.803 167.902C716.001 168.17 716.199 168.438 716.396 168.706L717.202 168.114C717.795 168.92 718.385 169.73 718.972 170.541L718.162 171.127C718.357 171.397 718.552 171.667 718.747 171.938L719.558 171.354C720.144 172.167 720.726 172.982 721.305 173.8L720.488 174.378L720.732 174.723C720.843 174.88 720.954 175.037 721.065 175.194L721.882 174.619C722.459 175.438 723.033 176.259 723.603 177.083L722.781 177.653C722.971 177.927 723.16 178.201 723.349 178.475L724.173 177.908C724.741 178.733 725.306 179.56 725.868 180.389L725.04 180.95C725.227 181.226 725.413 181.502 725.599 181.778L726.428 181.219C726.988 182.049 727.544 182.882 728.097 183.717L727.263 184.269C727.447 184.547 727.631 184.825 727.814 185.103L728.649 184.553C729.2 185.389 729.748 186.228 730.292 187.068L729.453 187.612C729.634 187.892 729.815 188.171 729.995 188.451L730.836 187.91C731.378 188.752 731.918 189.597 732.454 190.443L731.609 190.978C731.787 191.26 731.965 191.542 732.142 191.824L732.989 191.291C733.523 192.139 734.053 192.989 734.581 193.842L733.73 194.368C733.906 194.652 734.081 194.935 734.255 195.219L735.107 194.695C735.632 195.548 736.153 196.402 736.671 197.259L735.815 197.776C735.987 198.061 736.159 198.346 736.33 198.632L737.187 198.117C737.703 198.975 738.216 199.835 738.725 200.697L737.864 201.206C738.033 201.492 738.202 201.779 738.37 202.067L739.233 201.56C739.74 202.424 740.244 203.29 740.744 204.158L739.878 204.658C740.044 204.946 740.21 205.235 740.376 205.524L741.243 205.027C741.742 205.896 742.237 206.768 742.728 207.641L741.857 208.132C742.02 208.422 742.183 208.713 742.346 209.004L743.219 208.516C743.708 209.39 744.194 210.267 744.677 211.146L743.8 211.628C743.961 211.919 744.12 212.211 744.28 212.503L745.157 212.024C745.637 212.902 746.113 213.783 746.586 214.665L745.704 215.137C745.861 215.431 746.018 215.724 746.174 216.018L747.057 215.548C747.528 216.432 747.995 217.317 748.459 218.205L747.572 218.668C747.727 218.963 747.88 219.259 748.034 219.554L748.921 219.094C749.383 219.983 749.841 220.874 750.296 221.767L749.405 222.221C749.556 222.517 749.707 222.815 749.857 223.112L750.749 222.66C751.202 223.555 751.651 224.451 752.097 225.349L751.201 225.794L751.37 226.135C751.462 226.32 751.553 226.505 751.645 226.69L752.541 226.248C752.984 227.147 753.424 228.047 753.86 228.949L752.959 229.384C753.104 229.684 753.249 229.983 753.392 230.283L754.294 229.851C754.727 230.753 755.157 231.656 755.583 232.562L754.678 232.988C754.82 233.289 754.961 233.59 755.102 233.892L756.008 233.469C756.432 234.376 756.852 235.285 757.269 236.195L756.36 236.612L756.528 236.98C756.61 237.16 756.693 237.34 756.775 237.521L757.685 237.107C758.1 238.019 758.511 238.933 758.919 239.849L758.005 240.255C758.075 240.412 758.144 240.569 758.214 240.726C758.28 240.874 758.345 241.022 758.411 241.169L759.325 240.765C759.731 241.682 760.133 242.601 760.531 243.522L759.613 243.919C759.746 244.225 759.878 244.531 760.009 244.838L760.928 244.443C761.323 245.362 761.715 246.283 762.103 247.206L761.181 247.594C761.31 247.9 761.438 248.207 761.566 248.514L762.489 248.129C762.874 249.052 763.256 249.977 763.634 250.904L762.709 251.282C762.834 251.59 762.96 251.898 763.085 252.207L764.012 251.831C764.388 252.76 764.76 253.689 765.129 254.621L764.199 254.989C764.322 255.299 764.444 255.609 764.566 255.919L765.497 255.553C765.863 256.486 766.226 257.42 766.586 258.357L765.652 258.715C765.772 259.026 765.891 259.338 766.009 259.649L766.944 259.293C767.301 260.231 767.654 261.17 768.004 262.111L767.067 262.459C767.183 262.771 767.299 263.084 767.414 263.396L768.352 263.05C768.698 263.988 769.041 264.927 769.38 265.868L768.439 266.207C768.551 266.52 768.664 266.833 768.775 267.146L769.717 266.81C770.054 267.752 770.387 268.696 770.716 269.642L769.771 269.971C769.881 270.285 769.99 270.599 770.099 270.914L771.044 270.588C771.371 271.534 771.694 272.483 772.014 273.433L771.066 273.752C771.172 274.067 771.278 274.383 771.384 274.7L772.332 274.383C772.65 275.334 772.963 276.287 773.273 277.241L772.322 277.55C772.425 277.867 772.528 278.185 772.63 278.502L773.582 278.196C773.889 279.15 774.193 280.106 774.493 281.064L773.539 281.363C773.638 281.68 773.737 281.997 773.836 282.314L774.791 282.018C775.087 282.972 775.38 283.928 775.669 284.886L774.711 285.175C774.775 285.385 774.838 285.596 774.901 285.807L774.998 286.131L775.956 285.844C776.243 286.803 776.526 287.763 776.805 288.725L775.845 289.004C775.938 289.323 776.03 289.643 776.122 289.963L777.083 289.687C777.36 290.65 777.633 291.614 777.903 292.579L776.94 292.848C777.029 293.169 777.119 293.491 777.207 293.812L778.171 293.546C778.438 294.512 778.702 295.481 778.961 296.451L777.995 296.709L778.061 296.954C778.125 297.195 778.189 297.436 778.253 297.677L779.22 297.421C779.476 298.389 779.729 299.358 779.978 300.329L779.009 300.578C779.092 300.899 779.174 301.221 779.256 301.543L780.225 301.297C780.471 302.266 780.713 303.236 780.951 304.207L779.98 304.446C780.059 304.769 780.138 305.092 780.217 305.415L781.188 305.179C781.424 306.152 781.657 307.126 781.885 308.101L780.911 308.329C780.987 308.653 781.063 308.978 781.138 309.302L782.112 309.077C782.338 310.053 782.561 311.03 782.779 312.009L781.803 312.227C781.876 312.553 781.948 312.878 782.02 313.204L782.997 312.989C783.213 313.969 783.425 314.95 783.633 315.933L782.655 316.14C782.725 316.467 782.793 316.794 782.862 317.121L783.841 316.916C784.046 317.894 784.247 318.874 784.445 319.856L783.464 320.053C783.5 320.23 783.535 320.408 783.571 320.585L783.66 321.03L784.64 320.835C784.835 321.815 785.026 322.797 785.213 323.779L784.231 323.966C784.258 324.112 784.286 324.257 784.313 324.402C784.348 324.584 784.382 324.765 784.416 324.947L785.399 324.762C785.583 325.746 785.764 326.731 785.942 327.717L784.957 327.894C785.016 328.221 785.075 328.549 785.133 328.878L786.117 328.703C786.292 329.69 786.463 330.679 786.63 331.668L785.644 331.835C785.699 332.164 785.754 332.493 785.809 332.822L786.796 332.658C786.96 333.649 787.121 334.64 787.278 335.633L786.29 335.789C786.342 336.119 786.394 336.449 786.445 336.78L787.433 336.626C787.587 337.613 787.736 338.6 787.882 339.589L786.892 339.735C786.941 340.063 786.989 340.392 787.036 340.721L788.026 340.577C788.169 341.566 788.308 342.556 788.444 343.547L787.453 343.683C787.498 344.012 787.543 344.342 787.587 344.672L788.578 344.539C788.711 345.531 788.84 346.524 788.966 347.518L787.974 347.643C788.015 347.974 788.056 348.305 788.097 348.635L789.09 348.513C789.213 349.508 789.332 350.504 789.447 351.502L788.453 351.616C788.492 351.948 788.53 352.28 788.567 352.611L789.561 352.499C789.673 353.497 789.782 354.497 789.887 355.497L788.893 355.602C788.927 355.934 788.962 356.266 788.996 356.598L789.991 356.496C790.092 357.488 790.19 358.481 790.284 359.475L789.288 359.569C789.319 359.9 789.35 360.23 789.38 360.561L790.376 360.469C790.468 361.464 790.555 362.46 790.639 363.457L789.643 363.541C789.67 363.872 789.698 364.204 789.725 364.535L790.721 364.454C790.803 365.452 790.88 366.45 790.954 367.45L789.956 367.523C789.981 367.856 790.005 368.188 790.028 368.521L791.026 368.45C791.097 369.451 791.164 370.452 791.227 371.454L790.229 371.517L790.254 371.913C790.267 372.115 790.279 372.316 790.291 372.518L791.289 372.457C791.35 373.46 791.407 374.465 791.46 375.47L790.461 375.523C790.479 375.855 790.496 376.188 790.513 376.521L791.511 376.471C791.561 377.466 791.607 378.462 791.65 379.46L790.651 379.502C790.665 379.833 790.678 380.165 790.692 380.497L791.691 380.457C791.731 381.455 791.767 382.454 791.799 383.454L790.799 383.486C790.81 383.818 790.82 384.151 790.83 384.483L791.83 384.454C791.859 385.454 791.885 386.456 791.907 387.458L790.907 387.48C790.914 387.813 790.921 388.146 790.928 388.48L791.927 388.461C791.947 389.464 791.962 390.467 791.974 391.472L790.974 391.484C790.978 391.818 790.981 392.152 790.984 392.486L791.984 392.477Z" stroke="#FF7ADE" stroke-width="2" stroke-dasharray="1 3" shape-rendering="crispEdges"/>
</g>
<g filter="url(#filter1_d_36_72)">
<line x1="400" y1="10" x2="400" y2="784" stroke="#FF7ADE" stroke-width="2" stroke-dasharray="1 3"/>
</g>
<g filter="url(#filter2_d_36_72)">
<line x1="786" y1="398" x2="12" y2="398" stroke="#FF7ADE" stroke-width="2" stroke-dasharray="1 3"/>
</g>
<g filter="url(#filter3_d_36_72)">
<path d="M401.5 10C251.534 326.304 256.374 495.319 401.5 784" stroke="#FF7ADE" stroke-width="2" stroke-linecap="round" stroke-dasharray="1 3"/>
</g>
<g filter="url(#filter4_d_36_72)">
<path d="M401 8C550.966 324.304 546.126 493.319 401 782" stroke="#FF7ADE" stroke-width="2" stroke-linecap="round" stroke-dasharray="1 3"/>
</g>
<g filter="url(#filter5_d_36_72)">
<path d="M401.5 10C125.197 213.916 97.7384 537.051 401.5 784" stroke="#FF7ADE" stroke-width="2" stroke-linecap="round" stroke-dasharray="1 3"/>
</g>
<g filter="url(#filter6_d_36_72)">
<path d="M401 8C677.303 211.916 704.762 535.051 401 782" stroke="#FF7ADE" stroke-width="2" stroke-linecap="round" stroke-dasharray="1 3"/>
</g>
<g filter="url(#filter7_d_36_72)">
<path d="M401.5 10C-22.5 204 -45.5 605.5 401.5 784" stroke="#FF7ADE" stroke-width="2" stroke-linecap="round" stroke-dasharray="1 3"/>
</g>
<g filter="url(#filter8_d_36_72)">
<path d="M701 642C550.362 497.933 238.603 490.118 100 642" stroke="#FF7ADE" stroke-width="2" stroke-linecap="round" stroke-dasharray="1 3"/>
</g>
<g filter="url(#filter9_d_36_72)">
<path d="M701 153C550.362 297.067 238.603 304.882 100 153" stroke="#FF7ADE" stroke-width="2" stroke-linecap="round" stroke-dasharray="1 3"/>
</g>
<g filter="url(#filter10_d_36_72)">
<path d="M401 8C825 202 848 603.5 401 782" stroke="#FF7ADE" stroke-width="2" stroke-linecap="round" stroke-dasharray="1 3"/>
</g>
<defs>
<filter id="filter0_d_36_72" x="0.6" y="1.6" width="797.8" height="788.8" filterUnits="userSpaceOnUse" color-interpolation-filters="sRGB">
<feFlood flood-opacity="0" result="BackgroundImageFix"/>
<feColorMatrix in="SourceAlpha" type="matrix" values="0 0 0 0 0 0 0 0 0 0 0 0 0 0 0 0 0 0 127 0" result="hardAlpha"/>
<feOffset/>
<feGaussianBlur stdDeviation="3.2"/>
<feComposite in2="hardAlpha" operator="out"/>
<feColorMatrix type="matrix" values="0 0 0 0 1 0 0 0 0 0.0111109 0 0 0 0 0.752778 0 0 0 1 0"/>
<feBlend mode="normal" in2="BackgroundImageFix" result="effect1_dropShadow_36_72"/>
<feBlend mode="normal" in="SourceGraphic" in2="effect1_dropShadow_36_72" result="shape"/>
</filter>
<filter id="filter1_d_36_72" x="392.6" y="3.6" width="14.8" height="786.8" filterUnits="userSpaceOnUse" color-interpolation-filters="sRGB">
<feFlood flood-opacity="0" result="BackgroundImageFix"/>
<feColorMatrix in="SourceAlpha" type="matrix" values="0 0 0 0 0 0 0 0 0 0 0 0 0 0 0 0 0 0 127 0" result="hardAlpha"/>
<feOffset/>
<feGaussianBlur stdDeviation="3.2"/>
<feComposite in2="hardAlpha" operator="out"/>
<feColorMatrix type="matrix" values="0 0 0 0 1 0 0 0 0 0.0111109 0 0 0 0 0.752778 0 0 0 1 0"/>
<feBlend mode="normal" in2="BackgroundImageFix" result="effect1_dropShadow_36_72"/>
<feBlend mode="normal" in="SourceGraphic" in2="effect1_dropShadow_36_72" result="shape"/>
</filter>
<filter id="filter2_d_36_72" x="5.6" y="390.6" width="786.8" height="14.8" filterUnits="userSpaceOnUse" color-interpolation-filters="sRGB">
<feFlood flood-opacity="0" result="BackgroundImageFix"/>
<feColorMatrix in="SourceAlpha" type="matrix" values="0 0 0 0 0 0 0 0 0 0 0 0 0 0 0 0 0 0 127 0" result="hardAlpha"/>
<feOffset/>
<feGaussianBlur stdDeviation="3.2"/>
<feComposite in2="hardAlpha" operator="out"/>
<feColorMatrix type="matrix" values="0 0 0 0 1 0 0 0 0 0.0111109 0 0 0 0 0.752778 0 0 0 1 0"/>
<feBlend mode="normal" in2="BackgroundImageFix" result="effect1_dropShadow_36_72"/>
<feBlend mode="normal" in="SourceGraphic" in2="effect1_dropShadow_36_72" result="shape"/>
</filter>
<filter id="filter3_d_36_72" x="283.433" y="2.6" width="125.467" height="788.8" filterUnits="userSpaceOnUse" color-interpolation-filters="sRGB">
<feFlood flood-opacity="0" result="BackgroundImageFix"/>
<feColorMatrix in="SourceAlpha" type="matrix" values="0 0 0 0 0 0 0 0 0 0 0 0 0 0 0 0 0 0 127 0" result="hardAlpha"/>
<feOffset/>
<feGaussianBlur stdDeviation="3.2"/>
<feComposite in2="hardAlpha" operator="out"/>
<feColorMatrix type="matrix" values="0 0 0 0 1 0 0 0 0 0.0111109 0 0 0 0 0.752778 0 0 0 1 0"/>
<feBlend mode="normal" in2="BackgroundImageFix" result="effect1_dropShadow_36_72"/>
<feBlend mode="normal" in="SourceGraphic" in2="effect1_dropShadow_36_72" result="shape"/>
</filter>
<filter id="filter4_d_36_72" x="393.6" y="0.6" width="125.467" height="788.8" filterUnits="userSpaceOnUse" color-interpolation-filters="sRGB">
<feFlood flood-opacity="0" result="BackgroundImageFix"/>
<feColorMatrix in="SourceAlpha" type="matrix" values="0 0 0 0 0 0 0 0 0 0 0 0 0 0 0 0 0 0 127 0" result="hardAlpha"/>
<feOffset/>
<feGaussianBlur stdDeviation="3.2"/>
<feComposite in2="hardAlpha" operator="out"/>
<feColorMatrix type="matrix" values="0 0 0 0 1 0 0 0 0 0.0111109 0 0 0 0 0.752778 0 0 0 1 0"/>
<feBlend mode="normal" in2="BackgroundImageFix" result="effect1_dropShadow_36_72"/>
<feBlend mode="normal" in="SourceGraphic" in2="effect1_dropShadow_36_72" result="shape"/>
</filter>
<filter id="filter5_d_36_72" x="176.454" y="2.6" width="232.446" height="788.8" filterUnits="userSpaceOnUse" color-interpolation-filters="sRGB">
<feFlood flood-opacity="0" result="BackgroundImageFix"/>
<feColorMatrix in="SourceAlpha" type="matrix" values="0 0 0 0 0 0 0 0 0 0 0 0 0 0 0 0 0 0 127 0" result="hardAlpha"/>
<feOffset/>
<feGaussianBlur stdDeviation="3.2"/>
<feComposite in2="hardAlpha" operator="out"/>
<feColorMatrix type="matrix" values="0 0 0 0 1 0 0 0 0 0.0111109 0 0 0 0 0.752778 0 0 0 1 0"/>
<feBlend mode="normal" in2="BackgroundImageFix" result="effect1_dropShadow_36_72"/>
<feBlend mode="normal" in="SourceGraphic" in2="effect1_dropShadow_36_72" result="shape"/>
</filter>
<filter id="filter6_d_36_72" x="393.6" y="0.6" width="232.446" height="788.8" filterUnits="userSpaceOnUse" color-interpolation-filters="sRGB">
<feFlood flood-opacity="0" result="BackgroundImageFix"/>
<feColorMatrix in="SourceAlpha" type="matrix" values="0 0 0 0 0 0 0 0 0 0 0 0 0 0 0 0 0 0 127 0" result="hardAlpha"/>
<feOffset/>
<feGaussianBlur stdDeviation="3.2"/>
<feComposite in2="hardAlpha" operator="out"/>
<feColorMatrix type="matrix" values="0 0 0 0 1 0 0 0 0 0.0111109 0 0 0 0 0.752778 0 0 0 1 0"/>
<feBlend mode="normal" in2="BackgroundImageFix" result="effect1_dropShadow_36_72"/>
<feBlend mode="normal" in="SourceGraphic" in2="effect1_dropShadow_36_72" result="shape"/>
</filter>
<filter id="filter7_d_36_72" x="67.4181" y="2.6" width="341.482" height="788.8" filterUnits="userSpaceOnUse" color-interpolation-filters="sRGB">
<feFlood flood-opacity="0" result="BackgroundImageFix"/>
<feColorMatrix in="SourceAlpha" type="matrix" values="0 0 0 0 0 0 0 0 0 0 0 0 0 0 0 0 0 0 127 0" result="hardAlpha"/>
<feOffset/>
<feGaussianBlur stdDeviation="3.2"/>
<feComposite in2="hardAlpha" operator="out"/>
<feColorMatrix type="matrix" values="0 0 0 0 1 0 0 0 0 0.0111109 0 0 0 0 0.752778 0 0 0 1 0"/>
<feBlend mode="normal" in2="BackgroundImageFix" result="effect1_dropShadow_36_72"/>
<feBlend mode="normal" in="SourceGraphic" in2="effect1_dropShadow_36_72" result="shape"/>
</filter>
<filter id="filter8_d_36_72" x="92.6" y="523.6" width="615.8" height="125.8" filterUnits="userSpaceOnUse" color-interpolation-filters="sRGB">
<feFlood flood-opacity="0" result="BackgroundImageFix"/>
<feColorMatrix in="SourceAlpha" type="matrix" values="0 0 0 0 0 0 0 0 0 0 0 0 0 0 0 0 0 0 127 0" result="hardAlpha"/>
<feOffset/>
<feGaussianBlur stdDeviation="3.2"/>
<feComposite in2="hardAlpha" operator="out"/>
<feColorMatrix type="matrix" values="0 0 0 0 1 0 0 0 0 0.0111109 0 0 0 0 0.752778 0 0 0 1 0"/>
<feBlend mode="normal" in2="BackgroundImageFix" result="effect1_dropShadow_36_72"/>
<feBlend mode="normal" in="SourceGraphic" in2="effect1_dropShadow_36_72" result="shape"/>
</filter>
<filter id="filter9_d_36_72" x="92.6" y="145.6" width="615.8" height="125.8" filterUnits="userSpaceOnUse" color-interpolation-filters="sRGB">
<feFlood flood-opacity="0" result="BackgroundImageFix"/>
<feColorMatrix in="SourceAlpha" type="matrix" values="0 0 0 0 0 0 0 0 0 0 0 0 0 0 0 0 0 0 127 0" result="hardAlpha"/>
<feOffset/>
<feGaussianBlur stdDeviation="3.2"/>
<feComposite in2="hardAlpha" operator="out"/>
<feColorMatrix type="matrix" values="0 0 0 0 1 0 0 0 0 0.0111109 0 0 0 0 0.752778 0 0 0 1 0"/>
<feBlend mode="normal" in2="BackgroundImageFix" result="effect1_dropShadow_36_72"/>
<feBlend mode="normal" in="SourceGraphic" in2="effect1_dropShadow_36_72" result="shape"/>
</filter>
<filter id="filter10_d_36_72" x="393.6" y="0.6" width="341.482" height="788.8" filterUnits="userSpaceOnUse" color-interpolation-filters="sRGB">
<feFlood flood-opacity="0" result="BackgroundImageFix"/>
<feColorMatrix in="SourceAlpha" type="matrix" values="0 0 0 0 0 0 0 0 0 0 0 0 0 0 0 0 0 0 127 0" result="hardAlpha"/>
<feOffset/>
<feGaussianBlur stdDeviation="3.2"/>
<feComposite in2="hardAlpha" operator="out"/>
<feColorMatrix type="matrix" values="0 0 0 0 1 0 0 0 0 0.0111109 0 0 0 0 0.752778 0 0 0 1 0"/>
<feBlend mode="normal" in2="BackgroundImageFix" result="effect1_dropShadow_36_72"/>
<feBlend mode="normal" in="SourceGraphic" in2="effect1_dropShadow_36_72" result="shape"/>
</filter>
</defs>
</svg>
