<svg xmlns="http://www.w3.org/2000/svg" xmlns:xlink="http://www.w3.org/1999/xlink" width="203" zoomAndPan="magnify" viewBox="0 0 152.25 287.249989" height="383" preserveAspectRatio="xMidYMid meet" version="1.0"><defs><clipPath id="1bd9dba5bf"><path d="M 32.398438 170.652344 L 118.746094 170.652344 L 118.746094 233.808594 L 32.398438 233.808594 Z M 32.398438 170.652344 " clip-rule="nonzero"/></clipPath><clipPath id="05d0989d0b"><path d="M 75.496094 170.652344 C 51.695312 170.652344 32.398438 184.789062 32.398438 202.230469 C 32.398438 219.671875 51.695312 233.808594 75.496094 233.808594 C 99.296875 233.808594 118.59375 219.671875 118.59375 202.230469 C 118.59375 184.789062 99.296875 170.652344 75.496094 170.652344 Z M 75.496094 170.652344 " clip-rule="nonzero"/></clipPath><clipPath id="af63b91e19"><path d="M 69 200 L 110 200 L 110 285 L 69 285 Z M 69 200 " clip-rule="nonzero"/></clipPath><clipPath id="932d7674f9"><path d="M 68.734375 201.601562 L 101.316406 194.867188 L 118.59375 278.414062 L 86.007812 285.148438 Z M 68.734375 201.601562 " clip-rule="nonzero"/></clipPath><clipPath id="7461f1f167"><path d="M 68.734375 201.601562 L 101.316406 194.867188 L 118.59375 278.414062 L 86.007812 285.148438 Z M 68.734375 201.601562 " clip-rule="nonzero"/></clipPath><clipPath id="66b4b35126"><path d="M 63 222 L 133 222 L 133 278 L 63 278 Z M 63 222 " clip-rule="nonzero"/></clipPath><clipPath id="fc1665f5b8"><path d="M 61.246094 227.4375 L 81.382812 200.949219 L 149.300781 252.578125 L 129.164062 279.066406 Z M 61.246094 227.4375 " clip-rule="nonzero"/></clipPath><clipPath id="c44f51b611"><path d="M 61.246094 227.4375 L 81.382812 200.949219 L 149.300781 252.578125 L 129.164062 279.066406 Z M 61.246094 227.4375 " clip-rule="nonzero"/></clipPath><clipPath id="88e40f6db2"><path d="M 15 225 L 91 225 L 91 275 L 15 275 Z M 15 225 " clip-rule="nonzero"/></clipPath><clipPath id="b967f5d45a"><path d="M 19.050781 275.925781 L 2.359375 247.144531 L 76.160156 204.34375 L 92.851562 233.125 Z M 19.050781 275.925781 " clip-rule="nonzero"/></clipPath><clipPath id="5300812762"><path d="M 92.851562 233.125 L 76.160156 204.34375 L 2.359375 247.144531 L 19.050781 275.925781 Z M 92.851562 233.125 " clip-rule="nonzero"/></clipPath><clipPath id="85a9c35ab9"><path d="M 40 200 L 81 200 L 81 285 L 40 285 Z M 40 200 " clip-rule="nonzero"/></clipPath><clipPath id="dd7084daec"><path d="M 65.097656 285.820312 L 32.398438 279.671875 L 48.167969 195.828125 L 80.867188 201.976562 Z M 65.097656 285.820312 " clip-rule="nonzero"/></clipPath><clipPath id="5b8206ee62"><path d="M 80.867188 201.976562 L 48.167969 195.828125 L 32.398438 279.671875 L 65.097656 285.820312 Z M 80.867188 201.976562 " clip-rule="nonzero"/></clipPath><clipPath id="ae71db520f"><path d="M 20 169 L 81 169 L 81 235 L 20 235 Z M 20 169 " clip-rule="nonzero"/></clipPath><clipPath id="476ba44033"><path d="M 81.929688 230.289062 L 57.269531 252.621094 L 0 189.386719 L 24.660156 167.054688 Z M 81.929688 230.289062 " clip-rule="nonzero"/></clipPath><clipPath id="6a96585756"><path d="M 24.660156 167.054688 L 0 189.386719 L 57.269531 252.621094 L 81.929688 230.289062 Z M 24.660156 167.054688 " clip-rule="nonzero"/></clipPath><clipPath id="921fd49169"><path d="M 33 152 L 83 152 L 83 226 L 33 226 Z M 33 152 " clip-rule="nonzero"/></clipPath><clipPath id="7a2fa7bebd"><path d="M 84.28125 222.679688 L 56.042969 240.277344 L 10.925781 167.871094 L 39.164062 150.273438 Z M 84.28125 222.679688 " clip-rule="nonzero"/></clipPath><clipPath id="7aa3caf604"><path d="M 39.164062 150.273438 L 10.925781 167.871094 L 56.042969 240.277344 L 84.28125 222.679688 Z M 39.164062 150.273438 " clip-rule="nonzero"/></clipPath><clipPath id="5083839c06"><path d="M 70 151 L 120 151 L 120 227 L 70 227 Z M 70 151 " clip-rule="nonzero"/></clipPath><clipPath id="08bf8e5acb"><path d="M 98.417969 240.136719 L 69.578125 223.539062 L 112.128906 149.59375 L 140.96875 166.191406 Z M 98.417969 240.136719 " clip-rule="nonzero"/></clipPath><clipPath id="7b87887fa3"><path d="M 112.128906 149.59375 L 140.96875 166.191406 L 98.417969 240.136719 L 69.578125 223.539062 Z M 112.128906 149.59375 " clip-rule="nonzero"/></clipPath><clipPath id="32c4021019"><path d="M 73 171 L 132 171 L 132 236 L 73 236 Z M 73 171 " clip-rule="nonzero"/></clipPath><clipPath id="120a8c4d04"><path d="M 95.816406 253.046875 L 71.644531 231.445312 L 127.074219 169.425781 L 151.246094 191.027344 Z M 95.816406 253.046875 " clip-rule="nonzero"/></clipPath><clipPath id="e39df30a3f"><path d="M 127.035156 169.488281 L 151.207031 191.09375 L 95.777344 253.113281 L 71.605469 231.507812 Z M 127.035156 169.488281 " clip-rule="nonzero"/></clipPath><clipPath id="7fd66df0b4"><path d="M 47.535156 202.230469 L 102.546875 202.230469 L 102.546875 254.585938 L 47.535156 254.585938 Z M 47.535156 202.230469 " clip-rule="nonzero"/></clipPath><clipPath id="2475d6cf3b"><path d="M 75.007812 202.230469 C 59.835938 202.230469 47.535156 213.949219 47.535156 228.40625 C 47.535156 242.863281 59.835938 254.585938 75.007812 254.585938 C 90.179688 254.585938 102.480469 242.863281 102.480469 228.40625 C 102.480469 213.949219 90.179688 202.230469 75.007812 202.230469 Z M 75.007812 202.230469 " clip-rule="nonzero"/></clipPath><clipPath id="c3a5c56567"><path d="M 74 0.332031 L 78 0.332031 L 78 211 L 74 211 Z M 74 0.332031 " clip-rule="nonzero"/></clipPath><clipPath id="6a14a5db59"><path d="M 53.480469 234 L 63 234 L 63 244 L 53.480469 244 Z M 53.480469 234 " clip-rule="nonzero"/></clipPath><clipPath id="bc08e50b59"><path d="M 88 234 L 97.515625 234 L 97.515625 243 L 88 243 Z M 88 234 " clip-rule="nonzero"/></clipPath><clipPath id="0c9990d639"><path d="M 70 238 L 81 238 L 81 245.898438 L 70 245.898438 Z M 70 238 " clip-rule="nonzero"/></clipPath></defs><g clip-path="url(#1bd9dba5bf)"><g clip-path="url(#05d0989d0b)"><path fill="#77bdc6" d="M 32.398438 170.652344 L 118.5 170.652344 L 118.5 233.808594 L 32.398438 233.808594 Z M 32.398438 170.652344 " fill-opacity="1" fill-rule="nonzero"/></g></g><g clip-path="url(#af63b91e19)"><g clip-path="url(#932d7674f9)"><g clip-path="url(#7461f1f167)"><path fill="#77bdc6" d="M 85.625 282.839844 L 102.652344 238.265625 L 69.363281 204.191406 L 74.507812 200.503906 L 109.933594 236.761719 L 91.808594 284.183594 Z M 85.625 282.839844 " fill-opacity="1" fill-rule="nonzero"/></g></g></g><g clip-path="url(#66b4b35126)"><g clip-path="url(#fc1665f5b8)"><g clip-path="url(#c44f51b611)"><path fill="#77bdc6" d="M 127.355469 277.578125 L 110.90625 232.789062 L 63.421875 228.972656 L 64.875 222.816406 L 115.40625 226.871094 L 132.902344 274.53125 Z M 127.355469 277.578125 " fill-opacity="1" fill-rule="nonzero"/></g></g></g><g clip-path="url(#88e40f6db2)"><g clip-path="url(#b967f5d45a)"><g clip-path="url(#5300812762)"><path fill="#77bdc6" d="M 21.027344 274.671875 L 42.910156 232.273438 L 90.503906 234.382812 L 89.824219 228.089844 L 39.183594 225.839844 L 15.902344 270.960938 Z M 21.027344 274.671875 " fill-opacity="1" fill-rule="nonzero"/></g></g></g><g clip-path="url(#85a9c35ab9)"><g clip-path="url(#dd7084daec)"><g clip-path="url(#5b8206ee62)"><path fill="#77bdc6" d="M 65.441406 283.503906 L 47.613281 239.242188 L 80.285156 204.574219 L 75.074219 200.980469 L 40.308594 237.871094 L 59.28125 284.960938 Z M 65.441406 283.503906 " fill-opacity="1" fill-rule="nonzero"/></g></g></g><g clip-path="url(#ae71db520f)"><g clip-path="url(#476ba44033)"><g clip-path="url(#6a96585756)"><path fill="#77bdc6" d="M 80.292969 228.613281 L 34.257812 216.070312 L 26.378906 169.085938 L 20.367188 171.0625 L 28.746094 221.058594 L 77.730469 234.402344 Z M 80.292969 228.613281 " fill-opacity="1" fill-rule="nonzero"/></g></g></g><g clip-path="url(#921fd49169)"><g clip-path="url(#7a2fa7bebd)"><g clip-path="url(#7aa3caf604)"><path fill="#77bdc6" d="M 82.96875 220.742188 L 39.894531 200.214844 L 40.496094 152.582031 L 34.226562 153.457031 L 33.585938 204.144531 L 79.417969 225.984375 Z M 82.96875 220.742188 " fill-opacity="1" fill-rule="nonzero"/></g></g></g><g clip-path="url(#5083839c06)"><g clip-path="url(#08bf8e5acb)"><g clip-path="url(#7b87887fa3)"><path fill="#77bdc6" d="M 70.824219 221.558594 L 113.152344 199.53125 L 110.882812 151.949219 L 117.175781 152.605469 L 119.597656 203.238281 L 74.554688 226.667969 Z M 70.824219 221.558594 " fill-opacity="1" fill-rule="nonzero"/></g></g></g><g clip-path="url(#32c4021019)"><g clip-path="url(#120a8c4d04)"><g clip-path="url(#e39df30a3f)"><path fill="#77bdc6" d="M 73.246094 229.808594 L 118 217.292969 L 125.371094 171.484375 L 131.238281 173.371094 L 123.398438 222.117188 L 75.777344 235.425781 Z M 73.246094 229.808594 " fill-opacity="1" fill-rule="nonzero"/></g></g></g><g clip-path="url(#7fd66df0b4)"><g clip-path="url(#2475d6cf3b)"><path fill="#77bdc6" d="M 47.535156 202.230469 L 102.546875 202.230469 L 102.546875 254.585938 L 47.535156 254.585938 Z M 47.535156 202.230469 " fill-opacity="1" fill-rule="nonzero"/></g></g><g clip-path="url(#c3a5c56567)"><path stroke-linecap="butt" transform="matrix(0, 0.746323, -0.746323, 0, 77.094663, 0.330877)" fill="none" stroke-linejoin="miter" d="M 0.00154711 2.000608 L 279.999096 2.000608 " stroke="#77bdc6" stroke-width="4" stroke-opacity="1" stroke-miterlimit="4"/></g><path fill="#000000" d="M 56.117188 235.644531 C 54.449219 236.355469 53.773438 238.644531 54.59375 240.269531 C 55.414062 241.894531 57.433594 242.714844 59.210938 242.363281 C 59.785156 242.25 60.347656 242.023438 60.804688 241.652344 C 61.605469 241.007812 62.015625 239.949219 61.988281 238.917969 C 61.964844 238.207031 61.71875 237.527344 61.316406 236.945312 C 60.277344 235.4375 58.320312 234.871094 56.597656 235.476562 Z M 56.117188 235.644531 " fill-opacity="1" fill-rule="nonzero"/><g clip-path="url(#6a14a5db59)"><path fill="#000000" d="M 58.382812 243.070312 C 56.574219 243.070312 54.808594 242.085938 54.035156 240.554688 C 53.542969 239.582031 53.484375 238.351562 53.882812 237.257812 C 54.253906 236.234375 54.960938 235.457031 55.875 235.066406 C 55.886719 235.0625 55.898438 235.058594 55.910156 235.050781 L 56.390625 234.886719 C 58.414062 234.171875 60.652344 234.875 61.832031 236.589844 C 62.320312 237.296875 62.589844 238.09375 62.613281 238.898438 C 62.648438 240.183594 62.121094 241.394531 61.199219 242.140625 C 60.691406 242.550781 60.066406 242.832031 59.332031 242.976562 C 59.019531 243.039062 58.703125 243.070312 58.382812 243.070312 Z M 56.347656 236.230469 C 55.765625 236.484375 55.308594 237.003906 55.058594 237.691406 C 54.777344 238.460938 54.8125 239.316406 55.148438 239.988281 C 55.816406 241.304688 57.507812 242.058594 59.089844 241.746094 C 59.613281 241.644531 60.070312 241.441406 60.414062 241.164062 C 61.023438 240.667969 61.386719 239.816406 61.359375 238.9375 C 61.34375 238.375 61.152344 237.8125 60.804688 237.304688 C 59.941406 236.054688 58.296875 235.546875 56.804688 236.074219 L 56.34375 236.234375 Z M 56.347656 236.230469 " fill-opacity="1" fill-rule="nonzero"/></g><path fill="#000000" d="M 92.949219 234.886719 C 91.660156 234.652344 90.332031 235.257812 89.738281 236.433594 C 89.363281 237.171875 89.164062 238.003906 89.191406 238.835938 C 89.203125 239.195312 89.253906 239.558594 89.394531 239.890625 C 89.769531 240.769531 90.6875 241.265625 91.570312 241.621094 C 92.125 241.847656 92.710938 242.042969 93.3125 242.042969 C 94.867188 242.035156 96.132812 240.660156 96.625 239.179688 C 96.800781 238.660156 96.90625 238.09375 96.753906 237.566406 C 96.589844 237.003906 96.152344 236.5625 95.691406 236.203125 C 94.972656 235.640625 94.144531 235.21875 93.269531 234.960938 C 93.164062 234.929688 93.058594 234.90625 92.949219 234.886719 Z M 92.949219 234.886719 " fill-opacity="1" fill-rule="nonzero"/><g clip-path="url(#bc08e50b59)"><path fill="#000000" d="M 93.296875 242.667969 C 92.589844 242.667969 91.933594 242.445312 91.335938 242.203125 C 90.417969 241.832031 89.300781 241.265625 88.820312 240.140625 C 88.664062 239.773438 88.582031 239.355469 88.566406 238.855469 C 88.535156 237.9375 88.75 237 89.179688 236.148438 C 89.886719 234.757812 91.480469 233.984375 93.058594 234.269531 C 93.1875 234.292969 93.316406 234.320312 93.445312 234.359375 C 94.402344 234.640625 95.285156 235.09375 96.074219 235.707031 C 96.511719 236.046875 97.121094 236.59375 97.351562 237.394531 C 97.515625 237.964844 97.472656 238.617188 97.21875 239.378906 C 96.671875 241.011719 95.253906 242.660156 93.3125 242.671875 L 93.296875 242.671875 Z M 92.398438 235.464844 C 91.515625 235.464844 90.6875 235.945312 90.296875 236.71875 C 89.960938 237.382812 89.792969 238.109375 89.816406 238.816406 C 89.828125 239.15625 89.878906 239.425781 89.972656 239.644531 C 90.269531 240.34375 91.105469 240.757812 91.804688 241.039062 C 92.289062 241.234375 92.824219 241.410156 93.308594 241.414062 C 94.625 241.410156 95.644531 240.148438 96.035156 238.980469 C 96.207031 238.46875 96.246094 238.0625 96.152344 237.742188 C 96.054688 237.402344 95.789062 237.070312 95.3125 236.699219 C 94.65625 236.191406 93.890625 235.800781 93.09375 235.566406 C 93.011719 235.542969 92.921875 235.523438 92.835938 235.507812 C 92.691406 235.480469 92.542969 235.46875 92.398438 235.46875 Z M 92.398438 235.464844 " fill-opacity="1" fill-rule="nonzero"/></g><path fill="#ffffff" d="M 55.59375 236.714844 C 55.308594 237.269531 55.359375 237.996094 56.03125 238.421875 C 56.464844 238.699219 57.007812 238.777344 57.457031 238.523438 C 57.5625 238.464844 57.660156 238.390625 57.742188 238.296875 C 58.007812 238.003906 58.078125 237.5625 57.96875 237.179688 C 57.871094 236.847656 57.652344 236.558594 57.378906 236.34375 C 57.300781 236.28125 57.210938 236.234375 57.117188 236.199219 C 56.554688 235.964844 55.878906 236.167969 55.597656 236.714844 Z M 55.59375 236.714844 " fill-opacity="1" fill-rule="nonzero"/><path fill="#000000" d="M 56.859375 239.09375 C 56.503906 239.09375 56.136719 238.988281 55.808594 238.777344 C 54.90625 238.199219 54.875 237.203125 55.226562 236.523438 C 55.597656 235.804688 56.496094 235.488281 57.277344 235.8125 C 57.417969 235.867188 57.535156 235.9375 57.636719 236.015625 C 58 236.300781 58.253906 236.664062 58.367188 237.0625 C 58.527344 237.609375 58.40625 238.191406 58.050781 238.582031 C 57.941406 238.703125 57.808594 238.804688 57.65625 238.890625 C 57.414062 239.027344 57.140625 239.09375 56.859375 239.09375 Z M 56.636719 236.519531 C 56.355469 236.519531 56.09375 236.660156 55.964844 236.90625 C 55.78125 237.261719 55.761719 237.753906 56.257812 238.066406 C 56.59375 238.285156 56.96875 238.316406 57.253906 238.15625 C 57.324219 238.113281 57.386719 238.066406 57.433594 238.015625 C 57.589844 237.84375 57.640625 237.554688 57.566406 237.292969 C 57.503906 237.066406 57.34375 236.847656 57.121094 236.671875 C 57.082031 236.640625 57.03125 236.609375 56.960938 236.582031 C 56.851562 236.539062 56.742188 236.519531 56.636719 236.519531 Z M 55.59375 236.714844 Z M 55.59375 236.714844 " fill-opacity="1" fill-rule="nonzero"/><path fill="#ffffff" d="M 91.851562 235.703125 C 91.230469 235.640625 90.578125 235.957031 90.429688 236.742188 C 90.335938 237.25 90.464844 237.785156 90.863281 238.109375 C 90.957031 238.183594 91.0625 238.25 91.175781 238.292969 C 91.546875 238.433594 91.984375 238.335938 92.296875 238.089844 C 92.566406 237.878906 92.753906 237.566406 92.851562 237.230469 C 92.878906 237.136719 92.886719 237.035156 92.890625 236.933594 C 92.894531 236.320312 92.457031 235.765625 91.847656 235.703125 Z M 91.851562 235.703125 " fill-opacity="1" fill-rule="nonzero"/><path fill="#000000" d="M 91.542969 238.777344 C 91.367188 238.777344 91.195312 238.746094 91.03125 238.683594 C 90.882812 238.628906 90.738281 238.542969 90.601562 238.433594 C 90.117188 238.035156 89.890625 237.355469 90.023438 236.664062 C 90.222656 235.609375 91.132812 235.210938 91.894531 235.289062 C 92.699219 235.367188 93.316406 236.09375 93.308594 236.941406 C 93.308594 237.09375 93.289062 237.226562 93.253906 237.351562 C 93.121094 237.796875 92.878906 238.167969 92.550781 238.421875 C 92.253906 238.65625 91.894531 238.777344 91.542969 238.777344 Z M 91.695312 236.113281 C 91.328125 236.113281 90.941406 236.296875 90.839844 236.820312 C 90.765625 237.214844 90.875 237.574219 91.128906 237.785156 C 91.191406 237.835938 91.257812 237.875 91.324219 237.902344 C 91.539062 237.984375 91.828125 237.925781 92.039062 237.761719 C 92.226562 237.617188 92.375 237.386719 92.453125 237.113281 C 92.464844 237.066406 92.472656 237.003906 92.472656 236.929688 C 92.480469 236.515625 92.1875 236.160156 91.808594 236.121094 C 91.773438 236.117188 91.734375 236.113281 91.695312 236.113281 Z M 91.695312 236.113281 " fill-opacity="1" fill-rule="nonzero"/><g clip-path="url(#0c9990d639)"><path fill="#000000" d="M 76.59375 245.886719 C 76.175781 245.886719 75.75 245.828125 75.332031 245.707031 C 74.441406 245.457031 73.570312 244.945312 72.746094 244.1875 C 72.238281 243.71875 71.847656 243.253906 71.550781 242.765625 C 70.894531 241.671875 70.855469 240.410156 70.894531 239.433594 C 70.90625 239.089844 71.195312 238.828125 71.542969 238.832031 C 71.886719 238.847656 72.15625 239.136719 72.140625 239.484375 C 72.09375 240.6875 72.238281 241.476562 72.625 242.117188 C 72.855469 242.5 73.167969 242.875 73.589844 243.261719 C 74.269531 243.886719 74.96875 244.300781 75.671875 244.5 C 76.453125 244.722656 77.25 244.660156 77.867188 244.332031 C 78.574219 243.957031 79.144531 243.171875 79.425781 242.175781 C 79.699219 241.199219 79.707031 240.144531 79.710938 239.125 C 79.710938 238.777344 79.992188 238.5 80.335938 238.5 L 80.339844 238.5 C 80.683594 238.5 80.960938 238.785156 80.960938 239.132812 C 80.957031 240.183594 80.953125 241.378906 80.628906 242.519531 C 80.25 243.863281 79.476562 244.902344 78.453125 245.445312 C 77.902344 245.738281 77.257812 245.886719 76.59375 245.886719 Z M 76.59375 245.886719 " fill-opacity="1" fill-rule="nonzero"/></g></svg>