<svg xmlns="http://www.w3.org/2000/svg" xmlns:xlink="http://www.w3.org/1999/xlink" width="274" zoomAndPan="magnify" viewBox="0 0 205.5 262.500001" height="350" preserveAspectRatio="xMidYMid meet" version="1.0"><defs><clipPath id="6960ac9090"><path d="M 0 53.335938 L 205 53.335938 L 205 261.933594 L 0 261.933594 Z M 0 53.335938 " clip-rule="nonzero"/></clipPath><clipPath id="584503b417"><path d="M 0 53.335938 L 205 53.335938 L 205 261.933594 L 0 261.933594 Z M 0 53.335938 " clip-rule="nonzero"/></clipPath><clipPath id="54f87980b6"><path d="M 0 95 L 205 95 L 205 261.933594 L 0 261.933594 Z M 0 95 " clip-rule="nonzero"/></clipPath><clipPath id="4e010ec955"><path d="M 74 30 L 126 30 L 126 78 L 74 78 Z M 74 30 " clip-rule="nonzero"/></clipPath><clipPath id="64ebf043a7"><path d="M 77.523438 29.976562 L 126.367188 33.835938 L 122.867188 78.175781 L 74.023438 74.320312 Z M 77.523438 29.976562 " clip-rule="nonzero"/></clipPath><clipPath id="425ee677f0"><path d="M 84.980469 30.566406 L 118.902344 33.246094 C 123.023438 33.570312 126.097656 37.171875 125.773438 41.292969 L 123.449219 70.714844 C 123.125 74.835938 119.519531 77.910156 115.402344 77.585938 L 81.480469 74.90625 C 77.359375 74.582031 74.285156 70.980469 74.609375 66.859375 L 76.933594 37.4375 C 77.257812 33.316406 80.863281 30.242188 84.980469 30.566406 Z M 84.980469 30.566406 " clip-rule="nonzero"/></clipPath><clipPath id="505c13b443"><path d="M 77 1 L 128 1 L 128 49 L 77 49 Z M 77 1 " clip-rule="nonzero"/></clipPath><clipPath id="5a8655ed11"><path d="M 79.609375 0.0703125 L 128.808594 3.953125 L 125.21875 49.421875 L 76.019531 45.539062 Z M 79.609375 0.0703125 " clip-rule="nonzero"/></clipPath><clipPath id="f3f8177cba"><path d="M 93.035156 1.128906 L 115.320312 2.890625 C 118.882812 3.167969 122.1875 4.855469 124.503906 7.570312 C 126.824219 10.285156 127.96875 13.8125 127.6875 17.375 L 126.21875 35.992188 C 125.632812 43.40625 119.148438 48.945312 111.730469 48.359375 L 89.445312 46.597656 C 82.03125 46.011719 76.496094 39.527344 77.082031 32.113281 L 78.550781 13.496094 C 79.136719 6.078125 85.621094 0.542969 93.035156 1.128906 Z M 93.035156 1.128906 " clip-rule="nonzero"/></clipPath><clipPath id="2d87d2b22e"><path d="M 72 77 L 123 77 L 123 107 L 72 107 Z M 72 77 " clip-rule="nonzero"/></clipPath><clipPath id="77d8045903"><path d="M 73.871094 76.609375 L 122.761719 80.46875 L 120.636719 107.382812 L 71.746094 103.523438 Z M 73.871094 76.609375 " clip-rule="nonzero"/></clipPath><clipPath id="e4c7ab96a4"><path d="M 81.332031 77.199219 L 115.253906 79.875 C 119.371094 80.203125 122.449219 83.804688 122.125 87.921875 L 121.175781 99.921875 C 120.851562 104.039062 117.246094 107.117188 113.128906 106.789062 L 79.207031 104.113281 C 75.085938 103.785156 72.011719 100.183594 72.335938 96.066406 L 73.285156 84.066406 C 73.609375 79.949219 77.210938 76.871094 81.332031 77.199219 Z M 81.332031 77.199219 " clip-rule="nonzero"/></clipPath><clipPath id="222f8c7220"><path d="M 79 3 L 128 3 L 128 33 L 79 33 Z M 79 3 " clip-rule="nonzero"/></clipPath><clipPath id="88c75a9ffb"><path d="M 80.566406 2.722656 L 127.875 6.457031 L 125.75 33.371094 L 78.441406 29.636719 Z M 80.566406 2.722656 " clip-rule="nonzero"/></clipPath><clipPath id="5c1200d4dc"><path d="M 88.023438 3.3125 L 120.40625 5.871094 C 124.527344 6.195312 127.601562 9.796875 127.277344 13.917969 L 126.332031 25.914062 C 126.003906 30.03125 122.402344 33.109375 118.28125 32.785156 L 85.898438 30.226562 C 81.78125 29.902344 78.703125 26.296875 79.03125 22.179688 L 79.976562 10.183594 C 80.300781 6.0625 83.90625 2.988281 88.023438 3.3125 Z M 88.023438 3.3125 " clip-rule="nonzero"/></clipPath><clipPath id="144821a60c"><path d="M 72 57 L 124 57 L 124 107 L 72 107 Z M 72 57 " clip-rule="nonzero"/></clipPath><clipPath id="969cc43269"><path d="M 75.25 56.71875 L 124.246094 60.589844 L 120.550781 107.390625 L 71.554688 103.523438 Z M 75.25 56.71875 " clip-rule="nonzero"/></clipPath><clipPath id="247a200a0b"><path d="M 88.675781 57.78125 L 110.664062 59.515625 C 114.222656 59.796875 117.527344 61.480469 119.84375 64.199219 C 122.164062 66.914062 123.308594 70.441406 123.027344 74 L 121.453125 93.953125 C 121.171875 97.515625 119.488281 100.816406 116.769531 103.136719 C 114.054688 105.457031 110.527344 106.601562 106.96875 106.320312 L 84.980469 104.582031 C 77.566406 103.996094 72.027344 97.511719 72.613281 90.097656 L 74.1875 70.144531 C 74.773438 62.730469 81.261719 57.195312 88.675781 57.78125 Z M 88.675781 57.78125 " clip-rule="nonzero"/></clipPath><clipPath id="2a9f347dd1"><path d="M 76 13 L 78 13 L 78 19 L 76 19 Z M 76 13 " clip-rule="nonzero"/></clipPath><clipPath id="63d902acdd"><path d="M 77.957031 0.0703125 L 130.175781 4.101562 L 122.167969 107.789062 L 69.953125 103.757812 Z M 77.957031 0.0703125 " clip-rule="nonzero"/></clipPath><clipPath id="fb23dd3e87"><path d="M 77.957031 0.0703125 L 130.175781 4.101562 L 122.167969 107.789062 L 69.953125 103.757812 Z M 77.957031 0.0703125 " clip-rule="nonzero"/></clipPath><clipPath id="53606607a6"><path d="M 75 21 L 78 21 L 78 30 L 75 30 Z M 75 21 " clip-rule="nonzero"/></clipPath><clipPath id="a56ad5b488"><path d="M 77.957031 0.0703125 L 130.175781 4.101562 L 122.167969 107.789062 L 69.953125 103.757812 Z M 77.957031 0.0703125 " clip-rule="nonzero"/></clipPath><clipPath id="6be9ee5bf5"><path d="M 77.957031 0.0703125 L 130.175781 4.101562 L 122.167969 107.789062 L 69.953125 103.757812 Z M 77.957031 0.0703125 " clip-rule="nonzero"/></clipPath><clipPath id="e0365509c9"><path d="M 75 30 L 77 30 L 77 39 L 75 39 Z M 75 30 " clip-rule="nonzero"/></clipPath><clipPath id="de6833674a"><path d="M 77.957031 0.0703125 L 130.175781 4.101562 L 122.167969 107.789062 L 69.953125 103.757812 Z M 77.957031 0.0703125 " clip-rule="nonzero"/></clipPath><clipPath id="d7d39c733d"><path d="M 77.957031 0.0703125 L 130.175781 4.101562 L 122.167969 107.789062 L 69.953125 103.757812 Z M 77.957031 0.0703125 " clip-rule="nonzero"/></clipPath><clipPath id="30fec8cc5d"><path d="M 126 27 L 129 27 L 129 41 L 126 41 Z M 126 27 " clip-rule="nonzero"/></clipPath><clipPath id="c64ac579f5"><path d="M 77.957031 0.0703125 L 130.175781 4.101562 L 122.167969 107.789062 L 69.953125 103.757812 Z M 77.957031 0.0703125 " clip-rule="nonzero"/></clipPath><clipPath id="38810551dd"><path d="M 77.957031 0.0703125 L 130.175781 4.101562 L 122.167969 107.789062 L 69.953125 103.757812 Z M 77.957031 0.0703125 " clip-rule="nonzero"/></clipPath><clipPath id="c6e1c1b650"><path d="M 70 0.0703125 L 130 0.0703125 L 130 108 L 70 108 Z M 70 0.0703125 " clip-rule="nonzero"/></clipPath><clipPath id="61c059dcf2"><path d="M 77.957031 0.0703125 L 130.175781 4.101562 L 122.167969 107.789062 L 69.953125 103.757812 Z M 77.957031 0.0703125 " clip-rule="nonzero"/></clipPath><clipPath id="b6924a3e79"><path d="M 77.957031 0.0703125 L 130.175781 4.101562 L 122.167969 107.789062 L 69.953125 103.757812 Z M 77.957031 0.0703125 " clip-rule="nonzero"/></clipPath><clipPath id="2de31ff59b"><path d="M 71 1 L 129 1 L 129 107 L 71 107 Z M 71 1 " clip-rule="nonzero"/></clipPath><clipPath id="5f684fb9fa"><path d="M 77.957031 0.0703125 L 130.175781 4.101562 L 122.167969 107.789062 L 69.953125 103.757812 Z M 77.957031 0.0703125 " clip-rule="nonzero"/></clipPath><clipPath id="1876acfef3"><path d="M 77.957031 0.0703125 L 130.175781 4.101562 L 122.167969 107.789062 L 69.953125 103.757812 Z M 77.957031 0.0703125 " clip-rule="nonzero"/></clipPath><clipPath id="b01191185a"><path d="M 108 5 L 111 5 L 111 8 L 108 8 Z M 108 5 " clip-rule="nonzero"/></clipPath><clipPath id="2f146fe581"><path d="M 77.957031 0.0703125 L 130.175781 4.101562 L 122.167969 107.789062 L 69.953125 103.757812 Z M 77.957031 0.0703125 " clip-rule="nonzero"/></clipPath><clipPath id="6833d7a927"><path d="M 77.957031 0.0703125 L 130.175781 4.101562 L 122.167969 107.789062 L 69.953125 103.757812 Z M 77.957031 0.0703125 " clip-rule="nonzero"/></clipPath><clipPath id="af358892ee"><path d="M 100 5 L 107 5 L 107 7 L 100 7 Z M 100 5 " clip-rule="nonzero"/></clipPath><clipPath id="7d48a8c6db"><path d="M 77.957031 0.0703125 L 130.175781 4.101562 L 122.167969 107.789062 L 69.953125 103.757812 Z M 77.957031 0.0703125 " clip-rule="nonzero"/></clipPath><clipPath id="e2ac1f4ea1"><path d="M 77.957031 0.0703125 L 130.175781 4.101562 L 122.167969 107.789062 L 69.953125 103.757812 Z M 77.957031 0.0703125 " clip-rule="nonzero"/></clipPath></defs><path fill="#ffffff" d="M 11.441406 56.671875 L 195.464844 56.671875 C 196 56.671875 196.527344 56.722656 197.046875 56.828125 C 197.570312 56.929688 198.074219 57.085938 198.566406 57.289062 C 199.058594 57.492188 199.527344 57.742188 199.96875 58.035156 C 200.410156 58.332031 200.820312 58.667969 201.195312 59.042969 C 201.574219 59.421875 201.910156 59.828125 202.203125 60.273438 C 202.5 60.714844 202.75 61.179688 202.953125 61.671875 C 203.15625 62.164062 203.3125 62.671875 203.414062 63.191406 C 203.519531 63.714844 203.570312 64.242188 203.570312 64.773438 L 203.570312 252.542969 C 203.570312 253.074219 203.519531 253.601562 203.414062 254.125 C 203.3125 254.644531 203.15625 255.152344 202.953125 255.644531 C 202.75 256.136719 202.5 256.601562 202.203125 257.046875 C 201.910156 257.488281 201.574219 257.898438 201.195312 258.273438 C 200.820312 258.648438 200.410156 258.984375 199.96875 259.28125 C 199.527344 259.574219 199.058594 259.824219 198.566406 260.027344 C 198.074219 260.234375 197.570312 260.386719 197.046875 260.488281 C 196.527344 260.59375 196 260.644531 195.464844 260.644531 L 11.441406 260.644531 C 10.910156 260.644531 10.382812 260.59375 9.859375 260.488281 C 9.339844 260.386719 8.832031 260.234375 8.339844 260.027344 C 7.847656 259.824219 7.382812 259.574219 6.9375 259.28125 C 6.496094 258.984375 6.085938 258.648438 5.710938 258.273438 C 5.335938 257.898438 5 257.488281 4.703125 257.046875 C 4.40625 256.601562 4.15625 256.136719 3.953125 255.644531 C 3.75 255.152344 3.597656 254.644531 3.492188 254.125 C 3.390625 253.601562 3.335938 253.074219 3.335938 252.542969 L 3.335938 64.773438 C 3.335938 64.242188 3.390625 63.714844 3.492188 63.191406 C 3.597656 62.671875 3.75 62.164062 3.953125 61.671875 C 4.15625 61.179688 4.40625 60.714844 4.703125 60.273438 C 5 59.828125 5.335938 59.421875 5.710938 59.042969 C 6.085938 58.667969 6.496094 58.332031 6.9375 58.035156 C 7.382812 57.742188 7.847656 57.492188 8.339844 57.289062 C 8.832031 57.085938 9.339844 56.929688 9.859375 56.828125 C 10.382812 56.722656 10.910156 56.671875 11.441406 56.671875 Z M 11.441406 56.671875 " fill-opacity="1" fill-rule="nonzero"/><g clip-path="url(#6960ac9090)"><path stroke-linecap="butt" transform="matrix(0.953494, 0, 0, 0.953154, 0, 53.334855)" fill="none" stroke-linejoin="miter" d="M 11.999454 3.50103 L 204.998516 3.50103 C 205.559774 3.50103 206.112839 3.554307 206.65771 3.66496 C 207.206678 3.771514 207.735162 3.935443 208.251356 4.148552 C 208.767549 4.36166 209.259162 4.623947 209.722098 4.931315 C 210.185033 5.242781 210.615195 5.595229 211.008485 5.98866 C 211.405872 6.386189 211.758195 6.812405 212.065453 7.279604 C 212.376808 7.742705 212.639001 8.230395 212.852034 8.746773 C 213.065066 9.263151 213.228937 9.795922 213.335453 10.340987 C 213.446066 10.890151 213.499324 11.443413 213.499324 12.000773 L 213.499324 208.998918 C 213.499324 209.556279 213.446066 210.109541 213.335453 210.658704 C 213.228937 211.20377 213.065066 211.736541 212.852034 212.252918 C 212.639001 212.769296 212.376808 213.256986 212.065453 213.724185 C 211.758195 214.187286 211.405872 214.617601 211.008485 215.011032 C 210.615195 215.404463 210.185033 215.756911 209.722098 216.068377 C 209.259162 216.375745 208.767549 216.638032 208.251356 216.85114 C 207.735162 217.068347 207.206678 217.228178 206.65771 217.334732 C 206.112839 217.445384 205.559774 217.498662 204.998516 217.498662 L 11.999454 217.498662 C 11.442292 217.498662 10.889228 217.445384 10.34026 217.334732 C 9.795389 217.228178 9.262808 217.068347 8.746614 216.85114 C 8.230421 216.638032 7.742904 216.375745 7.275872 216.068377 C 6.812937 215.756911 6.382775 215.404463 5.989485 215.011032 C 5.596194 214.617601 5.243872 214.187286 4.932517 213.724185 C 4.621162 213.256986 4.358968 212.769296 4.145936 212.252918 C 3.932904 211.736541 3.77313 211.20377 3.662517 210.658704 C 3.556001 210.109541 3.498646 209.556279 3.498646 208.998918 L 3.498646 12.000773 C 3.498646 11.443413 3.556001 10.890151 3.662517 10.340987 C 3.77313 9.795922 3.932904 9.263151 4.145936 8.746773 C 4.358968 8.230395 4.621162 7.742705 4.932517 7.279604 C 5.243872 6.812405 5.596194 6.386189 5.989485 5.98866 C 6.382775 5.595229 6.812937 5.242781 7.275872 4.931315 C 7.742904 4.623947 8.230421 4.36166 8.746614 4.148552 C 9.262808 3.935443 9.795389 3.771514 10.34026 3.66496 C 10.889228 3.554307 11.442292 3.50103 11.999454 3.50103 Z M 11.999454 3.50103 " stroke="#000000" stroke-width="3" stroke-opacity="1" stroke-miterlimit="4"/></g><path fill="#f5f5f5" d="M 9.535156 54.765625 L 193.558594 54.765625 C 194.089844 54.765625 194.617188 54.816406 195.140625 54.921875 C 195.664062 55.023438 196.167969 55.175781 196.660156 55.382812 C 197.152344 55.585938 197.621094 55.835938 198.0625 56.128906 C 198.503906 56.425781 198.914062 56.761719 199.289062 57.136719 C 199.667969 57.515625 200.003906 57.921875 200.296875 58.367188 C 200.59375 58.808594 200.84375 59.273438 201.046875 59.765625 C 201.25 60.257812 201.40625 60.765625 201.507812 61.285156 C 201.613281 61.808594 201.664062 62.335938 201.664062 62.867188 L 201.664062 250.636719 C 201.664062 251.167969 201.613281 251.695312 201.507812 252.21875 C 201.40625 252.738281 201.25 253.246094 201.046875 253.738281 C 200.84375 254.230469 200.59375 254.695312 200.296875 255.140625 C 200.003906 255.582031 199.667969 255.992188 199.289062 256.367188 C 198.914062 256.742188 198.503906 257.078125 198.0625 257.375 C 197.621094 257.667969 197.152344 257.917969 196.660156 258.121094 C 196.167969 258.328125 195.664062 258.480469 195.140625 258.582031 C 194.617188 258.6875 194.089844 258.738281 193.558594 258.738281 L 9.535156 258.738281 C 9.003906 258.738281 8.476562 258.6875 7.953125 258.582031 C 7.433594 258.480469 6.925781 258.328125 6.433594 258.121094 C 5.941406 257.917969 5.476562 257.667969 5.03125 257.375 C 4.589844 257.078125 4.179688 256.742188 3.804688 256.367188 C 3.429688 255.992188 3.089844 255.582031 2.796875 255.140625 C 2.5 254.695312 2.25 254.230469 2.046875 253.738281 C 1.84375 253.246094 1.691406 252.738281 1.585938 252.21875 C 1.480469 251.695312 1.429688 251.167969 1.429688 250.636719 L 1.429688 62.867188 C 1.429688 62.335938 1.480469 61.808594 1.585938 61.285156 C 1.691406 60.765625 1.84375 60.257812 2.046875 59.765625 C 2.25 59.273438 2.5 58.808594 2.796875 58.367188 C 3.089844 57.921875 3.429688 57.515625 3.804688 57.136719 C 4.179688 56.761719 4.589844 56.425781 5.03125 56.128906 C 5.476562 55.835938 5.941406 55.585938 6.433594 55.382812 C 6.925781 55.175781 7.433594 55.023438 7.953125 54.921875 C 8.476562 54.816406 9.003906 54.765625 9.535156 54.765625 Z M 9.535156 54.765625 " fill-opacity="1" fill-rule="nonzero"/><g clip-path="url(#584503b417)"><path stroke-linecap="butt" transform="matrix(0.953494, 0, 0, 0.953154, 0, 53.334855)" fill="none" stroke-linejoin="miter" d="M 10.000227 1.501091 L 202.99929 1.501091 C 203.556452 1.501091 204.109516 1.554368 204.658484 1.66502 C 205.207452 1.771574 205.735936 1.931405 206.252129 2.148612 C 206.768323 2.36172 207.259936 2.624007 207.722872 2.931375 C 208.185807 3.242841 208.615969 3.59529 209.009259 3.98872 C 209.406646 4.386249 209.758969 4.812466 210.066227 5.279665 C 210.377582 5.742766 210.639775 6.230456 210.852808 6.746834 C 211.06584 7.263211 211.229711 7.795982 211.336227 8.341048 C 211.44684 8.890212 211.500098 9.443473 211.500098 10.000834 L 211.500098 206.998979 C 211.500098 207.556339 211.44684 208.109601 211.336227 208.658765 C 211.229711 209.20383 211.06584 209.736601 210.852808 210.252979 C 210.639775 210.769357 210.377582 211.257047 210.066227 211.724246 C 209.758969 212.187347 209.406646 212.617661 209.009259 213.011092 C 208.615969 213.404523 208.185807 213.756971 207.722872 214.068437 C 207.259936 214.375805 206.768323 214.638092 206.252129 214.851201 C 205.735936 215.068407 205.207452 215.228238 204.658484 215.334792 C 204.109516 215.445445 203.556452 215.498722 202.99929 215.498722 L 10.000227 215.498722 C 9.443066 215.498722 8.890001 215.445445 8.341034 215.334792 C 7.796163 215.228238 7.263582 215.068407 6.747388 214.851201 C 6.231195 214.638092 5.743678 214.375805 5.276646 214.068437 C 4.81371 213.756971 4.383549 213.404523 3.990259 213.011092 C 3.596968 212.617661 3.240549 212.187347 2.933291 211.724246 C 2.621936 211.257047 2.359742 210.769357 2.14671 210.252979 C 1.933678 209.736601 1.773904 209.20383 1.663291 208.658765 C 1.552678 208.109601 1.49942 207.556339 1.49942 206.998979 L 1.49942 10.000834 C 1.49942 9.443473 1.552678 8.890212 1.663291 8.341048 C 1.773904 7.795982 1.933678 7.263211 2.14671 6.746834 C 2.359742 6.230456 2.621936 5.742766 2.933291 5.279665 C 3.240549 4.812466 3.596968 4.386249 3.990259 3.98872 C 4.383549 3.59529 4.81371 3.242841 5.276646 2.931375 C 5.743678 2.624007 6.231195 2.36172 6.747388 2.148612 C 7.263582 1.931405 7.796163 1.771574 8.341034 1.66502 C 8.890001 1.554368 9.443066 1.501091 10.000227 1.501091 Z M 10.000227 1.501091 " stroke="#000000" stroke-width="3" stroke-opacity="1" stroke-miterlimit="4"/></g><path fill="#ee82ee" d="M 3.984375 125.65625 C 12.421875 118.046875 20.0625 114.046875 27.121094 112.601562 C 34.164062 111.15625 40.753906 112.21875 47.160156 114.953125 C 53.589844 117.699219 59.816406 122.128906 66.078125 127.390625 C 70.546875 131.148438 74.980469 135.28125 79.5 139.496094 C 81.320312 141.195312 83.15625 142.90625 85.011719 144.613281 C 97.839844 156.390625 111.632812 167.796875 128.03125 170.847656 C 144.574219 173.921875 163.386719 168.445312 186.132812 147.417969 C 188.941406 144.824219 192.828125 144.40625 196.058594 145.652344 C 199.277344 146.886719 201.664062 149.695312 201.664062 153.4375 L 201.664062 250.636719 C 201.664062 255.113281 198.035156 258.738281 193.558594 258.738281 L 9.535156 258.738281 C 5.058594 258.738281 1.429688 255.113281 1.429688 250.636719 L 1.429688 131.441406 C 1.429688 129.28125 2.390625 127.09375 3.984375 125.65625 Z M 3.984375 125.65625 " fill-opacity="1" fill-rule="nonzero"/><g clip-path="url(#54f87980b6)"><path stroke-linecap="butt" transform="matrix(0.953494, 0, 0, 0.953154, 0, 53.334855)" fill="none" stroke-linejoin="miter" d="M 4.17871 75.875892 C 13.027744 67.892527 21.041036 63.695932 28.443908 62.179585 C 35.830393 60.663237 42.741652 61.777958 49.460363 64.646723 C 56.203654 67.527784 62.733913 72.175184 69.301043 77.695509 C 73.987754 81.638013 78.637593 85.973948 83.377562 90.395945 C 85.286659 92.178678 87.212143 93.973706 89.158111 95.764635 C 102.611919 108.120819 117.077631 120.087671 134.275892 123.288394 C 151.625734 126.513706 171.355801 120.767978 195.211321 98.707169 C 198.156902 95.98594 202.233193 95.547429 205.621226 96.854766 C 208.996969 98.149809 211.500098 101.096441 211.500098 105.022552 L 211.500098 206.998979 C 211.500098 211.695558 207.694194 215.498722 202.99929 215.498722 L 10.000227 215.498722 C 5.305323 215.498722 1.49942 211.695558 1.49942 206.998979 L 1.49942 81.945381 C 1.49942 79.679056 2.507226 77.384043 4.17871 75.875892 Z M 4.17871 75.875892 " stroke="#000000" stroke-width="3" stroke-opacity="1" stroke-miterlimit="4"/></g><g clip-path="url(#4e010ec955)"><g clip-path="url(#64ebf043a7)"><g clip-path="url(#425ee677f0)"><path fill="#f5f5f5" d="M 77.523438 29.976562 L 126.367188 33.835938 L 122.867188 78.175781 L 74.023438 74.320312 Z M 77.523438 29.976562 " fill-opacity="1" fill-rule="nonzero"/></g></g></g><g clip-path="url(#505c13b443)"><g clip-path="url(#5a8655ed11)"><g clip-path="url(#f3f8177cba)"><path fill="#5f7dfe" d="M 79.609375 0.0703125 L 128.808594 3.953125 L 125.21875 49.421875 L 76.019531 45.539062 Z M 79.609375 0.0703125 " fill-opacity="1" fill-rule="nonzero"/></g></g></g><g clip-path="url(#2d87d2b22e)"><g clip-path="url(#77d8045903)"><g clip-path="url(#e4c7ab96a4)"><path fill="#5f7dfe" d="M 73.871094 76.609375 L 122.761719 80.46875 L 120.636719 107.382812 L 71.75 103.523438 Z M 73.871094 76.609375 " fill-opacity="1" fill-rule="nonzero"/></g></g></g><g clip-path="url(#222f8c7220)"><g clip-path="url(#88c75a9ffb)"><g clip-path="url(#5c1200d4dc)"><path fill="#5f7dfe" d="M 80.566406 2.722656 L 127.875 6.457031 L 125.75 33.371094 L 78.441406 29.636719 Z M 80.566406 2.722656 " fill-opacity="1" fill-rule="nonzero"/></g></g></g><g clip-path="url(#144821a60c)"><g clip-path="url(#969cc43269)"><g clip-path="url(#247a200a0b)"><path fill="#5f7dfe" d="M 75.25 56.71875 L 124.0625 60.574219 L 120.367188 107.378906 L 71.554688 103.523438 Z M 75.25 56.71875 " fill-opacity="1" fill-rule="nonzero"/></g></g></g><g clip-path="url(#2a9f347dd1)"><g clip-path="url(#63d902acdd)"><g clip-path="url(#fb23dd3e87)"><path fill="#000000" d="M 76.902344 14.074219 C 76.917969 13.847656 77.121094 13.675781 77.34375 13.695312 C 77.566406 13.710938 77.738281 13.914062 77.722656 14.136719 L 77.417969 18.082031 C 77.398438 18.308594 77.199219 18.476562 76.976562 18.460938 C 76.753906 18.445312 76.582031 18.242188 76.597656 18.019531 Z M 76.902344 14.074219 " fill-opacity="1" fill-rule="nonzero"/></g></g></g><g clip-path="url(#53606607a6)"><g clip-path="url(#a56ad5b488)"><g clip-path="url(#6be9ee5bf5)"><path fill="#000000" d="M 76.332031 21.484375 C 76.347656 21.257812 76.546875 21.085938 76.769531 21.105469 C 76.996094 21.121094 77.167969 21.324219 77.148438 21.546875 L 76.578125 28.957031 C 76.558594 29.179688 76.359375 29.351562 76.136719 29.335938 C 75.914062 29.316406 75.742188 29.117188 75.757812 28.894531 Z M 76.332031 21.484375 " fill-opacity="1" fill-rule="nonzero"/></g></g></g><g clip-path="url(#e0365509c9)"><g clip-path="url(#de6833674a)"><g clip-path="url(#d7d39c733d)"><path fill="#000000" d="M 75.589844 31.089844 C 75.605469 30.867188 75.804688 30.695312 76.03125 30.710938 C 76.253906 30.730469 76.425781 30.929688 76.40625 31.152344 L 75.839844 38.527344 C 75.820312 38.75 75.617188 38.960938 75.394531 38.941406 C 75.171875 38.925781 75 38.6875 75.019531 38.464844 Z M 75.589844 31.089844 " fill-opacity="1" fill-rule="nonzero"/></g></g></g><g clip-path="url(#30fec8cc5d)"><g clip-path="url(#c64ac579f5)"><g clip-path="url(#38810551dd)"><path fill="#000000" d="M 127.613281 28.289062 C 127.628906 28.066406 127.828125 27.894531 128.054688 27.910156 C 128.277344 27.929688 128.449219 28.128906 128.429688 28.351562 L 127.527344 40.046875 C 127.507812 40.304688 127.308594 40.476562 127.082031 40.460938 C 126.859375 40.445312 126.6875 40.242188 126.707031 39.980469 Z M 127.613281 28.289062 " fill-opacity="1" fill-rule="nonzero"/></g></g></g><g clip-path="url(#c6e1c1b650)"><g clip-path="url(#61c059dcf2)"><g clip-path="url(#b6924a3e79)"><path fill="#000000" d="M 84.984375 0.613281 L 123.152344 3.558594 C 126.765625 3.835938 129.480469 7.007812 129.199219 10.617188 L 122.183594 101.480469 C 121.90625 105.089844 118.738281 107.804688 115.125 107.527344 L 76.957031 104.578125 C 73.34375 104.300781 70.628906 101.132812 70.910156 97.519531 L 77.925781 6.660156 C 78.203125 3.046875 81.371094 0.332031 84.984375 0.613281 Z M 86.21875 4.003906 L 121.449219 6.722656 C 124.203125 6.9375 126.300781 9.382812 126.085938 12.140625 L 119.320312 99.757812 C 119.109375 102.515625 116.660156 104.613281 113.90625 104.398438 L 78.679688 101.679688 C 75.886719 101.464844 73.789062 99.015625 74.003906 96.261719 L 80.769531 8.640625 C 80.980469 5.882812 83.429688 3.789062 86.21875 4.003906 Z M 86.21875 4.003906 " fill-opacity="1" fill-rule="evenodd"/></g></g></g><g clip-path="url(#2de31ff59b)"><g clip-path="url(#5f684fb9fa)"><g clip-path="url(#1876acfef3)"><path fill="#000000" d="M 85.492188 1.324219 L 94.242188 2 L 113.679688 3.5 L 122.542969 4.1875 C 126.042969 4.457031 128.6875 7.546875 128.421875 11.007812 L 121.492188 100.75 C 121.222656 104.25 118.132812 106.898438 114.632812 106.628906 L 77.582031 103.765625 C 74.082031 103.496094 71.433594 100.40625 71.707031 96.90625 L 78.632812 7.164062 C 78.902344 3.699219 81.992188 1.054688 85.492188 1.324219 Z M 116.457031 6.339844 C 116.449219 6.449219 116.441406 6.5625 116.429688 6.710938 C 116.300781 8.347656 114.859375 9.585938 113.21875 9.460938 L 93.78125 7.960938 C 92.144531 7.832031 90.90625 6.386719 91.03125 4.75 C 91.042969 4.601562 91.089844 4.492188 91.097656 4.378906 L 86.21875 4.003906 C 83.429688 3.789062 80.980469 5.882812 80.769531 8.640625 L 74.003906 96.261719 C 73.789062 99.015625 75.886719 101.464844 78.679688 101.679688 L 113.90625 104.398438 C 116.660156 104.613281 119.109375 102.515625 119.320312 99.757812 L 126.085938 12.140625 C 126.300781 9.382812 124.203125 6.9375 121.449219 6.722656 Z M 116.457031 6.339844 " fill-opacity="1" fill-rule="evenodd"/></g></g></g><g clip-path="url(#b01191185a)"><g clip-path="url(#2f146fe581)"><g clip-path="url(#6833d7a927)"><path fill="#4d4d4d" d="M 110.285156 6.722656 C 110.265625 6.96875 110.164062 7.175781 109.972656 7.335938 C 109.785156 7.496094 109.570312 7.566406 109.320312 7.546875 C 109.074219 7.527344 108.871094 7.425781 108.710938 7.238281 C 108.550781 7.050781 108.476562 6.832031 108.496094 6.585938 C 108.515625 6.339844 108.621094 6.132812 108.808594 5.972656 C 108.996094 5.8125 109.214844 5.742188 109.460938 5.761719 C 109.707031 5.78125 109.910156 5.882812 110.070312 6.070312 C 110.234375 6.257812 110.304688 6.476562 110.285156 6.722656 Z M 110.285156 6.722656 " fill-opacity="1" fill-rule="nonzero"/></g></g></g><g clip-path="url(#af358892ee)"><g clip-path="url(#7d48a8c6db)"><g clip-path="url(#e2ac1f4ea1)"><path fill="#4d4d4d" d="M 103.667969 5.914062 C 104.082031 5.945312 104.476562 5.984375 104.859375 6.035156 C 105.238281 6.082031 105.574219 6.132812 105.863281 6.191406 C 106.152344 6.25 106.375 6.308594 106.53125 6.363281 C 106.683594 6.421875 106.761719 6.476562 106.757812 6.527344 C 106.753906 6.574219 106.667969 6.617188 106.507812 6.648438 C 106.347656 6.683594 106.117188 6.707031 105.824219 6.71875 C 105.527344 6.730469 105.1875 6.730469 104.804688 6.722656 C 104.421875 6.710938 104.023438 6.6875 103.609375 6.65625 C 103.199219 6.625 102.800781 6.585938 102.421875 6.535156 C 102.039062 6.488281 101.703125 6.4375 101.414062 6.378906 C 101.125 6.320312 100.902344 6.261719 100.75 6.207031 C 100.59375 6.148438 100.519531 6.09375 100.523438 6.042969 C 100.527344 5.996094 100.609375 5.953125 100.769531 5.921875 C 100.933594 5.886719 101.160156 5.863281 101.457031 5.851562 C 101.75 5.839844 102.089844 5.839844 102.472656 5.847656 C 102.855469 5.859375 103.253906 5.882812 103.667969 5.914062 Z M 103.667969 5.914062 " fill-opacity="1" fill-rule="evenodd"/></g></g></g></svg>