<svg xmlns="http://www.w3.org/2000/svg" xmlns:xlink="http://www.w3.org/1999/xlink" width="547" zoomAndPan="magnify" viewBox="0 0 410.25 51.749998" height="69" preserveAspectRatio="xMidYMid meet" version="1.0"><defs><clipPath id="8bf28ad677"><path d="M 302 0 L 354 0 L 354 50.753906 L 302 50.753906 Z M 302 0 " clip-rule="nonzero"/></clipPath><clipPath id="ec705a806a"><path d="M 376 9 L 408.144531 9 L 408.144531 42 L 376 42 Z M 376 9 " clip-rule="nonzero"/></clipPath><clipPath id="257a6437f2"><path d="M 0.613281 39 L 148 39 L 148 42 L 0.613281 42 Z M 0.613281 39 " clip-rule="nonzero"/></clipPath><clipPath id="1dcd3e09de"><path d="M 302 0 L 354 0 L 354 50.753906 L 302 50.753906 Z M 302 0 " clip-rule="nonzero"/></clipPath><clipPath id="36bf0debc0"><path d="M 376 9 L 408.144531 9 L 408.144531 42 L 376 42 Z M 376 9 " clip-rule="nonzero"/></clipPath><clipPath id="402a9ab1b6"><path d="M 0.613281 39 L 148 39 L 148 42 L 0.613281 42 Z M 0.613281 39 " clip-rule="nonzero"/></clipPath></defs><g clip-path="url(#8bf28ad677)"><path fill="#be47ff" d="M 302.488281 25.484375 C 318.542969 20.277344 322.765625 16.058594 327.96875 0 C 333.175781 16.058594 337.394531 20.277344 353.453125 25.484375 C 337.394531 30.691406 333.175781 34.910156 327.96875 50.964844 C 322.765625 34.910156 318.542969 30.691406 302.488281 25.484375 Z M 302.488281 25.484375 " fill-opacity="1" fill-rule="nonzero"/></g><g clip-path="url(#ec705a806a)"><path fill="#be47ff" d="M 376.09375 25.484375 C 386.28125 22.183594 388.957031 19.503906 392.257812 9.316406 C 395.558594 19.507812 398.238281 22.183594 408.425781 25.484375 C 398.234375 28.785156 395.558594 31.464844 392.257812 41.648438 C 388.957031 31.460938 386.277344 28.785156 376.09375 25.484375 Z M 376.09375 25.484375 " fill-opacity="1" fill-rule="nonzero"/></g><path fill="#be47ff" d="M 310.75 26.996094 L 112.664062 26.996094 C 112 26.996094 111.457031 26.457031 111.457031 25.789062 C 111.457031 25.121094 111.996094 24.582031 112.664062 24.582031 L 310.75 24.582031 C 311.417969 24.582031 311.957031 25.121094 311.957031 25.789062 C 311.957031 26.457031 311.417969 26.996094 310.75 26.996094 Z M 310.75 26.996094 " fill-opacity="1" fill-rule="nonzero"/><path fill="#be47ff" d="M 218.101562 14.367188 L 218.097656 14.367188 L 146.574219 14.078125 C 145.910156 14.078125 145.371094 13.53125 145.371094 12.867188 C 145.375 12.203125 145.914062 11.664062 146.578125 11.664062 L 146.582031 11.664062 L 218.105469 11.953125 C 218.773438 11.957031 219.3125 12.5 219.308594 13.164062 C 219.308594 13.832031 218.765625 14.367188 218.101562 14.367188 Z M 218.101562 14.367188 " fill-opacity="1" fill-rule="nonzero"/><g clip-path="url(#257a6437f2)"><path fill="#be47ff" d="M 145.953125 41.425781 L 1.820312 41.425781 C 1.15625 41.425781 0.613281 40.886719 0.613281 40.21875 C 0.613281 39.550781 1.152344 39.011719 1.820312 39.011719 L 145.953125 39.011719 C 146.621094 39.011719 147.160156 39.550781 147.160156 40.21875 C 147.160156 40.886719 146.621094 41.425781 145.953125 41.425781 Z M 145.953125 41.425781 " fill-opacity="1" fill-rule="nonzero"/></g><g clip-path="url(#1dcd3e09de)"><path fill="#be47ff" d="M 302.488281 25.484375 C 318.542969 20.277344 322.765625 16.058594 327.96875 0 C 333.175781 16.058594 337.394531 20.277344 353.453125 25.484375 C 337.394531 30.691406 333.175781 34.910156 327.96875 50.964844 C 322.765625 34.910156 318.542969 30.691406 302.488281 25.484375 Z M 302.488281 25.484375 " fill-opacity="1" fill-rule="nonzero"/></g><g clip-path="url(#36bf0debc0)"><path fill="#be47ff" d="M 376.09375 25.484375 C 386.28125 22.183594 388.957031 19.503906 392.257812 9.316406 C 395.558594 19.507812 398.238281 22.183594 408.425781 25.484375 C 398.234375 28.785156 395.558594 31.464844 392.257812 41.648438 C 388.957031 31.460938 386.277344 28.785156 376.09375 25.484375 Z M 376.09375 25.484375 " fill-opacity="1" fill-rule="nonzero"/></g><path fill="#be47ff" d="M 310.75 26.996094 L 112.664062 26.996094 C 112 26.996094 111.457031 26.457031 111.457031 25.789062 C 111.457031 25.121094 111.996094 24.582031 112.664062 24.582031 L 310.75 24.582031 C 311.417969 24.582031 311.957031 25.121094 311.957031 25.789062 C 311.957031 26.457031 311.417969 26.996094 310.75 26.996094 Z M 310.75 26.996094 " fill-opacity="1" fill-rule="nonzero"/><path fill="#be47ff" d="M 218.101562 14.367188 L 218.097656 14.367188 L 146.574219 14.078125 C 145.910156 14.078125 145.371094 13.53125 145.371094 12.867188 C 145.375 12.203125 145.914062 11.664062 146.578125 11.664062 L 146.582031 11.664062 L 218.105469 11.953125 C 218.773438 11.957031 219.3125 12.5 219.308594 13.164062 C 219.308594 13.832031 218.765625 14.367188 218.101562 14.367188 Z M 218.101562 14.367188 " fill-opacity="1" fill-rule="nonzero"/><g clip-path="url(#402a9ab1b6)"><path fill="#be47ff" d="M 145.953125 41.425781 L 1.820312 41.425781 C 1.15625 41.425781 0.613281 40.886719 0.613281 40.21875 C 0.613281 39.550781 1.152344 39.011719 1.820312 39.011719 L 145.953125 39.011719 C 146.621094 39.011719 147.160156 39.550781 147.160156 40.21875 C 147.160156 40.886719 146.621094 41.425781 145.953125 41.425781 Z M 145.953125 41.425781 " fill-opacity="1" fill-rule="nonzero"/></g></svg>